<?xml version="1.0" encoding="UTF-8"?>
<svg id="Layer_2" data-name="Layer 2" xmlns="http://www.w3.org/2000/svg" viewBox="0 0 99 173.16">
  <defs>
    <style>
      .cls-1 {
        fill: #9499af;
      }

      .cls-1, .cls-2, .cls-3, .cls-4, .cls-5, .cls-6, .cls-7, .cls-8, .cls-9, .cls-10, .cls-11, .cls-12, .cls-13, .cls-14, .cls-15, .cls-16, .cls-17, .cls-18, .cls-19, .cls-20, .cls-21, .cls-22, .cls-23, .cls-24, .cls-25, .cls-26, .cls-27 {
        stroke-width: 0px;
      }

      .cls-2 {
        fill: #0d2cd0;
      }

      .cls-3 {
        fill: #0f30d0;
      }

      .cls-4 {
        fill: #0f0f0f;
      }

      .cls-5 {
        fill: #1d32d0;
      }

      .cls-6 {
        fill: #22263f;
      }

      .cls-7 {
        fill: #cf1324;
      }

      .cls-8 {
        fill: #979dba;
      }

      .cls-9 {
        fill: #022287;
      }

      .cls-10 {
        fill: #021d7e;
      }

      .cls-11 {
        fill: #fff;
      }

      .cls-12 {
        fill: #f28f3c;
      }

      .cls-13 {
        fill: #ea5d0c;
      }

      .cls-14 {
        fill: #0226a3;
      }

      .cls-15 {
        fill: #021c6c;
      }

      .cls-16 {
        fill: #0328a5;
      }

      .cls-17 {
        fill: #010c3a;
      }

      .cls-18 {
        fill: #011146;
      }

      .cls-19 {
        fill: #011559;
      }

      .cls-20 {
        fill: #011455;
      }

      .cls-21 {
        fill: #01104f;
      }

      .cls-22 {
        fill: #011044;
      }

      .cls-23 {
        fill: #010731;
      }

      .cls-24 {
        fill: #020722;
      }

      .cls-25 {
        fill: #0431d0;
      }

      .cls-26 {
        fill: #02060a;
      }

      .cls-27 {
        fill: #02176c;
      }
    </style>
  </defs>
  <g id="Layer_1-2" data-name="Layer 1">
    <g>
      <g>
        <path class="cls-27" d="m77.42,14.99s-11.74,115.58-13.73,132.1c-1.87,15.56-4.73,21.44-.49,25,3.61,3.03,3.08-.37,4.13-9.68,1.08-9.63,17.98-133.48,18.88-140.66,1.51-12.09.35-11.9-2.7-12.56-2.98-.64-5.6.74-6.09,5.8h0Z"/>
        <path class="cls-8" d="m86.86,13.15s-.01.09-.02.13c0,.06,0,.11,0,.17.01-.14.01-.24.01-.3h0Z"/>
        <path class="cls-19" d="m71.6,129.08c-1.05-.55-2.19-1.21-3.42-1.98-.42-.26-.89-.55-1.42-.87-.23,2.32-.29,3.96-.12,4.64,1.14,4.32-.45,42.14-4.35,38.96-.13-.11-.27-.26-.41-.46.13.65,1.05,2.39,1.99,3.24.34.24.63.39.88.48.56.05,1.03-.54,1.19-2.33.42-4.81,4.22-30.83,5.66-41.67h0Zm8.48-85.69c-.25-.07-.5-.14-.74-.21-.06.34-.13.7-.2,1.1,1.03.6,2.2,1.25,3.47,1.86.09-.63.17-1.25.25-1.88-.95-.32-1.89-.61-2.79-.87h0Zm6.76-30.12c-.33,2.36-2.64,5.03-5.12,4.75-.1-.01-.2-.03-.3-.04-.26-.05-.51-.13-.75-.23.82,1.35,2.26,4.11,2.07,6.6-.26,3.44.13,3.91-1.79,4.43-.15.04-.28.14-.4.28.24.11.48.22.72.32,1.07.33,2.11.61,3.11.84.12.03.25.06.37.08,1.16-8.77,1.99-15.29,2.1-16.87,0-.06,0-.12,0-.17h0Z"/>
        <path class="cls-2" d="m86.86,13.15c-.26,2.39-2.61,5.16-5.14,4.88-2.49-.27-4.23-3.01-4-5.31.23-2.32,2.4-4.46,4.92-4.27,2.58.19,4.49,2.3,4.22,4.7h0Z"/>
        <path class="cls-5" d="m85.68,13.18c-.2,1.79-1.95,3.88-3.86,3.68-1.88-.2-3.2-2.27-3.03-4.01.17-1.75,1.82-3.36,3.72-3.21,1.93.15,3.36,1.74,3.16,3.53h0Z"/>
        <path class="cls-3" d="m81.94,14.7c-.71-.13-1.2-.92-1.13-1.59.07-.7.73-1.34,1.49-1.27.04,0,.08,0,.12.02.7.12,1.2.72,1.13,1.39-.08.71-.77,1.55-1.53,1.47-.03,0-.06,0-.09-.01h0Zm.71-4.08c-.07-.01-.15-.02-.22-.03-1.41-.11-2.63,1.07-2.76,2.37-.13,1.24.77,2.7,2.08,2.94.05,0,.11.02.16.02,1.41.14,2.7-1.41,2.84-2.73.14-1.25-.8-2.37-2.1-2.58h0Z"/>
        <path class="cls-25" d="m82.43,11.85s-.08-.01-.12-.02c-.76-.06-1.42.57-1.49,1.27-.07.67.42,1.47,1.13,1.59.03,0,.06,0,.09.01.76.07,1.45-.76,1.53-1.47.07-.67-.43-1.27-1.13-1.39h0Z"/>
        <path class="cls-27" d="m6.11,5.31s3.17,90.07,3.55,103.95c.36,13.3-1.95,18.04,3,20.76,3.86,2.13,2.9-1.19,2.58-9.18-.32-8.19-.29-106.64-.42-111.96C14.6,0,13.61.3,10.82.26c-2.74-.04-4.91,1.33-4.71,5.05h0Z"/>
        <path class="cls-14" d="m10.7,2.66c.04,1.66-.9,3.89-2.16,4.05-1.24.17-2.29-1.47-2.34-3.09-.05-1.62.87-3.38,2.12-3.59,1.27-.22,2.34.96,2.38,2.63h0Z"/>
        <path class="cls-8" d="m10.81,2.62s0,0,0,.01c0,.07.02.14.03.21,0-.11-.01-.18-.02-.22h0Z"/>
        <path class="cls-19" d="m10.8,2.63s-.07.09-.1.14c0,1.65-.93,3.78-2.16,3.94-.15.02-.3.01-.44-.02-.08-.02-.17-.04-.25-.08.47.74,1.59,2.67,1.69,4.68.12,2.53.35,2.82-.6,3.49-.25.18-.35.8-.37,1.65.77-.06,1.58-.12,2.44-.17-.06-7-.12-12.21-.18-13.42,0-.07-.02-.14-.03-.21h0Z"/>
        <path class="cls-9" d="m10.7,2.77c-.15.19-.32.4-.52.64-.16,1.19-.82,2.5-1.67,2.61-.12.02-.23.01-.35-.01-.07-.01-.14-.03-.2-.06-.2.23-.33.36-.33.36,0,0,.08.11.21.31.08.03.16.06.25.08.14.03.29.04.44.02,1.23-.16,2.16-2.3,2.16-3.94h0Z"/>
        <path class="cls-19" d="m10.08,94.92h0c.05.2.11.36.17.47,1.68,3.21,5.47,35.02,1.13,32.97-.11-.05-.23-.13-.36-.23.21.49,1.27,1.62,2.26,2.09s1.98.28,1.82-2.08c-.22-3.27-.29-17.84-.38-28.33-.54-2.95-3.2-4.34-4.64-4.89h0Zm4.59,0c-1.62-.45-3.22-.88-4.81-1.29,0,.07.02.15.03.22l4.78,1.19s0-.08,0-.13h0Z"/>
        <path class="cls-5" d="m10.22,2.81c.03,1.31-.71,3.07-1.7,3.21-.98.13-1.81-1.16-1.85-2.44-.04-1.29.69-2.67,1.68-2.84,1-.17,1.84.76,1.87,2.08h0Z"/>
        <path class="cls-3" d="m8.32,4.43c-.33-.06-.59-.52-.6-.97-.01-.52.28-1.07.67-1.13.06-.01.12,0,.18,0,.31.06.55.39.56.83.01.52-.28,1.22-.67,1.28-.05,0-.09,0-.14,0h0Zm.38-3c-.11-.02-.22-.02-.34,0-.73.12-1.27,1.14-1.25,2.1.02.84.5,1.68,1.11,1.8.08.02.17.02.26,0,.73-.1,1.28-1.4,1.26-2.37-.02-.81-.46-1.43-1.04-1.53h0Z"/>
        <path class="cls-25" d="m8.58,2.33c-.06-.01-.12-.01-.18,0-.39.06-.69.61-.67,1.13.01.45.27.91.6.97.05,0,.09.01.14,0,.4-.06.69-.76.67-1.28-.01-.44-.25-.77-.56-.83h0Z"/>
        <path class="cls-16" d="m71.06,39.58c2.32-2.48,20.6,5.41,21.85,5.76s5.82-5.39,6.08-7.07c.26-1.69-2.61-7.53-4.68-7.12-2.04.39-7.12.06-13.04-1.75C38.36,9.83,0,17.49,0,17.49l1.18,2.31,55.86,76.71,14.53-55.09c-1.06-.35-1.48-.8-.51-1.84h0Z"/>
        <path class="cls-21" d="m93.9,48.99c-6.03.28-12.49-3.27-16.13-5.53-1.4-.87-3.1-1.28-4.5-1.61-.65-.15-1.23-.28-1.7-.43l-14.53,55.09,17.64,16.68c.44.22.91.48,1.43.82,3.41,2.25,17.92-58.89,19.7-60.42.61-2.34-.68-2.09-1.9-4.6h0Z"/>
        <path class="cls-21" d="m3.91,66.94c-.2-.1-.39-.19-.58-.26.76.41,1.4.69.58.26Z"/>
        <path class="cls-21" d="m77.6,117.88c-2.8-.94-6.67-5.45-6.67-5.45,0,0,1.32-.43,3.74.76L1.18,19.8l-1.18-2.31s.68,45.45.97,46.18c.54,1.36.57,1.68,1.1,2.21.21.21.76.53,1.27.8.19.07.38.15.58.26.82.43.18.15-.58-.26-1.07-.39-1.88-.19-2.11.31-.26.59.25,11.22.25,11.22,0,0,.45,2.24,1.5,3.11,1.06.88,1.11,1.03.05.39s-1.05.3-1.05,1c-.01,3.93.9,8.25,1.5,8.88.61.63,6.73.77,12.72,4.09,7.81,5.73,40.71,22.25,50.28,28.18,10.34,6.41,17.22-.44,17.22-.44l-1.19-2.74s-2.03-1.84-4.9-2.8h0Z"/>
        <path class="cls-4" d="m9.02,87.03l.14.09c.01-.93.32-1.5.68-1.29.36.22.65,1.16.63,2.09-.02.93-.32,1.5-.69,1.28-.36-.23-.64-1.15-.63-2.08l-.14-.09-.14-.09c-.02,1.32.38,2.65.89,2.97.52.32.96-.49.98-1.82.02-1.34-.38-2.68-.9-2.99s-.95.52-.97,1.84l.14.09h0Z"/>
        <path class="cls-10" d="m5.4,92.33c.66.25,1.33.64,2,.93,1.96.83,3.97,1.83,6.02,2.82,1.31.63,2.63,1.33,3.97,2.09,7.89,5.84,41.12,22.86,50.78,28.93,10.45,6.57,13.78,4.37,13.78,4.37l1.82-8.35s-1.43-.82-4.33-1.83c-2.83-.98-6.74-5.55-6.74-5.55,0,0,1.87-.59,5.23,1.66,3.45,2.3,5.36,3.73,6.86,2.86,2.57-7.71,11.07-63.16,11.32-67.68-6.11.19-12.65-3.44-16.34-5.76-1.42-.89-3.14-1.32-4.55-1.67-2.17-.53-3.63-.84-2.23-2.31,2.35-2.45,20.85,5.7,22.12,6.07s3.46-8.03,3.72-9.7c.26-1.68-.17-4.86-2.27-4.49-2.06.37-7.22-.04-13.21-1.93C39.97,12.65,1.18,19.8,1.18,19.8c0,0,.05,2.12.14,5.09,0,.33.02.66.03,1.01.05,1.56.1,3.29.15,5.04.08,2.4.1,27.62.19,29.57.08,1.81.16,3.34.23,4.31.05.7.11,1.12.15,1.14.36.19,3.72,2.21,4.27,2.75.56.55.08,1.3-1.3.56s-2.45-.57-2.72.02c-.15.33-.14,3.75-.11,6.6.03,2.13.07,3.77.07,3.77,0,0,.34,1.8,1.4,2.67,1.06.88,1.5,2.34.43,1.68s-1.03-.32-1.15.23c-.09.41-.03,1.23,0,1.86,0,0,.26,5.3.58,5.51s1.86.71,1.86.71h0Z"/>
        <path class="cls-22" d="m3.04,81.72s.09.07.19.14c-.01-.01-.02-.03-.03-.04-.02,0-.03-.02-.05-.03-.04-.03-.08-.05-.11-.07h0Z"/>
        <path class="cls-15" d="m85.27,118.45s-15.09-7.75-17.77-8.28c-2.46-.49-28.14-11.23-34.2-14.77-.39-.23-.71-.43-.95-.6-1.19-.86-3.06-2.02-5.11-3.22-4.43-2.58-9.6-5.29-10.73-5.78-1.55-.66-11.53-2.96-13.32-3.98,0,.01.02.03.03.04.32.24,1.01.73,1.93,1.29,1.54.94,3.77,2.07,6.07,2.54,3.17.64,7.08,1.94,10.84,4.15,1.51.89,2.99,1.92,4.37,3.12.45.39,1.12.84,1.97,1.35,8.91,5.28,42.11,18.24,45.87,20.36,4.26,2.41,10.98,3.79,10.98,3.79h0Z"/>
        <path class="cls-22" d="m3.02,81.7h0s.01.01.02.02c-.01-.01-.02-.02-.02-.02h0Z"/>
        <path class="cls-15" d="m3.08,88.08s.01,0,.02.01c-.01,0-.02-.01-.02-.01h0Zm59.98,29.03s-10.24-5.69-12.09-6.1c-1.7-.38-20.07-8.72-24.56-11.51-.29-.18-.53-.34-.71-.48-.89-.68-2.3-1.61-3.85-2.57-3.36-2.09-7.32-4.32-8.19-4.72-1.21-.57-9.16-2.73-10.48-3.57-.03-.02-.06-.04-.09-.06.11.09.74.59,1.68,1.19,1.22.78,2.98,1.74,4.78,2.18,2.47.6,5.49,1.72,8.37,3.52,1.15.72,2.28,1.55,3.33,2.49.34.31.85.67,1.49,1.07,6.66,4.18,30.32,14.21,32.91,15.79,2.91,1.77,7.4,2.78,7.4,2.78h0Z"/>
        <path class="cls-15" d="m94.19,66.77c-.55-.13-15.69,29.94-18.91,29.01-3.32-.95-28.99-5.99-32.23-7.1-3.15-1.08-21.41-6.78-23.65-7.75-1.7-.74-11.49-4.18-15.51-5.59,4.48,2.05,18.8,8.56,24.61,10.9,7.53,3.04,23.08,6.03,28.41,7.56,5.59,1.61,36.39-26.93,37.27-27.02,0,0,.02,0,.02,0v-.02h0Z"/>
        <path class="cls-22" d="m2.2,74.69l-.16.02s.06.02.16.06c0-.03,0-.05,0-.08h0Z"/>
        <path class="cls-15" d="m3.89,75.35c-.94-.43-1.49-.68-1.49-.68l-.19.02s0,.05,0,.08c.27.09.87.3,1.68.59h0Z"/>
        <path class="cls-15" d="m20.69,18.71c1.8,2.69,23.77,11.6,28.9,13.01,5.36,1.48,34.76,7.53,38.57,8.55s7.66-.52,7.51-.99c-.83,1.07-33.7-6.78-45.77-9.62-.5-.12-1.01-.25-1.54-.39-11.07-2.95-27.67-10.56-27.67-10.56h0Z"/>
        <path class="cls-15" d="m96.12,52.59h0s-1.39.41-2.56.88c0,0-30.58.04-37.15-1.89-6.23-1.83-17.33,26.38-19.28,26.02-.13-.02-.17-.03-.14-.01.45.22,19.53-23.87,23.65-22.39,4.38,1.57,31.63,3.86,34.91,2.5.32-2.38.52-4.19.57-5.11h0Z"/>
        <path class="cls-22" d="m1.42,28.54s-.07-.02-.07-.02c0,0,.03.01.07.03,0,0,0,0,0,0h0Z"/>
        <path class="cls-15" d="m10.97,31.55c-4.42-1.45-8.93-2.83-9.55-3.01,0,0,0,0,0,0,1.11.47,15.13,6.46,16.71,6.99,1.68.56,18.95,7.35,18.95,7.35,0,0-12.43,30.51-14.15,31.02-1.69.5-12.63-1.05-13.98-1.27-1.33-.22-6.73.49-6.73.49,0,0,4.44,1.01,7.18,1.27,2.83.27,9.03,3.1,14.6.88,5.97-2.38,16.33-31.96,16.33-31.96,0,0-17.74-7.52-22.82-9.5-1.64-.64-4.07-1.47-6.54-2.28h0Z"/>
        <path class="cls-15" d="m7.7,68.26c-.92.17-1.35.46-1.35.46,0,0,.53-.19,1.35-.46h0ZM1.89,35.26h0s5.85,27.27,7.87,28.27,7.59,3.73,5.81,3.13c-1.27-.43-5.66.88-7.88,1.6.38-.07.85-.13,1.42-.13,1.96-.03,14.25-24.46,11.53-25.75-2.64-1.26-18.56-7.05-18.74-7.11h0Z"/>
        <path class="cls-26" d="m8.63,22.13c.02-1.42.45-2.46.96-2.32s.92,1.42.9,2.85-.46,2.45-.97,2.3-.91-1.41-.89-2.82Z"/>
        <path class="cls-24" d="m8.79,22.1c.02-1.42.45-2.46.96-2.32s.92,1.42.9,2.85c-.02,1.42-.46,2.45-.97,2.3s-.91-1.41-.89-2.83Z"/>
        <path class="cls-23" d="m8.94,22.15c.02-1.18.37-2.04.8-1.92s.76,1.18.74,2.36c-.02,1.18-.38,2.03-.81,1.91s-.75-1.17-.74-2.34Z"/>
        <path class="cls-26" d="m77.82,36.19c.23-1.89,1.18-3.24,2.13-3s1.54,1.99,1.3,3.9-1.2,3.22-2.15,2.96-1.51-1.98-1.29-3.86Z"/>
        <path class="cls-24" d="m78.12,36.17c.23-1.89,1.18-3.24,2.14-3.01s1.55,2,1.3,3.91-1.21,3.22-2.15,2.96-1.51-1.99-1.29-3.87Z"/>
        <path class="cls-23" d="m78.41,36.25c.19-1.57.98-2.69,1.77-2.49s1.28,1.65,1.08,3.24c-.2,1.57-1,2.67-1.78,2.46s-1.26-1.65-1.07-3.21Z"/>
        <path class="cls-26" d="m68,121.26c.17-1.43.95-2.21,1.75-1.74s1.3,2.04,1.12,3.48c-.18,1.43-.97,2.19-1.76,1.7s-1.28-2.02-1.11-3.44Z"/>
        <path class="cls-24" d="m68.25,121.33c.17-1.43.96-2.21,1.75-1.74s1.31,2.04,1.12,3.48-.97,2.19-1.77,1.7-1.28-2.02-1.11-3.44Z"/>
        <path class="cls-23" d="m68.49,121.48c.14-1.19.79-1.83,1.45-1.44s1.08,1.69.93,2.88-.81,1.82-1.46,1.41-1.06-1.68-.92-2.86Z"/>
        <path class="cls-26" d="m8.77,89.71c.02-1.15.41-1.85.87-1.57s.83,1.46.81,2.62c-.02,1.15-.41,1.84-.88,1.55s-.82-1.46-.8-2.6Z"/>
        <path class="cls-24" d="m8.91,89.73c.02-1.15.41-1.86.87-1.57s.83,1.47.81,2.62-.41,1.84-.88,1.55-.82-1.46-.8-2.6Z"/>
        <path class="cls-23" d="m9.05,89.82c.01-.95.34-1.54.72-1.3s.69,1.21.67,2.17-.34,1.53-.73,1.28-.68-1.21-.67-2.16Z"/>
        <path class="cls-19" d="m65.82,142.72s-.05.02-.09.11c-.77,2.02-3.84,22.02-3.84,22.02,0,0,3.37-15.75,3.4-15.73,0,0,0,.03-.02.09-.29,1.52-1.41,18.91-1.41,18.91l.28-.78c.4-2.04,2.18-24.27,1.67-24.62h0Z"/>
        <path class="cls-19" d="m10.65,105.12s-.05.03-.07.12c-.4,1.88-.16,19.27-.16,19.27,0,0,.7-14.04.73-14.03,0,0,0,.03,0,.08-.04,1.33,1.65,16.02,1.65,16.02l.14-.74c.06-1.82-1.75-20.5-2.29-20.72h0Z"/>
        <path class="cls-1" d="m7.77,93.63h0s0,0,0,0c0,0,0,0,0,0h0Z"/>
        <path class="cls-20" d="m8.28,93.85l-.51-.22s0,0,0,0l.08.98s.22.08.54.29c-.04-.28-.08-.63-.11-1.06h0Zm2.78,1.21h-.03c0,1.41.02,3.02.03,4.75,0,.05.01.1.01.15-.04-1.33,0-4.89,0-4.89h0Z"/>
        <path class="cls-18" d="m11.02,95.04l-2.75-1.19c.03.43.06.78.11,1.06h0c.83.55,2.36,1.94,2.67,4.89,0-1.73-.02-3.34-.03-4.76h0Z"/>
        <path class="cls-20" d="m11.07,99.95c0,.24.02.41.03.47,0-.16-.02-.32-.03-.47h0Z"/>
        <path class="cls-17" d="m65.84,127.03s5.52,3.97,5.17,6.72c-.17,1.29.72-4.25.72-4.25l-5.6-3.52-.29,1.05Z"/>
        <path class="cls-17" d="m6.54,15.53s4.42.67,4.48-2.97l-.06,3.64-4.43.44v-1.1Z"/>
        <path class="cls-17" d="m76.48,25.01s7.62,4.84,8.76,3.21l-.05,1.57s-7.29-2-8.92-2.99l.21-1.79Z"/>
        <path class="cls-17" d="m82.8,44.62l-.23,1.75s-6.55-4-7.03-3.55c.72-.08,5.52,1.3,7.26,1.81Z"/>
      </g>
      <g>
        <path class="cls-11" d="m62.15,70.12c-1.78-.75-8.11-2.86-12.44,3.5-.89-4.58-4.2-7.71-7.9-7.6-3.69-.16-7.01,3.02-7.9,7.6-4.29-6.25-10.45-4.36-12.36-3.56.08,2.05.64,4.04,1.61,5.71,5.52,9.75,13.34,13.31,18.64,13.42h.25c5.31-.11,13.12-3.66,18.6-13.42.85-1.62,1.4-3.61,1.49-5.66Z"/>
        <path class="cls-7" d="m41.85,30.62c14.23,0,25.74,14.6,25.74,32.65s-11.51,32.65-25.74,32.65-25.74-14.6-25.74-32.65,11.55-32.65,25.74-32.65Z"/>
        <path class="cls-13" d="m26.73,47.59c1.32-1.94,2.97-3.56,4.76-4.74-3.4-5.01-6.12-7.49-7.3-8.08-1.02,4.04.17,10.35,1.32,14.76.38-.65.81-1.29,1.23-1.94Z"/>
        <path class="cls-13" d="m56.88,47.59c.38.54.72,1.08,1.06,1.67,1.1-4.42,2.25-10.56,1.23-14.49-1.19.59-3.86,3.02-7.22,7.97,1.87,1.19,3.57,2.86,4.93,4.85Z"/>
        <path class="cls-12" d="m56.88,47.59c-1.4-1.99-3.06-3.66-4.93-4.85,3.36-4.9,6.03-7.38,7.22-7.97,1.02,3.93-.13,10.08-1.23,14.49-.34-.59-.68-1.13-1.06-1.67Zm-30.15,0c-.42.65-.85,1.29-1.23,1.99-1.15-4.42-2.34-10.78-1.32-14.76,1.19.59,3.91,3.07,7.3,8.08-1.78,1.13-3.4,2.75-4.76,4.69Zm35.33,20.04c-.64-5.44-1.61-10.13-3.1-14.01,1.23-3.72,2.08-7.65,2.51-11.64.3-3.18.21-6.47-.76-9.16-.21-.59-.72-.92-1.27-.81-.85.22-2.38.92-4.42,3.02-2.12,2.21-4.03,4.74-5.69,7.54-2.38-.92-4.88-1.4-7.39-1.4h-.25c-2.59-.05-5.14.48-7.6,1.45-1.7-2.8-3.61-5.39-5.78-7.65-2.08-2.1-3.57-2.8-4.42-3.02-.51-.11-1.02.22-1.27.81-.98,2.69-1.06,5.93-.76,9.11.47,4.15,1.36,8.19,2.63,12.02-1.4,3.83-2.34,8.41-2.97,13.69-.08.81-.13,1.62-.08,2.42,1.91-.81,8.11-2.69,12.36,3.56.89-4.58,4.2-7.71,7.9-7.6,1.32-.05,2.63.32,3.82,1.08,2.04,1.35,3.52,3.72,4.08,6.52,4.33-6.36,10.66-4.31,12.44-3.5.17-.75.13-1.62.04-2.42Z"/>
        <path class="cls-6" d="m47.49,79.66c-.21.54-.34,1.08-.34,1.67,0,.16-.13.32-.3.32h-.3l-.68,2.26c0,.05-.08.11-.13.11s-.04,0-.08-.05c-.13-.22-.25-.38-.34-.59-.04-.05-.04-.11-.04-.16v-2.59c-1.15.22-2.34.32-3.48.27h-.08c-1.15,0-2.34-.11-3.48-.32v2.59c0,.05,0,.11-.04.16-.08.22-.21.43-.34.59-.04.05-.13.05-.17,0l-.04-.05-.68-2.26h-.3c-.13,0-.25-.11-.3-.32,0-.59-.13-1.13-.34-1.67-.04-.11,0-.22.08-.27h.04c.55,0,1.74-.05,2,0h2.08c.21-.43.51-.7.85-.86v-1.78c-2.51-.38-2.8-3.29-2.76-5.01,0-.7.47-1.29,1.02-1.29h4.67c.55,0,1.02.54,1.02,1.29.04,1.72-.25,4.58-2.76,5.01v1.78c.34.16.68.48.85.86h4.08c.08,0,.17.11.17.22q.13.05.13.11Z"/>
        <path class="cls-11" d="m47.49,79.66c-.21.54-.34,1.08-.34,1.67,0,.16-.13.32-.3.32h-.3l-.68,2.26c0,.05-.08.11-.13.11s-.04,0-.08-.05c-.13-.22-.25-.38-.34-.59-.04-.05-.04-.11-.04-.16v-2.59c-1.15.22-2.34.32-3.48.32h-.08c-1.15,0-2.34-.11-3.48-.32v2.59c0,.05,0,.11-.04.16-.08.22-.21.43-.34.59-.04.05-.13.05-.17,0l-.04-.05-.68-2.26h-.3c-.13,0-.25-.11-.3-.32,0-.59-.13-1.13-.34-1.67-.04-.11,0-.22.08-.27h.04c.55,0,1.74-.05,2-.05h2.08c.21-.43.51-.7.85-.86v-1.78c-2.51-.38-2.8-3.29-2.76-5.01,0-.7.47-1.29,1.02-1.29h4.67c.55,0,1.02.54,1.02,1.29.04,1.72-.25,4.58-2.76,5.01v1.78c.34.16.68.48.85.86h2.08c.25,0,1.44,0,2,.05.08,0,.17.11.17.22q.13,0,.13.05Zm-3.23,2.69c0,.38-.17.7-.47.81h-.13c-.38,0-.38-.59-.81-.59-.38,0-.47,1.45-1.06,1.51h-.04c-.55-.11-.64-1.51-1.02-1.51s-.42.59-.81.59h-.13c-.3-.11-.47-.43-.47-.81v-.43h4.93v.43Zm17.88-12.23c-1.78-.75-8.11-2.86-12.44,3.5-.59-2.8-2.08-5.17-4.08-6.52-1.19-.7-2.51-1.08-3.82-1.08-3.69-.16-7.01,3.02-7.9,7.6-4.29-6.25-10.45-4.36-12.36-3.56.08,2.05.64,4.04,1.61,5.71,5.52,9.75,13.34,13.31,18.64,13.42h.25c1.7-.05,3.36-.38,4.97-.97,5.52-2.05,10.36-6.47,13.68-12.45.81-1.62,1.36-3.61,1.44-5.66Z"/>
        <path class="cls-6" d="m44.27,81.92v.43c0,.38-.17.7-.47.81h-.13c-.38,0-.38-.59-.81-.59s-.47,1.45-1.06,1.51h-.04c-.55-.11-.64-1.51-1.02-1.51s-.42.59-.81.59h-.13c-.3-.11-.47-.43-.47-.81v-.43h4.93Z"/>
        <path class="cls-6" d="m53.91,60.69l-.21-2.26c0-.38-.25-.7-.55-.7-.08,0-.13,0-.21.05-1.91.92-7.39,4.1-6.75,6.14.55,1.4,5.01-.11,7.22-2.05.34-.22.51-.7.51-1.19Z"/>
        <path class="cls-6" d="m29.83,60.69l.21-2.26c0-.38.25-.7.55-.7.08,0,.13,0,.17.05,1.91.92,7.39,4.1,6.75,6.14-.55,1.4-5.01-.11-7.22-2.05-.3-.22-.47-.7-.47-1.19Z"/>
        <path class="cls-11" d="m37.17,57.08c-1.1-.11-3.36-.38-4.08-.97-.93-.75-.55-4.2,2.85-3.72,2.59.38,2.93,2.64,2.42,3.93-.25.54-.72.81-1.19.75Z"/>
        <path class="cls-11" d="m46.56,57.08c1.1-.11,3.36-.38,4.08-.97.93-.75.55-4.2-2.85-3.72-2.59.38-2.93,2.64-2.42,3.93.21.54.72.81,1.19.75Z"/>
      </g>
    </g>
  </g>
</svg>