<?xml version="1.0" encoding="UTF-8"?>
<svg id="Layer_2" data-name="Layer 2" xmlns="http://www.w3.org/2000/svg" viewBox="0 0 99 173.16">
  <defs>
    <style>
      .cls-1 {
        fill: #9499af;
      }

      .cls-1, .cls-2, .cls-3, .cls-4, .cls-5, .cls-6, .cls-7, .cls-8, .cls-9, .cls-10, .cls-11, .cls-12, .cls-13, .cls-14, .cls-15, .cls-16, .cls-17, .cls-18, .cls-19, .cls-20, .cls-21, .cls-22, .cls-23, .cls-24, .cls-25, .cls-26, .cls-27, .cls-28 {
        stroke-width: 0px;
      }

      .cls-2 {
        fill: #568c38;
      }

      .cls-3 {
        fill: #0d2cd0;
      }

      .cls-4 {
        fill: #0f30d0;
      }

      .cls-5 {
        fill: #0f0f0f;
      }

      .cls-6 {
        fill: #1d32d0;
      }

      .cls-7 {
        fill: #1e3415;
      }

      .cls-8 {
        fill: #979dba;
      }

      .cls-9 {
        fill: #022287;
      }

      .cls-10 {
        fill: #021d7e;
      }

      .cls-11 {
        fill: #9d5b38;
      }

      .cls-12 {
        fill: #ebeef9;
      }

      .cls-13 {
        fill: #fcfcfc;
      }

      .cls-14 {
        fill: #0243f6;
      }

      .cls-15 {
        fill: #0226a3;
      }

      .cls-16 {
        fill: #021c6c;
      }

      .cls-17 {
        fill: #0328a5;
      }

      .cls-18 {
        fill: #010c3a;
      }

      .cls-19 {
        fill: #011146;
      }

      .cls-20 {
        fill: #011559;
      }

      .cls-21 {
        fill: #011455;
      }

      .cls-22 {
        fill: #01104f;
      }

      .cls-23 {
        fill: #011044;
      }

      .cls-24 {
        fill: #010731;
      }

      .cls-25 {
        fill: #020722;
      }

      .cls-26 {
        fill: #0431d0;
      }

      .cls-27 {
        fill: #02060a;
      }

      .cls-28 {
        fill: #02176c;
      }
    </style>
  </defs>
  <g id="Layer_1-2" data-name="Layer 1">
    <g>
      <g>
        <path class="cls-28" d="m77.42,14.99s-11.74,115.58-13.73,132.1c-1.87,15.56-4.73,21.44-.49,25,3.61,3.03,3.08-.37,4.13-9.68,1.08-9.63,17.98-133.48,18.88-140.66,1.51-12.09.35-11.9-2.7-12.56-2.98-.64-5.6.74-6.09,5.8h0Z"/>
        <path class="cls-8" d="m86.86,13.15s-.01.09-.02.13c0,.06,0,.11,0,.17.01-.14.01-.24.01-.3h0Z"/>
        <path class="cls-20" d="m71.6,129.08c-1.05-.55-2.19-1.21-3.42-1.98-.42-.26-.89-.55-1.42-.87-.23,2.32-.29,3.96-.12,4.64,1.14,4.32-.45,42.14-4.35,38.96-.13-.11-.27-.26-.41-.46.13.65,1.05,2.39,1.99,3.24.34.24.63.39.88.48.56.05,1.03-.54,1.19-2.33.42-4.81,4.22-30.83,5.66-41.67h0Zm8.48-85.69c-.25-.07-.5-.14-.74-.21-.06.34-.13.7-.2,1.1,1.03.6,2.2,1.25,3.47,1.86.09-.63.17-1.25.25-1.88-.95-.32-1.89-.61-2.79-.87h0Zm6.76-30.12c-.33,2.36-2.64,5.03-5.12,4.75-.1-.01-.2-.03-.3-.04-.26-.05-.51-.13-.75-.23.82,1.35,2.26,4.11,2.07,6.6-.26,3.44.13,3.91-1.79,4.43-.15.04-.28.14-.4.28.24.11.48.22.72.32,1.07.33,2.11.61,3.11.84.12.03.25.06.37.08,1.16-8.77,1.99-15.29,2.1-16.87,0-.06,0-.12,0-.17h0Z"/>
        <path class="cls-3" d="m86.86,13.15c-.26,2.39-2.61,5.16-5.14,4.88-2.49-.27-4.23-3.01-4-5.31.23-2.32,2.4-4.46,4.92-4.27,2.58.19,4.49,2.3,4.22,4.7h0Z"/>
        <path class="cls-6" d="m85.68,13.18c-.2,1.79-1.95,3.88-3.86,3.68-1.88-.2-3.2-2.27-3.03-4.01.17-1.75,1.82-3.36,3.72-3.21,1.93.15,3.36,1.74,3.16,3.53h0Z"/>
        <path class="cls-4" d="m81.94,14.7c-.71-.13-1.2-.92-1.13-1.59.07-.7.73-1.34,1.49-1.27.04,0,.08,0,.12.02.7.12,1.2.72,1.13,1.39-.08.71-.77,1.55-1.53,1.47-.03,0-.06,0-.09-.01h0Zm.71-4.08c-.07-.01-.15-.02-.22-.03-1.41-.11-2.63,1.07-2.76,2.37-.13,1.24.77,2.7,2.08,2.94.05,0,.11.02.16.02,1.41.14,2.7-1.41,2.84-2.73.14-1.25-.8-2.37-2.1-2.58h0Z"/>
        <path class="cls-26" d="m82.43,11.85s-.08-.01-.12-.02c-.76-.06-1.42.57-1.49,1.27-.07.67.42,1.47,1.13,1.59.03,0,.06,0,.09.01.76.07,1.45-.76,1.53-1.47.07-.67-.43-1.27-1.13-1.39h0Z"/>
        <path class="cls-28" d="m6.11,5.31s3.17,90.07,3.55,103.95c.36,13.3-1.95,18.04,3,20.76,3.86,2.13,2.9-1.19,2.58-9.18-.32-8.19-.29-106.64-.42-111.96C14.6,0,13.61.3,10.82.26c-2.74-.04-4.91,1.33-4.71,5.05h0Z"/>
        <path class="cls-15" d="m10.7,2.66c.04,1.66-.9,3.89-2.16,4.05-1.24.17-2.29-1.47-2.34-3.09-.05-1.62.87-3.38,2.12-3.59,1.27-.22,2.34.96,2.38,2.63h0Z"/>
        <path class="cls-8" d="m10.81,2.62s0,0,0,.01c0,.07.02.14.03.21,0-.11-.01-.18-.02-.22h0Z"/>
        <path class="cls-20" d="m10.8,2.63s-.07.09-.1.14c0,1.65-.93,3.78-2.16,3.94-.15.02-.3.01-.44-.02-.08-.02-.17-.04-.25-.08.47.74,1.59,2.67,1.69,4.68.12,2.53.35,2.82-.6,3.49-.25.18-.35.8-.37,1.65.77-.06,1.58-.12,2.44-.17-.06-7-.12-12.21-.18-13.42,0-.07-.02-.14-.03-.21h0Z"/>
        <path class="cls-9" d="m10.7,2.77c-.15.19-.32.4-.52.64-.16,1.19-.82,2.5-1.67,2.61-.12.02-.23.01-.35-.01-.07-.01-.14-.03-.2-.06-.2.23-.33.36-.33.36,0,0,.08.11.21.31.08.03.16.06.25.08.14.03.29.04.44.02,1.23-.16,2.16-2.3,2.16-3.94h0Z"/>
        <path class="cls-20" d="m10.08,94.92h0c.05.2.11.36.17.47,1.68,3.21,5.47,35.02,1.13,32.97-.11-.05-.23-.13-.36-.23.21.49,1.27,1.62,2.26,2.09s1.98.28,1.82-2.08c-.22-3.27-.29-17.84-.38-28.33-.54-2.95-3.2-4.34-4.64-4.89h0Zm4.59,0c-1.62-.45-3.22-.88-4.81-1.29,0,.07.02.15.03.22l4.78,1.19s0-.08,0-.13h0Z"/>
        <path class="cls-6" d="m10.22,2.81c.03,1.31-.71,3.07-1.7,3.21-.98.13-1.81-1.16-1.85-2.44-.04-1.29.69-2.67,1.68-2.84,1-.17,1.84.76,1.87,2.08h0Z"/>
        <path class="cls-4" d="m8.32,4.43c-.33-.06-.59-.52-.6-.97-.01-.52.28-1.07.67-1.13.06-.01.12,0,.18,0,.31.06.55.39.56.83.01.52-.28,1.22-.67,1.28-.05,0-.09,0-.14,0h0Zm.38-3c-.11-.02-.22-.02-.34,0-.73.12-1.27,1.14-1.25,2.1.02.84.5,1.68,1.11,1.8.08.02.17.02.26,0,.73-.1,1.28-1.4,1.26-2.37-.02-.81-.46-1.43-1.04-1.53h0Z"/>
        <path class="cls-26" d="m8.58,2.33c-.06-.01-.12-.01-.18,0-.39.06-.69.61-.67,1.13.01.45.27.91.6.97.05,0,.09.01.14,0,.4-.06.69-.76.67-1.28-.01-.44-.25-.77-.56-.83h0Z"/>
        <path class="cls-17" d="m71.06,39.58c2.32-2.48,20.6,5.41,21.85,5.76s5.82-5.39,6.08-7.07c.26-1.69-2.61-7.53-4.68-7.12-2.04.39-7.12.06-13.04-1.75C38.36,9.83,0,17.49,0,17.49l1.18,2.31,55.86,76.71,14.53-55.09c-1.06-.35-1.48-.8-.51-1.84h0Z"/>
        <path class="cls-22" d="m93.9,48.99c-6.03.28-12.49-3.27-16.13-5.53-1.4-.87-3.1-1.28-4.5-1.61-.65-.15-1.23-.28-1.7-.43l-14.53,55.09,17.64,16.68c.44.22.91.48,1.43.82,3.41,2.25,17.92-58.89,19.7-60.42.61-2.34-.68-2.09-1.9-4.6h0Z"/>
        <path class="cls-22" d="m3.91,66.94c-.2-.1-.39-.19-.58-.26.76.41,1.4.69.58.26Z"/>
        <path class="cls-22" d="m77.6,117.88c-2.8-.94-6.67-5.45-6.67-5.45,0,0,1.32-.43,3.74.76L1.18,19.8l-1.18-2.31s.68,45.45.97,46.18c.54,1.36.57,1.68,1.1,2.21.21.21.76.53,1.27.8.19.07.38.15.58.26.82.43.18.15-.58-.26-1.07-.39-1.88-.19-2.11.31-.26.59.25,11.22.25,11.22,0,0,.45,2.24,1.5,3.11,1.06.88,1.11,1.03.05.39s-1.05.3-1.05,1c-.01,3.93.9,8.25,1.5,8.88.61.63,6.73.77,12.72,4.09,7.81,5.73,40.71,22.25,50.28,28.18,10.34,6.41,17.22-.44,17.22-.44l-1.19-2.74s-2.03-1.84-4.9-2.8h0Z"/>
        <path class="cls-5" d="m9.02,87.03l.14.09c.01-.93.32-1.5.68-1.29.36.22.65,1.16.63,2.09-.02.93-.32,1.5-.69,1.28-.36-.23-.64-1.15-.63-2.08l-.14-.09-.14-.09c-.02,1.32.38,2.65.89,2.97.52.32.96-.49.98-1.82.02-1.34-.38-2.68-.9-2.99s-.95.52-.97,1.84l.14.09h0Z"/>
        <path class="cls-10" d="m5.4,92.33c.66.25,1.33.64,2,.93,1.96.83,3.97,1.83,6.02,2.82,1.31.63,2.63,1.33,3.97,2.09,7.89,5.84,41.12,22.86,50.78,28.93,10.45,6.57,13.78,4.37,13.78,4.37l1.82-8.35s-1.43-.82-4.33-1.83c-2.83-.98-6.74-5.55-6.74-5.55,0,0,1.87-.59,5.23,1.66,3.45,2.3,5.36,3.73,6.86,2.86,2.57-7.71,11.07-63.16,11.32-67.68-6.11.19-12.65-3.44-16.34-5.76-1.42-.89-3.14-1.32-4.55-1.67-2.17-.53-3.63-.84-2.23-2.31,2.35-2.45,20.85,5.7,22.12,6.07s3.46-8.03,3.72-9.7c.26-1.68-.17-4.86-2.27-4.49-2.06.37-7.22-.04-13.21-1.93C39.97,12.65,1.18,19.8,1.18,19.8c0,0,.05,2.12.14,5.09,0,.33.02.66.03,1.01.05,1.56.1,3.29.15,5.04.08,2.4.1,27.62.19,29.57.08,1.81.16,3.34.23,4.31.05.7.11,1.12.15,1.14.36.19,3.72,2.21,4.27,2.75.56.55.08,1.3-1.3.56s-2.45-.57-2.72.02c-.15.33-.14,3.75-.11,6.6.03,2.13.07,3.77.07,3.77,0,0,.34,1.8,1.4,2.67,1.06.88,1.5,2.34.43,1.68s-1.03-.32-1.15.23c-.09.41-.03,1.23,0,1.86,0,0,.26,5.3.58,5.51s1.86.71,1.86.71h0Z"/>
        <path class="cls-23" d="m3.04,81.72s.09.07.19.14c-.01-.01-.02-.03-.03-.04-.02,0-.03-.02-.05-.03-.04-.03-.08-.05-.11-.07h0Z"/>
        <path class="cls-16" d="m85.27,118.45s-15.09-7.75-17.77-8.28c-2.46-.49-28.14-11.23-34.2-14.77-.39-.23-.71-.43-.95-.6-1.19-.86-3.06-2.02-5.11-3.22-4.43-2.58-9.6-5.29-10.73-5.78-1.55-.66-11.53-2.96-13.32-3.98,0,.01.02.03.03.04.32.24,1.01.73,1.93,1.29,1.54.94,3.77,2.07,6.07,2.54,3.17.64,7.08,1.94,10.84,4.15,1.51.89,2.99,1.92,4.37,3.12.45.39,1.12.84,1.97,1.35,8.91,5.28,42.11,18.24,45.87,20.36,4.26,2.41,10.98,3.79,10.98,3.79h0Z"/>
        <path class="cls-23" d="m3.02,81.7h0s.01.01.02.02c-.01-.01-.02-.02-.02-.02h0Z"/>
        <path class="cls-16" d="m3.08,88.08s.01,0,.02.01c-.01,0-.02-.01-.02-.01h0Zm59.98,29.03s-10.24-5.69-12.09-6.1c-1.7-.38-20.07-8.72-24.56-11.51-.29-.18-.53-.34-.71-.48-.89-.68-2.3-1.61-3.85-2.57-3.36-2.09-7.32-4.32-8.19-4.72-1.21-.57-9.16-2.73-10.48-3.57-.03-.02-.06-.04-.09-.06.11.09.74.59,1.68,1.19,1.22.78,2.98,1.74,4.78,2.18,2.47.6,5.49,1.72,8.37,3.52,1.15.72,2.28,1.55,3.33,2.49.34.31.85.67,1.49,1.07,6.66,4.18,30.32,14.21,32.91,15.79,2.91,1.77,7.4,2.78,7.4,2.78h0Z"/>
        <path class="cls-16" d="m94.19,66.77c-.55-.13-15.69,29.94-18.91,29.01-3.32-.95-28.99-5.99-32.23-7.1-3.15-1.08-21.41-6.78-23.65-7.75-1.7-.74-11.49-4.18-15.51-5.59,4.48,2.05,18.8,8.56,24.61,10.9,7.53,3.04,23.08,6.03,28.41,7.56,5.59,1.61,36.39-26.93,37.27-27.02,0,0,.02,0,.02,0v-.02h0Z"/>
        <path class="cls-23" d="m2.2,74.69l-.16.02s.06.02.16.06c0-.03,0-.05,0-.08h0Z"/>
        <path class="cls-16" d="m3.89,75.35c-.94-.43-1.49-.68-1.49-.68l-.19.02s0,.05,0,.08c.27.09.87.3,1.68.59h0Z"/>
        <path class="cls-16" d="m20.69,18.71c1.8,2.69,23.77,11.6,28.9,13.01,5.36,1.48,34.76,7.53,38.57,8.55s7.66-.52,7.51-.99c-.83,1.07-33.7-6.78-45.77-9.62-.5-.12-1.01-.25-1.54-.39-11.07-2.95-27.67-10.56-27.67-10.56h0Z"/>
        <path class="cls-16" d="m96.12,52.59h0s-1.39.41-2.56.88c0,0-30.58.04-37.15-1.89-6.23-1.83-17.33,26.38-19.28,26.02-.13-.02-.17-.03-.14-.01.45.22,19.53-23.87,23.65-22.39,4.38,1.57,31.63,3.86,34.91,2.5.32-2.38.52-4.19.57-5.11h0Z"/>
        <path class="cls-23" d="m1.42,28.54s-.07-.02-.07-.02c0,0,.03.01.07.03,0,0,0,0,0,0h0Z"/>
        <path class="cls-16" d="m10.97,31.55c-4.42-1.45-8.93-2.83-9.55-3.01,0,0,0,0,0,0,1.11.47,15.13,6.46,16.71,6.99,1.68.56,18.95,7.35,18.95,7.35,0,0-12.43,30.51-14.15,31.02-1.69.5-12.63-1.05-13.98-1.27-1.33-.22-6.73.49-6.73.49,0,0,4.44,1.01,7.18,1.27,2.83.27,9.03,3.1,14.6.88,5.97-2.38,16.33-31.96,16.33-31.96,0,0-17.74-7.52-22.82-9.5-1.64-.64-4.07-1.47-6.54-2.28h0Z"/>
        <path class="cls-16" d="m7.7,68.26c-.92.17-1.35.46-1.35.46,0,0,.53-.19,1.35-.46h0ZM1.89,35.26h0s5.85,27.27,7.87,28.27,7.59,3.73,5.81,3.13c-1.27-.43-5.66.88-7.88,1.6.38-.07.85-.13,1.42-.13,1.96-.03,14.25-24.46,11.53-25.75-2.64-1.26-18.56-7.05-18.74-7.11h0Z"/>
        <path class="cls-27" d="m8.63,22.13c.02-1.42.45-2.46.96-2.32s.92,1.42.9,2.85-.46,2.45-.97,2.3-.91-1.41-.89-2.82Z"/>
        <path class="cls-25" d="m8.79,22.1c.02-1.42.45-2.46.96-2.32s.92,1.42.9,2.85c-.02,1.42-.46,2.45-.97,2.3s-.91-1.41-.89-2.83Z"/>
        <path class="cls-24" d="m8.94,22.15c.02-1.18.37-2.04.8-1.92s.76,1.18.74,2.36c-.02,1.18-.38,2.03-.81,1.91s-.75-1.17-.74-2.34Z"/>
        <path class="cls-27" d="m77.82,36.19c.23-1.89,1.18-3.24,2.13-3s1.54,1.99,1.3,3.9-1.2,3.22-2.15,2.96-1.51-1.98-1.29-3.86Z"/>
        <path class="cls-25" d="m78.12,36.17c.23-1.89,1.18-3.24,2.14-3.01s1.55,2,1.3,3.91-1.21,3.22-2.15,2.96-1.51-1.99-1.29-3.87Z"/>
        <path class="cls-24" d="m78.41,36.25c.19-1.57.98-2.69,1.77-2.49s1.28,1.65,1.08,3.24c-.2,1.57-1,2.67-1.78,2.46s-1.26-1.65-1.07-3.21Z"/>
        <path class="cls-27" d="m68,121.26c.17-1.43.95-2.21,1.75-1.74s1.3,2.04,1.12,3.48c-.18,1.43-.97,2.19-1.76,1.7s-1.28-2.02-1.11-3.44Z"/>
        <path class="cls-25" d="m68.25,121.33c.17-1.43.96-2.21,1.75-1.74s1.31,2.04,1.12,3.48-.97,2.19-1.77,1.7-1.28-2.02-1.11-3.44Z"/>
        <path class="cls-24" d="m68.49,121.48c.14-1.19.79-1.83,1.45-1.44s1.08,1.69.93,2.88-.81,1.82-1.46,1.41-1.06-1.68-.92-2.86Z"/>
        <path class="cls-27" d="m8.77,89.71c.02-1.15.41-1.85.87-1.57s.83,1.46.81,2.62c-.02,1.15-.41,1.84-.88,1.55s-.82-1.46-.8-2.6Z"/>
        <path class="cls-25" d="m8.91,89.73c.02-1.15.41-1.86.87-1.57s.83,1.47.81,2.62-.41,1.84-.88,1.55-.82-1.46-.8-2.6Z"/>
        <path class="cls-24" d="m9.05,89.82c.01-.95.34-1.54.72-1.3s.69,1.21.67,2.17-.34,1.53-.73,1.28-.68-1.21-.67-2.16Z"/>
        <path class="cls-20" d="m65.82,142.72s-.05.02-.09.11c-.77,2.02-3.84,22.02-3.84,22.02,0,0,3.37-15.75,3.4-15.73,0,0,0,.03-.02.09-.29,1.52-1.41,18.91-1.41,18.91l.28-.78c.4-2.04,2.18-24.27,1.67-24.62h0Z"/>
        <path class="cls-20" d="m10.65,105.12s-.05.03-.07.12c-.4,1.88-.16,19.27-.16,19.27,0,0,.7-14.04.73-14.03,0,0,0,.03,0,.08-.04,1.33,1.65,16.02,1.65,16.02l.14-.74c.06-1.82-1.75-20.5-2.29-20.72h0Z"/>
        <path class="cls-1" d="m7.77,93.63h0s0,0,0,0c0,0,0,0,0,0h0Z"/>
        <path class="cls-21" d="m8.28,93.85l-.51-.22s0,0,0,0l.08.98s.22.08.54.29c-.04-.28-.08-.63-.11-1.06h0Zm2.78,1.21h-.03c0,1.41.02,3.02.03,4.75,0,.05.01.1.01.15-.04-1.33,0-4.89,0-4.89h0Z"/>
        <path class="cls-19" d="m11.02,95.04l-2.75-1.19c.03.43.06.78.11,1.06h0c.83.55,2.36,1.94,2.67,4.89,0-1.73-.02-3.34-.03-4.76h0Z"/>
        <path class="cls-21" d="m11.07,99.95c0,.24.02.41.03.47,0-.16-.02-.32-.03-.47h0Z"/>
        <path class="cls-18" d="m65.84,127.03s5.52,3.97,5.17,6.72c-.17,1.29.72-4.25.72-4.25l-5.6-3.52-.29,1.05Z"/>
        <path class="cls-18" d="m6.54,15.53s4.42.67,4.48-2.97l-.06,3.64-4.43.44v-1.1Z"/>
        <path class="cls-18" d="m76.48,25.01s7.62,4.84,8.76,3.21l-.05,1.57s-7.29-2-8.92-2.99l.21-1.79Z"/>
        <path class="cls-18" d="m82.8,44.62l-.23,1.75s-6.55-4-7.03-3.55c.72-.08,5.52,1.3,7.26,1.81Z"/>
      </g>
      <g>
        <path class="cls-2" d="m19.69,59.22c0-.12,0-.24,0-.36.07-.14.18-.27.22-.42.78-3.05,1.88-5.9,3.1-8.68.63-1.42,1.47-2.52,2.66-3.09.03.08.05.23.08.23.79.05.65.7.52,1.36-.2.99-.27,2-.3,3.01,0,.2-.03.48.18.49.22.02.18-.27.21-.46.21-1.39.19-2.83.51-4.2.08-.33.13-.73-.26-.85.73-3.19,1.9-6.07,3.52-8.61,2.31-3.61,5.12-5.97,8.87-5.72,2.27.15,4.33,1.11,6.18,2.85-.09.09-.3.13-.12.34.23.27.48.51.82.39v-.02c-.07.31.1.48.22.7.71,1.29,1.25,2.69,1.56,4.24.06.28.21.58-.01.83-.26.29-.41-.11-.57-.25-2-1.73-4.21-2.63-6.59-2.71-2.35-.08-4.43,1.06-6.38,2.69-.22.18-.72.36-.53.74.24.48.53-.12.76-.31,1.77-1.46,3.64-2.45,5.78-2.53,2.83-.1,5.28,1.23,7.57,3.22.49.42.83,1.15,1.26,1.77-.48.23-.72-.3-1.07-.24.04-.39-.21-.47-.37-.66-.68-.8-1.6-.76-2.38-1.19-2.13-1.16-4.37-1.06-6.56-.78-1.96.25-3.3,2.22-4.62,3.95-.79,1.04-1.62,1.89-2.75,2.06-.32.05-.75-.03-.77.49-.02.57-.16,1.34.45,1.61.75.34,1.26.89,1.32,2.02.01.22.15.43.23.65.64,1.79,1.86,2.84,3.07,3.77,1.26.97,2.66,1.61,3.99,2.41,1.52.92,3.17,1.15,4.79,1.57.57.15,1.18.03,1.77.02.21,0,.45.03.57-.49-4.3.28-7.96-1.98-11.69-4.43.28-.3.37-.2.47-.13,1.98,1.52,4.2,2.19,6.35,3.05,1.79.72,3.69.48,5.54.33,1.18-.09,2.4-.23,3.48-1,.4-.28.75-.64,1.24-.52.2.64.56,1.15.86,1.71-.36.62.13.51.32.61,1.94.97,3.98.98,6.01.88.97-.05,1.91-.35,2.83-.74.61-.26,1.03-.95,1.59-1.31.22-.14.47-.42.52.19.06.32-.16.41-.28.52-.72.64-1.43,1.3-2.24,1.71-.32-.24-.65-.26-.98-.1-1.34.64-2.77.54-4.15.79-1.03.19-1.94-.36-2.8-1.07-.21-.17-.54-.54-.72-.14-.22.49.25.53.45.65,1,.63,2.15.83,3.02,1.84.16.19.33.09.46-.11-.14-.25-.44-.35-.4-.84,1.72.27,3.36-.52,5.04-.68,1.27,1.23,2.21,2.78,2.86,4.68.37,1.08.39,2.22.56,3.34-.11.03-.23.03-.33.1-2.41,1.74-5.03,2.56-7.73,2.81-3.15.28-6.29-.2-9.41-.86-1.83-.39-3.65-.79-5.29-2.07-.37-.29-.78-.49-1.19-.64-2.95-1.13-5.43-3.19-7.34-6.38-.44-.74-1.83-1.16-2.47-.73-1.73,1.16-2.01,4.68-1.22,6.1.82,1.48,1.78,2.84,2.76,4.16,1.07,1.44,2.41,2.26,3.75,3.12,1.26.81,2.5,1.67,3.9,2.01,1.13.27,2.27.51,3.39.82,1.24.35,2.49.56,3.73.88,1.01.26,2.07.09,3.12.19,2.6.25,5.2.48,7.81.43.19,0,.47-.15.55.15.08.34-.22.46-.39.64-1.7,1.75-3.63,2.92-5.66,3.81-.26.12-.55.14-.55.63-.02.17-.07.29-.21.32-.48,0-.95-.04-1.43,0-1.85.16-3.7.43-5.55.51-2.26.1-4.53-.16-6.79-.34-1.01-.08-1.01-.11-1.02-1.47-.02-1.51-.74-2.84-1.79-3.35-1.02-.5-2.03-1.07-3.05-1.57-1.04-.5-1.21-.76-1.26-2.19-.06-1.7.02-3.4-.14-5.1-.11-1.19-.58-1.56-1.36-.95-1.02.8-1.25,2.24-1.62,3.55-.07.23-.02.54-.29.59-.14-.16-.06-.34-.05-.51.04-1.53.33-3.07-.09-4.6-.11-.38-.19-.75-.53-.82-.33-.07-.51.25-.65.55-.49,1-.95,2.02-1.43,3.03-.1.22-.07.64-.32.62-.27-.02-.25-.45-.33-.71-.08-.28-.12-.58-.16-.87-.13-.82-.22-1.65-.38-2.45-.15-.72-.53-.82-.87-.23-.51.89-.99,1.81-.91,3,.07,1.05-.17,1.98-.53,2.9-.4,1.02-.52,2.06-.06,3.15.26.62.42,1.31.62,1.96.05.16.14.34.04.5-.12.19-.25.02-.36-.04-.81-.43-1.9-2.52-1.9-3.67,0-5.08,0-10.16,0-15.24,0-.29.19-.76-.26-.84Z"/>
        <path class="cls-14" d="m60.7,91.69c-13.47,0-24.91.31-38.38.34-.54,0-2.64-2.08-2.64-2.73.03-3.61.01-5.66.01-9.27.59-.09,1.13-.14,1.67.42,1.27,1.31,2.79,2.06,4.21,3.01.64.42.97.84,1.06,1.69.03.26.03.64.31.55.46-.14.64.25.91.58.35.45.7.93,1.18,1.18,1.48.77,2.99,1.12,4.58.86.67-.11,1.32-.54,2-.36.32.08.48.01.69-.29.43-.63.86-1.22,1.64-1.01,1.4.37,2.84.25,4.26.32,1.93.09,3.84-.1,5.76-.42,1.05-.17,1.98-.64,2.83-1.36.77-.64.98-.69,1.6.24.12.18.27.39.35.18.17-.46.61-.84.34-1.48.05-.18.09-.35.14-.53.66-.63,1.38-.23,2.08-.2,1.95.08,3.94.5,5.63-1.33.38-.41.65-.2.76.45.16.93-.09,1.83-.05,2.75.05,1.38-.24,2.69-.43,4.04-.12.83-.51,1.54-.51,2.39Z"/>
        <path class="cls-7" d="m60.7,91.69c0-.85.39-1.56.51-2.39.19-1.34.48-2.66.43-4.04-.03-.92.21-1.82.05-2.75-.11-.65-.38-.86-.76-.45-1.7,1.83-3.69,1.41-5.63,1.33-.7-.03-1.42-.43-2.08.2-.24-.52-.55-.17-.84-.12,0-.49.29-.51.55-.63,2.03-.89,3.96-2.06,5.66-3.81.17-.18.47-.3.39-.64-.07-.3-.36-.16-.55-.15-2.61.06-5.21-.17-7.81-.43-1.04-.1-2.11.07-3.12-.19-1.24-.32-2.5-.53-3.73-.88-1.12-.32-2.26-.55-3.39-.82-1.4-.33-2.64-1.19-3.9-2.01-1.34-.86-2.67-1.68-3.75-3.12-.98-1.32-1.94-2.68-2.76-4.16-.79-1.42-.51-4.94,1.22-6.1.64-.43,2.03,0,2.47.73,1.91,3.19,4.39,5.25,7.34,6.38.41.16.83.36,1.19.64,1.63,1.28,3.45,1.68,5.29,2.07,3.12.66,6.25,1.15,9.41.86,2.7-.24,5.32-1.07,7.73-2.81.09-.07.22-.07.33-.1.05.07.11.15.16.22-.02.18-.08.32-.23.41-2.72,1.7-5.57,2.67-8.58,2.84-2.8.15-5.58-.18-8.33-.78-1.45-.31-2.96-.35-4.32-1.11-1.62-.9-3.26-1.72-4.88-2.61-2.04-1.12-3.82-2.75-5.13-5.11-.8-1.44-1.95-1.6-2.9-.27-.74,1.03-1.02,3.22-.43,4.24.57,1,1.22,1.91,1.82,2.89,1.45,2.39,3.51,3.55,5.49,4.9,1.99,1.36,4.18,1.68,6.3,2.28,2.7.77,5.46,1.06,8.23,1.17,1.2.05,2.4.22,3.6.25,1.99.04,4,.38,5.96-.31.77-.27,1.51-.71,1.81-1.83.27-.97-.2-1.78-.95-1.63-1.95.39-3.92.62-5.88.69-3.51.12-7.01.05-10.5-.66-1.82-.37-3.57-.93-5.25-1.95-.91-.55-1.82-1.23-2.91-1.09-.36.05-.68-.27-.99-.52-1.07-.9-2.05-1.96-2.98-3.09-.44-.54-.99-.95-1.29-1.67-.08-.18-.21-.37-.04-.55.13-.14.29-.05.36.09.49,1.02,1.34,1.48,1.98,2.25,1.21,1.46,2.36,3.11,4.22,2.99.17-.01.34.14.51.22,1.42.76,2.81,1.73,4.28,2.24,2.99,1.02,6.09,1.14,9.17,1.28,3.06.15,6.11-.25,9.14-.71.62-.09,1.26-.16,1.71-.86.1-.16.24-.27.37-.39.21-.18.44-.36.36.25-.02.19.07.26.21.25.04.37.14.61.48.53.24-.05.5-.05.74-.02.32.04.76-.18.92.32.18.56.1,1.2-.19,1.7-.5.85-1.08,1.6-1.83,2.08-1.07.68-2.02,1.56-2.8,2.74-.17.26-.27.48-.26.84.04,3.22-.2,6.41-.59,9.58-.05.42-.43.8-.12,1.28h-.68Zm-6.37-8.88c1.35.18,2.52.06,3.68.13,1.66.11,2.82-1.13,3.7-2.66.71-1.23,1.55-2.12,2.5-2.92.78-.65,1.65-1.13,2.24-2.11.22-.36.53-.77.36-1.27-.16-.48-.56-.21-.86-.27-.13-.02-.27,0-.41.01-.42.06-.78-.01-.87-.68-.05-.34-.2-.35-.4-.22-.43.29-.79.62-.49,1.38.36.91.13,1.66-.38,2.34-.72.97-1.63,1.37-2.63,1.46-.46.04-.93.05-1.26.52-.88,1.24-1.98,2.04-3.08,2.87-.63.48-1.38.65-2.11,1.41Z"/>
        <path class="cls-7" d="m53.08,84.12c.27.64-.18,1.02-.34,1.48-.08.22-.23,0-.35-.18-.62-.93-.84-.88-1.6-.24-.86.72-1.78,1.18-2.83,1.36-1.92.32-3.83.51-5.76.42-1.42-.07-2.86.06-4.26-.32-.78-.21-1.21.38-1.64,1.01-.21.31-.37.38-.69.29-.68-.18-1.33.25-2,.36-1.59.26-3.11-.09-4.58-.86-.48-.25-.83-.72-1.18-1.18-.26-.33-.45-.72-.91-.58-.28.09-.28-.29-.31-.55-.1-.85-.42-1.26-1.06-1.69-1.42-.94-2.94-1.7-4.21-3.01-.54-.55-1.08-.51-1.67-.42v-.72c.14.19.3.04.44.02.79-.13.88-.43.4-1.29-.27-.48-.56-.95-.84-1.42,0-5.8,0-11.6,0-17.4.45.08.26.54.26.84,0,5.08,0,10.16,0,15.24,0,1.15,1.09,3.24,1.9,3.67.12.06.25.23.36.04.1-.16.01-.34-.04-.5-.2-.66-.36-1.35-.62-1.96-.46-1.09-.34-2.12.06-3.15.36-.92.6-1.85.53-2.9-.08-1.19.41-2.12.91-3,.34-.59.73-.49.87.23.16.8.25,1.63.38,2.45.05.29.08.59.16.87.08.26.05.69.33.71.24.02.22-.4.32-.62.48-1.01.94-2.03,1.43-3.03.14-.29.32-.61.65-.55.35.07.43.44.53.82.42,1.53.13,3.07.09,4.6,0,.17-.09.35.05.51.27-.04.22-.35.29-.59.38-1.31.6-2.75,1.62-3.55.79-.61,1.25-.25,1.36.95.16,1.7.08,3.4.14,5.1.05,1.43.22,1.69,1.26,2.19,1.02.5,2.03,1.06,3.05,1.57,1.05.51,1.77,1.84,1.79,3.35.01,1.36.01,1.39,1.02,1.47,2.26.18,4.52.44,6.79.34,1.85-.08,3.7-.35,5.55-.51.47-.04.95,0,1.43,0-.26.35-.25.59.1.89.58.49.57-.32.81-.56Zm-22.23-10.89c.04-.99-.05-1.96-.13-2.95-.05-.65-.29-.76-.69-.54-.29.16-.49.39-.63.84-.47,1.45-.96,2.9-1.35,4.39-.06.22-.12.5-.35.46-.23-.04-.26-.31-.25-.55,0-1.19-.06-2.4.05-3.58.07-.82.09-1.6-.11-2.38-.06-.24-.01-.63-.25-.68-.27-.05-.34.35-.45.59-.5,1.07-.97,2.15-1.45,3.23-.1.22-.13.56-.4.51-.24-.04-.44-.21-.52-.51-.12-.45-.25-.9-.33-1.36-.14-.78-.24-1.58-.36-2.36-.03-.17-.05-.38-.21-.41-.17-.03-.22.18-.29.32-.37.74-.6,1.55-.57,2.44.03.99-.16,1.87-.5,2.75-.36.91-.56,1.87-.14,2.88.35.84.56,1.76.8,2.66.1.36.21.73.44.99,1.02,1.13,1.92,2.45,3.15,3.23.25.16.43.41.57.73.91,2.03,2.18,3.49,4,3.77,1.56.24,3.13.1,4.65-.49.16-.06.27-.15.38-.33.65-1.05.93-2.29,1.05-3.6.12-1.3-.42-3.07-1.08-3.37-1.24-.55-2.41-1.36-3.72-1.67-.75-.18-1.14-.8-1.18-1.79-.04-1.07-.22-2.13-.13-3.21Zm12.68,13.25c1.86.07,3.71-.14,5.52-.75.53-.18,1.03-.45,1.48-.88.12-.12.27-.29.17-.52-.09-.2-.24-.07-.37-.04-1.43.31-2.88.47-4.33.54-2.74.13-5.48-.07-8.22-.4-.76-.09-.74.74-.83,1.22-.12.66.4.44.67.47,1.96.26,3.93.32,5.9.36Zm-20.01-5.06c-.53-1.17-1.75-2.14-2.42-1.98.65,1.04,1.57,1.44,2.42,1.98Z"/>
        <path class="cls-12" d="m19.69,76.62c.28.47.57.94.84,1.42.48.86.39,1.16-.4,1.29-.14.02-.3.17-.44-.02,0-.9,0-1.79,0-2.69Z"/>
        <path class="cls-7" d="m45.87,35.48c.41.31.78.18,1.17-.13.34-.27.68-.58,1.12-.56-.01.48-.35.52-.57.65-.28.15-.51.37-.75.61-.19.19-.2.36-.04.59.71,1.06,1.01,2.39,1.31,3.7.16.71.43.85.95.73,1.76-.42,3.53-.69,5.33-.68,1.11.01,2.21.2,3.31.37.88.13,1.71.46,2.67.65-.37.49-.73.44-1.08.34-1.34-.36-2.68-.77-4.06-.83-2.23-.1-4.41.4-6.61.74-.14.02-.29.04-.35.22-.09.24.06.38.17.53.84,1.19,1.88,2.05,2.85,3.03.22.22.35.12.49-.15.28-.53.52-1.2.92-1.5,1.17-.87,2.35-1.76,3.8-1.6.77.08,1.52.35,2.28.35,1.6,0,3.08.59,4.56,1.25.34.15.56.09.79-.2.59.45.99,1.07,1.01,2.01-.11.01-.21.03-.32.04-.33,0-.43-.4-.61-.64-.23-.3-.43-.59-.76-.7-1.65-.56-3.25-1.41-5-1.21-.09.01-.18,0-.27-.04-1.73-.84-3.3-.31-4.83.9-.8.64-1.31,1.41-1.37,2.71-.06,1.22-.55,1.55-1.2.91-.05-.06-.09-.12-.14-.18-.13-.25-.16-.59-.4-.73h0c0-.22-.05-.38-.25-.4l-.02.05.02-.05c-.18-.61-.54-.98-.99-1.22h0c-.07-.22-.21-.33-.38-.41l-.04.06.05-.05c-.16-.24-.37-.38-.6-.46-.05-.06-.11-.12-.16-.18,0-.11,0-.22,0-.34h0c.35-.08.6.46,1.07.23-.43-.62-.77-1.35-1.26-1.77-2.29-1.99-4.74-3.32-7.57-3.22-2.14.08-4.01,1.07-5.78,2.53-.23.19-.52.79-.76.31-.19-.38.31-.56.53-.74,1.94-1.63,4.03-2.77,6.38-2.69,2.38.08,4.59.98,6.59,2.71.16.14.31.54.57.25.22-.25.07-.55.01-.83-.31-1.54-.85-2.95-1.56-4.24-.12-.22-.29-.38-.24-.7Zm4.16,9.63c.23.85.67,1.33.98,1.92.09.16.18.4.36.22.15-.15.17-.37.09-.63-.24-.81-.7-1.25-1.44-1.5Z"/>
        <path class="cls-7" d="m51.98,56.37c-.48-.12-.84.24-1.24.52-1.08.77-2.3.91-3.48,1-1.85.14-3.75.39-5.54-.33-2.15-.86-4.38-1.53-6.35-3.05-.1-.07-.19-.17-.47.13,3.73,2.44,7.39,4.71,11.69,4.43-.12.52-.36.49-.57.49-.59,0-1.2.13-1.77-.02-1.61-.42-3.27-.65-4.79-1.57-1.33-.81-2.73-1.45-3.99-2.41-1.21-.93-2.43-1.98-3.07-3.77-.08-.22-.22-.43-.23-.65-.05-1.12-.57-1.68-1.32-2.02-.61-.28-.47-1.05-.45-1.61.02-.52.45-.44.77-.49,1.14-.17,1.96-1.02,2.75-2.06,1.33-1.73,2.66-3.7,4.62-3.95,2.19-.28,4.43-.38,6.56.78.78.43,1.7.39,2.38,1.19.16.19.42.27.37.66,0,0,0,0,0,0-.35-.05-.63-.29-.93-.5-.13-.11-.24-.26-.41-.24-.09-.2-.25-.24-.41-.3-.34-.25-.72-.22-1.09-.25-.27-.37-.62-.31-.96-.34-.27-.34-.56-.59-.95-.39-.12-.14-.24-.23-.4-.16-.69-.15-1.39-.09-2.09-.06-.71.03-1.44-.2-2.14.14-.11-.04-.21-.06-.27.1-.29.1-.58.21-.82.46-.11-.06-.2-.03-.26.11-.41.19-.68.61-.98.99-.24.09-.43.28-.56.56-.88.55-1.43,1.57-2.02,2.53-.18.03-.32.14-.4.36-.23.15-.46.31-.69.46-.12.13-.25.26-.37.39-.29.04-.57.08-.86.11-.2-.03-.48-.27-.54.21-.04.34-.08.78.25.92.22.1.43.34.7.2.51.3.64,1.07,1.05,1.5.02.16.07.28.2.33,0,.25.05.46.25.56.01.25.09.42.29.48.64.88,1.26,1.8,2.17,2.21.26.66.76.7,1.23.82.58.49,1.27.59,1.91.89,1.61.76,3.21,1.57,4.95,1.73,1.79.17,3.56-.37,5.35-.31.13,0,.27-.07.39-.14.79-.44,1.48-1.06,2.04-1.94.1,0,.2,0,.3,0,0,.45.05.88.19,1.29Zm-18.54-3.6s-.03-.03-.04-.04c.01,0,.03.02.04.03.02.21.1.34.26.37.02.02.04.04.07.06-.01-.03-.03-.06-.04-.09-.01-.24-.14-.31-.29-.34Zm1.25,1.31c-.13-.23-.23-.51-.61-.52.2.38.37.53.61.52Z"/>
        <path class="cls-12" d="m51.98,56.37c-.14-.41-.19-.84-.19-1.29.1-.13.2-.26.3-.39-.05.78.03,1.41.79,1.45.28.02.42.26.47.65.06.45.21.94.6.97.86.07,1.65.46,2.47.7.48.14,1.02.19,1.53-.16.35-.25.74-.26,1.1.03.21.17.51.31.6.02.24-.81.65-.46,1.06-.43.55.04,1.15.22,1.53-.64.18-.4.38-.08.5.19-.07.44-.36.58-.61.78-.8.67-1.74.73-2.62.81-2.26.2-4.52.08-6.68-.98-.3-.56-.66-1.07-.86-1.71Z"/>
        <path class="cls-7" d="m52.84,58.08c2.16,1.05,4.42,1.18,6.68.98.89-.08,1.82-.13,2.62-.81.25-.21.53-.35.61-.78.28-.1.6-.13.74-.55.31-.11.57-.33.79-.65.11-.16.31-.17.45-.07.18.13.11.38.03.55-.17.37-.29.81-.65.96-.05-.62-.3-.33-.52-.19-.57.36-.98,1.04-1.59,1.31-.92.39-1.86.69-2.83.74-2.03.1-4.07.09-6.01-.88-.19-.09-.67.01-.32-.61Z"/>
        <path class="cls-7" d="m61.58,59.95c-.02.12-.04.23-.07.35-1.69.16-3.32.95-5.04.68-.03.49.27.59.4.84-.13.2-.3.3-.46.11-.87-1.01-2.02-1.21-3.02-1.84-.2-.13-.67-.16-.45-.65.18-.4.51-.03.72.14.86.71,1.77,1.25,2.8,1.07,1.38-.25,2.81-.15,4.15-.79.33-.16.67-.14.98.1Z"/>
        <path class="cls-7" d="m25.67,46.67c.31-.17.66-.15.94-.42.39.13.34.52.26.85-.32,1.37-.3,2.81-.51,4.2-.03.2,0,.48-.21.46-.21-.02-.19-.3-.18-.49.03-1.02.1-2.02.3-3.01.13-.66.27-1.3-.52-1.36-.03,0-.05-.15-.08-.23Z"/>
        <path class="cls-12" d="m53.08,84.12c-.25.24-.24,1.05-.81.56-.35-.29-.35-.54-.1-.89.14-.03.19-.15.21-.32.29-.05.6-.41.84.12-.05.18-.09.35-.14.53Z"/>
        <path class="cls-7" d="m45.18,34.77c.24.23.6.27.7.73-.34.12-.59-.12-.82-.39-.18-.22.03-.26.12-.34Z"/>
        <path class="cls-11" d="m65.04,72.65c-.13.01-.23-.06-.21-.25.08-.61-.15-.43-.36-.25-.13.11-.27.23-.37.39-.45.7-1.09.77-1.71.86-3.04.45-6.08.85-9.14.71-3.08-.15-6.18-.26-9.17-1.28-1.47-.5-2.86-1.48-4.28-2.24-.17-.09-.34-.23-.51-.22-1.87.12-3.01-1.53-4.22-2.99-.64-.78-1.49-1.24-1.98-2.25-.07-.15-.23-.23-.36-.09-.17.18-.04.37.04.55.31.73.85,1.14,1.29,1.67.93,1.13,1.9,2.19,2.98,3.09.31.26.63.57.99.52,1.09-.14,2,.54,2.91,1.09,1.68,1.02,3.43,1.58,5.25,1.95,3.49.71,6.99.78,10.5.66,1.97-.07,3.93-.3,5.88-.69.76-.15,1.22.66.95,1.63-.3,1.11-1.05,1.56-1.81,1.83-1.96.69-3.97.35-5.96.31-1.2-.03-2.4-.2-3.6-.25-2.77-.12-5.53-.41-8.23-1.17-2.13-.6-4.32-.91-6.3-2.28-1.98-1.36-4.04-2.51-5.49-4.9-.59-.98-1.24-1.89-1.82-2.89-.59-1.02-.31-3.2.43-4.24.95-1.33,2.1-1.18,2.9.27,1.31,2.36,3.09,3.99,5.13,5.11,1.62.89,3.26,1.7,4.88,2.61,1.36.76,2.87.8,4.32,1.11,2.75.6,5.53.93,8.33.78,3.01-.16,5.86-1.14,8.58-2.84.15-.09.2-.22.23-.41.94.39,1.23,1.93.56,2.99-.22.36-.56.6-.62,1.12Z"/>
        <path class="cls-13" d="m63.49,56.91c-.15.42-.46.45-.74.55-.13-.27-.32-.59-.5-.19-.38.86-.98.68-1.53.64-.41-.03-.82-.38-1.06.43-.09.29-.39.16-.6-.02-.36-.29-.75-.28-1.1-.03-.5.35-1.04.3-1.53.16-.82-.24-1.62-.64-2.47-.7-.39-.03-.54-.51-.6-.97-.05-.38-.2-.63-.47-.65-.75-.04-.84-.67-.79-1.45.27-1.57.42-3.16.28-4.77.18-.97-.65-1.88-.04-2.95.19-.33.25-.62.6-.73.32-.1.51-.61.88-.61.08,0,.16.08.24.14.15.12.18.63.43.34.17-.19.08-.55,0-.84-.24-.94.14-1.74.84-1.85.11-.02.22-.07.33-.08.46-.05,1.01-.45,1.14.63.03.26.3.34.51.35.25.01.5,0,.75.01.18,0,.4-.04.48.22.11.38-.26.4-.36.66-.13.34-.27.07-.39-.13-.22-.38-.47-.09-.66.06-.19.16-.2.56-.01.7.44.32.24.74.11,1.06-.33.82-.21,1.69-.22,2.54,0,.44.17.73.51.81v.02c.01.26.04.48.28.52v.02c.01.38.12.64.36.9.91,1.01,1.98,1.3,3.11,1.24.41-.02.94.25,1.18-.52.05-.07.11-.13.16-.2.47-.18.59-.78.8-1.24.46-1.01.21-2.97-.4-3.63-.09-.02-.14-.09-.15-.21-.14-.5.16-.89.22-1.34.04-.28.57-.68.68-.3.28.97.86.86,1.42.95.13.08.23.18.26.37-.1.99.23,1.68.73,2.43.51.76.25,1.86.14,2.81-.13,1.17-.88,1.86-1.31,2.81-.33.73-.72,1.17-1.46.98-.22-.06-.53.49-.87.84.33.12.59.01.79.2Zm-9.51-.72c-.08-.08-.12-.14-.18-.16-.03-.01-.07.05-.11.07.03.06.04.17.08.18.05.02.11-.04.2-.09Z"/>
        <path class="cls-2" d="m64.1,43.58c-.23.29-.45.35-.79.2-1.48-.66-2.96-1.25-4.56-1.25-.76,0-1.51-.27-2.28-.35-1.45-.15-2.63.73-3.8,1.6-.4.29-.63.97-.92,1.5-.15.27-.27.37-.49.15-.97-.98-2.01-1.84-2.85-3.03-.11-.15-.26-.28-.17-.53.07-.18.22-.2.35-.22,2.2-.34,4.38-.84,6.61-.74,1.38.06,2.72.47,4.06.83.35.09.7.15,1.08-.34-.96-.18-1.78-.52-2.67-.65-1.1-.16-2.19-.36-3.31-.37-1.8-.02-3.57.26-5.33.68-.52.12-.79-.02-.95-.73-.3-1.31-.59-2.64-1.31-3.7-.16-.23-.14-.4.04-.59.23-.24.47-.45.75-.61.23-.13.56-.16.57-.65,0,0,0,.02,0,.02.33.07.62-.07.91-.23,1.84-1,3.74-1.41,5.74-1.12.7.1,1.32.54,2.01.6l-.04.05s-.04-.05-.04-.05c.12.25.31.24.5.2.76.09,1.11.92,1.53,1.57.88,1.37,1.39,2.98,1.66,4.73.08.51.27.75.64.88,1.13.41,2.16,1.09,3.04,2.13Z"/>
        <path class="cls-2" d="m65.46,46.85c-.03-.19-.14-.29-.26-.37-.14-.28-.27-.57-.41-.85.11-.01.21-.03.32-.04,1.05,1.35,1.98,2.73,1.89,4.9-.05,1.16-.07,2.3-.43,3.38-.25.75-.7,1.27-1.13,1.83-.07.09-.16.15-.23.03-.05-.08-.08-.24-.05-.33.09-.24.17-.51.32-.68,1.35-1.51,1.22-3.55,1.06-5.51-.07-.89-.55-1.72-1.1-2.37Z"/>
        <path class="cls-7" d="m56.82,34.06c-.69-.06-1.31-.5-2.01-.6-2.01-.3-3.9.12-5.74,1.12-.3.16-.59.3-.91.23.37-.7,1-.78,1.53-1.02,1.52-.69,3.08-1.17,4.71-.89.71.12,1.4.38,2.09.61.18.06.47.1.34.55Z"/>
        <path class="cls-7" d="m57.24,34.26c-.19.03-.38.05-.5-.2.27-.36.39-.12.5.2Z"/>
        <path class="cls-2" d="m54.33,82.81c.73-.76,1.48-.93,2.11-1.41,1.1-.83,2.2-1.63,3.08-2.87.33-.47.81-.47,1.26-.52,1-.1,1.9-.5,2.63-1.46.51-.68.74-1.43.38-2.34-.3-.76.06-1.08.49-1.38.2-.14.35-.12.4.22.09.67.45.75.87.68.13-.02.27-.04.41-.01.3.06.7-.21.86.27.17.5-.14.91-.36,1.27-.59.98-1.47,1.45-2.24,2.11-.94.8-1.79,1.69-2.5,2.92-.88,1.53-2.04,2.77-3.7,2.66-1.16-.08-2.33.05-3.68-.13Z"/>
        <path class="cls-2" d="m30.85,73.23c-.09,1.08.09,2.14.13,3.21.04.99.43,1.61,1.18,1.79,1.31.31,2.48,1.12,3.72,1.67.65.29,1.2,2.07,1.08,3.37-.12,1.31-.41,2.55-1.05,3.6-.11.18-.22.27-.38.33-1.52.59-3.09.73-4.65.49-1.82-.28-3.09-1.74-4-3.77-.15-.33-.33-.57-.57-.73-1.23-.78-2.13-2.1-3.15-3.23-.24-.26-.34-.63-.44-.99-.24-.9-.45-1.82-.8-2.66-.42-1.01-.22-1.97.14-2.88.34-.87.53-1.76.5-2.75-.03-.89.19-1.7.57-2.44.07-.14.13-.35.29-.32.16.03.19.24.21.41.12.79.22,1.58.36,2.36.08.46.2.92.33,1.36.08.31.28.47.52.51.27.04.3-.29.4-.51.48-1.08.96-2.16,1.45-3.23.11-.23.18-.64.45-.59.24.05.19.44.25.68.2.78.18,1.55.11,2.38-.1,1.18-.04,2.38-.05,3.58,0,.24.02.52.25.55.23.04.3-.24.35-.46.39-1.49.88-2.94,1.35-4.39.14-.44.34-.68.63-.84.4-.22.63-.11.69.54.08.98.17,1.96.13,2.95Z"/>
        <path class="cls-2" d="m43.54,86.48c-1.97-.04-3.94-.09-5.9-.36-.27-.04-.79.19-.67-.47.09-.48.06-1.31.83-1.22,2.73.33,5.47.53,8.22.4,1.45-.07,2.89-.23,4.33-.54.13-.03.28-.16.37.04.1.23-.05.41-.17.52-.44.43-.95.7-1.48.88-1.81.6-3.65.82-5.52.75Z"/>
        <path class="cls-2" d="m23.52,81.42c-.85-.55-1.77-.94-2.42-1.98.68-.15,1.89.81,2.42,1.98Z"/>
        <path class="cls-13" d="m36.16,43.21c.3-.38.57-.81.98-.99.14.19.22.09.26-.11.24-.25.53-.36.82-.46.15.23.22.13.27-.1.7-.34,1.43-.12,2.14-.14.69-.03,1.39-.09,2.09.06.02.24-.09.58.18.64.25.06.21-.27.23-.48.4-.2.68.06.95.39.24.5.59.45.96.34.37.03.75,0,1.09.25-.04.2-.08.4-.12.61.24,0,.39-.12.53-.31.17-.02.29.13.41.24-.05.97.63.54.93.83.05.06.11.12.16.18.08.43.3.53.6.46l-.05.05s.04-.06.04-.06c-.05.42.15.44.38.42,0,0,0,0,0,0,.09.74.14,1.54.99,1.22l-.02.05s.02-.05.02-.05c-.03.26.05.39.25.41,0,0,0,0,0,0-.03.4-.03.77.4.73.05.06.09.12.14.18.15.69.1,1.57.91,1.62.01.15,0,.31.04.44.39,1.17.46,2.34.25,3.6-.11.65-.35,1.21-.46,1.85-.55.87-1.25,1.5-2.04,1.94-.12.07-.26.14-.39.14-1.79-.06-3.56.48-5.35.31-1.73-.16-3.34-.97-4.95-1.73-.64-.3-1.33-.4-1.91-.89-.28-.6-.8-.58-1.23-.82-.92-.41-1.53-1.34-2.17-2.21,0-.26-.05-.47-.29-.48-.2-.1-.25-.31-.25-.56.15-.33-.03-.32-.2-.33-.41-.43-.54-1.2-1.05-1.5-.22-.4-.71-.65-.41-1.33.29-.04.57-.08.86-.11.25.08.37-.06.37-.39.23-.15.46-.31.69-.46.2.01.38-.02.4-.36.59-.96,1.13-1.98,2.02-2.53.32.05.56-.06.56-.56Zm8.88.9c-.01-.33-.11-.52-.39-.43-.14-.05-.29-.09-.43-.14-.12-.41-.38-.27-.61-.26-.12-.06-.23-.11-.35-.17-.13-.29-.27-.27-.42-.03-.59-.27-1.18-.08-1.77-.03-.03-.31.08-.65-.18-1.06-.1.61-.6.86-.47,1.54l-.45,1.15c-.71.85-.84,2.09-.3,2.88.08.17.07.35.01.53-.24.53-.06,1.1.46,1.43.2.1.31.31.39.56.17.8.8,1.18,1.77,1.07.09.02.18.03.27.05.71.84,2.27.62,2.87-.41.09-.24.2-.45.39-.55.24,0,.3-.2.3-.47.02-.15.09-.23.19-.28.42-.04.39-.32.21-.68.01-.12.02-.24.03-.36.25-.11.28-.29.1-.54,0-.18,0-.36,0-.55.17-.22.07-.3-.1-.36-.02-.12-.03-.24-.05-.35.26-.5.12-.84-.25-1.09-.05-.08-.1-.16-.14-.23,0-.27-.07-.48-.32-.44h0c.01-.38-.18-.4-.4-.38h0c0-.33-.17-.39-.37-.39l-.02-.02Z"/>
        <path class="cls-12" d="m51.66,49.18c-.81-.05-.76-.93-.91-1.62.64.64,1.14.31,1.2-.91.06-1.3.57-2.07,1.37-2.71,1.52-1.21,3.09-1.74,4.83-.9.08.04.18.05.27.04,1.75-.21,3.36.64,5,1.21.33.11.54.4.76.7.18.24.28.64.61.64.14.28.27.57.41.85-.56-.09-1.13.02-1.42-.95-.11-.38-.64.02-.68.3-.06.45-.36.84-.22,1.34-.46-.48-.92-.94-1.36-1.45-.71-.81-1.67-.83-2.34-.46-1.51.82-2.51,2.53-1.64,5.01-.34-.09-.52-.37-.51-.81.01-.85-.12-1.72.22-2.54.13-.33.33-.74-.11-1.06-.18-.13-.18-.53.01-.7.18-.16.43-.44.66-.06.12.2.26.47.39.13.1-.26.47-.28.36-.66-.08-.26-.3-.22-.48-.22-.25,0-.5,0-.75-.01-.21-.01-.48-.09-.51-.35-.13-1.07-.68-.68-1.14-.63-.11.01-.22.07-.33.08-.71.1-1.08.91-.84,1.85.07.29.16.66,0,.84-.26.28-.28-.22-.43-.34-.07-.06-.16-.14-.24-.14-.37,0-.56.51-.88.61-.35.11-.41.4-.6.73-.62,1.07.22,1.98.04,2.95-.36-.13-.15-.61-.31-.89-.13-.22-.15-.66-.42-.53-.25.13-.01.45.01.69Z"/>
        <path class="cls-2" d="m50.03,45.11c.74.26,1.2.7,1.44,1.5.08.26.06.48-.09.63-.18.18-.28-.05-.36-.22-.31-.59-.75-1.07-.98-1.92Z"/>
        <path class="cls-12" d="m49.98,46.24c-.85.32-.89-.48-.99-1.22.45.24.8.61.99,1.22Z"/>
        <path class="cls-12" d="m47.87,43.98c-.3-.29-.98.13-.93-.83.3.21.59.44.93.5,0,.11,0,.22,0,.34Z"/>
        <path class="cls-12" d="m50.62,47.37c-.43.03-.43-.33-.4-.73.24.15.27.49.4.73Z"/>
        <path class="cls-12" d="m48.62,44.61c-.3.07-.52-.03-.6-.46.23.07.44.21.6.46Z"/>
        <path class="cls-12" d="m49,45.03c-.23.02-.43,0-.38-.42.16.08.31.19.38.42Z"/>
        <path class="cls-12" d="m50.22,46.65c-.2-.01-.28-.15-.25-.41.2.02.25.18.25.41Z"/>
        <path class="cls-2" d="m51.66,49.18c-.02-.24-.27-.56-.01-.69.27-.14.29.31.42.53.16.28-.05.76.31.89.13,1.61,0,3.2-.28,4.77-.1.13-.2.26-.3.39-.1,0-.2,0-.3,0,.11-.64.35-1.2.46-1.85.2-1.26.14-2.44-.25-3.6-.04-.13-.03-.29-.04-.44Z"/>
        <path class="cls-12" d="m31.27,47.62c-.31.68.19.93.41,1.33-.26.15-.48-.1-.7-.2-.32-.15-.29-.58-.25-.92.06-.48.33-.24.54-.21Z"/>
        <path class="cls-12" d="m35.63,54.02c.42.24.94.22,1.23.82-.47-.12-.97-.16-1.23-.82Z"/>
        <path class="cls-12" d="m45.03,42.36c-.37.11-.72.16-.96-.34.34.03.69-.03.96.34Z"/>
        <path class="cls-12" d="m43.12,41.62c-.01.22.03.54-.23.48-.26-.06-.16-.4-.18-.64.16-.07.29.02.4.16Z"/>
        <path class="cls-2" d="m34.69,54.08c-.24,0-.4-.14-.61-.52.37.01.48.29.61.52Z"/>
        <path class="cls-12" d="m46.52,42.91c-.13.19-.29.32-.53.31.04-.21.08-.41.12-.61.15.06.31.1.41.3Z"/>
        <path class="cls-12" d="m36.16,43.21c0,.5-.24.61-.56.56.13-.28.32-.47.56-.56Z"/>
        <path class="cls-12" d="m33.17,51.33c.24,0,.29.22.29.48-.2-.05-.28-.23-.29-.48Z"/>
        <path class="cls-12" d="m32.5,47.12c0,.33-.12.46-.37.39.12-.13.25-.26.37-.39Z"/>
        <path class="cls-12" d="m33.58,46.3c-.02.34-.2.37-.4.36.08-.22.22-.33.4-.36Z"/>
        <path class="cls-12" d="m32.73,50.45c.16,0,.35,0,.2.33-.13-.05-.18-.17-.2-.33Z"/>
        <path class="cls-2" d="m33.71,53.13c-.16-.03-.24-.17-.26-.37h0c.15.03.28.11.29.35l-.02.03Z"/>
        <path class="cls-12" d="m37.4,42.1c-.05.21-.12.3-.26.11.06-.14.15-.17.26-.11Z"/>
        <path class="cls-12" d="m38.49,41.54c-.05.23-.13.33-.27.1.07-.15.17-.14.27-.1Z"/>
        <path class="cls-2" d="m33.45,52.76s-.03-.02-.04-.03c.01.01.03.03.04.04,0,0,0,0,0,0Z"/>
        <path class="cls-2" d="m33.73,53.1s.03.06.04.09c-.02-.02-.04-.04-.07-.06,0,0,.02-.03.02-.03Z"/>
        <path class="cls-7" d="m57.54,50.26c-.87-2.48.13-4.19,1.64-5.01.67-.36,1.63-.34,2.34.46.44.5.91.97,1.36,1.45,0,.12.06.19.15.21.48,1.51.65,3-.22,4.4-.08.13-.12.31-.18.46-.05.07-.11.13-.16.2-1.79.66-3.35.16-4.65-1.62,0,0,0-.02,0-.02,0-.25-.08-.43-.27-.52v-.02Zm4.04-2.27c0-.3-.08-.54-.32-.59-.26-.05-.29.18-.29.45,0,.27,0,.56.29.59.23.02.31-.17.32-.45Zm-1.67,1.7c-.02-.23-.03-.52-.27-.5-.24.03-.31.3-.31.59,0,.26.08.49.3.49.29,0,.26-.32.28-.58Zm-.77-2.61c-.2.05-.23.24-.21.46.01.15.03.31.19.28.22-.05.27-.28.27-.52,0-.16-.11-.24-.24-.22Z"/>
        <path class="cls-12" d="m57.83,50.81c1.3,1.77,2.86,2.28,4.65,1.62-.24.76-.77.49-1.18.52-1.14.06-2.2-.22-3.11-1.24-.23-.26-.35-.52-.35-.9Z"/>
        <path class="cls-12" d="m62.63,52.23c.06-.16.1-.33.18-.46.87-1.4.71-2.88.22-4.4.61.65.86,2.62.4,3.63-.21.46-.33,1.06-.8,1.24Z"/>
        <path class="cls-12" d="m53.99,56.2c-.1.05-.16.11-.2.09-.04-.01-.06-.12-.08-.18.04-.03.08-.08.11-.07.05.02.09.08.18.16Z"/>
        <path class="cls-12" d="m57.55,50.28c.19.09.26.27.27.52-.24-.04-.27-.26-.27-.52Z"/>
        <path class="cls-7" d="m39.97,44.69c.15-.38.3-.76.45-1.15.22-.16.43-.32.65-.48.59-.05,1.18-.24,1.77.03.13.14.27.11.42.03.12.06.23.11.35.17.17.22.36.35.61.26.14.05.29.09.43.14.1.19.22.36.39.43,0,0,.02.02.02.02.06.23.19.35.37.4,0,0,0,0,0,0,.09.2.22.35.4.39,0,0,0-.01,0-.01.05.22.16.36.32.44.05.08.1.16.14.23.08.36.17.72.25,1.09.02.12.03.24.05.35-.03.15-.01.28.1.36,0,.18,0,.36,0,.55-.13.15-.15.33-.1.54-.01.12-.02.24-.03.36-.14.19-.19.43-.21.68-.1.05-.17.13-.19.28-.17.08-.27.23-.3.47-.2.11-.31.31-.39.55-.92.58-1.87.75-2.87.41-.09-.02-.18-.03-.27-.05-.53-.53-1.3-.36-1.77-1.07-.07-.25-.19-.46-.39-.56-.15-.48-.3-.95-.46-1.43.05-.18.07-.36-.01-.53-.31-1.03.15-1.93.3-2.88Zm4.23,2.35c.22-.05.32-.27.32-.56,0-.36-.18-.52-.44-.51-.27,0-.33.22-.32.53,0,.37.17.51.45.54Zm-2.17-2.27c-.15.04-.26.15-.22.36.03.2.16.27.31.24.12-.03.2-.14.19-.31,0-.22-.13-.29-.28-.29Z"/>
        <path class="cls-12" d="m42.57,51.2c.99.34,1.95.18,2.87-.41-.6,1.03-2.15,1.25-2.87.41Z"/>
        <path class="cls-12" d="m39.97,44.69c-.15.95-.61,1.84-.3,2.88-.54-.78-.41-2.02.3-2.88Z"/>
        <path class="cls-12" d="m40.53,50.08c.47.71,1.24.54,1.77,1.07-.98.11-1.61-.27-1.77-1.07Z"/>
        <path class="cls-12" d="m41.07,43.06c-.22.16-.43.32-.65.48-.13-.68.37-.93.47-1.54.26.41.15.75.18,1.06Z"/>
        <path class="cls-12" d="m39.69,48.09c.15.48.3.95.46,1.43-.51-.33-.69-.9-.46-1.43Z"/>
        <path class="cls-12" d="m46.53,46.66c-.08-.36-.17-.72-.25-1.09.38.24.51.58.25,1.09Z"/>
        <path class="cls-12" d="m46.33,49.5c.02-.26.07-.49.21-.68.18.36.21.65-.21.68Z"/>
        <path class="cls-12" d="m44.21,43.54c-.25.09-.44-.03-.61-.26.23-.01.48-.15.61.26Z"/>
        <path class="cls-12" d="m46.57,48.46c-.05-.21-.03-.39.1-.54.18.25.15.43-.1.54Z"/>
        <path class="cls-12" d="m43.26,43.11c-.14.08-.28.11-.42-.03.15-.24.29-.26.42.03Z"/>
        <path class="cls-12" d="m45.83,50.24c.03-.23.13-.39.3-.47,0,.26-.06.46-.3.47Z"/>
        <path class="cls-12" d="m46.13,45.34c-.16-.08-.27-.22-.32-.44.26-.04.31.17.32.44Z"/>
        <path class="cls-12" d="m45.82,44.91c-.18-.04-.31-.19-.4-.39.22-.03.41,0,.4.39Z"/>
        <path class="cls-12" d="m45.43,44.53c-.17-.05-.3-.17-.37-.4.2,0,.37.06.37.4Z"/>
        <path class="cls-12" d="m45.04,44.11c-.18-.07-.29-.24-.39-.43.28-.09.38.1.39.43Z"/>
        <path class="cls-12" d="m46.67,47.37c-.11-.08-.13-.21-.1-.36.17.06.27.14.1.36Z"/>
        <path class="cls-12" d="m61.58,47.99c0,.28-.09.47-.32.45-.28-.02-.28-.31-.29-.59,0-.26.03-.5.29-.45.24.05.32.29.32.59Z"/>
        <path class="cls-11" d="m59.91,49.69c-.02.26,0,.58-.28.58-.22,0-.3-.23-.3-.49,0-.28.07-.56.31-.59.25-.03.25.26.27.5Z"/>
        <path class="cls-12" d="m59.15,47.07c.13-.01.23.06.24.22,0,.24-.05.47-.27.52-.15.03-.18-.13-.19-.28-.02-.22.01-.41.21-.46Z"/>
        <path class="cls-12" d="m44.21,47.03c-.27-.03-.44-.17-.45-.54,0-.3.05-.52.32-.53.27,0,.43.15.44.51,0,.29-.09.51-.32.56Z"/>
        <path class="cls-12" d="m42.03,44.76c.15,0,.27.07.28.29,0,.17-.07.28-.19.31-.15.03-.28-.03-.31-.24-.03-.21.07-.32.23-.36Z"/>
      </g>
    </g>
  </g>
</svg>