<?xml version="1.0" encoding="UTF-8"?>
<svg id="Layer_2" data-name="Layer 2" xmlns="http://www.w3.org/2000/svg" viewBox="0 0 399.25 301.54">
  <defs>
    <style>
      .cls-1 {
        opacity: .1;
      }

      .cls-2 {
        fill: #fcc900;
      }

      .cls-2, .cls-3, .cls-4, .cls-5 {
        fill-rule: evenodd;
      }

      .cls-2, .cls-3, .cls-4, .cls-5, .cls-6, .cls-7, .cls-8, .cls-9, .cls-10, .cls-11, .cls-12, .cls-13, .cls-14, .cls-15, .cls-16, .cls-17, .cls-18, .cls-19, .cls-20, .cls-21, .cls-22, .cls-23, .cls-24, .cls-25, .cls-26, .cls-27, .cls-28, .cls-29, .cls-30, .cls-31 {
        stroke-width: 0px;
      }

      .cls-3 {
        fill: #e9b702;
      }

      .cls-4 {
        fill: #f4c006;
      }

      .cls-5 {
        fill: #f8df2e;
      }

      .cls-7 {
        fill: #f9f5f5;
      }

      .cls-8 {
        fill: #4f91ff;
      }

      .cls-9 {
        fill: #53beed;
      }

      .cls-10 {
        fill: #2c3b53;
      }

      .cls-11 {
        fill: #474646;
      }

      .cls-12 {
        fill: #457aef;
      }

      .cls-13 {
        fill: #3a63df;
      }

      .cls-14 {
        fill: #3ba2ff;
      }

      .cls-15 {
        fill: #1a8ce4;
      }

      .cls-16 {
        fill: #1a3a9e;
      }

      .cls-17 {
        fill: #197bb5;
      }

      .cls-18 {
        fill: #3599d7;
      }

      .cls-19 {
        fill: #10489c;
      }

      .cls-20 {
        fill: #415371;
      }

      .cls-21 {
        fill: #113e56;
      }

      .cls-22 {
        fill: #20719e;
      }

      .cls-23 {
        fill: #162c70;
      }

      .cls-24 {
        fill: #165070;
      }

      .cls-25 {
        fill: #130073;
      }

      .cls-26 {
        fill: #112256;
      }

      .cls-27 {
        fill: #e2dfde;
      }

      .cls-28 {
        fill: #fff;
      }

      .cls-29 {
        fill: #00529a;
      }

      .cls-30 {
        fill: #0069ca;
      }

      .cls-31 {
        fill: #0061b9;
      }
    </style>
  </defs>
  <g id="Layer_1-2" data-name="Layer 1">
    <g>
      <path class="cls-3" d="m333.78,144.21l1.34.44.93-2.8-1.34-.44-.93,2.8Zm-.53,1.11l1.64.54c.56.18,1.16-.12,1.34-.67l1.04-3.11c.18-.56-.12-1.16-.67-1.34l-1.65-.54c-.55-.18-1.14.12-1.34.67l-1.02,3.11c-.19.54.12,1.16.67,1.34h0Zm2.62-7.44l1.34.46.93-2.81-1.34-.44-.93,2.8Zm-.53,1.11l1.64.54c.56.19,1.16-.12,1.34-.67l1.04-3.11c.18-.54-.12-1.14-.67-1.34l-1.65-.54c-.54-.18-1.14.12-1.34.67l-1.02,3.13c-.19.54.12,1.14.67,1.32h0Z"/>
      <path class="cls-2" d="m332.99,148.87c.35.11.74-.09.86-.44l1.27-3.85c.12-.35-.07-.72-.42-.84-.35-.12-.74.07-.86.42l-1.27,3.85c-.12.35.07.74.42.86Zm2.09-6.33c.35.12.74-.07.86-.42l1.27-3.85c.12-.35-.07-.74-.42-.86-.35-.11-.74.09-.86.44l-1.27,3.85c-.12.35.07.72.42.84Z"/>
      <g>
        <g>
          <path class="cls-29" d="m253.61,269.36c-6.64-1.22-8.21-3.19-9.33-10.52-.77-4.99,2.89-6.16,3.92-12.76.85-5.4.6-5.45-.76-12.92-.31-1.71-.93-5.61-1.35-7.16-2.56-1.15-4.99-2.63-7.26-4.35-2.73-2.1-5.23-4.56-7.43-7.34-2.16-2.71-4.04-5.68-5.56-8.86-2.58-5.38-4.2-11.32-4.57-17.39-1.01-16.4,6.73-33.32,18.78-42.98,10.42-8.36,17.4-10.22,23.7-8.68,4.49,1.09,8.65,3.88,13.49,7.28,1.42,1,2.92,2.06,4.49,3.14,5.16,3.54,10.69,7.08,15.44,11.22,3.04,2.64,5.76,5.52,7.84,8.81,2.16,3.4,3.64,7.21,4.12,11.62.13,1.26.1,2.81-.11,4.58-.76,6.75-3.33,16.96-8.23,26.99-11.5,23.52-20.01,22.85-25.9,37.39"/>
          <path class="cls-23" d="m287.77,217.02c-1.06,1.22-1.05,2.96,1.13,3.21,1.52.18,3.71-1.23,3.53-2.98-.12-1.11-1.4-1.57-2.48-1.42-.89.12-1.66.59-2.17,1.19Z"/>
          <path class="cls-23" d="m257.15,217.99c-.6,1.56-.02,3.18,2.09,2.56,1.48-.44,3.07-2.61,2.33-4.17-.47-.99-1.81-.91-2.78-.35-.79.47-1.36,1.21-1.64,1.96Z"/>
          <path class="cls-22" d="m269.76,177.12c1.16,1.15,2.78,1.18,3.5-1.47.76-2.79-1.27-6.82-3.68-4.47-1.89,1.85-1.15,4.62.18,5.94Z"/>
          <path class="cls-24" d="m269.64,184.7c.71-.33,1.56.02,2.14,1.63.36.99.12,2.28-.58,2.93-.7.64-1.8.51-2.36-.32-1.06-1.58-.29-3.72.81-4.24Z"/>
          <path class="cls-22" d="m251.53,154.48c-.25-1.48-1.39-2.39-2.69-.78-.91,1.12-1.13,3.6.11,4.37.79.49,1.76-.3,2.23-1.24.39-.77.48-1.63.36-2.35Z"/>
          <path class="cls-21" d="m277.22,143.71c-.58,1.28-1.04,2.64-1.4,3.99-1.09,4.07-1.55,8.37-3.18,12.21-2.35,5.51-6.92,9.62-9.02,15.24-2.47,6.62-1.17,14.35-3.53,21.01-.41,1.16-1.22,2.44-2.32,2.28-.81-.12-1.35-.97-1.73-1.77-4.02-8.46-2.27-18.7-.42-28.03,2.14-10.82,4.16-21.99,8.11-32.22,4.49,1.09,8.65,3.88,13.49,7.28Z"/>
          <path class="cls-21" d="m237.71,192.95c-1.57,2.22-3.38,4.21-4.77,6.56-3.28,5.57-2.31,10.01-1.55,14.81-2.16-2.71-4.04-5.68-5.56-8.86,1.09-3.5,2.21-6.96,3.28-10.33,2.18-6.84,5.99-21.76,12.71-24.89,10.31-4.79-1.54,19.05-4.12,22.7Z"/>
          <path class="cls-26" d="m297.15,158.07c3.04,2.64,5.76,5.52,7.84,8.81-1.22,1.03-2.55,1.93-3.87,2.77-4.03,2.54-8.38,4.7-11.53,8.45-2.18,2.58-.9,4.28-2.95,6.98-2.05,2.7-6.9,1.4-10.92,6.2-3.53,1.06.67-7.42,4.26-10.55,4.09-3.58,4.7-8.24,8.68-11.96,3.29-3.07,6.15-6.69,8.49-10.69Z"/>
          <path class="cls-26" d="m309.01,183.07c-.76,6.75-3.81,16.74-8.23,26.99-4.37.06-5.4-5.38-8.41-1.9-2,2.31-6.66,1.15-8.08,1.22-1.43.07-3.54,3-4.16,1.58-.58-1.34-.12-3.02.78-4.15.89-1.12,2.13-1.82,3.33-2.51,3.87-2.19,7.76-4.47,10.97-7.7,1.51-1.5,2.84-3.2,4.29-4.76,2.05-2.23,5.81-6.16,9.51-8.77Z"/>
          <path class="cls-26" d="m262.71,204.16c-2.94,7.13-13.42,13.13-16.63,21.85-2.56-1.15-4.99-2.63-7.26-4.35.49-1.04,2.97-2.52,3.48-3.55,1.13-2.28,1.89-2.91,2.5-5.43,1.22-5.05,6.06-2.04,7.23-2.39,3.77-1.14,3.5-2.21,6.31-5.2,2.75-3.42,4.82-2.04,4.36-.93Z"/>
        </g>
        <path class="cls-19" d="m292.75,102.41c.79,4.01,18.77,40.36,22.03,44.83,3.26,4.47,40.78-5.22,42.93-7.36,1.55-1.54.67-9.24,3.93-10.78,3.25-1.54,6.62,6.16,7.87,5.13,1.95-1.61-2.79-7.19-2.79-7.19,0,0,4.69,3.41,5.47,2.22,1.35-2.05-5.43-9.24-8.38-10.27-2.95-1.03-8.38,1.71-9.62,2.57-1.24.86-3.26,11.63-3.26,11.63,0,0-28.08,2.22-28.86,1.88-.78-.34-10.82-29.93-12.26-36.59-1.71-7.9-20.17-11.83-17.07,3.91Z"/>
        <path class="cls-30" d="m367.27,38.02s7.81-19.56,17.34-15.46c9.53,4.11,10.11,27.34,2.84,31.63l-20.18-16.18Z"/>
        <path class="cls-30" d="m255.91,42.44s-16.53,1.56-24.67,21.86c-14.3,35.68,26.91,55.7-68.5,76.84-55.81,12.37-62.35-14.82-101.45-17.97-9.98-.8-20.08-.47-29.13.58-26.39,2.98-43.72,18.5-23,14.9,53.87-9.37,45.34,16.48,83.38,51.54,12.9,11.89,29.06,14.88,39.62,18.28,50.81,16.35,93.73,9.75,130.16.93,70.06-16.97,30.08-85.48,46.57-98.83,0,0,67.55-.75,74.29-15.12,1.29-2.75,2.35-6.6,3.14-11.05,3.34-18.72,1.86-47.95-7.49-50.03-11.59-2.57-16.81,0-16.81,0,0,0-5.99-11.81-17.12-11.81s-13.02,15.14-16.9,14.38c-20.91-4.11-72.1,5.5-72.1,5.5"/>
        <path class="cls-15" d="m383.19,95.45c-7.73,14.88-73.87,15.04-73.87,15.04-19.8,21.66,31.83,79.53-47.75,105.89-35.58,11.78-78.59,8.44-129.4-7.91h-.01c103.42-9.47,127-81.19,128.43-106.66,1.41-25.47,21.44-23.3,21.44-23.3,4.44-.44,11.27-.34,19.17-.05,4.42.16,9.19.36,14.05.56,1.13.05,2.27.1,3.4.14,4.61.18,9.26.32,13.75.39,10.49.18,20.13-.1,26.38-1.54,17.5-4.05,25.85-7.75,28.68-23.81-.79,4.45,4.45,24.5-4.26,41.26Z"/>
        <path class="cls-28" d="m261.72,34.75c.66,9.5,8.18,16.61,16.8,15.88,8.61-.73,15.06-9.02,14.4-18.52-.66-9.5-8.18-16.61-16.8-15.88-8.61.73-15.06,9.02-14.4,18.52Z"/>
        <path class="cls-25" d="m265.05,35.78c.52,7.53,6.49,13.17,13.32,12.59,6.83-.58,11.94-7.15,11.41-14.68-.52-7.53-6.49-13.17-13.32-12.59-6.83.58-11.94,7.15-11.41,14.68Z"/>
        <path class="cls-28" d="m282.02,29.5c.19,2.65,2.29,4.64,4.69,4.43s4.21-2.52,4.02-5.17c-.18-2.65-2.29-4.64-4.69-4.43-2.41.2-4.21,2.52-4.02,5.17Z"/>
        <path class="cls-30" d="m283.05,56.84s-4.28-22.93-27.98-13.83c0,0,4.2,22.94,27.98,13.83Z"/>
        <path class="cls-23" d="m274.02,53.34c1.03-3.93-11.54-7.46-13.29-3.21-1.74,4.26,11.83,8.73,13.29,3.21Z"/>
        <g>
          <path class="cls-31" d="m197.58,272.38c-7.32-.58-5.09-.21-12.6-1.49-7.5-1.29-11.42-1.67-13.35-9.2-1.32-5.13-1.68-8.76-.97-14.44.68-5.44,1.47-10.12,3.09-16.16.45-1.7.91-3.31,1.38-4.76-2.95-1.19-5.79-2.72-8.48-4.51-3.23-2.17-6.24-4.71-8.94-7.57-2.66-2.79-5.01-5.85-7-9.13-3.37-5.54-5.72-11.64-6.7-17.88-2.64-16.84,4.39-34.17,16.89-44.02,10.81-8.52,18.39-10.4,25.54-8.78,5.1,1.14,9.98,4.03,15.67,7.55,1.68,1.04,3.44,2.13,5.29,3.25,6.07,3.67,12.55,7.33,18.21,11.6,3.62,2.73,6.92,5.7,9.53,9.09,2.72,3.5,4.72,7.42,5.67,11.95.26,1.3.37,2.89.3,4.7-.21,6.93-2.68,17.17-6.65,27.66-6.47,17.06-24.6,32.5-35.85,37.3"/>
          <path class="cls-16" d="m220.64,217.31c-1.07,1.25-.89,3.03,1.55,3.3,1.71.19,4.01-1.25,3.64-3.04-.23-1.14-1.7-1.62-2.89-1.47-.98.12-1.79.6-2.3,1.21Z"/>
          <path class="cls-16" d="m186.69,218.15c-.52,1.6.27,3.26,2.56,2.64,1.61-.44,3.17-2.66,2.2-4.27-.61-1.02-2.1-.95-3.12-.37-.84.47-1.39,1.23-1.65,2Z"/>
          <path class="cls-16" d="m196.91,176.25c1.4,1.18,3.2,1.23,3.76-1.49.59-2.86-2.05-7.01-4.51-4.61-1.93,1.89-.85,4.74.75,6.1Z"/>
          <path class="cls-16" d="m197.48,184.04c.76-.33,1.73.03,2.53,1.69.49,1.02.34,2.34-.38,3-.72.66-1.96.52-2.66-.34-1.33-1.63-.67-3.83.51-4.34Z"/>
          <path class="cls-16" d="m174.54,152.91c-.41-1.53-1.77-2.46-3.07-.82-.91,1.15-.92,3.69.52,4.48.92.51,1.93-.29,2.36-1.26.36-.79.38-1.67.18-2.41Z"/>
          <path class="cls-23" d="m202.11,141.99c-.53,1.31-.92,2.71-1.18,4.09-.83,4.18-.95,8.59-2.4,12.52-2.1,5.65-6.8,9.84-8.61,15.6-2.13,6.78.04,14.73-1.97,21.56-.34,1.18-1.12,2.5-2.37,2.33-.91-.13-1.59-1-2.09-1.83-5.26-8.71-4.26-19.21-3.08-28.78,1.38-11.09,2.59-22.56,6.03-33.04,5.1,1.14,9.98,4.03,15.67,7.55Z"/>
          <path class="cls-23" d="m162.75,192.33c-1.54,2.27-3.37,4.31-4.69,6.71-3.13,5.7-1.64,10.26-.35,15.2-2.66-2.79-5.01-5.85-7-9.13.89-3.59,1.81-7.14,2.69-10.58,1.79-7.01,4.64-22.31,11.83-25.48,11.02-4.86.05,19.55-2.48,23.29Z"/>
          <path class="cls-23" d="m225.6,156.84c3.62,2.73,6.92,5.7,9.53,9.09-1.27,1.05-2.65,1.97-4.05,2.82-4.24,2.58-8.89,4.78-12.03,8.62-2.18,2.63-.6,4.39-2.63,7.15-2.02,2.76-7.54,1.4-11.57,6.3-3.82,1.07.06-7.61,3.75-10.81,4.22-3.65,4.47-8.43,8.55-12.23,3.37-3.14,6.22-6.84,8.45-10.93Z"/>
          <path class="cls-23" d="m241.1,182.58c-.21,6.93-2.68,17.17-6.65,27.66-4.86.03-6.5-5.55-9.53-2-2.01,2.36-7.3,1.15-8.87,1.21-1.58.06-3.66,3.06-4.47,1.6-.78-1.38-.41-3.1.48-4.26.89-1.14,2.2-1.86,3.47-2.56,4.1-2.23,8.22-4.55,11.49-7.85,1.54-1.53,2.86-3.27,4.33-4.87,2.08-2.28,5.88-6.29,9.76-8.95Z"/>
          <path class="cls-23" d="m191.58,203.98c-2.61,7.3-13.7,13.41-16.46,22.34-2.95-1.19-5.79-2.72-8.48-4.51.45-1.06,3.07-2.57,3.54-3.63,1.04-2.33,1.83-2.98,2.28-5.56.89-5.18,6.55-2.06,7.82-2.41,4.08-1.15,3.69-2.24,6.53-5.3,2.74-3.5,5.17-2.07,4.76-.93Z"/>
        </g>
        <path class="cls-28" d="m298.77,30.77c.66,9.5,8.18,16.61,16.8,15.88,8.61-.73,15.06-9.02,14.4-18.52-.66-9.5-8.18-16.61-16.8-15.88-8.61.73-15.06,9.02-14.4,18.52Z"/>
        <path class="cls-25" d="m302.1,31.8c.52,7.53,6.49,13.17,13.32,12.59,6.83-.58,11.94-7.15,11.41-14.68-.52-7.53-6.49-13.17-13.32-12.59-6.83.58-11.94,7.15-11.41,14.68Z"/>
        <path class="cls-28" d="m319.07,25.53c.19,2.65,2.29,4.64,4.69,4.43s4.21-2.52,4.02-5.17c-.18-2.65-2.29-4.64-4.69-4.43-2.41.2-4.21,2.52-4.02,5.17Z"/>
        <path class="cls-25" d="m347.86,30.37c-6.47,2.87-.59,17,4.55,15.52,5.14-1.48.1-17.58-4.55-15.52Z"/>
        <path class="cls-25" d="m381.77,30.37c6.47,2.87.59,17-4.55,15.52s-.1-17.58,4.55-15.52Z"/>
        <path class="cls-30" d="m309.31,50.42s3.65-20.48,28.34-15.48c0,0-3.57,20.47-28.34,15.48Z"/>
        <path class="cls-23" d="m318.66,45.86c-1.57-3.71,10.37-9.32,12.69-5.41,2.31,3.91-10.49,10.62-12.69,5.41Z"/>
        <path class="cls-23" d="m217.15,119.01c-.41,3.08,1.37,5.24,6.2,2.59,5.1-2.79,8.88-10.94,2.58-10.89-4.95.04-8.31,4.77-8.79,8.3Z"/>
        <path class="cls-23" d="m214.31,123.5c1.12.7,1.13,2.25-1.33,4.65-1.51,1.48-4,2.38-5.67,2s-2.26-2.09-1.18-3.7c2.05-3.06,6.46-4.03,8.19-2.94Z"/>
        <path class="cls-23" d="m251.11,70.26c.93-.12,1.81.59,2,2.69.12,1.29-.55,2.7-1.57,3.19-1.01.49-2.26-.06-2.66-1.24-.76-2.24.79-4.45,2.23-4.64Z"/>
        <path class="cls-23" d="m111.73,140.07c-4.32.47-6.77,2.95-1.83,5.9,3.46,2.06,10.79,2.66,12.83-.04,1.3-1.72-1.18-3.89-4.02-4.96-2.35-.89-4.88-1.13-6.97-.9Z"/>
        <path class="cls-23" d="m94.84,142.63c3.43-.23,5.59-2.23,1.99-4.9-2.52-1.87-8.21-2.66-10.06-.46-1.18,1.4.56,3.32,2.69,4.34,1.76.84,3.72,1.14,5.38,1.03Z"/>
        <path class="cls-28" d="m315.23,79.01c-.93,4.61-3.32,14.66-6.46,15.08-2.75.36-6.57-12.11-7.59-15.63,4.42.16,9.19.36,14.05.56Z"/>
        <path class="cls-28" d="m332.38,79.54c-.94,5.05-3.21,15.23-6.26,15.65-2.6.34-6.24-11.57-7.49-16.04,4.61.18,9.26.32,13.75.39Z"/>
      </g>
      <g>
        <path class="cls-2" d="m241.78,163.89l-1.86,4.81c.75.26,1.43.25,2-.02.57-.25.99-.72,1.27-1.43.23-.6.25-1.19,0-1.78-.25-.57-.72-1.1-1.41-1.59Zm2.37-12.71c-.69-.18-1.3-.15-1.83.12-.51.27-.9.77-1.18,1.48-.26.66-.3,1.24-.14,1.74.18.51.6.98,1.27,1.44l1.87-4.79Zm-9.17,23.48l1.61-4.13-.11-.04c-2.25-.88-3.81-2-4.65-3.34-.84-1.33-.94-2.84-.29-4.52.37-.95.92-1.62,1.65-2.04s1.47-.48,2.23-.18c.71.28,1.21.76,1.48,1.47.28.69.27,1.41-.02,2.15-.23.58-.53.99-.93,1.27-.38.29-.84.4-1.38.37.26.47.61.88,1.04,1.2.43.35.95.63,1.57.87l.44.17,2.15-5.51c-2.24-1.66-3.68-3.22-4.34-4.65-.64-1.43-.63-3.02.05-4.77.79-2.03,2.07-3.48,3.83-4.31,1.75-.86,3.74-.97,5.97-.36l.35-.9c.29.28.65.51,1.05.66s.8.22,1.22.22l-.34.87c1.99.89,3.39,1.98,4.13,3.27.75,1.27.82,2.7.22,4.22-.37.95-.9,1.61-1.59,2.03-.71.41-1.42.48-2.16.19s-1.19-.76-1.45-1.4c-.27-.65-.27-1.34,0-2.05.17-.43.41-.77.71-1.07.33-.29.71-.52,1.16-.69-.23-.34-.51-.65-.86-.92-.36-.29-.8-.51-1.3-.71l-2.11,5.4c2.25,1.55,3.71,3.1,4.4,4.64.68,1.55.66,3.27-.06,5.13-.84,2.14-2.12,3.57-3.83,4.31-1.71.75-3.71.71-5.97-.1l-1.61,4.13-2.25-.88h0Z"/>
        <path class="cls-5" d="m241.78,163.89l-.19.49-.64-10.03c.03.07.04.13.05.18.18.51.6.98,1.27,1.44l.04-.09.58,9.07c-.27-.38-.64-.72-1.11-1.05h0Zm.08,4.82l.07-.03c.48-.21.86-.59,1.13-1.12l.28,4.39c-.4.06-.82.1-1.25.09l-.22-3.34Zm-4.62-18.56l.66,10.71c-1.19-1.08-2.02-2.13-2.47-3.12-.64-1.43-.63-3.02.05-4.77.44-1.12,1.02-2.05,1.75-2.82h0Zm1,16.17l.37,5.7-1.38,3.53-1.28-.5-.16-2.48.79-2.03-.11-.04c-.28-.11-.57-.22-.83-.34l-.22-3.43c.06.04.11.1.18.14.43.35.95.63,1.57.87l.44.17.62-1.59Zm-2.88-.72l-.34-5.31c.13.03.28.07.41.12.71.28,1.21.76,1.48,1.47.28.69.27,1.41-.02,2.15-.23.58-.53.99-.93,1.27-.18.13-.38.23-.59.3h0Zm6.45-17.65l.23,3.54c-.38.29-.68.72-.91,1.3-.12.31-.2.61-.22.89l-.36-5.49c.41-.11.83-.18,1.25-.24h0Zm5.28.25l.26,4.3c-.3-.18-.62-.33-.95-.46l-.98,2.5-.39-6.29c.08.01.15.04.23.05l.35-.9c.29.28.65.51,1.05.66.14.06.27.09.42.13h0Zm.38,6.1l.27,4.37c-.49-.28-.84-.69-1.04-1.2-.27-.65-.27-1.34,0-2.05.17-.43.41-.77.71-1.07l.06-.05Zm.4,6.4l.46,7.2c-.5,1.06-1.13,1.92-1.88,2.59l-.77-12.03c.9.75,1.65,1.5,2.19,2.24Z"/>
        <path class="cls-4" d="m249.06,141.94c1.69.66,2.52,2.56,1.86,4.26-.66,1.69-2.56,2.52-4.25,1.86s-2.54-2.57-1.88-4.25c.66-1.69,2.56-2.53,4.26-1.88,0,0,0,0,.01,0Zm-.49,1.26c.99.39,1.48,1.5,1.09,2.51s-1.5,1.48-2.5,1.09-1.5-1.51-1.11-2.5,1.53-1.49,2.52-1.1h0Z"/>
        <path class="cls-3" d="m246.5,139.41l-1.29.4-.86-2.7,1.29-.4.86,2.7Zm.51,1.07l-1.6.5c-.53.16-1.1-.14-1.28-.66l-.94-3.01c-.18-.54.12-1.11.66-1.28l1.58-.5c.54-.16,1.11.14,1.28.66l.95,3.01c.16.53-.14,1.11-.66,1.28Zm-2.43-7.19l-1.29.42-.85-2.72,1.29-.4.86,2.7Zm.51,1.07l-1.6.5c-.53.18-1.1-.14-1.28-.66l-.94-3.01c-.18-.53.12-1.1.66-1.28l1.58-.5c.54-.16,1.11.14,1.28.66l.95,3.02c.16.53-.13,1.1-.66,1.26h0Z"/>
        <path class="cls-2" d="m247.2,143.91c-.34.1-.69-.1-.81-.44l-1.18-3.72c-.1-.34.1-.69.44-.81.34-.11.71.08.81.42l1.18,3.72c.1.34-.08.71-.44.82h0Zm-1.92-6.12c-.34.11-.69-.08-.81-.42l-1.18-3.72c-.1-.34.1-.71.44-.82.34-.1.71.1.81.43l1.18,3.72c.1.34-.1.69-.43.81h0Z"/>
        <path class="cls-3" d="m241.35,127.25l-1.09.8-1.68-2.28,1.09-.8,1.68,2.28Zm.83.85l-1.35.99c-.45.32-1.08.23-1.42-.21l-1.86-2.54c-.34-.46-.25-1.09.21-1.42l1.33-.98c.46-.33,1.1-.23,1.42.21l1.87,2.54c.32.45.23,1.1-.21,1.42Zm-4.62-6.02l-1.09.82-1.69-2.3,1.09-.8,1.68,2.28Zm.83.85l-1.35.99c-.44.34-1.08.23-1.42-.21l-1.86-2.54c-.34-.44-.24-1.08.21-1.42l1.33-.98c.46-.33,1.1-.23,1.42.21l1.88,2.55c.32.45.23,1.08-.22,1.4h0Z"/>
        <path class="cls-2" d="m243.46,131.27c-.29.2-.69.13-.9-.15l-2.32-3.14c-.2-.29-.13-.69.15-.9.28-.22.7-.16.9.13l2.32,3.14c.2.29.16.7-.15.92h0Zm-3.8-5.17c-.29.22-.68.15-.9-.13l-2.32-3.14c-.2-.29-.14-.7.15-.92.29-.2.7-.14.9.15l2.32,3.14c.2.29.13.69-.15.9h0Z"/>
        <path class="cls-3" d="m232.25,117.24l-.82,1.08-2.26-1.71.82-1.08,2.26,1.71Zm1.04.58l-1.01,1.33c-.34.44-.97.52-1.42.2l-2.5-1.91c-.46-.34-.55-.98-.2-1.42l1-1.32c.35-.45.99-.53,1.42-.2l2.52,1.9c.44.34.53.99.2,1.42Zm-6.14-4.46l-.81,1.09-2.27-1.72.82-1.08,2.26,1.71Zm1.04.58l-1.01,1.33c-.33.45-.97.52-1.42.2l-2.5-1.91c-.45-.33-.54-.96-.2-1.42l1-1.32c.35-.45.99-.53,1.42-.2l2.53,1.92c.44.34.52.97.19,1.41h0Z"/>
        <path class="cls-2" d="m235.42,120.51c-.22.28-.62.32-.91.11l-3.11-2.35c-.27-.22-.32-.62-.11-.91.21-.29.62-.35.9-.12l3.11,2.35c.28.22.35.62.12.92h0Zm-5.1-3.88c-.21.29-.61.34-.9.12l-3.11-2.35c-.27-.22-.33-.63-.12-.92.22-.28.63-.33.91-.11l3.11,2.35c.28.22.32.62.11.91h0Z"/>
      </g>
      <polygon class="cls-28" points="236.88 12.56 239.89 21.13 248.46 24.14 239.89 27.16 236.88 35.73 233.86 27.16 225.3 24.14 233.86 21.13 236.88 12.56"/>
      <polygon class="cls-28" points="245.44 0 247.22 5.07 252.29 6.85 247.22 8.64 245.44 13.71 243.65 8.64 238.58 6.85 243.65 5.07 245.44 0"/>
      <polygon class="cls-28" points="392.39 9.59 394.18 14.66 399.25 16.45 394.18 18.23 392.39 23.3 390.61 18.23 385.54 16.45 390.61 14.66 392.39 9.59"/>
      <g>
        <path class="cls-2" d="m332.88,163v3.47c.55-.02.97-.19,1.26-.5.3-.3.44-.69.44-1.21,0-.43-.14-.81-.43-1.12-.3-.3-.72-.51-1.28-.65Zm-1.63-8.56c-.48.06-.85.23-1.12.52-.25.3-.38.71-.38,1.22,0,.48.11.85.34,1.13.24.27.62.47,1.15.59v-3.46Zm0,16.99v-2.98h-.08c-1.63,0-2.88-.32-3.74-.96-.85-.63-1.29-1.55-1.29-2.77,0-.68.18-1.24.54-1.69s.81-.66,1.36-.66c.51,0,.95.18,1.29.56.34.36.51.82.51,1.36,0,.42-.09.75-.27,1.03-.17.27-.43.46-.77.57.28.23.6.4.95.5.35.11.75.16,1.2.16h.32v-3.99c-1.81-.49-3.1-1.12-3.86-1.86-.75-.74-1.14-1.74-1.14-3.01,0-1.47.44-2.69,1.34-3.65.89-.97,2.11-1.53,3.66-1.69v-.65c.25.1.54.16.82.16s.56-.06.82-.16v.63c1.47.07,2.61.41,3.4,1.04.79.62,1.17,1.49,1.17,2.6,0,.68-.17,1.23-.5,1.66-.34.43-.77.65-1.31.65s-.93-.18-1.25-.52c-.33-.34-.5-.77-.5-1.29,0-.31.07-.58.18-.84.14-.26.32-.5.56-.72-.23-.16-.48-.28-.76-.36-.3-.09-.63-.13-.99-.13v3.91c1.79.42,3.09,1.04,3.9,1.83.81.81,1.22,1.89,1.22,3.24,0,1.55-.46,2.76-1.34,3.65-.89.89-2.15,1.36-3.77,1.4v2.98h-1.63Z"/>
        <path class="cls-5" d="m332.88,163v.35l-2.86-6.14s.06.07.08.1c.24.27.62.47,1.15.59v-.07l2.59,5.55c-.26-.17-.58-.3-.96-.39h0Zm1.23,3.01l.03-.03c.25-.25.4-.58.43-.98l1.25,2.69c-.24.14-.49.26-.76.36l-.96-2.04Zm-7.45-10.52l3.04,6.56c-1.01-.39-1.79-.84-2.31-1.36-.75-.74-1.14-1.74-1.14-3.01,0-.81.14-1.54.41-2.2h0Zm4.59,9.9l1.63,3.49v2.55h-.92l-.71-1.52v-1.47h-.08c-.21,0-.41,0-.6-.01l-.98-2.1s.09.03.15.05c.35.11.75.16,1.2.16h.32v-1.15Zm-1.98.25l-1.52-3.25c.09-.01.19-.02.28-.02.51,0,.95.18,1.29.56.34.36.51.82.51,1.36,0,.42-.09.75-.27,1.03-.08.13-.18.24-.3.33h0Zm-.27-12.66l1.01,2.16c-.17.27-.25.62-.25,1.04,0,.23.02.43.08.62l-1.57-3.36c.23-.17.48-.32.73-.46h0Zm3.37-1.14l1.22,2.63c-.23-.04-.47-.06-.71-.06v1.81l-1.79-3.85c.06-.01.1-.01.16-.02v-.65c.25.1.54.16.82.16.1,0,.19-.01.3-.02h0Zm1.73,3.74l1.24,2.68c-.38-.06-.69-.23-.95-.5-.33-.34-.5-.77-.5-1.29,0-.31.07-.58.18-.84l.02-.05Zm1.82,3.92l2.05,4.41c-.06.79-.24,1.48-.55,2.08l-3.43-7.36c.75.25,1.4.54,1.93.87Z"/>
        <path class="cls-4" d="m332.07,147.43c1.22,0,2.21.99,2.21,2.22s-.99,2.21-2.21,2.21-2.22-.99-2.22-2.21c0-1.22.99-2.22,2.21-2.22,0,0,0,0,0,0Zm0,.91c.72,0,1.3.58,1.3,1.31s-.58,1.3-1.3,1.3-1.31-.58-1.31-1.3.59-1.31,1.31-1.31h0Z"/>
        <path class="cls-3" d="m330.52,144.16l-1.34.44-.93-2.8,1.34-.44.93,2.8Zm.55,1.11l-1.65.54c-.55.18-1.14-.12-1.34-.67l-1.02-3.11c-.19-.56.11-1.16.67-1.34l1.64-.54c.56-.18,1.16.12,1.34.67l1.04,3.11c.18.54-.12,1.16-.67,1.34Zm-2.64-7.44l-1.34.46-.93-2.81,1.34-.44.93,2.8Zm.54,1.11l-1.65.54c-.54.19-1.14-.12-1.34-.67l-1.02-3.11c-.19-.54.11-1.14.67-1.34l1.64-.54c.56-.18,1.16.12,1.34.67l1.04,3.13c.18.54-.12,1.14-.67,1.32h0Z"/>
        <path class="cls-2" d="m331.31,148.82c-.35.11-.72-.09-.84-.44l-1.28-3.85c-.11-.35.09-.72.44-.84.35-.12.74.07.84.42l1.28,3.85c.11.35-.07.74-.44.86h0Zm-2.09-6.33c-.35.12-.72-.07-.84-.42l-1.28-3.85c-.11-.35.09-.74.44-.86.35-.11.74.09.84.44l1.28,3.85c.11.35-.09.72-.44.84h0Z"/>
      </g>
      <path class="cls-2" d="m326.56,134.79c-.04-.37.23-.69.6-.73l4.04-.38c.37-.02.7.25.74.62.02.37-.25.7-.62.72l-4.04.38c-.37.02-.68-.25-.72-.62h0Z"/>
      <g>
        <path class="cls-3" d="m252.91,142.37l.48,1.26,2.65-1.01-.48-1.26-2.65,1.01Zm-1.15.28l.59,1.55c.21.53.8.79,1.31.59l2.95-1.12c.53-.21.79-.8.59-1.31l-.6-1.56c-.2-.51-.79-.78-1.31-.59l-2.94,1.13c-.52.19-.79.8-.59,1.31h0Zm7.13-2.57l.47,1.27,2.66-1.02-.48-1.26-2.65,1.01Zm-1.15.28l.59,1.55c.2.54.8.79,1.31.59l2.95-1.12c.51-.2.78-.79.59-1.31l-.6-1.56c-.2-.51-.79-.78-1.31-.59l-2.95,1.14c-.52.19-.78.79-.58,1.3h0Z"/>
        <path class="cls-2" d="m248.96,144.61c.14.33.51.5.85.37l3.64-1.4c.34-.12.49-.49.37-.83-.12-.34-.5-.51-.84-.39l-3.64,1.4c-.34.12-.51.5-.39.84Zm5.99-2.29c.12.34.5.51.84.39l3.64-1.4c.34-.12.51-.5.39-.84-.14-.33-.51-.5-.85-.37l-3.64,1.4c-.34.12-.49.49-.37.83Z"/>
        <path class="cls-3" d="m265.48,138.35l.26,1.33,2.78-.53-.26-1.33-2.78.53Zm-1.18.08l.31,1.63c.12.55.65.92,1.19.81l3.1-.59c.55-.12.92-.65.81-1.19l-.32-1.64c-.11-.54-.64-.9-1.19-.81l-3.09.6c-.55.09-.92.65-.81,1.19h0Zm7.47-1.29l.24,1.34,2.8-.54-.26-1.33-2.78.53Zm-1.18.08l.31,1.63c.1.56.65.92,1.19.81l3.1-.59c.54-.11.9-.64.81-1.19l-.32-1.64c-.11-.54-.64-.9-1.19-.81l-3.11.61c-.55.09-.9.64-.79,1.18h0Z"/>
        <path class="cls-2" d="m261.2,139.87c.08.34.42.58.77.52l3.83-.74c.35-.06.57-.4.51-.75-.06-.35-.41-.59-.76-.53l-3.83.74c-.35.06-.59.41-.53.76Zm6.3-1.21c.06.35.41.59.76.53l3.83-.74c.35-.06.59-.41.53-.76-.08-.34-.42-.58-.77-.52l-3.83.74c-.35.06-.57.4-.51.75Z"/>
        <path class="cls-3" d="m278.45,135.96l.26,1.33,2.78-.53-.26-1.33-2.78.53Zm-1.18.08l.31,1.63c.12.55.65.92,1.19.81l3.1-.59c.55-.12.92-.65.81-1.19l-.32-1.64c-.11-.54-.64-.9-1.19-.81l-3.09.6c-.55.09-.92.65-.81,1.19h0Zm7.47-1.29l.24,1.34,2.8-.54-.26-1.33-2.78.53Zm-1.18.08l.31,1.63c.1.56.65.92,1.19.81l3.1-.59c.54-.11.9-.64.81-1.19l-.32-1.64c-.11-.54-.64-.9-1.19-.81l-3.11.61c-.55.09-.9.64-.79,1.18h0Z"/>
        <path class="cls-2" d="m274.16,137.48c.08.34.42.58.77.52l3.83-.74c.35-.06.57-.4.51-.75-.06-.35-.41-.59-.76-.53l-3.83.74c-.35.06-.59.41-.53.76Zm6.3-1.21c.06.35.41.59.76.53l3.83-.74c.35-.06.59-.41.53-.76-.08-.34-.42-.58-.77-.52l-3.83.74c-.35.06-.57.4-.51.75Z"/>
        <path class="cls-3" d="m291.24,133.53l.26,1.33,2.78-.53-.26-1.33-2.78.53Zm-1.18.08l.31,1.63c.12.55.65.92,1.19.81l3.1-.59c.55-.12.92-.65.81-1.19l-.32-1.64c-.11-.54-.64-.9-1.19-.81l-3.09.6c-.55.09-.92.65-.81,1.19h0Zm7.47-1.29l.24,1.34,2.8-.54-.26-1.33-2.78.53Zm-1.18.08l.31,1.63c.1.56.65.92,1.19.81l3.1-.59c.54-.11.9-.64.81-1.19l-.32-1.64c-.11-.54-.64-.9-1.19-.81l-3.11.61c-.55.09-.9.64-.79,1.18h0Z"/>
        <path class="cls-2" d="m286.95,135.05c.08.34.42.58.77.52l3.83-.74c.35-.06.57-.4.51-.75-.06-.35-.41-.59-.76-.53l-3.83.74c-.35.06-.59.41-.53.76Zm6.3-1.21c.06.35.41.59.76.53l3.83-.74c.35-.06.59-.41.53-.76-.08-.34-.42-.58-.77-.52l-3.83.74c-.35.06-.57.4-.51.75Z"/>
        <path class="cls-3" d="m303.98,130.94l.26,1.33,2.78-.53-.26-1.33-2.78.53Zm-1.18.08l.31,1.63c.12.55.65.92,1.19.81l3.1-.59c.55-.12.92-.65.81-1.19l-.32-1.64c-.11-.54-.64-.9-1.19-.81l-3.09.6c-.55.09-.92.65-.81,1.19h0Z"/>
        <path class="cls-2" d="m299.7,132.47c.08.34.42.58.77.52l3.83-.74c.35-.06.57-.4.51-.75-.06-.35-.41-.59-.76-.53l-3.83.74c-.35.06-.59.41-.53.76Zm6.3-1.21c.06.35.41.59.76.53l3.83-.74c.35-.06.59-.41.53-.76-.08-.34-.42-.58-.77-.52l-3.83.74c-.35.06-.57.4-.51.75Z"/>
      </g>
      <path class="cls-14" d="m234.76,106.61c.79,4.01,18.77,40.36,22.03,44.83,3.26,4.47,40.78-5.22,42.93-7.36,1.55-1.54.67-9.24,3.93-10.78,3.25-1.54,6.62,6.16,7.87,5.13,1.95-1.61-2.79-7.19-2.79-7.19,0,0,4.69,3.41,5.47,2.22,1.35-2.05-5.43-9.24-8.38-10.27-2.95-1.03-8.38,1.71-9.62,2.57-1.24.86-3.26,11.63-3.26,11.63,0,0-28.08,2.22-28.86,1.88-.78-.34-10.82-29.93-12.26-36.59-1.71-7.9-20.17-11.83-17.07,3.91Z"/>
      <path class="cls-6" d="m157.35,281.5c.18.06.31.16.4.13.19-.05.37-.43.28-.54-.04-.05-.15-.05-.24-.09.02.14.02.22.03.29-.06-.02-.16-.02-.18-.07-.03-.06-.03-.21,0-.22.14-.07.29-.1.44-.14.04.14.14.3.09.42-.06.18-.2.35-.35.48-.07.06-.26.07-.36.02-.07-.03-.08-.19-.12-.28Z"/>
      <path class="cls-6" d="m157.23,280.97l.32.23c-.15.1-.27.23-.41.26-.08.02-.24-.1-.28-.19-.1-.28.2-.73.49-.76.09-.01.22.02.28.07.06.06.05.18.06.25-.15-.06-.33-.17-.37-.14-.14.14-.23.32-.33.49,0,.02.08.09.13.13.03-.05.07-.11.09-.17.01-.03,0-.07,0-.16Z"/>
      <g>
        <g>
          <path class="cls-10" d="m171.88,247.24c-2.66,4.14-8.32,14.84-10.72,23.47-2.39,8.63-4.54,13.58,3.46,16.19,8.01,2.61,43.2,12.99,49.75,13.91,6.55.92,23.91,1.94,25.13-3.59,1.23-5.53-.79-9.44-4.37-10.92-3.58-1.48-7.61-5.98-11.41-8.83-3.79-2.86-13.46-9.29-13.94-11.11-.48-1.82-4.94-19.74-7.72-22.15-1.28-1.11-7.9,1.06-14.41,1.78-7.65.85-15.27.46-15.78,1.24Z"/>
          <path class="cls-20" d="m235.14,286.3c-2.52-1.04-3.68-2.97-7.56-5.54-.7.19-1.06-.19-1.88-.68-1.69-1.01-3.33-2.87-5.44-2.86-1.38,0-2.56.75-3.94.58-1.68-.21-3.38-1.76-4.63-2.79-1.47-1.21-2.83-2.54-4.14-3.93-1.47-1.55-2.98-3.58-4.78-4.75-2.25-1.46-6.14-1.52-8.54-.88-.34.09-.54-.41-.28-.61,1.66-1.29,4.94-2.14,5.46-4.28.44-1.79.17-3.62-.29-5.38-.92-3.5-1.68-7.25-3.2-10.58-2.46.48-5.37,1.08-8.26,1.41-7.65.85-15.27.46-15.78,1.24-2.66,4.14-8.32,14.84-10.72,23.47-2.39,8.63-4.41,12.82,3.59,15.44,8.01,2.61,42.99,13.26,49.54,14.18,6.55.92,23.98,2.43,25.21-3.1,1.23-5.53-.79-9.44-4.37-10.92Z"/>
          <path class="cls-7" d="m225.69,280.08c-.51-.31-1.02-.69-1.54-1.08-.36.31-.71.62-1.04.95-.75.74-1.95,1.86-1.93,3.03.03,1.74,2.46,2.52,3.8,2.93,2.6.8,1.36.46,4.02.95,1.5.28,3.15.69,4.69.44.72-.12,1.34-.4,1.87-.79-.14-.07-.3-.1-.43-.2-2.37-1.94-3.68-2.97-7.56-5.54-.7.19-1.06-.19-1.88-.68Z"/>
          <path class="cls-18" d="m167.88,256.23c1.32,1.89,3.91,3.61,5.66,5.11,3.45,2.95,7.55,4.57,12.14,4.97,3.96.34,6.74-.04,10.41-1.3,1.45-1.19,2.86-2.61,3.31-4.47.44-1.79.17-3.62-.29-5.38-.92-3.5-1.68-7.25-3.2-10.58-2.46.48-5.37,1.08-8.26,1.41-7.65.85-15.27.46-15.78,1.24-1.13,1.76-2.81,4.71-4.55,8.19.18.27.36.54.54.8Z"/>
          <path class="cls-9" d="m187.13,265.23c-5.03-.32-9.57-2.4-13.42-5.28-1.95-1.46-3.78-3.1-5.27-4.96-.18-.23-.36-.45-.53-.68-.19.37-.38.74-.57,1.13.18.27.36.54.54.8,1.32,1.89,2.95,3.56,4.71,5.06,3.45,2.95,7.6,4.68,12.13,5.5,5.18.94,10.15-1.03,13.82-2.29.4-.33-1.64-.18-1.26-.55-3.27.92-6.62,1.49-10.14,1.27Z"/>
          <path class="cls-18" d="m236.27,286.89c-.61.52-1.32.91-2.17,1.05-1.95.32-3.84-.18-5.76-.49-2.72-.43-1.6-.13-4.19-1.1-2.33-.87-4.83-2.59-2.98-5.23.68-.97,1.54-1.77,2.44-2.53-1.02-.74-2.11-1.39-3.35-1.38-1.24,0-2.32.6-3.53.6-6.5,5.04-12.68,10.35-18.49,16.28-.55.56-1.11,1.12-1.68,1.66,8.08,2.32,15.15,4.21,17.75,4.58,6.55.92,23.98,2.43,25.21-3.1,1.09-4.92-.39-8.55-3.24-10.34Z"/>
          <path class="cls-9" d="m201.11,292.79c5.4-5.51,11.13-10.49,17.14-15.21-.5.13-1,.24-1.53.24-6.5,5.04-12.68,10.35-18.49,16.28-.55.56-1.11,1.12-1.68,1.66.52.15,1.04.3,1.56.44,1.42-1.63,2.75-3.15,3-3.41Z"/>
          <path class="cls-18" d="m193.7,289.29c-.07-3.83-1.16-7.03-4.14-9.57-2.42-2.06-5.21-3.58-8.03-5.01-4.36-2.21-9.23-4.38-12.83-7.76-2.05-1.92-3.24-4.13-3.69-6.58-1.52,3.43-2.92,7.04-3.84,10.35-2.39,8.63-4.41,12.82,3.59,15.44,4.44,1.45,17.21,5.38,28.8,8.74.1-1.87.17-3.74.14-5.6Z"/>
          <path class="cls-9" d="m168.04,268.02c3.66,3.49,8.62,5.73,13.06,8,2.88,1.47,5.72,3.03,8.18,5.17,3.03,2.63,4.13,5.95,4.18,9.93.02,1.24-.02,2.47-.07,3.72.06.02.11.03.17.05.1-1.87.17-3.74.14-5.6-.07-3.83-1.16-7.03-4.14-9.57-2.42-2.06-5.21-3.58-8.03-5.01-4.36-2.21-9.23-4.38-12.83-7.76-2.05-1.92-3.24-4.13-3.69-6.58-.2.45-.39.9-.59,1.35.51,2.34,1.69,4.46,3.63,6.31Z"/>
          <path class="cls-27" d="m239.67,292.03c-5.43,2.97-18.44,1.54-24.2.63-6.71-1.06-42.56-12.49-50.76-15.28-2.27-.77-3.75-1.65-4.66-2.7-1.66,6.01-1.94,9.29,4.72,11.46,8.01,2.61,42.99,13.26,49.54,14.18,6.55.92,23.98,2.43,25.21-3.1.43-1.95.45-3.69.16-5.2Z"/>
          <path class="cls-10" d="m213.61,298.25c.25-.51.5-1.01.75-1.52,0,0,0,0,0,0-6.66-1.18-42.24-13.28-50.39-16.23-2.25-.81-3.72-1.72-4.62-2.79-.18.65-.27,2.06-.27,2.06.92.92,2.09,1.51,4.09,2.24,8.14,2.95,43.73,15.05,50.39,16.23.02,0,.05,0,.07.01Z"/>
          <path class="cls-10" d="m211.83,294.3c-2.82.26-4.33,2.18-5.73,4.3,3.74,1,6.67,1.7,8.15,1.91,6.55.92,23.98,2.43,25.21-3.1.34-1.52.42-2.92.3-4.18-8.83,4.54-26.06.9-27.93,1.07Z"/>
          <path class="cls-7" d="m201.5,270.33c-3.53,1.97-8.64,3.85-10.97,4.85-2.33,1,8.63,12.41,11.79,10.03,3.16-2.38,7.87-7.71,7.87-7.71l-8.69-7.17Z"/>
          <path class="cls-7" d="m188.48,248.52c-4.2-.02-12.8.07-14.06,2.03s-.69,8.04,4.53,9.07c5.21,1.03,14.55-.39,14.03-3.11-.52-2.72-1.46-7.98-4.5-8Z"/>
          <path class="cls-11" d="m196.91,250.6c.13,1.22-.38,2.28-1.15,2.36-.77.08-1.5-.83-1.63-2.05s.38-2.28,1.15-2.36c.77-.08,1.5.83,1.63,2.05Z"/>
          <path class="cls-11" d="m197.95,257.14c.13,1.22-.38,2.28-1.15,2.36-.77.08-1.5-.83-1.63-2.05s.38-2.28,1.15-2.36c.77-.08,1.5.83,1.63,2.05Z"/>
          <path class="cls-11" d="m200.16,266.15c.39.87.27,1.78-.28,2.03-.55.25-1.32-.26-1.71-1.13-.39-.87-.27-1.78.28-2.03.55-.25,1.32.26,1.71,1.13Z"/>
          <path class="cls-11" d="m205.16,269.52c.64.72.79,1.62.33,2.03-.45.4-1.33.14-1.97-.57-.64-.72-.79-1.62-.33-2.03.45-.4,1.33-.14,1.97.57Z"/>
          <path class="cls-11" d="m209.91,273.43c.74.61,1.03,1.48.65,1.95-.38.47-1.29.35-2.04-.25-.74-.61-1.03-1.48-.65-1.95.38-.47,1.29-.35,2.04.26Z"/>
          <path class="cls-11" d="m213.67,276.65c.74.61,1.03,1.48.65,1.95-.38.47-1.29.35-2.04-.25-.74-.61-1.03-1.48-.65-1.95s1.29-.35,2.04.25Z"/>
          <path class="cls-10" d="m174.03,248.81c.51-.79,8.13-.39,15.78-1.24,5.32-.59,10.71-2.14,13.2-2.09-.33-.57-.64-1.01-.94-1.26-1.28-1.11-7.9,1.06-14.41,1.78-7.65.85-15.27.46-15.78,1.24-.81,1.26-1.91,3.14-3.1,5.38,2.43-1.32,4.42-2.54,5.25-3.81Z"/>
          <path class="cls-7" d="m205.68,249.94c.05.34-.12.65-.37.68l-9.58,1.63c-.25.04-.5-.21-.55-.55l-.23-1.54c-.05-.34.12-.65.37-.68l9.58-1.63c.25-.04.5.21.55.55l.23,1.54Z"/>
          <path class="cls-7" d="m207.73,255.38c.08.33-.06.65-.31.71l-10.72,2.85c-.25.06-.52-.16-.6-.5l-.36-1.51c-.08-.33.06-.65.31-.71l10.72-2.85c.25-.06.52.16.6.5l.36,1.51Z"/>
          <path class="cls-7" d="m209.84,262.09c.15.31.07.65-.16.76l-9.92,4.96c-.23.11-.54-.06-.69-.37l-.66-1.41c-.15-.31-.07-.65.16-.76l9.92-4.96c.23-.11.54.06.69.37l.66,1.41Z"/>
          <path class="cls-7" d="m211.41,266.76c.18.29.15.64-.07.77l-6.12,3.91c-.22.14-.54.01-.73-.28l-.82-1.32c-.18-.29-.15-.64.07-.77l6.12-3.91c.22-.14.54-.01.73.28l.82,1.32Z"/>
          <path class="cls-7" d="m214.33,269.56c.25.23.32.58.14.77l-4.32,4.84c-.17.19-.52.15-.77-.08l-1.14-1.05c-.25-.23-.32-.58-.14-.76l4.32-4.84c.17-.19.52-.15.77.08l1.14,1.05Z"/>
          <path class="cls-7" d="m217.78,272.43c.27.21.36.55.21.75l-3.88,5.2c-.16.2-.51.2-.78-.01l-1.23-.95c-.27-.21-.36-.55-.21-.75l3.88-5.2c.16-.2.51-.2.78.01l1.23.95Z"/>
          <path class="cls-11" d="m218.26,279.69c.85.45,1.31,1.24,1.03,1.77-.28.53-1.2.61-2.04.16-.85-.45-1.31-1.24-1.03-1.77s1.2-.61,2.04-.16Z"/>
          <path class="cls-7" d="m221.9,275.09c.29.18.41.51.27.73l-3.39,5.53c-.14.22-.49.24-.78.06l-1.31-.83c-.29-.18-.41-.51-.27-.73l3.39-5.53c.14-.22.49-.24.78-.06l1.31.83Z"/>
        </g>
        <g>
          <path class="cls-6" d="m195.64,276.8c.01-.09.03-.18.04-.28.03-.35-.08-.65-.39-.85-.32-.21-.65-.14-.92.04-.38.25-.69.59-.76,1.08-.06.4.21.77.6.82.12.01.27-.05.36-.12.14-.11.25-.27.39-.43l.37.32c-.06.05-.13.09-.18.15-.18.2-.31.45-.66.38-.43-.08-.81-.24-1.04-.64-.36-.61-.19-1.28.46-1.81.41-.34,1.12-.3,1.57.09.29.26.44.59.41.98,0,.11-.1.21-.15.31-.03-.02-.07-.04-.1-.05Z"/>
          <path class="cls-6" d="m200.71,282.74c-.16.07-.31.19-.47.2-.54.03-1.06-.35-1.27-.91-.18-.47.02-1.04.53-1.48.38-.32.93-.38,1.38-.14.35.19.55.52.68.88.08.22.04.44-.27.6.01-.12.02-.2.03-.29.04-.37-.05-.69-.38-.9-.33-.2-.67-.17-.94.07-.26.23-.52.5-.67.8-.28.57.22,1.18.87,1.13.16-.01.32-.05.48-.07.01.04.03.07.04.11Z"/>
          <path class="cls-6" d="m198.74,281c-.07.25-.22.31-.44.3-.6-.04-1.11-.45-1.22-1-.12-.58.23-1.25.79-1.54.82-.43,1.69.19,1.83,1.03.03.15-.15.32-.23.49-.02-.01-.05-.03-.07-.04.01-.17.05-.35.04-.52-.01-.48-.45-.84-.92-.77-.53.08-1.07.68-1.12,1.22-.04.56.34.94.9.9.13-.01.27-.04.42-.06Z"/>
          <path class="cls-6" d="m198.03,277.94c-.41.47-.74.85-1.08,1.22-.4.44-.88.49-1.27.16-.45-.38-.5-.89-.13-1.36.16-.21.34-.4.52-.59.17-.19.34-.39.52-.59l.29.25c-.34.39-.69.78-1.03,1.17-.31.36-.29.68.03.97.29.26.67.22.97-.11.31-.34.6-.7.91-1.04.04-.05.14-.04.28-.08Z"/>
          <path class="cls-6" d="m202.12,281.64l.33.29-1.61,1.84-.33-.29,1.61-1.84Z"/>
        </g>
        <g>
          <path class="cls-17" d="m165,273.5c-.01-.09-.02-.19-.03-.28-.06-.35-.24-.6-.59-.72-.36-.12-.67.03-.88.27-.3.34-.52.75-.46,1.23.05.4.4.7.79.65.12-.01.25-.11.32-.21.11-.15.17-.33.27-.52l.44.22c-.04.06-.1.12-.13.19-.12.24-.19.51-.54.54-.44.03-.84-.03-1.17-.35-.5-.5-.51-1.19-.02-1.86.31-.43,1.01-.58,1.54-.31.34.17.57.46.65.84.02.1-.04.23-.07.34-.04,0-.07-.02-.11-.03Z"/>
          <path class="cls-17" d="m171.4,277.96c-.13.11-.25.26-.41.31-.52.17-1.11-.07-1.46-.56-.29-.41-.24-1.02.14-1.57.28-.41.81-.61,1.3-.48.39.1.66.36.88.68.13.19.15.42-.11.65-.02-.12-.03-.2-.04-.29-.06-.37-.22-.65-.6-.77-.37-.11-.69,0-.89.31-.19.29-.38.61-.45.95-.13.62.51,1.09,1.13.87.15-.05.3-.12.44-.19.02.03.04.06.06.09Z"/>
          <path class="cls-17" d="m169.06,276.78c0,.26-.13.36-.35.4-.59.11-1.19-.16-1.44-.66-.27-.53-.09-1.27.37-1.69.68-.63,1.68-.24,2.04.53.06.13-.06.35-.1.53-.03,0-.05-.01-.08-.02-.03-.17-.04-.35-.09-.51-.14-.46-.65-.7-1.08-.51-.49.21-.87.93-.77,1.46.1.55.57.83,1.1.64.13-.05.25-.1.4-.17Z"/>
          <path class="cls-17" d="m167.6,274c-.28.56-.5,1.01-.73,1.45-.27.52-.73.7-1.19.48-.53-.26-.71-.73-.47-1.28.1-.24.23-.47.35-.7.12-.23.23-.46.35-.7l.34.17c-.23.47-.47.93-.7,1.4-.21.42-.11.74.27.93.35.18.71.04.91-.35.21-.41.41-.83.62-1.24.03-.06.13-.08.25-.15Z"/>
          <path class="cls-17" d="m172.49,276.54l.39.2c-.37.74-.73,1.45-1.1,2.19l-.39-.2c.37-.73.72-1.44,1.1-2.19Z"/>
        </g>
      </g>
      <g>
        <g>
          <g>
            <path class="cls-10" d="m248.13,244.4c-2.93,3.67-9.32,13.3-12.43,21.27-3.1,7.97-5.61,12.47,1.74,15.71,7.36,3.25,39.79,16.47,45.93,17.98,6.14,1.5,22.53,4.13,24.22-1,1.69-5.14.15-9.05-3.11-10.79-3.26-1.75-6.66-6.4-9.99-9.48s-11.9-10.11-12.18-11.89c-.28-1.77-2.81-19.23-5.22-21.78-1.11-1.17-7.6.25-13.86.32-7.35.08-14.55-1.03-15.11-.33Z"/>
            <path class="cls-20" d="m304.49,287.56c-2.3-1.23-3.21-3.17-6.65-5.99-.68.11-.99-.28-1.72-.83-1.51-1.12-2.89-3.05-4.89-3.24-1.31-.13-2.51.47-3.8.17-1.57-.36-3.04-2-4.13-3.09-1.28-1.29-2.44-2.69-3.55-4.12-1.25-1.62-2.49-3.69-4.09-4.97-2-1.6-5.69-2.03-8.03-1.65-.33.05-.48-.44-.21-.61,1.7-1.07,4.9-1.56,5.6-3.54.59-1.66.51-3.42.24-5.14-.54-3.42-.9-7.05-2.03-10.35-2.38.22-5.2.51-7.98.55-7.35.08-14.55-1.03-15.11-.33-2.93,3.67-9.32,13.3-12.43,21.27-3.1,7.97-5.42,11.76,1.94,15.01,7.36,3.25,39.58,16.71,45.71,18.21,6.14,1.5,22.55,4.6,24.24-.53,1.69-5.14.15-9.05-3.11-10.79Z"/>
            <path class="cls-7" d="m296.11,280.74c-.46-.34-.9-.75-1.36-1.17-.37.26-.73.52-1.08.8-.78.63-2.03,1.58-2.12,2.69-.14,1.65,2.09,2.63,3.33,3.15,2.39,1,1.25.56,3.73,1.29,1.4.41,2.93.96,4.42.86.7-.05,1.31-.25,1.85-.57-.13-.08-.28-.12-.39-.23-2.07-2.07-3.21-3.17-6.65-5.99-.68.11-.99-.28-1.72-.83Z"/>
            <path class="cls-18" d="m243.47,252.56c1.07,1.92,3.37,3.81,4.89,5.39,3,3.13,6.74,5.07,11.06,5.89,3.73.71,6.41.61,10.01-.24,1.49-.99,2.97-2.21,3.58-3.93.59-1.66.51-3.42.24-5.14-.54-3.42-.9-7.05-2.03-10.35-2.38.22-5.2.51-7.98.55-7.35.08-14.55-1.03-15.11-.33-1.25,1.56-3.12,4.21-5.1,7.34.14.27.29.54.44.81Z"/>
            <path class="cls-9" d="m260.89,262.94c-4.75-.79-8.86-3.19-12.24-6.3-1.72-1.57-3.3-3.31-4.54-5.22-.15-.23-.29-.47-.44-.7-.21.33-.43.67-.65,1.01.14.27.29.54.44.81,1.07,1.92,2.47,3.67,3.99,5.26,3,3.13,6.77,5.18,11,6.39,4.84,1.39,9.74,0,13.35-.85.42-.28-1.54-.32-1.15-.64-3.19.56-6.43.79-9.76.23Z"/>
            <path class="cls-18" d="m305.5,288.23c-.63.44-1.34.74-2.16.79-1.88.12-3.63-.54-5.42-1.01-2.54-.67-1.5-.28-3.88-1.44-2.13-1.05-4.34-2.93-2.33-5.25.74-.85,1.63-1.53,2.56-2.17-.9-.8-1.87-1.52-3.05-1.63-1.18-.12-2.27.35-3.41.23-6.65,4.16-13.04,8.62-19.12,13.7-.58.48-1.16.95-1.75,1.42,7.46,2.97,13.99,5.45,16.43,6.05,6.14,1.5,22.55,4.6,24.24-.53,1.51-4.57.45-8.16-2.09-10.13Z"/>
            <path class="cls-9" d="m271.54,290.47c5.66-4.72,11.58-8.9,17.74-12.81-.49.07-.97.13-1.47.08-6.65,4.16-13.04,8.62-19.12,13.7-.58.48-1.16.95-1.75,1.42.48.19.96.38,1.44.57,1.51-1.42,2.91-2.73,3.18-2.95Z"/>
            <path class="cls-18" d="m264.83,286.43c.3-3.64-.43-6.79-3.02-9.49-2.1-2.19-4.61-3.9-7.15-5.53-3.93-2.52-8.35-5.05-11.45-8.6-1.76-2.02-2.69-4.24-2.88-6.6-1.78,3.11-3.45,6.41-4.64,9.46-3.1,7.97-5.42,11.76,1.94,15.01,4.08,1.8,15.83,6.76,26.53,11.06.27-1.77.52-3.54.67-5.31Z"/>
            <path class="cls-9" d="m242.49,263.78c3.15,3.67,7.64,6.27,11.64,8.85,2.59,1.68,5.14,3.43,7.28,5.69,2.63,2.78,3.35,6.05,3.02,9.83-.1,1.18-.25,2.35-.42,3.52.05.02.1.04.15.06.27-1.77.52-3.54.67-5.31.3-3.64-.43-6.79-3.02-9.49-2.1-2.19-4.61-3.9-7.15-5.53-3.93-2.52-8.35-5.05-11.45-8.6-1.76-2.02-2.69-4.24-2.88-6.6-.23.41-.46.81-.69,1.23.26,2.27,1.18,4.4,2.84,6.34Z"/>
            <path class="cls-27" d="m308.24,293.43c-5.44,2.3-17.67-.3-23.05-1.71-6.27-1.65-39.24-15.93-46.76-19.37-2.08-.95-3.4-1.93-4.17-3.01-2.15,5.55-2.73,8.64,3.39,11.34,7.36,3.25,39.58,16.71,45.71,18.21,6.14,1.5,22.55,4.6,24.24-.53.6-1.81.78-3.46.64-4.92Z"/>
            <path class="cls-10" d="m282.88,296.85c.29-.46.57-.91.86-1.37,0,0,0,0,0,0-6.21-1.76-38.86-16.66-46.32-20.24-2.06-.99-3.37-1.99-4.13-3.09-.23.6-.46,1.93-.46,1.93.78.96,1.84,1.64,3.67,2.52,7.45,3.58,40.1,18.48,46.32,20.24.02,0,.05.01.07.02Z"/>
            <path class="cls-10" d="m281.58,292.93c-2.71-.02-4.32,1.66-5.85,3.54,3.46,1.3,6.18,2.25,7.56,2.59,6.14,1.5,22.55,4.6,24.24-.53.47-1.42.68-2.73.68-3.94-8.82,3.47-24.85-1.64-26.64-1.66Z"/>
            <path class="cls-7" d="m274.05,269.17c-3.54,1.53-8.57,2.83-10.88,3.56-2.31.73,7.01,12.62,10.24,10.66,3.23-1.96,8.22-6.57,8.22-6.57l-7.57-7.64Z"/>
            <path class="cls-7" d="m263.77,247.2c-3.98-.42-12.17-1.15-13.55.59-1.39,1.74-1.42,7.57,3.43,9.05,4.86,1.48,13.86,1.03,13.63-1.61-.24-2.63-.62-7.72-3.51-8.03Z"/>
            <path class="cls-11" d="m271.58,249.98c.01,1.17-.58,2.13-1.31,2.13-.74,0-1.34-.94-1.36-2.11-.01-1.17.58-2.13,1.31-2.13.74,0,1.34.94,1.36,2.11Z"/>
            <path class="cls-11" d="m271.95,256.3c.01,1.17-.58,2.13-1.31,2.13-.74,0-1.34-.94-1.36-2.11s.58-2.13,1.31-2.13c.74,0,1.34.94,1.36,2.11Z"/>
            <path class="cls-11" d="m273.18,265.06c.29.87.08,1.72-.46,1.9-.55.18-1.23-.37-1.52-1.24-.29-.87-.08-1.72.46-1.9.55-.18,1.23.37,1.52,1.24Z"/>
            <path class="cls-11" d="m277.61,268.74c.54.74.59,1.62.12,1.96-.47.34-1.28,0-1.82-.73-.54-.74-.59-1.62-.12-1.96.47-.34,1.28,0,1.82.73Z"/>
            <path class="cls-11" d="m281.75,272.92c.65.65.84,1.5.43,1.91-.41.41-1.26.21-1.91-.44-.65-.65-.84-1.5-.43-1.91.41-.41,1.26-.21,1.91.44Z"/>
            <path class="cls-11" d="m285.01,276.34c.65.65.84,1.5.43,1.91-.41.41-1.26.21-1.91-.44-.65-.65-.84-1.5-.43-1.91s1.26-.21,1.91.44Z"/>
            <path class="cls-10" d="m250.02,246.09c.56-.7,7.76.41,15.11.33,5.11-.06,10.38-1.01,12.74-.72-.26-.57-.51-1.02-.77-1.29-1.11-1.17-7.6.25-13.86.32-7.35.08-14.55-1.03-15.11-.33-.89,1.12-2.11,2.8-3.46,4.82,2.43-1.02,4.44-1.99,5.35-3.12Z"/>
            <path class="cls-7" d="m279.98,250.19c.02.33-.17.6-.42.61l-9.26.63c-.25.01-.46-.24-.47-.57l-.07-1.48c-.02-.33.17-.6.42-.61l9.26-.63c.25-.01.46.24.47.57l.07,1.48Z"/>
            <path class="cls-7" d="m281.4,255.56c.04.33-.12.62-.36.65l-10.45,1.68c-.24.03-.48-.2-.52-.53l-.2-1.47c-.04-.33.12-.62.36-.65l10.45-1.68c.24-.03.48.2.52.53l.2,1.47Z"/>
            <path class="cls-7" d="m282.77,262.14c.11.31,0,.63-.22.71l-9.9,3.76c-.23.08-.51-.1-.62-.41l-.49-1.4c-.11-.31,0-.63.22-.71l9.9-3.76c.23-.08.51.1.62.41l.49,1.4Z"/>
            <path class="cls-7" d="m283.81,266.72c.14.29.08.62-.14.73l-6.19,3.13c-.22.11-.52-.04-.66-.34l-.66-1.33c-.14-.29-.08-.62.14-.73l6.19-3.13c.22-.11.52.04.66.34l.66,1.33Z"/>
            <path class="cls-7" d="m286.32,269.66c.22.25.24.58.06.74l-4.56,4.19c-.18.16-.51.1-.73-.15l-.99-1.11c-.22-.25-.24-.58-.06-.74l4.56-4.19c.18-.16.51-.1.73.15l.99,1.11Z"/>
            <path class="cls-7" d="m289.32,272.72c.24.23.29.55.12.73l-4.18,4.57c-.17.18-.5.14-.74-.08l-1.08-1.02c-.24-.23-.29-.55-.12-.73l4.18-4.57c.17-.18.5-.14.74.08l1.08,1.02Z"/>
            <path class="cls-11" d="m289.09,279.66c.76.5,1.12,1.3.81,1.78-.32.48-1.19.46-1.96-.04-.76-.5-1.12-1.3-.81-1.78s1.19-.46,1.96.04Z"/>
            <path class="cls-7" d="m292.98,275.64c.26.2.34.52.19.72l-3.75,4.93c-.15.19-.48.19-.74-.02l-1.17-.92c-.26-.2-.34-.52-.19-.72l3.75-4.93c.15-.19.48-.19.74.02l1.17.92Z"/>
          </g>
          <g>
            <path class="cls-6" d="m267.87,274.75c.02-.09.05-.17.06-.26.06-.33-.02-.62-.29-.84-.28-.23-.61-.19-.88-.05-.38.2-.71.5-.82.95-.09.37.12.75.49.84.11.03.26-.02.35-.08.15-.1.27-.24.42-.38l.32.34c-.06.04-.13.07-.18.12-.19.17-.34.4-.66.3-.4-.12-.75-.31-.93-.7-.28-.61-.06-1.23.61-1.67.42-.28,1.1-.18,1.48.24.25.27.36.6.3.97-.02.1-.12.19-.18.28-.03-.02-.06-.04-.09-.06Z"/>
            <path class="cls-6" d="m272.11,280.88c-.16.05-.31.15-.47.14-.52-.02-.97-.44-1.12-.98-.13-.47.12-.99.64-1.36.39-.27.92-.27,1.32,0,.32.22.47.54.56.9.05.22,0,.42-.31.54.02-.11.04-.19.06-.27.07-.35.02-.66-.28-.89-.29-.22-.62-.23-.9-.02-.27.2-.54.42-.71.7-.32.51.09,1.15.72,1.15.15,0,.31-.01.46-.02,0,.04.02.07.03.11Z"/>
            <path class="cls-6" d="m270.41,279.04c-.09.24-.24.28-.44.24-.56-.1-1.01-.54-1.07-1.07-.06-.56.34-1.16.9-1.39.82-.33,1.59.35,1.64,1.15.01.14-.17.29-.26.44-.02-.01-.04-.03-.07-.04.03-.16.08-.32.09-.49.03-.46-.35-.84-.8-.82-.51.03-1.08.54-1.18,1.05-.1.53.24.93.77.94.13,0,.26,0,.41-.02Z"/>
            <path class="cls-6" d="m270.03,276.07c-.44.41-.78.74-1.14,1.06-.42.38-.89.38-1.23.03-.39-.41-.39-.89,0-1.31.17-.18.37-.34.55-.51.18-.17.36-.34.55-.51l.25.27c-.37.34-.73.67-1.09,1.02-.33.31-.34.62-.07.92.25.27.62.28.93,0,.33-.3.64-.61.97-.9.05-.04.14-.03.27-.05Z"/>
            <path class="cls-6" d="m273.57,279.97l.28.31-1.71,1.59-.28-.31,1.71-1.59Z"/>
          </g>
        </g>
        <path class="cls-17" d="m238.88,268.66c0-.08,0-.17-.02-.25-.04-.31-.19-.54-.49-.66-.31-.13-.59,0-.79.2-.28.28-.49.64-.46,1.07.02.36.32.63.67.61.1,0,.22-.09.29-.17.1-.13.17-.28.26-.45l.38.22c-.04.05-.09.1-.13.16-.12.21-.19.44-.5.45-.39,0-.74-.06-1.02-.36-.42-.46-.39-1.07.07-1.65.29-.36.92-.46,1.38-.2.3.17.49.43.53.78.01.09-.05.2-.08.3-.03,0-.06-.02-.1-.03Z"/>
        <path class="cls-17" d="m244.33,272.9c-.12.09-.24.22-.37.26-.47.12-.98-.12-1.26-.56-.24-.38-.17-.91.19-1.38.27-.35.74-.5,1.17-.37.34.1.57.35.74.64.11.18.11.38-.12.57-.01-.1-.02-.18-.02-.26-.03-.33-.17-.59-.49-.71-.32-.12-.61-.03-.8.23-.18.25-.36.52-.44.82-.14.54.4.99.96.82.14-.04.27-.1.4-.15.02.03.04.06.05.09Z"/>
        <path class="cls-17" d="m242.31,271.74c-.01.23-.13.31-.33.34-.53.07-1.04-.19-1.24-.65-.21-.48-.02-1.12.41-1.48.63-.52,1.5-.13,1.77.56.05.12-.07.31-.11.46-.02,0-.05-.01-.07-.02-.02-.15-.02-.31-.06-.46-.1-.42-.54-.65-.93-.5-.44.17-.81.78-.75,1.25.06.49.47.76.94.61.11-.03.22-.08.36-.13Z"/>
        <path class="cls-17" d="m241.15,269.22c-.27.48-.49.87-.71,1.25-.26.45-.68.59-1.07.37-.46-.25-.6-.68-.36-1.15.1-.21.23-.4.34-.61.11-.2.23-.4.34-.6l.3.17c-.23.4-.46.8-.68,1.2-.2.37-.13.65.2.83.3.17.62.07.82-.27.21-.35.4-.72.6-1.07.03-.05.12-.06.22-.12Z"/>
      </g>
      <path class="cls-17" d="m245.36,271.69l.34.19-1.07,1.88-.34-.19,1.07-1.88Z"/>
      <g>
        <path class="cls-6" d="m276.58,190.98c.02-.09.05-.17.06-.26.06-.33-.02-.62-.29-.84-.28-.23-.61-.19-.88-.05-.38.2-.71.5-.82.95-.09.37.12.75.49.84.11.03.26-.02.35-.08.15-.1.27-.24.42-.38l.32.34c-.06.04-.13.07-.18.12-.19.17-.34.4-.66.3-.4-.12-.75-.31-.93-.7-.28-.61-.06-1.23.61-1.67.42-.28,1.1-.18,1.48.24.25.27.36.6.3.97-.02.1-.12.19-.18.28-.03-.02-.06-.04-.09-.06Z"/>
        <path class="cls-6" d="m280.82,197.11c-.16.05-.31.15-.47.14-.52-.02-.97-.44-1.12-.98-.13-.47.12-.99.64-1.36.39-.27.92-.27,1.32,0,.32.22.47.54.56.9.05.22,0,.42-.31.54.02-.11.04-.19.06-.27.07-.35.02-.66-.28-.89-.29-.22-.62-.23-.9-.02-.27.2-.54.42-.71.7-.32.51.09,1.15.72,1.15.15,0,.31-.01.46-.02,0,.04.02.07.03.11Z"/>
        <path class="cls-6" d="m279.12,195.27c-.09.24-.24.28-.44.24-.56-.1-1.01-.54-1.07-1.07-.06-.56.34-1.16.9-1.39.82-.33,1.59.35,1.64,1.15.01.14-.17.29-.26.44-.02-.01-.04-.03-.07-.04.03-.16.08-.32.09-.49.03-.46-.35-.84-.8-.82-.51.03-1.08.54-1.18,1.05-.1.53.24.93.77.94.13,0,.26,0,.41-.02Z"/>
        <path class="cls-6" d="m278.74,192.3c-.44.41-.78.74-1.14,1.06-.42.38-.89.38-1.23.03-.39-.41-.39-.89,0-1.31.17-.18.37-.34.55-.51.18-.17.36-.34.55-.51l.25.27c-.37.34-.73.67-1.09,1.02-.33.31-.34.62-.07.92.25.27.62.28.93,0,.33-.3.64-.61.97-.9.05-.04.14-.03.27-.05Z"/>
        <path class="cls-6" d="m282.27,196.2l.28.31-1.71,1.59-.28-.31c.57-.53,1.13-1.05,1.71-1.59Z"/>
      </g>
      <g>
        <g class="cls-1">
          <path class="cls-6" d="m306.88,26.16l2,1.69s-.02-.02-.03-.03l-2-1.69s.02.02.03.03Z"/>
          <path class="cls-6" d="m334.64,16.08l.19-2.18m-79.24,41.98l-3.93-3.86c-6.55-6.44-2.34-20.08-2.04-21.04l3.88,3.85c-.29.96-4.44,14.63,2.08,21.05h0Z"/>
          <path class="cls-6" d="m303.42,46.48l-3.63-3.66c-3.99-4.02-4.56-11.24-4.43-15.98,0-.05-.09-.86-.51-1.28l3.62,3.66c.42.42.5,1.23.51,1.28-.11,4.74.46,11.96,4.45,15.97Z"/>
          <path class="cls-6" d="m315.51,45.91c-4.03.85-7.43-.37-9.77-2.74l-3.61-3.65c2.35,2.37,5.76,3.6,9.82,2.77,11.46-2.35,19.15-18.98,13.45-24.84l3.43,3.53c5.69,5.86-1.94,22.52-13.32,24.92h0Z"/>
          <path class="cls-6" d="m291.57,28.31l-3.65-3.69c1.57-1.47,7.5-2.65,8.73-1.55l3.6,3.65c-1.24-1.11-7.15.14-8.68,1.59Z"/>
          <path class="cls-6" d="m269.75,55.54c-4.39.93-7.94-.25-10.33-2.61l-3.9-3.84c2.4,2.37,5.96,3.56,10.39,2.65,12.5-2.56,22.6-20.1,16.28-26.46l3.69,3.71c6.31,6.35-3.72,23.93-16.13,26.55Z"/>
          <path class="cls-6" d="m287.31,23.95l3.66,3.69c-1.61-1.63-6.44-5.49-15.07-3.99l-3.73-3.75c8.68-1.47,13.53,2.41,15.14,4.05h0Z"/>
          <path class="cls-6" d="m336.37,15.48l-.29,3.48-1.6,1.08c.08,1.13,1.53,22.81-18.41,28.51-12.05,3.45-17.41-4.45-17.09-18.05,0-.07-.16-1.4-.97-1.52-.81-.12-3.69.41-4.59.85-.89.44-1.36,1.9-1.39,1.97-2.69,13.11-9.91,24.97-23.61,26.95-23.2,3.37-15.32-22.6-14.92-23.93l-1.75-.56.59-3.91c6.87-1.53,13.72-5,23.56-6.72,10.52-1.83,15.41,4.34,15.67,4.66,1.55-1.47,7.45-2.68,8.68-1.59,3.79-4.81,10.37-9.32,17.06-10.27,9.85-1.4,13.42-.26,19.06-.97h0Zm-66.62,40.06c9.15-1.93,17.06-12.01,18-19.78.93-7.68-5.27-10.47-14.17-8.89-9.1,1.61-16.27,7.04-17.43,15.05-1.18,8.11,4.26,15.59,13.61,13.62m45.76-9.64c14.72-3.1,23.84-30.71,2.66-26.94-8.15,1.45-14.93,6.48-15.76,14-.84,7.61,4.74,14.71,13.1,12.95"/>
          <path class="cls-6" d="m300.25,26.72l-3.6-3.66c3.82-4.79,10.45-9.27,17.18-10.19,9.91-1.36,13.49-.2,19.17-.89l3.38,3.5c-5.64.72-9.21-.43-19.06.97-6.76.96-13.32,5.53-17.06,10.27Z"/>
          <path class="cls-6" d="m251.76,34.28l-3.89-3.86.6-3.9,3.88,3.85-.59,3.91Z"/>
          <path class="cls-6" d="m252.34,30.37l-3.88-3.85c6.91-1.5,13.81-4.94,23.71-6.62l3.73,3.75c-10.03,1.75-16.57,5.16-23.56,6.72Z"/>
          <path class="cls-6" d="m273.58,26.87c-8.26,1.48-16.18,6.45-17.43,15.05-.52,3.56.25,7,2.07,9.59,3.39,4.8,9.03,5.05,13.62,3.44,8.19-2.89,15.04-11.96,15.91-19.2.99-8.2-6.07-10.34-14.18-8.89Zm44.59-7.91c-7.37,1.3-14.87,5.92-15.76,14-.87,7.85,4.94,14.67,13.1,12.95,7.87-1.61,14.55-10.61,15.22-18.26.68-7.79-5.32-9.97-12.56-8.69Z"/>
          <g>
            <path class="cls-6" d="m329.64,22.02l-6.63,19.96c-1.21,1.07-2.55,1.97-4.01,2.7l8.33-24.83c.96.55,1.73,1.27,2.3,2.18Zm-3.98-2.9l-8.92,26.45c-3.3,1.09-7.54.88-10.76-2.17l8.18-23.41c3.09-1.08,7.88-2,11.5-.88Z"/>
            <path class="cls-6" d="m285.27,28.45l-9.21,24.42c-1.31.85-2.72,1.55-4.22,2.08l10.62-27.93c1.09.33,2.03.81,2.81,1.42Zm-4.77-1.86l-11.11,29.01c-5.04.95-8.91-.9-11.17-4.09l9.02-22.76c3.68-1.6,9.02-2.75,13.26-2.16Z"/>
          </g>
        </g>
        <g>
          <path class="cls-12" d="m308.57,23.03l2,1.69s-.02-.02-.03-.03l-2-1.69s.02.02.03.03Z"/>
          <path class="cls-12" d="m336.33,12.95l.19-2.18m-79.24,41.98l-3.93-3.86c-6.55-6.44-2.34-20.08-2.04-21.04l3.88,3.85c-.29.96-4.44,14.63,2.08,21.05h0Z"/>
          <path class="cls-8" d="m305.12,43.34l-3.63-3.66c-3.99-4.02-4.56-11.24-4.43-15.98,0-.05-.09-.86-.51-1.28l3.62,3.66c.42.42.5,1.23.51,1.28-.11,4.74.46,11.96,4.45,15.97Z"/>
          <path class="cls-12" d="m317.21,42.77c-4.03.85-7.43-.37-9.77-2.74l-3.61-3.65c2.35,2.37,5.76,3.6,9.82,2.77,11.46-2.35,19.15-18.98,13.45-24.84l3.43,3.53c5.69,5.86-1.94,22.52-13.32,24.92h0Z"/>
          <path class="cls-13" d="m293.27,25.17l-3.65-3.69c1.57-1.47,7.5-2.65,8.73-1.55l3.6,3.65c-1.24-1.11-7.15.14-8.68,1.59Z"/>
          <path class="cls-12" d="m271.45,52.41c-4.39.93-7.94-.25-10.33-2.61l-3.9-3.84c2.4,2.37,5.96,3.56,10.39,2.65,12.5-2.56,22.6-20.1,16.28-26.46l3.69,3.71c6.31,6.35-3.72,23.93-16.13,26.55Z"/>
          <path class="cls-12" d="m289.01,20.81l3.66,3.69c-1.61-1.63-6.44-5.49-15.07-3.99l-3.73-3.75c8.68-1.47,13.53,2.41,15.14,4.05h0Z"/>
          <path class="cls-8" d="m338.07,12.34l-.29,3.48-1.6,1.08c.08,1.13,1.53,22.81-18.41,28.51-12.05,3.45-17.41-4.45-17.09-18.05,0-.07-.16-1.4-.97-1.52-.81-.12-3.69.41-4.59.85-.89.44-1.36,1.9-1.39,1.97-2.69,13.11-9.91,24.97-23.61,26.95-23.2,3.37-15.32-22.6-14.92-23.93l-1.75-.56.59-3.91c6.87-1.53,13.72-5,23.56-6.72,10.52-1.83,15.41,4.34,15.67,4.66,1.55-1.47,7.45-2.68,8.68-1.59,3.79-4.81,10.37-9.32,17.06-10.27,9.85-1.4,13.42-.26,19.06-.97h0Zm-66.62,40.06c9.15-1.93,17.06-12.01,18-19.78.93-7.68-5.27-10.47-14.17-8.89-9.1,1.61-16.27,7.04-17.43,15.05-1.18,8.11,4.26,15.59,13.61,13.62m45.76-9.64c14.72-3.1,23.84-30.71,2.66-26.94-8.15,1.45-14.93,6.48-15.76,14-.84,7.61,4.74,14.71,13.1,12.95"/>
          <path class="cls-12" d="m301.95,23.59l-3.6-3.66c3.82-4.79,10.45-9.27,17.18-10.19,9.91-1.36,13.49-.2,19.17-.89l3.38,3.5c-5.64.72-9.21-.43-19.06.97-6.76.96-13.32,5.53-17.06,10.27Z"/>
          <path class="cls-13" d="m253.45,31.14l-3.89-3.86.6-3.9,3.88,3.85-.59,3.91Z"/>
          <path class="cls-12" d="m254.04,27.23l-3.88-3.85c6.91-1.5,13.81-4.94,23.71-6.62l3.73,3.75c-10.03,1.75-16.57,5.16-23.56,6.72Z"/>
          <path class="cls-6" d="m275.28,23.73c-8.26,1.48-16.18,6.45-17.43,15.05-.52,3.56.25,7,2.07,9.59,3.39,4.8,9.03,5.05,13.62,3.44,8.19-2.89,15.04-11.96,15.91-19.2.99-8.2-6.07-10.34-14.18-8.89Zm44.59-7.91c-7.37,1.3-14.87,5.92-15.76,14-.87,7.85,4.94,14.67,13.1,12.95,7.87-1.61,14.55-10.61,15.22-18.26.68-7.79-5.32-9.97-12.56-8.69Z"/>
          <g>
            <path class="cls-28" d="m331.33,18.88l-6.63,19.96c-1.21,1.07-2.55,1.97-4.01,2.7l8.33-24.83c.96.55,1.73,1.27,2.3,2.18Zm-3.98-2.9l-8.92,26.45c-3.3,1.09-7.54.88-10.76-2.17l8.18-23.41c3.09-1.08,7.88-2,11.5-.88Z"/>
            <path class="cls-28" d="m286.97,25.31l-9.21,24.42c-1.31.85-2.72,1.55-4.22,2.08l10.62-27.93c1.09.33,2.03.81,2.81,1.42Zm-4.77-1.86l-11.11,29.01c-5.04.95-8.91-.9-11.17-4.09l9.02-22.76c3.68-1.6,9.02-2.75,13.26-2.16Z"/>
          </g>
        </g>
      </g>
    </g>
  </g>
</svg>