<?xml version="1.0" encoding="UTF-8"?>
<svg id="Layer_2" data-name="Layer 2" xmlns="http://www.w3.org/2000/svg" viewBox="0 0 373.98 293.19">
  <defs>
    <style>
      .cls-1 {
        opacity: .1;
      }

      .cls-2 {
        fill: #fcc900;
      }

      .cls-2, .cls-3, .cls-4, .cls-5 {
        fill-rule: evenodd;
      }

      .cls-2, .cls-3, .cls-4, .cls-5, .cls-6, .cls-7, .cls-8, .cls-9, .cls-10, .cls-11, .cls-12, .cls-13, .cls-14, .cls-15, .cls-16, .cls-17, .cls-18, .cls-19, .cls-20, .cls-21, .cls-22, .cls-23, .cls-24, .cls-25, .cls-26, .cls-27, .cls-28, .cls-29, .cls-30, .cls-31 {
        stroke-width: 0px;
      }

      .cls-3 {
        fill: #e9b702;
      }

      .cls-4 {
        fill: #f4c006;
      }

      .cls-5 {
        fill: #f8df2e;
      }

      .cls-7 {
        fill: #f9f5f5;
      }

      .cls-8 {
        fill: #4f91ff;
      }

      .cls-9 {
        fill: #53beed;
      }

      .cls-10 {
        fill: #2c3b53;
      }

      .cls-11 {
        fill: #474646;
      }

      .cls-12 {
        fill: #457aef;
      }

      .cls-13 {
        fill: #3a63df;
      }

      .cls-14 {
        fill: #3ba2ff;
      }

      .cls-15 {
        fill: #1a8ce4;
      }

      .cls-16 {
        fill: #1a3a9e;
      }

      .cls-17 {
        fill: #197bb5;
      }

      .cls-18 {
        fill: #3599d7;
      }

      .cls-19 {
        fill: #10489c;
      }

      .cls-20 {
        fill: #415371;
      }

      .cls-21 {
        fill: #113e56;
      }

      .cls-22 {
        fill: #20719e;
      }

      .cls-23 {
        fill: #162c70;
      }

      .cls-24 {
        fill: #165070;
      }

      .cls-25 {
        fill: #130073;
      }

      .cls-26 {
        fill: #112256;
      }

      .cls-27 {
        fill: #e2dfde;
      }

      .cls-28 {
        fill: #fff;
      }

      .cls-29 {
        fill: #00529a;
      }

      .cls-30 {
        fill: #0069ca;
      }

      .cls-31 {
        fill: #0061b9;
      }
    </style>
  </defs>
  <g id="Layer_1-2" data-name="Layer 1">
    <g>
      <path class="cls-3" d="m318.73,132.58l1.3.34.73-2.72-1.3-.34-.73,2.72Zm-.44,1.09l1.59.43c.55.14,1.1-.18,1.24-.71l.81-3.03c.14-.55-.18-1.1-.71-1.24l-1.61-.43c-.53-.14-1.08.18-1.24.71l-.8,3.03c-.15.53.18,1.1.71,1.24h0Zm2.08-7.24l1.3.36.73-2.74-1.3-.34-.73,2.72Zm-.44,1.09l1.59.43c.55.15,1.1-.18,1.24-.71l.81-3.03c.14-.53-.18-1.08-.71-1.24l-1.61-.43c-.53-.14-1.08.18-1.24.71l-.8,3.04c-.15.53.18,1.08.71,1.22h0Z"/>
      <path class="cls-2" d="m318.23,137.07c.34.08.7-.13.8-.47l.99-3.74c.1-.34-.11-.68-.45-.78-.34-.1-.7.11-.8.45l-.99,3.74c-.1.34.11.7.45.8Zm1.64-6.15c.34.1.7-.11.8-.45l.99-3.74c.1-.34-.11-.7-.45-.8-.34-.08-.7.13-.8.47l-.99,3.74c-.1.34.11.68.45.78Z"/>
      <g>
        <g>
          <path class="cls-29" d="m265.03,256.43c-6.44.46-8.36-.99-11.15-7.49-1.91-4.43,1.2-6.39.58-12.74-.51-5.19-.75-5.18-3.8-11.77-.7-1.51-2.2-4.97-2.96-6.3-2.64-.45-5.24-1.23-7.76-2.29-3.03-1.28-5.93-2.97-8.63-5.01-2.65-1.98-5.09-4.29-7.26-6.87-3.67-4.36-6.59-9.46-8.39-14.99-4.86-14.93-1.76-32.43,7.08-44.24,7.64-10.23,13.64-13.62,19.84-13.7,4.42-.07,8.93,1.51,14.22,3.51,1.56.59,3.19,1.2,4.91,1.83,5.62,2.04,11.59,3.99,16.96,6.68,3.44,1.72,6.65,3.73,9.36,6.27,2.81,2.62,5.09,5.79,6.6,9.76.42,1.14.76,2.58,1,4.26.92,6.42.98,16.49-1.15,26.93-5,24.51-13.04,25.92-15,40.78"/>
          <path class="cls-23" d="m284.09,199.83c-.69,1.38-.26,2.99,1.81,2.7,1.45-.2,3.13-2.03,2.55-3.6-.37-1-1.67-1.11-2.63-.72-.8.33-1.39.95-1.72,1.62Z"/>
          <path class="cls-23" d="m256,208.07c-.18,1.58.74,2.94,2.54,1.86,1.27-.76,2.21-3.15,1.16-4.41-.67-.81-1.9-.41-2.65.34-.62.62-.96,1.44-1.05,2.21Z"/>
          <path class="cls-22" d="m257.88,167.24c1.35.78,2.85.43,2.89-2.2.04-2.77-2.81-6.01-4.48-3.25-1.31,2.16.04,4.55,1.59,5.45Z"/>
          <path class="cls-24" d="m259.58,174.29c.58-.47,1.44-.36,2.37,1,.57.83.66,2.08.16,2.85-.5.76-1.54.91-2.26.27-1.36-1.21-1.16-3.38-.26-4.11Z"/>
          <path class="cls-22" d="m235.6,150.67c-.58-1.31-1.86-1.87-2.68-.08-.58,1.26-.19,3.6,1.14,4.01.85.26,1.56-.69,1.76-1.68.17-.81.05-1.62-.23-2.26Z"/>
          <path class="cls-21" d="m256.78,134.55c-.23,1.33-.33,2.69-.34,4.03-.03,4.03.57,8.12-.01,12.06-.85,5.66-4.09,10.55-4.69,16.26-.7,6.71,2.36,13.55,1.77,20.28-.1,1.17-.54,2.55-1.6,2.67-.78.08-1.48-.58-2.03-1.22-5.75-6.86-6.58-16.75-7.1-25.83-.61-10.52-1.42-21.34-.21-31.75,4.42-.07,8.93,1.51,14.22,3.51Z"/>
          <path class="cls-21" d="m232.03,189.56c-.92,2.42-2.12,4.71-2.84,7.21-1.7,5.94.26,9.81,2.11,14.07-2.65-1.98-5.09-4.29-7.26-6.87.17-3.5.37-6.97.57-10.34.38-6.85.33-21.56,5.8-26.06,8.39-6.9,3.13,17.99,1.62,21.98Z"/>
          <path class="cls-26" d="m278.65,143.06c3.44,1.72,6.65,3.73,9.36,6.27-.89,1.24-1.89,2.4-2.92,3.49-3.12,3.31-6.63,6.36-8.64,10.58-1.39,2.91.2,4.18-1.06,7.16-1.25,2.99-6.04,2.94-8.62,8.35-3.01,1.83-1.15-7.02,1.41-10.78,2.93-4.29,2.38-8.75,5.17-13.14,2.3-3.63,4.09-7.66,5.29-11.92Z"/>
          <path class="cls-26" d="m295.61,163.35c.92,6.42.49,16.4-1.15,26.93-4.03,1.1-6.28-3.68-8.24.25-1.3,2.61-5.89,2.66-7.18,3.07-1.31.41-2.56,3.62-3.46,2.46-.86-1.1-.83-2.76-.28-4.03.56-1.25,1.54-2.2,2.48-3.12,3.05-2.95,6.11-5.99,8.31-9.75,1.04-1.75,1.86-3.64,2.83-5.43,1.36-2.56,3.9-7.09,6.69-10.38Z"/>
          <path class="cls-26" d="m257.83,193.95c-1.01,7.3-9.27,15.36-10.15,24.19-2.64-.45-5.24-1.23-7.76-2.29.21-1.08,2.15-3.04,2.37-4.12.5-2.38,1.05-3.15,1.01-5.62-.08-4.97,5.12-3.33,6.12-3.94,3.21-1.96,2.71-2.88,4.59-6.32,1.73-3.83,3.97-3.04,3.81-1.9Z"/>
        </g>
        <path class="cls-19" d="m277.24,95.02c.98,3.78,20.17,37.44,23.53,41.52,3.36,4.08,38.6-7.27,40.53-9.43,1.39-1.56.12-8.85,3.14-10.5,3.02-1.65,6.66,5.5,7.79,4.45,1.77-1.65-3.07-6.7-3.07-6.7,0,0,4.67,2.98,5.34,1.81,1.18-2.03-5.7-8.51-8.57-9.32-2.87-.81-7.89,2.1-9.03,2.99-1.14.89-2.45,11.28-2.45,11.28,0,0-26.66,3.7-27.42,3.42-.76-.28-12-27.94-13.75-34.2-2.07-7.44-19.9-10.15-16.06,4.69Z"/>
        <path class="cls-30" d="m344.69,29.41s6.35-19.1,15.67-15.72c9.32,3.38,11.18,25.5,4.49,30.01l-20.16-14.29Z"/>
        <path class="cls-30" d="m238.73,39.89s-15.68,2.42-22.3,22.23c-11.64,34.84,28.8,51.61-61.01,77.14-52.53,14.93-60.3-10.63-97.77-11.44-9.56-.21-19.18.68-27.75,2.19-25,4.33-40.65,20.1-21.1,15.5,50.85-11.96,44.17,13.17,82.42,44.47,12.97,10.62,28.55,12.56,38.82,15.21,49.38,12.74,89.94,4.03,124.19-6.43,65.87-20.12,23.88-83.21,38.86-96.87,0,0,64.39-4.52,70.01-18.59,1.08-2.7,1.87-6.43,2.37-10.72,2.13-18.04-.92-45.84-9.96-47.3-11.2-1.8-16.03.95-16.03.95,0,0-6.38-10.92-16.99-10.3-10.62.63-11.57,15.17-15.31,14.66-20.17-2.75-68.45,9.3-68.45,9.3"/>
        <path class="cls-15" d="m363.1,83.29c-6.54,14.63-69.6,18.5-69.6,18.5-17.67,21.77,34.83,74.06-39.59,103.67-33.27,13.24-74.48,12.46-123.86-.27h-.01c98.1-14.85,116.57-84.57,116.49-108.94-.09-24.37,19.13-23.43,19.13-23.43,4.21-.67,10.73-.96,18.28-1.13,4.23-.1,8.78-.17,13.43-.26,1.08-.01,2.17-.03,3.25-.05,4.41-.09,8.85-.21,13.14-.4,10.02-.42,19.19-1.23,25.07-2.96,16.46-4.84,24.22-8.84,26.02-24.32-.5,4.29,5.62,23.12-1.74,39.59Z"/>
        <path class="cls-28" d="m243.85,32.23c1.17,9.02,8.74,15.38,16.91,14.2,8.18-1.18,13.86-9.45,12.69-18.48-1.17-9.02-8.74-15.38-16.91-14.2-8.18,1.18-13.86,9.45-12.69,18.48Z"/>
        <path class="cls-25" d="m247.07,33.02c.92,7.15,6.93,12.19,13.41,11.26,6.48-.94,10.98-7.49,10.06-14.65-.92-7.15-6.93-12.19-13.41-11.26-6.48.94-10.98,7.49-10.06,14.65Z"/>
        <path class="cls-28" d="m262.91,26.08c.33,2.52,2.44,4.3,4.72,3.97s3.87-2.64,3.54-5.16c-.33-2.52-2.44-4.3-4.72-3.97-2.28.33-3.87,2.64-3.54,5.16Z"/>
        <path class="cls-30" d="m265.43,52.1s-5.37-21.63-27.47-11.62c0,0,5.3,21.64,27.47,11.62Z"/>
        <path class="cls-23" d="m256.61,49.26c.76-3.81-11.43-6.47-12.85-2.31-1.42,4.16,11.78,7.66,12.85,2.31Z"/>
        <g>
          <path class="cls-31" d="m178.05,260.11c-6.96-.82-4.86-.38-11.98-1.88-7.11-1.5-10.84-2.01-12.42-9.27-1.08-4.94-1.29-8.42-.41-13.82.84-5.17,1.77-9.61,3.53-15.32.49-1.6.98-3.12,1.49-4.5-2.78-1.25-5.43-2.81-7.93-4.61-3.01-2.19-5.79-4.72-8.27-7.55-2.44-2.76-4.58-5.77-6.36-8.97-3.02-5.41-5.04-11.32-5.75-17.31-1.92-16.18,5.42-32.47,17.71-41.42,10.63-7.75,17.93-9.27,24.7-7.46,4.83,1.27,9.38,4.2,14.69,7.77,1.56,1.05,3.21,2.16,4.93,3.3,5.66,3.72,11.72,7.45,16.96,11.73,3.36,2.74,6.4,5.69,8.78,9.02,2.47,3.44,4.24,7.25,4.98,11.62.2,1.25.25,2.77.12,4.5-.45,6.6-3.17,16.3-7.34,26.17-6.79,16.06-24.66,30.14-35.57,34.32"/>
          <path class="cls-16" d="m202.05,208.37c-1.06,1.15-.96,2.86,1.36,3.21,1.63.24,3.87-1.05,3.59-2.77-.18-1.1-1.57-1.6-2.71-1.51-.94.08-1.73.51-2.24,1.07Z"/>
          <path class="cls-16" d="m169.6,207.94c-.55,1.51.14,3.12,2.35,2.61,1.55-.36,3.12-2.43,2.26-3.99-.55-1-1.97-.98-2.96-.47-.82.42-1.38,1.13-1.64,1.85Z"/>
          <path class="cls-16" d="m180.87,168.31c1.29,1.18,3.01,1.29,3.64-1.29.67-2.71-1.71-6.77-4.14-4.56-1.91,1.73-.99,4.5.5,5.85Z"/>
          <path class="cls-16" d="m181.14,175.77c.74-.29,1.65.09,2.35,1.7.43.99.24,2.25-.47,2.85-.71.6-1.89.42-2.52-.42-1.21-1.61-.5-3.68.64-4.13Z"/>
          <path class="cls-16" d="m160.35,145.22c-.34-1.47-1.6-2.41-2.9-.89-.91,1.06-1.02,3.49.34,4.3.86.52,1.85-.21,2.3-1.11.37-.74.42-1.58.26-2.29Z"/>
          <path class="cls-23" d="m187.07,135.79c-.55,1.23-.97,2.55-1.28,3.86-.94,3.96-1.21,8.17-2.74,11.87-2.21,5.32-6.84,9.15-8.78,14.58-2.28,6.4-.5,14.06-2.66,20.51-.37,1.12-1.16,2.35-2.35,2.14-.87-.15-1.48-1.02-1.93-1.82-4.71-8.51-3.37-18.5-1.9-27.59,1.71-10.54,3.28-21.44,6.95-31.33,4.83,1.27,9.38,4.2,14.69,7.77Z"/>
          <path class="cls-23" d="m147.67,182.43c-1.55,2.11-3.37,3.99-4.72,6.24-3.2,5.33-1.94,9.74-.88,14.5-2.44-2.76-4.58-5.77-6.36-8.97.98-3.39,1.98-6.75,2.95-10.01,1.96-6.63,5.23-21.13,12.21-23.9,10.7-4.24-.65,18.67-3.2,22.14Z"/>
          <path class="cls-23" d="m208.96,150.81c3.36,2.74,6.4,5.69,8.78,9.02-1.25.96-2.61,1.79-3.97,2.55-4.14,2.31-8.66,4.25-11.8,7.79-2.18,2.44-.73,4.17-2.77,6.73-2.03,2.57-7.25,1.06-11.27,5.6-3.69.89.33-7.27,3.97-10.19,4.16-3.34,4.57-7.89,8.6-11.37,3.33-2.87,6.19-6.3,8.46-10.13Z"/>
          <path class="cls-23" d="m222.84,175.95c-.45,6.6-3.17,16.3-7.34,26.17-4.64-.14-6-5.53-9.03-2.25-2.01,2.18-7.01.83-8.51.84-1.51,0-3.61,2.79-4.33,1.37-.69-1.35-.28-2.97.61-4.05.89-1.06,2.17-1.7,3.41-2.32,3.99-1.98,8.01-4.05,11.25-7.08,1.52-1.41,2.85-3.02,4.3-4.49,2.06-2.1,5.84-5.8,9.64-8.19Z"/>
          <path class="cls-23" d="m174.79,194.59c-2.75,6.88-13.57,12.31-16.52,20.73-2.78-1.25-5.43-2.81-7.93-4.61.47-1,3.03-2.34,3.51-3.34,1.08-2.19,1.86-2.78,2.37-5.23,1.04-4.92,6.32-1.73,7.55-2.02,3.94-.95,3.6-2.01,6.43-4.83,2.75-3.24,5.01-1.79,4.58-.71Z"/>
        </g>
        <path class="cls-28" d="m278.96,26.35c1.17,9.02,8.74,15.38,16.91,14.2,8.18-1.18,13.86-9.45,12.69-18.48-1.17-9.02-8.74-15.38-16.91-14.2-8.18,1.18-13.86,9.45-12.69,18.48Z"/>
        <path class="cls-25" d="m282.19,27.14c.92,7.15,6.93,12.19,13.41,11.26,6.48-.94,10.98-7.49,10.06-14.65-.92-7.15-6.93-12.19-13.41-11.26-6.48.94-10.98,7.49-10.06,14.65Z"/>
        <path class="cls-28" d="m298.03,20.21c.33,2.52,2.44,4.3,4.72,3.97s3.87-2.64,3.54-5.16c-.33-2.52-2.44-4.3-4.72-3.97-2.28.33-3.87,2.64-3.54,5.16Z"/>
        <path class="cls-25" d="m325.75,23.21c-6.01,3.1.39,16.24,5.21,14.54,4.82-1.7-.89-16.77-5.21-14.54Z"/>
        <path class="cls-25" d="m358.09,21.3c6.33,2.37,1.52,16.18-3.47,15.05s-1.09-16.76,3.47-15.05Z"/>
        <path class="cls-30" d="m290.11,44.5s2.33-19.74,26.16-16.36c0,0-2.26,19.73-26.16,16.36Z"/>
        <path class="cls-23" d="m298.77,39.62c-1.7-3.45,9.37-9.47,11.8-5.87,2.43,3.6-9.4,10.72-11.8,5.87Z"/>
        <path class="cls-23" d="m206.07,115.09c-.22,2.96,1.6,4.92,6.06,2.12,4.7-2.95,7.86-10.93,1.85-10.53-4.72.31-7.66,5.02-7.91,8.41Z"/>
        <path class="cls-23" d="m203.62,119.54c1.11.6,1.2,2.09-1.01,4.51-1.36,1.49-3.68,2.5-5.3,2.23s-2.28-1.87-1.34-3.47c1.78-3.03,5.93-4.2,7.65-3.27Z"/>
        <path class="cls-23" d="m235.72,66.69c.88-.17,1.76.47,2.05,2.45.18,1.22-.38,2.61-1.31,3.13-.94.52-2.16.07-2.6-1.04-.85-2.09.5-4.28,1.86-4.55Z"/>
        <path class="cls-23" d="m106.71,141.11c-4.1.7-6.3,3.2-1.41,5.73,3.42,1.77,10.44,1.93,12.23-.76,1.14-1.71-1.34-3.64-4.12-4.51-2.29-.71-4.72-.8-6.7-.46Z"/>
        <path class="cls-23" d="m90.75,144.5c3.26-.41,5.2-2.44,1.62-4.79-2.51-1.65-7.98-2.07-9.62.12-1.05,1.4.72,3.14,2.8,3.99,1.72.7,3.61.88,5.19.68Z"/>
        <path class="cls-28" d="m297.36,71.43c-.63,4.45-2.34,14.17-5.31,14.74-2.61.5-6.94-11.18-8.12-14.48,4.23-.1,8.78-.17,13.43-.26Z"/>
        <path class="cls-28" d="m313.76,70.97c-.61,4.87-2.21,14.71-5.09,15.28-2.46.47-6.6-10.69-8.05-14.87,4.41-.09,8.85-.21,13.14-.4Z"/>
      </g>
      <g>
        <path class="cls-2" d="m232.08,156.52l-1.5,4.69c.73.2,1.38.16,1.91-.13.53-.27.9-.74,1.13-1.43.19-.58.17-1.15-.1-1.7-.27-.53-.74-1.01-1.44-1.43Zm1.54-12.25c-.67-.13-1.25-.07-1.74.22-.47.29-.82.79-1.04,1.48-.21.65-.22,1.2-.03,1.67.2.47.63.9,1.29,1.3l1.51-4.67Zm-7.42,22.91l1.3-4.03-.11-.03c-2.2-.71-3.75-1.69-4.62-2.92-.88-1.22-1.06-2.65-.53-4.3.3-.92.79-1.6,1.46-2.04s1.38-.54,2.12-.3c.69.22,1.2.66,1.49,1.32.3.64.33,1.33.1,2.05-.18.57-.45.97-.82,1.26-.35.29-.78.43-1.29.43.27.43.63.8,1.06,1.09.43.31.94.54,1.54.74l.43.14,1.74-5.38c-2.23-1.45-3.69-2.86-4.4-4.19-.69-1.33-.77-2.85-.22-4.55.64-1.98,1.77-3.43,3.41-4.33,1.62-.92,3.51-1.14,5.67-.68l.28-.88c.29.25.65.45,1.04.57s.78.17,1.18.14l-.27.85c1.95.73,3.34,1.69,4.13,2.88.79,1.17.93,2.53.45,4.02-.3.92-.77,1.59-1.4,2.02-.65.43-1.33.54-2.05.3s-1.18-.65-1.46-1.25c-.3-.61-.34-1.26-.11-1.96.13-.41.35-.75.61-1.06.3-.29.65-.54,1.07-.72-.24-.31-.52-.59-.87-.83-.36-.25-.79-.44-1.28-.6l-1.71,5.27c2.23,1.35,3.71,2.75,4.45,4.18.74,1.44.82,3.08.23,4.9-.68,2.09-1.82,3.52-3.41,4.33s-3.5.89-5.7.24l-1.3,4.03-2.2-.71h0Z"/>
        <path class="cls-5" d="m232.08,156.52l-.15.48-1.17-9.53c.03.06.05.12.06.17.2.47.63.9,1.29,1.3l.03-.09,1.06,8.61c-.28-.35-.65-.65-1.12-.94h0Zm.35,4.59l.06-.03c.45-.23.79-.61,1.01-1.13l.52,4.17c-.38.08-.78.14-1.19.16l-.4-3.17Zm-5.45-17.44l1.24,10.18c-1.2-.97-2.04-1.92-2.53-2.84-.69-1.33-.77-2.85-.22-4.55.35-1.09.86-2.01,1.51-2.79h0Zm1.87,15.36l.67,5.41-1.12,3.44-1.24-.4-.29-2.35.64-1.98-.11-.03c-.28-.09-.55-.18-.81-.28l-.41-3.26c.06.04.11.09.18.13.43.31.94.54,1.54.74l.43.14.5-1.55Zm-2.78-.53l-.62-5.04c.13.02.27.05.39.09.69.22,1.2.66,1.49,1.32.3.64.33,1.33.1,2.05-.18.57-.45.97-.82,1.26-.16.13-.35.24-.54.32h0Zm5.16-17.19l.42,3.36c-.35.29-.61.72-.79,1.29-.1.31-.16.59-.16.86l-.65-5.22c.38-.13.78-.22,1.18-.3h0Zm5.05-.06l.49,4.08c-.3-.15-.61-.28-.93-.39l-.79,2.44-.73-5.98c.08,0,.14.03.23.04l.28-.88c.29.25.65.45,1.04.57.14.04.27.07.41.1h0Zm.7,5.8l.5,4.15c-.48-.24-.84-.61-1.06-1.09-.3-.61-.34-1.26-.11-1.96.13-.41.35-.75.61-1.06l.05-.05Zm.75,6.08l.84,6.84c-.42,1.04-.97,1.89-1.65,2.57l-1.41-11.43c.9.67,1.66,1.33,2.22,2.01Z"/>
        <path class="cls-4" d="m237.79,135.17c1.64.53,2.55,2.3,2.01,3.96-.53,1.64-2.3,2.55-3.95,2.02s-2.56-2.31-2.03-3.95c.53-1.65,2.3-2.56,3.96-2.03,0,0,0,0,.01,0Zm-.4,1.23c.97.31,1.5,1.35,1.18,2.33s-1.35,1.5-2.32,1.18-1.51-1.36-1.2-2.32,1.37-1.51,2.34-1.19h0Z"/>
        <path class="cls-3" d="m235.21,132.91l-1.21.46-.97-2.53,1.21-.46.97,2.53Zm.54.99l-1.5.57c-.49.18-1.05-.07-1.25-.56l-1.06-2.82c-.2-.51.05-1.07.56-1.25l1.48-.57c.51-.18,1.07.07,1.25.56l1.08,2.81c.18.49-.07,1.07-.56,1.25Zm-2.72-6.72l-1.21.47-.97-2.54,1.21-.46.97,2.53Zm.54.99l-1.5.57c-.49.2-1.05-.07-1.25-.56l-1.06-2.82c-.2-.49.05-1.05.56-1.25l1.48-.57c.51-.18,1.07.07,1.25.56l1.08,2.83c.18.49-.07,1.05-.56,1.24h0Z"/>
        <path class="cls-2" d="m236.13,137.15c-.32.11-.67-.05-.79-.37l-1.33-3.48c-.11-.32.05-.67.37-.79.32-.13.68.03.79.35l1.33,3.48c.11.32-.03.68-.37.81h0Zm-2.17-5.73c-.32.13-.66-.04-.79-.35l-1.33-3.48c-.11-.32.05-.68.37-.81.32-.11.68.05.79.37l1.33,3.48c.11.32-.05.67-.37.79h0Z"/>
        <path class="cls-3" d="m229.62,121.59l-1,.82-1.73-2.08,1-.82,1.73,2.08Zm.84.76l-1.23,1.02c-.41.33-1.02.28-1.37-.12l-1.92-2.32c-.35-.42-.3-1.03.12-1.37l1.22-1.01c.42-.34,1.03-.28,1.37.12l1.93,2.31c.33.41.28,1.03-.12,1.37Zm-4.75-5.48l-.99.84-1.74-2.09,1-.82,1.73,2.08Zm.84.76l-1.23,1.02c-.4.35-1.02.28-1.37-.12l-1.92-2.32c-.35-.4-.29-1.01.12-1.37l1.22-1.01c.42-.34,1.03-.28,1.37.12l1.94,2.33c.33.41.28,1.02-.13,1.35h0Z"/>
        <path class="cls-2" d="m231.85,125.31c-.27.21-.65.17-.87-.09l-2.39-2.86c-.21-.27-.17-.65.09-.87.26-.22.66-.19.86.08l2.39,2.86c.21.27.19.66-.09.88h0Zm-3.91-4.71c-.26.22-.64.18-.86-.08l-2.39-2.86c-.21-.27-.17-.66.09-.88.27-.21.66-.17.87.09l2.39,2.86c.21.27.17.65-.09.87h0Z"/>
        <path class="cls-3" d="m220.38,112.56l-.72,1.07-2.25-1.5.72-1.07,2.25,1.5Zm1.02.5l-.89,1.33c-.3.43-.9.55-1.35.27l-2.49-1.68c-.46-.3-.58-.9-.27-1.35l.88-1.32c.31-.44.91-.56,1.35-.27l2.51,1.67c.43.3.56.91.27,1.35Zm-6.11-3.91l-.71,1.08-2.26-1.52.72-1.07,2.25,1.5Zm1.02.5l-.89,1.33c-.29.45-.9.55-1.35.27l-2.49-1.68c-.45-.29-.57-.89-.27-1.35l.88-1.32c.31-.44.91-.56,1.35-.27l2.52,1.69c.43.3.55.9.26,1.33h0Z"/>
        <path class="cls-2" d="m223.58,115.49c-.2.27-.57.34-.86.16l-3.1-2.07c-.27-.2-.34-.57-.16-.86.19-.29.58-.37.85-.17l3.1,2.07c.27.2.37.58.17.87h0Zm-5.09-3.41c-.19.29-.56.36-.85.17l-3.1-2.07c-.27-.2-.35-.59-.17-.87.2-.27.59-.35.86-.16l3.1,2.07c.27.2.34.57.16.86h0Z"/>
      </g>
      <polygon class="cls-28" points="218.9 12.46 222.26 20.46 230.6 22.86 222.6 26.22 220.2 34.55 216.84 26.56 208.51 24.16 216.51 20.8 218.9 12.46"/>
      <polygon class="cls-28" points="226.36 0 228.35 4.73 233.28 6.15 228.55 8.14 227.13 13.07 225.14 8.34 220.21 6.92 224.94 4.93 226.36 0"/>
      <polygon class="cls-28" points="367.06 .89 369.05 5.62 373.98 7.04 369.25 9.03 367.83 13.96 365.84 9.23 360.91 7.81 365.64 5.82 367.06 .89"/>
      <g>
        <path class="cls-2" d="m318.92,150.54l.21,3.31c.51-.05.9-.24,1.17-.55.27-.3.38-.69.36-1.18-.02-.41-.18-.76-.48-1.04-.3-.27-.71-.45-1.25-.55Zm-2.03-8.07c-.45.08-.8.27-1.04.56-.22.3-.32.69-.29,1.18.03.46.16.81.39,1.06.24.25.61.41,1.13.5l-.19-3.3Zm.95,16.2l-.17-2.85h-.08c-1.55.1-2.77-.14-3.62-.7-.85-.55-1.31-1.41-1.38-2.57-.04-.65.1-1.19.42-1.64s.73-.68,1.26-.71c.49-.03.91.12,1.26.46.35.33.54.75.57,1.26.02.4-.04.72-.2.99-.15.27-.39.46-.71.59.28.2.59.35.93.42.34.09.73.11,1.15.08l.3-.02-.22-3.8c-1.76-.37-3.02-.89-3.79-1.55-.76-.66-1.18-1.6-1.26-2.8-.08-1.4.27-2.59,1.08-3.55.79-.97,1.92-1.57,3.39-1.81l-.04-.62c.24.08.52.12.79.11s.53-.09.77-.2l.04.6c1.41-.02,2.51.24,3.3.8.78.54,1.2,1.36,1.27,2.41.04.65-.09,1.18-.38,1.61-.3.43-.7.66-1.21.69s-.9-.12-1.22-.43c-.33-.31-.52-.71-.55-1.2-.02-.29.03-.56.13-.81.12-.26.28-.5.49-.72-.23-.14-.47-.24-.75-.3-.29-.07-.6-.08-.95-.06l.22,3.73c1.73.3,3,.82,3.82,1.53.82.73,1.27,1.74,1.34,3.02.09,1.48-.28,2.66-1.08,3.55s-1.98,1.41-3.52,1.55l.17,2.85-1.55.09h0Z"/>
        <path class="cls-5" d="m318.92,150.54l.02.34-3.07-5.7s.06.06.08.09c.24.25.61.41,1.13.5v-.07s2.77,5.15,2.77,5.15c-.26-.15-.57-.25-.93-.32h0Zm1.34,2.8l.03-.03c.22-.25.35-.58.36-.96l1.35,2.49c-.22.14-.45.28-.71.39l-1.03-1.89Zm-7.7-9.61l3.27,6.09c-.99-.31-1.75-.7-2.28-1.16-.76-.66-1.18-1.6-1.26-2.8-.05-.77.04-1.47.27-2.12h0Zm4.94,9.18l1.75,3.23.14,2.43-.88.05-.76-1.41-.08-1.4h-.08c-.2.02-.39.03-.58.03l-1.05-1.94s.09.03.14.04c.34.09.73.11,1.15.08l.3-.02-.06-1.1Zm-1.88.35l-1.63-3.01c.09-.02.18-.03.27-.04.49-.03.91.12,1.26.46.35.33.54.75.57,1.26.02.4-.04.72-.2.99-.07.12-.16.24-.26.33h0Zm-.97-12.06l1.09,2.01c-.15.27-.2.6-.18,1,.01.22.05.41.11.58l-1.69-3.12c.21-.18.44-.33.67-.48h0Zm3.15-1.28l1.31,2.44c-.22-.02-.45-.03-.68-.01l.1,1.73-1.92-3.57c.05-.01.1-.02.15-.03l-.04-.62c.24.08.52.12.79.11.1,0,.18-.02.28-.04h0Zm1.86,3.47l1.33,2.48c-.36-.03-.68-.18-.93-.42-.33-.31-.52-.71-.55-1.2-.02-.29.03-.56.13-.81l.02-.04Zm1.96,3.64l2.2,4.09c-.01.75-.14,1.43-.4,2.02l-3.68-6.83c.73.2,1.37.43,1.88.72Z"/>
        <path class="cls-4" d="m317.28,135.74c1.16-.07,2.16.82,2.23,1.99.07,1.16-.82,2.16-1.98,2.23s-2.17-.82-2.24-1.98c-.07-1.17.82-2.17,1.99-2.24,0,0,0,0,0,0Zm.05.87c.68-.04,1.27.48,1.31,1.18s-.48,1.27-1.17,1.31-1.28-.48-1.32-1.17.49-1.28,1.18-1.32h0Z"/>
        <path class="cls-3" d="m315.61,132.71l-1.25.49-1.05-2.61,1.25-.49,1.05,2.61Zm.58,1.03l-1.55.61c-.51.2-1.1-.05-1.31-.56l-1.15-2.91c-.22-.53.04-1.11.56-1.31l1.53-.61c.53-.2,1.11.05,1.31.56l1.16,2.91c.2.51-.05,1.11-.56,1.31Zm-2.93-6.94l-1.25.51-1.05-2.63,1.25-.49,1.05,2.61Zm.58,1.03l-1.55.61c-.51.22-1.1-.05-1.31-.56l-1.15-2.91c-.22-.51.04-1.1.56-1.31l1.53-.61c.53-.2,1.11.05,1.31.56l1.17,2.93c.2.51-.05,1.1-.56,1.3h0Z"/>
        <path class="cls-2" d="m316.63,137.11c-.33.12-.69-.04-.83-.37l-1.44-3.6c-.12-.33.04-.69.37-.83.33-.14.71.03.83.35l1.44,3.6c.12.33-.03.71-.37.85h0Zm-2.35-5.92c-.33.14-.69-.03-.83-.35l-1.44-3.6c-.12-.33.04-.71.37-.85.33-.12.71.04.83.37l1.44,3.6c.12.33-.04.69-.37.83h0Z"/>
      </g>
      <path class="cls-2" d="m311.31,124c-.06-.35.18-.67.53-.73l3.83-.59c.35-.04.68.2.74.55.04.35-.2.68-.55.72l-3.83.59c-.35.04-.66-.2-.72-.55h0Z"/>
      <g>
        <path class="cls-3" d="m241.49,135.36l.53,1.18,2.47-1.11-.53-1.18-2.47,1.11Zm-1.08.33l.65,1.44c.23.49.8.71,1.28.49l2.75-1.23c.49-.23.71-.8.49-1.28l-.66-1.46c-.22-.48-.79-.7-1.28-.49l-2.74,1.25c-.49.21-.71.8-.49,1.28h0Zm6.66-2.85l.52,1.19,2.48-1.12-.53-1.18-2.47,1.11Zm-1.08.33l.65,1.44c.22.5.8.71,1.28.49l2.75-1.23c.48-.22.7-.79.49-1.28l-.66-1.46c-.22-.48-.79-.7-1.28-.49l-2.75,1.26c-.49.21-.7.79-.48,1.27h0Z"/>
        <path class="cls-2" d="m237.85,137.72c.15.3.52.44.83.31l3.39-1.54c.31-.14.44-.5.31-.81-.14-.31-.51-.46-.82-.32l-3.39,1.54c-.31.14-.46.51-.32.82Zm5.58-2.52c.14.31.51.46.82.32l3.39-1.54c.31-.14.46-.51.32-.82-.15-.3-.52-.44-.83-.31l-3.39,1.54c-.31.14-.44.5-.31.81Z"/>
        <path class="cls-3" d="m253.26,130.82l.32,1.25,2.63-.66-.32-1.25-2.63.66Zm-1.12.14l.39,1.54c.14.52.67.84,1.18.7l2.92-.74c.52-.14.84-.67.7-1.18l-.4-1.55c-.13-.51-.66-.82-1.18-.7l-2.91.75c-.52.12-.84.67-.7,1.18h0Zm7.05-1.65l.31,1.26,2.64-.67-.32-1.25-2.63.66Zm-1.12.14l.39,1.54c.13.53.67.84,1.18.7l2.92-.74c.51-.13.82-.66.7-1.18l-.4-1.55c-.13-.51-.66-.82-1.18-.7l-2.93.76c-.52.12-.82.66-.69,1.17h0Z"/>
        <path class="cls-2" d="m249.26,132.51c.09.32.43.53.77.45l3.61-.92c.33-.08.52-.41.44-.74-.08-.33-.42-.54-.75-.46l-3.61.92c-.33.08-.54.42-.46.75Zm5.94-1.51c.08.33.42.54.75.46l3.61-.92c.33-.08.54-.42.46-.75-.09-.32-.43-.53-.77-.45l-3.61.92c-.33.08-.52.41-.44.74Z"/>
        <path class="cls-3" d="m265.48,127.82l.32,1.25,2.63-.66-.32-1.25-2.63.66Zm-1.12.14l.39,1.54c.14.52.67.84,1.18.7l2.92-.74c.52-.14.84-.67.7-1.18l-.4-1.55c-.13-.51-.66-.82-1.18-.7l-2.91.75c-.52.12-.84.67-.7,1.18h0Zm7.05-1.65l.31,1.26,2.64-.67-.32-1.25-2.63.66Zm-1.12.14l.39,1.54c.13.53.67.84,1.18.7l2.92-.74c.51-.13.82-.66.7-1.18l-.4-1.55c-.13-.51-.66-.82-1.18-.7l-2.93.76c-.52.12-.82.66-.69,1.17h0Z"/>
        <path class="cls-2" d="m261.48,129.51c.09.32.43.53.77.45l3.61-.92c.33-.08.52-.41.44-.74-.08-.33-.42-.54-.75-.46l-3.61.92c-.33.08-.54.42-.46.75Zm5.94-1.51c.08.33.42.54.75.46l3.61-.92c.33-.08.54-.42.46-.75-.09-.32-.43-.53-.77-.45l-3.61.92c-.33.08-.52.41-.44.74Z"/>
        <path class="cls-3" d="m277.55,124.78l.32,1.25,2.63-.66-.32-1.25-2.63.66Zm-1.12.14l.39,1.54c.14.52.67.84,1.18.7l2.92-.74c.52-.14.84-.67.7-1.18l-.4-1.55c-.13-.51-.66-.82-1.18-.7l-2.91.75c-.52.12-.84.67-.7,1.18h0Zm7.05-1.65l.31,1.26,2.64-.67-.32-1.25-2.63.66Zm-1.12.14l.39,1.54c.13.53.67.84,1.18.7l2.92-.74c.51-.13.82-.66.7-1.18l-.4-1.55c-.13-.51-.66-.82-1.18-.7l-2.93.76c-.52.12-.82.66-.69,1.17h0Z"/>
        <path class="cls-2" d="m273.55,126.47c.09.32.43.53.77.45l3.61-.92c.33-.08.52-.41.44-.74-.08-.33-.42-.54-.75-.46l-3.61.92c-.33.08-.54.42-.46.75Zm5.94-1.51c.08.33.42.54.75.46l3.61-.92c.33-.08.54-.42.46-.75-.09-.32-.43-.53-.77-.45l-3.61.92c-.33.08-.52.41-.44.74Z"/>
        <path class="cls-3" d="m289.56,121.6l.32,1.25,2.63-.66-.32-1.25-2.63.66Zm-1.12.14l.39,1.54c.14.52.67.84,1.18.7l2.92-.74c.52-.14.84-.67.7-1.18l-.4-1.55c-.13-.51-.66-.82-1.18-.7l-2.91.75c-.52.12-.84.67-.7,1.18h0Z"/>
        <path class="cls-2" d="m285.56,123.29c.09.32.43.53.77.45l3.61-.92c.33-.08.52-.41.44-.74-.08-.33-.42-.54-.75-.46l-3.61.92c-.33.08-.54.42-.46.75Zm5.94-1.51c.08.33.42.54.75.46l3.61-.92c.33-.08.54-.42.46-.75-.09-.32-.43-.53-.77-.45l-3.61.92c-.33.08-.52.41-.44.74Z"/>
      </g>
      <path class="cls-14" d="m222.17,102.28c.98,3.78,20.17,37.44,23.53,41.52,3.36,4.08,38.6-7.27,40.53-9.43,1.39-1.56.12-8.85,3.14-10.5,3.02-1.65,6.66,5.5,7.79,4.45,1.77-1.65-3.07-6.7-3.07-6.7,0,0,4.67,2.98,5.34,1.81,1.18-2.03-5.7-8.51-8.57-9.32-2.87-.81-7.89,2.1-9.03,2.99-1.14.89-2.45,11.28-2.45,11.28,0,0-26.66,3.7-27.42,3.42-.76-.28-12-27.94-13.75-34.2-2.07-7.44-19.9-10.15-16.06,4.69Z"/>
      <path class="cls-6" d="m158.17,273.43c.18.05.3.13.39.1.17-.06.32-.43.24-.53-.04-.05-.14-.04-.24-.07.02.14.04.21.05.28-.06-.02-.16-.01-.18-.05-.03-.06-.04-.2-.02-.21.13-.07.27-.11.41-.16.04.13.15.28.11.39-.05.18-.17.35-.3.48-.07.07-.24.08-.34.04-.07-.03-.09-.18-.13-.26Z"/>
      <path class="cls-6" d="m158.02,272.93l.32.2c-.14.11-.24.23-.37.27-.07.02-.24-.08-.27-.17-.11-.26.15-.7.42-.76.09-.02.21,0,.27.06.06.05.05.17.07.23-.15-.05-.33-.15-.36-.11-.12.14-.2.32-.28.49,0,.01.08.08.13.12.03-.05.06-.11.08-.16.01-.03,0-.07,0-.16Z"/>
      <g>
        <g>
          <path class="cls-10" d="m154.01,239.08c-2.71,3.84-8.56,13.82-11.21,21.95-2.65,8.13-4.9,12.77,2.63,15.6,7.53,2.83,40.69,14.2,46.9,15.35,6.22,1.15,22.74,2.85,24.14-2.38,1.4-5.23-.36-9.04-3.72-10.61-3.36-1.56-7.02-6.02-10.52-8.9-3.5-2.88-12.46-9.43-12.84-11.18-.38-1.76-3.9-19.05-6.45-21.46-1.17-1.11-7.58.68-13.83,1.1-7.33.5-14.6-.2-15.11.53Z"/>
          <path class="cls-20" d="m212.76,279c-2.37-1.1-3.39-2.99-6.99-5.61-.68.15-1-.23-1.77-.73-1.57-1.03-3.06-2.88-5.07-2.96-1.32-.05-2.48.61-3.78.39-1.59-.27-3.15-1.82-4.3-2.86-1.35-1.22-2.59-2.54-3.78-3.92-1.34-1.54-2.69-3.54-4.37-4.73-2.09-1.49-5.8-1.71-8.12-1.2-.33.07-.5-.41-.24-.6,1.64-1.16,4.8-1.84,5.39-3.86.49-1.69.32-3.45-.05-5.15-.73-3.38-1.3-6.99-2.61-10.23-2.36.35-5.17.81-7.94,1-7.33.5-14.6-.2-15.11.53-2.71,3.84-8.56,13.82-11.21,21.95-2.65,8.13-4.75,12.06,2.79,14.88,7.53,2.83,40.48,14.45,46.7,15.6,6.22,1.15,22.79,3.32,24.19-1.91,1.4-5.23-.36-9.04-3.72-10.61Z"/>
          <path class="cls-7" d="m204.01,272.66c-.48-.31-.95-.7-1.43-1.09-.36.28-.7.56-1.03.86-.75.68-1.94,1.69-1.96,2.81-.04,1.66,2.24,2.51,3.5,2.96,2.45.87,1.28.49,3.8,1.08,1.42.33,2.98.79,4.46.61.7-.08,1.29-.33,1.82-.68-.13-.07-.29-.11-.4-.21-2.18-1.95-3.39-2.99-6.99-5.61-.68.15-1-.23-1.77-.73Z"/>
          <path class="cls-18" d="m149.82,247.49c1.18,1.86,3.58,3.61,5.19,5.11,3.17,2.96,7.02,4.68,11.38,5.25,3.76.49,6.44.25,9.99-.8,1.43-1.07,2.84-2.37,3.35-4.13.49-1.69.32-3.45-.05-5.15-.73-3.38-1.3-6.99-2.61-10.23-2.36.35-5.17.81-7.94,1-7.33.5-14.6-.2-15.11.53-1.16,1.63-2.88,4.38-4.68,7.63.16.26.32.53.49.79Z"/>
          <path class="cls-9" d="m167.82,256.88c-4.79-.52-9.03-2.69-12.59-5.6-1.8-1.48-3.48-3.12-4.83-4.95-.16-.22-.32-.45-.48-.67-.2.34-.39.69-.59,1.05.16.26.32.53.49.79,1.18,1.86,2.67,3.52,4.28,5.02,3.17,2.96,7.06,4.79,11.35,5.76,4.91,1.11,9.73-.56,13.28-1.61.4-.3-1.56-.24-1.18-.58-3.16.75-6.38,1.15-9.73.79Z"/>
          <path class="cls-18" d="m213.82,279.61c-.61.47-1.3.81-2.12.91-1.87.23-3.66-.34-5.47-.7-2.57-.52-1.52-.19-3.95-1.22-2.19-.93-4.51-2.68-2.63-5.11.69-.89,1.54-1.62,2.43-2.32-.95-.75-1.95-1.41-3.14-1.46-1.19-.05-2.24.48-3.39.42-6.41,4.54-12.54,9.35-18.33,14.77-.55.51-1.11,1.02-1.67,1.52,7.62,2.55,14.29,4.65,16.75,5.11,6.22,1.15,22.79,3.32,24.19-1.91,1.25-4.65-.01-8.17-2.66-10Z"/>
          <path class="cls-9" d="m180.01,283.77c5.38-5.04,11.06-9.55,16.99-13.81-.48.1-.97.19-1.47.16-6.41,4.54-12.54,9.35-18.33,14.77-.55.51-1.11,1.02-1.67,1.52.49.17.98.33,1.47.49,1.43-1.5,2.76-2.89,3.01-3.13Z"/>
          <path class="cls-18" d="m173.09,280.12c.09-3.66-.82-6.76-3.56-9.31-2.22-2.07-4.82-3.63-7.46-5.12-4.07-2.29-8.62-4.57-11.92-7.94-1.87-1.91-2.92-4.08-3.25-6.43-1.6,3.21-3.08,6.6-4.1,9.71-2.65,8.13-4.75,12.06,2.79,14.88,4.18,1.57,16.2,5.85,27.13,9.54.17-1.78.32-3.56.37-5.34Z"/>
          <path class="cls-9" d="m149.48,258.75c3.35,3.49,7.99,5.83,12.13,8.18,2.68,1.53,5.33,3.13,7.59,5.27,2.78,2.63,3.69,5.85,3.58,9.65-.03,1.18-.12,2.36-.22,3.54.05.02.1.04.16.05.17-1.78.32-3.56.37-5.34.09-3.66-.82-6.76-3.56-9.31-2.22-2.07-4.82-3.63-7.46-5.12-4.07-2.29-8.62-4.57-11.92-7.94-1.87-1.91-2.92-4.08-3.25-6.43-.21.42-.41.84-.62,1.26.39,2.25,1.43,4.33,3.2,6.17Z"/>
          <path class="cls-27" d="m216.84,284.65c-5.31,2.61-17.66.7-23.13-.41-6.36-1.29-40.1-13.69-47.81-16.7-2.13-.83-3.51-1.73-4.34-2.77-1.84,5.67-2.24,8.78,4.03,11.14,7.53,2.83,40.48,14.45,46.7,15.6,6.22,1.15,22.79,3.32,24.19-1.91.49-1.84.59-3.5.37-4.95Z"/>
          <path class="cls-10" d="m191.71,289.51c.26-.47.52-.94.78-1.42,0,0,0,0,0,0-6.31-1.41-39.77-14.44-47.42-17.59-2.11-.87-3.48-1.8-4.3-2.86-.2.61-.35,1.95-.35,1.95.84.91,1.93,1.53,3.81,2.31,7.65,3.15,41.11,16.18,47.42,17.59.02,0,.05.01.07.02Z"/>
          <path class="cls-10" d="m190.18,285.66c-2.71.13-4.22,1.9-5.64,3.86,3.53,1.11,6.3,1.9,7.7,2.16,6.22,1.15,22.79,3.32,24.19-1.91.39-1.44.52-2.77.46-3.97-8.61,3.97-24.91-.23-26.7-.14Z"/>
          <path class="cls-7" d="m181.32,262.35c-3.45,1.73-8.41,3.31-10.67,4.17-2.26.86,7.72,12.21,10.83,10.06,3.12-2.14,7.84-7.03,7.84-7.03l-8-7.2Z"/>
          <path class="cls-7" d="m169.8,240.98c-4-.2-12.22-.46-13.51,1.35-1.29,1.82-.99,7.65,3.94,8.85,4.93,1.2,13.91.24,13.52-2.38s-1.06-7.68-3.96-7.82Z"/>
          <path class="cls-11" d="m177.76,243.32c.08,1.17-.46,2.16-1.19,2.21-.74.05-1.4-.86-1.47-2.03s.46-2.16,1.19-2.21c.74-.05,1.4.86,1.47,2.03Z"/>
          <path class="cls-11" d="m178.48,249.61c.08,1.17-.46,2.16-1.19,2.21-.74.05-1.4-.86-1.47-2.03s.46-2.16,1.19-2.21c.74-.05,1.4.86,1.47,2.03Z"/>
          <path class="cls-11" d="m180.21,258.3c.34.85.18,1.71-.36,1.93-.54.21-1.25-.3-1.58-1.15-.34-.85-.18-1.71.36-1.93.54-.21,1.25.3,1.58,1.15Z"/>
          <path class="cls-11" d="m184.84,261.72c.58.71.68,1.58.23,1.95-.45.36-1.28.08-1.86-.63-.58-.71-.68-1.58-.23-1.95.45-.36,1.28-.08,1.86.63Z"/>
          <path class="cls-11" d="m189.22,265.66c.68.61.92,1.45.54,1.88-.38.43-1.25.28-1.93-.33-.68-.61-.92-1.45-.54-1.88.39-.43,1.25-.28,1.93.33Z"/>
          <path class="cls-11" d="m192.67,268.89c.68.61.92,1.45.54,1.88-.38.43-1.25.28-1.93-.33-.68-.61-.92-1.45-.54-1.88s1.25-.28,1.93.33Z"/>
          <path class="cls-10" d="m155.99,240.66c.52-.73,7.78-.03,15.11-.53,5.1-.35,10.31-1.6,12.68-1.44-.29-.55-.57-.99-.84-1.24-1.17-1.11-7.58.68-13.83,1.1-7.33.5-14.6-.2-15.11.53-.83,1.17-1.95,2.92-3.18,5.01,2.37-1.16,4.33-2.24,5.17-3.42Z"/>
          <path class="cls-7" d="m186.16,243.06c.03.33-.14.61-.38.64l-9.21,1.15c-.24.03-.47-.22-.5-.55l-.15-1.48c-.03-.33.14-.61.38-.64l9.21-1.15c.24-.03.47.22.5.55l.15,1.48Z"/>
          <path class="cls-7" d="m187.89,248.34c.06.32-.08.62-.33.67l-10.35,2.27c-.24.05-.49-.18-.55-.5l-.28-1.46c-.06-.32.08-.62.33-.67l10.35-2.27c.24-.05.49.18.55.5l.28,1.46Z"/>
          <path class="cls-7" d="m189.62,254.84c.13.3.04.63-.18.72l-9.67,4.32c-.23.09-.51-.08-.64-.38l-.57-1.37c-.13-.3-.04-.63.18-.72l9.67-4.32c.23-.09.51.08.64.38l.57,1.37Z"/>
          <path class="cls-7" d="m190.92,259.35c.16.29.12.62-.1.74l-6,3.48c-.21.12-.52-.01-.68-.3l-.73-1.29c-.16-.29-.12-.62.1-.74l6-3.48c.21-.12.52.01.68.3l.73,1.29Z"/>
          <path class="cls-7" d="m193.6,262.15c.23.23.28.56.1.74l-4.32,4.44c-.17.17-.5.13-.74-.11l-1.05-1.05c-.23-.23-.28-.56-.1-.74l4.32-4.44c.17-.17.5-.13.74.11l1.05,1.05Z"/>
          <path class="cls-7" d="m196.77,265.03c.25.21.33.54.17.72l-3.92,4.8c-.16.19-.49.17-.74-.04l-1.13-.96c-.25-.21-.33-.54-.17-.72l3.92-4.8c.16-.19.49-.17.74.04l1.13.96Z"/>
          <path class="cls-11" d="m196.93,271.98c.79.46,1.2,1.24.91,1.74-.29.5-1.17.53-1.96.07-.79-.46-1.2-1.24-.91-1.74s1.17-.53,1.96-.07Z"/>
          <path class="cls-7" d="m200.59,267.74c.27.19.37.5.23.71l-3.46,5.14c-.14.2-.47.21-.74.03l-1.22-.85c-.27-.19-.37-.5-.23-.71l3.46-5.14c.14-.2.47-.21.74-.03l1.22.85Z"/>
        </g>
        <g>
          <path class="cls-6" d="m175.46,268.28c.02-.09.04-.18.05-.26.04-.33-.05-.62-.33-.82-.29-.21-.62-.16-.88,0-.37.22-.68.54-.77,1-.07.38.17.75.54.81.11.02.26-.03.35-.1.14-.1.25-.25.39-.4l.34.33c-.06.04-.13.08-.18.13-.18.18-.32.41-.64.34-.41-.09-.76-.26-.97-.65-.32-.59-.13-1.23.51-1.71.4-.3,1.08-.24,1.49.15.27.26.39.58.35.95-.01.1-.1.19-.16.29-.03-.02-.06-.04-.09-.06Z"/>
          <path class="cls-6" d="m180.04,274.16c-.15.06-.3.17-.46.17-.52,0-1-.38-1.17-.92-.15-.46.07-.99.57-1.39.37-.29.91-.33,1.32-.07.33.2.5.52.61.87.06.21.02.42-.28.56.02-.11.03-.19.04-.28.05-.35-.02-.66-.33-.87-.3-.21-.63-.19-.9.03-.26.21-.52.45-.67.74-.29.53.16,1.14.78,1.11.15,0,.3-.03.46-.05.01.03.02.07.03.1Z"/>
          <path class="cls-6" d="m178.24,272.42c-.08.24-.22.29-.43.27-.57-.07-1.04-.48-1.13-1-.09-.56.28-1.18.82-1.44.8-.38,1.6.25,1.71,1.06.02.14-.15.3-.24.46-.02-.01-.05-.03-.07-.04.02-.16.06-.33.06-.49,0-.46-.4-.82-.84-.77-.5.06-1.05.6-1.12,1.11-.07.53.29.92.82.89.13,0,.26-.02.41-.04Z"/>
          <path class="cls-6" d="m177.69,269.47c-.42.43-.74.78-1.08,1.12-.4.4-.86.43-1.22.1-.41-.39-.44-.87-.07-1.3.16-.19.35-.36.52-.54.17-.18.34-.36.52-.54l.26.25c-.35.36-.69.71-1.03,1.08-.31.33-.31.64-.01.92.27.26.63.24.93-.06.31-.31.6-.64.92-.96.04-.04.14-.04.27-.07Z"/>
          <path class="cls-6" d="m181.44,273.17l.3.29-1.62,1.69-.3-.29c.54-.56,1.07-1.11,1.62-1.69Z"/>
        </g>
        <g>
          <path class="cls-17" d="m146.34,263.85c0-.09,0-.18-.02-.27-.05-.33-.21-.59-.53-.71-.34-.13-.64,0-.86.22-.3.31-.53.69-.49,1.16.03.38.35.68.73.65.11,0,.24-.1.31-.19.11-.14.18-.31.28-.49l.41.23c-.05.06-.1.11-.14.17-.12.22-.2.48-.54.49-.42.01-.8-.06-1.1-.38-.46-.49-.43-1.15.06-1.78.31-.4.99-.51,1.48-.23.32.18.53.46.58.83.01.1-.05.21-.08.32-.03-.01-.07-.02-.1-.03Z"/>
          <path class="cls-17" d="m152.27,268.38c-.13.1-.25.24-.4.28-.5.14-1.06-.12-1.37-.59-.26-.4-.19-.98.2-1.49.29-.38.79-.54,1.26-.41.37.11.62.37.81.68.12.19.12.4-.13.61-.01-.11-.02-.2-.03-.28-.04-.35-.19-.63-.54-.76-.35-.12-.66-.03-.86.25-.19.27-.38.57-.47.89-.15.59.44,1.06,1.04.88.15-.05.29-.11.43-.16.02.03.04.06.06.09Z"/>
          <path class="cls-17" d="m150.09,267.15c-.01.25-.14.34-.35.37-.57.08-1.13-.2-1.34-.69-.23-.52-.03-1.21.43-1.6.68-.57,1.62-.16,1.92.59.05.13-.07.33-.11.5-.03,0-.05-.01-.08-.02-.02-.16-.03-.33-.07-.49-.11-.45-.59-.7-1.01-.53-.47.18-.86.85-.8,1.36.07.53.51.81,1.02.66.12-.04.24-.09.38-.14Z"/>
          <path class="cls-17" d="m148.81,264.44c-.29.52-.52.94-.76,1.36-.28.49-.73.64-1.16.41-.5-.27-.65-.73-.4-1.24.11-.22.24-.44.36-.66.12-.22.24-.43.37-.66l.32.18c-.24.44-.49.87-.72,1.3-.21.4-.14.7.22.9.32.18.67.07.88-.3.22-.38.42-.78.64-1.16.03-.05.12-.07.24-.13Z"/>
          <path class="cls-17" d="m153.37,267.07l.36.2-1.14,2.04-.36-.2,1.14-2.04Z"/>
        </g>
      </g>
      <g>
        <g>
          <g>
            <path class="cls-10" d="m255.5,233.51c-2.02,4.01-6.13,14.26-7.48,22.31-1.35,8.05-2.83,12.75,4.68,14.36,7.51,1.61,40.43,7.67,46.46,7.88,6.03.21,21.88-.52,22.46-5.65.59-5.14-1.62-8.49-5.01-9.49-3.39-1-7.48-4.7-11.19-6.92-3.72-2.23-13.1-7.14-13.71-8.75-.61-1.6-6.37-17.44-9.12-19.36-1.26-.88-7.06,1.71-12.9,2.99-6.86,1.5-13.81,1.87-14.2,2.63Z"/>
            <path class="cls-20" d="m316.62,262.92c-2.39-.71-3.62-2.34-7.39-4.31-.62.24-.98-.07-1.77-.44-1.63-.75-3.3-2.29-5.21-2.08-1.25.14-2.25.93-3.52.9-1.54-.03-3.23-1.28-4.47-2.09-1.45-.96-2.81-2.04-4.13-3.17-1.48-1.27-3.04-2.96-4.79-3.85-2.18-1.11-5.72-.8-7.84.02-.3.12-.53-.32-.31-.53,1.38-1.33,4.28-2.42,4.55-4.4.23-1.66-.19-3.3-.77-4.85-1.17-3.09-2.21-6.41-3.91-9.29-2.18.67-4.77,1.49-7.36,2.06-6.86,1.5-13.81,1.87-14.2,2.63-2.02,4.01-6.13,14.26-7.48,22.31-1.35,8.05-2.78,12.06,4.73,13.66,7.51,1.61,40.27,7.93,46.3,8.14,6.03.21,21.99-.08,22.57-5.22.59-5.14-1.62-8.49-5.01-9.49Z"/>
            <path class="cls-7" d="m307.46,258.17c-.49-.23-.99-.53-1.5-.83-.3.31-.59.63-.85.96-.61.75-1.59,1.87-1.46,2.93.19,1.57,2.47,2.05,3.72,2.3,2.43.47,1.28.28,3.74.48,1.39.11,2.93.33,4.3-.05.65-.18,1.18-.49,1.62-.9-.13-.05-.29-.06-.41-.14-2.34-1.54-3.62-2.34-7.39-4.31-.62.24-.98-.07-1.77-.44Z"/>
            <path class="cls-18" d="m252.73,242.04c1.38,1.59,3.89,2.9,5.62,4.09,3.41,2.35,7.29,3.43,11.49,3.35,3.62-.06,6.12-.68,9.32-2.17,1.2-1.22,2.35-2.64,2.58-4.37.23-1.66-.19-3.3-.77-4.85-1.17-3.09-2.21-6.41-3.91-9.29-2.18.67-4.77,1.49-7.36,2.06-6.86,1.5-13.81,1.87-14.2,2.63-.86,1.7-2.1,4.54-3.34,7.86.19.23.38.45.57.68Z"/>
            <path class="cls-9" d="m271.05,248.37c-4.6.19-8.91-1.27-12.68-3.51-1.91-1.14-3.73-2.45-5.26-4-.19-.19-.37-.38-.55-.57-.14.35-.27.71-.41,1.08.19.23.38.45.57.68,1.38,1.59,3.02,2.95,4.75,4.14,3.41,2.35,7.34,3.52,11.53,3.84,4.79.36,9.11-1.9,12.32-3.39.34-.34-1.51,0-1.2-.38-2.88,1.15-5.86,1.99-9.08,2.12Z"/>
            <path class="cls-18" d="m317.7,263.34c-.51.53-1.11.95-1.87,1.16-1.73.48-3.5.2-5.27.11-2.5-.13-1.46.03-3.91-.6-2.19-.57-4.63-1.89-3.2-4.46.52-.94,1.23-1.75,1.97-2.53-1-.57-2.04-1.06-3.17-.93-1.13.12-2.05.77-3.15.88-5.41,5.19-10.52,10.6-15.22,16.53-.45.56-.9,1.12-1.36,1.67,7.55,1.33,14.15,2.38,16.54,2.46,6.03.21,21.99-.08,22.57-5.22.52-4.56-1.16-7.72-3.93-9.07Z"/>
            <path class="cls-9" d="m286.36,272.04c4.37-5.52,9.1-10.58,14.1-15.44-.44.16-.89.31-1.36.36-5.41,5.19-10.52,10.6-15.22,16.53-.45.56-.9,1.12-1.36,1.67.49.09.97.17,1.46.25,1.14-1.62,2.19-3.12,2.4-3.38Z"/>
            <path class="cls-18" d="m279.31,269.57c-.43-3.47-1.73-6.27-4.67-8.29-2.39-1.64-5.07-2.75-7.77-3.78-4.17-1.59-8.79-3.1-12.38-5.82-2.04-1.54-3.34-3.44-3.98-5.62-1.06,3.26-1.98,6.67-2.5,9.75-1.35,8.05-2.78,12.06,4.73,13.66,4.17.89,16.12,3.24,26.97,5.19-.09-1.71-.2-3.41-.41-5.1Z"/>
            <path class="cls-9" d="m254,252.73c3.66,2.82,8.37,4.37,12.61,6.02,2.75,1.06,5.48,2.21,7.91,3.91,3,2.09,4.31,5.01,4.74,8.61.13,1.12.22,2.25.29,3.38.05,0,.1.02.15.03-.09-1.71-.2-3.41-.41-5.1-.43-3.47-1.73-6.27-4.67-8.29-2.39-1.64-5.07-2.75-7.77-3.78-4.17-1.59-8.79-3.1-12.38-5.82-2.04-1.54-3.34-3.44-3.98-5.62-.14.42-.27.85-.4,1.28.69,2.07,1.96,3.89,3.89,5.38Z"/>
            <path class="cls-27" d="m321.27,267.68c-4.64,3.21-16.58,3.16-21.9,2.88-6.19-.32-39.8-7.27-47.51-9.02-2.13-.48-3.56-1.14-4.49-2-.94,5.61-.88,8.61,5.37,9.95,7.51,1.61,40.27,7.93,46.3,8.14,6.03.21,21.99-.08,22.57-5.22.21-1.81.06-3.39-.35-4.73Z"/>
            <path class="cls-10" d="m298.22,275.81c.18-.48.36-.96.54-1.45,0,0,0,0,0,0-6.15-.44-39.59-8.02-47.26-9.92-2.12-.52-3.54-1.21-4.46-2.09-.1.61-.05,1.89-.05,1.89.92.74,2.04,1.18,3.92,1.64,7.67,1.9,41.11,9.48,47.26,9.92.02,0,.05,0,.07,0Z"/>
            <path class="cls-10" d="m296.23,272.39c-2.54.51-3.72,2.39-4.78,4.45,3.49.55,6.22.91,7.58.95,6.03.21,21.99-.08,22.57-5.22.16-1.41.1-2.69-.13-3.82-7.57,4.96-23.56,3.3-25.24,3.63Z"/>
            <path class="cls-7" d="m284.57,251.63c-3.02,2.12-7.47,4.32-9.49,5.44-2.02,1.13,9.01,10.44,11.65,7.98,2.64-2.46,6.41-7.75,6.41-7.75l-8.57-5.67Z"/>
            <path class="cls-7" d="m270.68,233.08c-3.81.38-11.6,1.29-12.56,3.18s.14,7.36,4.97,7.8c4.83.44,13.17-1.74,12.43-4.16s-2.08-7.1-4.84-6.83Z"/>
            <path class="cls-11" d="m278.53,234.16c.24,1.09-.13,2.1-.81,2.25-.69.15-1.44-.61-1.68-1.71-.24-1.09.13-2.1.81-2.25.69-.15,1.44.61,1.68,1.71Z"/>
            <path class="cls-11" d="m280.1,240c.24,1.09-.13,2.1-.81,2.25-.69.15-1.44-.61-1.68-1.71-.24-1.09.13-2.1.81-2.25.69-.15,1.44.61,1.68,1.71Z"/>
            <path class="cls-11" d="m282.96,247.96c.44.76.41,1.59-.06,1.87-.48.28-1.22-.11-1.66-.87-.44-.76-.41-1.59.06-1.87.48-.28,1.22.11,1.66.87Z"/>
            <path class="cls-11" d="m287.82,250.54c.65.59.87,1.4.5,1.81-.37.41-1.2.26-1.84-.33-.65-.59-.87-1.4-.5-1.81.37-.41,1.2-.26,1.84.33Z"/>
            <path class="cls-11" d="m292.5,253.64c.73.48,1.08,1.24.77,1.7-.3.46-1.14.44-1.87-.04-.73-.48-1.08-1.24-.77-1.7.3-.46,1.14-.44,1.87.04Z"/>
            <path class="cls-11" d="m296.22,256.2c.73.48,1.08,1.24.77,1.7-.3.46-1.14.44-1.87-.04-.73-.48-1.08-1.24-.77-1.7s1.14-.44,1.87.04Z"/>
            <path class="cls-10" d="m257.6,234.72c.38-.76,7.34-1.13,14.2-2.63,4.77-1.05,9.51-2.97,11.78-3.15-.35-.48-.68-.85-.97-1.05-1.26-.88-7.06,1.71-12.9,2.99-6.86,1.5-13.81,1.87-14.2,2.63-.62,1.22-1.43,3.03-2.3,5.18,2.08-1.43,3.77-2.72,4.4-3.96Z"/>
            <path class="cls-7" d="m286.43,232.73c.08.3-.04.6-.27.66l-8.54,2.39c-.23.06-.48-.14-.55-.44l-.35-1.37c-.08-.3.04-.6.27-.66l8.54-2.39c.23-.06.48.14.55.44l.35,1.37Z"/>
            <path class="cls-7" d="m288.8,237.47c.1.3,0,.6-.21.68l-9.45,3.61c-.22.08-.49-.1-.59-.39l-.47-1.34c-.1-.3,0-.6.21-.68l9.45-3.61c.22-.08.49.1.59.39l.47,1.34Z"/>
            <path class="cls-7" d="m291.36,243.36c.16.27.13.58-.07.71l-8.53,5.44c-.2.12-.5,0-.66-.27l-.73-1.22c-.16-.27-.13-.58.07-.71l8.53-5.44c.2-.12.5,0,.66.27l.73,1.22Z"/>
            <path class="cls-7" d="m293.22,247.45c.19.25.2.56.01.71l-5.18,4.13c-.19.14-.49.06-.68-.19l-.87-1.12c-.19-.25-.2-.56-.01-.71l5.18-4.13c.19-.14.49-.06.68.19l.87,1.12Z"/>
            <path class="cls-7" d="m296.15,249.71c.25.19.34.49.2.68l-3.45,4.8c-.14.19-.46.19-.71,0l-1.14-.85c-.25-.19-.34-.49-.2-.68l3.45-4.8c.14-.19.46-.19.71,0l1.14.85Z"/>
            <path class="cls-7" d="m299.54,251.98c.27.16.38.46.26.66l-3.02,5.09c-.12.2-.44.23-.71.06l-1.21-.75c-.27-.16-.38-.46-.26-.66l3.02-5.09c.12-.2.44-.23.71-.06l1.21.75Z"/>
            <path class="cls-11" d="m300.68,258.52c.81.32,1.31,1,1.1,1.51-.2.51-1.03.66-1.84.34-.81-.32-1.31-1-1.1-1.51s1.03-.66,1.84-.34Z"/>
            <path class="cls-7" d="m303.54,254.01c.28.14.42.42.32.63l-2.55,5.34c-.1.21-.42.27-.7.13l-1.27-.63c-.28-.14-.42-.42-.32-.63l2.55-5.34c.1-.21.42-.27.7-.13l1.27.63Z"/>
          </g>
          <g>
            <path class="cls-6" d="m279.88,258.06c0-.09.01-.17,0-.26,0-.32-.14-.58-.43-.73-.31-.16-.61-.06-.84.12-.32.26-.57.6-.59,1.05-.01.37.26.68.62.69.11,0,.24-.07.32-.15.12-.12.2-.27.32-.43l.37.26s-.11.09-.15.15c-.14.2-.24.44-.56.41-.4-.03-.76-.14-1.01-.48-.38-.52-.29-1.14.24-1.68.34-.34.99-.38,1.43-.07.29.2.46.49.47.85,0,.1-.07.2-.11.3-.03-.01-.06-.03-.1-.04Z"/>
            <path class="cls-6" d="m285.04,262.97c-.14.08-.26.2-.41.23-.49.08-.99-.22-1.24-.7-.21-.41-.08-.95.34-1.39.31-.33.81-.44,1.24-.26.34.14.55.42.7.73.09.19.08.4-.19.57,0-.11,0-.19,0-.27,0-.34-.11-.62-.43-.78-.32-.15-.62-.09-.84.15-.21.24-.42.5-.53.79-.2.54.31,1.05.9.94.14-.03.28-.07.43-.11.02.03.03.06.05.09Z"/>
            <path class="cls-6" d="m283.09,261.58c-.04.24-.17.3-.37.31-.55.02-1.05-.3-1.21-.79-.17-.51.09-1.16.57-1.48.7-.47,1.55.01,1.76.76.04.13-.1.31-.16.47-.02,0-.05-.02-.07-.03,0-.16,0-.32-.01-.47-.06-.44-.49-.72-.91-.61-.47.13-.91.72-.9,1.21.01.51.4.82.9.73.12-.02.24-.06.38-.09Z"/>
            <path class="cls-6" d="m282.15,258.87c-.33.47-.59.84-.86,1.21-.32.43-.75.53-1.14.27-.45-.31-.54-.76-.25-1.22.13-.2.28-.39.41-.59.14-.19.27-.38.41-.59l.29.2c-.28.39-.55.77-.82,1.16-.24.35-.2.65.12.88.29.21.63.14.87-.19.25-.34.48-.69.73-1.03.03-.05.12-.05.24-.1Z"/>
            <path class="cls-6" d="m286.22,261.83l.33.23-1.29,1.82-.33-.23,1.29-1.82Z"/>
          </g>
        </g>
        <path class="cls-17" d="m251.57,258c-.02-.08-.04-.15-.06-.23-.1-.28-.28-.47-.58-.53-.32-.06-.55.11-.7.34-.21.32-.34.69-.23,1.09.09.33.42.53.74.44.09-.03.19-.13.24-.22.07-.14.1-.3.16-.47l.4.13c-.03.06-.07.11-.09.17-.07.22-.09.45-.38.52-.36.08-.71.09-1.02-.14-.48-.35-.57-.93-.25-1.55.2-.4.77-.61,1.25-.46.31.1.54.31.65.62.03.08,0,.19-.02.29-.03,0-.06,0-.1,0Z"/>
        <path class="cls-17" d="m257.49,260.9c-.1.11-.18.25-.3.31-.41.21-.94.08-1.29-.28-.3-.31-.33-.82-.09-1.33.18-.38.59-.61,1.02-.57.34.03.6.22.82.45.13.15.18.33,0,.55-.03-.1-.05-.17-.07-.24-.09-.3-.27-.52-.6-.57-.32-.05-.57.09-.7.37-.12.27-.23.56-.25.85-.03.53.57.85,1.05.58.12-.06.23-.14.35-.21.02.02.04.05.07.07Z"/>
        <path class="cls-17" d="m255.39,260.22c.03.22-.06.32-.24.38-.48.17-1.01.02-1.28-.36-.29-.41-.24-1.05.1-1.46.49-.61,1.37-.42,1.77.18.07.1,0,.3-.01.46-.02,0-.05,0-.07,0-.05-.14-.08-.28-.14-.42-.17-.37-.63-.5-.97-.29-.38.24-.6.89-.46,1.32.15.45.58.62,1,.39.1-.05.19-.12.31-.19Z"/>
        <path class="cls-17" d="m253.81,258.08c-.16.5-.29.91-.42,1.31-.16.47-.52.68-.93.55-.48-.15-.69-.52-.56-1.01.06-.21.13-.42.2-.63.07-.21.13-.42.2-.63l.31.1c-.14.42-.27.84-.4,1.25-.12.38,0,.63.35.74.31.1.6-.05.72-.41.12-.37.23-.75.36-1.12.02-.05.1-.08.19-.16Z"/>
      </g>
      <g>
        <g class="cls-1">
          <path class="cls-6" d="m286.43,21.5l2,1.5s-.02-.02-.03-.03l-2-1.5s.02.02.03.03Z"/>
          <path class="cls-6" d="m312.34,10.32l.06-2.09m-73.22,44.49l-3.96-3.46c-6.61-5.77-3.36-19.02-3.13-19.96l3.92,3.45c-.23.93-3.41,14.21,3.17,19.96h0Z"/>
          <path class="cls-6" d="m284.27,41.07l-3.67-3.29c-4.03-3.61-4.98-10.47-5.12-14.99,0-.05-.14-.81-.56-1.19l3.66,3.29c.42.38.55,1.14.56,1.19.16,4.52,1.11,11.38,5.14,14.99Z"/>
          <path class="cls-6" d="m295.77,39.84c-3.8,1.04-7.11.06-9.47-2.06l-3.65-3.27c2.37,2.13,5.7,3.11,9.52,2.09,10.8-2.89,17.2-19.18,11.43-24.45l3.47,3.18c5.75,5.27-.59,21.59-11.3,24.52h0Z"/>
          <path class="cls-6" d="m271.95,24.41l-3.69-3.31c1.41-1.49,7.01-2.95,8.24-1.97l3.64,3.28c-1.24-.99-6.81.53-8.19,2Z"/>
          <path class="cls-6" d="m252.67,51.61c-4.14,1.13-7.58.21-10-1.91l-3.93-3.44c2.42,2.13,5.89,3.06,10.05,1.94,11.78-3.15,20.42-20.44,14.04-26.15l3.73,3.34c6.37,5.7-2.2,23.03-13.89,26.23Z"/>
          <path class="cls-6" d="m267.65,20.49l3.69,3.32c-1.63-1.46-6.45-4.87-14.59-2.96l-3.77-3.37c8.19-1.89,13.04,1.54,14.67,3.01h0Z"/>
          <path class="cls-6" d="m313.96,9.65l-.09,3.34-1.47,1.12c.14,1.07,2.74,21.67-15.96,28.23-11.3,3.97-16.85-3.27-17.31-16.26-.01-.07-.23-1.33-1.01-1.4-.78-.07-3.5.6-4.33,1.07-.82.47-1.19,1.89-1.21,1.96-1.83,12.66-8.05,24.37-21,27.03-21.94,4.51-15.88-20.69-15.57-21.98l-1.7-.43.34-3.76c6.47-1.84,12.8-5.54,22.09-7.73,9.93-2.34,14.94,3.27,15.21,3.56,1.4-1.49,6.96-2.98,8.19-2,3.34-4.8,9.36-9.48,15.69-10.76,9.32-1.89,12.78-1,18.12-2h0Zm-61.29,41.95c8.61-2.35,15.59-12.41,16.05-19.88.46-7.37-5.61-9.69-14.02-7.68-8.59,2.05-15.12,7.63-15.78,15.33-.67,7.8,4.94,14.63,13.74,12.22m43.1-11.76c13.87-3.79,21.02-30.63,1.02-25.85-7.69,1.84-13.88,7.02-14.24,14.24-.37,7.31,5.35,13.76,13.22,11.61"/>
          <path class="cls-6" d="m280.14,22.41l-3.64-3.28c3.37-4.78,9.44-9.43,15.81-10.69,9.37-1.85,12.86-.95,18.23-1.93l3.42,3.15c-5.34,1-8.81.11-18.12,2-6.39,1.29-12.39,6.02-15.69,10.76Z"/>
          <path class="cls-6" d="m234.32,32.33l-3.93-3.46.35-3.75,3.92,3.45-.34,3.76Z"/>
          <path class="cls-6" d="m234.65,28.58l-3.92-3.45c6.51-1.82,12.89-5.49,22.24-7.64l3.77,3.37c-9.46,2.23-15.51,5.86-22.09,7.73Z"/>
          <path class="cls-6" d="m254.71,24.05c-7.79,1.87-15.07,7.06-15.78,15.33-.29,3.42.63,6.67,2.51,9.03,3.51,4.39,8.89,4.31,13.18,2.52,7.65-3.22,13.67-12.25,14.1-19.21.49-7.88-6.37-9.52-14.02-7.68Zm42.08-10.05c-6.96,1.66-13.85,6.49-14.24,14.23-.39,7.54,5.53,13.71,13.22,11.61,7.41-1.98,13.28-10.93,13.49-18.27.21-7.47-5.64-9.21-12.47-7.58Z"/>
          <g>
            <path class="cls-6" d="m307.9,16.27l-5.2,19.41c-1.09,1.08-2.32,2.02-3.67,2.8l6.55-24.15c.94.47,1.72,1.11,2.32,1.95Zm-3.96-2.54l-7.02,25.73c-3.09,1.23-7.14,1.27-10.38-1.46l6.48-22.79c2.89-1.2,7.41-2.35,10.92-1.48Z"/>
            <path class="cls-6" d="m265.95,24.9l-7.41,23.81c-1.2.88-2.51,1.63-3.91,2.22l8.56-27.24c1.05.25,1.98.66,2.76,1.2Zm-4.66-1.5l-8.96,28.29c-4.75,1.19-8.55-.35-10.88-3.27l7.32-22.21c3.42-1.73,8.45-3.13,12.52-2.81Z"/>
          </g>
        </g>
        <g>
          <path class="cls-12" d="m287.87,18.41l2,1.5s-.02-.02-.03-.03l-2-1.5s.02.02.03.03Z"/>
          <path class="cls-12" d="m313.78,7.24l.06-2.09m-73.22,44.49l-3.96-3.46c-6.61-5.77-3.36-19.02-3.13-19.96l3.92,3.45c-.23.93-3.41,14.21,3.17,19.96h0Z"/>
          <path class="cls-8" d="m285.71,37.98l-3.67-3.29c-4.03-3.61-4.98-10.47-5.12-14.99,0-.05-.14-.81-.56-1.19l3.66,3.29c.42.38.55,1.14.56,1.19.16,4.52,1.11,11.38,5.14,14.99Z"/>
          <path class="cls-12" d="m297.21,36.76c-3.8,1.04-7.11.06-9.47-2.06l-3.65-3.27c2.37,2.13,5.7,3.11,9.52,2.09,10.8-2.89,17.2-19.18,11.43-24.45l3.47,3.18c5.75,5.27-.59,21.59-11.3,24.52h0Z"/>
          <path class="cls-13" d="m273.4,21.32l-3.69-3.31c1.41-1.49,7.01-2.95,8.24-1.97l3.64,3.28c-1.24-.99-6.81.53-8.19,2Z"/>
          <path class="cls-12" d="m254.12,48.52c-4.14,1.13-7.58.21-10-1.91l-3.93-3.44c2.42,2.13,5.89,3.06,10.05,1.94,11.78-3.15,20.42-20.44,14.04-26.15l3.73,3.34c6.37,5.7-2.2,23.03-13.89,26.23Z"/>
          <path class="cls-12" d="m269.09,17.4l3.69,3.32c-1.63-1.46-6.45-4.87-14.59-2.96l-3.77-3.37c8.19-1.89,13.04,1.54,14.67,3.01h0Z"/>
          <path class="cls-8" d="m315.4,6.56l-.09,3.34-1.47,1.12c.14,1.07,2.74,21.67-15.96,28.23-11.3,3.97-16.85-3.27-17.31-16.26-.01-.07-.23-1.33-1.01-1.4-.78-.07-3.5.6-4.33,1.07-.82.47-1.19,1.89-1.21,1.96-1.83,12.66-8.05,24.37-21,27.03-21.94,4.51-15.88-20.69-15.57-21.98l-1.7-.43.34-3.76c6.47-1.84,12.8-5.54,22.09-7.73,9.93-2.34,14.94,3.27,15.21,3.56,1.4-1.49,6.96-2.98,8.19-2,3.34-4.8,9.36-9.48,15.69-10.76,9.32-1.89,12.78-1,18.12-2h0Zm-61.29,41.95c8.61-2.35,15.59-12.41,16.05-19.88s-5.61-9.69-14.02-7.68c-8.59,2.05-15.12,7.63-15.78,15.33-.67,7.8,4.94,14.63,13.74,12.22m43.1-11.76c13.87-3.79,21.02-30.63,1.02-25.85-7.69,1.84-13.88,7.02-14.24,14.24-.37,7.31,5.35,13.76,13.22,11.61"/>
          <path class="cls-12" d="m281.58,19.32l-3.64-3.28c3.37-4.78,9.44-9.43,15.81-10.69,9.37-1.85,12.86-.95,18.23-1.93l3.42,3.15c-5.34,1-8.81.11-18.12,2-6.39,1.29-12.39,6.02-15.69,10.76Z"/>
          <path class="cls-13" d="m235.76,29.25l-3.93-3.46.35-3.75,3.92,3.45-.34,3.76Z"/>
          <path class="cls-12" d="m236.1,25.49l-3.92-3.45c6.51-1.82,12.89-5.49,22.24-7.64l3.77,3.37c-9.46,2.23-15.51,5.86-22.09,7.73Z"/>
          <path class="cls-6" d="m256.15,20.96c-7.79,1.87-15.07,7.06-15.78,15.33-.29,3.42.63,6.67,2.51,9.03,3.51,4.39,8.89,4.31,13.18,2.52,7.65-3.22,13.67-12.25,14.1-19.21.49-7.88-6.37-9.52-14.02-7.68Zm42.08-10.05c-6.96,1.66-13.85,6.49-14.24,14.23-.39,7.54,5.53,13.71,13.22,11.61,7.41-1.98,13.28-10.93,13.49-18.27.21-7.47-5.64-9.21-12.47-7.58Z"/>
          <g>
            <path class="cls-28" d="m309.35,13.18l-5.2,19.41c-1.09,1.08-2.32,2.02-3.67,2.8l6.55-24.15c.94.47,1.72,1.11,2.32,1.95Zm-3.96-2.54l-7.02,25.73c-3.09,1.23-7.14,1.27-10.38-1.46l6.48-22.79c2.89-1.2,7.41-2.35,10.92-1.48Z"/>
            <path class="cls-28" d="m267.39,21.81l-7.41,23.81c-1.2.88-2.51,1.63-3.91,2.22l8.56-27.24c1.05.25,1.98.66,2.76,1.2Zm-4.66-1.5l-8.96,28.29c-4.75,1.19-8.55-.35-10.88-3.27l7.32-22.21c3.42-1.73,8.45-3.13,12.52-2.81Z"/>
          </g>
        </g>
      </g>
    </g>
  </g>
</svg>