<?xml version="1.0" encoding="UTF-8"?>
<svg id="Layer_2" data-name="Layer 2" xmlns="http://www.w3.org/2000/svg" viewBox="0 0 399.25 305.14">
  <defs>
    <style>
      .cls-1 {
        opacity: .1;
      }

      .cls-2 {
        fill: #fcc900;
      }

      .cls-2, .cls-3, .cls-4, .cls-5 {
        fill-rule: evenodd;
      }

      .cls-2, .cls-3, .cls-4, .cls-5, .cls-6, .cls-7, .cls-8, .cls-9, .cls-10, .cls-11, .cls-12, .cls-13, .cls-14, .cls-15, .cls-16, .cls-17, .cls-18, .cls-19, .cls-20, .cls-21, .cls-22, .cls-23, .cls-24, .cls-25, .cls-26, .cls-27, .cls-28, .cls-29, .cls-30, .cls-31 {
        stroke-width: 0px;
      }

      .cls-3 {
        fill: #e9b702;
      }

      .cls-4 {
        fill: #f4c006;
      }

      .cls-5 {
        fill: #f8df2e;
      }

      .cls-7 {
        fill: #f9f5f5;
      }

      .cls-8 {
        fill: #4f91ff;
      }

      .cls-9 {
        fill: #53beed;
      }

      .cls-10 {
        fill: #2c3b53;
      }

      .cls-11 {
        fill: #474646;
      }

      .cls-12 {
        fill: #457aef;
      }

      .cls-13 {
        fill: #3a63df;
      }

      .cls-14 {
        fill: #3ba2ff;
      }

      .cls-15 {
        fill: #1a8ce4;
      }

      .cls-16 {
        fill: #1a3a9e;
      }

      .cls-17 {
        fill: #197bb5;
      }

      .cls-18 {
        fill: #3599d7;
      }

      .cls-19 {
        fill: #10489c;
      }

      .cls-20 {
        fill: #415371;
      }

      .cls-21 {
        fill: #113e56;
      }

      .cls-22 {
        fill: #20719e;
      }

      .cls-23 {
        fill: #162c70;
      }

      .cls-24 {
        fill: #165070;
      }

      .cls-25 {
        fill: #130073;
      }

      .cls-26 {
        fill: #112256;
      }

      .cls-27 {
        fill: #e2dfde;
      }

      .cls-28 {
        fill: #fff;
      }

      .cls-29 {
        fill: #00529a;
      }

      .cls-30 {
        fill: #0069ca;
      }

      .cls-31 {
        fill: #0061b9;
      }
    </style>
  </defs>
  <g id="Layer_1-2" data-name="Layer 1">
    <g>
      <path class="cls-3" d="m333.78,144.21l1.34.44.93-2.8-1.34-.44-.93,2.8Zm-.53,1.11l1.64.54c.56.18,1.16-.12,1.34-.67l1.04-3.11c.18-.56-.12-1.16-.67-1.34l-1.65-.54c-.55-.18-1.14.12-1.34.67l-1.02,3.11c-.19.54.12,1.16.67,1.34h0Zm2.62-7.44l1.34.46.93-2.81-1.34-.44-.93,2.8Zm-.53,1.11l1.64.54c.56.19,1.16-.12,1.34-.67l1.04-3.11c.18-.54-.12-1.14-.67-1.34l-1.65-.54c-.54-.18-1.14.12-1.34.67l-1.02,3.13c-.19.54.12,1.14.67,1.32h0Z"/>
      <path class="cls-2" d="m332.99,148.87c.35.11.74-.09.86-.44l1.27-3.85c.12-.35-.07-.72-.42-.84-.35-.12-.74.07-.86.42l-1.27,3.85c-.12.35.07.74.42.86Zm2.09-6.33c.35.12.74-.07.86-.42l1.27-3.85c.12-.35-.07-.74-.42-.86-.35-.11-.74.09-.86.44l-1.27,3.85c-.12.35.07.72.42.84Z"/>
      <g>
        <g>
          <path class="cls-29" d="m302.39,255.96c-5.49,3.93-8,3.68-14.05-.6-4.12-2.91-2.42-6.36-6.44-11.69-3.29-4.36-3.5-4.22-9.82-8.43-1.45-.97-4.68-3.24-6.09-4-2.61,1.04-5.35,1.76-8.17,2.19-3.41.51-6.92.59-10.44.24-3.45-.33-6.89-1.05-10.23-2.17-5.66-1.88-11.05-4.85-15.68-8.8-12.49-10.68-19.27-28-17.84-43.37,1.24-13.3,4.74-19.61,10.24-23.07,3.91-2.47,8.8-3.53,14.61-4.63,1.71-.33,3.51-.67,5.38-1.04,6.13-1.25,12.53-2.76,18.79-3.3,4.01-.34,7.97-.3,11.78.49,3.94.81,7.71,2.39,11.22,5.11,1,.78,2.09,1.88,3.22,3.26,4.33,5.24,9.88,14.19,13.67,24.68,8.92,24.62,2.51,30.27,8.87,44.61"/>
          <path class="cls-23" d="m288.51,195.02c.14,1.61,1.4,2.81,3.09,1.42,1.19-.97,1.69-3.52.31-4.6-.88-.69-2.1-.08-2.74.8-.53.73-.72,1.6-.66,2.38Z"/>
          <path class="cls-23" d="m267.92,217.71c.71,1.51,2.27,2.23,3.29.27.72-1.37.25-4.02-1.38-4.57-1.04-.35-1.92.67-2.18,1.75-.22.89-.08,1.81.27,2.54Z"/>
          <path class="cls-22" d="m247.31,180.23c1.63-.04,2.78-1.18,1.38-3.54-1.48-2.49-5.79-3.83-5.77-.46.01,2.65,2.52,4.05,4.39,4Z"/>
          <path class="cls-24" d="m252.68,185.59c.26-.74,1.1-1.11,2.66-.4.96.43,1.72,1.5,1.7,2.45-.03.95-.88,1.65-1.87,1.48-1.88-.34-2.88-2.38-2.48-3.53Z"/>
          <path class="cls-22" d="m218.36,177.59c-1.24-.86-2.68-.66-2.43,1.39.17,1.44,1.8,3.32,3.21,2.96.9-.23,1.01-1.47.66-2.46-.29-.82-.84-1.48-1.44-1.89Z"/>
          <path class="cls-21" d="m228.48,151.63c.52,1.31,1.17,2.59,1.9,3.78,2.17,3.61,4.94,6.94,6.57,10.77,2.33,5.52,2.11,11.66,4.69,17.08,3.04,6.38,9.5,10.82,12.65,17.14.55,1.1.91,2.57.03,3.26-.65.5-1.64.29-2.48.01-8.88-2.99-15.02-11.37-20.45-19.18-6.29-9.06-12.91-18.28-17.52-28.23,3.91-2.47,8.8-3.53,14.61-4.63Z"/>
          <path class="cls-21" d="m236.41,214.28c.5,2.67.67,5.36,1.4,7.99,1.72,6.24,5.59,8.62,9.57,11.41-3.45-.33-6.89-1.05-10.23-2.17-1.76-3.22-3.47-6.43-5.14-9.54-3.4-6.32-11.48-19.43-9.05-26.44,3.73-10.74,12.62,14.36,13.45,18.75Z"/>
          <path class="cls-26" d="m252.66,147.29c4.01-.34,7.97-.3,11.78.49-.11,1.59-.38,3.18-.7,4.71-.98,4.66-2.45,9.3-1.94,14.16.34,3.36,2.45,3.62,2.96,6.97.52,3.35-3.79,5.93-3.14,12.16-1.69,3.28-4.86-5.64-4.63-10.4.27-5.43-2.65-9.11-2.56-14.56.08-4.5-.53-9.07-1.78-13.54Z"/>
          <path class="cls-26" d="m278.87,156.16c4.33,5.24,9.39,14.38,13.67,24.68-3,3.18-7.62.14-7.21,4.72.27,3.04-3.8,5.59-4.73,6.66-.94,1.08-.31,4.63-1.75,4.09-1.37-.51-2.25-2.01-2.45-3.44-.18-1.42.17-2.8.51-4.14,1.12-4.3,2.18-8.69,2.09-13.24-.03-2.13-.33-4.26-.44-6.39-.18-3.03-.39-8.46.31-12.93Z"/>
          <path class="cls-26" d="m261.85,204.1c3.08,7.07.11,18.78,4.15,27.14-2.61,1.04-5.35,1.76-8.17,2.19-.4-1.07.26-3.89-.13-4.97-.85-2.4-.78-3.38-2.17-5.57-2.78-4.39,2.75-5.77,3.31-6.86,1.8-3.5.85-4.05.65-8.15-.55-4.36,1.88-4.88,2.37-3.78Z"/>
        </g>
        <path class="cls-19" d="m292.75,102.41c.79,4.01,18.77,40.36,22.03,44.83,3.26,4.47,40.78-5.22,42.93-7.36,1.55-1.54.67-9.24,3.93-10.78,3.25-1.54,6.62,6.16,7.87,5.13,1.95-1.61-2.79-7.19-2.79-7.19,0,0,4.69,3.41,5.47,2.22,1.35-2.05-5.43-9.24-8.38-10.27-2.95-1.03-8.38,1.71-9.62,2.57-1.24.86-3.26,11.63-3.26,11.63,0,0-28.08,2.22-28.86,1.88-.78-.34-10.82-29.93-12.26-36.59-1.71-7.9-20.17-11.83-17.07,3.91Z"/>
        <path class="cls-30" d="m367.27,38.02s7.81-19.56,17.34-15.46c9.53,4.11,10.11,27.34,2.84,31.63l-20.18-16.18Z"/>
        <path class="cls-30" d="m255.91,42.44s-16.53,1.56-24.67,21.86c-14.3,35.68,26.91,55.7-68.5,76.84-55.81,12.37-62.35-14.82-101.45-17.97-9.98-.8-20.08-.47-29.13.58-26.39,2.98-43.72,18.5-23,14.9,53.87-9.37,45.34,16.48,83.38,51.54,12.9,11.89,29.06,14.88,39.62,18.28,50.81,16.35,93.73,9.75,130.16.93,70.06-16.97,30.08-85.48,46.57-98.83,0,0,67.55-.75,74.29-15.12,1.29-2.75,2.35-6.6,3.14-11.05,3.34-18.72,1.86-47.95-7.49-50.03-11.59-2.57-16.81,0-16.81,0,0,0-5.99-11.81-17.12-11.81s-13.02,15.14-16.9,14.38c-20.91-4.11-72.1,5.5-72.1,5.5"/>
        <path class="cls-15" d="m383.19,95.45c-7.73,14.88-73.87,15.04-73.87,15.04-19.8,21.66,31.83,79.53-47.75,105.89-35.58,11.78-78.59,8.44-129.4-7.91h-.01c103.42-9.47,127-81.19,128.43-106.66,1.41-25.47,21.44-23.3,21.44-23.3,4.44-.44,11.27-.34,19.17-.05,4.42.16,9.19.36,14.05.56,1.13.05,2.27.1,3.4.14,4.61.18,9.26.32,13.75.39,10.49.18,20.13-.1,26.38-1.54,17.5-4.05,25.85-7.75,28.68-23.81-.79,4.45,4.45,24.5-4.26,41.26Z"/>
        <path class="cls-28" d="m261.72,34.75c.66,9.5,8.18,16.61,16.8,15.88,8.61-.73,15.06-9.02,14.4-18.52-.66-9.5-8.18-16.61-16.8-15.88-8.61.73-15.06,9.02-14.4,18.52Z"/>
        <path class="cls-25" d="m265.05,35.78c.52,7.53,6.49,13.17,13.32,12.59,6.83-.58,11.94-7.15,11.41-14.68-.52-7.53-6.49-13.17-13.32-12.59-6.83.58-11.94,7.15-11.41,14.68Z"/>
        <path class="cls-28" d="m282.02,29.5c.19,2.65,2.29,4.64,4.69,4.43s4.21-2.52,4.02-5.17c-.18-2.65-2.29-4.64-4.69-4.43-2.41.2-4.21,2.52-4.02,5.17Z"/>
        <path class="cls-30" d="m283.05,56.84s-4.28-22.93-27.98-13.83c0,0,4.2,22.94,27.98,13.83Z"/>
        <path class="cls-23" d="m274.02,53.34c1.03-3.93-11.54-7.46-13.29-3.21-1.74,4.26,11.83,8.73,13.29,3.21Z"/>
        <g>
          <path class="cls-31" d="m178.94,268.81c-7.23-1.28-5.05-.7-12.4-2.7-7.34-2.01-11.21-2.77-12.4-10.45-.82-5.23-.83-8.88.42-14.47s2.44-9.93,4.64-15.79c.61-1.65,1.22-3.2,1.83-4.61-2.82-1.47-5.5-3.27-8-5.3-3.01-2.47-5.76-5.29-8.17-8.4-2.37-3.03-4.43-6.31-6.09-9.76-2.82-5.83-4.57-12.14-4.95-18.44-1.01-17.02,7.66-33.59,21.06-42.19,11.59-7.44,19.31-8.58,26.27-6.28,4.96,1.63,9.55,4.97,14.87,9.03,1.57,1.2,3.22,2.45,4.95,3.75,5.69,4.23,11.78,8.51,17,13.3,3.34,3.07,6.33,6.34,8.61,9.96,2.37,3.74,3.98,7.84,4.49,12.44.14,1.32.09,2.91-.15,4.71-.88,6.87-4.32,16.83-9.28,26.89-8.08,16.36-27.62,29.98-39.28,33.67"/>
          <path class="cls-16" d="m207.2,216.22c-1.18,1.14-1.18,2.93,1.22,3.44,1.69.35,4.11-.85,3.92-2.67-.12-1.16-1.54-1.77-2.73-1.74-.99.03-1.84.43-2.41.98Z"/>
          <path class="cls-16" d="m173.32,213.78c-.67,1.54-.05,3.27,2.29,2.87,1.64-.28,3.41-2.35,2.6-4.04-.51-1.08-2-1.14-3.07-.67-.88.39-1.51,1.09-1.83,1.84Z"/>
          <path class="cls-16" d="m187.55,173.06c1.28,1.31,3.07,1.53,3.89-1.12.86-2.79-1.37-7.18-4.05-5.02-2.11,1.69-1.31,4.64.16,6.14Z"/>
          <path class="cls-16" d="m187.36,180.87c.79-.26,1.72.19,2.35,1.92.39,1.06.12,2.37-.67,2.95-.78.58-2,.33-2.61-.6-1.16-1.75-.3-3.87.93-4.27Z"/>
          <path class="cls-16" d="m167.53,147.67c-.26-1.56-1.52-2.62-2.97-1.11-1.02,1.05-1.28,3.58.09,4.51.87.59,1.95-.11,2.47-1.02.43-.76.54-1.63.41-2.38Z"/>
          <path class="cls-23" d="m196.02,139.46c-.65,1.26-1.17,2.61-1.57,3.96-1.23,4.08-1.77,8.46-3.59,12.23-2.63,5.42-7.71,9.14-10.07,14.7-2.78,6.54-1.38,14.66-4.04,21.26-.46,1.15-1.36,2.38-2.58,2.09-.9-.21-1.49-1.15-1.91-2.02-4.39-9.18-2.39-19.53-.29-28.95,2.44-10.91,4.75-22.2,9.19-32.3,4.96,1.63,9.55,4.97,14.87,9.03Z"/>
          <path class="cls-23" d="m151.99,185.77c-1.75,2.11-3.77,3.96-5.32,6.23-3.67,5.37-2.62,10.06-1.81,15.09-2.37-3.03-4.43-6.31-6.09-9.76,1.23-3.48,2.49-6.93,3.7-10.27,2.46-6.81,6.77-21.76,14.23-24.22,11.44-3.77-1.83,19.47-4.71,22.94Z"/>
          <path class="cls-23" d="m217.97,156.51c3.34,3.07,6.33,6.34,8.61,9.96-1.36.92-2.83,1.71-4.3,2.42-4.47,2.16-9.31,3.91-12.81,7.42-2.42,2.41-1.02,4.31-3.31,6.86-2.28,2.56-7.64.66-12.12,5.16-3.91.7.8-7.57,4.78-10.4,4.55-3.23,5.26-7.96,9.69-11.35,3.66-2.8,6.85-6.2,9.46-10.06Z"/>
          <path class="cls-23" d="m230.92,183.63c-.88,6.87-4.32,16.83-9.28,26.89-4.84-.44-5.93-6.15-9.29-2.91-2.23,2.15-7.38.44-8.94.35-1.58-.09-3.94,2.69-4.61,1.16-.64-1.45-.11-3.12.89-4.19.99-1.05,2.37-1.64,3.7-2.21,4.29-1.82,8.62-3.73,12.19-6.7,1.68-1.38,3.16-2.98,4.77-4.43,2.29-2.07,6.46-5.7,10.57-7.96Z"/>
          <path class="cls-23" d="m179.57,200.15c-3.3,7.02-14.93,12.03-18.53,20.65-2.82-1.47-5.5-3.27-8-5.3.55-1.01,3.31-2.26,3.87-3.27,1.26-2.22,2.11-2.79,2.8-5.32,1.39-5.07,6.71-1.42,8.02-1.65,4.17-.75,3.89-1.88,7.01-4.65,3.07-3.22,5.34-1.56,4.83-.46Z"/>
        </g>
        <path class="cls-28" d="m298.77,30.77c.66,9.5,8.18,16.61,16.8,15.88,8.61-.73,15.06-9.02,14.4-18.52-.66-9.5-8.18-16.61-16.8-15.88-8.61.73-15.06,9.02-14.4,18.52Z"/>
        <path class="cls-25" d="m302.1,31.8c.52,7.53,6.49,13.17,13.32,12.59,6.83-.58,11.94-7.15,11.41-14.68-.52-7.53-6.49-13.17-13.32-12.59-6.83.58-11.94,7.15-11.41,14.68Z"/>
        <path class="cls-28" d="m319.07,25.53c.19,2.65,2.29,4.64,4.69,4.43s4.21-2.52,4.02-5.17c-.18-2.65-2.29-4.64-4.69-4.43-2.41.2-4.21,2.52-4.02,5.17Z"/>
        <path class="cls-25" d="m347.86,30.37c-6.47,2.87-.59,17,4.55,15.52,5.14-1.48.1-17.58-4.55-15.52Z"/>
        <path class="cls-25" d="m381.77,30.37c6.47,2.87.59,17-4.55,15.52s-.1-17.58,4.55-15.52Z"/>
        <path class="cls-30" d="m309.31,50.42s3.65-20.48,28.34-15.48c0,0-3.57,20.47-28.34,15.48Z"/>
        <path class="cls-23" d="m318.66,45.86c-1.57-3.71,10.37-9.32,12.69-5.41,2.31,3.91-10.49,10.62-12.69,5.41Z"/>
        <path class="cls-23" d="m217.15,119.01c-.41,3.08,1.37,5.24,6.2,2.59,5.1-2.79,8.88-10.94,2.58-10.89-4.95.04-8.31,4.77-8.79,8.3Z"/>
        <path class="cls-23" d="m214.31,123.5c1.12.7,1.13,2.25-1.33,4.65-1.51,1.48-4,2.38-5.67,2s-2.26-2.09-1.18-3.7c2.05-3.06,6.46-4.03,8.19-2.94Z"/>
        <path class="cls-23" d="m251.11,70.26c.93-.12,1.81.59,2,2.69.12,1.29-.55,2.7-1.57,3.19-1.01.49-2.26-.06-2.66-1.24-.76-2.24.79-4.45,2.23-4.64Z"/>
        <path class="cls-23" d="m111.73,140.07c-4.32.47-6.77,2.95-1.83,5.9,3.46,2.06,10.79,2.66,12.83-.04,1.3-1.72-1.18-3.89-4.02-4.96-2.35-.89-4.88-1.13-6.97-.9Z"/>
        <path class="cls-23" d="m94.84,142.63c3.43-.23,5.59-2.23,1.99-4.9-2.52-1.87-8.21-2.66-10.06-.46-1.18,1.4.56,3.32,2.69,4.34,1.76.84,3.72,1.14,5.38,1.03Z"/>
        <path class="cls-28" d="m315.23,79.01c-.93,4.61-3.32,14.66-6.46,15.08-2.75.36-6.57-12.11-7.59-15.63,4.42.16,9.19.36,14.05.56Z"/>
        <path class="cls-28" d="m332.38,79.54c-.94,5.05-3.21,15.23-6.26,15.65-2.6.34-6.24-11.57-7.49-16.04,4.61.18,9.26.32,13.75.39Z"/>
      </g>
      <g>
        <path class="cls-2" d="m241.78,163.89l-1.86,4.81c.75.26,1.43.25,2-.02.57-.25.99-.72,1.27-1.43.23-.6.25-1.19,0-1.78-.25-.57-.72-1.1-1.41-1.59Zm2.37-12.71c-.69-.18-1.3-.15-1.83.12-.51.27-.9.77-1.18,1.48-.26.66-.3,1.24-.14,1.74.18.51.6.98,1.27,1.44l1.87-4.79Zm-9.17,23.48l1.61-4.13-.11-.04c-2.25-.88-3.81-2-4.65-3.34-.84-1.33-.94-2.84-.29-4.52.37-.95.92-1.62,1.65-2.04s1.47-.48,2.23-.18c.71.28,1.21.76,1.48,1.47.28.69.27,1.41-.02,2.15-.23.58-.53.99-.93,1.27-.38.29-.84.4-1.38.37.26.47.61.88,1.04,1.2.43.35.95.63,1.57.87l.44.17,2.15-5.51c-2.24-1.66-3.68-3.22-4.34-4.65-.64-1.43-.63-3.02.05-4.77.79-2.03,2.07-3.48,3.83-4.31,1.75-.86,3.74-.97,5.97-.36l.35-.9c.29.28.65.51,1.05.66s.8.22,1.22.22l-.34.87c1.99.89,3.39,1.98,4.13,3.27.75,1.27.82,2.7.22,4.22-.37.95-.9,1.61-1.59,2.03-.71.41-1.42.48-2.16.19s-1.19-.76-1.45-1.4c-.27-.65-.27-1.34,0-2.05.17-.43.41-.77.71-1.07.33-.29.71-.52,1.16-.69-.23-.34-.51-.65-.86-.92-.36-.29-.8-.51-1.3-.71l-2.11,5.4c2.25,1.55,3.71,3.1,4.4,4.64.68,1.55.66,3.27-.06,5.13-.84,2.14-2.12,3.57-3.83,4.31s-3.71.71-5.97-.1l-1.61,4.13-2.25-.88h0Z"/>
        <path class="cls-5" d="m241.78,163.89l-.19.49-.64-10.03c.03.07.04.13.05.18.18.51.6.98,1.27,1.44l.04-.09.58,9.07c-.27-.38-.64-.72-1.11-1.05h0Zm.08,4.82l.07-.03c.48-.21.86-.59,1.13-1.12l.28,4.39c-.4.06-.82.1-1.25.09l-.22-3.34Zm-4.62-18.56l.66,10.71c-1.19-1.08-2.02-2.13-2.47-3.12-.64-1.43-.63-3.02.05-4.77.44-1.12,1.02-2.05,1.75-2.82h0Zm1,16.17l.37,5.7-1.38,3.53-1.28-.5-.16-2.48.79-2.03-.11-.04c-.28-.11-.57-.22-.83-.34l-.22-3.43c.06.04.11.1.18.14.43.35.95.63,1.57.87l.44.17.62-1.59Zm-2.88-.72l-.34-5.31c.13.03.28.07.41.12.71.28,1.21.76,1.48,1.47.28.69.27,1.41-.02,2.15-.23.58-.53.99-.93,1.27-.18.13-.38.23-.59.3h0Zm6.45-17.65l.23,3.54c-.38.29-.68.72-.91,1.3-.12.31-.2.61-.22.89l-.36-5.49c.41-.11.83-.18,1.25-.24h0Zm5.28.25l.26,4.3c-.3-.18-.62-.33-.95-.46l-.98,2.5-.39-6.29c.08.01.15.04.23.05l.35-.9c.29.28.65.51,1.05.66.14.06.27.09.42.13h0Zm.38,6.1l.27,4.37c-.49-.28-.84-.69-1.04-1.2-.27-.65-.27-1.34,0-2.05.17-.43.41-.77.71-1.07l.06-.05Zm.4,6.4l.46,7.2c-.5,1.06-1.13,1.92-1.88,2.59l-.77-12.03c.9.75,1.65,1.5,2.19,2.24Z"/>
        <path class="cls-4" d="m249.06,141.94c1.69.66,2.52,2.56,1.86,4.26s-2.56,2.52-4.25,1.86-2.54-2.57-1.88-4.25c.66-1.69,2.56-2.53,4.26-1.88,0,0,0,0,.01,0Zm-.49,1.26c.99.39,1.48,1.5,1.09,2.51s-1.5,1.48-2.5,1.09-1.5-1.51-1.11-2.5,1.53-1.49,2.52-1.1h0Z"/>
        <path class="cls-3" d="m246.5,139.41l-1.29.4-.86-2.7,1.29-.4.86,2.7Zm.51,1.07l-1.6.5c-.53.16-1.1-.14-1.28-.66l-.94-3.01c-.18-.54.12-1.11.66-1.28l1.58-.5c.54-.16,1.11.14,1.28.66l.95,3.01c.16.53-.14,1.11-.66,1.28Zm-2.43-7.19l-1.29.42-.85-2.72,1.29-.4.86,2.7Zm.51,1.07l-1.6.5c-.53.18-1.1-.14-1.28-.66l-.94-3.01c-.18-.53.12-1.1.66-1.28l1.58-.5c.54-.16,1.11.14,1.28.66l.95,3.02c.16.53-.13,1.1-.66,1.26h0Z"/>
        <path class="cls-2" d="m247.2,143.91c-.34.1-.69-.1-.81-.44l-1.18-3.72c-.1-.34.1-.69.44-.81.34-.11.71.08.81.42l1.18,3.72c.1.34-.08.71-.44.82h0Zm-1.92-6.12c-.34.11-.69-.08-.81-.42l-1.18-3.72c-.1-.34.1-.71.44-.82.34-.1.71.1.81.43l1.18,3.72c.1.34-.1.69-.43.81h0Z"/>
        <path class="cls-3" d="m241.35,127.25l-1.09.8-1.68-2.28,1.09-.8,1.68,2.28Zm.83.85l-1.35.99c-.45.32-1.08.23-1.42-.21l-1.86-2.54c-.34-.46-.25-1.09.21-1.42l1.33-.98c.46-.33,1.1-.23,1.42.21l1.87,2.54c.32.45.23,1.1-.21,1.42Zm-4.62-6.02l-1.09.82-1.69-2.3,1.09-.8,1.68,2.28Zm.83.85l-1.35.99c-.44.34-1.08.23-1.42-.21l-1.86-2.54c-.34-.44-.24-1.08.21-1.42l1.33-.98c.46-.33,1.1-.23,1.42.21l1.88,2.55c.32.45.23,1.08-.22,1.4h0Z"/>
        <path class="cls-2" d="m243.46,131.27c-.29.2-.69.13-.9-.15l-2.32-3.14c-.2-.29-.13-.69.15-.9.28-.22.7-.16.9.13l2.32,3.14c.2.29.16.7-.15.92h0Zm-3.8-5.17c-.29.22-.68.15-.9-.13l-2.32-3.14c-.2-.29-.14-.7.15-.92.29-.2.7-.14.9.15l2.32,3.14c.2.29.13.69-.15.9h0Z"/>
        <path class="cls-3" d="m232.25,117.24l-.82,1.08-2.26-1.71.82-1.08,2.26,1.71Zm1.04.58l-1.01,1.33c-.34.44-.97.52-1.42.2l-2.5-1.91c-.46-.34-.55-.98-.2-1.42l1-1.32c.35-.45.99-.53,1.42-.2l2.52,1.9c.44.34.53.99.2,1.42Zm-6.14-4.46l-.81,1.09-2.27-1.72.82-1.08,2.26,1.71Zm1.04.58l-1.01,1.33c-.33.45-.97.52-1.42.2l-2.5-1.91c-.45-.33-.54-.96-.2-1.42l1-1.32c.35-.45.99-.53,1.42-.2l2.53,1.92c.44.34.52.97.19,1.41h0Z"/>
        <path class="cls-2" d="m235.42,120.51c-.22.28-.62.32-.91.11l-3.11-2.35c-.27-.22-.32-.62-.11-.91.21-.29.62-.35.9-.12l3.11,2.35c.28.22.35.62.12.92h0Zm-5.1-3.88c-.21.29-.61.34-.9.12l-3.11-2.35c-.27-.22-.33-.63-.12-.92.22-.28.63-.33.91-.11l3.11,2.35c.28.22.32.62.11.91h0Z"/>
      </g>
      <polygon class="cls-28" points="236.88 12.56 239.89 21.13 248.46 24.14 239.89 27.16 236.88 35.73 233.86 27.16 225.3 24.14 233.86 21.13 236.88 12.56"/>
      <polygon class="cls-28" points="245.44 0 247.22 5.07 252.29 6.85 247.22 8.64 245.44 13.71 243.65 8.64 238.58 6.85 243.65 5.07 245.44 0"/>
      <polygon class="cls-28" points="392.39 9.59 394.18 14.66 399.25 16.45 394.18 18.23 392.39 23.3 390.61 18.23 385.54 16.45 390.61 14.66 392.39 9.59"/>
      <g>
        <path class="cls-2" d="m332.88,163v3.47c.55-.02.97-.19,1.26-.5.3-.3.44-.69.44-1.21,0-.43-.14-.81-.43-1.12-.3-.3-.72-.51-1.28-.65Zm-1.63-8.56c-.48.06-.85.23-1.12.52-.25.3-.38.71-.38,1.22,0,.48.11.85.34,1.13.24.27.62.47,1.15.59v-3.46Zm0,16.99v-2.98h-.08c-1.63,0-2.88-.32-3.74-.96-.85-.63-1.29-1.55-1.29-2.77,0-.68.18-1.24.54-1.69s.81-.66,1.36-.66c.51,0,.95.18,1.29.56.34.36.51.82.51,1.36,0,.42-.09.75-.27,1.03-.17.27-.43.46-.77.57.28.23.6.4.95.5.35.11.75.16,1.2.16h.32v-3.99c-1.81-.49-3.1-1.12-3.86-1.86-.75-.74-1.14-1.74-1.14-3.01,0-1.47.44-2.69,1.34-3.65.89-.97,2.11-1.53,3.66-1.69v-.65c.25.1.54.16.82.16s.56-.06.82-.16v.63c1.47.07,2.61.41,3.4,1.04.79.62,1.17,1.49,1.17,2.6,0,.68-.17,1.23-.5,1.66-.34.43-.77.65-1.31.65s-.93-.18-1.25-.52c-.33-.34-.5-.77-.5-1.29,0-.31.07-.58.18-.84.14-.26.32-.5.56-.72-.23-.16-.48-.28-.76-.36-.3-.09-.63-.13-.99-.13v3.91c1.79.42,3.09,1.04,3.9,1.83.81.81,1.22,1.89,1.22,3.24,0,1.55-.46,2.76-1.34,3.65s-2.15,1.36-3.77,1.4v2.98h-1.63Z"/>
        <path class="cls-5" d="m332.88,163v.35l-2.86-6.14s.06.07.08.1c.24.27.62.47,1.15.59v-.07l2.59,5.55c-.26-.17-.58-.3-.96-.39h0Zm1.23,3.01l.03-.03c.25-.25.4-.58.43-.98l1.25,2.69c-.24.14-.49.26-.76.36l-.96-2.04Zm-7.45-10.52l3.04,6.56c-1.01-.39-1.79-.84-2.31-1.36-.75-.74-1.14-1.74-1.14-3.01,0-.81.14-1.54.41-2.2h0Zm4.59,9.9l1.63,3.49v2.55h-.92l-.71-1.52v-1.47h-.08c-.21,0-.41,0-.6-.01l-.98-2.1s.09.03.15.05c.35.11.75.16,1.2.16h.32v-1.15Zm-1.98.25l-1.52-3.25c.09-.01.19-.02.28-.02.51,0,.95.18,1.29.56.34.36.51.82.51,1.36,0,.42-.09.75-.27,1.03-.08.13-.18.24-.3.33h0Zm-.27-12.66l1.01,2.16c-.17.27-.25.62-.25,1.04,0,.23.02.43.08.62l-1.57-3.36c.23-.17.48-.32.73-.46h0Zm3.37-1.14l1.22,2.63c-.23-.04-.47-.06-.71-.06v1.81l-1.79-3.85c.06-.01.1-.01.16-.02v-.65c.25.1.54.16.82.16.1,0,.19-.01.3-.02h0Zm1.73,3.74l1.24,2.68c-.38-.06-.69-.23-.95-.5-.33-.34-.5-.77-.5-1.29,0-.31.07-.58.18-.84l.02-.05Zm1.82,3.92l2.05,4.41c-.06.79-.24,1.48-.55,2.08l-3.43-7.36c.75.25,1.4.54,1.93.87Z"/>
        <path class="cls-4" d="m332.07,147.43c1.22,0,2.21.99,2.21,2.22s-.99,2.21-2.21,2.21-2.22-.99-2.22-2.21c0-1.22.99-2.22,2.21-2.22,0,0,0,0,0,0Zm0,.91c.72,0,1.3.58,1.3,1.31s-.58,1.3-1.3,1.3-1.31-.58-1.31-1.3.59-1.31,1.31-1.31h0Z"/>
        <path class="cls-3" d="m330.52,144.16l-1.34.44-.93-2.8,1.34-.44.93,2.8Zm.55,1.11l-1.65.54c-.55.18-1.14-.12-1.34-.67l-1.02-3.11c-.19-.56.11-1.16.67-1.34l1.64-.54c.56-.18,1.16.12,1.34.67l1.04,3.11c.18.54-.12,1.16-.67,1.34Zm-2.64-7.44l-1.34.46-.93-2.81,1.34-.44.93,2.8Zm.54,1.11l-1.65.54c-.54.19-1.14-.12-1.34-.67l-1.02-3.11c-.19-.54.11-1.14.67-1.34l1.64-.54c.56-.18,1.16.12,1.34.67l1.04,3.13c.18.54-.12,1.14-.67,1.32h0Z"/>
        <path class="cls-2" d="m331.31,148.82c-.35.11-.72-.09-.84-.44l-1.28-3.85c-.11-.35.09-.72.44-.84.35-.12.74.07.84.42l1.28,3.85c.11.35-.07.74-.44.86h0Zm-2.09-6.33c-.35.12-.72-.07-.84-.42l-1.28-3.85c-.11-.35.09-.74.44-.86.35-.11.74.09.84.44l1.28,3.85c.11.35-.09.72-.44.84h0Z"/>
      </g>
      <path class="cls-2" d="m326.56,134.79c-.04-.37.23-.69.6-.73l4.04-.38c.37-.02.7.25.74.62.02.37-.25.7-.62.72l-4.04.38c-.37.02-.68-.25-.72-.62h0Z"/>
      <g>
        <path class="cls-3" d="m252.91,142.37l.48,1.26,2.65-1.01-.48-1.26-2.65,1.01Zm-1.15.28l.59,1.55c.21.53.8.79,1.31.59l2.95-1.12c.53-.21.79-.8.59-1.31l-.6-1.56c-.2-.51-.79-.78-1.31-.59l-2.94,1.13c-.52.19-.79.8-.59,1.31h0Zm7.13-2.57l.47,1.27,2.66-1.02-.48-1.26-2.65,1.01Zm-1.15.28l.59,1.55c.2.54.8.79,1.31.59l2.95-1.12c.51-.2.78-.79.59-1.31l-.6-1.56c-.2-.51-.79-.78-1.31-.59l-2.95,1.14c-.52.19-.78.79-.58,1.3h0Z"/>
        <path class="cls-2" d="m248.96,144.61c.14.33.51.5.85.37l3.64-1.4c.34-.12.49-.49.37-.83-.12-.34-.5-.51-.84-.39l-3.64,1.4c-.34.12-.51.5-.39.84Zm5.99-2.29c.12.34.5.51.84.39l3.64-1.4c.34-.12.51-.5.39-.84-.14-.33-.51-.5-.85-.37l-3.64,1.4c-.34.12-.49.49-.37.83Z"/>
        <path class="cls-3" d="m265.48,138.35l.26,1.33,2.78-.53-.26-1.33-2.78.53Zm-1.18.08l.31,1.63c.12.55.65.92,1.19.81l3.1-.59c.55-.12.92-.65.81-1.19l-.32-1.64c-.11-.54-.64-.9-1.19-.81l-3.09.6c-.55.09-.92.65-.81,1.19h0Zm7.47-1.29l.24,1.34,2.8-.54-.26-1.33-2.78.53Zm-1.18.08l.31,1.63c.1.56.65.92,1.19.81l3.1-.59c.54-.11.9-.64.81-1.19l-.32-1.64c-.11-.54-.64-.9-1.19-.81l-3.11.61c-.55.09-.9.64-.79,1.18h0Z"/>
        <path class="cls-2" d="m261.2,139.87c.08.34.42.58.77.52l3.83-.74c.35-.06.57-.4.51-.75-.06-.35-.41-.59-.76-.53l-3.83.74c-.35.06-.59.41-.53.76Zm6.3-1.21c.06.35.41.59.76.53l3.83-.74c.35-.06.59-.41.53-.76-.08-.34-.42-.58-.77-.52l-3.83.74c-.35.06-.57.4-.51.75Z"/>
        <path class="cls-3" d="m278.45,135.96l.26,1.33,2.78-.53-.26-1.33-2.78.53Zm-1.18.08l.31,1.63c.12.55.65.92,1.19.81l3.1-.59c.55-.12.92-.65.81-1.19l-.32-1.64c-.11-.54-.64-.9-1.19-.81l-3.09.6c-.55.09-.92.65-.81,1.19h0Zm7.47-1.29l.24,1.34,2.8-.54-.26-1.33-2.78.53Zm-1.18.08l.31,1.63c.1.56.65.92,1.19.81l3.1-.59c.54-.11.9-.64.81-1.19l-.32-1.64c-.11-.54-.64-.9-1.19-.81l-3.11.61c-.55.09-.9.64-.79,1.18h0Z"/>
        <path class="cls-2" d="m274.16,137.48c.08.34.42.58.77.52l3.83-.74c.35-.06.57-.4.51-.75-.06-.35-.41-.59-.76-.53l-3.83.74c-.35.06-.59.41-.53.76Zm6.3-1.21c.06.35.41.59.76.53l3.83-.74c.35-.06.59-.41.53-.76-.08-.34-.42-.58-.77-.52l-3.83.74c-.35.06-.57.4-.51.75Z"/>
        <path class="cls-3" d="m291.24,133.53l.26,1.33,2.78-.53-.26-1.33-2.78.53Zm-1.18.08l.31,1.63c.12.55.65.92,1.19.81l3.1-.59c.55-.12.92-.65.81-1.19l-.32-1.64c-.11-.54-.64-.9-1.19-.81l-3.09.6c-.55.09-.92.65-.81,1.19h0Zm7.47-1.29l.24,1.34,2.8-.54-.26-1.33-2.78.53Zm-1.18.08l.31,1.63c.1.56.65.92,1.19.81l3.1-.59c.54-.11.9-.64.81-1.19l-.32-1.64c-.11-.54-.64-.9-1.19-.81l-3.11.61c-.55.09-.9.64-.79,1.18h0Z"/>
        <path class="cls-2" d="m286.95,135.05c.08.34.42.58.77.52l3.83-.74c.35-.06.57-.4.51-.75-.06-.35-.41-.59-.76-.53l-3.83.74c-.35.06-.59.41-.53.76Zm6.3-1.21c.06.35.41.59.76.53l3.83-.74c.35-.06.59-.41.53-.76-.08-.34-.42-.58-.77-.52l-3.83.74c-.35.06-.57.4-.51.75Z"/>
        <path class="cls-3" d="m303.98,130.94l.26,1.33,2.78-.53-.26-1.33-2.78.53Zm-1.18.08l.31,1.63c.12.55.65.92,1.19.81l3.1-.59c.55-.12.92-.65.81-1.19l-.32-1.64c-.11-.54-.64-.9-1.19-.81l-3.09.6c-.55.09-.92.65-.81,1.19h0Z"/>
        <path class="cls-2" d="m299.7,132.47c.08.34.42.58.77.52l3.83-.74c.35-.06.57-.4.51-.75-.06-.35-.41-.59-.76-.53l-3.83.74c-.35.06-.59.41-.53.76Zm6.3-1.21c.06.35.41.59.76.53l3.83-.74c.35-.06.59-.41.53-.76-.08-.34-.42-.58-.77-.52l-3.83.74c-.35.06-.57.4-.51.75Z"/>
      </g>
      <path class="cls-14" d="m234.76,106.61c.79,4.01,18.77,40.36,22.03,44.83,3.26,4.47,40.78-5.22,42.93-7.36,1.55-1.54.67-9.24,3.93-10.78,3.25-1.54,6.62,6.16,7.87,5.13,1.95-1.61-2.79-7.19-2.79-7.19,0,0,4.69,3.41,5.47,2.22,1.35-2.05-5.43-9.24-8.38-10.27-2.95-1.03-8.38,1.71-9.62,2.57-1.24.86-3.26,11.63-3.26,11.63,0,0-28.08,2.22-28.86,1.88-.78-.34-10.82-29.93-12.26-36.59-1.71-7.9-20.17-11.83-17.07,3.91Z"/>
      <path class="cls-6" d="m157.35,281.5c.18.06.31.16.4.13.19-.05.37-.43.28-.54-.04-.05-.15-.05-.24-.09.02.14.02.22.03.29-.06-.02-.16-.02-.18-.07-.03-.06-.03-.21,0-.22.14-.07.29-.1.44-.14.04.14.14.3.09.42-.06.18-.2.35-.35.48-.07.06-.26.07-.36.02-.07-.03-.08-.19-.12-.28Z"/>
      <path class="cls-6" d="m157.23,280.97l.32.23c-.15.1-.27.23-.41.26-.08.02-.24-.1-.28-.19-.1-.28.2-.73.49-.76.09-.01.22.02.28.07.06.06.05.18.06.25-.15-.06-.33-.17-.37-.14-.14.14-.23.32-.33.49,0,.02.08.09.13.13.03-.05.07-.11.09-.17.01-.03,0-.07,0-.16Z"/>
      <g>
        <g>
          <path class="cls-10" d="m155.12,245.35c-3.07,3.84-9.8,13.91-13.06,22.25-3.27,8.34-5.91,13.04,1.79,16.46,7.7,3.42,41.64,17.34,48.06,18.93,6.42,1.59,23.58,4.38,25.37-1,1.79-5.38.18-9.47-3.23-11.31-3.41-1.84-6.96-6.72-10.44-9.95-3.48-3.23-12.44-10.62-12.73-12.48-.29-1.86-2.9-20.14-5.41-22.82-1.16-1.23-7.96.24-14.52.3-7.69.07-15.24-1.11-15.82-.38Z"/>
          <path class="cls-20" d="m214.05,290.68c-2.4-1.3-3.36-3.33-6.96-6.29-.72.12-1.04-.3-1.8-.87-1.58-1.18-3.02-3.2-5.12-3.41-1.37-.14-2.63.48-3.98.17-1.65-.38-3.18-2.1-4.32-3.25-1.34-1.36-2.55-2.82-3.71-4.33-1.31-1.7-2.6-3.87-4.27-5.22-2.09-1.69-5.95-2.14-8.41-1.75-.35.06-.5-.46-.22-.64,1.78-1.11,5.13-1.63,5.87-3.7.62-1.73.54-3.58.27-5.38-.55-3.58-.93-7.38-2.1-10.85-2.49.22-5.45.53-8.36.55-7.69.07-15.24-1.11-15.82-.38-3.07,3.84-9.8,13.91-13.06,22.25-3.27,8.34-5.7,12.31,2,15.72,7.7,3.42,41.41,17.59,47.83,19.18,6.42,1.59,23.6,4.87,25.39-.5,1.79-5.38.18-9.47-3.23-11.31Z"/>
          <path class="cls-7" d="m205.29,283.52c-.48-.36-.95-.79-1.42-1.23-.39.27-.77.54-1.13.83-.82.66-2.13,1.65-2.23,2.81-.15,1.73,2.19,2.76,3.48,3.3,2.5,1.06,1.31.59,3.9,1.36,1.47.43,3.07,1.01,4.62.92.73-.05,1.37-.26,1.94-.6-.13-.08-.29-.13-.4-.24-2.16-2.18-3.36-3.33-6.96-6.29-.72.12-1.04-.3-1.8-.87Z"/>
          <path class="cls-18" d="m150.22,253.88c1.12,2.01,3.52,3.99,5.11,5.66,3.13,3.29,7.04,5.32,11.57,6.19,3.9.75,6.71.65,10.49-.23,1.56-1.03,3.11-2.31,3.75-4.11.62-1.73.54-3.58.27-5.38-.55-3.58-.93-7.38-2.1-10.85-2.49.22-5.45.53-8.36.55-7.69.07-15.24-1.11-15.82-.38-1.31,1.63-3.28,4.4-5.36,7.68.15.29.3.57.46.85Z"/>
          <path class="cls-9" d="m168.45,264.8c-4.97-.84-9.27-3.37-12.81-6.63-1.79-1.65-3.45-3.47-4.74-5.47-.16-.24-.31-.49-.46-.73-.23.35-.45.7-.68,1.06.15.29.3.57.46.85,1.12,2.01,2.57,3.85,4.16,5.51,3.13,3.29,7.08,5.44,11.51,6.72,5.06,1.46,10.21.02,13.98-.86.44-.29-1.62-.34-1.2-.67-3.34.58-6.74.81-10.22.22Z"/>
          <path class="cls-18" d="m215.11,291.38c-.66.46-1.41.77-2.27.82-1.97.12-3.8-.58-5.68-1.07-2.66-.7-1.57-.29-4.06-1.52-2.23-1.1-4.54-3.07-2.43-5.5.77-.89,1.71-1.6,2.68-2.27-.94-.84-1.95-1.59-3.19-1.72-1.24-.12-2.37.36-3.57.23-6.98,4.35-13.68,9-20.06,14.3-.61.5-1.22,1-1.84,1.48,7.8,3.13,14.64,5.74,17.19,6.37,6.42,1.59,23.6,4.87,25.39-.5,1.59-4.78.49-8.54-2.17-10.61Z"/>
          <path class="cls-9" d="m179.53,293.65c5.94-4.93,12.15-9.3,18.6-13.38-.51.08-1.02.14-1.54.08-6.98,4.35-13.68,9-20.06,14.3-.61.5-1.22,1-1.84,1.48.51.2,1.01.4,1.5.6,1.58-1.48,3.06-2.85,3.33-3.08Z"/>
          <path class="cls-18" d="m172.52,289.41c.32-3.82-.44-7.11-3.14-9.95-2.2-2.3-4.82-4.09-7.48-5.81-4.11-2.65-8.73-5.31-11.97-9.03-1.84-2.12-2.8-4.44-3-6.92-1.87,3.26-3.63,6.7-4.88,9.9-3.27,8.34-5.7,12.31,2,15.72,4.27,1.9,16.57,7.11,27.76,11.64.29-1.85.56-3.7.71-5.56Z"/>
          <path class="cls-9" d="m149.17,265.63c3.29,3.85,7.99,6.58,12.17,9.3,2.71,1.76,5.38,3.6,7.61,5.98,2.74,2.92,3.49,6.34,3.14,10.31-.11,1.23-.27,2.46-.45,3.69.05.02.11.04.16.06.29-1.85.56-3.7.71-5.56.32-3.82-.44-7.11-3.14-9.95-2.2-2.3-4.82-4.09-7.48-5.81-4.11-2.65-8.73-5.31-11.97-9.03-1.84-2.12-2.8-4.44-3-6.92-.24.42-.48.85-.72,1.28.27,2.38,1.22,4.61,2.96,6.65Z"/>
          <path class="cls-27" d="m217.96,296.84c-5.71,2.4-18.5-.35-24.14-1.85-6.56-1.74-41.06-16.78-48.93-20.39-2.18-1-3.56-2.03-4.36-3.16-2.27,5.81-2.88,9.04,3.52,11.88,7.7,3.42,41.41,17.59,47.83,19.18,6.42,1.59,23.6,4.87,25.39-.5.63-1.89.83-3.62.69-5.15Z"/>
          <path class="cls-10" d="m191.4,300.36c.3-.48.6-.95.9-1.43,0,0,0,0,0,0-6.5-1.86-40.66-17.54-48.46-21.3-2.16-1.04-3.53-2.09-4.31-3.25-.25.63-.48,2.02-.48,2.02.82,1.01,1.92,1.72,3.84,2.64,7.8,3.77,41.96,19.44,48.46,21.3.02,0,.05.01.07.02Z"/>
          <path class="cls-10" d="m190.04,296.25c-2.83-.03-4.53,1.73-6.14,3.69,3.62,1.37,6.46,2.37,7.91,2.73,6.42,1.59,23.6,4.87,25.39-.5.49-1.48.71-2.86.72-4.12-9.24,3.61-26.02-1.78-27.89-1.8Z"/>
          <path class="cls-7" d="m182.22,271.35c-3.72,1.59-8.99,2.95-11.41,3.7-2.42.76,7.31,13.23,10.7,11.18,3.39-2.04,8.62-6.87,8.62-6.87l-7.91-8.02Z"/>
          <path class="cls-7" d="m171.5,248.31c-4.17-.45-12.74-1.24-14.2.58s-1.51,7.93,3.58,9.49c5.08,1.56,14.52,1.11,14.28-1.65s-.63-8.09-3.66-8.41Z"/>
          <path class="cls-11" d="m179.67,251.25c0,1.23-.61,2.23-1.38,2.23-.77,0-1.41-.98-1.41-2.21s.61-2.23,1.38-2.23c.77,0,1.41.98,1.41,2.21Z"/>
          <path class="cls-11" d="m180.04,257.87c0,1.23-.61,2.23-1.38,2.23-.77,0-1.41-.98-1.41-2.21s.61-2.23,1.38-2.23c.77,0,1.41.98,1.41,2.21Z"/>
          <path class="cls-11" d="m181.31,267.05c.3.91.08,1.8-.49,1.99-.57.19-1.28-.39-1.58-1.3-.3-.91-.08-1.8.49-1.99.57-.19,1.28.39,1.58,1.3Z"/>
          <path class="cls-11" d="m185.94,270.91c.56.78.62,1.7.12,2.05-.49.35-1.34,0-1.9-.77-.56-.78-.62-1.7-.12-2.05.49-.35,1.34,0,1.9.77Z"/>
          <path class="cls-11" d="m190.27,275.29c.68.68.87,1.58.45,2-.43.43-1.32.22-2-.46-.68-.68-.87-1.58-.45-2,.43-.43,1.32-.22,2,.46Z"/>
          <path class="cls-11" d="m193.67,278.88c.68.68.87,1.58.45,2-.43.43-1.32.22-2-.46-.68-.68-.87-1.58-.45-2s1.32-.22,2,.46Z"/>
          <path class="cls-10" d="m157.09,247.13c.58-.73,8.13.44,15.82.38,5.35-.05,10.87-1.04,13.34-.73-.27-.6-.53-1.07-.8-1.35-1.16-1.23-7.96.24-14.52.3-7.69.07-15.24-1.11-15.82-.38-.94,1.17-2.22,2.93-3.63,5.04,2.55-1.07,4.66-2.07,5.61-3.26Z"/>
          <path class="cls-7" d="m188.47,251.49c.02.34-.18.63-.44.64l-9.7.64c-.26.01-.48-.26-.49-.6l-.07-1.55c-.02-.34.18-.63.44-.64l9.7-.64c.26-.01.48.26.49.6l.07,1.55Z"/>
          <path class="cls-7" d="m189.95,257.11c.04.34-.13.64-.38.68l-10.95,1.74c-.26.03-.5-.22-.54-.56l-.2-1.54c-.04-.34.13-.64.38-.68l10.95-1.74c.26-.03.5.22.54.56l.2,1.54Z"/>
          <path class="cls-7" d="m191.36,264.01c.11.32,0,.66-.24.74l-10.37,3.92c-.24.08-.53-.11-.64-.43l-.51-1.47c-.11-.32,0-.66.24-.74l10.37-3.92c.24-.08.53.11.64.43l.51,1.47Z"/>
          <path class="cls-7" d="m192.44,268.81c.15.31.09.65-.15.76l-6.49,3.26c-.23.11-.54-.05-.69-.35l-.68-1.4c-.15-.31-.09-.65.15-.76l6.49-3.26c.23-.11.54.05.69.35l.68,1.4Z"/>
          <path class="cls-7" d="m195.06,271.9c.23.26.26.6.06.78l-4.79,4.37c-.19.17-.53.1-.76-.16l-1.03-1.17c-.23-.26-.26-.6-.06-.78l4.79-4.37c.19-.17.53-.1.76.16l1.03,1.17Z"/>
          <path class="cls-7" d="m198.19,275.1c.25.24.31.58.13.77l-4.39,4.77c-.18.19-.52.15-.77-.09l-1.13-1.07c-.25-.24-.31-.58-.13-.77l4.39-4.77c.18-.19.52-.15.77.09l1.13,1.07Z"/>
          <path class="cls-11" d="m197.93,282.37c.8.53,1.17,1.37.84,1.87-.33.5-1.25.48-2.05-.05-.8-.53-1.17-1.37-.84-1.87s1.25-.48,2.05.05Z"/>
          <path class="cls-7" d="m202.03,278.17c.27.21.36.55.2.75l-3.93,5.16c-.16.2-.51.19-.78-.02l-1.22-.96c-.27-.21-.36-.55-.2-.75l3.93-5.16c.16-.2.51-.19.78.02l1.22.96Z"/>
        </g>
        <g>
          <path class="cls-6" d="m175.73,277.18c.02-.09.05-.18.07-.27.06-.35-.02-.65-.3-.88-.29-.24-.64-.21-.92-.05-.4.21-.75.52-.86.99-.1.39.13.79.51.88.11.03.27-.02.37-.08.15-.1.28-.25.44-.39l.33.36c-.06.04-.14.08-.19.13-.2.18-.36.41-.69.32-.42-.12-.78-.32-.97-.74-.29-.64-.06-1.29.64-1.75.44-.29,1.15-.19,1.55.25.26.28.38.63.31,1.02-.02.1-.12.2-.19.29-.03-.02-.06-.04-.09-.06Z"/>
          <path class="cls-6" d="m180.16,283.61c-.16.05-.33.16-.49.15-.54-.02-1.02-.46-1.17-1.03-.13-.49.13-1.04.68-1.42.41-.28.97-.28,1.39,0,.33.23.49.57.58.94.05.23,0,.44-.33.57.02-.12.04-.2.06-.29.08-.36.02-.69-.29-.93-.3-.23-.64-.24-.94-.03-.28.2-.57.44-.75.73-.34.53.1,1.2.75,1.21.16,0,.32-.01.48-.02,0,.04.02.07.03.11Z"/>
          <path class="cls-6" d="m178.38,281.68c-.09.25-.25.29-.47.25-.59-.1-1.06-.56-1.11-1.12-.06-.59.36-1.22.95-1.45.86-.35,1.66.37,1.72,1.21.01.15-.18.31-.28.46-.02-.02-.05-.03-.07-.05.03-.17.08-.34.09-.51.04-.48-.36-.89-.83-.86-.53.03-1.14.57-1.23,1.09-.1.55.25.97.81.98.13,0,.27,0,.43-.02Z"/>
          <path class="cls-6" d="m177.99,278.56c-.46.43-.82.77-1.19,1.1-.44.39-.93.4-1.28.03-.41-.43-.41-.93,0-1.37.18-.19.38-.36.58-.54.19-.18.38-.35.58-.53l.26.28c-.38.35-.77.7-1.14,1.06-.34.33-.36.65-.07.97.26.29.65.29.98,0,.34-.31.67-.64,1.02-.95.05-.04.15-.03.28-.05Z"/>
          <path class="cls-6" d="m181.68,282.66l.3.32-1.79,1.66-.3-.32,1.79-1.66Z"/>
        </g>
        <g>
          <path class="cls-17" d="m145.58,270.76c0-.09,0-.19,0-.28-.03-.35-.18-.62-.51-.78-.34-.16-.67-.04-.91.18-.34.31-.59.69-.58,1.18,0,.4.32.73.72.72.12,0,.26-.09.34-.18.12-.14.21-.31.32-.49l.41.26c-.05.06-.11.11-.15.17-.14.23-.24.49-.59.48-.44-.01-.84-.11-1.13-.47-.45-.54-.38-1.23.17-1.86.35-.39,1.06-.47,1.57-.15.33.21.52.52.56.91,0,.11-.07.22-.1.33-.04-.01-.07-.03-.11-.04Z"/>
          <path class="cls-17" d="m151.5,275.86c-.14.09-.28.23-.43.27-.53.11-1.1-.19-1.39-.7-.25-.44-.14-1.03.3-1.54.32-.38.86-.52,1.34-.35.38.14.62.43.8.76.11.21.11.43-.17.63,0-.12,0-.21-.01-.29-.02-.37-.15-.67-.52-.83-.35-.15-.68-.07-.91.21-.22.27-.44.57-.54.9-.19.6.4,1.14,1.03.98.16-.04.31-.09.46-.14.02.03.04.07.05.1Z"/>
          <path class="cls-17" d="m149.29,274.44c-.03.26-.17.34-.39.36-.6.05-1.16-.28-1.36-.8-.21-.55.04-1.27.55-1.65.74-.55,1.7-.07,1.97.74.05.14-.09.34-.15.52-.03,0-.05-.02-.08-.03-.01-.17,0-.35-.04-.52-.09-.47-.58-.76-1.02-.62-.51.16-.96.84-.92,1.37.04.56.48.88,1.03.75.13-.03.26-.08.41-.12Z"/>
          <path class="cls-17" d="m148.12,271.53c-.34.53-.6.95-.88,1.37-.32.49-.8.62-1.23.35-.5-.31-.63-.8-.34-1.32.13-.23.28-.44.42-.66.14-.22.28-.44.42-.66l.32.21c-.28.44-.56.88-.84,1.32-.25.4-.18.72.17.95.33.21.7.12.94-.25.25-.39.49-.79.74-1.17.04-.05.13-.07.26-.12Z"/>
          <path class="cls-17" d="m152.73,274.55l.37.23-1.31,2.06-.37-.23,1.31-2.06Z"/>
        </g>
      </g>
      <g>
        <g>
          <g>
            <path class="cls-10" d="m276.89,239.11c-.38,4.68-.34,16.24,1.53,24.59,1.86,8.34,2.28,13.48,10.2,12.08,7.92-1.4,42.23-8.48,48.16-10.65,5.93-2.17,21.01-9.11,19.56-14.32-1.45-5.21-4.91-7.6-8.59-7.24-3.68.36-9.1-1.61-13.58-2.31-4.48-.7-15.52-1.77-16.74-3.09-1.22-1.32-13.04-14.41-16.46-15.19-1.57-.36-6.18,4.44-11.34,7.98-6.06,4.16-12.66,7.25-12.73,8.14Z"/>
            <path class="cls-20" d="m347.74,243.57c-2.6.26-4.44-.85-8.86-1.27-.5.48-.98.32-1.89.27-1.88-.09-4.1-.92-5.87.03-1.16.62-1.82,1.78-3.06,2.26-1.51.57-3.64.04-5.16-.27-1.78-.36-3.52-.87-5.25-1.45-1.94-.65-4.12-1.68-6.16-1.85-2.55-.22-5.86,1.48-7.59,3.1-.25.23-.64-.1-.51-.39.82-1.83,3.2-4.03,2.68-6.06-.44-1.7-1.48-3.13-2.66-4.4-2.35-2.54-4.67-5.35-7.45-7.47-1.85,1.51-4.03,3.32-6.33,4.9-6.06,4.16-12.66,7.25-12.73,8.14-.38,4.68-.34,16.24,1.53,24.59,1.86,8.34,2.05,12.79,9.97,11.39,7.92-1.4,42.18-8.16,48.11-10.33,5.93-2.17,21.29-8.73,19.84-13.94-1.45-5.21-4.91-7.6-8.59-7.24Z"/>
            <path class="cls-7" d="m336.98,242.57c-.57-.03-1.17-.12-1.78-.22-.16.42-.32.84-.45,1.26-.3.96-.8,2.44-.26,3.42.81,1.45,3.2,1.02,4.52.76,2.55-.5,1.35-.23,3.81-1,1.39-.44,2.97-.83,4.15-1.74.56-.43.95-.94,1.22-1.51-.15,0-.3.05-.45.02-2.87-.57-4.44-.85-8.86-1.27-.5.48-.98.32-1.89.27Z"/>
            <path class="cls-18" d="m277.56,248.48c1.96,1,4.92,1.28,7.07,1.76,4.23.93,8.42.46,12.46-1.27,3.49-1.49,5.66-3.06,8.18-5.77.69-1.65,1.23-3.49.78-5.25-.44-1.7-1.48-3.13-2.66-4.4-2.35-2.54-4.67-5.35-7.45-7.47-1.85,1.51-4.03,3.32-6.33,4.9-6.06,4.16-12.66,7.25-12.73,8.14-.16,1.99-.25,5.23-.15,8.94.27.15.54.29.82.43Z"/>
            <path class="cls-9" d="m297.82,247.4c-4.39,1.99-9.14,2.28-13.68,1.58-2.3-.35-4.58-.91-6.67-1.81-.25-.11-.5-.22-.75-.34,0,.4.01.8.03,1.2.27.15.54.29.82.43,1.96,1,4.09,1.67,6.24,2.15,4.23.93,8.51.53,12.69-.82,4.79-1.54,8.09-5.43,10.61-8.14.19-.46-1.46.59-1.31.11-2.34,2.25-4.9,4.23-7.97,5.63Z"/>
            <path class="cls-18" d="m348.95,243.56c-.28.72-.71,1.36-1.36,1.86-1.49,1.15-3.32,1.57-5.07,2.18-2.48.86-1.4.61-4.02.96-2.35.32-5.24-.01-4.86-3.06.14-1.12.5-2.18.91-3.23-1.2-.16-2.4-.22-3.44.34-1.04.56-1.69,1.55-2.71,2.09-3.21,7.16-6.03,14.42-8.26,22.02-.21.72-.44,1.44-.67,2.16,7.85-1.68,14.66-3.27,17.01-4.13,5.93-2.17,21.29-8.73,19.84-13.94-1.29-4.63-4.17-7.03-7.38-7.25Z"/>
            <path class="cls-9" d="m321.99,264.33c2.07-7.07,4.66-13.84,7.59-20.52-.36.33-.74.65-1.18.89-3.21,7.16-6.03,14.42-8.26,22.02-.21.72-.44,1.44-.67,2.16.51-.11,1.01-.22,1.51-.33.47-2.02.9-3.89,1-4.22Z"/>
            <path class="cls-18" d="m314.17,264.71c-1.78-3.19-4.14-5.4-7.79-6.2-2.97-.65-6-.67-9.02-.61-4.67.1-9.74.45-14.3-.77-2.58-.69-4.59-2.02-6.07-3.88.26,3.57.7,7.24,1.42,10.44,1.86,8.34,2.05,12.79,9.97,11.39,4.4-.78,16.91-3.21,28.19-5.59-.76-1.62-1.53-3.23-2.4-4.78Z"/>
            <path class="cls-9" d="m283,258.34c4.66,1.29,9.84.95,14.6.87,3.09-.05,6.18-.02,9.21.68,3.73.85,6.15,3.16,7.99,6.48.57,1.03,1.1,2.09,1.61,3.16.05-.01.11-.02.16-.03-.76-1.62-1.53-3.23-2.4-4.78-1.78-3.19-4.14-5.4-7.79-6.2-2.97-.65-6-.67-9.02-.61-4.67.1-9.74.45-14.3-.77-2.58-.69-4.59-2.02-6.07-3.88.03.47.07.93.11,1.4,1.48,1.74,3.43,3,5.89,3.68Z"/>
            <path class="cls-27" d="m354.12,246.36c-3.24,4.94-14.84,9.59-20.1,11.41-6.13,2.12-41.46,8.62-49.63,9.96-2.26.37-3.9.3-5.14-.18,1.3,5.81,2.54,8.7,9.13,7.53,7.92-1.4,42.18-8.16,48.11-10.33,5.93-2.17,21.29-8.73,19.84-13.94-.51-1.83-1.28-3.31-2.21-4.45Z"/>
            <path class="cls-10" d="m334.97,263.32c-.02-.54-.03-1.08-.05-1.61,0,0,0,0,0,0-6.14,2-41.56,7.81-49.74,8.98-2.26.33-3.91.22-5.15-.27.14.63.69,1.86.69,1.86,1.18.36,2.44.34,4.45.05,8.18-1.18,43.6-6.99,49.74-8.98.02,0,.05-.01.07-.02Z"/>
            <path class="cls-10" d="m331.7,260.79c-2.26,1.49-2.66,3.79-2.89,6.2,3.6-.84,6.39-1.57,7.73-2.06,5.93-2.17,21.29-8.73,19.84-13.94-.4-1.44-.96-2.64-1.63-3.65-5.39,7.79-21.55,12.47-23.05,13.46Z"/>
            <path class="cls-7" d="m312.22,245.24c-2.09,3.24-5.55,7.13-7.06,9.02-1.51,1.89,12.85,6.58,14.44,3.15,1.59-3.43,3.16-10.04,3.16-10.04l-10.54-2.13Z"/>
            <path class="cls-7" d="m291.44,232.72c-3.54,1.87-10.75,5.82-10.93,8.03s3.04,7.08,7.89,5.6c4.85-1.48,12.08-6.87,10.42-8.92s-4.82-6.07-7.38-4.71Z"/>
            <path class="cls-11" d="m299.48,230.68c.66.97.7,2.09.1,2.5-.61.42-1.64-.03-2.3-1s-.7-2.09-.1-2.5c.61-.42,1.64.03,2.3,1Z"/>
            <path class="cls-11" d="m303.3,235.73c.66.97.7,2.09.1,2.5-.61.42-1.64-.03-2.3-1s-.7-2.09-.1-2.5c.61-.42,1.64.03,2.3,1Z"/>
            <path class="cls-11" d="m309.21,242.32c.72.56,1.03,1.38.67,1.84-.35.46-1.23.37-1.95-.19-.72-.56-1.03-1.38-.67-1.84.35-.46,1.23-.37,1.95.19Z"/>
            <path class="cls-11" d="m314.93,242.91c.86.32,1.39,1.02,1.19,1.56-.2.54-1.06.72-1.92.4-.86-.32-1.39-1.02-1.19-1.56.2-.54,1.06-.72,1.92-.4Z"/>
            <path class="cls-11" d="m320.7,244.07c.9.18,1.53.78,1.42,1.35-.11.57-.93.88-1.83.7-.9-.18-1.53-.78-1.42-1.35.11-.57.93-.88,1.83-.7Z"/>
            <path class="cls-11" d="m325.31,245.09c.9.18,1.53.78,1.42,1.35-.11.57-.93.88-1.83.7-.9-.18-1.53-.78-1.42-1.35s.93-.88,1.83-.7Z"/>
            <path class="cls-10" d="m279.4,239.46c.07-.89,6.67-3.98,12.73-8.14,4.21-2.89,8.05-6.62,10.18-7.69-.53-.33-.99-.56-1.35-.64-1.57-.36-6.18,4.44-11.34,7.98-6.06,4.16-12.66,7.25-12.73,8.14-.12,1.43-.19,3.5-.19,5.93,1.45-2.21,2.58-4.12,2.7-5.57Z"/>
            <path class="cls-7" d="m306.58,226.18c.2.26.19.6,0,.74l-7.34,5.68c-.2.15-.52.05-.71-.21l-.88-1.19c-.2-.26-.19-.6,0-.74l7.34-5.68c.2-.15.52-.05.71.21l.88,1.19Z"/>
            <path class="cls-7" d="m310.74,229.84c.22.25.24.58.06.74l-7.75,7.22c-.18.16-.51.1-.73-.15l-.98-1.11c-.22-.25-.24-.58-.06-.74l7.75-7.22c.18-.16.51-.1.73.15l.98,1.11Z"/>
            <path class="cls-7" d="m315.54,234.55c.26.2.36.52.21.71l-6.13,8.64c-.15.2-.48.2-.74,0l-1.19-.89c-.26-.2-.36-.52-.21-.71l6.13-8.64c.15-.2.48-.2.74,0l1.19.89Z"/>
            <path class="cls-7" d="m318.96,237.78c.28.16.41.47.29.68l-3.4,6.05c-.12.21-.45.25-.74.09l-1.29-.74c-.28-.16-.41-.47-.29-.68l3.4-6.05c.12-.21.45-.25.74-.09l1.29.74Z"/>
            <path class="cls-7" d="m322.68,238.82c.32.08.52.34.46.58l-1.46,6.02c-.06.24-.37.36-.69.28l-1.44-.37c-.32-.08-.52-.34-.46-.58l1.46-6.02c.06-.24.37-.36.69-.28l1.44.37Z"/>
            <path class="cls-7" d="m326.87,239.69c.32.05.55.3.51.54l-.93,6.12c-.04.24-.34.39-.66.34l-1.46-.25c-.32-.05-.55-.3-.51-.54l.93-6.12c.04-.24.34-.4.66-.34l1.46.25Z"/>
            <path class="cls-11" d="m330.55,245.59c.92,0,1.66.46,1.66,1.03,0,.58-.73,1.05-1.65,1.06-.92,0-1.66-.46-1.66-1.03s.73-1.05,1.65-1.06Z"/>
            <path class="cls-7" d="m331.55,240.08c.33.02.58.24.56.49l-.37,6.18c-.02.25-.3.42-.63.4l-1.48-.11c-.33-.02-.58-.24-.56-.49l.37-6.18c.02-.25.3-.42.63-.4l1.48.11Z"/>
          </g>
          <g>
            <path class="cls-6" d="m310.19,253.33c-.03-.08-.06-.17-.09-.25-.14-.31-.36-.51-.71-.54-.36-.04-.61.18-.76.45-.21.38-.32.81-.15,1.25.13.36.52.56.88.42.1-.04.2-.16.25-.27.07-.16.09-.34.14-.54l.46.11c-.03.07-.07.13-.08.2-.06.25-.06.52-.38.62-.4.13-.79.16-1.16-.07-.58-.35-.73-.99-.43-1.73.19-.47.81-.76,1.36-.63.36.08.64.3.79.64.04.09,0,.22,0,.33-.04,0-.07,0-.11,0Z"/>
            <path class="cls-6" d="m317.13,256.05c-.1.13-.18.3-.31.38-.44.27-1.05.18-1.48-.19-.36-.32-.45-.89-.22-1.48.17-.44.61-.74,1.1-.74.38,0,.7.19.96.44.16.15.23.35.04.62-.04-.11-.07-.18-.1-.26-.13-.33-.35-.56-.73-.58-.37-.02-.64.15-.76.48-.11.31-.21.65-.2.98.02.6.72.9,1.24.56.13-.08.25-.18.37-.27.03.02.05.05.08.07Z"/>
            <path class="cls-6" d="m314.69,255.47c.06.25-.04.36-.24.45-.52.23-1.14.12-1.48-.29-.36-.43-.36-1.16-.03-1.66.5-.73,1.51-.6,2.01.04.09.11.02.34.03.51-.03,0-.05,0-.08,0-.07-.15-.12-.31-.2-.46-.23-.4-.76-.51-1.12-.24-.41.31-.6,1.06-.39,1.53.21.49.71.64,1.16.35.11-.07.21-.15.33-.24Z"/>
            <path class="cls-6" d="m312.72,253.21c-.14.58-.24,1.05-.36,1.51-.14.55-.52.81-1,.71-.55-.12-.82-.52-.72-1.09.04-.25.11-.49.17-.73.06-.24.11-.48.17-.73l.36.08c-.11.49-.23.97-.34,1.45-.1.44.06.71.46.8.36.09.67-.12.77-.53.11-.43.19-.86.3-1.29.01-.06.1-.1.2-.19Z"/>
            <path class="cls-6" d="m317.83,254.49l.41.1-.53,2.27-.41-.1.53-2.27Z"/>
          </g>
        </g>
        <path class="cls-17" d="m282.72,264.41c-.05-.07-.1-.13-.15-.2-.21-.23-.46-.35-.77-.28-.33.07-.49.33-.55.61-.08.39-.05.8.21,1.15.22.28.62.35.89.13.08-.06.14-.2.15-.3.02-.16-.02-.33-.03-.52l.43-.03c0,.07-.02.14-.02.2.02.24.09.48-.16.65-.32.22-.65.36-1.05.26-.61-.15-.92-.67-.86-1.41.04-.47.5-.9,1.03-.93.34-.02.65.09.87.35.06.07.07.19.1.29-.03,0-.06.02-.1.03Z"/>
        <path class="cls-17" d="m289.61,264.89c-.05.14-.07.31-.17.42-.32.36-.88.45-1.36.24-.41-.18-.64-.66-.61-1.25.03-.44.34-.83.77-.96.34-.1.67-.03.97.12.19.09.3.25.21.54-.07-.08-.12-.14-.16-.2-.21-.25-.47-.4-.8-.31-.33.08-.52.31-.54.63-.01.31,0,.64.09.92.18.53.88.6,1.25.15.09-.11.17-.23.25-.34.03.01.06.03.09.04Z"/>
        <path class="cls-17" d="m287.29,265.06c.12.2.06.33-.08.46-.4.35-.97.42-1.39.15-.44-.28-.64-.92-.48-1.46.24-.79,1.17-.95,1.79-.52.11.07.11.29.17.45-.02,0-.05.02-.07.02-.1-.12-.19-.24-.3-.35-.31-.29-.81-.24-1.05.1-.27.38-.24,1.1.08,1.46.32.37.81.37,1.13-.01.08-.09.14-.19.23-.3Z"/>
        <path class="cls-17" d="m284.92,263.61c.04.55.08.99.1,1.44.03.52-.24.86-.69.9-.52.05-.87-.23-.94-.76-.03-.23-.04-.46-.05-.69-.02-.23-.03-.46-.05-.69l.34-.02c.03.46.06.92.1,1.38.04.42.25.61.63.58.34-.02.56-.29.53-.68-.02-.41-.07-.82-.09-1.22,0-.06.06-.12.12-.22Z"/>
      </g>
      <path class="cls-17" d="m245.36,271.69l.34.19-1.07,1.88-.34-.19,1.07-1.88Z"/>
      <g>
        <g class="cls-1">
          <path class="cls-6" d="m306.88,26.16l2,1.69s-.02-.02-.03-.03l-2-1.69s.02.02.03.03Z"/>
          <path class="cls-6" d="m334.64,16.08l.19-2.18m-79.24,41.98l-3.93-3.86c-6.55-6.44-2.34-20.08-2.04-21.04l3.88,3.85c-.29.96-4.44,14.63,2.08,21.05h0Z"/>
          <path class="cls-6" d="m303.42,46.48l-3.63-3.66c-3.99-4.02-4.56-11.24-4.43-15.98,0-.05-.09-.86-.51-1.28l3.62,3.66c.42.42.5,1.23.51,1.28-.11,4.74.46,11.96,4.45,15.97Z"/>
          <path class="cls-6" d="m315.51,45.91c-4.03.85-7.43-.37-9.77-2.74l-3.61-3.65c2.35,2.37,5.76,3.6,9.82,2.77,11.46-2.35,19.15-18.98,13.45-24.84l3.43,3.53c5.69,5.86-1.94,22.52-13.32,24.92h0Z"/>
          <path class="cls-6" d="m291.57,28.31l-3.65-3.69c1.57-1.47,7.5-2.65,8.73-1.55l3.6,3.65c-1.24-1.11-7.15.14-8.68,1.59Z"/>
          <path class="cls-6" d="m269.75,55.54c-4.39.93-7.94-.25-10.33-2.61l-3.9-3.84c2.4,2.37,5.96,3.56,10.39,2.65,12.5-2.56,22.6-20.1,16.28-26.46l3.69,3.71c6.31,6.35-3.72,23.93-16.13,26.55Z"/>
          <path class="cls-6" d="m287.31,23.95l3.66,3.69c-1.61-1.63-6.44-5.49-15.07-3.99l-3.73-3.75c8.68-1.47,13.53,2.41,15.14,4.05h0Z"/>
          <path class="cls-6" d="m336.37,15.48l-.29,3.48-1.6,1.08c.08,1.13,1.53,22.81-18.41,28.51-12.05,3.45-17.41-4.45-17.09-18.05,0-.07-.16-1.4-.97-1.52-.81-.12-3.69.41-4.59.85-.89.44-1.36,1.9-1.39,1.97-2.69,13.11-9.91,24.97-23.61,26.95-23.2,3.37-15.32-22.6-14.92-23.93l-1.75-.56.59-3.91c6.87-1.53,13.72-5,23.56-6.72,10.52-1.83,15.41,4.34,15.67,4.66,1.55-1.47,7.45-2.68,8.68-1.59,3.79-4.81,10.37-9.32,17.06-10.27,9.85-1.4,13.42-.26,19.06-.97h0Zm-66.62,40.06c9.15-1.93,17.06-12.01,18-19.78.93-7.68-5.27-10.47-14.17-8.89-9.1,1.61-16.27,7.04-17.43,15.05-1.18,8.11,4.26,15.59,13.61,13.62m45.76-9.64c14.72-3.1,23.84-30.71,2.66-26.94-8.15,1.45-14.93,6.48-15.76,14s4.74,14.71,13.1,12.95"/>
          <path class="cls-6" d="m300.25,26.72l-3.6-3.66c3.82-4.79,10.45-9.27,17.18-10.19,9.91-1.36,13.49-.2,19.17-.89l3.38,3.5c-5.64.72-9.21-.43-19.06.97-6.76.96-13.32,5.53-17.06,10.27Z"/>
          <path class="cls-6" d="m251.76,34.28l-3.89-3.86.6-3.9,3.88,3.85-.59,3.91Z"/>
          <path class="cls-6" d="m252.34,30.37l-3.88-3.85c6.91-1.5,13.81-4.94,23.71-6.62l3.73,3.75c-10.03,1.75-16.57,5.16-23.56,6.72Z"/>
          <path class="cls-6" d="m273.58,26.87c-8.26,1.48-16.18,6.45-17.43,15.05-.52,3.56.25,7,2.07,9.59,3.39,4.8,9.03,5.05,13.62,3.44,8.19-2.89,15.04-11.96,15.91-19.2.99-8.2-6.07-10.34-14.18-8.89Zm44.59-7.91c-7.37,1.3-14.87,5.92-15.76,14-.87,7.85,4.94,14.67,13.1,12.95,7.87-1.61,14.55-10.61,15.22-18.26.68-7.79-5.32-9.97-12.56-8.69Z"/>
          <g>
            <path class="cls-6" d="m329.64,22.02l-6.63,19.96c-1.21,1.07-2.55,1.97-4.01,2.7l8.33-24.83c.96.55,1.73,1.27,2.3,2.18Zm-3.98-2.9l-8.92,26.45c-3.3,1.09-7.54.88-10.76-2.17l8.18-23.41c3.09-1.08,7.88-2,11.5-.88Z"/>
            <path class="cls-6" d="m285.27,28.45l-9.21,24.42c-1.31.85-2.72,1.55-4.22,2.08l10.62-27.93c1.09.33,2.03.81,2.81,1.42Zm-4.77-1.86l-11.11,29.01c-5.04.95-8.91-.9-11.17-4.09l9.02-22.76c3.68-1.6,9.02-2.75,13.26-2.16Z"/>
          </g>
        </g>
        <g>
          <path class="cls-12" d="m308.57,23.03l2,1.69s-.02-.02-.03-.03l-2-1.69s.02.02.03.03Z"/>
          <path class="cls-12" d="m336.33,12.95l.19-2.18m-79.24,41.98l-3.93-3.86c-6.55-6.44-2.34-20.08-2.04-21.04l3.88,3.85c-.29.96-4.44,14.63,2.08,21.05h0Z"/>
          <path class="cls-8" d="m305.12,43.34l-3.63-3.66c-3.99-4.02-4.56-11.24-4.43-15.98,0-.05-.09-.86-.51-1.28l3.62,3.66c.42.42.5,1.23.51,1.28-.11,4.74.46,11.96,4.45,15.97Z"/>
          <path class="cls-12" d="m317.21,42.77c-4.03.85-7.43-.37-9.77-2.74l-3.61-3.65c2.35,2.37,5.76,3.6,9.82,2.77,11.46-2.35,19.15-18.98,13.45-24.84l3.43,3.53c5.69,5.86-1.94,22.52-13.32,24.92h0Z"/>
          <path class="cls-13" d="m293.27,25.17l-3.65-3.69c1.57-1.47,7.5-2.65,8.73-1.55l3.6,3.65c-1.24-1.11-7.15.14-8.68,1.59Z"/>
          <path class="cls-12" d="m271.45,52.41c-4.39.93-7.94-.25-10.33-2.61l-3.9-3.84c2.4,2.37,5.96,3.56,10.39,2.65,12.5-2.56,22.6-20.1,16.28-26.46l3.69,3.71c6.31,6.35-3.72,23.93-16.13,26.55Z"/>
          <path class="cls-12" d="m289.01,20.81l3.66,3.69c-1.61-1.63-6.44-5.49-15.07-3.99l-3.73-3.75c8.68-1.47,13.53,2.41,15.14,4.05h0Z"/>
          <path class="cls-8" d="m338.07,12.34l-.29,3.48-1.6,1.08c.08,1.13,1.53,22.81-18.41,28.51-12.05,3.45-17.41-4.45-17.09-18.05,0-.07-.16-1.4-.97-1.52-.81-.12-3.69.41-4.59.85-.89.44-1.36,1.9-1.39,1.97-2.69,13.11-9.91,24.97-23.61,26.95-23.2,3.37-15.32-22.6-14.92-23.93l-1.75-.56.59-3.91c6.87-1.53,13.72-5,23.56-6.72,10.52-1.83,15.41,4.34,15.67,4.66,1.55-1.47,7.45-2.68,8.68-1.59,3.79-4.81,10.37-9.32,17.06-10.27,9.85-1.4,13.42-.26,19.06-.97h0Zm-66.62,40.06c9.15-1.93,17.06-12.01,18-19.78.93-7.68-5.27-10.47-14.17-8.89-9.1,1.61-16.27,7.04-17.43,15.05-1.18,8.11,4.26,15.59,13.61,13.62m45.76-9.64c14.72-3.1,23.84-30.71,2.66-26.94-8.15,1.45-14.93,6.48-15.76,14-.84,7.61,4.74,14.71,13.1,12.95"/>
          <path class="cls-12" d="m301.95,23.59l-3.6-3.66c3.82-4.79,10.45-9.27,17.18-10.19,9.91-1.36,13.49-.2,19.17-.89l3.38,3.5c-5.64.72-9.21-.43-19.06.97-6.76.96-13.32,5.53-17.06,10.27Z"/>
          <path class="cls-13" d="m253.45,31.14l-3.89-3.86.6-3.9,3.88,3.85-.59,3.91Z"/>
          <path class="cls-12" d="m254.04,27.23l-3.88-3.85c6.91-1.5,13.81-4.94,23.71-6.62l3.73,3.75c-10.03,1.75-16.57,5.16-23.56,6.72Z"/>
          <path class="cls-6" d="m275.28,23.73c-8.26,1.48-16.18,6.45-17.43,15.05-.52,3.56.25,7,2.07,9.59,3.39,4.8,9.03,5.05,13.62,3.44,8.19-2.89,15.04-11.96,15.91-19.2.99-8.2-6.07-10.34-14.18-8.89Zm44.59-7.91c-7.37,1.3-14.87,5.92-15.76,14-.87,7.85,4.94,14.67,13.1,12.95,7.87-1.61,14.55-10.61,15.22-18.26.68-7.79-5.32-9.97-12.56-8.69Z"/>
          <g>
            <path class="cls-28" d="m331.33,18.88l-6.63,19.96c-1.21,1.07-2.55,1.97-4.01,2.7l8.33-24.83c.96.55,1.73,1.27,2.3,2.18Zm-3.98-2.9l-8.92,26.45c-3.3,1.09-7.54.88-10.76-2.17l8.18-23.41c3.09-1.08,7.88-2,11.5-.88Z"/>
            <path class="cls-28" d="m286.97,25.31l-9.21,24.42c-1.31.85-2.72,1.55-4.22,2.08l10.62-27.93c1.09.33,2.03.81,2.81,1.42Zm-4.77-1.86l-11.11,29.01c-5.04.95-8.91-.9-11.17-4.09l9.02-22.76c3.68-1.6,9.02-2.75,13.26-2.16Z"/>
          </g>
        </g>
      </g>
    </g>
  </g>
</svg>