<?xml version="1.0" encoding="UTF-8"?>
<svg id="Layer_2" data-name="Layer 2" xmlns="http://www.w3.org/2000/svg" viewBox="0 0 399.25 305.63">
  <defs>
    <style>
      .cls-1 {
        opacity: .1;
      }

      .cls-2 {
        fill: #fcc900;
      }

      .cls-2, .cls-3, .cls-4, .cls-5 {
        fill-rule: evenodd;
      }

      .cls-2, .cls-3, .cls-4, .cls-5, .cls-6, .cls-7, .cls-8, .cls-9, .cls-10, .cls-11, .cls-12, .cls-13, .cls-14, .cls-15, .cls-16, .cls-17, .cls-18, .cls-19, .cls-20, .cls-21, .cls-22, .cls-23, .cls-24, .cls-25, .cls-26, .cls-27, .cls-28, .cls-29, .cls-30, .cls-31 {
        stroke-width: 0px;
      }

      .cls-3 {
        fill: #e9b702;
      }

      .cls-4 {
        fill: #f4c006;
      }

      .cls-5 {
        fill: #f8df2e;
      }

      .cls-7 {
        fill: #f9f5f5;
      }

      .cls-8 {
        fill: #4f91ff;
      }

      .cls-9 {
        fill: #53beed;
      }

      .cls-10 {
        fill: #2c3b53;
      }

      .cls-11 {
        fill: #474646;
      }

      .cls-12 {
        fill: #457aef;
      }

      .cls-13 {
        fill: #3a63df;
      }

      .cls-14 {
        fill: #3ba2ff;
      }

      .cls-15 {
        fill: #1a8ce4;
      }

      .cls-16 {
        fill: #1a3a9e;
      }

      .cls-17 {
        fill: #197bb5;
      }

      .cls-18 {
        fill: #3599d7;
      }

      .cls-19 {
        fill: #10489c;
      }

      .cls-20 {
        fill: #415371;
      }

      .cls-21 {
        fill: #113e56;
      }

      .cls-22 {
        fill: #20719e;
      }

      .cls-23 {
        fill: #162c70;
      }

      .cls-24 {
        fill: #165070;
      }

      .cls-25 {
        fill: #130073;
      }

      .cls-26 {
        fill: #112256;
      }

      .cls-27 {
        fill: #e2dfde;
      }

      .cls-28 {
        fill: #fff;
      }

      .cls-29 {
        fill: #00529a;
      }

      .cls-30 {
        fill: #0069ca;
      }

      .cls-31 {
        fill: #0061b9;
      }
    </style>
  </defs>
  <g id="Layer_1-2" data-name="Layer 1">
    <g>
      <path class="cls-3" d="m333.78,144.21l1.34.44.93-2.8-1.34-.44-.93,2.8Zm-.53,1.11l1.64.54c.56.18,1.16-.12,1.34-.67l1.04-3.11c.18-.56-.12-1.16-.67-1.34l-1.65-.54c-.55-.18-1.14.12-1.34.67l-1.02,3.11c-.19.54.12,1.16.67,1.34h0Zm2.62-7.44l1.34.46.93-2.81-1.34-.44-.93,2.8Zm-.53,1.11l1.64.54c.56.19,1.16-.12,1.34-.67l1.04-3.11c.18-.54-.12-1.14-.67-1.34l-1.65-.54c-.54-.18-1.14.12-1.34.67l-1.02,3.13c-.19.54.12,1.14.67,1.32h0Z"/>
      <path class="cls-2" d="m332.99,148.87c.35.11.74-.09.86-.44l1.27-3.85c.12-.35-.07-.72-.42-.84-.35-.12-.74.07-.86.42l-1.27,3.85c-.12.35.07.74.42.86Zm2.09-6.33c.35.12.74-.07.86-.42l1.27-3.85c.12-.35-.07-.74-.42-.86-.35-.11-.74.09-.86.44l-1.27,3.85c-.12.35.07.72.42.84Z"/>
      <g>
        <g>
          <path class="cls-29" d="m181.83,266.99c-6.31-2.41-7.49-4.64-7.25-12.05.15-5.05,3.97-5.53,6.19-11.82,1.82-5.15,1.59-5.25,1.61-12.84,0-1.74.12-5.69-.02-7.28-2.31-1.6-4.42-3.49-6.34-5.6-2.3-2.56-4.31-5.44-5.97-8.57-1.63-3.06-2.93-6.32-3.84-9.73-1.55-5.76-2.06-11.89-1.32-17.93,2.01-16.31,12.7-31.53,26.32-38.82,11.78-6.31,18.97-6.87,24.88-4.2,4.22,1.89,7.8,5.39,11.93,9.63,1.22,1.25,2.5,2.56,3.84,3.91,4.43,4.43,9.22,8.92,13.13,13.85,2.5,3.16,4.65,6.48,6.1,10.09,1.5,3.73,2.26,7.75,1.93,12.18-.1,1.27-.42,2.78-.94,4.48-1.98,6.5-6.38,16.07-13.03,25.03-15.61,21.03-23.85,18.81-32.3,32.02"/>
          <path class="cls-23" d="m224.98,221.77c-1.27,1.01-1.57,2.72.52,3.36,1.47.45,3.87-.54,4.01-2.28.09-1.11-1.09-1.8-2.18-1.85-.9-.04-1.74.28-2.35.77Z"/>
          <path class="cls-23" d="m194.7,217.13c-.87,1.42-.61,3.12,1.59,2.89,1.54-.16,3.49-2.01,3.05-3.67-.28-1.06-1.62-1.23-2.67-.85-.86.31-1.55.94-1.97,1.63Z"/>
          <path class="cls-22" d="m214.57,179.25c.93,1.34,2.52,1.67,3.71-.8,1.26-2.61,0-6.94-2.81-5.07-2.2,1.47-1.98,4.34-.91,5.87Z"/>
          <path class="cls-24" d="m213.06,186.69c.76-.19,1.53.3,1.8,1.99.17,1.04-.3,2.27-1.11,2.77-.81.5-1.87.18-2.26-.75-.75-1.75.4-3.71,1.57-4.02Z"/>
          <path class="cls-22" d="m200.78,153.66c.03-1.5-.93-2.6-2.5-1.26-1.1.94-1.77,3.33-.69,4.31.69.62,1.78.03,2.41-.81.52-.69.77-1.52.78-2.24Z"/>
          <path class="cls-21" d="m228.01,147.77c-.81,1.15-1.51,2.41-2.11,3.67-1.81,3.81-3.06,7.95-5.35,11.43-3.31,4.99-8.56,8.19-11.65,13.34-3.64,6.05-3.77,13.9-7.31,20.02-.61,1.06-1.64,2.18-2.7,1.82-.78-.27-1.15-1.2-1.38-2.06-2.41-9.06,1.19-18.8,4.71-27.64,4.08-10.24,8.11-20.86,13.87-30.2,4.22,1.89,7.8,5.39,11.93,9.63Z"/>
          <path class="cls-21" d="m180.16,188.96c-1.95,1.89-4.1,3.52-5.89,5.58-4.25,4.88-4.1,9.42-4.23,14.28-1.63-3.06-2.93-6.32-3.84-9.73,1.71-3.24,3.44-6.44,5.12-9.55,3.39-6.33,9.86-20.3,17.05-22.14,11.02-2.82-5,18.45-8.2,21.57Z"/>
          <path class="cls-26" d="m244.98,165.53c2.5,3.16,4.65,6.48,6.1,10.09-1.39.79-2.86,1.44-4.31,2.02-4.42,1.76-9.1,3.09-12.88,6.2-2.61,2.14-1.66,4.05-4.18,6.32-2.51,2.28-7.04.11-11.87,4.1-3.66.4,2.02-7.17,6.11-9.6,4.68-2.77,6.13-7.24,10.72-10.17,3.79-2.42,7.27-5.45,10.3-8.96Z"/>
          <path class="cls-26" d="m252.06,192.28c-1.98,6.5-6.8,15.77-13.03,25.03-4.31-.74-4.32-6.27-7.92-3.41-2.39,1.9-6.76-.08-8.17-.27-1.42-.19-4.03,2.3-4.37.79-.33-1.43.44-2.99,1.52-3.94,1.08-.94,2.43-1.4,3.74-1.86,4.2-1.45,8.45-2.98,12.2-5.57,1.76-1.2,3.37-2.63,5.09-3.9,2.43-1.82,6.84-5,10.95-6.88Z"/>
          <path class="cls-26" d="m202.69,204.55c-4.2,6.47-15.6,10.46-20.34,18.44-2.31-1.6-4.42-3.49-6.34-5.6.67-.93,3.39-1.93,4.07-2.86,1.52-2.04,2.39-2.52,3.45-4.89,2.13-4.75,6.33-.9,7.55-1.03,3.91-.44,3.85-1.53,7.15-3.96,3.33-2.86,5.11-1.13,4.46-.11Z"/>
        </g>
        <path class="cls-19" d="m292.75,102.41c.79,4.01,18.77,40.36,22.03,44.83,3.26,4.47,40.78-5.22,42.93-7.36,1.55-1.54.67-9.24,3.93-10.78,3.25-1.54,6.62,6.16,7.87,5.13,1.95-1.61-2.79-7.19-2.79-7.19,0,0,4.69,3.41,5.47,2.22,1.35-2.05-5.43-9.24-8.38-10.27-2.95-1.03-8.38,1.71-9.62,2.57-1.24.86-3.26,11.63-3.26,11.63,0,0-28.08,2.22-28.86,1.88-.78-.34-10.82-29.93-12.26-36.59-1.71-7.9-20.17-11.83-17.07,3.91Z"/>
        <path class="cls-30" d="m367.27,38.02s7.81-19.56,17.34-15.46c9.53,4.11,10.11,27.34,2.84,31.63l-20.18-16.18Z"/>
        <path class="cls-30" d="m255.91,42.44s-16.53,1.56-24.67,21.86c-14.3,35.68,26.91,55.7-68.5,76.84-55.81,12.37-62.35-14.82-101.45-17.97-9.98-.8-20.08-.47-29.13.58-26.39,2.98-43.72,18.5-23,14.9,53.87-9.37,45.34,16.48,83.38,51.54,12.9,11.89,29.06,14.88,39.62,18.28,50.81,16.35,93.73,9.75,130.16.93,70.06-16.97,30.08-85.48,46.57-98.83,0,0,67.55-.75,74.29-15.12,1.29-2.75,2.35-6.6,3.14-11.05,3.34-18.72,1.86-47.95-7.49-50.03-11.59-2.57-16.81,0-16.81,0,0,0-5.99-11.81-17.12-11.81s-13.02,15.14-16.9,14.38c-20.91-4.11-72.1,5.5-72.1,5.5"/>
        <path class="cls-15" d="m383.19,95.45c-7.73,14.88-73.87,15.04-73.87,15.04-19.8,21.66,31.83,79.53-47.75,105.89-35.58,11.78-78.59,8.44-129.4-7.91h-.01c103.42-9.47,127-81.19,128.43-106.66,1.41-25.47,21.44-23.3,21.44-23.3,4.44-.44,11.27-.34,19.17-.05,4.42.16,9.19.36,14.05.56,1.13.05,2.27.1,3.4.14,4.61.18,9.26.32,13.75.39,10.49.18,20.13-.1,26.38-1.54,17.5-4.05,25.85-7.75,28.68-23.81-.79,4.45,4.45,24.5-4.26,41.26Z"/>
        <path class="cls-28" d="m261.72,34.75c.66,9.5,8.18,16.61,16.8,15.88,8.61-.73,15.06-9.02,14.4-18.52-.66-9.5-8.18-16.61-16.8-15.88-8.61.73-15.06,9.02-14.4,18.52Z"/>
        <path class="cls-25" d="m265.05,35.78c.52,7.53,6.49,13.17,13.32,12.59,6.83-.58,11.94-7.15,11.41-14.68-.52-7.53-6.49-13.17-13.32-12.59-6.83.58-11.94,7.15-11.41,14.68Z"/>
        <path class="cls-28" d="m282.02,29.5c.19,2.65,2.29,4.64,4.69,4.43s4.21-2.52,4.02-5.17c-.18-2.65-2.29-4.64-4.69-4.43-2.41.2-4.21,2.52-4.02,5.17Z"/>
        <path class="cls-30" d="m283.05,56.84s-4.28-22.93-27.98-13.83c0,0,4.2,22.94,27.98,13.83Z"/>
        <path class="cls-23" d="m274.02,53.34c1.03-3.93-11.54-7.46-13.29-3.21-1.74,4.26,11.83,8.73,13.29,3.21Z"/>
        <g>
          <path class="cls-31" d="m274,234.44c-5.09,5.46-3.39,3.93-9.16,9.1-5.77,5.16-8.56,8.04-15.78,4.82-4.92-2.19-8.04-4.21-12.12-8.37s-7.13-7.57-10.92-12.7c-1.07-1.43-2.06-2.81-2.92-4.11-2.82,1.6-5.83,2.89-8.96,3.9-3.77,1.2-7.71,1.99-11.7,2.33-3.9.35-7.84.29-11.71-.2-6.54-.82-12.9-2.81-18.48-5.98-15.09-8.55-24.45-25.12-24.38-41.32.05-14.01,3.35-21.24,9.17-25.91,4.14-3.34,9.53-5.4,15.94-7.71,1.89-.68,3.87-1.39,5.94-2.15,6.76-2.52,13.78-5.36,20.77-7.16,4.47-1.16,8.92-1.9,13.27-1.85,4.51.05,8.9.94,13.11,3.05,1.2.61,2.53,1.53,3.94,2.73,5.38,4.55,11.99,13,17.83,22.81,9.5,15.95,10.32,40.18,7.03,52.18"/>
          <path class="cls-16" d="m244.72,181.22c.32,1.64,1.85,2.63,3.61.86,1.23-1.24,1.54-3.98-.12-4.83-1.06-.54-2.36.33-3,1.37-.52.86-.65,1.8-.5,2.6Z"/>
          <path class="cls-16" d="m223.89,208.8c.94,1.42,2.77,1.85,3.72-.37.67-1.56-.12-4.21-2.01-4.46-1.2-.16-2.08,1.08-2.27,2.25-.15.97.1,1.89.56,2.58Z"/>
          <path class="cls-16" d="m196.98,174.13c1.83-.37,3-1.77,1.19-3.94-1.91-2.28-6.89-2.8-6.53.68.28,2.73,3.24,3.68,5.34,3.26Z"/>
          <path class="cls-16" d="m203.55,178.6c.21-.82,1.12-1.36,2.94-.95,1.12.26,2.08,1.21,2.15,2.2.07.99-.83,1.89-1.95,1.9-2.14.02-3.47-1.89-3.14-3.16Z"/>
          <path class="cls-16" d="m164.22,177.18c-1.48-.64-3.07-.15-2.59,1.92.34,1.45,2.36,3.07,3.9,2.42.99-.41.99-1.72.49-2.68-.41-.79-1.09-1.36-1.81-1.67Z"/>
          <path class="cls-23" d="m172.97,148.3c.71,1.25,1.58,2.44,2.51,3.53,2.8,3.3,6.24,6.19,8.46,9.84,3.17,5.25,3.54,11.64,6.98,16.74,4.05,5.99,11.76,9.29,15.93,15.21.73,1.02,1.28,2.48.36,3.37-.68.65-1.81.63-2.78.51-10.27-1.32-18-8.77-24.88-15.77-7.97-8.12-16.34-16.34-22.51-25.72,4.14-3.34,9.53-5.4,15.94-7.71Z"/>
          <path class="cls-23" d="m188.17,211.53c.83,2.66,1.3,5.41,2.38,7.99,2.56,6.11,7.14,7.81,11.89,9.9-3.9.35-7.84.29-11.71-.2-2.3-2.98-4.54-5.96-6.73-8.84-4.46-5.86-14.84-17.81-12.82-25.55,3.1-11.86,15.61,12.34,16.99,16.71Z"/>
          <path class="cls-23" d="m199.67,138.98c4.47-1.16,8.92-1.9,13.27-1.85.04,1.67-.11,3.36-.31,5.01-.63,5.02-1.81,10.11-.75,15.04.72,3.4,3.12,3.26,4.03,6.62.92,3.36-3.66,6.89-2.3,13.21-1.56,3.73-6.03-4.87-6.24-9.83-.24-5.67-3.89-8.9-4.34-14.55-.37-4.67-1.51-9.28-3.36-13.65Z"/>
          <path class="cls-23" d="m230,142.92c5.38,4.55,11.99,13,17.83,22.81-3.05,3.89-8.54,1.66-7.62,6.33.61,3.1-3.71,6.54-4.65,7.83-.95,1.3.12,4.85-1.56,4.58-1.59-.26-2.73-1.63-3.09-3.08-.35-1.43-.09-2.93.16-4.39.82-4.68,1.58-9.42,1.02-14.12-.25-2.2-.8-4.35-1.14-6.53-.5-3.1-1.29-8.67-.95-13.44Z"/>
          <path class="cls-23" d="m215.7,195.93c4.17,6.7,2.01,19.41,7.38,27.25-2.82,1.6-5.83,2.89-8.96,3.9-.56-1.03-.1-4.08-.65-5.12-1.2-2.31-1.21-3.34-2.99-5.34-3.57-3.99,2.5-6.52,3.03-7.76,1.66-3.98.55-4.36-.09-8.56-1.05-4.4,1.62-5.43,2.28-4.38Z"/>
        </g>
        <path class="cls-28" d="m298.77,30.77c.66,9.5,8.18,16.61,16.8,15.88,8.61-.73,15.06-9.02,14.4-18.52-.66-9.5-8.18-16.61-16.8-15.88-8.61.73-15.06,9.02-14.4,18.52Z"/>
        <path class="cls-25" d="m302.1,31.8c.52,7.53,6.49,13.17,13.32,12.59,6.83-.58,11.94-7.15,11.41-14.68-.52-7.53-6.49-13.17-13.32-12.59-6.83.58-11.94,7.15-11.41,14.68Z"/>
        <path class="cls-28" d="m319.07,25.53c.19,2.65,2.29,4.64,4.69,4.43s4.21-2.52,4.02-5.17c-.18-2.65-2.29-4.64-4.69-4.43-2.41.2-4.21,2.52-4.02,5.17Z"/>
        <path class="cls-25" d="m347.86,30.37c-6.47,2.87-.59,17,4.55,15.52,5.14-1.48.1-17.58-4.55-15.52Z"/>
        <path class="cls-25" d="m381.77,30.37c6.47,2.87.59,17-4.55,15.52s-.1-17.58,4.55-15.52Z"/>
        <path class="cls-30" d="m309.31,50.42s3.65-20.48,28.34-15.48c0,0-3.57,20.47-28.34,15.48Z"/>
        <path class="cls-23" d="m318.66,45.86c-1.57-3.71,10.37-9.32,12.69-5.41,2.31,3.91-10.49,10.62-12.69,5.41Z"/>
        <path class="cls-23" d="m217.15,119.01c-.41,3.08,1.37,5.24,6.2,2.59,5.1-2.79,8.88-10.94,2.58-10.89-4.95.04-8.31,4.77-8.79,8.3Z"/>
        <path class="cls-23" d="m214.31,123.5c1.12.7,1.13,2.25-1.33,4.65-1.51,1.48-4,2.38-5.67,2s-2.26-2.09-1.18-3.7c2.05-3.06,6.46-4.03,8.19-2.94Z"/>
        <path class="cls-23" d="m251.11,70.26c.93-.12,1.81.59,2,2.69.12,1.29-.55,2.7-1.57,3.19-1.01.49-2.26-.06-2.66-1.24-.76-2.24.79-4.45,2.23-4.64Z"/>
        <path class="cls-23" d="m111.73,140.07c-4.32.47-6.77,2.95-1.83,5.9,3.46,2.06,10.79,2.66,12.83-.04,1.3-1.72-1.18-3.89-4.02-4.96-2.35-.89-4.88-1.13-6.97-.9Z"/>
        <path class="cls-23" d="m94.84,142.63c3.43-.23,5.59-2.23,1.99-4.9-2.52-1.87-8.21-2.66-10.06-.46-1.18,1.4.56,3.32,2.69,4.34,1.76.84,3.72,1.14,5.38,1.03Z"/>
        <path class="cls-28" d="m315.23,79.01c-.93,4.61-3.32,14.66-6.46,15.08-2.75.36-6.57-12.11-7.59-15.63,4.42.16,9.19.36,14.05.56Z"/>
        <path class="cls-28" d="m332.38,79.54c-.94,5.05-3.21,15.23-6.26,15.65-2.6.34-6.24-11.57-7.49-16.04,4.61.18,9.26.32,13.75.39Z"/>
      </g>
      <g>
        <path class="cls-2" d="m241.78,163.89l-1.86,4.81c.75.26,1.43.25,2-.02.57-.25.99-.72,1.27-1.43.23-.6.25-1.19,0-1.78-.25-.57-.72-1.1-1.41-1.59Zm2.37-12.71c-.69-.18-1.3-.15-1.83.12-.51.27-.9.77-1.18,1.48-.26.66-.3,1.24-.14,1.74.18.51.6.98,1.27,1.44l1.87-4.79Zm-9.17,23.48l1.61-4.13-.11-.04c-2.25-.88-3.81-2-4.65-3.34-.84-1.33-.94-2.84-.29-4.52.37-.95.92-1.62,1.65-2.04s1.47-.48,2.23-.18c.71.28,1.21.76,1.48,1.47.28.69.27,1.41-.02,2.15-.23.58-.53.99-.93,1.27-.38.29-.84.4-1.38.37.26.47.61.88,1.04,1.2.43.35.95.63,1.57.87l.44.17,2.15-5.51c-2.24-1.66-3.68-3.22-4.34-4.65-.64-1.43-.63-3.02.05-4.77.79-2.03,2.07-3.48,3.83-4.31,1.75-.86,3.74-.97,5.97-.36l.35-.9c.29.28.65.51,1.05.66s.8.22,1.22.22l-.34.87c1.99.89,3.39,1.98,4.13,3.27.75,1.27.82,2.7.22,4.22-.37.95-.9,1.61-1.59,2.03-.71.41-1.42.48-2.16.19s-1.19-.76-1.45-1.4c-.27-.65-.27-1.34,0-2.05.17-.43.41-.77.71-1.07.33-.29.71-.52,1.16-.69-.23-.34-.51-.65-.86-.92-.36-.29-.8-.51-1.3-.71l-2.11,5.4c2.25,1.55,3.71,3.1,4.4,4.64.68,1.55.66,3.27-.06,5.13-.84,2.14-2.12,3.57-3.83,4.31s-3.71.71-5.97-.1l-1.61,4.13-2.25-.88h0Z"/>
        <path class="cls-5" d="m241.78,163.89l-.19.49-.64-10.03c.03.07.04.13.05.18.18.51.6.98,1.27,1.44l.04-.09.58,9.07c-.27-.38-.64-.72-1.11-1.05h0Zm.08,4.82l.07-.03c.48-.21.86-.59,1.13-1.12l.28,4.39c-.4.06-.82.1-1.25.09l-.22-3.34Zm-4.62-18.56l.66,10.71c-1.19-1.08-2.02-2.13-2.47-3.12-.64-1.43-.63-3.02.05-4.77.44-1.12,1.02-2.05,1.75-2.82h0Zm1,16.17l.37,5.7-1.38,3.53-1.28-.5-.16-2.48.79-2.03-.11-.04c-.28-.11-.57-.22-.83-.34l-.22-3.43c.06.04.11.1.18.14.43.35.95.63,1.57.87l.44.17.62-1.59Zm-2.88-.72l-.34-5.31c.13.03.28.07.41.12.71.28,1.21.76,1.48,1.47.28.69.27,1.41-.02,2.15-.23.58-.53.99-.93,1.27-.18.13-.38.23-.59.3h0Zm6.45-17.65l.23,3.54c-.38.29-.68.72-.91,1.3-.12.31-.2.61-.22.89l-.36-5.49c.41-.11.83-.18,1.25-.24h0Zm5.28.25l.26,4.3c-.3-.18-.62-.33-.95-.46l-.98,2.5-.39-6.29c.08.01.15.04.23.05l.35-.9c.29.28.65.51,1.05.66.14.06.27.09.42.13h0Zm.38,6.1l.27,4.37c-.49-.28-.84-.69-1.04-1.2-.27-.65-.27-1.34,0-2.05.17-.43.41-.77.71-1.07l.06-.05Zm.4,6.4l.46,7.2c-.5,1.06-1.13,1.92-1.88,2.59l-.77-12.03c.9.75,1.65,1.5,2.19,2.24Z"/>
        <path class="cls-4" d="m249.06,141.94c1.69.66,2.52,2.56,1.86,4.26-.66,1.69-2.56,2.52-4.25,1.86-1.7-.66-2.54-2.57-1.88-4.25.66-1.69,2.56-2.53,4.26-1.88,0,0,0,0,.01,0Zm-.49,1.26c.99.39,1.48,1.5,1.09,2.51s-1.5,1.48-2.5,1.09-1.5-1.51-1.11-2.5,1.53-1.49,2.52-1.1h0Z"/>
        <path class="cls-3" d="m246.5,139.41l-1.29.4-.86-2.7,1.29-.4.86,2.7Zm.51,1.07l-1.6.5c-.53.16-1.1-.14-1.28-.66l-.94-3.01c-.18-.54.12-1.11.66-1.28l1.58-.5c.54-.16,1.11.14,1.28.66l.95,3.01c.16.53-.14,1.11-.66,1.28Zm-2.43-7.19l-1.29.42-.85-2.72,1.29-.4.86,2.7Zm.51,1.07l-1.6.5c-.53.18-1.1-.14-1.28-.66l-.94-3.01c-.18-.53.12-1.1.66-1.28l1.58-.5c.54-.16,1.11.14,1.28.66l.95,3.02c.16.53-.13,1.1-.66,1.26h0Z"/>
        <path class="cls-2" d="m247.2,143.91c-.34.1-.69-.1-.81-.44l-1.18-3.72c-.1-.34.1-.69.44-.81.34-.11.71.08.81.42l1.18,3.72c.1.34-.08.71-.44.82h0Zm-1.92-6.12c-.34.11-.69-.08-.81-.42l-1.18-3.72c-.1-.34.1-.71.44-.82.34-.1.71.1.81.43l1.18,3.72c.1.34-.1.69-.43.81h0Z"/>
        <path class="cls-3" d="m241.35,127.25l-1.09.8-1.68-2.28,1.09-.8,1.68,2.28Zm.83.85l-1.35.99c-.45.32-1.08.23-1.42-.21l-1.86-2.54c-.34-.46-.25-1.09.21-1.42l1.33-.98c.46-.33,1.1-.23,1.42.21l1.87,2.54c.32.45.23,1.1-.21,1.42Zm-4.62-6.02l-1.09.82-1.69-2.3,1.09-.8,1.68,2.28Zm.83.85l-1.35.99c-.44.34-1.08.23-1.42-.21l-1.86-2.54c-.34-.44-.24-1.08.21-1.42l1.33-.98c.46-.33,1.1-.23,1.42.21l1.88,2.55c.32.45.23,1.08-.22,1.4h0Z"/>
        <path class="cls-2" d="m243.46,131.27c-.29.2-.69.13-.9-.15l-2.32-3.14c-.2-.29-.13-.69.15-.9.28-.22.7-.16.9.13l2.32,3.14c.2.29.16.7-.15.92h0Zm-3.8-5.17c-.29.22-.68.15-.9-.13l-2.32-3.14c-.2-.29-.14-.7.15-.92.29-.2.7-.14.9.15l2.32,3.14c.2.29.13.69-.15.9h0Z"/>
        <path class="cls-3" d="m232.25,117.24l-.82,1.08-2.26-1.71.82-1.08,2.26,1.71Zm1.04.58l-1.01,1.33c-.34.44-.97.52-1.42.2l-2.5-1.91c-.46-.34-.55-.98-.2-1.42l1-1.32c.35-.45.99-.53,1.42-.2l2.52,1.9c.44.34.53.99.2,1.42Zm-6.14-4.46l-.81,1.09-2.27-1.72.82-1.08,2.26,1.71Zm1.04.58l-1.01,1.33c-.33.45-.97.52-1.42.2l-2.5-1.91c-.45-.33-.54-.96-.2-1.42l1-1.32c.35-.45.99-.53,1.42-.2l2.53,1.92c.44.34.52.97.19,1.41h0Z"/>
        <path class="cls-2" d="m235.42,120.51c-.22.28-.62.32-.91.11l-3.11-2.35c-.27-.22-.32-.62-.11-.91.21-.29.62-.35.9-.12l3.11,2.35c.28.22.35.62.12.92h0Zm-5.1-3.88c-.21.29-.61.34-.9.12l-3.11-2.35c-.27-.22-.33-.63-.12-.92.22-.28.63-.33.91-.11l3.11,2.35c.28.22.32.62.11.91h0Z"/>
      </g>
      <polygon class="cls-28" points="236.88 12.56 239.89 21.13 248.46 24.14 239.89 27.16 236.88 35.73 233.86 27.16 225.3 24.14 233.86 21.13 236.88 12.56"/>
      <polygon class="cls-28" points="245.44 0 247.22 5.07 252.29 6.85 247.22 8.64 245.44 13.71 243.65 8.64 238.58 6.85 243.65 5.07 245.44 0"/>
      <polygon class="cls-28" points="392.39 9.59 394.18 14.66 399.25 16.45 394.18 18.23 392.39 23.3 390.61 18.23 385.54 16.45 390.61 14.66 392.39 9.59"/>
      <g>
        <path class="cls-2" d="m332.88,163v3.47c.55-.02.97-.19,1.26-.5.3-.3.44-.69.44-1.21,0-.43-.14-.81-.43-1.12-.3-.3-.72-.51-1.28-.65Zm-1.63-8.56c-.48.06-.85.23-1.12.52-.25.3-.38.71-.38,1.22,0,.48.11.85.34,1.13.24.27.62.47,1.15.59v-3.46Zm0,16.99v-2.98h-.08c-1.63,0-2.88-.32-3.74-.96-.85-.63-1.29-1.55-1.29-2.77,0-.68.18-1.24.54-1.69s.81-.66,1.36-.66c.51,0,.95.18,1.29.56.34.36.51.82.51,1.36,0,.42-.09.75-.27,1.03-.17.27-.43.46-.77.57.28.23.6.4.95.5.35.11.75.16,1.2.16h.32v-3.99c-1.81-.49-3.1-1.12-3.86-1.86-.75-.74-1.14-1.74-1.14-3.01,0-1.47.44-2.69,1.34-3.65.89-.97,2.11-1.53,3.66-1.69v-.65c.25.1.54.16.82.16s.56-.06.82-.16v.63c1.47.07,2.61.41,3.4,1.04.79.62,1.17,1.49,1.17,2.6,0,.68-.17,1.23-.5,1.66-.34.43-.77.65-1.31.65s-.93-.18-1.25-.52c-.33-.34-.5-.77-.5-1.29,0-.31.07-.58.18-.84.14-.26.32-.5.56-.72-.23-.16-.48-.28-.76-.36-.3-.09-.63-.13-.99-.13v3.91c1.79.42,3.09,1.04,3.9,1.83.81.81,1.22,1.89,1.22,3.24,0,1.55-.46,2.76-1.34,3.65s-2.15,1.36-3.77,1.4v2.98h-1.63Z"/>
        <path class="cls-5" d="m332.88,163v.35l-2.86-6.14s.06.07.08.1c.24.27.62.47,1.15.59v-.07l2.59,5.55c-.26-.17-.58-.3-.96-.39h0Zm1.23,3.01l.03-.03c.25-.25.4-.58.43-.98l1.25,2.69c-.24.14-.49.26-.76.36l-.96-2.04Zm-7.45-10.52l3.04,6.56c-1.01-.39-1.79-.84-2.31-1.36-.75-.74-1.14-1.74-1.14-3.01,0-.81.14-1.54.41-2.2h0Zm4.59,9.9l1.63,3.49v2.55h-.92l-.71-1.52v-1.47h-.08c-.21,0-.41,0-.6-.01l-.98-2.1s.09.03.15.05c.35.11.75.16,1.2.16h.32v-1.15Zm-1.98.25l-1.52-3.25c.09-.01.19-.02.28-.02.51,0,.95.18,1.29.56.34.36.51.82.51,1.36,0,.42-.09.75-.27,1.03-.08.13-.18.24-.3.33h0Zm-.27-12.66l1.01,2.16c-.17.27-.25.62-.25,1.04,0,.23.02.43.08.62l-1.57-3.36c.23-.17.48-.32.73-.46h0Zm3.37-1.14l1.22,2.63c-.23-.04-.47-.06-.71-.06v1.81l-1.79-3.85c.06-.01.1-.01.16-.02v-.65c.25.1.54.16.82.16.1,0,.19-.01.3-.02h0Zm1.73,3.74l1.24,2.68c-.38-.06-.69-.23-.95-.5-.33-.34-.5-.77-.5-1.29,0-.31.07-.58.18-.84l.02-.05Zm1.82,3.92l2.05,4.41c-.06.79-.24,1.48-.55,2.08l-3.43-7.36c.75.25,1.4.54,1.93.87Z"/>
        <path class="cls-4" d="m332.07,147.43c1.22,0,2.21.99,2.21,2.22s-.99,2.21-2.21,2.21-2.22-.99-2.22-2.21c0-1.22.99-2.22,2.21-2.22,0,0,0,0,0,0Zm0,.91c.72,0,1.3.58,1.3,1.31s-.58,1.3-1.3,1.3-1.31-.58-1.31-1.3.59-1.31,1.31-1.31h0Z"/>
        <path class="cls-3" d="m330.52,144.16l-1.34.44-.93-2.8,1.34-.44.93,2.8Zm.55,1.11l-1.65.54c-.55.18-1.14-.12-1.34-.67l-1.02-3.11c-.19-.56.11-1.16.67-1.34l1.64-.54c.56-.18,1.16.12,1.34.67l1.04,3.11c.18.54-.12,1.16-.67,1.34Zm-2.64-7.44l-1.34.46-.93-2.81,1.34-.44.93,2.8Zm.54,1.11l-1.65.54c-.54.19-1.14-.12-1.34-.67l-1.02-3.11c-.19-.54.11-1.14.67-1.34l1.64-.54c.56-.18,1.16.12,1.34.67l1.04,3.13c.18.54-.12,1.14-.67,1.32h0Z"/>
        <path class="cls-2" d="m331.31,148.82c-.35.11-.72-.09-.84-.44l-1.28-3.85c-.11-.35.09-.72.44-.84.35-.12.74.07.84.42l1.28,3.85c.11.35-.07.74-.44.86h0Zm-2.09-6.33c-.35.12-.72-.07-.84-.42l-1.28-3.85c-.11-.35.09-.74.44-.86.35-.11.74.09.84.44l1.28,3.85c.11.35-.09.72-.44.84h0Z"/>
      </g>
      <path class="cls-2" d="m326.56,134.79c-.04-.37.23-.69.6-.73l4.04-.38c.37-.02.7.25.74.62.02.37-.25.7-.62.72l-4.04.38c-.37.02-.68-.25-.72-.62h0Z"/>
      <g>
        <path class="cls-3" d="m252.91,142.37l.48,1.26,2.65-1.01-.48-1.26-2.65,1.01Zm-1.15.28l.59,1.55c.21.53.8.79,1.31.59l2.95-1.12c.53-.21.79-.8.59-1.31l-.6-1.56c-.2-.51-.79-.78-1.31-.59l-2.94,1.13c-.52.19-.79.8-.59,1.31h0Zm7.13-2.57l.47,1.27,2.66-1.02-.48-1.26-2.65,1.01Zm-1.15.28l.59,1.55c.2.54.8.79,1.31.59l2.95-1.12c.51-.2.78-.79.59-1.31l-.6-1.56c-.2-.51-.79-.78-1.31-.59l-2.95,1.14c-.52.19-.78.79-.58,1.3h0Z"/>
        <path class="cls-2" d="m248.96,144.61c.14.33.51.5.85.37l3.64-1.4c.34-.12.49-.49.37-.83-.12-.34-.5-.51-.84-.39l-3.64,1.4c-.34.12-.51.5-.39.84Zm5.99-2.29c.12.34.5.51.84.39l3.64-1.4c.34-.12.51-.5.39-.84-.14-.33-.51-.5-.85-.37l-3.64,1.4c-.34.12-.49.49-.37.83Z"/>
        <path class="cls-3" d="m265.48,138.35l.26,1.33,2.78-.53-.26-1.33-2.78.53Zm-1.18.08l.31,1.63c.12.55.65.92,1.19.81l3.1-.59c.55-.12.92-.65.81-1.19l-.32-1.64c-.11-.54-.64-.9-1.19-.81l-3.09.6c-.55.09-.92.65-.81,1.19h0Zm7.47-1.29l.24,1.34,2.8-.54-.26-1.33-2.78.53Zm-1.18.08l.31,1.63c.1.56.65.92,1.19.81l3.1-.59c.54-.11.9-.64.81-1.19l-.32-1.64c-.11-.54-.64-.9-1.19-.81l-3.11.61c-.55.09-.9.64-.79,1.18h0Z"/>
        <path class="cls-2" d="m261.2,139.87c.08.34.42.58.77.52l3.83-.74c.35-.06.57-.4.51-.75-.06-.35-.41-.59-.76-.53l-3.83.74c-.35.06-.59.41-.53.76Zm6.3-1.21c.06.35.41.59.76.53l3.83-.74c.35-.06.59-.41.53-.76-.08-.34-.42-.58-.77-.52l-3.83.74c-.35.06-.57.4-.51.75Z"/>
        <path class="cls-3" d="m278.45,135.96l.26,1.33,2.78-.53-.26-1.33-2.78.53Zm-1.18.08l.31,1.63c.12.55.65.92,1.19.81l3.1-.59c.55-.12.92-.65.81-1.19l-.32-1.64c-.11-.54-.64-.9-1.19-.81l-3.09.6c-.55.09-.92.65-.81,1.19h0Zm7.47-1.29l.24,1.34,2.8-.54-.26-1.33-2.78.53Zm-1.18.08l.31,1.63c.1.56.65.92,1.19.81l3.1-.59c.54-.11.9-.64.81-1.19l-.32-1.64c-.11-.54-.64-.9-1.19-.81l-3.11.61c-.55.09-.9.64-.79,1.18h0Z"/>
        <path class="cls-2" d="m274.16,137.48c.08.34.42.58.77.52l3.83-.74c.35-.06.57-.4.51-.75-.06-.35-.41-.59-.76-.53l-3.83.74c-.35.06-.59.41-.53.76Zm6.3-1.21c.06.35.41.59.76.53l3.83-.74c.35-.06.59-.41.53-.76-.08-.34-.42-.58-.77-.52l-3.83.74c-.35.06-.57.4-.51.75Z"/>
        <path class="cls-3" d="m291.24,133.53l.26,1.33,2.78-.53-.26-1.33-2.78.53Zm-1.18.08l.31,1.63c.12.55.65.92,1.19.81l3.1-.59c.55-.12.92-.65.81-1.19l-.32-1.64c-.11-.54-.64-.9-1.19-.81l-3.09.6c-.55.09-.92.65-.81,1.19h0Zm7.47-1.29l.24,1.34,2.8-.54-.26-1.33-2.78.53Zm-1.18.08l.31,1.63c.1.56.65.92,1.19.81l3.1-.59c.54-.11.9-.64.81-1.19l-.32-1.64c-.11-.54-.64-.9-1.19-.81l-3.11.61c-.55.09-.9.64-.79,1.18h0Z"/>
        <path class="cls-2" d="m286.95,135.05c.08.34.42.58.77.52l3.83-.74c.35-.06.57-.4.51-.75-.06-.35-.41-.59-.76-.53l-3.83.74c-.35.06-.59.41-.53.76Zm6.3-1.21c.06.35.41.59.76.53l3.83-.74c.35-.06.59-.41.53-.76-.08-.34-.42-.58-.77-.52l-3.83.74c-.35.06-.57.4-.51.75Z"/>
        <path class="cls-3" d="m303.98,130.94l.26,1.33,2.78-.53-.26-1.33-2.78.53Zm-1.18.08l.31,1.63c.12.55.65.92,1.19.81l3.1-.59c.55-.12.92-.65.81-1.19l-.32-1.64c-.11-.54-.64-.9-1.19-.81l-3.09.6c-.55.09-.92.65-.81,1.19h0Z"/>
        <path class="cls-2" d="m299.7,132.47c.08.34.42.58.77.52l3.83-.74c.35-.06.57-.4.51-.75-.06-.35-.41-.59-.76-.53l-3.83.74c-.35.06-.59.41-.53.76Zm6.3-1.21c.06.35.41.59.76.53l3.83-.74c.35-.06.59-.41.53-.76-.08-.34-.42-.58-.77-.52l-3.83.74c-.35.06-.57.4-.51.75Z"/>
      </g>
      <path class="cls-14" d="m234.76,106.61c.79,4.01,18.77,40.36,22.03,44.83,3.26,4.47,40.78-5.22,42.93-7.36,1.55-1.54.67-9.24,3.93-10.78,3.25-1.54,6.62,6.16,7.87,5.13,1.95-1.61-2.79-7.19-2.79-7.19,0,0,4.69,3.41,5.47,2.22,1.35-2.05-5.43-9.24-8.38-10.27-2.95-1.03-8.38,1.71-9.62,2.57-1.24.86-3.26,11.63-3.26,11.63,0,0-28.08,2.22-28.86,1.88-.78-.34-10.82-29.93-12.26-36.59-1.71-7.9-20.17-11.83-17.07,3.91Z"/>
      <g>
        <g>
          <g>
            <path class="cls-10" d="m182.12,236.8c-3.88,1.62-13.06,6.43-18.93,11.35-5.87,4.92-9.79,7.37-5.41,13.1,4.38,5.72,24.16,30.1,28.33,33.93,4.17,3.83,15.91,12.96,19.46,9.66,3.55-3.31,4.02-7.04,2.21-9.82-1.81-2.78-2.47-7.9-3.76-11.76-1.29-3.85-4.99-13.08-4.44-14.59.55-1.51,6.09-16.32,5.29-19.36-.36-1.4-6.08-3.08-11.02-5.73-5.81-3.11-10.99-7.08-11.73-6.77Z"/>
            <path class="cls-20" d="m207.79,295.01c-1.27-1.96-1.16-3.88-2.65-7.58-.59-.21-.66-.65-1-1.39-.7-1.53-.96-3.64-2.45-4.66-.98-.67-2.17-.71-3.06-1.5-1.08-.96-1.53-2.88-1.91-4.21-.45-1.57-.76-3.16-1.01-4.77-.29-1.81-.36-3.97-1.07-5.67-.88-2.12-3.59-4.05-5.6-4.76-.29-.1-.18-.55.1-.57,1.8-.1,4.52.88,5.93-.37,1.18-1.05,1.88-2.47,2.41-3.93,1.05-2.92,2.33-5.92,2.87-9.01-1.96-.85-4.31-1.84-6.51-3.01-5.81-3.11-10.99-7.08-11.73-6.77-3.88,1.62-13.06,6.43-18.93,11.35-5.87,4.92-9.33,6.9-4.95,12.63,4.38,5.72,23.89,30.19,28.06,34.02,4.17,3.83,15.73,13.34,19.28,10.03,3.55-3.31,4.02-7.04,2.21-9.82Z"/>
            <path class="cls-7" d="m204.14,286.05c-.21-.46-.39-.98-.56-1.51-.4.04-.8.09-1.19.16-.89.16-2.28.37-2.83,1.2-.82,1.24.51,2.97,1.26,3.91,1.45,1.82.74.98,2.37,2.62.92.93,1.89,2.02,3.1,2.58.57.27,1.14.37,1.7.35-.07-.12-.17-.22-.2-.35-.73-2.52-1.16-3.88-2.65-7.58-.59-.21-.66-.65-1-1.39Z"/>
            <path class="cls-18" d="m174.94,241.2c.02,1.97,1.01,4.44,1.52,6.35,1,3.75,3.11,6.89,6.15,9.39,2.62,2.16,4.77,3.24,7.97,4.13,1.6-.13,3.28-.46,4.5-1.54,1.18-1.05,1.88-2.47,2.41-3.93,1.05-2.92,2.33-5.92,2.87-9.01-1.96-.85-4.31-1.84-6.51-3.01-5.81-3.11-10.99-7.08-11.73-6.77-1.65.69-4.27,1.96-7.17,3.57,0,.28,0,.55,0,.83Z"/>
            <path class="cls-9" d="m184.15,256.88c-3.39-2.67-5.58-6.33-6.9-10.23-.67-1.98-1.16-4.02-1.31-6.05-.02-.25-.03-.49-.04-.74-.31.17-.63.34-.95.52,0,.28,0,.55,0,.83.02,1.97.36,3.95.87,5.85,1,3.75,3.09,6.99,5.89,9.76,3.2,3.17,7.66,4.2,10.85,5.09.45-.04-1.07-.92-.62-1-2.75-.93-5.39-2.16-7.77-4.02Z"/>
            <path class="cls-18" d="m208.3,295.98c-.69.07-1.37,0-2.04-.31-1.53-.71-2.62-1.99-3.82-3.13-1.71-1.62-1.06-.87-2.42-2.81-1.22-1.74-2.15-4.17.43-5.13.95-.35,1.94-.5,2.95-.61-.36-1.02-.81-2-1.69-2.6-.88-.6-1.93-.7-2.78-1.29-7.02.4-13.96,1.15-20.93,2.51-.66.13-1.33.25-1.99.36,4.58,5.55,8.64,10.32,10.3,11.83,4.17,3.83,15.73,13.34,19.28,10.03,3.15-2.94,3.87-6.21,2.73-8.86Z"/>
            <path class="cls-9" d="m180.65,283.09c6.48-1.27,12.94-2,19.46-2.42-.41-.15-.82-.32-1.19-.57-7.02.4-13.96,1.15-20.93,2.51-.66.13-1.33.25-1.99.36.3.36.59.72.88,1.07,1.8-.46,3.47-.89,3.77-.95Z"/>
            <path class="cls-18" d="m177.12,277.03c1.8-2.73,2.59-5.52,1.72-8.76-.71-2.63-1.94-5.05-3.24-7.43-2-3.67-4.38-7.56-5.28-11.69-.51-2.34-.28-4.49.59-6.43-2.74,1.68-5.47,3.55-7.72,5.43-5.87,4.92-9.33,6.9-4.95,12.63,2.43,3.18,9.53,12.13,16.07,20.13.97-1.27,1.94-2.55,2.81-3.88Z"/>
            <path class="cls-9" d="m169.34,249.6c.89,4.24,3.3,8.22,5.33,11.98,1.31,2.43,2.56,4.91,3.26,7.61.86,3.32.02,6.2-1.87,9.03-.59.88-1.21,1.74-1.85,2.59.03.04.06.08.09.11.97-1.27,1.94-2.55,2.81-3.88,1.8-2.73,2.59-5.52,1.72-8.76-.71-2.63-1.94-5.05-3.24-7.43-2-3.67-4.38-7.56-5.28-11.69-.51-2.34-.28-4.49.59-6.43-.36.22-.71.44-1.07.67-.77,1.9-.97,3.97-.5,6.21Z"/>
            <path class="cls-27" d="m208.2,301.25c-5.27-.54-13.75-7.85-17.37-11.29-4.21-4-23.96-29.44-28.39-35.38-1.22-1.64-1.84-2.98-1.98-4.16-4.09,3.43-5.87,5.61-2.23,10.37,4.38,5.72,23.89,30.19,28.06,34.02,4.17,3.83,15.73,13.34,19.28,10.03,1.25-1.16,2.11-2.38,2.63-3.59Z"/>
            <path class="cls-10" d="m186.81,293c.42-.24.84-.47,1.26-.7,0,0,0,0,0,0-4.12-4.06-23.35-29.85-27.66-35.87-1.19-1.67-1.79-3.02-1.91-4.21-.44.37-1.19,1.32-1.19,1.32.2,1.09.74,2.08,1.8,3.56,4.31,6.03,23.54,31.81,27.66,35.87.01.01.03.03.04.04Z"/>
            <path class="cls-10" d="m187.47,289.35c-2.12-1.18-4.11-.56-6.12.26,2.16,2.52,3.88,4.43,4.82,5.3,4.17,3.83,15.73,13.34,19.28,10.03.98-.91,1.71-1.85,2.23-2.8-8.43-1.08-18.81-12-20.21-12.79Z"/>
            <path class="cls-7" d="m191.81,267.44c-3.44-.33-7.96-1.47-10.08-1.9-2.13-.42.06,12.93,3.45,12.79,3.38-.15,9.29-1.62,9.29-1.62l-2.65-9.27Z"/>
            <path class="cls-7" d="m193.21,245.75c-2.95-2.05-9.06-6.15-10.9-5.38s-4.38,5.34-1.2,8.59c3.18,3.25,10.45,6.78,11.4,4.61s2.84-6.33.71-7.82Z"/>
            <path class="cls-11" d="m198.14,251.3c-.5.92-1.37,1.42-1.95,1.11-.58-.31-.65-1.32-.16-2.24.5-.92,1.37-1.42,1.95-1.11.58.31.65,1.32.16,2.24Z"/>
            <path class="cls-11" d="m195.7,256.42c-.5.92-1.37,1.42-1.95,1.11-.58-.31-.65-1.32-.16-2.24s1.37-1.42,1.95-1.11c.58.31.65,1.32.16,2.24Z"/>
            <path class="cls-11" d="m192.89,263.84c-.15.81-.68,1.39-1.19,1.3-.51-.09-.8-.82-.66-1.63.15-.81.68-1.39,1.19-1.29.51.09.8.82.66,1.63Z"/>
            <path class="cls-11" d="m194.78,268.64c.1.81-.23,1.53-.75,1.59-.51.06-1.01-.55-1.11-1.36-.1-.81.23-1.53.75-1.59.51-.06,1.01.55,1.11,1.36Z"/>
            <path class="cls-11" d="m196.24,273.71c.23.79.01,1.54-.49,1.69-.5.14-1.08-.38-1.31-1.17-.23-.79-.01-1.54.49-1.69.5-.14,1.08.38,1.31,1.17Z"/>
            <path class="cls-11" d="m197.33,277.8c.23.79.01,1.54-.49,1.69-.5.14-1.08-.38-1.31-1.17-.23-.79-.01-1.54.49-1.69s1.08.38,1.31,1.17Z"/>
            <path class="cls-10" d="m182.87,238.95c.74-.31,5.92,3.67,11.73,6.77,4.04,2.16,8.59,3.68,10.32,4.93.05-.56.04-1.02-.05-1.34-.36-1.4-6.08-3.08-11.02-5.73-5.81-3.11-10.99-7.08-11.73-6.77-1.19.5-2.87,1.29-4.79,2.29,2.35.25,4.35.36,5.55-.15Z"/>
            <path class="cls-7" d="m204.65,255.09c-.13.26-.39.4-.59.3l-7.54-3.5c-.2-.1-.25-.39-.12-.65l.59-1.2c.13-.26.39-.4.59-.3l7.54,3.5c.2.1.25.39.12.65l-.59,1.2Z"/>
            <path class="cls-7" d="m203.45,259.92c-.11.27-.36.43-.56.35l-8.94-3.19c-.21-.08-.29-.37-.18-.64l.48-1.24c.11-.27.36-.43.56-.35l8.94,3.19c.21.08.29.37.18.64l-.48,1.24Z"/>
            <path class="cls-7" d="m201.68,265.68c-.05.29-.26.5-.48.46l-9.4-1.31c-.22-.04-.35-.3-.31-.59l.22-1.31c.05-.29.26-.5.48-.46l9.4,1.31c.22.04.35.3.31.59l-.22,1.31Z"/>
            <path class="cls-7" d="m200.53,269.73c-.01.29-.2.52-.42.51l-6.21-.21c-.22,0-.39-.26-.38-.55l.06-1.33c.01-.29.2-.52.42-.51l6.21.21c.22,0,.39.26.38.55l-.06,1.33Z"/>
            <path class="cls-7" d="m201.23,273.12c.07.29-.06.56-.27.61l-5.39,1.32c-.22.05-.44-.14-.51-.43l-.29-1.3c-.07-.29.06-.56.27-.61l5.39-1.32c.22-.05.44.14.51.43l.29,1.3Z"/>
            <path class="cls-7" d="m202.27,276.81c.09.28,0,.56-.22.63l-5.26,1.78c-.21.07-.45-.1-.54-.38l-.41-1.27c-.09-.28,0-.56.22-.63l5.25-1.78c.21-.07.45.1.54.38l.41,1.27Z"/>
            <path class="cls-11" d="m199.09,282.17c.38.73.32,1.51-.14,1.75-.46.24-1.14-.15-1.52-.88-.38-.73-.32-1.51.14-1.75s1.14.15,1.52.88Z"/>
            <path class="cls-7" d="m203.89,280.69c.12.27.04.56-.16.65l-5.07,2.26c-.2.09-.46-.06-.58-.33l-.52-1.22c-.12-.27-.04-.56.16-.65l5.07-2.26c.2-.09.46.06.58.33l.52,1.22Z"/>
          </g>
          <g>
            <path class="cls-6" d="m184.54,269.16c.05-.06.11-.12.16-.18.19-.24.25-.5.14-.78-.12-.3-.39-.41-.67-.42-.39,0-.77.08-1.06.39-.23.25-.23.65.02.87.07.07.21.1.31.09.16-.01.31-.07.49-.12l.1.41c-.06,0-.13,0-.2.02-.22.06-.44.16-.65-.05-.27-.27-.45-.56-.43-.95.04-.6.49-.99,1.2-1.05.45-.04.94.33,1.06.82.08.32.02.63-.18.89-.06.07-.17.1-.26.14-.01-.03-.03-.06-.04-.09Z"/>
            <path class="cls-6" d="m185.23,275.81c-.14-.03-.31-.02-.43-.09-.4-.24-.57-.76-.46-1.26.1-.42.52-.72,1.09-.79.42-.05.84.18,1.04.57.16.31.14.63.05.95-.05.19-.19.33-.48.29.07-.08.12-.13.16-.19.21-.24.3-.51.16-.82-.13-.3-.39-.44-.69-.4-.29.04-.61.1-.86.24-.47.26-.42.94.07,1.22.12.07.25.12.37.18,0,.03-.02.06-.03.09Z"/>
            <path class="cls-6" d="m184.69,273.63c-.17.15-.31.11-.45,0-.4-.32-.56-.86-.38-1.3.19-.47.77-.77,1.31-.7.79.09,1.1.95.79,1.62-.05.11-.26.16-.4.23-.01-.02-.02-.04-.03-.06.09-.11.2-.22.28-.35.22-.35.09-.81-.27-.99-.41-.2-1.09-.04-1.38.32-.3.37-.22.83.2,1.07.1.06.21.1.33.16Z"/>
            <path class="cls-6" d="m185.67,271.13c-.52.13-.93.24-1.35.34-.49.12-.86-.08-.98-.5-.13-.49.07-.87.57-1.02.21-.07.43-.11.65-.17.21-.05.43-.11.65-.16l.08.32c-.43.11-.86.21-1.29.33-.39.1-.54.34-.45.7.08.32.37.48.74.39.38-.09.77-.2,1.15-.29.05-.01.12.04.23.08Z"/>
            <path class="cls-6" d="m186.77,275.72l.09.36-2.03.51-.09-.36,2.03-.51Z"/>
          </g>
        </g>
        <path class="cls-17" d="m164.39,251.87c.03-.07.07-.13.09-.2.1-.26.09-.51-.1-.73-.19-.23-.46-.26-.71-.18-.35.1-.66.29-.82.64-.14.29-.02.63.26.76.08.04.21.03.3,0,.14-.05.25-.15.4-.24l.2.33c-.06.02-.12.04-.17.07-.18.11-.34.27-.59.14-.31-.16-.56-.37-.64-.72-.13-.54.15-1.01.77-1.26.39-.16.92.03,1.17.43.16.26.2.55.08.84-.03.08-.12.13-.19.2-.02-.02-.04-.04-.06-.06Z"/>
        <path class="cls-17" d="m166.85,257.55c-.13.02-.28.07-.4.04-.42-.1-.72-.51-.75-.98-.03-.4.26-.78.75-1,.36-.16.8-.07,1.08.22.22.23.3.52.31.82,0,.19-.07.34-.34.39.04-.09.06-.15.09-.21.12-.27.12-.53-.08-.77-.2-.23-.46-.29-.73-.16-.25.12-.51.26-.7.45-.35.36-.11.95.4,1.06.12.03.25.04.38.06,0,.03,0,.06,0,.09Z"/>
        <path class="cls-17" d="m165.76,255.78c-.11.18-.24.19-.4.12-.44-.17-.73-.6-.69-1.04.04-.47.47-.89.96-.99.72-.14,1.23.54,1.15,1.21-.01.12-.19.21-.29.32-.02-.02-.03-.03-.05-.05.05-.13.12-.25.15-.38.1-.37-.15-.74-.52-.8-.42-.06-.97.27-1.13.66-.16.41.04.8.48.89.1.02.21.03.34.05Z"/>
        <path class="cls-17" d="m165.94,253.3c-.42.26-.76.47-1.1.67-.4.24-.78.17-1-.17-.25-.4-.18-.79.22-1.06.17-.12.35-.22.53-.33.17-.11.35-.21.53-.33l.16.26c-.35.22-.71.43-1.05.65-.32.2-.38.45-.2.74.16.26.46.33.76.14.31-.19.62-.39.93-.58.04-.03.12,0,.23,0Z"/>
      </g>
      <g>
        <g class="cls-1">
          <path class="cls-6" d="m306.88,26.16l2,1.69s-.02-.02-.03-.03l-2-1.69s.02.02.03.03Z"/>
          <path class="cls-6" d="m334.64,16.08l.19-2.18m-79.24,41.98l-3.93-3.86c-6.55-6.44-2.34-20.08-2.04-21.04l3.88,3.85c-.29.96-4.44,14.63,2.08,21.05h0Z"/>
          <path class="cls-6" d="m303.42,46.48l-3.63-3.66c-3.99-4.02-4.56-11.24-4.43-15.98,0-.05-.09-.86-.51-1.28l3.62,3.66c.42.42.5,1.23.51,1.28-.11,4.74.46,11.96,4.45,15.97Z"/>
          <path class="cls-6" d="m315.51,45.91c-4.03.85-7.43-.37-9.77-2.74l-3.61-3.65c2.35,2.37,5.76,3.6,9.82,2.77,11.46-2.35,19.15-18.98,13.45-24.84l3.43,3.53c5.69,5.86-1.94,22.52-13.32,24.92h0Z"/>
          <path class="cls-6" d="m291.57,28.31l-3.65-3.69c1.57-1.47,7.5-2.65,8.73-1.55l3.6,3.65c-1.24-1.11-7.15.14-8.68,1.59Z"/>
          <path class="cls-6" d="m269.75,55.54c-4.39.93-7.94-.25-10.33-2.61l-3.9-3.84c2.4,2.37,5.96,3.56,10.39,2.65,12.5-2.56,22.6-20.1,16.28-26.46l3.69,3.71c6.31,6.35-3.72,23.93-16.13,26.55Z"/>
          <path class="cls-6" d="m287.31,23.95l3.66,3.69c-1.61-1.63-6.44-5.49-15.07-3.99l-3.73-3.75c8.68-1.47,13.53,2.41,15.14,4.05h0Z"/>
          <path class="cls-6" d="m336.37,15.48l-.29,3.48-1.6,1.08c.08,1.13,1.53,22.81-18.41,28.51-12.05,3.45-17.41-4.45-17.09-18.05,0-.07-.16-1.4-.97-1.52-.81-.12-3.69.41-4.59.85-.89.44-1.36,1.9-1.39,1.97-2.69,13.11-9.91,24.97-23.61,26.95-23.2,3.37-15.32-22.6-14.92-23.93l-1.75-.56.59-3.91c6.87-1.53,13.72-5,23.56-6.72,10.52-1.83,15.41,4.34,15.67,4.66,1.55-1.47,7.45-2.68,8.68-1.59,3.79-4.81,10.37-9.32,17.06-10.27,9.85-1.4,13.42-.26,19.06-.97h0Zm-66.62,40.06c9.15-1.93,17.06-12.01,18-19.78s-5.27-10.47-14.17-8.89c-9.1,1.61-16.27,7.04-17.43,15.05-1.18,8.11,4.26,15.59,13.61,13.62m45.76-9.64c14.72-3.1,23.84-30.71,2.66-26.94-8.15,1.45-14.93,6.48-15.76,14-.84,7.61,4.74,14.71,13.1,12.95"/>
          <path class="cls-6" d="m300.25,26.72l-3.6-3.66c3.82-4.79,10.45-9.27,17.18-10.19,9.91-1.36,13.49-.2,19.17-.89l3.38,3.5c-5.64.72-9.21-.43-19.06.97-6.76.96-13.32,5.53-17.06,10.27Z"/>
          <path class="cls-6" d="m251.76,34.28l-3.89-3.86.6-3.9,3.88,3.85-.59,3.91Z"/>
          <path class="cls-6" d="m252.34,30.37l-3.88-3.85c6.91-1.5,13.81-4.94,23.71-6.62l3.73,3.75c-10.03,1.75-16.57,5.16-23.56,6.72Z"/>
          <path class="cls-6" d="m273.58,26.87c-8.26,1.48-16.18,6.45-17.43,15.05-.52,3.56.25,7,2.07,9.59,3.39,4.8,9.03,5.05,13.62,3.44,8.19-2.89,15.04-11.96,15.91-19.2.99-8.2-6.07-10.34-14.18-8.89Zm44.59-7.91c-7.37,1.3-14.87,5.92-15.76,14-.87,7.85,4.94,14.67,13.1,12.95,7.87-1.61,14.55-10.61,15.22-18.26.68-7.79-5.32-9.97-12.56-8.69Z"/>
          <g>
            <path class="cls-6" d="m329.64,22.02l-6.63,19.96c-1.21,1.07-2.55,1.97-4.01,2.7l8.33-24.83c.96.55,1.73,1.27,2.3,2.18Zm-3.98-2.9l-8.92,26.45c-3.3,1.09-7.54.88-10.76-2.17l8.18-23.41c3.09-1.08,7.88-2,11.5-.88Z"/>
            <path class="cls-6" d="m285.27,28.45l-9.21,24.42c-1.31.85-2.72,1.55-4.22,2.08l10.62-27.93c1.09.33,2.03.81,2.81,1.42Zm-4.77-1.86l-11.11,29.01c-5.04.95-8.91-.9-11.17-4.09l9.02-22.76c3.68-1.6,9.02-2.75,13.26-2.16Z"/>
          </g>
        </g>
        <g>
          <path class="cls-12" d="m308.57,23.03l2,1.69s-.02-.02-.03-.03l-2-1.69s.02.02.03.03Z"/>
          <path class="cls-12" d="m336.33,12.95l.19-2.18m-79.24,41.98l-3.93-3.86c-6.55-6.44-2.34-20.08-2.04-21.04l3.88,3.85c-.29.96-4.44,14.63,2.08,21.05h0Z"/>
          <path class="cls-8" d="m305.12,43.34l-3.63-3.66c-3.99-4.02-4.56-11.24-4.43-15.98,0-.05-.09-.86-.51-1.28l3.62,3.66c.42.42.5,1.23.51,1.28-.11,4.74.46,11.96,4.45,15.97Z"/>
          <path class="cls-12" d="m317.21,42.77c-4.03.85-7.43-.37-9.77-2.74l-3.61-3.65c2.35,2.37,5.76,3.6,9.82,2.77,11.46-2.35,19.15-18.98,13.45-24.84l3.43,3.53c5.69,5.86-1.94,22.52-13.32,24.92h0Z"/>
          <path class="cls-13" d="m293.27,25.17l-3.65-3.69c1.57-1.47,7.5-2.65,8.73-1.55l3.6,3.65c-1.24-1.11-7.15.14-8.68,1.59Z"/>
          <path class="cls-12" d="m271.45,52.41c-4.39.93-7.94-.25-10.33-2.61l-3.9-3.84c2.4,2.37,5.96,3.56,10.39,2.65,12.5-2.56,22.6-20.1,16.28-26.46l3.69,3.71c6.31,6.35-3.72,23.93-16.13,26.55Z"/>
          <path class="cls-12" d="m289.01,20.81l3.66,3.69c-1.61-1.63-6.44-5.49-15.07-3.99l-3.73-3.75c8.68-1.47,13.53,2.41,15.14,4.05h0Z"/>
          <path class="cls-8" d="m338.07,12.34l-.29,3.48-1.6,1.08c.08,1.13,1.53,22.81-18.41,28.51-12.05,3.45-17.41-4.45-17.09-18.05,0-.07-.16-1.4-.97-1.52-.81-.12-3.69.41-4.59.85-.89.44-1.36,1.9-1.39,1.97-2.69,13.11-9.91,24.97-23.61,26.95-23.2,3.37-15.32-22.6-14.92-23.93l-1.75-.56.59-3.91c6.87-1.53,13.72-5,23.56-6.72,10.52-1.83,15.41,4.34,15.67,4.66,1.55-1.47,7.45-2.68,8.68-1.59,3.79-4.81,10.37-9.32,17.06-10.27,9.85-1.4,13.42-.26,19.06-.97h0Zm-66.62,40.06c9.15-1.93,17.06-12.01,18-19.78.93-7.68-5.27-10.47-14.17-8.89-9.1,1.61-16.27,7.04-17.43,15.05-1.18,8.11,4.26,15.59,13.61,13.62m45.76-9.64c14.72-3.1,23.84-30.71,2.66-26.94-8.15,1.45-14.93,6.48-15.76,14-.84,7.61,4.74,14.71,13.1,12.95"/>
          <path class="cls-12" d="m301.95,23.59l-3.6-3.66c3.82-4.79,10.45-9.27,17.18-10.19,9.91-1.36,13.49-.2,19.17-.89l3.38,3.5c-5.64.72-9.21-.43-19.06.97-6.76.96-13.32,5.53-17.06,10.27Z"/>
          <path class="cls-13" d="m253.45,31.14l-3.89-3.86.6-3.9,3.88,3.85-.59,3.91Z"/>
          <path class="cls-12" d="m254.04,27.23l-3.88-3.85c6.91-1.5,13.81-4.94,23.71-6.62l3.73,3.75c-10.03,1.75-16.57,5.16-23.56,6.72Z"/>
          <path class="cls-6" d="m275.28,23.73c-8.26,1.48-16.18,6.45-17.43,15.05-.52,3.56.25,7,2.07,9.59,3.39,4.8,9.03,5.05,13.62,3.44,8.19-2.89,15.04-11.96,15.91-19.2.99-8.2-6.07-10.34-14.18-8.89Zm44.59-7.91c-7.37,1.3-14.87,5.92-15.76,14-.87,7.85,4.94,14.67,13.1,12.95,7.87-1.61,14.55-10.61,15.22-18.26.68-7.79-5.32-9.97-12.56-8.69Z"/>
          <g>
            <path class="cls-28" d="m331.33,18.88l-6.63,19.96c-1.21,1.07-2.55,1.97-4.01,2.7l8.33-24.83c.96.55,1.73,1.27,2.3,2.18Zm-3.98-2.9l-8.92,26.45c-3.3,1.09-7.54.88-10.76-2.17l8.18-23.41c3.09-1.08,7.88-2,11.5-.88Z"/>
            <path class="cls-28" d="m286.97,25.31l-9.21,24.42c-1.31.85-2.72,1.55-4.22,2.08l10.62-27.93c1.09.33,2.03.81,2.81,1.42Zm-4.77-1.86l-11.11,29.01c-5.04.95-8.91-.9-11.17-4.09l9.02-22.76c3.68-1.6,9.02-2.75,13.26-2.16Z"/>
          </g>
        </g>
      </g>
      <g>
        <g>
          <path class="cls-10" d="m238.33,240.63c-.07,4.92.8,17,3.34,25.58,2.54,8.59,3.34,13.92,11.51,11.9,8.17-2.02,43.52-11.85,49.57-14.54,6.05-2.69,21.31-11.01,19.42-16.35-1.89-5.34-5.67-7.59-9.49-6.95-3.82.64-9.62-1.04-14.35-1.45-4.73-.41-16.34-.75-17.71-2.04-1.37-1.29-14.65-14.13-18.28-14.7-1.67-.26-6.14,5.08-11.28,9.14-6.03,4.77-12.71,8.47-12.73,9.41Z"/>
          <path class="cls-20" d="m312.67,240.27c-2.69.45-4.7-.57-9.35-.7-.49.53-1,.4-1.96.42-1.97.04-4.35-.67-6.13.45-1.17.74-1.78,1.99-3.04,2.57-1.54.71-3.8.3-5.41.08-1.89-.25-3.74-.66-5.59-1.14-2.07-.54-4.42-1.46-6.57-1.5-2.68-.05-6.01,1.96-7.71,3.78-.24.26-.68-.06-.56-.37.73-1.97,3.06-4.43,2.37-6.52-.58-1.75-1.77-3.16-3.09-4.41-2.63-2.49-5.26-5.26-8.32-7.28-1.83,1.71-3.98,3.76-6.26,5.57-6.03,4.77-12.71,8.47-12.73,9.41-.07,4.92.8,17,3.34,25.58,2.54,8.59,3.05,13.21,11.22,11.19,8.17-2.02,43.49-11.52,49.54-14.2,6.05-2.69,21.63-10.63,19.74-15.98-1.89-5.34-5.67-7.59-9.49-6.95Z"/>
          <path class="cls-7" d="m301.36,239.99c-.6.01-1.23-.04-1.88-.1-.14.45-.28.9-.38,1.35-.24,1.03-.67,2.61-.03,3.59.95,1.46,3.42.84,4.77.48,2.63-.7,1.4-.33,3.91-1.32,1.43-.56,3.04-1.08,4.21-2.11.55-.49.92-1.05,1.17-1.66-.16.02-.31.08-.47.06-3.04-.39-4.7-.57-9.35-.7-.49.53-1,.4-1.96.42Z"/>
          <path class="cls-18" d="m239.69,250.37c2.12.9,5.23.99,7.51,1.34,4.49.67,8.83-.12,12.93-2.21,3.54-1.8,5.7-3.6,8.14-6.61.6-1.78,1.04-3.73.45-5.55-.58-1.75-1.77-3.16-3.09-4.41-2.63-2.49-5.26-5.26-8.32-7.28-1.83,1.71-3.98,3.76-6.26,5.57-6.03,4.77-12.71,8.47-12.73,9.41-.03,2.09.11,5.49.48,9.35.29.13.59.27.89.39Z"/>
          <path class="cls-9" d="m260.78,247.81c-4.44,2.39-9.39,3.03-14.18,2.63-2.43-.21-4.85-.63-7.1-1.42-.27-.1-.54-.2-.81-.3.04.41.07.83.11,1.26.29.13.59.27.89.39,2.12.9,4.39,1.46,6.67,1.8,4.49.67,8.93-.05,13.21-1.76,4.89-1.95,8.07-6.25,10.51-9.26.17-.5-1.49.72-1.36.2-2.28,2.51-4.82,4.77-7.93,6.45Z"/>
          <path class="cls-18" d="m313.94,240.17c-.24.77-.64,1.47-1.29,2.04-1.48,1.31-3.36,1.88-5.14,2.64-2.53,1.07-1.42.74-4.14,1.29-2.43.5-5.47.36-5.3-2.85.06-1.18.37-2.31.73-3.44-1.26-.08-2.52-.06-3.57.6-1.05.66-1.65,1.74-2.68,2.38-2.84,7.71-5.28,15.5-7.07,23.6-.17.77-.35,1.54-.54,2.3,8.08-2.32,15.08-4.45,17.48-5.52,6.05-2.69,21.63-10.63,19.74-15.98-1.68-4.75-4.85-7.05-8.22-7.05Z"/>
          <path class="cls-9" d="m287.24,263.79c1.66-7.54,3.89-14.8,6.48-21.98-.36.37-.72.73-1.17,1.01-2.84,7.71-5.28,15.5-7.07,23.6-.17.77-.35,1.54-.54,2.3.52-.15,1.04-.3,1.56-.45.34-2.14.66-4.13.74-4.48Z"/>
          <path class="cls-18" d="m279.1,264.74c-2.09-3.21-4.71-5.35-8.58-5.93-3.15-.47-6.31-.28-9.47,0-4.87.43-10.15,1.17-14.99.21-2.75-.54-4.94-1.79-6.62-3.63.52,3.72,1.25,7.52,2.22,10.81,2.54,8.59,3.05,13.21,11.22,11.19,4.54-1.12,17.45-4.55,29.06-7.84-.91-1.64-1.83-3.27-2.85-4.83Z"/>
          <path class="cls-9" d="m246.07,260.29c4.96,1.02,10.35.29,15.32-.13,3.22-.27,6.46-.45,9.67.05,3.96.62,6.65,2.86,8.81,6.21.67,1.04,1.3,2.11,1.91,3.19.06-.02.11-.03.17-.05-.91-1.64-1.83-3.27-2.85-4.83-2.09-3.21-4.71-5.35-8.58-5.93-3.15-.47-6.31-.28-9.47,0-4.87.43-10.15,1.17-14.99.21-2.75-.54-4.94-1.79-6.62-3.63.07.48.14.97.22,1.46,1.67,1.71,3.8,2.89,6.42,3.43Z"/>
          <path class="cls-27" d="m319.54,242.73c-3.04,5.39-14.83,11.07-20.2,13.35-6.25,2.65-42.71,11.94-51.15,13.92-2.33.55-4.05.59-5.38.18,1.77,5.98,3.27,8.91,10.07,7.22,8.17-2.02,43.49-11.52,49.54-14.2,6.05-2.69,21.63-10.63,19.74-15.98-.66-1.88-1.57-3.37-2.62-4.49Z"/>
          <path class="cls-10" d="m300.73,261.81c-.06-.56-.11-1.12-.17-1.68,0,0,0,0,0,0-6.28,2.52-42.87,11.1-51.34,12.91-2.34.5-4.07.51-5.4.08.19.65.86,1.89.86,1.89,1.26.29,2.57.18,4.65-.27,8.47-1.81,45.06-10.39,51.34-12.91.02,0,.05-.02.07-.03Z"/>
          <path class="cls-10" d="m297.13,259.4c-2.26,1.72-2.52,4.14-2.58,6.68,3.7-1.14,6.56-2.09,7.93-2.7,6.05-2.69,21.63-10.63,19.74-15.98-.52-1.47-1.19-2.7-1.96-3.7-5.08,8.53-21.64,14.56-23.13,15.7Z"/>
          <path class="cls-7" d="m275.68,244.54c-1.96,3.54-5.29,7.84-6.74,9.92-1.45,2.08,13.89,5.96,15.31,2.27,1.42-3.69,2.59-10.71,2.59-10.71l-11.17-1.48Z"/>
          <path class="cls-7" d="m253.08,232.92c-3.57,2.2-10.82,6.84-10.85,9.17-.03,2.33,3.67,7.18,8.64,5.3,4.97-1.89,12.14-8.03,10.26-10.06s-5.46-6-8.05-4.4Z"/>
          <path class="cls-11" d="m261.33,230.22c.76.96.88,2.13.28,2.61-.61.48-1.71.09-2.47-.88s-.88-2.13-.28-2.61c.61-.48,1.71-.09,2.47.88Z"/>
          <path class="cls-11" d="m265.68,235.22c.76.96.88,2.13.28,2.61-.61.48-1.71.09-2.47-.88s-.88-2.13-.28-2.61c.61-.48,1.71-.09,2.47.88Z"/>
          <path class="cls-11" d="m272.32,241.69c.8.53,1.17,1.37.83,1.87-.34.5-1.25.48-2.05-.06-.8-.53-1.17-1.37-.83-1.87.34-.5,1.25-.48,2.05.06Z"/>
          <path class="cls-11" d="m278.35,241.9c.92.27,1.53.96,1.36,1.54-.17.58-1.06.83-1.98.56-.92-.27-1.53-.96-1.36-1.54.17-.58,1.06-.83,1.98-.56Z"/>
          <path class="cls-11" d="m284.45,242.71c.95.12,1.66.71,1.58,1.31-.08.6-.91.98-1.86.86-.95-.12-1.66-.71-1.58-1.31.08-.6.91-.98,1.86-.86Z"/>
          <path class="cls-11" d="m289.34,243.45c.95.12,1.66.71,1.58,1.31-.08.6-.91.98-1.86.86-.95-.12-1.66-.71-1.58-1.31s.91-.98,1.86-.86Z"/>
          <path class="cls-10" d="m240.98,240.82c.01-.94,6.69-4.64,12.73-9.41,4.2-3.32,7.95-7.49,10.09-8.76-.58-.31-1.08-.51-1.46-.57-1.67-.26-6.14,5.08-11.28,9.14-6.03,4.77-12.71,8.47-12.73,9.41-.02,1.5.05,3.67.22,6.21,1.36-2.41,2.41-4.49,2.43-6.01Z"/>
          <path class="cls-7" d="m268.43,225.02c.22.26.24.61.05.78l-7.27,6.45c-.2.17-.54.09-.76-.17l-1.01-1.18c-.22-.26-.24-.61-.05-.78l7.27-6.45c.2-.17.54-.09.76.17l1.01,1.18Z"/>
          <path class="cls-7" d="m273.04,228.55c.24.24.3.59.11.77l-7.58,8.09c-.18.18-.53.14-.77-.11l-1.11-1.09c-.24-.24-.3-.59-.11-.77l7.58-8.09c.18-.18.53-.14.77.11l1.11,1.09Z"/>
          <path class="cls-7" d="m278.39,233.13c.29.19.41.51.27.73l-5.79,9.46c-.14.22-.49.24-.78.05l-1.3-.85c-.29-.19-.41-.51-.27-.73l5.79-9.46c.14-.22.49-.24.78-.05l1.3.85Z"/>
          <path class="cls-7" d="m282.19,236.26c.31.15.47.46.35.69l-3.12,6.56c-.11.23-.46.3-.76.15l-1.4-.68c-.31-.15-.47-.46-.35-.69l3.12-6.56c.11-.23.46-.3.76-.15l1.4.68Z"/>
          <path class="cls-7" d="m286.16,237.08c.34.06.57.32.52.57l-1.1,6.39c-.05.25-.36.41-.7.34l-1.53-.29c-.34-.06-.57-.32-.52-.57l1.1-6.39c.05-.25.36-.41.7-.34l1.53.29Z"/>
          <path class="cls-7" d="m290.59,237.7c.34.03.6.27.57.53l-.54,6.46c-.03.26-.32.44-.67.4l-1.55-.15c-.34-.03-.6-.27-.57-.53l.54-6.46c.03-.26.32-.44.67-.4l1.55.15Z"/>
          <path class="cls-11" d="m294.85,243.59c.96-.07,1.77.36,1.81.96.04.6-.69,1.15-1.65,1.22-.96.07-1.77-.36-1.81-.96s.69-1.15,1.65-1.22Z"/>
          <path class="cls-7" d="m295.5,237.77c.34,0,.62.21.62.47l.06,6.49c0,.26-.28.46-.63.46h-1.55c-.34-.02-.62-.23-.62-.48l-.06-6.49c0-.26.28-.46.63-.46h1.55Z"/>
        </g>
        <g>
          <path class="cls-6" d="m274.13,253.12c-.04-.09-.07-.17-.11-.26-.16-.31-.41-.5-.78-.51-.38-.01-.63.23-.76.52-.19.41-.27.87-.07,1.31.16.37.59.55.94.38.11-.05.2-.18.24-.3.06-.17.07-.37.1-.58l.49.08c-.02.07-.06.14-.07.22-.04.26-.03.55-.35.67-.41.16-.81.22-1.22.01-.63-.32-.84-.98-.57-1.77.17-.5.79-.85,1.38-.75.38.06.69.27.87.61.05.09.02.23.03.34-.04,0-.08,0-.11,0Z"/>
          <path class="cls-6" d="m281.58,255.48c-.1.14-.16.33-.29.42-.44.31-1.09.26-1.56-.1-.4-.31-.53-.9-.34-1.54.15-.47.59-.82,1.1-.85.4-.02.74.15,1.04.39.18.15.27.35.09.65-.05-.11-.09-.19-.13-.26-.16-.33-.41-.56-.8-.56-.38,0-.66.21-.76.56-.1.33-.18.7-.14,1.04.06.63.81.89,1.33.49.13-.1.24-.21.37-.31.03.02.06.05.09.07Z"/>
          <path class="cls-6" d="m278.99,255.05c.08.25-.02.38-.21.48-.53.28-1.18.2-1.57-.2-.41-.43-.46-1.18-.15-1.73.47-.8,1.53-.73,2.1-.1.1.11.05.35.07.53-.03,0-.06,0-.08,0-.08-.15-.14-.32-.24-.46-.27-.4-.83-.48-1.19-.17-.4.35-.55,1.14-.3,1.62.26.5.79.62,1.24.28.11-.08.21-.17.33-.28Z"/>
          <path class="cls-6" d="m276.76,252.83c-.1.62-.18,1.11-.27,1.61-.1.58-.49.89-.99.81-.59-.09-.9-.49-.83-1.08.03-.26.08-.52.13-.78.04-.25.08-.51.13-.78l.38.06c-.08.52-.17,1.03-.25,1.54-.07.47.11.74.54.81.38.06.69-.17.77-.6.08-.46.14-.91.22-1.37.01-.06.1-.11.19-.22Z"/>
          <path class="cls-6" d="m282.19,253.8l.43.07-.4,2.41-.43-.07c.13-.8.26-1.59.4-2.41Z"/>
        </g>
        <g>
          <path class="cls-17" d="m246.39,266.55c-.06-.07-.11-.15-.18-.22-.24-.26-.53-.38-.88-.3-.37.09-.55.38-.61.7-.08.45-.04.91.26,1.29.25.31.7.38,1.01.13.09-.07.15-.23.16-.35.01-.18-.03-.37-.05-.58l.49-.05c0,.08-.02.15-.01.23.02.27.11.54-.17.74-.36.26-.73.42-1.18.32-.69-.16-1.06-.74-1-1.57.04-.53.55-1.02,1.14-1.08.38-.04.73.09,1,.37.07.08.08.21.12.32-.04.01-.07.02-.11.04Z"/>
          <path class="cls-17" d="m254.19,266.94c-.06.16-.08.36-.18.48-.35.42-.98.53-1.53.3-.47-.19-.74-.73-.71-1.4.02-.5.36-.94.85-1.1.38-.12.75-.05,1.1.11.21.1.35.28.25.61-.08-.09-.13-.16-.19-.22-.24-.28-.54-.44-.92-.34-.37.1-.58.36-.59.73,0,.35,0,.72.12,1.04.22.59,1.01.65,1.42.14.1-.13.18-.26.28-.39.03.02.07.03.1.05Z"/>
          <path class="cls-17" d="m251.57,267.18c.14.22.08.37-.08.52-.44.41-1.09.5-1.57.2-.51-.31-.75-1.03-.58-1.64.25-.89,1.3-1.1,2.01-.63.12.08.14.33.2.5-.03,0-.05.02-.08.03-.12-.13-.22-.27-.35-.39-.36-.32-.92-.25-1.19.14-.3.44-.24,1.25.12,1.65.37.41.92.4,1.27-.04.08-.11.16-.22.25-.35Z"/>
          <path class="cls-17" d="m248.86,265.6c.06.62.11,1.12.15,1.62.05.59-.25.98-.76,1.04-.59.06-.99-.24-1.08-.84-.04-.26-.05-.52-.07-.78-.02-.26-.05-.51-.07-.78l.38-.04c.05.52.09,1.04.15,1.55.05.47.3.68.72.64.39-.03.62-.34.59-.78-.04-.46-.1-.92-.13-1.38,0-.06.07-.13.13-.26Z"/>
          <path class="cls-17" d="m254.36,265.16l.44-.04c.08.82.15,1.61.23,2.43l-.44.04-.23-2.43Z"/>
        </g>
      </g>
    </g>
  </g>
</svg>