<?xml version="1.0" encoding="UTF-8"?>
<svg xmlns="http://www.w3.org/2000/svg" xmlns:xlink="http://www.w3.org/1999/xlink" viewBox="0 0 1171.59 979.86">
  <defs>
    <style>
      .cls-1 {
        fill: url(#linear-gradient-6);
      }

      .cls-1, .cls-2, .cls-3, .cls-4, .cls-5, .cls-6, .cls-7, .cls-8, .cls-9, .cls-10, .cls-11, .cls-12, .cls-13, .cls-14, .cls-15, .cls-16, .cls-17, .cls-18, .cls-19, .cls-20, .cls-21, .cls-22, .cls-23, .cls-24, .cls-25, .cls-26, .cls-27, .cls-28, .cls-29, .cls-30, .cls-31, .cls-32, .cls-33, .cls-34, .cls-35, .cls-36, .cls-37, .cls-38, .cls-39, .cls-40, .cls-41, .cls-42, .cls-43, .cls-44, .cls-45, .cls-46 {
        stroke-width: 0px;
      }

      .cls-1, .cls-2, .cls-3, .cls-4, .cls-18, .cls-19, .cls-21, .cls-28, .cls-29, .cls-30, .cls-31, .cls-32, .cls-33, .cls-34, .cls-35, .cls-36, .cls-37, .cls-38, .cls-39, .cls-40 {
        mix-blend-mode: multiply;
      }

      .cls-1, .cls-2, .cls-3, .cls-36, .cls-37, .cls-38, .cls-39 {
        opacity: .39;
      }

      .cls-2 {
        fill: url(#linear-gradient-2);
      }

      .cls-3 {
        fill: url(#linear-gradient-4);
      }

      .cls-4 {
        opacity: .32;
      }

      .cls-4, .cls-32 {
        fill: #9b2738;
      }

      .cls-5 {
        fill: url(#linear-gradient-15);
      }

      .cls-5, .cls-6, .cls-7, .cls-8, .cls-9, .cls-10, .cls-11, .cls-12, .cls-13, .cls-14, .cls-15, .cls-16, .cls-22, .cls-46 {
        mix-blend-mode: color-dodge;
      }

      .cls-5, .cls-6, .cls-7, .cls-8, .cls-9, .cls-10, .cls-11, .cls-12, .cls-13, .cls-14, .cls-15, .cls-16, .cls-28, .cls-29, .cls-30, .cls-31, .cls-46 {
        opacity: .28;
      }

      .cls-6 {
        fill: url(#linear-gradient-19);
      }

      .cls-7 {
        fill: url(#linear-gradient-21);
      }

      .cls-8 {
        fill: url(#linear-gradient-18);
      }

      .cls-9 {
        fill: url(#linear-gradient-20);
      }

      .cls-10 {
        fill: url(#linear-gradient-14);
      }

      .cls-11 {
        fill: url(#linear-gradient-11);
      }

      .cls-12 {
        fill: url(#linear-gradient-10);
      }

      .cls-13 {
        fill: url(#linear-gradient-12);
      }

      .cls-14 {
        fill: url(#linear-gradient-13);
      }

      .cls-15 {
        fill: url(#linear-gradient-16);
      }

      .cls-16 {
        fill: url(#linear-gradient-17);
      }

      .cls-47 {
        clip-path: url(#clippath);
      }

      .cls-17 {
        fill: none;
      }

      .cls-18 {
        fill: url(#linear-gradient-9);
      }

      .cls-18, .cls-21 {
        opacity: .18;
      }

      .cls-19, .cls-21 {
        fill: #831840;
      }

      .cls-19, .cls-33, .cls-34, .cls-35 {
        opacity: .34;
      }

      .cls-20 {
        fill: url(#linear-gradient);
      }

      .cls-22 {
        opacity: .51;
      }

      .cls-22, .cls-46 {
        fill: #f09e55;
      }

      .cls-23 {
        fill: url(#linear-gradient-33);
      }

      .cls-24 {
        fill: url(#linear-gradient-28);
      }

      .cls-25 {
        fill: url(#linear-gradient-25);
      }

      .cls-26 {
        fill: url(#linear-gradient-27);
      }

      .cls-27 {
        fill: url(#linear-gradient-26);
      }

      .cls-28 {
        fill: url(#linear-gradient-36);
      }

      .cls-29 {
        fill: url(#linear-gradient-34);
      }

      .cls-30 {
        fill: url(#linear-gradient-35);
      }

      .cls-31 {
        fill: #e37373;
      }

      .cls-32 {
        opacity: .1;
      }

      .cls-33 {
        fill: url(#linear-gradient-22);
      }

      .cls-34 {
        fill: url(#linear-gradient-23);
      }

      .cls-35 {
        fill: url(#linear-gradient-24);
      }

      .cls-36 {
        fill: url(#linear-gradient-32);
      }

      .cls-37 {
        fill: url(#linear-gradient-29);
      }

      .cls-38 {
        fill: url(#linear-gradient-30);
      }

      .cls-39 {
        fill: url(#linear-gradient-31);
      }

      .cls-40 {
        fill: #5c0e1f;
        opacity: .24;
      }

      .cls-41 {
        fill: url(#linear-gradient-3);
      }

      .cls-42 {
        fill: url(#linear-gradient-8);
      }

      .cls-43 {
        fill: url(#linear-gradient-7);
      }

      .cls-44 {
        fill: url(#linear-gradient-5);
      }

      .cls-48 {
        isolation: isolate;
      }

      .cls-45 {
        fill: #5a3e65;
      }
    </style>
    <linearGradient id="linear-gradient" x1="383.48" y1="993.37" x2="383.48" y2="926.22" gradientUnits="userSpaceOnUse">
      <stop offset="0" stop-color="#c17869"/>
      <stop offset=".12" stop-color="#b06d60"/>
      <stop offset=".38" stop-color="#925a51"/>
      <stop offset=".61" stop-color="#7f4e47"/>
      <stop offset=".76" stop-color="#794a44"/>
    </linearGradient>
    <linearGradient id="linear-gradient-2" x1="383.48" y1="1000.12" x2="383.48" y2="803.2" gradientUnits="userSpaceOnUse">
      <stop offset="0" stop-color="#fff"/>
      <stop offset=".09" stop-color="#f9f4f6"/>
      <stop offset=".25" stop-color="#ead8df"/>
      <stop offset=".46" stop-color="#d2abba"/>
      <stop offset=".7" stop-color="#b06d86"/>
      <stop offset=".98" stop-color="#861e45"/>
      <stop offset="1" stop-color="#831840"/>
    </linearGradient>
    <linearGradient id="linear-gradient-3" x1="866.46" y1="904.22" x2="866.46" y2="842.6" gradientUnits="userSpaceOnUse">
      <stop offset="0" stop-color="#c17869"/>
      <stop offset=".16" stop-color="#b06d60"/>
      <stop offset=".5" stop-color="#925a51"/>
      <stop offset=".79" stop-color="#7f4e47"/>
      <stop offset="1" stop-color="#794a44"/>
    </linearGradient>
    <linearGradient id="linear-gradient-4" x1="876.43" y1="887.81" x2="876.43" y2="826.2" gradientUnits="userSpaceOnUse">
      <stop offset="0" stop-color="#fff"/>
      <stop offset=".14" stop-color="#f1e4e9"/>
      <stop offset=".44" stop-color="#cda2b2"/>
      <stop offset=".87" stop-color="#94385a"/>
      <stop offset="1" stop-color="#831840"/>
    </linearGradient>
    <linearGradient id="linear-gradient-5" x1="765.1" y1="1001.6" x2="560.59" y2="219.38" gradientUnits="userSpaceOnUse">
      <stop offset="0" stop-color="#c17869"/>
      <stop offset=".04" stop-color="#b46f62"/>
      <stop offset=".12" stop-color="#9e6157"/>
      <stop offset=".22" stop-color="#8d574e"/>
      <stop offset=".35" stop-color="#814f48"/>
      <stop offset=".52" stop-color="#7a4b44"/>
      <stop offset="1" stop-color="#794a44"/>
    </linearGradient>
    <linearGradient id="linear-gradient-6" x1="608.28" y1="1088.88" x2="608.28" y2="200.74" gradientUnits="userSpaceOnUse">
      <stop offset="0" stop-color="#fff"/>
      <stop offset=".15" stop-color="#e0c5cf"/>
      <stop offset=".31" stop-color="#c491a4"/>
      <stop offset=".47" stop-color="#ac6580"/>
      <stop offset=".62" stop-color="#9a4364"/>
      <stop offset=".76" stop-color="#8d2b50"/>
      <stop offset=".89" stop-color="#851d44"/>
      <stop offset="1" stop-color="#831840"/>
    </linearGradient>
    <linearGradient id="linear-gradient-7" x1="587.33" y1="804.4" x2="587.33" y2="166" gradientUnits="userSpaceOnUse">
      <stop offset="0" stop-color="#923f32"/>
      <stop offset=".98" stop-color="#b16145"/>
    </linearGradient>
    <clipPath id="clippath">
      <path id="SVGID" class="cls-17" d="m975.16,92.04l-68.08-32.87s-214.87,36.02-366.16,32.16c-151.3-3.86-302.59,15.44-302.59,15.44l-57.78,23.86,43.23,327.35,13.99,6.43-11.44,9,29.24,180.09-20.34,10.29,58.48,194.24,362.35-20.58,258.09-21.87,24.16-196.81,17.8-1.29,29.24-169.8-26.7-10.55,16.53-345.1Zm-718.97,110.3c37.19-20.26,116.33,35.21,58.64,46.31-57.69,11.09-73.26-38.34-58.64-46.31Zm39.57,360.8c-6.79-31.61,72.47-22.67,71.99,0-.48,22.67-67.23,22.19-71.99,0Zm38.62,205.97c-7.68-22.66,42.91-41.48,57.21-26.05,14.3,15.44-45.77,59.82-57.21,26.05Zm509.67-39.56c-6.4-19.92,45.3-35.43,56.26-22.19,10.95,13.24-43.86,60.78-56.26,22.19Zm-.55-186.2c-14.68-40.22,64.91-35.7,66.34-21.71,1.43,13.99-54.01,55.47-66.34,21.71Zm32.28-329.93c-14.44-24.77,50.11-50.65,64.57-30.87,14.46,19.78-47.14,60.78-64.57,30.87Z"/>
    </clipPath>
    <linearGradient id="linear-gradient-8" x1="582.93" y1="1104.75" x2="582.93" y2="-114.59" gradientUnits="userSpaceOnUse">
      <stop offset=".28" stop-color="#d77e4f"/>
      <stop offset=".74" stop-color="#e29d65"/>
      <stop offset="1" stop-color="#eab174"/>
    </linearGradient>
    <linearGradient id="linear-gradient-9" x1="584.87" y1="800.65" x2="584.87" y2="-168.58" gradientUnits="userSpaceOnUse">
      <stop offset="0" stop-color="#831840"/>
      <stop offset=".13" stop-color="#94385a"/>
      <stop offset=".56" stop-color="#cda2b2"/>
      <stop offset=".86" stop-color="#f1e4e9"/>
      <stop offset="1" stop-color="#fff"/>
    </linearGradient>
    <linearGradient id="linear-gradient-10" x1="630.28" y1="825.51" x2="630.28" y2="-17.6" gradientUnits="userSpaceOnUse">
      <stop offset="0" stop-color="#000"/>
      <stop offset="1" stop-color="#f09e55"/>
    </linearGradient>
    <linearGradient id="linear-gradient-11" x1="399.04" y1="825.51" x2="399.04" y2="-17.6" xlink:href="#linear-gradient-10"/>
    <linearGradient id="linear-gradient-12" x1="591.5" y1="825.51" x2="591.5" y2="-17.6" xlink:href="#linear-gradient-10"/>
    <linearGradient id="linear-gradient-13" x1="627.22" y1="1068.11" x2="627.22" y2="-340.3" xlink:href="#linear-gradient-10"/>
    <linearGradient id="linear-gradient-14" x1="626.56" y1="520.77" x2="626.56" y2="-711.88" xlink:href="#linear-gradient-10"/>
    <linearGradient id="linear-gradient-15" x1="512.8" y1="660.74" x2="512.8" y2="-135.57" xlink:href="#linear-gradient-10"/>
    <linearGradient id="linear-gradient-16" x1="777.14" y1="825.51" x2="777.14" y2="-17.6" xlink:href="#linear-gradient-10"/>
    <linearGradient id="linear-gradient-17" x1="604.76" y1="825.51" x2="604.76" y2="-17.6" xlink:href="#linear-gradient-10"/>
    <linearGradient id="linear-gradient-18" x1="339.32" y1="877.41" x2="339.32" y2="-249.91" xlink:href="#linear-gradient-10"/>
    <linearGradient id="linear-gradient-19" x1="830.56" y1="825.51" x2="830.56" y2="-17.6" xlink:href="#linear-gradient-10"/>
    <linearGradient id="linear-gradient-20" x1="717.98" y1="920.36" x2="717.98" y2="-173.08" xlink:href="#linear-gradient-10"/>
    <linearGradient id="linear-gradient-21" x1="791.34" y1="825.51" x2="791.34" y2="-17.6" xlink:href="#linear-gradient-10"/>
    <linearGradient id="linear-gradient-22" x1="586.75" y1="858.03" x2="586.75" y2="618.77" gradientUnits="userSpaceOnUse">
      <stop offset="0" stop-color="#831840"/>
      <stop offset=".04" stop-color="#882147"/>
      <stop offset=".11" stop-color="#963b5d"/>
      <stop offset=".19" stop-color="#ac6580"/>
      <stop offset=".29" stop-color="#cb9fb0"/>
      <stop offset=".4" stop-color="#f3e9ed"/>
      <stop offset=".43" stop-color="#fff"/>
    </linearGradient>
    <linearGradient id="linear-gradient-23" x1="605.82" y1="653.5" x2="605.82" y2="447.69" xlink:href="#linear-gradient-22"/>
    <linearGradient id="linear-gradient-24" x1="571.43" y1="469.1" x2="571.43" y2="111.68" xlink:href="#linear-gradient-22"/>
    <linearGradient id="linear-gradient-25" x1="386.88" y1="230.29" x2="386.88" y2="75.58" gradientUnits="userSpaceOnUse">
      <stop offset="0" stop-color="#794a44"/>
      <stop offset=".21" stop-color="#7f4e47"/>
      <stop offset=".5" stop-color="#925a51"/>
      <stop offset=".84" stop-color="#b06d60"/>
      <stop offset="1" stop-color="#c17869"/>
    </linearGradient>
    <linearGradient id="linear-gradient-26" x1="847.21" y1="194.68" x2="847.21" y2="60.26" xlink:href="#linear-gradient-25"/>
    <linearGradient id="linear-gradient-27" x1="353.7" y1="756.64" x2="353.7" y2="550.58" xlink:href="#linear-gradient-25"/>
    <linearGradient id="linear-gradient-28" x1="872.58" y1="722.74" x2="872.58" y2="531.34" xlink:href="#linear-gradient-25"/>
    <linearGradient id="linear-gradient-29" x1="386.88" y1="230.29" x2="386.88" y2="80.8" gradientUnits="userSpaceOnUse">
      <stop offset="0" stop-color="#831840"/>
      <stop offset=".09" stop-color="#872047"/>
      <stop offset=".24" stop-color="#94385a"/>
      <stop offset=".42" stop-color="#a95e7a"/>
      <stop offset=".64" stop-color="#c594a6"/>
      <stop offset=".87" stop-color="#ead8de"/>
      <stop offset="1" stop-color="#fff"/>
    </linearGradient>
    <linearGradient id="linear-gradient-30" x1="847.2" y1="194.68" x2="847.2" y2="70.5" gradientUnits="userSpaceOnUse">
      <stop offset="0" stop-color="#831840"/>
      <stop offset=".1" stop-color="#861e45"/>
      <stop offset=".23" stop-color="#8f2f53"/>
      <stop offset=".39" stop-color="#9f4c6b"/>
      <stop offset=".56" stop-color="#b4748c"/>
      <stop offset=".74" stop-color="#d0a8b7"/>
      <stop offset=".93" stop-color="#f1e6ea"/>
      <stop offset="1" stop-color="#fff"/>
    </linearGradient>
    <linearGradient id="linear-gradient-31" x1="353.69" y1="756.64" x2="353.69" y2="550.58" xlink:href="#linear-gradient-9"/>
    <linearGradient id="linear-gradient-32" x1="875.18" y1="722.74" x2="875.18" y2="531.34" xlink:href="#linear-gradient-9"/>
    <linearGradient id="linear-gradient-33" x1="583.35" y1="859.79" x2="583.35" y2="-1043.07" gradientUnits="userSpaceOnUse">
      <stop offset=".04" stop-color="#f9e09e"/>
      <stop offset=".41" stop-color="#e1b77e"/>
      <stop offset="1" stop-color="#ba7247"/>
    </linearGradient>
    <linearGradient id="linear-gradient-34" x1="610.83" y1="849.08" x2="610.83" y2="608.1" gradientUnits="userSpaceOnUse">
      <stop offset=".28" stop-color="#e37373"/>
      <stop offset=".3" stop-color="#e57f7f"/>
      <stop offset=".41" stop-color="#eda6a6"/>
      <stop offset=".51" stop-color="#f3c6c6"/>
      <stop offset=".62" stop-color="#f8dfdf"/>
      <stop offset=".74" stop-color="#fcf1f1"/>
      <stop offset=".86" stop-color="#fefbfb"/>
      <stop offset="1" stop-color="#fff"/>
    </linearGradient>
    <linearGradient id="linear-gradient-35" x1="555.75" y1="1033.67" x2="555.75" y2="483.23" gradientTransform="translate(313.88 -241.4) rotate(23.26)" gradientUnits="userSpaceOnUse">
      <stop offset="0" stop-color="#e37373"/>
      <stop offset=".14" stop-color="#e57e7e"/>
      <stop offset=".38" stop-color="#eb9c9c"/>
      <stop offset=".71" stop-color="#f5cdcd"/>
      <stop offset="1" stop-color="#fff"/>
    </linearGradient>
    <linearGradient id="linear-gradient-36" x1="458.31" y1="737.33" x2="510.02" y2="737.33" xlink:href="#linear-gradient-35"/>
  </defs>
  <g class="cls-48">
    <g id="Layer_2" data-name="Layer 2">
      <g id="Layer_1-2" data-name="Layer 1">
        <g>
          <g>
            <path class="cls-20" d="m362.03,931.19s-22.89,21.22-34.33,25.57c0,0,19.07,23.52,48.15,23.1,0,0,2.86-17.36,1.91-24.33,0,0,9.06,9.33,9.06,24.33,0,0,5.72-7.24-1.91-24.33,0,0,10.97,8.47,15.26,21.97,0,0,22.41-6,39.1-30.02,0,0-27.02,1.33-28.61-24.98-1.59-26.3-48.63,8.68-48.63,8.68Z"/>
            <path class="cls-2" d="m410.66,922.51c-1.59-26.3-48.63,8.68-48.63,8.68,0,0-22.89,21.22-34.33,25.57,0,0,.29.36.84.97,49.55-13.95,26.33,1.68,20.87,5.13,21.14-13.85,20.88,10.62,20.88,10.62,2.98-38.81,14.91-29.97,23.43-17.89-15.8-31.01,22.02,5.99,22.02,5.99-15.26-22.51-2.86-18.65,7.63-14.1,10.49,4.55,15.89,0,15.89,0,0,0-27.02,1.33-28.61-24.98Z"/>
            <path class="cls-41" d="m851.2,828.45s-15.73,29.42-40.05,38.11c0,0,8.1,11.58,23.36,11.09l21.93-24.59-12.94,24.61,17.71-24.61s-5.24,20.74,4.29,34.72c0,0,30.99,1.93,56.26-22.19,0,0-17.16-15.44-18.12-30.39s-52.44-6.75-52.44-6.75Z"/>
            <path class="cls-3" d="m903.64,835.2c-.95-14.95-52.44-6.75-52.44-6.75,0,0-7.48,13.99-20.1,25.52,9.69-4.62,16.8-4.36,4.2,16.93,0,0,39.73-55.31,27.34,2.89,0,0,17.22-38.91,31.97,0,0,0-18.62-48.88,27.15-8.2,0,0-17.16-15.44-18.12-30.39Z"/>
            <path class="cls-44" d="m277.16,188.42l42.68,388.86,43.84,247.09v74.51s-24.54,11.58-14.05,36.66c10.49,25.08,41.75,2.89,41.75,2.89,0,0,10.7,4.82,25.95-15.44,15.26-20.26-10.75-29.91-22.06-29.91,0,0,2.73-41.92,0-75.95-2.73-34.03,446.42-31.93,446.42-31.93,0,0-29.05,51.22,28.37,54.47,0,0,6.9,10.26,31.68,0,24.78-10.26,0-43.55,0-43.55l-11.45-51.77,8.42-78.96,14.05-190.51,26.63-331.14-57.99-7.82s20.51,191.03-7.7,280.66c-28.21,89.63,8.56,107,2.09,177.42-6.47,70.43-321.14,125.42-321.14,125.42L353.7,183.05l-69.86,5.79-6.67-.42Z"/>
            <path class="cls-1" d="m912.76,474.89l26.63-331.14-57.99-7.82s20.51,191.03-7.7,280.66c-28.21,89.63,8.56,107,2.09,177.42-6.47,70.43-321.14,125.42-321.14,125.42L353.7,183.05l-69.86,5.79-6.67-.42,42.68,388.86,42.52,239.66,1.32,7.43v45.38c2.78-5.73,7.88-11.68,16.78-9.14,15.89,4.53,10.92,35.05,10.92,35.05,0,0-11.06-20.62-27.7,3.22,0,0-19.81,9.43-16.12,29.61.31-2.06,3.2-18.26,17.41-21.57,15.18-3.54,28.75,9.65,26.41,19.29-2.09,8.63-23.4,23.62-38.34,14.96,12.59,15.45,38.34-2.74,38.34-2.74,0,0,10.7,4.82,25.95-15.44.13-.17.2-.32.32-.49-2.9,2.3-6.71,3.72-11.76,3.06-17.15-2.25-17.92-29.19.54-30.37-4.06-1.4-8.13-2.11-11.16-2.11,0,0,2.73-41.92,0-75.95-.09-1.15.38-2.26,1.29-3.33,25.95-30.56,445.13-28.6,445.13-28.6,0,0-29.05,51.22,28.37,54.47,0,0,6.9,10.26,31.68,0,24.78-10.26,0-43.55,0-43.55l-11.45-51.77,8.42-78.96,14.05-190.51Zm-3.08,351.31c-2.75,10.44-26.06,16.07-33.69,8.35-.67-.68-13.03,1.29-22.88-4.5-9.85-5.79,22.88-15.11,22.88-15.11,0,0,1.93,8.59,0,14.15,0,0,3.5-13.19,11.44-14.15,7.95-.96,25,.83,22.25,11.26Z"/>
            <path class="cls-43" d="m261.96,193.66s-18.66,21.02,21.88,36.66c40.53,15.64,49.75-9.77,49.75-9.77l542.48-22.62s3.48,15.47,32.04,10.2c28.56-5.27,38.87-26.55,34.42-32.57-4.44-6.02,10.27-9.56,10.27-9.56l-10.27,243.14-377.4,92.26-269.79,20.26s-15.32,41.48,28.54,41.48,39.8-20.49,39.8-20.49l472.64-20.99s3.08,23.73,32.04,20.99c28.95-2.74,25.95-29.68,25.95-29.68l26.27-19.04s9.56,47.07,6.33,53.32c-3.23,6.25-28.98,60.06-28.98,60.06l-564.33,102.48s-4.49,54.99,22.46,57.4c26.95,2.41,37.72-14.61,37.72-14.61l457.42-57.5s-9.26,34.04,14.3,35.36c23.56,1.32,34.63-.4,34.8-23.08.18-22.67,9.56-18.81,9.56-18.81l-1.76,41.89-32.33,41.15s-157.13,34.66-215.29,32.73c-58.17-1.93-359.54-6.91-359.54-6.91L221.86,175.56l40.1,18.1Z"/>
            <path class="cls-46" d="m410.66,94.34c-255.13,26.28-66.55,6.69-32.77.22-80.85,4.71-139.57,12.2-139.57,12.2l-57.78,23.86s114.3-16.46,254.85-18.69c-116.41-7.26-24.72-17.6-24.72-17.6Z"/>
            <g class="cls-47">
              <path class="cls-42" d="m238.32,106.77l-57.78,23.86,43.23,327.35,13.99,6.43-11.44,9,29.24,180.09-20.34,10.29,58.48,194.24,362.35-20.58,258.09-21.87,24.16-196.81,17.8-1.29,29.24-169.8-26.7-10.55,16.53-345.1-68.08-32.87s-214.87,36.02-366.16,32.16c-151.3-3.86-302.59,15.44-302.59,15.44Z"/>
              <path class="cls-22" d="m226.31,473.42s530.17,10.29,759.02-25.73l-26.7-10.55s-584.84,46.57-720.88,27.27l-11.44,9Z"/>
              <path class="cls-22" d="m235.21,663.8s545.43-29.59,703.08-45.02l-682.74,34.73-20.34,10.29Z"/>
              <path class="cls-22" d="m540.91,91.33c-151.3-3.86-302.59,15.44-302.59,15.44l-57.78,23.86s192.58-27.76,385.23-16.08c192.65,11.68,409.39-22.51,409.39-22.51l-68.08-32.87s-214.87,36.02-366.16,32.16Z"/>
              <path class="cls-18" d="m162.74,205.21s33.19-70.54,326.11-107.83C781.77,60.1,850.5,0,850.5,0v8.68s-85.12,61.49-337.81,93.32c-252.69,31.84-339.46,151.51-339.46,151.51,0,0,112.52-117.74,287.02-129.32,174.5-11.58,523.75-70.17,523.75-70.17l15.89,12.54S343.91,327.92,249.51,416.59c449.24-421.95,216.33,11.47,759.98-123.58C1398.35,184.48-94.53,225.56,219.95,441.52c-74.38-51.07,394.77-310.9,394.77-310.9,0,0-327.07,79.41-495.84,412.25-168.78,332.84,104.89-84.9,104.89-84.9,0,0,423.38-120.58,756.16-266.25,332.79-145.68.95,13.48.95,13.48,0,0-186.87,229.56-530.16,261.91-343.29,32.35,9.4,95.77,182.11,46.82,0,0-110.29,51.13-27.02,77.18,83.28,26.05,416.06-85.86,416.06-85.86,0,0-2.86-18.33-8.58-18.33-5.72,0-184.99,82.97-340.42,90.69-155.43,7.72,312.45-129.92,312.45-129.92l11.76-.32s-290.83,92.62-289.88,107.09c.95,14.47,298.46-89.67,298.46-89.67l28.61,53.01s-625.53,183.3-464.38,30.87c0,0-129.36,108.37-343.59,70.1v-13.19s186.26,39.56,333.11-59.81c0,0-230.76,54.03-345.18,15.44l1.91-28.94s125.87,40.52,302.27,5.79c0,0-407.16-7.89-183.08-63.28,0,0-67.22,1-121.1,39.16-53.88,38.16-53.4,86.83-52.44,92.62.95,5.79,52.44,132.17,52.44,132.17h43.54s150.35-64,404.63-73.32c254.28-9.33,361.08-63.19,361.08-63.19l-21.61,18.81s-78.83,43.78-303.86,59.36c-225.04,15.57-462.79,141.44-462.79,141.44,0,0,282.25-110.43,425.92-118.79,143.67-8.36,335.65-50.81,335.65-50.81l3.81,11.58s-162.74,41.8-386.5,54.99c-223.77,13.19-433.55,184.18-433.55,184.18l153.84-30.78s253.01-186.93,657.31-155.21c404.3,31.72-6.36,13.47-6.36,13.47,0,0-258.09-69.22-602.64,141.74l19.07,3.86s273.42-183.65,573.4-118.99v12.36s-255.57-87.61-537.81,109.2l77.57,9s202.15-147.39,418.29-62.12c216.14,85.27-35.6,32.53-35.6,32.53,0,0-133.5-117.24-353.45,44.93-219.95,162.17-447.53-24.35-447.53-24.35L0,680.38,162.74,205.21Z"/>
              <path class="cls-46" d="m731.05,94.34c183.27-6.43,84.07,12.16,47.45,18.31,111.24-7.14,196.66-20.61,196.66-20.61l-68.08-32.87s-5.8.97-16.02,2.56c41.65,10.89-160.01,32.61-160.01,32.61Z"/>
              <path class="cls-12" d="m698,680.38c-225.04,15.57-462.79,141.44-462.79,141.44,0,0,12.28-4.8,32.97-12.46,71.58-34.07,255.52-113.85,431.7-126.04,225.04-15.57,303.86-59.36,303.86-59.36l21.61-18.81s-3.49,1.75-10.57,4.64l-12.92,11.24s-78.83,43.78-303.86,59.36Z"/>
              <path class="cls-11" d="m569.9,548.67s-128.62,107.7-341.72,70.4v2.63c171.5,30.64,288.52-32.66,328.42-59.15,3.64-4.29,8.02-8.9,13.3-13.88Z"/>
              <path class="cls-13" d="m614.08,718.79c-223.77,13.19-433.55,184.18-433.55,184.18l7.5-1.5c34.69-26.87,225.57-167.82,427.92-179.74,223.77-13.19,386.5-54.99,386.5-54.99l-3.81-11.58s-.34.07-.85.19l2.79,8.46s-162.74,41.8-386.5,54.99Z"/>
              <path class="cls-14" d="m219.95,441.52c-2.14-1.47-3.78-3-5.05-4.58,1.21,2.64,3.48,5.15,6.92,7.52C-92.66,228.5,1400.22,187.42,1011.36,295.94c0,0-50.08-128.4-124.55-110.82-207.79,54.36-611.95,294.11-666.86,256.4Z"/>
              <path class="cls-10" d="m251.39,419.52c94.4-88.67,750.38-350.02,750.38-350.02,0,0-756.11,355.4-750.38,350.02Z"/>
              <path class="cls-5" d="m512.69,102.01c-252.69,31.84-339.46,151.51-339.46,151.51,0,0,12.99-13.57,36.91-31.93,45.68-37.92,139.83-95.91,304.42-116.65,252.69-31.84,337.81-93.32,337.81-93.32V2.93s-.59.79-1.88,2.2v3.56s-85.12,61.49-337.81,93.32Z"/>
              <path class="cls-15" d="m1163.47,735.45c-32.22,1.48-178.14-5-178.14-5,0,0-258.09-69.22-602.64,141.74l5.05,1.02c342.95-208.59,599.47-139.83,599.47-139.83,0,0,229.92,10.22,176.26,2.07Z"/>
              <path class="cls-16" d="m578.41,575.6c-13.46-26.35,56.3-58.74,56.3-58.74-4.84,1.37-9.83,2.64-14.93,3.84-20.53,11.45-56.47,35.31-41.37,54.9Z"/>
              <path class="cls-8" d="m118.88,542.88c-48.04,94.73-60.2,128.61-53.07,128.67-.25-10.01,14.84-46.66,54.95-125.74C273.58,244.43,556.17,125.47,608.23,132.3c4.17-1.08,6.49-1.67,6.49-1.67,0,0-327.07,79.41-495.84,412.25Z"/>
              <path class="cls-6" d="m1013.3,486.92c-5.72,0-184.99,82.97-340.42,90.69-16.49.82-25.9-.01-29.66-2.13-.5,4.19,8.83,6.19,31.54,5.06,155.43-7.72,334.69-90.69,340.42-90.69,1,0,1.91.58,2.74,1.51-1.25-2.56-2.78-4.44-4.61-4.44Z"/>
              <path class="cls-9" d="m450.72,467.12c-119.26,11.24-154.47,26.22-142.47,38.95-4.28-12.05,34.12-25.63,144.34-36.02,343.29-32.35,530.16-261.91,530.16-261.91,0,0,195.64,47,135.77,69.4-32.63,18.13-137.65-72.33-137.65-72.33,0,0-186.87,229.56-530.16,261.91Z"/>
              <path class="cls-7" d="m546.53,597.41c27.55,58.72,489.63-76.68,489.63-76.68l-28.61-53.01c-.25.09,26.73,50.08,26.73,50.08,0,0-445.86,130.65-487.75,79.61Z"/>
            </g>
            <path class="cls-21" d="m952.8,105.38c18.47.78,15.5,68.12,13.64,94.35l8.71-107.69s-80.8,12.73-187.53,20c65.76-3.25,151.34-7.23,165.18-6.65Z"/>
            <path class="cls-21" d="m252.3,720.56s-9.94-46.96,6.75-49.37c16.69-2.41,440.05-34.73,440.05-34.73,0,0,216.1-7.23,224.63-2.65,8.53,4.58-9.23,168.74-15.61,170.59-6.38,1.85-600.77,51.25-612.77,35.27-11.91-15.87-42.61-117.65-43.02-119.05l41.37,137.4,362.35-20.58,258.09-21.87,24.16-196.81c-157.65,15.44-703.08,45.02-703.08,45.02l17.09,56.77Z"/>
            <path class="cls-21" d="m226.31,473.42l29.24,180.09,682.74-34.73,17.8-1.29,29.24-169.8c-228.85,36.02-759.02,25.73-759.02,25.73Zm723.42,128.79c-9.54,4.98-535.26,39.07-593.74,38.43-58.48-.64-90.21,6.42-100.44-21.87-10.23-28.29-15.79-62.49-15.79-62.49,0,0-6.26-70.65,22.2-69.36,28.46,1.29,577.8-21.87,605.13-22.51,27.33-.64,105.53-19.51,105.53,6.33s-13.35,126.49-22.89,131.47Z"/>
            <path class="cls-21" d="m958.63,437.14l3.69-186.44c-4.26,12.85-12.52,166.91-28.15,176.13-40.98,24.16-667.19,32.07-683.14,29.23-15.95-2.85-22.85-189.57-40.68-246.01-17.83-56.44-10.75-67.83,82.78-79.41,65.96-8.16,246.03-12.09,346.46-13.69-24.67-.17-49.44-.91-73.83-2.39-192.65-11.68-385.23,16.08-385.23,16.08l43.23,327.35,13.99,6.43c136.04,19.29,720.88-27.27,720.88-27.27Z"/>
            <path class="cls-21" d="m594.38,171.15s276.28-72.03,367.94-13.51c0,0-223.01-11.58-367.94,13.51Z"/>
            <path class="cls-21" d="m622.35,539.5c3.38-10.06,89.16-47.76,102.98-39.07,13.83,8.68-118.24,84.42-102.98,39.07Z"/>
            <path class="cls-21" d="m283.84,719.43s18.12-64.16,239.34-50.65c0,0-158.29,13.51-239.34,50.65Z"/>
            <path class="cls-19" d="m594.38,171.15s250.22-57.24,367.95-13.51c-91.66-58.53-367.95,13.51-367.95,13.51Z"/>
            <path class="cls-19" d="m622.35,539.5c-.16.48-.21.87-.34,1.33-.45,3.05.85,9.95,24.5,4.62,29.74-6.7,78.56-43.79,39.61-38.62-28.49,9.88-61.69,26.49-63.77,32.67Z"/>
            <path class="cls-19" d="m283.84,719.43s51.86-41.77,148.57-51.76c-135.71,6.39-148.57,51.76-148.57,51.76Z"/>
            <path class="cls-19" d="m277.16,744.36s95.35-49.51,190.71-49.28c0,0-126.82,40.45-190.71,49.28Z"/>
            <path class="cls-33" d="m252.3,720.56s-9.94-46.96,6.75-49.37c16.69-2.41,440.05-34.73,440.05-34.73,0,0,216.1-7.23,224.63-2.65,8.53,4.58-9.23,168.74-15.61,170.59-6.38,1.85-600.77,51.25-612.77,35.27-11.91-15.87-42.61-117.65-43.02-119.05l41.37,137.4,362.35-20.58,258.09-21.87,24.16-196.81c-157.65,15.44-703.08,45.02-703.08,45.02l17.09,56.77Z"/>
            <path class="cls-34" d="m226.31,473.42l29.24,180.09,682.74-34.73,17.8-1.29,29.24-169.8c-228.85,36.02-759.02,25.73-759.02,25.73Zm723.42,128.79c-9.54,4.98-535.26,39.07-593.74,38.43-58.48-.64-90.21,6.42-100.44-21.87-10.23-28.29-15.79-62.49-15.79-62.49,0,0-6.26-70.65,22.2-69.36,28.46,1.29,577.8-21.87,605.13-22.51,27.33-.64,105.53-19.51,105.53,6.33s-13.35,126.49-22.89,131.47Z"/>
            <path class="cls-35" d="m958.63,437.14l3.69-186.44c-4.26,12.85-12.52,166.91-28.15,176.13-40.98,24.16-667.19,32.07-683.14,29.23-15.95-2.85-22.85-189.57-40.68-246.01-17.83-56.44-10.75-67.83,82.78-79.41,65.96-8.16,246.03-12.09,346.46-13.69-24.67-.17-49.44-.91-73.83-2.39-192.65-11.68-385.23,16.08-385.23,16.08l43.23,327.35,13.99,6.43c136.04,19.29,720.88-27.27,720.88-27.27Z"/>
            <path class="cls-21" d="m321.34,145.63c-19.88,18.1-35.96,36.45-43.72,52.38,16.12.62,33.64,7.97,45.09,17,9.07-51.42,178.31-124.19,178.31-124.19-61.98-40.39-140.59,19.2-179.68,54.81Z"/>
            <path class="cls-21" d="m939.03,181.04c1.52-25.85-23.15-68.38-47.95-85.98-31.94-22.67-88.96-48.76-136.05-15.48,0,0,49.28,11.13,98.39,46.83,31.14,22.64,36.19,45.43,35.73,59.11,16.1-9.94,40.29-14.18,49.89-4.49Z"/>
            <path class="cls-21" d="m391.59,743.06c1.55,1.67,2.18,3.69,2.14,5.9,2.32-12.51,1.78-31.98-2.51-60.75-6.22-41.76-25.67-86.21-42.63-109.76-10.57,2.29-23.64,1.97-34.17-.93,6.38,12.51,24.1,48.99,39.11,96.63,10.33,32.76,8.18,54.04,4.2,66.57,12.81-4.54,27.22-4.81,33.85,2.35Z"/>
            <path class="cls-21" d="m860.26,556.22c-8.28,18.43-10.11,53.32-9.86,94.04.16,26.15,3.05,45.66,7.3,59.25,9.56-5,22-7.76,31.36-6.83-11.45-37.29-3.18-138.85-1.73-155.42-8.76,5.5-18.67,9.38-27.08,8.96Z"/>
            <path class="cls-22" d="m876.51,214.42c2.29,5.91,8.18,13.81,23.32,14.61,20.34,1.07,36.46-19.59,40.25-31.23-10.19,18.9-49.39,38.2-63.57,16.62Z"/>
            <path class="cls-22" d="m301.2,571.25c4.19,6.13,12.52,11.84,29.13,12.39,20.69.67,29.93-6.41,34.07-12.77-11.39,12.07-48.83,12.01-63.2.38Z"/>
            <path class="cls-22" d="m338.56,776.38c2.18,4.38,6.75,8.52,16.32,8.82,18.06.56,32.39-15.7,36.5-28.62-8.8,15.81-39.65,33.94-52.82,19.81Z"/>
            <path class="cls-22" d="m846.5,549.09c3.39,9.77,11.02,19.31,28.29,11.39,20.07-9.2,27.94-21.81,31-29.39-11.78,15.52-45.96,36.35-59.29,18Z"/>
            <path class="cls-22" d="m251.09,213.84c-.06.07-3.81,27.1,29.88,36.42,20.12,5.57,34.7.64,43.21-4.23-2.6,1.03-5.7,1.91-9.36,2.62-43.86,8.43-63.32-18.09-63.73-34.81Z"/>
            <path class="cls-22" d="m845.21,732.61c-.16,5.59,1.96,12.33,11.71,16,16.41,6.17,36.36-7.57,41.79-28.12-10.07,16.8-42.59,37.19-53.5,12.12Z"/>
            <path class="cls-25" d="m501.02,90.82s-198.94,78.72-176.83,126.47c0,0-16.23,23.97-41.3,6.8-25.07-17.17-.48-53.77,38.62-89.38,39.1-35.61,117.54-84.29,179.52-43.9Z"/>
            <path class="cls-27" d="m755.03,79.59s49.44.23,98.55,35.92c49.11,35.7,33.37,71.87,33.37,71.87,0,0,19.55,16.4,43.86,0,24.32-16.4-7.63-80.56-39.57-103.23-31.94-22.67-89.13-37.85-136.22-4.57Z"/>
            <path class="cls-26" d="m312.12,561.89s-.31-10,16.22-11.29c16.53-1.29,53.94,65.6,63.05,126.7,9.11,61.1,1.48,80.71-15.05,79.27-16.53-1.44-26.06-12.21-26.06-12.21,0,0,22.11-21.86,3.43-81.12-18.68-59.26-41.58-101.35-41.58-101.35Z"/>
            <path class="cls-24" d="m887.71,533.97s-13.63,145.38,6.72,168.48c0,0,2.54,7.9-11.18,18.05-13.72,10.15-32.26-13.5-32.68-81.14-.42-68.48,5.05-120.51,37.15-105.39Z"/>
            <path class="cls-37" d="m417.81,109.73c-82.48,50.65-123.96,112.88-135.88,94.06-6.94-10.95.8-25.79,8.48-36.32-18.46,23.65-24.84,44.77-7.53,56.62,25.07,17.17,41.3-6.8,41.3-6.8-22.11-47.76,176.83-126.47,176.83-126.47-7.2-4.69-14.42-7.93-21.63-10.02.15,7.64-24.44,6.12-61.59,28.93Z"/>
            <path class="cls-38" d="m853.58,115.51c49.11,35.7,33.37,71.87,33.37,71.87,0,0,19.55,16.4,43.86,0,12.53-8.45,10.06-29.6.4-51.21,13.94,45.23-22.85,43.9-42.36,5.87-19.55-38.11-58.87-38.82-99.87-61.01-8.23-4.45-13.44-7.88-16.58-10.54-6.05,2.27-11.9,5.22-17.38,9.09,0,0,49.44.23,98.55,35.92Z"/>
            <path class="cls-39" d="m384.44,735.3c-15.26.91-23.36-60.73-36.23-98.84-12.87-38.11-31.92-58.49-14.61-65.59,8.69-3.57,18.47,4.84,26.05,14.1-11.66-21.09-23.69-34.96-31.3-34.37-16.53,1.29-16.22,11.29-16.22,11.29,0,0,22.89,42.09,41.58,101.35,18.68,59.26-3.43,81.12-3.43,81.12,0,0,9.54,10.76,26.06,12.21,13.38,1.17,20.92-11.48,18.48-48.74-.46,13.51-2.81,27.02-10.37,27.47Z"/>
            <path class="cls-36" d="m856.55,556.85c23.12-44.36,24.54,24.04,22.77,64.66-1.91,43.9,12.74,90.05-6.71,86.83-7.33-1.22-12.84-8.65-16.87-17.43,6.57,27.69,18.14,36.5,27.49,29.59,13.72-10.15,11.18-18.05,11.18-18.05-20.34-23.09-6.72-168.48-6.72-168.48-16.46-7.75-25.9,2.17-31.16,22.88Z"/>
          </g>
          <path class="cls-19" d="m935.68,420.73c5.52-86.58,10.69-296.53,10.69-296.53,0,0-46.13,12.19-105.85,20.29-.01,0-12.42,25.21-12.42,25.21l-9.92-22.47c-30.8,3.38-218.43,5.29-250.02,3.78-48.67-2.33-130.17,7.13-202.92,17.81l3.14,25.67-12.58-24.26c-9.8,1.47-19.39,2.95-28.69,4.41v44.55l-24.07-40.67c-52.67,8.65-90.84,15.97-90.84,15.97,26.13,55.39,47.23,288.5,63.02,377.78l25.54-8.91-24.23,16.36c.74,4.26,1.47,8.5,2.18,12.73l35.05-5.58-34.02,11.67c19.5,116.86,29.61,221.54,29.61,221.54,35.73-5.39,75.82-8.84,116.1-11l20.57-25.63-.6,24.65c121.03-5.24,371.76.45,371.76.45l87.3-53.04c-5.35-23.39,19.39-130.58,25.44-238.8l-24.66,1.89,25.75-21.06c.85-14.64,1.71-29.19,2.59-43.48l-39.8,24.34,41.88-57.68Z"/>
          <path class="cls-23" d="m927.63,413.88c5.28-85.33,10.22-294.3,10.22-294.3,0,0-44.13,12.02-101.26,20-.01,0-11.88,24.85-11.88,24.85l-9.49-22.15c-29.46,3.33-215.65,5.21-245.88,3.72-46.56-2.3-124.52,7.02-194.11,17.55l3,25.3-12.03-23.91c-9.37,1.45-18.55,2.9-27.44,4.35v43.91l-23.02-40.08c-50.38,8.53-86.9,15.74-86.9,15.74,24.99,54.59,45.18,286.38,60.28,374.37l24.43-8.78-23.17,16.13c.71,4.2,1.4,8.38,2.09,12.55l33.53-5.5-32.54,11.5c18.65,115.18,28.33,218.36,28.33,218.36,34.18-5.31,72.52-8.71,111.06-10.84l19.68-25.26-.58,24.3c115.78-5.16,361.43.44,361.43.44l83.51-52.27c-5.12-23.05,19.44-128.7,25.23-235.37l-23.59,1.86,24.63-20.75c.81-14.43,1.64-28.77,2.48-42.86l-38.07,23.99,40.06-56.85Z"/>
          <path class="cls-40" d="m259.18,231.69s19.51,22.73,34.27,17.48c14.76-5.25,5.58-24.64,5.58-24.64l-39.85,7.16Z"/>
          <path class="cls-40" d="m884.22,169.88s-4.86,20.08,9.28,21.08c14.14,1,23.66-26.54,23.66-26.54l-32.94,5.46Z"/>
          <path class="cls-32" d="m543.3,777.51c-.44-7.93-22.45-16.08-53.36-6.78-30.34,9.13-45.57-6.38-39.88-21.52,5.7-15.18,95.92,5.93,138.79-16.31,43.98-22.82,5.87-54.74-51.41-34-55.37,20.04-86.81,44.68-113.1,33.56-25.85-10.93,7.6-41.72-10.28-55.48-17.67-13.6-6.38,36.55-12.93,43.63-6.52,7.06-32.39-10.88-26.94-53.85,5.47-43.06,6.12-62.66-16.42-47.84-22.22,14.62-27.04,104.84-39.27,32.01-3.85-22.94-15.22-47.05-24.21-62.11l-.85.3c18.65,115.18,28.33,218.36,28.33,218.36,34.18-5.31,72.52-8.71,111.06-10.84l19.68-25.26-.42,17.87c8.7-1.48,21.35-1.63,39.58,1.69,10.35,1.88,18.56,2.72,25.2,2.85,1.9-.03,3.79-.05,5.67-.08,20.14-1.06,21.07-10.42,20.75-16.22Z"/>
          <path class="cls-40" d="m345.44,773.81s2.83,10.66,15.67,10.66,11.02-16.85,11.02-16.85l-26.69,6.19Z"/>
          <path class="cls-40" d="m831.91,740.54s2.31,15.6,16.7,16.12c14.39.52,10.28-19.7,10.28-19.7l-26.98,3.58Z"/>
          <g>
            <path class="cls-45" d="m343.86,766.47c1.19-14.17,23.61-13.66,29.18-1.51,5.52,12.04-31.12,24.64-29.18,1.51Z"/>
            <path class="cls-31" d="m343.86,766.47c-1.94,23.13,34.7,10.54,29.18-1.51-.24-.52-.55-.99-.84-1.47,2.09,8.07-8.96,15.67-19.06,11.17-8.76-3.9-7.65-11.73-7.18-13.84-1.13,1.53-1.91,3.38-2.1,5.65Z"/>
          </g>
          <g>
            <path class="cls-45" d="m884.22,169.88c-5.36-18.9,21.82-30.45,34.4-17.74,12.49,12.62-25.66,48.58-34.4,17.74Z"/>
            <path class="cls-31" d="m884.22,169.88c8.74,30.84,46.89-5.13,34.4-17.74-.54-.54-1.14-.99-1.73-1.44,6.41,9.32-3.3,25.15-17.62,24.77-12.37-.33-14.8-11.02-15.24-13.99-.62,2.58-.67,5.39.19,8.41Z"/>
          </g>
          <g>
            <path class="cls-45" d="m257.21,218.08c-6.21,14.17,19.11,36.15,37.78,18.02,18.85-18.31-27.64-41.14-37.78-18.02Z"/>
            <path class="cls-31" d="m294.99,236.09c9.54-9.27,2.34-19.66-8.44-24.69.68.58,18.43,15.85-.36,23.73-13.28,5.57-23.94-2.63-29.23-8.15,3.79,12.37,23.02,23.7,38.04,9.11Z"/>
          </g>
          <g>
            <path class="cls-45" d="m832.29,732.47c-5.43,10.44,9.98,26.29,24.23,12.78,14.37-13.63-15.38-29.8-24.23-12.78Z"/>
            <path class="cls-31" d="m856.52,745.24c7.28-6.9,3.24-14.43-3.69-17.99.41.41,11.23,11.4-2.24,17.38-9.52,4.23-16.1-1.66-19.23-5.65,1.54,9.02,13.69,17.12,25.16,6.25Z"/>
          </g>
          <path class="cls-4" d="m441.91,623.82c16.64,2.6-6.54,33.06-11.66,24.75-5.1-8.28-1.65-26.83,11.66-24.75Z"/>
          <path class="cls-4" d="m447.85,654.1c-14.84,1.85-6.08,20.58,4.36,17.67,10.51-2.93,5.1-18.85-4.36-17.67Z"/>
          <path class="cls-29" d="m432.84,796.65l19.68-25.26-.58,24.3c115.78-5.16,361.43.44,361.43.44l83.51-52.27c-4-18,18.11-86.33,21.75-166.19-28.59,174.94-80.11,85.4-80.11,85.4,0,0-141.14,75.93-209.05,95.59-67.91,19.66-164.78-48.98-164.78-48.98-69.17,105.92-127.26,22.33-161.67-57.41,12.38,87.22,18.76,155.24,18.76,155.24,34.18-5.31,72.52-8.71,111.06-10.84Z"/>
          <path class="cls-30" d="m803.23,462.9s-264.34,76.96-404.37,105.34c0,0,89.28,21.45,159.4-3.03,0,0-90.68,39.06-187.37,32.7,0,0,161.12,27.89,257.66-79.94,0,0-66.23,56.66-143.01,55.66,0,0,248.55-42.22,317.69-110.72Z"/>
          <path class="cls-28" d="m436.59,633.78s27.01,1.65,61.99-13.3c0,0-23.6,23.17-61.99,13.3Z"/>
        </g>
      </g>
    </g>
  </g>
</svg>