<?xml version="1.0" encoding="UTF-8"?>
<svg id="Layer_2" data-name="Layer 2" xmlns="http://www.w3.org/2000/svg" viewBox="0 0 188.55 145.1">
  <defs>
    <style>
      .cls-1 {
        fill: #f9e286;
      }

      .cls-1, .cls-2, .cls-3, .cls-4, .cls-5, .cls-6, .cls-7, .cls-8 {
        stroke-width: 0px;
      }

      .cls-2 {
        fill: #f9e288;
      }

      .cls-3 {
        fill: #d98c3e;
      }

      .cls-4 {
        fill: #bd7a3b;
      }

      .cls-5 {
        fill: #a56735;
      }

      .cls-6 {
        fill: #e49c40;
      }

      .cls-7 {
        fill: #ebb75a;
      }

      .cls-8 {
        fill: #f6cc6e;
      }
    </style>
  </defs>
  <g id="Layer_1-2" data-name="Layer 1">
    <g>
      <g>
        <g>
          <path class="cls-7" d="m71.82,131.16H3.12c-1.87,0-3.12-1.25-3.12-3.12v-6.25c0-1.87,1.25-3.12,3.12-3.12h68.7c1.87,0,3.12,1.25,3.12,3.12v6.25c0,1.87-1.25,3.12-3.12,3.12h0Z"/>
          <path class="cls-8" d="m59.33,121.79H0c0-1.87,1.25-3.12,3.12-3.12h56.21v3.12Z"/>
          <path class="cls-6" d="m59.33,121.79v3.12c0,1.87-1.25,3.12-3.12,3.12H0c0,1.87,1.25,3.12,3.12,3.12h68.7c1.87,0,3.12-1.25,3.12-3.12v-6.25h-15.61,0Z"/>
          <path class="cls-6" d="m9.37,128.04v-4.68c0-.94-.62-1.56-1.56-1.56s-1.56.62-1.56,1.56v4.68m12.49,0v-4.68c0-.94-.62-1.56-1.56-1.56s-1.56.62-1.56,1.56v4.68m12.49,0v-4.68c0-.94-.62-1.56-1.56-1.56s-1.56.62-1.56,1.56v4.68m12.49,0v-4.68c0-.94-.62-1.56-1.56-1.56s-1.56.62-1.56,1.56v4.68m12.49,0v-4.68c0-.94-.62-1.56-1.56-1.56s-1.56.62-1.56,1.56v4.68m12.49,0v-4.68c0-.94-.62-1.56-1.56-1.56s-1.56.62-1.56,1.56v4.68"/>
          <path class="cls-7" d="m78.07,118.67H9.37c-1.87,0-3.12-1.25-3.12-3.12v-6.25c0-1.87,1.25-3.12,3.12-3.12h68.7c1.87,0,3.12,1.25,3.12,3.12v6.25c0,1.87-1.25,3.12-3.12,3.12Z"/>
          <path class="cls-8" d="m65.58,109.3H6.25c0-1.87,1.25-3.12,3.12-3.12h56.21v3.12Z"/>
          <path class="cls-6" d="m65.58,109.3v3.12c0,1.87-1.25,3.12-3.12,3.12H6.25c0,1.87,1.25,3.12,3.12,3.12h68.7c1.87,0,3.12-1.25,3.12-3.12v-6.25h-15.61,0Z"/>
          <path class="cls-6" d="m15.61,115.54v-4.68c0-.94-.62-1.56-1.56-1.56s-1.56.62-1.56,1.56v4.68m12.49,0v-4.68c0-.94-.62-1.56-1.56-1.56s-1.56.62-1.56,1.56v4.68m12.49,0v-4.68c0-.94-.62-1.56-1.56-1.56s-1.56.62-1.56,1.56v4.68m12.49,0v-4.68c0-.94-.62-1.56-1.56-1.56s-1.56.62-1.56,1.56v4.68m12.49,0v-4.68c0-.94-.62-1.56-1.56-1.56s-1.56.62-1.56,1.56v4.68m12.49,0v-4.68c0-.94-.62-1.56-1.56-1.56s-1.56.62-1.56,1.56v4.68"/>
          <path class="cls-7" d="m84.32,93.68H15.61c-1.87,0-3.12-1.25-3.12-3.12v-6.25c0-1.87,1.25-3.12,3.12-3.12h68.7c1.87,0,3.12,1.25,3.12,3.12v6.25c0,1.87-1.25,3.12-3.12,3.12Z"/>
          <path class="cls-8" d="m71.82,84.32H12.49c0-1.87,1.25-3.12,3.12-3.12h56.21v3.12Z"/>
          <path class="cls-6" d="m71.82,84.32v3.12c0,1.87-1.25,3.12-3.12,3.12H12.49c0,1.87,1.25,3.12,3.12,3.12h68.7c1.87,0,3.12-1.25,3.12-3.12v-6.25h-15.61Z"/>
          <path class="cls-6" d="m21.86,90.56v-4.68c0-.94-.62-1.56-1.56-1.56s-1.56.62-1.56,1.56v4.68m12.49,0v-4.68c0-.94-.62-1.56-1.56-1.56s-1.56.62-1.56,1.56v4.68m12.49,0v-4.68c0-.94-.62-1.56-1.56-1.56s-1.56.62-1.56,1.56v4.68m12.49,0v-4.68c0-.94-.62-1.56-1.56-1.56s-1.56.62-1.56,1.56v4.68m12.49,0v-4.68c0-.94-.62-1.56-1.56-1.56s-1.56.62-1.56,1.56v4.68m12.49,0v-4.68c0-.94-.62-1.56-1.56-1.56s-1.56.62-1.56,1.56v4.68"/>
          <path class="cls-7" d="m78.07,81.19H9.37c-1.87,0-3.12-1.25-3.12-3.12v-6.25c0-1.87,1.25-3.12,3.12-3.12h68.7c1.87,0,3.12,1.25,3.12,3.12v6.25c0,1.87-1.25,3.12-3.12,3.12Z"/>
          <path class="cls-8" d="m65.58,71.82H6.25c0-1.87,1.25-3.12,3.12-3.12h56.21v3.12Z"/>
          <path class="cls-6" d="m65.58,71.82v3.12c0,1.87-1.25,3.12-3.12,3.12H6.25c0,1.87,1.25,3.12,3.12,3.12h68.7c1.87,0,3.12-1.25,3.12-3.12v-6.25h-15.61,0Z"/>
          <path class="cls-6" d="m15.61,78.07v-4.68c0-.94-.62-1.56-1.56-1.56s-1.56.62-1.56,1.56v4.68m12.49,0v-4.68c0-.94-.62-1.56-1.56-1.56s-1.56.62-1.56,1.56v4.68m12.49,0v-4.68c0-.94-.62-1.56-1.56-1.56s-1.56.62-1.56,1.56v4.68m12.49,0v-4.68c0-.94-.62-1.56-1.56-1.56s-1.56.62-1.56,1.56v4.68m12.49,0v-4.68c0-.94-.62-1.56-1.56-1.56s-1.56.62-1.56,1.56v4.68m12.49,0v-4.68c0-.94-.62-1.56-1.56-1.56s-1.56.62-1.56,1.56v4.68"/>
          <path class="cls-7" d="m71.82,106.18H3.12c-1.87,0-3.12-1.25-3.12-3.12v-6.25c0-1.87,1.25-3.12,3.12-3.12h68.7c1.87,0,3.12,1.25,3.12,3.12v6.25c0,1.87-1.25,3.12-3.12,3.12h0Z"/>
          <path class="cls-8" d="m59.33,96.81H0c0-1.87,1.25-3.12,3.12-3.12h56.21v3.12Z"/>
          <path class="cls-6" d="m59.33,96.81v3.12c0,1.87-1.25,3.12-3.12,3.12H0c0,1.87,1.25,3.12,3.12,3.12h68.7c1.87,0,3.12-1.25,3.12-3.12v-6.25h-15.61,0Z"/>
          <path class="cls-6" d="m9.37,103.05v-4.68c0-.94-.62-1.56-1.56-1.56s-1.56.62-1.56,1.56v4.68m12.49,0v-4.68c0-.94-.62-1.56-1.56-1.56s-1.56.62-1.56,1.56v4.68m12.49,0v-4.68c0-.94-.62-1.56-1.56-1.56s-1.56.62-1.56,1.56v4.68m12.49,0v-4.68c0-.94-.62-1.56-1.56-1.56s-1.56.62-1.56,1.56v4.68m12.49,0v-4.68c0-.94-.62-1.56-1.56-1.56s-1.56.62-1.56,1.56v4.68m12.49,0v-4.68c0-.94-.62-1.56-1.56-1.56s-1.56.62-1.56,1.56v4.68"/>
          <path class="cls-4" d="m131.16,110.86c-4.06-2.81-6.25-7.49-6.25-12.49,0-19.05-7.49-37.16-20.92-50.59l-13.43-13.43v-9.37l10.93-13.74c.94-1.25,1.56-2.81,1.56-4.37,0-3.75-3.12-6.87-6.87-6.87h-11.87l-3.12,6.25-6.25-6.25h-14.99c-3.75,0-6.87,3.12-6.87,6.87,0,1.56.62,3.12,1.56,4.37l10.93,13.74v9.37l-13.43,13.43c-13.43,13.43-20.92,31.54-20.92,50.59,0,5-2.19,9.68-6.25,12.49-4.06,2.81-6.25,7.49-6.25,12.49,0,4.37,3.44,7.81,7.81,7.81h103.05c4.37,0,7.81-3.44,7.81-7.81,0-5-2.19-9.68-6.25-12.49h0Z"/>
          <path class="cls-5" d="m131.16,110.86c-4.06-3.12-6.25-7.81-6.25-12.8.31-19.67-8.74-38.1-22.48-52.15l-11.87-11.55v-9.37l10.93-13.74c1.87-2.19,2.19-5.31.62-8.12C100.87.94,98.37,0,95.87,0,93.68,0,92.43,2.5,93.06,4.37c.31.62.62,1.56.62,2.5,0,1.56-.62,3.12-1.56,4.37l-10.93,13.74v9.37h-15.61l-3.12,3.12h21.86l11.55,11.55c12.8,12.8,17.8,30.29,16.55,48.09-.31,5.31,1.87,10.31,5.93,13.43.31.31.62.62.94.62,4.68,5,.62,13.43-6.56,13.43H19.05c.62,3.44,3.75,6.25,7.49,6.25h103.05c4.37,0,7.81-3.43,7.81-7.81v-.62c0-4.68-2.5-8.74-6.25-11.55h0Z"/>
          <path class="cls-8" d="m92.12,34.35h-28.11c-2.5,0-4.68-2.19-4.68-4.68s2.19-4.68,4.68-4.68h28.11c2.5,0,4.68,2.19,4.68,4.68s-2.19,4.68-4.68,4.68h0Z"/>
          <path class="cls-1" d="m64.02,24.98h15.61c.94,0,1.56.62,1.56,1.56s-.62,1.56-1.56,1.56h-15.61c-.94,0-1.56-.62-1.56-1.56s.62-1.56,1.56-1.56h0Z"/>
          <path class="cls-7" d="m92.12,24.98h-1.56v3.12c0,1.87-1.25,3.12-3.12,3.12h-27.79c.62,1.87,2.5,3.12,4.37,3.12h28.11c2.5,0,4.68-2.19,4.68-4.68s-2.19-4.68-4.68-4.68Z"/>
          <path class="cls-6" d="m82.75,31.23h9.37c.94,0,1.56.62,1.56,1.56s-.62,1.56-1.56,1.56h-9.37c-.94,0-1.56-.62-1.56-1.56,0-.94.62-1.56,1.56-1.56Z"/>
          <path class="cls-7" d="m74.95,34.35h6.25v24.98h-6.25v-24.98Z"/>
          <path class="cls-6" d="m74.95,34.35v3.12h3.12v21.86h3.12v-24.98h-6.25Z"/>
          <g>
            <circle class="cls-7" cx="78.07" cy="81.19" r="24.98"/>
            <path class="cls-5" d="m97.12,65.27c3.75,4.37,5.93,9.68,5.93,15.93,0,13.74-11.24,24.98-24.98,24.98-6.25,0-11.55-2.19-15.93-5.93,4.68,5.62,11.55,9.06,19.05,9.06,13.74,0,24.98-11.24,24.98-24.98,0-7.81-3.44-14.68-9.06-19.05Z"/>
            <circle class="cls-8" cx="78.07" cy="81.19" r="21.86"/>
            <path class="cls-6" d="m99.93,81.19c0,12.18-9.68,21.86-21.86,21.86v3.12c13.74,0,24.98-11.24,24.98-24.98h-3.12Z"/>
            <path class="cls-2" d="m78.07,59.33v-3.12c-13.74,0-24.98,11.24-24.98,24.98h3.12c0-12.18,9.68-21.86,21.86-21.86Z"/>
          </g>
        </g>
        <g>
          <circle class="cls-7" cx="132.22" cy="110.05" r="24.98"/>
          <path class="cls-5" d="m151.27,94.12c3.75,4.37,5.93,9.68,5.93,15.93,0,13.74-11.24,24.98-24.98,24.98-6.25,0-11.55-2.19-15.93-5.93,4.68,5.62,11.55,9.06,19.05,9.06,13.74,0,24.98-11.24,24.98-24.98,0-7.81-3.44-14.68-9.06-19.05Z"/>
          <circle class="cls-8" cx="132.22" cy="110.05" r="21.86"/>
          <path class="cls-6" d="m154.08,110.05c0,12.18-9.68,21.86-21.86,21.86v3.12c13.74,0,24.98-11.24,24.98-24.98h-3.12Z"/>
          <path class="cls-2" d="m132.22,88.19v-3.12c-13.74,0-24.98,11.24-24.98,24.98h3.12c0-12.18,9.68-21.86,21.86-21.86Z"/>
        </g>
        <g>
          <g>
            <circle class="cls-7" cx="166.13" cy="116.98" r="20.87"/>
            <path class="cls-5" d="m185.74,110.21c1.63,4.53,1.76,9.32-.1,14.2-4.08,10.73-16.21,16.17-26.93,12.08-4.88-1.86-8.37-5.14-10.67-9.37,1.99,5.78,6.33,10.51,12.18,12.73,10.73,4.08,22.85-1.35,26.93-12.08,2.32-6.1,1.68-12.48-1.41-17.57Z"/>
            <circle class="cls-8" cx="166.13" cy="116.98" r="18.26"/>
            <path class="cls-6" d="m183.2,123.48c-3.62,9.51-14.06,14.19-23.57,10.57l-.93,2.44c10.73,4.08,22.85-1.35,26.93-12.08l-2.44-.93Z"/>
            <path class="cls-2" d="m172.63,99.91l.93-2.44c-10.73-4.08-22.85,1.35-26.93,12.08l2.44.93c3.62-9.51,14.06-14.19,23.57-10.57Z"/>
          </g>
          <g>
            <path class="cls-3" d="m158.13,114.02l12.94-9.99,3.02,16.07-9.75,1.61-6.21-7.69Z"/>
            <path class="cls-3" d="m163.78,123.17l9.55-1.85-11.9,8.04-3.72-13.99,6.08,7.8Z"/>
          </g>
        </g>
        <g>
          <g>
            <circle class="cls-7" cx="38.27" cy="120.86" r="20.87"/>
            <path class="cls-5" d="m57.88,114.09c1.63,4.53,1.76,9.32-.1,14.2-4.08,10.73-16.21,16.17-26.93,12.08-4.88-1.86-8.37-5.14-10.67-9.37,1.99,5.78,6.33,10.51,12.18,12.73,10.73,4.08,22.85-1.35,26.93-12.08,2.32-6.1,1.68-12.48-1.41-17.57Z"/>
            <circle class="cls-8" cx="38.27" cy="120.86" r="18.26"/>
            <path class="cls-6" d="m55.34,127.36c-3.62,9.51-14.06,14.19-23.57,10.57l-.93,2.44c10.73,4.08,22.85-1.35,26.93-12.08l-2.44-.93Z"/>
            <path class="cls-2" d="m44.77,103.8l.93-2.44c-10.73-4.08-22.85,1.35-26.93,12.08l2.44.93c3.62-9.51,14.06-14.19,23.57-10.57Z"/>
          </g>
          <g>
            <path class="cls-3" d="m30.26,117.9l12.94-9.99,3.02,16.07-9.75,1.61-6.21-7.69Z"/>
            <path class="cls-3" d="m35.91,127.05l9.55-1.85-11.9,8.04-3.72-13.99,6.08,7.8Z"/>
          </g>
        </g>
      </g>
      <path class="cls-3" d="m143.43,110.85c-.75-.97-1.88-1.63-3.39-2,1.93-.98,2.77-2.65,2.54-5-.08-.85-.31-1.59-.71-2.22-.39-.63-.93-1.13-1.6-1.51-.67-.38-1.4-.67-2.19-.87-.79-.2-1.69-.35-2.71-.44v-4.88h-2.98v4.75c-.52,0-1.3.01-2.36.04v-4.79h-2.98v4.88c-.43.01-1.05.02-1.88.02l-4.11-.02v3.18h2.15c.98,0,1.56.44,1.72,1.32v5.56c.13,0,.23,0,.31.02h-.31v7.79c-.1.66-.48.99-1.12.99h-2.15l-.6,3.55h3.88c.25,0,.6,0,1.07,0,.47,0,.81,0,1.05,0v4.94h2.98v-4.88c.54.01,1.33.02,2.36.02v4.86h2.98v-4.94c1.06-.05,2-.15,2.82-.29.82-.14,1.61-.37,2.35-.67.75-.3,1.38-.68,1.88-1.13.5-.45.92-1.03,1.25-1.72.33-.7.54-1.51.63-2.42.17-1.8-.12-3.18-.87-4.15h0Zm-13.35-8.64c.09,0,.35,0,.77,0,.42,0,.77-.01,1.05-.02.28,0,.65,0,1.12.05.47.04.87.09,1.19.16s.68.17,1.07.32c.39.15.7.33.93.54.23.21.43.48.59.81.16.33.24.71.24,1.13,0,.36-.06.69-.17.99-.12.3-.29.55-.52.75-.23.2-.47.37-.72.52-.25.15-.56.27-.94.36-.38.09-.71.16-1,.21-.28.05-.64.09-1.07.11-.43.02-.75.03-.97.04-.22,0-.52,0-.9,0-.38,0-.6,0-.67,0v-5.95h0,0Zm8.15,13.2c-.12.3-.28.56-.47.78-.19.22-.45.41-.77.58-.32.17-.62.3-.92.41-.3.1-.66.19-1.08.27-.42.08-.79.13-1.11.16-.32.03-.69.06-1.13.08-.44.02-.78.03-1.03.03s-.56,0-.93,0c-.37,0-.61,0-.72,0v-6.55c.1,0,.41,0,.92-.02.51-.01.93-.02,1.25-.02s.77.02,1.34.06c.57.04,1.05.1,1.43.17.39.08.81.2,1.27.36.46.16.83.36,1.11.59.28.23.52.53.72.89.19.36.29.78.29,1.24,0,.36-.06.69-.18.99h0Z"/>
      <path class="cls-3" d="m88.96,81.86c-.75-.97-1.88-1.63-3.39-2,1.93-.98,2.77-2.65,2.54-5-.08-.85-.31-1.59-.71-2.22-.39-.63-.93-1.13-1.6-1.51-.67-.38-1.4-.67-2.19-.87-.79-.2-1.69-.35-2.71-.44v-4.88h-2.98v4.75c-.52,0-1.3.01-2.36.04v-4.79h-2.98v4.88c-.43.01-1.05.02-1.88.02l-4.11-.02v3.18h2.15c.98,0,1.56.44,1.72,1.32v5.56c.13,0,.23,0,.31.02h-.31v7.79c-.1.66-.48.99-1.12.99h-2.15l-.6,3.55h3.88c.25,0,.6,0,1.07,0,.47,0,.81,0,1.05,0v4.94h2.98v-4.88c.54.01,1.33.02,2.36.02v4.86h2.98v-4.94c1.06-.05,2-.15,2.82-.29.82-.14,1.61-.37,2.35-.67.75-.3,1.38-.68,1.88-1.13.5-.45.92-1.03,1.25-1.72.33-.7.54-1.51.63-2.42.17-1.8-.12-3.18-.87-4.15h0Zm-13.35-8.64c.09,0,.35,0,.77,0,.42,0,.77-.01,1.05-.02.28,0,.65,0,1.12.05.47.04.87.09,1.19.16s.68.17,1.07.32c.39.15.7.33.93.54.23.21.43.48.59.81.16.33.24.71.24,1.13,0,.36-.06.69-.17.99-.12.3-.29.55-.52.75-.23.2-.47.37-.72.52-.25.15-.56.27-.94.36-.38.09-.71.16-1,.21-.28.05-.64.09-1.07.11-.43.02-.75.03-.97.04-.22,0-.52,0-.9,0-.38,0-.6,0-.67,0v-5.95h0,0Zm8.15,13.2c-.12.3-.28.56-.47.78-.19.22-.45.41-.77.58-.32.17-.62.3-.92.41-.3.1-.66.19-1.08.27-.42.08-.79.13-1.11.16-.32.03-.69.06-1.13.08-.44.02-.78.03-1.03.03s-.56,0-.93,0c-.37,0-.61,0-.72,0v-6.55c.1,0,.41,0,.92-.02.51-.01.93-.02,1.25-.02s.77.02,1.34.06c.57.04,1.05.1,1.43.17.39.08.81.2,1.27.36.46.16.83.36,1.11.59.28.23.52.53.72.89.19.36.29.78.29,1.24,0,.36-.06.69-.18.99h0Z"/>
    </g>
  </g>
</svg>