<?xml version="1.0" encoding="UTF-8"?>
<svg id="Layer_2" data-name="Layer 2" xmlns="http://www.w3.org/2000/svg" xmlns:xlink="http://www.w3.org/1999/xlink" viewBox="0 0 262.16 262.16">
  <defs>
    <style>
      .cls-1 {
        clip-path: url(#clippath);
      }

      .cls-2 {
        fill: none;
      }

      .cls-2, .cls-3, .cls-4, .cls-5 {
        stroke-width: 0px;
      }

      .cls-3 {
        fill: #f8faff;
      }

      .cls-4 {
        fill: #dae1fb;
      }

      .cls-5 {
        fill: #e9eefd;
      }
    </style>
    <clipPath id="clippath">
      <rect class="cls-2" width="262.16" height="262.16"/>
    </clipPath>
  </defs>
  <g id="Layer_1-2" data-name="Layer 1">
    <g class="cls-1">
      <g>
        <path class="cls-5" d="m76.76,14.35c-8.27-9.4-21.09-12.3-32.15-8.42-2.16.76-4.56.41-6.37-.99C33.79,1.5,28.07-.4,21.91.07,10.1.97.67,10.69.11,22.52c-.3,6.23,1.81,11.95,5.47,16.34,1.71,2.04,2.12,4.91.99,7.31-2.53,5.41-2.96,11.8-.67,17.84,4.28,11.28,16.79,17.37,28.3,13.75,5.83-1.83,10.37-5.74,13.12-10.62,1.26-2.23,3.6-3.61,6.16-3.53,7.82.26,15.75-2.56,21.83-8.54,11.13-10.97,11.77-28.98,1.45-40.72"/>
        <path class="cls-4" d="m36.99,64.01c-2.29-6.04-1.86-12.43.67-17.84,1.13-2.41.71-5.28-.99-7.31-3.66-4.38-5.77-10.11-5.47-16.34.32-6.69,3.47-12.7,8.29-16.83-.43-.2-.85-.45-1.24-.75C33.79,1.5,28.08-.4,21.91.07,10.1.97.67,10.69.11,22.52c-.3,6.23,1.81,11.95,5.47,16.34,1.7,2.04,2.12,4.91.99,7.31-2.53,5.41-2.96,11.8-.67,17.84,4.28,11.28,16.79,17.37,28.3,13.75,3.24-1.01,6.22-2.74,8.71-5.04-2.63-2.4-4.66-5.38-5.92-8.71"/>
        <path class="cls-5" d="m246.12,14.94c-2.59-1.16-5.35-1.9-8.17-2.2-1.8-.19-3.4-1.24-4.37-2.77C229.78,3.98,223.11,0,215.5,0,210.01,0,205.01,2.07,201.23,5.46c-2.26,2.03-5.65,2.18-7.98.23-2.44-2.05-5.25-3.6-8.29-4.56-11.97-3.81-25.05,2.29-29.81,13.92-3.44,8.39-1.85,17.47,3.25,24.08,1.42,1.84,1.61,4.32.57,6.4-4.18,8.38-5.2,18.39-1.92,28.17,5.76,17.2,23.5,27.68,41.35,24.47,4.82-.87,9.23-2.62,13.11-5.05,2.11-1.32,4.83-1.24,6.86.2,3.51,2.49,7.82,3.96,12.51,3.95,10.69-.02,19.87-8.07,21.28-18.67.54-4.03-.06-7.92-1.54-11.36-1.04-2.44-.29-5.27,1.75-6.96,4.06-3.38,7.19-8,8.74-13.58,3.54-12.76-2.9-26.38-15-31.77"/>
        <path class="cls-4" d="m195.71,73.7c-3.27-9.78-2.25-19.79,1.92-28.17,1.03-2.07.84-4.56-.57-6.4-5.1-6.61-6.68-15.7-3.25-24.08,1.36-3.32,3.45-6.29,6.11-8.69-2.13,1.11-4.76.93-6.67-.67-2.44-2.05-5.25-3.6-8.29-4.56-11.97-3.81-25.05,2.29-29.81,13.92-3.44,8.39-1.85,17.47,3.25,24.08,1.42,1.84,1.61,4.32.57,6.4-4.17,8.38-5.2,18.39-1.92,28.17,5.76,17.2,23.5,27.68,41.35,24.47,4.74-.85,9.07-2.56,12.89-4.93-7.12-4.38-12.77-11.16-15.58-19.54"/>
        <path class="cls-5" d="m169.09,143.77c-3.48-4.96-8.57-8.03-14.02-9.07-3.26-.62-5.87-2.98-7.04-6.09-2.55-6.8-7.57-12.69-14.59-16.17-5.47-2.73-11.65-3.69-17.69-2.76-2.87.44-5.77-.39-7.96-2.3-7.39-6.46-17.06-10.37-27.64-10.37-15.21,0-28.53,8.09-35.91,20.19-1.64,2.69-4.5,4.34-7.65,4.56-6.73.47-13.32,3.29-18.43,8.46-8.25,8.35-10.34,20.48-6.3,30.75,1.34,3.4.53,7.23-1.91,9.94l-.05.05c-14.17,15.79-12.86,40.08,2.93,54.25,5.34,4.79,11.65,7.81,18.21,9.1,3.35.66,6.15,3.02,7.23,6.27,4.16,12.54,15.98,21.58,29.91,21.58,9.85,0,18.65-4.52,24.42-11.6,2.85-3.49,7.67-4.52,11.73-2.57,4.04,1.94,8.62,2.94,13.45,2.73,14.59-.64,26.4-12.52,26.96-27.12.08-2.03-.06-4.06-.42-6.06-.73-4.12,1.29-8.25,5.01-10.17,3.84-1.98,6.94-5.14,8.83-9.02,2.06-4.19,2.6-8.97,1.51-13.51-.91-3.82.62-7.87,3.85-10.11.74-.52,1.45-1.08,2.13-1.68,8.36-7.43,9.83-20.14,3.41-29.29"/>
        <path class="cls-4" d="m86.78,240.58c-1.08-3.24-3.88-5.61-7.23-6.27-6.56-1.29-12.87-4.31-18.21-9.1-15.79-14.17-17.1-38.46-2.93-54.25l.05-.05c2.44-2.71,3.25-6.54,1.91-9.94-4.04-10.27-1.95-22.4,6.3-30.75,5.11-5.17,11.7-7.99,18.43-8.46,3.14-.22,6.01-1.87,7.65-4.56,2.99-4.91,6.96-9.16,11.65-12.49-6.85-4.85-15.21-7.71-24.25-7.71-15.21,0-28.53,8.09-35.91,20.19-1.64,2.69-4.5,4.34-7.65,4.56-6.73.47-13.32,3.29-18.43,8.46-8.25,8.35-10.34,20.48-6.3,30.75,1.34,3.4.53,7.23-1.91,9.94l-.05.05c-14.17,15.79-12.86,40.08,2.93,54.25,5.34,4.79,11.65,7.81,18.21,9.1,3.35.66,6.15,3.02,7.23,6.27,4.16,12.54,15.98,21.58,29.91,21.58,9.76,0,18.47-4.44,24.25-11.4-2.5-3.01-4.43-6.47-5.66-10.18"/>
        <path class="cls-5" d="m135.55,59.23c0,10.56-8.56,19.11-19.11,19.11s-19.11-8.56-19.11-19.11,8.56-19.11,19.11-19.11,19.11,8.56,19.11,19.11"/>
        <path class="cls-4" d="m114.05,59.23c0-7.56,4.39-14.09,10.75-17.19-2.6-1.27-5.46-1.93-8.36-1.92-10.56,0-19.11,8.56-19.11,19.11s8.56,19.11,19.11,19.11c2.9,0,5.76-.65,8.36-1.92-6.37-3.1-10.75-9.63-10.75-17.19"/>
        <path class="cls-5" d="m233.93,193.76c-.9,0-1.79.04-2.67.13-2.14.21-4.22-.7-5.69-2.28-4.31-4.64-10.56-7.44-17.46-7.12-11.4.53-20.68,9.76-21.27,21.16-.15,2.79.23,5.59,1.11,8.25.76,2.28.21,4.79-1.35,6.61-4.08,4.76-6.41,11.06-6.01,17.9.74,12.69,11.01,22.96,23.7,23.7,8.67.5,16.45-3.38,21.36-9.62,1.41-1.79,3.63-2.74,5.9-2.55.79.07,1.58.1,2.39.1,15.54,0,28.14-12.6,28.14-28.14s-12.6-28.14-28.14-28.14"/>
        <path class="cls-4" d="m210.18,238.42c-.4-6.85,1.94-13.14,6.01-17.91,1.56-1.82,2.1-4.34,1.35-6.61-.88-2.66-1.26-5.45-1.11-8.25.32-6.17,3.19-11.7,7.56-15.57-4.19-3.71-9.79-5.88-15.89-5.59-11.4.53-20.68,9.76-21.27,21.16-.15,2.79.23,5.59,1.11,8.25.76,2.28.21,4.79-1.35,6.61-4.08,4.76-6.41,11.06-6.01,17.91.74,12.69,11.01,22.96,23.7,23.7,6.11.35,11.77-1.48,16.31-4.77-5.95-4.32-9.97-11.17-10.42-18.93"/>
        <path class="cls-5" d="m250.57,141.41c0,12.62-10.23,22.84-22.84,22.84s-22.84-10.23-22.84-22.84,10.23-22.84,22.84-22.84,22.84,10.23,22.84,22.84"/>
        <path class="cls-4" d="m224.37,141.41c0-9.13,5.36-17.01,13.1-20.66-3.05-1.44-6.38-2.18-9.75-2.18-12.62,0-22.84,10.23-22.84,22.84s10.23,22.84,22.84,22.84c3.37,0,6.7-.74,9.75-2.18-7.74-3.66-13.1-11.53-13.1-20.66"/>
        <path class="cls-3" d="m69.22,204.59c0,7.26-5.89,13.15-13.15,13.15s-13.15-5.89-13.15-13.15,5.89-13.15,13.15-13.15,13.15,5.89,13.15,13.15"/>
        <path class="cls-5" d="m42.91,204.59c0,6.86,5.26,12.49,11.96,13.1-4.72-7.19-6.8-15.66-6.17-24-3.5,2.36-5.79,6.37-5.79,10.9"/>
        <path class="cls-3" d="m124.8,158.44c0,9.41-7.63,17.03-17.03,17.03s-17.03-7.63-17.03-17.03,7.63-17.03,17.03-17.03,17.03,7.63,17.03,17.03"/>
        <path class="cls-3" d="m233.82,56.44c0,9.41-7.63,17.03-17.03,17.03s-17.03-7.63-17.03-17.03,7.63-17.03,17.03-17.03,17.03,7.63,17.03,17.03"/>
      </g>
    </g>
  </g>
</svg>