<?xml version="1.0" encoding="UTF-8"?>
<svg id="Layer_2" data-name="Layer 2" xmlns="http://www.w3.org/2000/svg" viewBox="0 0 402.69 266.19">
  <defs>
    <style>
      .cls-1 {
        opacity: .1;
      }

      .cls-2 {
        fill: #fcc900;
      }

      .cls-2, .cls-3, .cls-4, .cls-5 {
        fill-rule: evenodd;
      }

      .cls-2, .cls-3, .cls-4, .cls-5, .cls-6, .cls-7, .cls-8, .cls-9, .cls-10, .cls-11, .cls-12, .cls-13, .cls-14, .cls-15, .cls-16, .cls-17, .cls-18, .cls-19, .cls-20, .cls-21, .cls-22, .cls-23, .cls-24, .cls-25, .cls-26, .cls-27, .cls-28, .cls-29, .cls-30, .cls-31 {
        stroke-width: 0px;
      }

      .cls-3 {
        fill: #e9b702;
      }

      .cls-4 {
        fill: #f4c006;
      }

      .cls-5 {
        fill: #f8df2e;
      }

      .cls-7 {
        fill: #f9f5f5;
      }

      .cls-8 {
        fill: #4f91ff;
      }

      .cls-9 {
        fill: #53beed;
      }

      .cls-10 {
        fill: #2c3b53;
      }

      .cls-11 {
        fill: #474646;
      }

      .cls-12 {
        fill: #457aef;
      }

      .cls-13 {
        fill: #3a63df;
      }

      .cls-14 {
        fill: #3ba2ff;
      }

      .cls-15 {
        fill: #1a8ce4;
      }

      .cls-16 {
        fill: #1a3a9e;
      }

      .cls-17 {
        fill: #197bb5;
      }

      .cls-18 {
        fill: #3599d7;
      }

      .cls-19 {
        fill: #10489c;
      }

      .cls-20 {
        fill: #415371;
      }

      .cls-21 {
        fill: #113e56;
      }

      .cls-22 {
        fill: #20719e;
      }

      .cls-23 {
        fill: #162c70;
      }

      .cls-24 {
        fill: #165070;
      }

      .cls-25 {
        fill: #130073;
      }

      .cls-26 {
        fill: #112256;
      }

      .cls-27 {
        fill: #e2dfde;
      }

      .cls-28 {
        fill: #fff;
      }

      .cls-29 {
        fill: #00529a;
      }

      .cls-30 {
        fill: #0069ca;
      }

      .cls-31 {
        fill: #0061b9;
      }

      .cls-32 {
        fill: none;
        stroke: #fff;
        stroke-miterlimit: 10;
        stroke-width: .98px;
      }
    </style>
  </defs>
  <g id="Layer_1-2" data-name="Layer 1">
    <g>
      <g>
        <path class="cls-3" d="m323.71,176.21l1.21.7,1.48-2.53-1.21-.7-1.48,2.53Zm-.74.97l1.48.86c.51.29,1.16.12,1.44-.38l1.65-2.82c.29-.51.12-1.16-.38-1.44l-1.5-.87c-.49-.28-1.14-.11-1.44.38l-1.63,2.82c-.3.49-.12,1.16.38,1.44h0Zm4.07-6.71l1.21.72,1.48-2.55-1.21-.7-1.48,2.53Zm-.74.97l1.48.86c.51.3,1.16.12,1.44-.38l1.65-2.82c.28-.49.11-1.14-.38-1.44l-1.5-.87c-.49-.28-1.14-.11-1.44.38l-1.63,2.84c-.3.49-.11,1.14.38,1.42h0Z"/>
        <g>
          <g>
            <g>
              <path class="cls-10" d="m206.62,217c-3.02-3.57-11.17-11.68-18.34-16.26-7.17-4.57-11.07-7.9-15.67-1.35-4.6,6.55-23.81,35.63-26.47,41.33-2.66,5.7-8.41,21.18-3.73,23.83,4.68,2.65,8.8,1.91,11.14-.94,2.34-2.84,7.54-5.25,11.19-7.91s12.18-9.65,13.97-9.58c1.79.07,19.31,1,22.27-.86,1.36-.85,1.24-7.47,2.38-13.59,1.35-7.19,3.83-14,3.26-14.68Z"/>
              <path class="cls-20" d="m153.55,263.61c1.65-2,3.72-2.52,7.14-5.33.02-.69.47-.91,1.14-1.52,1.39-1.26,3.54-2.23,4.12-4.15.38-1.26.03-2.54.57-3.74.66-1.47,2.54-2.58,3.82-3.43,1.51-1,3.09-1.86,4.72-2.67,1.82-.91,4.08-1.71,5.65-3.02,1.95-1.64,3.09-5.15,3.17-7.52.01-.34.52-.38.64-.08.71,1.87.57,5.08,2.37,6.15,1.5.9,3.24,1.16,4.97,1.23,3.44.14,7.05.49,10.5.03.25-2.36.51-5.18,1.02-7.89,1.35-7.19,3.83-14,3.26-14.68-3.02-3.57-11.17-11.68-18.34-16.26-7.17-4.57-10.43-7.57-15.02-1.03-4.6,6.55-24,35.38-26.65,41.07-2.66,5.7-8.87,21.11-4.19,23.76,4.68,2.65,8.8,1.91,11.14-.94Z"/>
              <path class="cls-7" d="m161.83,256.76c.42-.38.91-.74,1.41-1.1-.18-.41-.36-.82-.57-1.21-.47-.89-1.15-2.29-2.22-2.59-1.59-.45-2.97,1.53-3.72,2.63-1.45,2.14-.79,1.11-1.98,3.39-.67,1.29-1.51,2.67-1.7,4.14-.09.69,0,1.33.2,1.92.1-.11.18-.25.3-.33,2.43-1.61,3.72-2.52,7.14-5.33.02-.69.47-.91,1.14-1.52Z"/>
              <path class="cls-18" d="m199.56,210.86c-2.08.67-4.37,2.55-6.21,3.72-3.64,2.32-6.25,5.59-7.89,9.65-1.41,3.5-1.84,6.14-1.71,9.82.68,1.65,1.58,3.33,3.14,4.25,1.5.9,3.24,1.16,4.97,1.23,3.44.14,7.05.49,10.5.03.25-2.36.51-5.18,1.02-7.89,1.35-7.19,3.83-14,3.26-14.68-1.28-1.52-3.5-3.86-6.18-6.41-.29.09-.59.18-.88.27Z"/>
              <path class="cls-9" d="m186.04,225.85c1.69-4.48,4.84-8.02,8.53-10.72,1.87-1.37,3.87-2.58,5.97-3.41.26-.1.51-.2.77-.29-.28-.27-.57-.55-.86-.83-.29.09-.59.18-.88.27-2.08.67-4.06,1.69-5.9,2.87-3.64,2.32-6.37,5.6-8.37,9.49-2.29,4.45-1.89,9.51-1.76,13.19.19.46.62-1.44.85-1,.07-3.22.48-6.43,1.67-9.57Z"/>
              <path class="cls-18" d="m152.7,264.47c-.31-.7-.46-1.45-.35-2.27.25-1.86,1.23-3.44,2.04-5.09,1.14-2.35.56-1.41,2.16-3.5,1.44-1.87,3.7-3.67,5.58-1.26.69.88,1.18,1.89,1.62,2.92.96-.73,1.84-1.53,2.19-2.66.34-1.13.1-2.28.44-3.37-2.77-7.3-5.88-14.4-9.65-21.32-.36-.66-.7-1.32-1.04-1.99-4.35,6.7-8.04,12.6-9.09,14.86-2.66,5.7-8.87,21.11-4.19,23.76,4.16,2.36,7.87,2.03,10.29-.07Z"/>
              <path class="cls-9" d="m157.12,230.89c3.51,6.44,6.44,13.03,9.06,19.8.02-.49.06-.98.21-1.45-2.77-7.3-5.88-14.4-9.65-21.32-.36-.66-.7-1.32-1.04-1.99-.28.43-.56.86-.84,1.29,1.09,1.75,2.1,3.37,2.26,3.67Z"/>
              <path class="cls-18" d="m162.36,225.14c3.5,1,6.71.9,9.85-1.1,2.55-1.62,4.7-3.74,6.78-5.91,3.22-3.35,6.55-7.16,10.62-9.5,2.31-1.33,4.66-1.8,7-1.53-2.69-2.34-5.58-4.61-8.33-6.36-7.17-4.57-10.43-7.57-15.02-1.03-2.55,3.63-9.67,14.14-15.95,23.74,1.67.61,3.35,1.2,5.05,1.68Z"/>
              <path class="cls-9" d="m188.81,207.73c-4.19,2.36-7.6,6.24-10.9,9.64-2.14,2.2-4.35,4.35-6.97,5.99-3.23,2.02-6.55,2.09-10.18,1.04-1.13-.33-2.24-.7-3.36-1.09-.03.05-.06.09-.09.14,1.67.61,3.35,1.2,5.05,1.68,3.5,1,6.71.9,9.85-1.1,2.55-1.62,4.7-3.74,6.78-5.91,3.22-3.35,6.55-7.16,10.62-9.5,2.31-1.33,4.66-1.8,7-1.53-.35-.3-.71-.61-1.06-.91-2.26-.18-4.52.29-6.74,1.54Z"/>
              <path class="cls-27" d="m147.09,266.13c-1.19-5.76,3.72-17.18,6.15-22.16,2.83-5.8,23.17-35.2,27.99-41.87,1.33-1.85,2.54-2.95,3.75-3.48-5-3.18-7.9-4.35-11.73,1.1-4.6,6.55-24,35.38-26.65,41.07-2.66,5.7-8.87,21.11-4.19,23.76,1.65.93,3.22,1.44,4.68,1.59Z"/>
              <path class="cls-10" d="m148.68,240.73c.39.37.78.73,1.17,1.1,0,0,0,0,0,0,2.93-5.72,23.81-34.69,28.75-41.27,1.37-1.82,2.6-2.9,3.82-3.43-.54-.34-1.79-.82-1.79-.82-1.09.58-1.96,1.48-3.17,3.09-4.94,6.58-25.82,35.55-28.75,41.27-.01.02-.02.04-.03.06Z"/>
              <path class="cls-10" d="m152.76,240.21c.55-2.64-.78-4.54-2.31-6.4-1.94,3.12-3.4,5.59-4,6.88-2.66,5.7-8.87,21.11-4.19,23.76,1.29.73,2.53,1.19,3.71,1.43-1.67-9.28,6.43-23.93,6.79-25.67Z"/>
              <path class="cls-7" d="m177.41,237.49c-.8-3.76-1.1-8.92-1.36-11.31-.26-2.39-13.67,4.39-12.39,7.92,1.28,3.53,4.82,9.3,4.82,9.3l8.93-5.9Z"/>
              <path class="cls-7" d="m200.85,231.72c1.19-3.8,3.49-11.65,2.06-13.34s-7.11-2.86-9.5,1.59c-2.38,4.45-3.69,13.33-1.08,13.61s7.66.89,8.52-1.86Z"/>
              <path class="cls-11" d="m196.62,238.8c-1.14-.22-1.96-.98-1.83-1.7.14-.72,1.17-1.13,2.32-.91s1.96.98,1.83,1.7c-.14.72-1.17,1.13-2.32.91Z"/>
              <path class="cls-11" d="m190.38,237.93c-1.14-.22-1.96-.98-1.83-1.7.14-.72,1.17-1.13,2.32-.91s1.96.98,1.83,1.7c-.14.72-1.17,1.13-2.32.91Z"/>
              <path class="cls-11" d="m181.59,237.43c-.9.11-1.7-.25-1.77-.82-.07-.57.6-1.12,1.51-1.24.9-.11,1.7.25,1.77.82.07.57-.6,1.12-1.51,1.24Z"/>
              <path class="cls-11" d="m177.13,241.04c-.83.38-1.69.26-1.93-.26-.24-.52.24-1.25,1.07-1.63.83-.38,1.69-.26,1.93.26.24.52-.24,1.25-1.07,1.63Z"/>
              <path class="cls-11" d="m172.26,244.27c-.76.5-1.63.53-1.95.05-.32-.48.04-1.27.8-1.78.76-.5,1.63-.53,1.95-.05.32.48-.04,1.27-.8,1.78Z"/>
              <path class="cls-11" d="m168.29,246.79c-.76.5-1.63.53-1.95.05-.32-.48.04-1.27.8-1.78.76-.5,1.63-.53,1.95-.05s-.04,1.27-.8,1.78Z"/>
              <path class="cls-10" d="m204.6,218.51c.57.68-1.91,7.5-3.26,14.68-.94,5-1.03,10.32-1.77,12.57.61-.14,1.09-.3,1.41-.5,1.36-.85,1.24-7.47,2.39-13.59,1.35-7.19,3.83-14,3.26-14.68-.92-1.09-2.32-2.6-4.03-4.31.53,2.57,1.07,4.72,2.01,5.83Z"/>
              <path class="cls-7" d="m194.77,246.96c-.32-.05-.55-.28-.52-.53l1.19-9.16c.04-.24.33-.4.65-.35l1.46.22c.32.05.55.28.52.53l-1.19,9.16c-.04.24-.33.4-.65.35l-1.46-.22Z"/>
              <path class="cls-7" d="m189.26,247.3c-.33-.02-.58-.24-.56-.48l.39-10.53c.02-.24.29-.43.62-.4l1.47.09c.33.02.58.24.56.48l-.39,10.53c-.02.24-.29.43-.62.4l-1.47-.09Z"/>
              <path class="cls-7" d="m182.58,247.35c-.32.05-.61-.11-.65-.36l-1.75-10.39c-.03-.24.2-.48.52-.52l1.46-.21c.32-.05.61.11.65.36l1.75,10.39c.03.24-.2.48-.52.52l-1.46.21Z"/>
              <path class="cls-7" d="m177.9,247.48c-.32.08-.62-.04-.69-.28l-1.85-6.65c-.06-.24.14-.5.46-.58l1.43-.38c.32-.08.62.04.69.28l1.85,6.65c.06.24-.14.5-.46.58l-1.43.38Z"/>
              <path class="cls-7" d="m174.54,249.36c-.28.16-.61.13-.73-.08l-3.2-5.27c-.12-.21,0-.52.29-.68l1.28-.75c.28-.16.61-.13.73.08l3.2,5.27c.12.21,0,.52-.29.68l-1.28.75Z"/>
              <path class="cls-7" d="m170.98,251.69c-.27.19-.6.18-.74-.02l-3.64-4.97c-.14-.2-.04-.51.23-.7l1.21-.85c.27-.19.6-.18.74.02l3.64,4.97c.14.2.04.51-.23.7l-1.21.85Z"/>
              <path class="cls-11" d="m164.25,250.12c-.64.65-1.49.84-1.9.44-.41-.4-.22-1.26.42-1.9.64-.65,1.49-.84,1.9-.44s.22,1.26-.42,1.9Z"/>
              <path class="cls-7" d="m167.41,254.7c-.25.21-.58.23-.74.05l-4.08-4.61c-.16-.19-.09-.51.16-.72l1.12-.96c.25-.21.58-.23.74-.05l4.08,4.61c.16.19.09.51-.16.72l-1.12.96Z"/>
            </g>
            <g>
              <path class="cls-6" d="m173.16,230.37c.08.04.16.08.24.11.31.12.61.1.88-.12.28-.23.31-.56.22-.85-.12-.41-.35-.79-.77-.99-.35-.16-.76-.03-.92.32-.05.1-.03.25.01.36.06.16.18.3.29.48l-.4.25c-.03-.07-.05-.14-.08-.2-.13-.22-.32-.41-.17-.7.19-.37.44-.67.87-.77.65-.16,1.21.18,1.52.92.19.46-.04,1.1-.52,1.4-.31.19-.66.24-1.01.1-.09-.04-.16-.15-.24-.23.03-.03.05-.05.08-.08Z"/>
              <path class="cls-6" d="m166.36,233.32c-.02-.16-.09-.33-.05-.48.12-.5.62-.86,1.18-.9.48-.03.94.31,1.2.89.19.43.09.95-.26,1.29-.27.27-.62.36-.99.37-.22,0-.41-.09-.47-.41.1.04.18.08.26.11.33.14.64.15.92-.1.27-.24.34-.56.2-.87-.14-.3-.31-.61-.54-.83-.44-.41-1.14-.13-1.26.48-.03.15-.05.3-.07.45-.04,0-.07,0-.11,0Z"/>
              <path class="cls-6" d="m168.48,232.01c-.21-.13-.22-.29-.15-.48.21-.53.72-.88,1.25-.83.56.05,1.07.56,1.18,1.15.17.87-.64,1.48-1.45,1.38-.14-.02-.25-.22-.38-.34.02-.02.04-.04.06-.06.15.06.3.14.46.18.44.12.89-.18.95-.62.07-.5-.32-1.16-.79-1.35-.49-.19-.95.05-1.07.57-.03.12-.04.25-.06.4Z"/>
              <path class="cls-6" d="m171.46,232.22c-.31-.51-.57-.91-.81-1.32-.29-.48-.2-.94.21-1.2.47-.3.95-.21,1.27.26.14.2.26.42.39.64.13.21.26.42.39.64l-.31.19c-.26-.42-.52-.84-.78-1.26-.24-.38-.54-.46-.89-.24-.32.19-.39.55-.17.91.23.38.47.74.69,1.12.03.05,0,.14,0,.27Z"/>
              <path class="cls-6" d="m166.96,234.91l-.35.22-1.22-1.98.35-.22c.41.66.8,1.3,1.22,1.98Z"/>
            </g>
          </g>
          <path class="cls-17" d="m184.74,203.26c.08.01.16.03.24.03.31.02.57-.08.74-.34.18-.28.12-.58-.04-.81-.22-.33-.52-.6-.95-.66-.35-.05-.68.19-.72.53-.01.1.04.23.11.32.1.13.24.22.39.34l-.28.33c-.04-.05-.08-.11-.13-.16-.18-.15-.4-.27-.34-.58.07-.38.21-.71.55-.92.53-.32,1.12-.17,1.59.39.3.36.27.99-.07,1.38-.22.26-.52.39-.86.37-.09,0-.18-.09-.27-.13.02-.03.03-.06.05-.09Z"/>
          <path class="cls-17" d="m179.55,207.75c-.06-.14-.17-.27-.18-.41-.03-.48.31-.93.79-1.12.41-.16.92.01,1.31.46.29.33.34.82.13,1.21-.17.31-.45.49-.77.6-.19.07-.39.04-.53-.23.1.01.18.02.26.03.33.03.61-.05.79-.34.18-.29.15-.59-.07-.82-.21-.23-.44-.45-.71-.59-.5-.25-1.04.2-.98.77.01.14.04.28.06.42-.03.01-.06.02-.09.03Z"/>
          <path class="cls-17" d="m181.06,206.01c-.22-.06-.28-.19-.26-.38.03-.53.39-.98.87-1.08.51-.11,1.1.2,1.36.69.39.72-.16,1.49-.89,1.62-.13.02-.29-.13-.43-.2.01-.02.02-.04.03-.06.15.01.3.04.46.03.42-.01.74-.4.67-.81-.08-.46-.61-.94-1.08-.97-.49-.04-.83.31-.78.8.01.12.03.23.06.37Z"/>
          <path class="cls-17" d="m183.75,205.37c-.42-.36-.75-.65-1.08-.94-.39-.35-.44-.77-.15-1.12.33-.4.78-.45,1.2-.13.18.14.35.3.52.45.17.15.34.3.52.45l-.22.26c-.35-.3-.69-.6-1.04-.9-.32-.27-.6-.25-.85.03-.23.26-.19.59.1.85.3.27.62.53.92.8.04.04.04.12.07.24Z"/>
        </g>
        <path class="cls-2" d="m321.99,180.59c.32.17.74.07.93-.25l2.02-3.49c.19-.32.08-.72-.24-.91-.32-.19-.73-.08-.93.24l-2.02,3.49c-.19.32-.08.73.24.93Zm3.33-5.74c.32.19.73.08.93-.24l2.02-3.49c.19-.32.08-.73-.24-.93-.32-.17-.74-.07-.93.25l-2.02,3.49c-.19.32-.08.72.24.91Z"/>
        <g>
          <g>
            <path class="cls-29" d="m168.71,198.53c1.66-6.51,3.72-7.93,11.07-8.55,5.01-.43,5.92,3.28,12.4,4.76,5.3,1.21,5.37.96,12.88.12,1.72-.19,5.64-.54,7.2-.86,1.31-2.46,2.94-4.77,4.81-6.91,2.27-2.57,4.88-4.89,7.79-6.88,2.83-1.96,5.91-3.62,9.17-4.92,5.51-2.2,11.52-3.4,17.57-3.36,16.35.11,32.62,8.94,41.39,21.56,7.59,10.91,8.97,17.96,7.01,24.11-1.39,4.39-4.43,8.33-8.14,12.9-1.09,1.35-2.24,2.76-3.43,4.25-3.87,4.88-7.76,10.14-12.18,14.57-2.83,2.84-5.87,5.34-9.27,7.19-3.52,1.92-7.4,3.13-11.82,3.31-1.26.04-2.8-.09-4.54-.42-6.65-1.21-16.61-4.46-26.23-10-22.57-13.01-21.33-21.41-35.36-28.25"/>
            <path class="cls-23" d="m218.36,235.98c-1.14-1.14-2.87-1.24-3.26.9-.28,1.5.97,3.77,2.72,3.7,1.11-.04,1.65-1.28,1.57-2.37-.06-.89-.48-1.68-1.03-2.23Z"/>
            <path class="cls-23" d="m219.47,205.52c-1.51-.7-3.15-.24-2.68,1.9.33,1.5,2.38,3.22,3.98,2.6,1.02-.4,1.03-1.74.53-2.73-.41-.82-1.11-1.43-1.84-1.76Z"/>
            <path class="cls-22" d="m259.19,220.81c-1.22,1.08-1.36,2.68,1.22,3.58,2.72.95,6.86-.8,4.69-3.35-1.71-2-4.51-1.46-5.91-.22Z"/>
            <path class="cls-24" d="m251.67,220.18c.28.73-.12,1.54-1.76,2.01-1.01.29-2.27-.04-2.86-.78-.59-.74-.39-1.82.48-2.32,1.64-.95,3.72-.03,4.15,1.09Z"/>
            <path class="cls-22" d="m282.9,204.25c1.49-.14,2.46-1.22.96-2.62-1.05-.98-3.5-1.37-4.34-.19-.54.75.17,1.77,1.08,2.29.74.44,1.59.58,2.31.52Z"/>
            <path class="cls-21" d="m291.85,230.49c-1.23-.66-2.55-1.22-3.87-1.66-3.97-1.36-8.21-2.11-11.91-3.98-5.31-2.7-9.08-7.52-14.52-9.98-6.4-2.9-14.17-2.13-20.62-4.93-1.12-.48-2.34-1.37-2.11-2.46.17-.8,1.06-1.27,1.88-1.6,8.67-3.42,18.72-.98,27.86,1.48,10.59,2.86,21.55,5.62,31.44,10.24-1.39,4.39-4.43,8.33-8.14,12.9Z"/>
            <path class="cls-21" d="m245.64,187.92c-2.09-1.71-3.95-3.65-6.19-5.18-5.31-3.64-9.78-2.97-14.6-2.54,2.83-1.96,5.91-3.62,9.17-4.92,3.4,1.32,6.76,2.66,10.03,3.96,6.65,2.63,21.2,7.42,23.84,14.31,4.06,10.56-18.81-2.82-22.26-5.63Z"/>
            <path class="cls-26" d="m276.25,249.3c-2.83,2.84-5.87,5.34-9.27,7.19-.94-1.28-1.75-2.66-2.49-4.03-2.25-4.17-4.1-8.64-7.61-12.02-2.41-2.33-4.19-1.18-6.73-3.4-2.55-2.21-.92-6.94-5.41-11.26-.82-3.57,7.32,1.17,10.19,4.94,3.28,4.3,7.86,5.23,11.29,9.43,2.83,3.47,6.22,6.56,10.04,9.15Z"/>
            <path class="cls-26" d="m250.62,259.37c-6.65-1.21-16.36-4.91-26.23-10,.24-4.34,5.7-4.99,2.46-8.22-2.16-2.14-.69-6.69-.67-8.1.03-1.42-2.74-3.72-1.29-4.23,1.37-.49,3,.09,4.07,1.05,1.05.96,1.66,2.24,2.26,3.48,1.91,3.99,3.91,8.01,6.9,11.42,1.39,1.6,2.98,3.03,4.44,4.58,2.08,2.19,5.72,6.18,8.06,10.03Z"/>
            <path class="cls-26" d="m232.82,211.98c-6.88-3.4-12.13-14.21-20.56-17.98,1.31-2.46,2.94-4.77,4.81-6.91.99.56,2.3,3.12,3.29,3.7,2.19,1.27,2.76,2.07,5.22,2.85,4.93,1.56,1.61,6.15,1.88,7.34.88,3.82,1.95,3.63,4.73,6.62,3.21,2.97,1.7,4.92.62,4.39Z"/>
          </g>
          <path class="cls-19" d="m292.28,127.12c-.05,4.07,10.04,43.14,12.3,48.15,2.26,5.02,40.78,3.24,43.31,1.6,1.83-1.18,2.54-8.86,6.02-9.7,3.48-.84,5.19,7.35,6.61,6.6,2.22-1.17-1.25-7.57-1.25-7.57,0,0,3.87,4.27,4.87,3.28,1.74-1.72-3.4-10.11-6.06-11.71-2.66-1.6-8.51-.04-9.89.54-1.38.58-5.55,10.67-5.55,10.67,0,0-27.8-3.57-28.49-4.06-.69-.49-4.43-31.36-4.47-38.13-.05-8.04-17.23-15.64-17.42.32Z"/>
          <path class="cls-30" d="m378,79.62s11.6-17.46,20.04-11.51c8.44,5.94,4.27,28.69-3.69,31.39l-16.35-19.87Z"/>
          <path class="cls-30" d="m268.65,61.19s-16.42-1.86-28.48,16.25c-21.21,31.83,14.84,59.74-82.4,60.85-56.87.65-57.7-27.16-95.13-38.21-9.55-2.82-19.46-4.56-28.49-5.38-26.31-2.48-46.35,9.09-25.44,9.81,54.37,1.88,40.79,25.31,70.68,67.21,10.14,14.21,25.26,20.42,34.86,25.89,46.15,26.3,89.29,28.63,126.57,27.48,71.7-2.22,46.75-77.1,65.53-86.74,0,0,65.94,13.06,75.44.45,1.82-2.41,3.64-5.95,5.32-10.12,7.08-17.55,11.6-46.32,2.92-50.25-10.76-4.87-16.37-3.43-16.37-3.43,0,0-3.42-12.72-14.26-14.99-10.84-2.27-15.78,12.09-19.39,10.55-19.52-8.27-71.34-9.36-71.34-9.36"/>
          <path class="cls-15" d="m381.78,138.8c-10.57,12.91-75.01-.43-75.01-.43-23.71,17.05,14.76,83.95-68.12,93.37-37.05,4.21-78.26-7.83-124.41-34.12v-.02c102.64,11.9,140.25-53.13,146.84-77.64,6.57-24.52,25.63-18.32,25.63-18.32,4.41.48,11.05,1.97,18.68,3.86,4.28,1.05,8.87,2.23,13.57,3.41,1.09.28,2.19.56,3.28.83,4.45,1.12,8.95,2.21,13.31,3.19,10.18,2.32,19.63,4.01,26,3.88,17.86-.37,26.75-2.27,32.8-17.33-1.68,4.17-.67,24.77-12.57,39.31Z"/>
          <path class="cls-28" d="m275.88,54.89c-1.29,9.39,4.58,17.85,13.12,18.89,8.54,1.05,16.51-5.71,17.81-15.1,1.29-9.39-4.58-17.85-13.12-18.89s-16.51,5.71-17.81,15.1Z"/>
          <path class="cls-25" d="m278.91,56.57c-1.03,7.44,3.63,14.15,10.4,14.98,6.77.83,13.09-4.53,14.11-11.97,1.03-7.44-3.63-14.15-10.4-14.98-6.77-.83-13.09,4.53-14.11,11.97Z"/>
          <path class="cls-28" d="m296.72,53.93c-.36,2.62,1.28,4.98,3.66,5.28s4.61-1.6,4.97-4.22c.36-2.62-1.28-4.98-3.66-5.28-2.38-.29-4.61,1.6-4.97,4.22Z"/>
          <path class="cls-30" d="m292.14,80.77s.52-23.21-24.43-19.19c0,0-.59,23.2,24.43,19.19Z"/>
          <path class="cls-23" d="m284.06,75.51c1.81-3.62-9.72-9.62-12.28-5.84-2.57,3.79,9.74,10.92,12.28,5.84Z"/>
          <g>
            <path class="cls-31" d="m91.65,228.16c-.54-7.28-.57-5.04-.44-12.62.13-7.57-.08-11.49,7.03-14.53,4.84-2.08,8.36-2.98,14.06-3.14s10.17-.09,16.36.59c1.74.19,3.39.39,4.89.64.73-3.09,1.8-6.11,3.15-9.02,1.64-3.51,3.69-6.85,6.09-9.94,2.34-3.03,5-5.82,7.92-8.27,4.93-4.15,10.58-7.39,16.57-9.3,16.16-5.15,34.27-.86,45.85,9.95,10.02,9.34,13.01,16.51,12.5,23.79-.35,5.19-2.45,10.43-5.05,16.56-.77,1.81-1.57,3.7-2.4,5.69-2.69,6.52-5.31,13.45-8.65,19.66-2.14,3.98-4.56,7.66-7.49,10.75-3.03,3.2-6.58,5.76-10.9,7.38-1.24.46-2.78.8-4.58,1.01-6.84.84-17.29-.03-28.21-2.35-17.76-3.78-35.69-19.28-42.11-29.61"/>
            <path class="cls-16" d="m149.29,242.5c-1.39-.86-3.12-.42-3.01,2.02.07,1.71,1.83,3.75,3.54,3.12,1.09-.4,1.33-1.92,1.01-3.06-.27-.95-.86-1.67-1.53-2.08Z"/>
            <path class="cls-16" d="m143.33,209.23c-1.65-.27-3.17.76-2.2,2.92.68,1.51,3.1,2.71,4.53,1.52.91-.76.61-2.21-.11-3.12-.59-.75-1.42-1.19-2.22-1.32Z"/>
            <path class="cls-16" d="m186.08,212.95c-.95,1.55-.72,3.33,2.03,3.47,2.91.15,6.59-3.08,3.85-5.14-2.15-1.61-4.79-.12-5.88,1.66Z"/>
            <path class="cls-16" d="m178.51,214.69c.44.7.24,1.71-1.28,2.74-.93.64-2.25.69-3.01.08-.75-.61-.81-1.85-.07-2.67,1.4-1.55,3.66-1.24,4.35-.16Z"/>
            <path class="cls-16" d="m205.65,187.41c1.44-.63,2.15-2.11.34-3.14-1.27-.72-3.77-.35-4.33,1.19-.36.98.58,1.85,1.59,2.13.83.23,1.7.12,2.4-.19Z"/>
            <path class="cls-23" d="m220.57,212.87c-1.37-.32-2.8-.49-4.2-.55-4.23-.18-8.59.37-12.68-.46-5.87-1.21-10.7-5.19-16.64-6.11-6.99-1.07-14.48,2.26-21.5,1.32-1.22-.16-2.63-.73-2.65-1.98-.01-.92.75-1.72,1.48-2.34,7.77-6.49,18.25-7.1,27.84-7.38,11.12-.33,22.57-.87,33.41.93-.35,5.19-2.45,10.43-5.05,16.56Z"/>
            <path class="cls-23" d="m165.1,181.78c-2.46-1.17-4.74-2.66-7.31-3.6-6.08-2.22-10.34-.06-15,1.96,2.34-3.03,5-5.82,7.92-8.27,3.66.33,7.29.7,10.82,1.05,7.17.7,22.64,1.18,26.85,7.77,6.45,10.1-19.22,3.01-23.28,1.09Z"/>
            <path class="cls-23" d="m209.51,238.23c-2.14,3.98-4.56,7.66-7.49,10.75-1.22-1.09-2.34-2.31-3.39-3.56-3.18-3.78-6.05-8.01-10.29-10.53-2.92-1.74-4.41.07-7.43-1.51-3.03-1.57-2.52-7.2-7.95-10.42-1.63-3.6,7.5-1.09,11.2,2.06,4.23,3.59,8.97,3.12,13.32,6.55,3.59,2.84,7.66,5.08,12.03,6.65Z"/>
            <path class="cls-23" d="m186.55,257.37c-6.84.84-17.29-.03-28.21-2.35-.77-4.77,4.48-7.23.52-9.67-2.62-1.62-2.23-7.01-2.54-8.54-.3-1.55-3.56-3.14-2.25-4.16,1.24-.97,2.99-.87,4.26-.18,1.26.7,2.16,1.88,3.04,3.03,2.81,3.69,5.72,7.39,9.45,10.11,1.74,1.28,3.65,2.32,5.44,3.52,2.56,1.7,7.08,4.83,10.28,8.24Z"/>
            <path class="cls-23" d="m158.01,211.91c-7.58-1.46-15.26-11.45-24.46-12.8.73-3.09,1.8-6.11,3.15-9.02,1.11.28,2.99,2.63,4.1,2.93,2.45.67,3.21,1.35,5.82,1.4,5.23.09,3.01,6.13,3.56,7.33,1.75,3.84,2.77,3.29,6.2,5.62,3.86,2.17,2.82,4.77,1.63,4.54Z"/>
          </g>
          <path class="cls-28" d="m312.77,58.59c-1.29,9.39,4.58,17.85,13.12,18.89,8.54,1.05,16.51-5.71,17.81-15.1,1.29-9.39-4.58-17.85-13.12-18.89-8.54-1.05-16.51,5.71-17.81,15.1Z"/>
          <path class="cls-25" d="m315.8,60.27c-1.03,7.44,3.63,14.15,10.4,14.98,6.77.83,13.09-4.53,14.11-11.97,1.03-7.44-3.63-14.15-10.4-14.98-6.77-.83-13.09,4.53-14.11,11.97Z"/>
          <path class="cls-28" d="m333.61,57.62c-.36,2.62,1.28,4.98,3.66,5.28s4.61-1.6,4.97-4.22c.36-2.62-1.28-4.98-3.66-5.28-2.38-.29-4.61,1.6-4.97,4.22Z"/>
          <path class="cls-25" d="m360.66,68.22c-6.88,1.47-4.05,16.43,1.26,16.04,5.31-.39,3.69-17.1-1.26-16.04Z"/>
          <path class="cls-25" d="m393.68,75.14c5.71,4.11-2.89,16.67-7.6,14.18s3.49-17.14,7.6-14.18Z"/>
          <path class="cls-30" d="m319.02,79.87s7.73-19.2,30.76-9.29c0,0-7.66,19.21-30.76,9.29Z"/>
          <path class="cls-23" d="m329.06,77.34c-.77-3.94,12-6.96,13.46-2.68,1.45,4.28-12.38,8.21-13.46,2.68Z"/>
          <path class="cls-23" d="m215.27,127.85c-1.03,2.91.26,5.38,5.51,3.79,5.53-1.68,10.88-8.84,4.74-10.08-4.83-.98-9.07,2.95-10.25,6.29Z"/>
          <path class="cls-23" d="m211.59,131.65c.95.91.64,2.42-2.25,4.26-1.77,1.13-4.38,1.5-5.93.79s-1.78-2.5-.4-3.85c2.62-2.56,7.11-2.61,8.58-1.2Z"/>
          <path class="cls-23" d="m258.29,87.31c.93.07,1.64.95,1.39,3.02-.15,1.28-1.09,2.52-2.18,2.79-1.09.27-2.18-.52-2.33-1.75-.28-2.33,1.68-4.17,3.12-4.06Z"/>
          <path class="cls-23" d="m108.3,126.84c-4.31-.42-7.2,1.49-2.99,5.37,2.95,2.72,9.97,4.79,12.5,2.58,1.61-1.41-.35-4.03-2.91-5.65-2.1-1.34-4.52-2.09-6.61-2.3Z"/>
          <path class="cls-23" d="m91.33,125.88c3.39.48,5.9-1.03,2.94-4.37-2.07-2.34-7.45-4.26-9.7-2.51-1.43,1.12-.14,3.35,1.73,4.77,1.54,1.17,3.39,1.87,5.03,2.1Z"/>
          <path class="cls-28" d="m318.95,108.92c-1.85,4.3-6.22,13.6-9.37,13.36-2.76-.21-3.92-13.13-4.2-16.78,4.28,1.05,8.87,2.23,13.57,3.41Z"/>
          <path class="cls-28" d="m335.55,112.94c-1.95,4.72-6.24,14.18-9.29,13.96-2.6-.2-3.71-12.54-4.02-17.15,4.45,1.12,8.95,2.21,13.31,3.19Z"/>
        </g>
        <g>
          <path class="cls-2" d="m230.09,176.59l-2.79,4.3c.68.4,1.34.53,1.95.39.61-.13,1.11-.5,1.52-1.13.35-.54.48-1.11.37-1.73-.13-.61-.47-1.21-1.05-1.83Zm4.9-11.89c-.64-.32-1.24-.41-1.8-.25-.55.16-1.04.57-1.45,1.2-.39.59-.55,1.15-.49,1.67.07.53.38,1.07.94,1.66l2.8-4.28Zm-13.72,21l2.41-3.69-.1-.06c-2.01-1.32-3.31-2.72-3.85-4.2-.55-1.46-.34-2.96.65-4.46.55-.85,1.23-1.39,2.02-1.65s1.53-.16,2.21.28c.63.41,1.02.99,1.14,1.73.13.73-.03,1.43-.46,2.09-.34.52-.72.86-1.17,1.05-.43.2-.9.21-1.42.08.16.51.42.98.76,1.38.34.43.8.8,1.35,1.16l.39.26,3.22-4.93c-1.84-2.07-2.93-3.88-3.27-5.42-.33-1.52,0-3.08,1.02-4.64,1.19-1.82,2.72-2.96,4.61-3.42,1.88-.48,3.84-.18,5.88.87l.52-.8c.23.33.53.63.89.86s.74.38,1.14.47l-.51.77c1.76,1.27,2.89,2.61,3.36,4.02.47,1.4.24,2.79-.65,4.16-.55.85-1.21,1.38-1.96,1.65-.77.26-1.48.18-2.14-.26s-1.01-.98-1.13-1.66c-.13-.69,0-1.36.42-2,.25-.38.55-.66.91-.89.38-.21.8-.36,1.27-.44-.15-.38-.36-.74-.65-1.07-.29-.35-.67-.66-1.12-.96l-3.16,4.83c1.87,1.97,2.98,3.78,3.33,5.42.35,1.65-.02,3.32-1.11,4.98-1.25,1.92-2.79,3.04-4.61,3.42s-3.76-.06-5.79-1.31l-2.41,3.69-2.01-1.32h0Z"/>
          <path class="cls-5" d="m230.09,176.59l-.29.44,1.43-9.9c.01.07.02.13.02.19.07.53.38,1.07.94,1.66l.06-.08-1.29,8.95c-.19-.42-.48-.84-.87-1.25h0Zm-.91,4.71h.07c.51-.12.96-.41,1.33-.88l-.62,4.34c-.41-.02-.82-.07-1.24-.17l.46-3.29Zm-.72-19.02l-1.54,10.57c-.94-1.3-1.53-2.49-1.76-3.54-.33-1.52,0-3.08,1.02-4.64.65-1,1.41-1.79,2.28-2.39h0Zm-2.32,15.95l-.8,5.63-2.06,3.15-1.14-.75.35-2.44,1.19-1.82-.1-.06c-.25-.17-.51-.33-.74-.5l.48-3.38c.05.05.09.12.15.18.34.43.8.8,1.35,1.16l.39.26.93-1.42Zm-2.65-1.29l.75-5.24c.12.06.26.13.37.2.63.41,1.02.99,1.14,1.73.13.73-.03,1.43-.46,2.09-.34.52-.72.86-1.17,1.05-.2.09-.41.15-.63.17h0Zm9.89-15.87l-.5,3.5c-.43.2-.81.56-1.15,1.08-.18.28-.32.55-.4.82l.77-5.42c.42-.03.85,0,1.27.03h0Zm5.09,1.32l-.62,4.24c-.26-.23-.54-.45-.83-.64l-1.46,2.24.9-6.21c.08.03.14.07.22.1l.52-.8c.23.33.53.63.89.86.13.08.25.14.38.21h0Zm-.88,6.02l-.63,4.31c-.42-.37-.67-.84-.76-1.38-.13-.69,0-1.36.42-2,.25-.38.55-.66.91-.89l.06-.04Zm-.91,6.32l-1.03,7.11c-.71.93-1.49,1.64-2.36,2.14l1.71-11.87c.73.92,1.3,1.79,1.68,2.63Z"/>
          <path class="cls-4" d="m241.66,156.7c1.51.98,1.93,3.01.94,4.53-.98,1.51-3.01,1.93-4.52.95s-1.95-3.02-.96-4.53c.99-1.52,3.01-1.94,4.53-.96,0,0,0,0,.01,0Zm-.74,1.13c.89.58,1.14,1.77.55,2.67s-1.77,1.14-2.65.56-1.15-1.78-.57-2.66,1.79-1.14,2.68-.56h0Z"/>
          <path class="cls-3" d="m239.69,153.72l-1.34.13-.28-2.81,1.34-.13.28,2.81Zm.28,1.15l-1.66.16c-.55.05-1.04-.36-1.11-.91l-.3-3.12c-.06-.57.34-1.06.9-1.11l1.64-.16c.56-.05,1.06.36,1.11.9l.31,3.12c.05.55-.36,1.06-.9,1.11Zm-.9-7.5l-1.34.15-.28-2.82,1.34-.13.28,2.81Zm.28,1.15l-1.66.16c-.55.07-1.04-.36-1.11-.9l-.3-3.12c-.07-.55.34-1.04.9-1.11l1.64-.16c.56-.05,1.06.36,1.11.9l.31,3.14c.05.55-.36,1.04-.9,1.09h0Z"/>
          <path class="cls-2" d="m239.45,158.23c-.35.02-.65-.23-.7-.59l-.39-3.86c-.02-.35.23-.65.59-.7.35-.04.67.22.7.57l.39,3.86c.02.35-.22.67-.59.71h0Zm-.62-6.35c-.35.04-.66-.22-.7-.57l-.39-3.86c-.02-.35.24-.67.59-.71.35-.02.67.24.7.59l.39,3.86c.02.35-.23.65-.59.7h0Z"/>
          <path class="cls-3" d="m237.16,140.81l-1.23.56-1.17-2.56,1.23-.56,1.17,2.56Zm.63,1l-1.52.69c-.5.22-1.1,0-1.34-.5l-1.29-2.86c-.24-.52-.02-1.11.5-1.34l1.5-.69c.52-.23,1.12,0,1.34.5l1.31,2.85c.22.5,0,1.12-.5,1.34Zm-3.28-6.8l-1.22.57-1.18-2.58,1.23-.56,1.17,2.56Zm.63,1l-1.52.69c-.5.24-1.1,0-1.34-.5l-1.29-2.86c-.24-.5-.02-1.1.5-1.34l1.5-.69c.52-.23,1.12,0,1.34.5l1.31,2.87c.22.5,0,1.1-.5,1.32h0Z"/>
          <path class="cls-2" d="m238.39,145.17c-.32.14-.69,0-.85-.33l-1.62-3.53c-.14-.32,0-.69.33-.85.32-.15.71,0,.85.31l1.62,3.53c.14.32,0,.71-.33.86h0Zm-2.64-5.81c-.32.15-.69,0-.85-.31l-1.62-3.53c-.14-.32,0-.71.33-.86.32-.14.71,0,.85.33l1.62,3.53c.14.32,0,.69-.33.85h0Z"/>
          <path class="cls-3" d="m230.34,129.21l-1.02.88-1.85-2.13,1.02-.88,1.85,2.13Zm.89.78l-1.26,1.09c-.42.36-1.05.31-1.43-.1l-2.05-2.37c-.38-.43-.33-1.06.1-1.43l1.24-1.08c.43-.36,1.07-.32,1.43.1l2.06,2.37c.36.42.32,1.07-.1,1.43Zm-5.07-5.6l-1.01.9-1.86-2.14,1.02-.88,1.85,2.13Zm.89.78l-1.26,1.09c-.41.37-1.05.31-1.43-.1l-2.05-2.37c-.37-.41-.33-1.05.1-1.43l1.24-1.08c.43-.36,1.07-.32,1.43.1l2.07,2.38c.36.42.31,1.05-.1,1.41h0Z"/>
          <path class="cls-2" d="m232.75,133.04c-.27.22-.67.19-.91-.08l-2.55-2.93c-.22-.27-.19-.67.08-.91.27-.24.68-.21.9.06l2.55,2.93c.22.27.21.68-.07.92h0Zm-4.18-4.82c-.27.24-.66.2-.9-.06l-2.55-2.93c-.22-.27-.19-.68.07-.92.27-.22.68-.19.91.08l2.55,2.93c.22.27.19.67-.08.91h0Z"/>
        </g>
        <g>
          <path class="cls-2" d="m319,194.32l-.7,3.39c.53.09.97,0,1.32-.23.35-.23.57-.59.68-1.09.09-.42.03-.82-.19-1.18-.23-.35-.59-.65-1.11-.89Zm.16-8.67c-.48-.04-.88.05-1.19.28-.3.24-.51.61-.62,1.11-.1.47-.06.86.1,1.17.18.32.5.58,1,.81l.71-3.37Zm-3.47,16.54l.61-2.91-.08-.02c-1.59-.33-2.74-.9-3.44-1.69-.7-.78-.94-1.77-.69-2.96.14-.67.43-1.17.87-1.53s.92-.48,1.46-.37c.5.1.88.37,1.14.81.26.42.33.9.22,1.42-.09.41-.24.71-.48.94-.22.23-.51.36-.87.4.22.28.5.51.82.68.32.18.7.31,1.13.4l.31.07.81-3.88c-1.66-.85-2.79-1.72-3.38-2.6-.58-.87-.75-1.93-.5-3.16.3-1.43.98-2.53,2.05-3.28,1.06-.76,2.36-1.06,3.91-.9l.13-.63c.22.15.49.26.77.32s.56.06.83.01l-.13.61c1.42.37,2.46.93,3.09,1.7.64.76.84,1.69.61,2.77-.14.67-.42,1.16-.83,1.52-.42.35-.89.47-1.41.36s-.87-.37-1.11-.77c-.25-.4-.33-.86-.23-1.36.06-.3.19-.55.35-.78.19-.23.41-.42.69-.59-.19-.2-.41-.38-.67-.51-.27-.15-.58-.25-.94-.32l-.8,3.81c1.66.78,2.8,1.64,3.42,2.58.62.95.8,2.09.53,3.4-.32,1.51-1.01,2.59-2.05,3.28s-2.37.88-3.96.59l-.61,2.91-1.59-.33h0Z"/>
          <path class="cls-5" d="m319,194.32l-.07.34-1.53-6.56s.04.08.06.12c.18.32.5.58,1,.81v-.07s1.4,5.93,1.4,5.93c-.22-.22-.51-.41-.85-.57h0Zm.58,3.18l.04-.03c.3-.19.51-.48.62-.87l.67,2.87c-.26.08-.53.16-.82.2l-.52-2.18Zm-5.11-11.76l1.62,7.01c-.91-.58-1.57-1.19-1.98-1.79-.58-.87-.75-1.93-.5-3.16.17-.79.45-1.47.85-2.06h0Zm2.45,10.58l.87,3.73-.52,2.49-.9-.19-.38-1.62.3-1.43-.08-.02c-.2-.04-.4-.08-.59-.13l-.53-2.24s.08.05.13.07c.32.18.7.31,1.13.4l.31.07.23-1.12Zm-1.98-.16l-.81-3.47c.09,0,.19.02.28.04.5.1.88.37,1.14.81.26.42.33.9.22,1.42-.09.41-.24.71-.48.94-.1.11-.22.19-.36.26h0Zm2.32-12.38l.55,2.32c-.22.23-.37.55-.46.96-.05.22-.07.43-.05.62l-.84-3.59c.26-.12.53-.21.8-.3h0Zm3.52-.42l.65,2.81c-.22-.08-.45-.15-.68-.2l-.37,1.76-.96-4.12c.06,0,.1,0,.16.01l.13-.63c.22.15.49.26.77.32.1.02.19.03.29.04h0Zm.92,3.99l.66,2.86c-.35-.13-.63-.36-.82-.68-.25-.4-.33-.86-.23-1.36.06-.3.19-.55.35-.78l.03-.04Zm.98,4.19l1.1,4.71c-.22.75-.54,1.39-.96,1.92l-1.84-7.87c.68.4,1.26.81,1.7,1.24Z"/>
          <path class="cls-4" d="m321.39,179c1.19.25,1.95,1.42,1.7,2.61s-1.42,1.95-2.6,1.7-1.96-1.42-1.71-2.61c.25-1.19,1.42-1.96,2.61-1.71,0,0,0,0,0,0Zm-.19.89c.7.15,1.15.83,1,1.54s-.83,1.15-1.53,1-1.16-.83-1.01-1.53.84-1.16,1.54-1.01h0Z"/>
          <path class="cls-3" d="m320.54,175.49l-1.39.16-.34-2.91,1.39-.16.34,2.91Zm.3,1.19l-1.72.19c-.57.06-1.09-.35-1.16-.92l-.36-3.24c-.07-.59.34-1.11.92-1.16l1.7-.2c.58-.06,1.1.36,1.16.92l.37,3.24c.06.57-.36,1.1-.92,1.16Zm-1.05-7.78l-1.39.17-.33-2.93,1.39-.16.34,2.91Zm.3,1.19l-1.72.19c-.57.08-1.09-.35-1.16-.92l-.36-3.24c-.08-.57.34-1.09.92-1.16l1.7-.2c.58-.06,1.1.36,1.16.92l.37,3.26c.06.57-.35,1.09-.92,1.15h0Z"/>
          <path class="cls-2" d="m320.36,180.19c-.36.03-.68-.23-.73-.6l-.46-4.01c-.03-.36.23-.68.6-.73.37-.05.7.22.74.58l.46,4.01c.03.36-.22.7-.6.75h0Zm-.75-6.59c-.37.05-.69-.22-.74-.58l-.46-4.01c-.03-.36.24-.7.6-.75.36-.03.7.24.73.6l.46,4.01c.03.36-.23.68-.6.73h0Z"/>
        </g>
        <path class="cls-2" d="m318.6,165.56c.04-.37.37-.62.73-.59l4.01.45c.36.05.63.39.59.76-.05.36-.39.63-.75.58l-4.01-.45c-.36-.05-.61-.38-.58-.75h0Z"/>
        <g>
          <path class="cls-3" d="m245.33,157.9l.21,1.33,2.79-.44-.21-1.33-2.79.44Zm-1.17.04l.26,1.63c.1.56.62.93,1.16.84l3.1-.49c.56-.1.93-.62.84-1.16l-.26-1.64c-.09-.54-.61-.92-1.16-.84l-3.09.5c-.55.08-.93.62-.84,1.16h0Zm7.47-1.05l.2,1.34,2.8-.45-.21-1.33-2.79.44Zm-1.17.04l.26,1.63c.08.56.62.93,1.16.84l3.1-.49c.54-.09.92-.61.84-1.16l-.26-1.64c-.09-.54-.61-.92-1.16-.84l-3.11.51c-.55.08-.92.61-.83,1.15h0Z"/>
          <path class="cls-2" d="m241.02,159.28c.07.35.4.59.75.54l3.83-.62c.35-.05.58-.38.53-.73-.05-.35-.38-.6-.74-.55l-3.83.62c-.35.05-.6.38-.55.74Zm6.3-1.01c.05.35.38.6.74.55l3.83-.62c.35-.05.6-.38.55-.74-.07-.35-.4-.59-.75-.54l-3.83.62c-.35.05-.58.38-.53.73Z"/>
          <path class="cls-3" d="m258.39,156.55l-.02,1.35,2.82.05.02-1.35-2.82-.05Zm-1.16-.17l-.03,1.65c0,.56.44,1.02.99,1.03l3.14.06c.56,0,1.02-.44,1.03-.99l.03-1.67c0-.55-.44-1.01-.99-1.03l-3.13-.04c-.55-.02-1.02.44-1.03.99h0Zm7.54.27l-.04,1.35,2.84.05.02-1.35-2.82-.05Zm-1.16-.17l-.03,1.65c-.02.57.44,1.02.99,1.03l3.14.06c.55,0,1.01-.44,1.03-.99l.03-1.67c0-.55-.44-1.01-.99-1.03l-3.15-.04c-.55-.02-1.01.44-1.01.99h0Z"/>
          <path class="cls-2" d="m253.91,157.16c0,.35.29.65.65.66l3.88.06c.36.01.64-.27.65-.63.01-.36-.27-.65-.63-.67l-3.88-.06c-.36-.01-.65.28-.67.63Zm6.38.11c-.01.36.27.65.63.67l3.88.06c.36.01.65-.27.67-.63,0-.35-.29-.65-.65-.66l-3.88-.06c-.36-.01-.64.27-.65.63Z"/>
          <path class="cls-3" d="m271.5,156.87l-.02,1.35,2.82.05.02-1.35-2.82-.05Zm-1.16-.17l-.03,1.65c0,.56.44,1.02.99,1.03l3.14.06c.56,0,1.02-.44,1.03-.99l.03-1.67c0-.55-.44-1.01-.99-1.03l-3.13-.04c-.55-.02-1.02.44-1.03.99h0Zm7.54.27l-.04,1.35,2.84.05.02-1.35-2.82-.05Zm-1.16-.17l-.03,1.65c-.02.57.44,1.02.99,1.03l3.14.06c.55,0,1.01-.44,1.03-.99l.03-1.67c0-.55-.44-1.01-.99-1.03l-3.15-.04c-.55-.02-1.01.44-1.01.99h0Z"/>
          <path class="cls-2" d="m267.02,157.48c0,.35.29.65.65.66l3.88.06c.36.01.64-.27.65-.63.01-.36-.27-.65-.63-.67l-3.88-.06c-.36-.01-.65.28-.67.63Zm6.38.11c-.01.36.27.65.63.67l3.88.06c.36.01.65-.27.67-.63,0-.35-.29-.65-.65-.66l-3.88-.06c-.36-.01-.64.27-.65.63Z"/>
          <path class="cls-3" d="m284.46,157.12l-.02,1.35,2.82.05.02-1.35-2.82-.05Zm-1.16-.17l-.03,1.65c0,.56.44,1.02.99,1.03l3.14.06c.56,0,1.02-.44,1.03-.99l.03-1.67c0-.55-.44-1.01-.99-1.03l-3.13-.04c-.55-.02-1.02.44-1.03.99h0Zm7.54.27l-.04,1.35,2.84.05.02-1.35-2.82-.05Zm-1.16-.17l-.03,1.65c-.02.57.44,1.02.99,1.03l3.14.06c.55,0,1.01-.44,1.03-.99l.03-1.67c0-.55-.44-1.01-.99-1.03l-3.15-.04c-.55-.02-1.01.44-1.01.99h0Z"/>
          <path class="cls-2" d="m279.97,157.72c0,.35.29.65.65.66l3.88.06c.36.01.64-.27.65-.63.01-.36-.27-.65-.63-.67l-3.88-.06c-.36-.01-.65.28-.67.63Zm6.38.11c-.01.36.27.65.63.67l3.88.06c.36.01.65-.27.67-.63,0-.35-.29-.65-.65-.66l-3.88-.06c-.36-.01-.64.27-.65.63Z"/>
          <path class="cls-3" d="m297.4,157.2l-.02,1.35,2.82.05.02-1.35-2.82-.05Zm-1.16-.17l-.03,1.65c0,.56.44,1.02.99,1.03l3.14.06c.56,0,1.02-.44,1.03-.99l.03-1.67c0-.55-.44-1.01-.99-1.03l-3.13-.04c-.55-.02-1.02.44-1.03.99h0Z"/>
          <path class="cls-2" d="m292.92,157.81c0,.35.29.65.65.66l3.88.06c.36.01.64-.27.65-.63.01-.36-.27-.65-.63-.67l-3.88-.06c-.36-.01-.65.28-.67.63Zm6.38.11c-.01.36.27.65.63.67l3.88.06c.36.01.65-.27.67-.63,0-.35-.29-.65-.65-.66l-3.88-.06c-.36-.01-.64.27-.65.63Z"/>
        </g>
        <path class="cls-14" d="m234.95,119.37c-.05,4.07,10.04,43.14,12.3,48.15,2.26,5.02,40.78,3.24,43.31,1.6,1.83-1.18,2.54-8.86,6.02-9.7,3.48-.84,5.19,7.35,6.61,6.6,2.22-1.17-1.25-7.57-1.25-7.57,0,0,3.87,4.27,4.87,3.28,1.74-1.72-3.4-10.11-6.06-11.71-2.66-1.6-8.51-.04-9.89.54-1.38.58-5.55,10.67-5.55,10.67,0,0-27.8-3.57-28.49-4.06-.69-.49-4.43-31.36-4.47-38.13-.05-8.04-17.23-15.64-17.42.32Z"/>
        <g>
          <g>
            <path class="cls-10" d="m116.25,200.41c-3.32-3.6-12.21-11.72-19.92-16.19-7.71-4.46-11.94-7.77-16.46-.71-4.52,7.06-23.31,38.36-25.83,44.44-2.53,6.08-7.85,22.54-2.83,25.1,5.02,2.56,9.29,1.6,11.61-1.48,2.32-3.08,7.66-5.84,11.36-8.78s12.31-10.64,14.18-10.65c1.87,0,20.25.17,23.26-1.9,1.39-.95.96-7.87,1.88-14.32,1.09-7.58,3.38-14.82,2.75-15.51Z"/>
            <path class="cls-20" d="m62.82,251.57c1.64-2.17,3.78-2.8,7.23-5.9,0-.72.45-.97,1.13-1.64,1.4-1.38,3.6-2.49,4.12-4.52.34-1.33-.08-2.66.43-3.94.63-1.56,2.54-2.82,3.85-3.76,1.54-1.11,3.15-2.09,4.81-3,1.86-1.03,4.19-1.97,5.77-3.42,1.97-1.8,3-5.53,2.98-8.01,0-.35.53-.42.66-.12.83,1.92.83,5.29,2.76,6.33,1.61.87,3.44,1.07,5.25,1.07,3.6,0,7.4.19,10.99-.44.15-2.49.3-5.44.71-8.31,1.09-7.58,3.38-14.82,2.75-15.51-3.32-3.6-12.21-11.72-19.92-16.19-7.71-4.46-11.25-7.45-15.77-.4-4.52,7.06-23.52,38.09-26.04,44.17-2.53,6.08-8.34,22.49-3.31,25.05,5.02,2.56,9.29,1.6,11.61-1.48Z"/>
            <path class="cls-7" d="m71.17,244.03c.42-.42.92-.81,1.42-1.21-.21-.42-.42-.84-.65-1.24-.53-.91-1.3-2.34-2.43-2.61-1.68-.4-3.04,1.74-3.77,2.92-1.42,2.3-.78,1.2-1.92,3.63-.65,1.38-1.46,2.86-1.59,4.41-.06.73.05,1.39.3,2,.1-.12.17-.27.3-.36,2.47-1.8,3.78-2.8,7.23-5.9,0-.72.45-.97,1.13-1.64Z"/>
            <path class="cls-18" d="m108.59,194.31c-2.15.8-4.46,2.86-6.34,4.18-3.7,2.59-6.29,6.13-7.82,10.45-1.32,3.73-1.65,6.51-1.35,10.35.78,1.69,1.8,3.41,3.47,4.31,1.61.87,3.44,1.07,5.25,1.07,3.6,0,7.4.19,10.99-.44.15-2.49.3-5.44.71-8.31,1.09-7.58,3.38-14.82,2.75-15.51-1.41-1.53-3.84-3.88-6.75-6.42-.3.1-.61.21-.91.32Z"/>
            <path class="cls-9" d="m95.12,210.6c1.57-4.77,4.7-8.61,8.44-11.6,1.89-1.52,3.93-2.87,6.1-3.84.26-.12.53-.23.79-.34-.31-.27-.62-.55-.94-.83-.3.1-.61.21-.91.32-2.15.8-4.17,1.96-6.05,3.27-3.7,2.59-6.41,6.15-8.33,10.31-2.2,4.76-1.55,10.04-1.25,13.88.22.47.58-1.54.84-1.08-.07-3.38.22-6.75,1.31-10.09Z"/>
            <path class="cls-18" d="m61.97,252.51c-.35-.72-.54-1.5-.47-2.35.17-1.96,1.14-3.65,1.91-5.42,1.09-2.51.52-1.51,2.1-3.76,1.42-2.02,3.7-4.01,5.78-1.57.76.89,1.32,1.92,1.83,2.98.97-.8,1.86-1.68,2.17-2.88.31-1.2,0-2.39.31-3.55-3.23-7.52-6.8-14.8-11.06-21.88-.4-.67-.8-1.35-1.18-2.03-4.25,7.21-7.84,13.54-8.84,15.95-2.53,6.08-8.34,22.49-3.31,25.05,4.46,2.28,8.33,1.76,10.76-.54Z"/>
            <path class="cls-9" d="m65.08,217.17c3.96,6.58,7.32,13.35,10.37,20.31,0-.51.02-1.02.15-1.53-3.23-7.52-6.8-14.8-11.06-21.88-.4-.67-.8-1.35-1.18-2.03-.28.47-.55.93-.82,1.39,1.22,1.78,2.35,3.44,2.53,3.74Z"/>
            <path class="cls-18" d="m70.3,210.91c3.7.89,7.06.64,10.26-1.6,2.59-1.81,4.75-4.12,6.83-6.49,3.22-3.65,6.53-7.79,10.68-10.42,2.36-1.49,4.79-2.09,7.26-1.91-2.92-2.32-6.05-4.57-9-6.28-7.71-4.46-11.25-7.45-15.77-.4-2.51,3.92-9.48,15.23-15.62,25.56,1.78.56,3.56,1.1,5.36,1.53Z"/>
            <path class="cls-9" d="m97.19,191.52c-4.28,2.65-7.67,6.87-10.97,10.58-2.14,2.4-4.35,4.75-7.02,6.58-3.29,2.26-6.76,2.49-10.61,1.55-1.19-.29-2.38-.63-3.56-.99-.03.05-.06.1-.09.15,1.78.56,3.56,1.1,5.36,1.53,3.7.89,7.06.64,10.26-1.6,2.59-1.81,4.75-4.12,6.83-6.49,3.22-3.65,6.53-7.79,10.68-10.42,2.36-1.49,4.79-2.09,7.26-1.91-.38-.3-.77-.6-1.15-.9-2.38-.09-4.72.51-6.98,1.92Z"/>
            <path class="cls-27" d="m56.17,254.5c-1.5-5.97,3.12-18.15,5.44-23.47,2.7-6.19,22.66-37.87,27.4-45.07,1.31-1.99,2.53-3.2,3.76-3.81-5.37-3.1-8.46-4.19-12.22,1.68-4.52,7.06-23.52,38.09-26.04,44.17-2.53,6.08-8.34,22.49-3.31,25.05,1.77.9,3.44,1.36,4.97,1.45Z"/>
            <path class="cls-10" d="m56.69,227.84c.42.37.85.73,1.27,1.1,0,0,0,0,0,0,2.8-6.12,23.35-37.37,28.23-44.47,1.35-1.96,2.59-3.15,3.84-3.76-.58-.34-1.91-.78-1.91-.78-1.11.65-1.98,1.63-3.18,3.38-4.87,7.11-25.42,38.35-28.23,44.47,0,.02-.02.05-.03.07Z"/>
            <path class="cls-10" d="m60.94,227.12c.45-2.78-1.02-4.71-2.71-6.59-1.89,3.35-3.31,6-3.88,7.38-2.53,6.08-8.34,22.49-3.31,25.05,1.38.71,2.7,1.13,3.95,1.33-2.17-9.64,5.65-25.33,5.95-27.17Z"/>
            <path class="cls-7" d="m86.61,223.16c-1.01-3.89-1.55-9.28-1.93-11.77-.38-2.49-14.11,5.2-12.61,8.84,1.5,3.64,5.46,9.51,5.46,9.51l9.07-6.58Z"/>
            <path class="cls-7" d="m110.88,216.07c1.07-4.03,3.13-12.35,1.56-14.05s-7.57-2.67-9.87,2.09c-2.29,4.76-3.27,14.11-.52,14.29,2.75.18,8.05.59,8.83-2.33Z"/>
            <path class="cls-11" d="m106.77,223.67c-1.21-.18-2.1-.93-1.99-1.69.11-.76,1.18-1.23,2.39-1.06s2.1.93,1.99,1.69c-.11.76-1.18,1.23-2.39,1.06Z"/>
            <path class="cls-11" d="m100.2,223.04c-1.21-.18-2.1-.93-1.99-1.69.11-.76,1.18-1.23,2.39-1.06s2.1.93,1.99,1.69c-.11.76-1.18,1.23-2.39,1.06Z"/>
            <path class="cls-11" d="m90.98,222.92c-.94.16-1.79-.19-1.89-.78-.1-.59.58-1.2,1.52-1.36.94-.16,1.79.19,1.89.78.1.59-.58,1.2-1.52,1.36Z"/>
            <path class="cls-11" d="m86.48,226.89c-.85.43-1.76.35-2.03-.18-.27-.54.2-1.32,1.05-1.75.85-.43,1.76-.35,2.03.18.27.54-.2,1.32-1.05,1.75Z"/>
            <path class="cls-11" d="m81.52,230.49c-.77.56-1.68.62-2.04.14-.35-.49-.02-1.33.75-1.9.77-.56,1.68-.62,2.04-.14.35.49.02,1.33-.75,1.9Z"/>
            <path class="cls-11" d="m77.48,233.3c-.77.56-1.68.62-2.04.14-.35-.49-.02-1.33.75-1.9.77-.56,1.68-.62,2.04-.14s.02,1.33-.75,1.9Z"/>
            <path class="cls-10" d="m114.21,202.08c.63.68-1.66,7.93-2.75,15.51-.76,5.27-.61,10.85-1.29,13.23.63-.17,1.13-.37,1.45-.59,1.39-.95.96-7.87,1.88-14.32,1.09-7.58,3.38-14.82,2.75-15.51-1.01-1.1-2.55-2.62-4.41-4.33.67,2.67,1.34,4.89,2.36,6.01Z"/>
            <path class="cls-7" d="m105.2,232.29c-.34-.04-.59-.27-.57-.53l.83-9.63c.03-.25.33-.43.67-.4l1.54.17c.34.04.59.27.57.53l-.83,9.63c-.03.25-.33.43-.67.4l-1.54-.17Z"/>
            <path class="cls-7" d="m99.45,232.9c-.34,0-.61-.22-.61-.48l-.07-11.03c0-.26.29-.46.63-.45l1.55.03c.34,0,.61.22.61.48l.07,11.03c0,.26-.29.46-.63.45l-1.55-.03Z"/>
            <path class="cls-7" d="m92.46,233.25c-.34.06-.65-.09-.69-.34l-2.3-10.79c-.05-.25.19-.51.52-.57l1.52-.28c.34-.06.65.09.69.34l2.3,10.79c.05.25-.19.51-.52.57l-1.52.28Z"/>
            <path class="cls-7" d="m87.58,233.59c-.33.1-.65-.01-.73-.26l-2.24-6.87c-.08-.24.13-.53.45-.63l1.48-.46c.33-.1.65.01.73.26l2.24,6.87c.08.24-.13.53-.45.63l-1.48.46Z"/>
            <path class="cls-7" d="m84.14,235.71c-.29.18-.63.16-.77-.06l-3.58-5.37c-.14-.22-.02-.54.27-.73l1.3-.84c.29-.19.63-.16.77.06l3.58,5.37c.14.22.02.54-.27.73l-1.3.84Z"/>
            <path class="cls-7" d="m80.52,238.31c-.27.21-.62.21-.77.01l-4.04-5.04c-.16-.2-.07-.54.2-.75l1.22-.95c.27-.21.62-.21.77-.01l4.04,5.04c.16.2.07.54-.2.75l-1.22.95Z"/>
            <path class="cls-11" d="m73.41,236.97c-.64.71-1.52.95-1.97.55-.44-.4-.29-1.3.36-2.01.64-.71,1.52-.95,1.97-.55s.29,1.3-.36,2.01Z"/>
            <path class="cls-7" d="m76.92,241.62c-.25.23-.59.27-.77.08l-4.48-4.64c-.17-.19-.11-.53.14-.76l1.13-1.06c.25-.23.59-.27.77-.08l4.48,4.64c.17.19.11.53-.14.76l-1.13,1.06Z"/>
          </g>
          <g>
            <path class="cls-6" d="m81.84,215.9c.09.04.17.08.26.11.33.11.64.08.91-.16.28-.25.3-.59.19-.9-.15-.43-.4-.81-.85-1-.37-.15-.8,0-.94.37-.04.11-.02.27.03.38.07.17.2.31.32.49l-.41.27c-.03-.07-.05-.14-.1-.21-.15-.22-.35-.41-.21-.73.19-.4.43-.72.87-.85.67-.19,1.28.14,1.63.89.22.48.01,1.16-.48,1.49-.32.22-.68.28-1.05.15-.1-.03-.17-.15-.26-.23.03-.03.05-.06.08-.08Z"/>
            <path class="cls-6" d="m74.85,219.29c-.03-.17-.1-.35-.07-.5.11-.53.61-.93,1.19-1,.5-.06,1,.28,1.29.88.22.44.14.99-.21,1.36-.27.29-.64.4-1.02.43-.23.02-.44-.07-.51-.41.11.04.19.07.27.1.35.13.68.12.96-.15.28-.26.33-.6.17-.92-.16-.31-.35-.62-.61-.85-.47-.41-1.2-.09-1.3.56-.03.16-.04.32-.05.48-.04,0-.08,0-.11.01Z"/>
            <path class="cls-6" d="m77.02,217.84c-.23-.13-.25-.29-.18-.5.19-.57.71-.95,1.27-.93.59.03,1.15.54,1.29,1.15.21.9-.61,1.58-1.45,1.51-.15-.01-.28-.22-.41-.34.02-.02.04-.04.06-.06.16.06.32.13.49.17.47.11.93-.22.97-.69.05-.53-.39-1.2-.89-1.38-.53-.18-1,.1-1.09.65-.02.13-.03.27-.05.42Z"/>
            <path class="cls-6" d="m80.15,217.92c-.35-.52-.63-.93-.91-1.34-.32-.49-.25-.97.16-1.27.48-.34.98-.26,1.34.21.16.21.29.43.44.65.14.21.29.43.44.65l-.32.21c-.29-.43-.58-.86-.87-1.28-.27-.38-.59-.45-.94-.22-.32.22-.38.59-.14.96.25.38.52.76.78,1.14.04.05,0,.15,0,.29Z"/>
            <path class="cls-6" d="m75.56,220.93l-.36.24-1.37-2.01.36-.24c.46.67.9,1.33,1.37,2.01Z"/>
          </g>
          <g>
            <path class="cls-17" d="m92.68,187.21c.09.01.18.03.28.04.35.03.64-.08.84-.39.21-.31.14-.65-.04-.92-.25-.38-.59-.69-1.07-.75-.4-.05-.77.21-.82.6-.01.11.05.26.12.36.11.14.27.25.43.39l-.32.37c-.05-.06-.09-.13-.15-.18-.2-.18-.45-.31-.38-.65.08-.43.24-.81.63-1.04.6-.36,1.27-.19,1.8.45.34.4.3,1.12-.09,1.56-.25.29-.59.44-.97.41-.11,0-.21-.1-.31-.15.02-.03.04-.07.05-.1Z"/>
            <path class="cls-17" d="m86.78,192.27c-.07-.16-.19-.31-.2-.47-.03-.54.35-1.05.9-1.27.47-.18,1.04.02,1.47.52.32.37.38.93.14,1.37-.19.35-.51.55-.87.67-.22.08-.44.04-.6-.27.12.01.2.02.29.03.37.04.69-.05.89-.38.2-.33.17-.66-.07-.93-.23-.26-.5-.52-.8-.67-.56-.28-1.18.22-1.12.87.01.16.05.32.07.47-.04.01-.07.03-.11.04Z"/>
            <path class="cls-17" d="m88.51,190.31c-.25-.07-.31-.22-.3-.43.04-.6.45-1.1.99-1.22.58-.12,1.24.23,1.54.78.43.82-.19,1.68-1.02,1.83-.14.03-.32-.14-.49-.22.01-.02.03-.05.04-.07.17.01.34.05.52.04.48-.01.84-.45.76-.91-.08-.52-.68-1.07-1.21-1.11-.55-.04-.94.34-.89.9.01.13.04.27.06.42Z"/>
            <path class="cls-17" d="m91.55,189.59c-.47-.41-.85-.73-1.22-1.07-.44-.39-.49-.88-.16-1.27.38-.45.88-.5,1.35-.14.21.16.39.34.59.51.19.17.39.34.59.52l-.25.29c-.39-.34-.78-.69-1.17-1.02-.36-.3-.68-.29-.96.03-.26.29-.22.67.11.97.34.31.7.6,1.04.91.05.04.04.14.08.27Z"/>
            <path class="cls-17" d="m87.88,193.67l-.29.33-1.83-1.6.29-.33c.61.53,1.21,1.06,1.83,1.6Z"/>
          </g>
        </g>
        <g>
          <path class="cls-6" d="m258.45,210.08c.04-.08.08-.16.11-.24.13-.31.11-.61-.11-.88-.23-.28-.55-.31-.85-.23-.42.12-.79.34-1,.76-.16.35-.03.76.31.92.1.05.25.03.36,0,.16-.06.31-.18.48-.28l.24.4c-.07.03-.14.04-.2.08-.22.13-.41.32-.71.16-.37-.2-.66-.45-.76-.87-.15-.65.2-1.21.93-1.51.47-.19,1.1.05,1.4.53.19.31.23.66.09,1.01-.04.09-.15.16-.23.24-.02-.03-.05-.05-.07-.08Z"/>
          <path class="cls-6" d="m261.33,216.91c-.16.02-.34.08-.48.04-.5-.13-.86-.62-.89-1.19-.03-.48.32-.94.9-1.19.43-.19.95-.08,1.29.27.26.28.35.63.36.99,0,.22-.09.41-.41.47.05-.1.08-.18.11-.26.14-.32.15-.64-.09-.92-.24-.28-.55-.35-.87-.2-.3.14-.61.3-.84.53-.42.43-.14,1.14.46,1.27.15.03.3.05.45.07,0,.04,0,.07,0,.11Z"/>
          <path class="cls-6" d="m260.05,214.77c-.13.21-.29.22-.48.14-.53-.21-.87-.73-.82-1.26.06-.56.57-1.06,1.16-1.17.87-.16,1.47.66,1.37,1.46-.02.14-.23.25-.35.38-.02-.02-.04-.04-.06-.06.06-.15.14-.3.19-.46.13-.44-.17-.89-.61-.96-.5-.08-1.17.31-1.36.78-.2.49.04.95.56,1.07.12.03.25.04.4.07Z"/>
          <path class="cls-6" d="m260.28,211.8c-.51.31-.91.56-1.32.8-.48.28-.94.19-1.2-.22-.3-.48-.2-.95.27-1.27.21-.14.43-.26.64-.39.21-.13.42-.25.64-.39l.19.31c-.42.26-.85.51-1.27.77-.38.24-.46.54-.25.88.19.32.55.39.91.18.38-.22.75-.46,1.13-.68.05-.03.14,0,.27,0Z"/>
          <path class="cls-6" d="m262.93,216.32l.21.36-1.99,1.2-.21-.36c.66-.4,1.31-.79,1.99-1.2Z"/>
        </g>
        <g>
          <g class="cls-1">
            <path class="cls-6" d="m334.84,70.09l1.85,1.83s-.02-.02-.03-.03l-1.85-1.83s.02.02.03.03Z"/>
            <path class="cls-6" d="m363.19,62.33l.37-2.14m-81.97,35.26l-3.58-4.14c-5.98-6.91-.71-20.11-.33-21.04l3.54,4.13c-.37.93-5.58,14.16.37,21.05h0Z"/>
            <path class="cls-6" d="m329.78,89.96l-3.31-3.92c-3.64-4.31-3.61-11.52-3.11-16.2,0-.05-.02-.86-.4-1.31l3.29,3.92c.38.45.4,1.26.4,1.31-.49,4.69-.5,11.9,3.12,16.2Z"/>
            <path class="cls-6" d="m341.82,90.37c-4.07.52-7.34-.97-9.47-3.5l-3.29-3.91c2.14,2.54,5.42,4.04,9.51,3.54,11.56-1.41,20.52-17.28,15.34-23.56l3.12,3.78c5.17,6.27-3.74,22.18-15.21,23.64h0Z"/>
            <path class="cls-6" d="m319.49,70.99l-3.33-3.95c1.67-1.33,7.65-2.03,8.78-.84l3.28,3.91c-1.14-1.2-7.1-.44-8.74.88Z"/>
            <path class="cls-6" d="m295.66,96.25c-4.43.57-7.85-.88-10.04-3.42l-3.55-4.12c2.19,2.54,5.63,4.01,10.09,3.46,12.6-1.54,24.03-18.11,18.27-24.93l3.36,3.98c5.74,6.81-5.61,23.44-18.13,25.03Z"/>
            <path class="cls-6" d="m315.62,66.32l3.33,3.96c-1.47-1.74-5.95-5.96-14.62-5.17l-3.4-4.02c8.72-.76,13.22,3.48,14.69,5.23h0Z"/>
            <path class="cls-6" d="m364.95,61.87l-.57,3.43-1.68.94c-.02,1.12-.32,22.74-20.56,26.8-12.23,2.45-16.91-5.81-15.49-19.28,0-.07-.04-1.4-.84-1.59-.79-.18-3.69.11-4.62.47-.92.36-1.51,1.77-1.54,1.85-3.72,12.79-11.83,23.97-25.58,24.83-23.28,1.47-13.38-23.64-12.87-24.93l-1.69-.69.89-3.83c6.94-.96,14.01-3.86,23.91-4.77,10.58-.97,14.94,5.54,15.17,5.88,1.66-1.34,7.61-2.06,8.74-.88,4.14-4.46,11.03-8.41,17.75-8.82,9.88-.6,13.33.82,18.98.57h0Zm-69.29,34.38c9.23-1.18,17.88-10.54,19.44-18.17,1.54-7.54-4.38-10.81-13.34-9.95-9.15.87-16.7,5.68-18.5,13.52-1.82,7.95,2.97,15.8,12.4,14.6m46.15-5.88c14.85-1.89,26.12-28.54,4.8-26.51-8.2.78-15.33,5.22-16.75,12.62-1.44,7.48,3.52,14.97,11.95,13.89"/>
            <path class="cls-6" d="m328.23,70.12l-3.28-3.91c4.17-4.44,11.11-8.36,17.86-8.73,9.94-.55,13.4.89,19.08.66l3.07,3.74c-5.65.26-9.1-1.16-18.98-.57-6.78.41-13.66,4.41-17.75,8.82Z"/>
            <path class="cls-6" d="m279.52,73.71l-3.55-4.14.91-3.82,3.54,4.13-.89,3.83Z"/>
            <path class="cls-6" d="m280.42,69.88l-3.54-4.13c6.98-.93,14.09-3.79,24.05-4.66l3.4,4.02c-10.08.93-16.85,3.79-23.91,4.77Z"/>
            <path class="cls-6" d="m301.76,68.12c-8.31.8-16.57,5.1-18.5,13.52-.8,3.49-.32,6.97,1.28,9.68,2.98,5.03,8.55,5.74,13.23,4.51,8.36-2.21,15.88-10.65,17.33-17.76,1.65-8.06-5.19-10.74-13.34-9.95Zm44.86-4.26c-7.42.7-15.23,4.68-16.75,12.61-1.49,7.72,3.72,14.95,11.95,13.9,7.93-.97,15.29-9.35,16.56-16.88,1.3-7.67-4.48-10.31-11.76-9.62Z"/>
            <g>
              <path class="cls-6" d="m357.75,67.81l-8.18,19.26c-1.28.96-2.68,1.75-4.19,2.35l10.26-23.96c.91.62,1.61,1.4,2.11,2.35Zm-3.71-3.19l-10.98,25.52c-3.36.82-7.54.27-10.49-3.02l9.99-22.56c3.15-.82,7.98-1.35,11.48.06Z"/>
              <path class="cls-6" d="m313.23,70.63l-11.09,23.48c-1.36.74-2.82,1.31-4.36,1.73l12.78-26.85c1.05.42,1.95.96,2.67,1.64Zm-4.58-2.23l-13.35,27.88c-5.07.53-8.76-1.61-10.75-4.96l10.77-21.84c3.77-1.29,9.17-2,13.32-1.08Z"/>
            </g>
          </g>
          <g>
            <path class="cls-12" d="m336.78,67.12l1.85,1.83s-.02-.02-.03-.03l-1.85-1.83s.02.02.03.03Z"/>
            <path class="cls-12" d="m365.12,59.35l.37-2.14m-81.97,35.26l-3.58-4.14c-5.98-6.91-.71-20.11-.33-21.04l3.54,4.13c-.37.93-5.58,14.16.37,21.05h0Z"/>
            <path class="cls-8" d="m331.71,86.99l-3.31-3.92c-3.64-4.31-3.61-11.52-3.11-16.2,0-.05-.02-.86-.4-1.31l3.29,3.92c.38.45.4,1.26.4,1.31-.49,4.69-.5,11.9,3.12,16.2Z"/>
            <path class="cls-12" d="m343.75,87.39c-4.07.52-7.34-.97-9.47-3.5l-3.29-3.91c2.14,2.54,5.42,4.04,9.51,3.54,11.56-1.41,20.52-17.28,15.34-23.56l3.12,3.78c5.17,6.27-3.74,22.18-15.21,23.64h0Z"/>
            <path class="cls-13" d="m321.43,68.02l-3.33-3.95c1.67-1.33,7.65-2.03,8.78-.84l3.28,3.91c-1.14-1.2-7.1-.44-8.74.88Z"/>
            <path class="cls-12" d="m297.6,93.27c-4.43.57-7.85-.88-10.04-3.42l-3.55-4.12c2.19,2.54,5.63,4.01,10.09,3.46,12.6-1.54,24.03-18.11,18.27-24.93l3.36,3.98c5.74,6.81-5.61,23.44-18.13,25.03Z"/>
            <path class="cls-12" d="m317.55,63.35l3.33,3.96c-1.47-1.74-5.95-5.96-14.62-5.17l-3.4-4.02c8.72-.76,13.22,3.48,14.69,5.23h0Z"/>
            <path class="cls-8" d="m366.89,58.9l-.57,3.43-1.68.94c-.02,1.12-.32,22.74-20.56,26.8-12.23,2.45-16.91-5.81-15.49-19.28,0-.07-.04-1.4-.84-1.59-.79-.18-3.69.11-4.62.47-.92.36-1.51,1.77-1.54,1.85-3.72,12.79-11.83,23.97-25.58,24.83-23.28,1.47-13.38-23.64-12.87-24.93l-1.69-.69.89-3.83c6.94-.96,14.01-3.86,23.91-4.77,10.58-.97,14.94,5.54,15.17,5.88,1.66-1.34,7.61-2.06,8.74-.88,4.14-4.46,11.03-8.41,17.75-8.82,9.88-.6,13.33.82,18.98.57h0Zm-69.29,34.38c9.23-1.18,17.88-10.54,19.44-18.17,1.54-7.54-4.38-10.81-13.34-9.95-9.15.87-16.7,5.68-18.5,13.52-1.82,7.95,2.97,15.8,12.4,14.6m46.15-5.88c14.85-1.89,26.12-28.54,4.8-26.51-8.2.78-15.33,5.22-16.75,12.62-1.44,7.48,3.52,14.97,11.95,13.89"/>
            <path class="cls-12" d="m330.16,67.14l-3.28-3.91c4.17-4.44,11.11-8.36,17.86-8.73,9.94-.55,13.4.89,19.08.66l3.07,3.74c-5.65.26-9.1-1.16-18.98-.57-6.78.41-13.66,4.41-17.75,8.82Z"/>
            <path class="cls-13" d="m281.46,70.73l-3.55-4.14.91-3.82,3.54,4.13-.89,3.83Z"/>
            <path class="cls-12" d="m282.35,66.91l-3.54-4.13c6.98-.93,14.09-3.79,24.05-4.66l3.4,4.02c-10.08.93-16.85,3.79-23.91,4.77Z"/>
            <path class="cls-6" d="m303.69,65.14c-8.31.8-16.57,5.1-18.5,13.52-.8,3.49-.32,6.97,1.28,9.68,2.98,5.03,8.55,5.74,13.23,4.51,8.36-2.21,15.88-10.65,17.33-17.76,1.65-8.06-5.19-10.74-13.34-9.95Zm44.86-4.26c-7.42.7-15.23,4.68-16.75,12.61-1.49,7.72,3.72,14.95,11.95,13.9,7.93-.97,15.29-9.35,16.56-16.88,1.3-7.67-4.48-10.31-11.76-9.62Z"/>
            <g>
              <path class="cls-28" d="m359.68,64.84l-8.18,19.26c-1.28.96-2.68,1.75-4.19,2.35l10.26-23.96c.91.62,1.61,1.4,2.11,2.35Zm-3.71-3.19l-10.98,25.52c-3.36.82-7.54.27-10.49-3.02l9.99-22.56c3.15-.82,7.98-1.35,11.48.06Z"/>
              <path class="cls-28" d="m315.16,67.65l-11.09,23.48c-1.36.74-2.82,1.31-4.36,1.73l12.78-26.85c1.05.42,1.95.96,2.67,1.64Zm-4.58-2.23l-13.35,27.88c-5.07.53-8.76-1.61-10.75-4.96l10.77-21.84c3.77-1.29,9.17-2,13.32-1.08Z"/>
            </g>
          </g>
        </g>
      </g>
      <g>
        <ellipse class="cls-32" cx="293.97" cy="18.54" rx="10.08" ry="39.49" transform="translate(259.89 311.11) rotate(-86.96)"/>
        <ellipse class="cls-32" cx="298.29" cy="16.94" rx="39.02" ry="10.2" transform="translate(12.23 103.17) rotate(-20.03)"/>
      </g>
    </g>
  </g>
</svg>