<svg width="2075" height="1103" viewBox="0 0 2075 1103" fill="none" xmlns="http://www.w3.org/2000/svg">
<g clip-path="url(#clip0_31_2)">
<path d="M2088.12 0H0V1103H2088.12V0Z" fill="url(#paint0_linear_31_2)"/>
<g opacity="0.31">
<path style="mix-blend-mode:screen" opacity="0.49" d="M1690.46 506.201L1688.43 482.387C1688.43 482.387 1403.29 492.686 1405.13 497.383C1406.96 502.085 1465.66 501.145 1465.66 503.025C1465.66 504.906 1392.29 502.085 1390.46 505.847C1388.62 509.608 938.376 513.37 938.376 513.37L709.085 504.906L-16.9297 462.865V547.565L1060.83 559.604L1690.45 566.069V506.201H1690.46Z" fill="url(#paint1_linear_31_2)"/>
<g style="mix-blend-mode:screen" opacity="0.17">
<path d="M957.385 408.24C957.385 408.24 927.238 404.937 903.907 403.624C880.57 402.307 880.355 410.97 880.355 410.97C880.355 410.97 714.184 382.844 677.361 392.457C640.539 402.07 657.544 422.546 657.544 422.546C657.544 422.546 593.359 409.312 571.007 419.27C548.654 429.228 574.115 436.979 574.115 436.979L466.081 440.032C466.081 440.032 455.535 415.304 444.895 414.137C434.255 412.969 431.059 418.825 431.059 418.825C431.059 418.825 411.646 393.125 344.326 393.198C336.342 393.202 329.296 393.684 323.079 394.52C276.87 400.735 276.412 426.703 276.412 426.703C228.059 400.317 234.707 418.412 234.707 418.412L140.227 417.989L7.46023 394.761L106.755 405.637C106.755 405.637 98.111 396.005 48.7466 389.359C34.7013 387.469 10.508 384.262 -16.9219 380.646V414.386L73.0411 432.958C73.0411 432.958 48.4769 439.809 56.3593 449.74C64.2417 459.671 222.422 455.869 222.422 455.869C222.422 455.869 214.681 457.154 225.099 466.981C235.517 476.807 320.503 471.229 335.472 461.702C350.448 452.175 310.868 450.322 310.868 450.322C310.868 450.322 305.703 433.626 337.273 430.882C368.843 428.138 436.858 440.55 436.858 440.55C436.858 440.55 401.458 444.116 402.092 449.15C402.725 454.183 708.115 431.8 708.115 431.8C708.115 431.8 681.016 438.755 687.82 440.745C694.454 442.689 1214.75 386.056 1238.85 383.426L957.391 408.24H957.385Z" fill="white"/>
<path d="M600.79 460.212L498.582 471.31C498.582 471.31 523.045 460.384 540.88 458.931C558.715 457.477 582.53 459.235 582.53 459.235C582.53 459.235 590.595 453.643 599.725 454.133C608.854 454.624 610.85 455.691 610.85 455.691L819.271 437.46L826.405 436.879L600.79 460.216V460.212Z" fill="white"/>
<path d="M278.134 488.919L385.817 479.624L355.104 478.743C355.104 478.743 365.393 473.669 352.98 472.306C340.566 470.947 308.497 483.563 308.497 483.563C308.497 483.563 305.524 480.756 298.14 481.187C290.763 481.619 265.431 488.77 263.657 488.574C261.884 488.379 218.473 487.348 176.203 481.478C133.932 475.608 109.395 471.679 109.395 471.679C109.395 471.679 166.486 484.136 175.353 485.108C184.22 486.08 278.134 488.919 278.134 488.919Z" fill="white"/>
</g>
<path d="M1690.46 580.137C1611.43 565.831 1395.87 526.311 1369.99 516.225C1338.23 503.846 1288.32 468.769 1288.32 468.769L1270.17 442.979C1270.17 442.979 1250.51 439.885 1239.92 439.885C1229.34 439.885 1220.26 447.108 1220.26 447.108L1197.57 452.264C1197.57 452.264 1170.35 482.18 1146.15 496.622C1121.95 511.065 1049.36 526.538 1049.36 526.538C1049.36 526.538 991.889 507.971 985.834 502.81C979.785 497.654 954.075 482.176 954.075 482.176L932.902 487.332C932.902 487.332 917.664 508.998 859.493 516.216C801.323 523.44 739.315 523.44 739.315 523.44L595.511 508.262L504.887 459.479H476.149L361.204 526.488L175.176 519.31L222.059 585.334H1690.46V580.127V580.137Z" fill="url(#paint2_linear_31_2)"/>
<path opacity="0.34" d="M982.453 448.142L970.356 463.615L931.032 475.995L909.859 469.807C909.859 469.807 920.446 460.521 920.446 459.49C920.446 458.459 921.956 454.334 921.956 454.334L929.522 452.271L941.618 453.302C941.618 453.302 946.156 448.146 956.742 448.146H982.453V448.142Z" fill="url(#paint3_linear_31_2)"/>
<g style="mix-blend-mode:multiply" opacity="0.27">
<path d="M670.896 483.213L669.386 488.374L660.31 492.499L654.262 488.374L670.896 483.213Z" fill="#994C9F"/>
</g>
<g style="mix-blend-mode:multiply" opacity="0.15">
<path d="M1621.06 579.152C1621.06 579.152 1412.34 554.393 1404.78 549.236C1397.22 544.08 1359.41 529.638 1359.41 529.638L1329.16 512.102L1276.22 481.155L1264.13 466.713L1259.59 471.869L1217.24 488.374L1186.99 484.249L1179.43 479.092L1190.01 464.65C1190.01 464.65 1167.33 484.249 1162.79 486.316C1158.26 488.378 1140.1 501.789 1134.06 504.883C1128.01 507.977 1076.59 523.45 1076.59 523.45L1016.09 533.767C1016.09 533.767 988.869 518.294 987.352 517.263C985.842 516.231 979.787 507.977 978.276 506.945C976.766 505.914 964.662 498.691 964.662 498.691L958.614 489.405L941.98 493.53L932.904 490.436C932.904 490.436 923.828 499.722 916.269 502.816C908.71 505.91 869.386 518.289 869.386 518.289L842.165 519.321L541.192 495.593L504.895 462.583L489.771 466.708H476.157V462.583L429.335 486.784L365.75 536.857L1325.29 577.394L1621.07 579.152H1621.06Z" fill="#994C9F"/>
</g>
<path d="M1218.35 550.854C1299.07 541.759 1519.28 516.45 1546.48 508.095C1579.86 497.841 1634.58 466.177 1634.58 466.177L1656.34 441.69C1656.34 441.69 1676.35 439.891 1686.89 440.577C1697.43 441.267 1705.42 449.045 1705.42 449.045L1727.26 455.655C1727.26 455.655 1750.07 487.202 1772.09 503.152C1794.1 519.103 1864.14 539.228 1864.14 539.228C1864.14 539.228 1924.01 524.486 1930.77 519.748C1937.53 515.01 1965.34 501.281 1965.34 501.281L1985.68 507.791C1985.68 507.791 1997.74 530.347 2054.6 541.318C2111.46 552.289 2173.19 556.328 2173.19 556.328L2318.5 550.581L2415.69 507.922L2444.29 509.794L2549.09 583.972L4620.98 588.933L2679.14 651.595L1217.61 556.037L1218.35 550.854Z" fill="url(#paint4_linear_31_2)"/>
<g style="mix-blend-mode:multiply" opacity="0.15">
<path d="M1287.57 554.393C1287.57 554.393 1498.85 543.331 1507.12 538.692C1515.39 534.049 1555.09 522.137 1555.09 522.137L1587.71 506.65L1644.84 479.292L1658.95 465.704L1662.72 471.133L1702.51 490.318L1733.21 488.178L1741.47 483.535L1733.01 468.471C1733.01 468.471 1752.78 489.455 1757 491.804C1761.22 494.152 1777.36 508.681 1782.94 512.156C1788.51 515.632 1837.48 534.381 1837.48 534.381L1896.22 548.587C1896.22 548.587 1925.53 534.958 1927.19 534.026C1928.84 533.1 1936.05 525.277 1937.7 524.35C1939.35 523.423 1952.43 517.022 1952.43 517.022L1959.78 508.177L1975.75 513.365L1985.22 510.875C1985.22 510.875 1992.92 520.706 2000.01 524.282C2007.09 527.852 2044.46 542.735 2044.46 542.735L2071.41 545.534L2374.38 541.504L2415.24 511.012L2429.7 516.104L2443.25 516.99L2443.84 512.883L2486.98 540.019L2543.08 593.999L1582.22 571.906L1287.57 554.406V554.393Z" fill="#994C9F"/>
</g>
<g style="mix-blend-mode:multiply" opacity="0.1">
<path d="M1447.82 573.996L1357.08 555.428L1314.73 529.638L1276.92 520.352L1237.59 492.499L1242.13 516.227L1233.06 526.544L1175.58 533.763L1174.07 498.691L1180.12 484.244L1136.26 509.003L1086.35 532.732L1018.29 545.111L968.379 536.857L948.717 525.508L944.179 498.691L935.103 493.53L927.545 503.847L901.834 519.321L850.407 526.544L602.371 529.638L496.502 509.003L473.812 479.088L476.84 468.771L408.778 501.785L398.191 559.553L1447.82 573.996Z" fill="#994C9F"/>
</g>
<path d="M717.777 536.857L672.404 548.205C672.404 548.205 649.27 545.898 610.229 529.82C610.154 529.788 610.087 529.761 610.013 529.734C609.925 529.697 609.804 529.643 609.649 529.579C595.34 523.687 580.021 517.24 564.843 510.617C564.822 510.617 564.802 510.603 564.789 510.594C523.28 492.481 482.877 473.069 467.307 460.107C430.397 429.388 419.757 393.975 419.757 393.975C419.757 393.975 411.625 396.11 396.609 393.975C382.813 392.017 338.391 372.05 331.264 368.816C330.63 368.529 330.293 368.375 330.293 368.375C330.293 368.375 291.515 428.543 282.763 438.356C274.004 448.168 180.811 516.445 158.29 521.57C135.769 526.69 110.119 514.746 110.119 514.746L90.7265 519.017L57.5719 534.381L-16.9297 541.137V554.411C79.2434 555.629 413.526 563.793 413.526 563.793L418.321 564.706L607.451 557.805L656.869 563.774H711.917L765.091 563.765L717.777 536.848V536.857Z" fill="url(#paint5_linear_31_2)"/>
<path d="M331.265 368.819L333.099 375.843L333.173 375.906L354.554 393.174L356.247 387.782L381.795 398.817C381.795 398.817 389.138 395.791 393.521 396.641C396.212 397.163 403.683 396.318 409.057 395.587C410.81 395.351 412.34 395.123 413.406 394.964C414.39 394.814 414.977 394.719 414.977 394.719L442.906 443.048L437.275 441.771C437.275 441.771 458.549 462.678 469.81 469.074C476.606 472.941 526.409 494.293 564.789 510.602C523.28 492.489 482.877 473.077 467.301 460.116C430.391 429.396 419.751 393.979 419.751 393.979C419.751 393.979 417.391 394.596 412.866 394.837C408.996 395.042 403.534 394.964 396.603 393.983C390.406 393.102 378.033 388.591 365.633 383.593C350.428 377.465 335.189 370.609 331.258 368.828L331.265 368.819Z" fill="#DB8B9B"/>
<path opacity="0.34" d="M321.555 376.03C331.515 384.675 350.968 374.735 350.968 374.735C350.968 374.735 359.747 372.322 360.199 380.345C360.65 388.373 348.716 395.215 348.716 395.215C348.716 395.215 349.727 396.019 351.507 397.159C359.666 388.182 372.686 373.426 375.134 367.997C375.228 367.793 375.316 367.584 375.39 367.38C377.42 362.06 368.391 358.171 361.965 361.487C360.226 362.382 358.385 362.75 356.578 362.132C349.336 359.661 348.432 342.684 358.385 339.599C368.344 336.514 380.562 352.256 377.845 367.997C375.754 380.118 364.238 394.96 359.039 401.152C362.963 402.833 367.73 404.269 372.821 404.487C385.99 405.041 399.341 402.397 399.341 402.397C399.341 402.397 415.409 356.267 452.063 348.244C488.724 340.217 524.474 360.901 524.474 360.901C524.474 360.901 536.692 382.508 565.66 382.817C594.627 383.126 584.216 367.997 584.216 367.997C584.216 367.997 712.748 375.407 729.039 367.997C752.807 357.19 666.195 355.241 662.251 355.041C665.224 355.227 702.27 357.589 700.53 359.661C698.723 361.824 608.659 362.132 608.659 362.132C608.659 362.132 615.901 336.201 589.651 331.881C563.401 327.56 548.317 346.187 548.317 346.187C548.317 346.187 547.11 264.276 497.328 266.13C447.545 267.983 444.72 305.817 444.72 305.817C444.72 305.817 423.898 295.941 410.325 307.362C396.893 318.665 400.305 331.635 400.474 331.881C399.9 331.472 326.902 292.679 316.35 326.861C309.108 350.321 321.555 361.524 321.555 361.524C321.555 361.524 311.596 367.389 321.555 376.034V376.03Z" fill="url(#paint6_linear_31_2)"/>
<path opacity="0.42" d="M331.555 375.211C331.595 375.265 331.946 375.715 332.553 376.465C337.144 382.144 356.476 405.072 369.085 405.072C382.605 405.072 406.252 396.604 409.05 395.582C409.232 395.518 409.327 395.482 409.327 395.482C409.327 395.482 389.098 395.255 381.587 394.405C374.965 393.651 341.042 379.272 333.173 375.906C333.139 375.892 333.112 375.879 333.079 375.87C332.162 375.479 331.629 375.247 331.555 375.215V375.211Z" fill="url(#paint7_linear_31_2)"/>
<path d="M346.43 341.839C346.43 343.616 348.028 345.056 350.003 345.056C351.979 345.056 353.577 343.616 353.577 341.839C353.577 340.063 351.979 338.623 350.003 338.623C348.028 338.623 346.43 340.063 346.43 341.839Z" fill="#FF7B39"/>
<path style="mix-blend-mode:screen" opacity="0.67" d="M337.473 341.839C337.473 347.168 342.267 351.493 348.187 351.493C354.107 351.493 358.901 347.173 358.901 341.839C358.901 336.506 354.107 332.186 348.187 332.186C342.267 332.186 337.473 336.506 337.473 341.839Z" fill="url(#paint8_radial_31_2)"/>
<path style="mix-blend-mode:color-dodge" opacity="0.36" d="M348.665 348.218C352.307 348.218 355.259 345.557 355.259 342.275C355.259 338.993 352.307 336.333 348.665 336.333C345.023 336.333 342.07 338.993 342.07 342.275C342.07 345.557 345.023 348.218 348.665 348.218Z" fill="url(#paint9_radial_31_2)"/>
<g style="mix-blend-mode:multiply" opacity="0.09">
<path d="M331.546 387.582C331.546 387.582 311.533 435.374 308.404 439.64C305.276 443.906 286.51 449.03 286.51 449.03L186.905 511.07L167.041 532.667H147.648L221.692 568.839L381.908 567.68L391.294 570.665L418.522 557.822H480.016L442.513 533.762C442.513 533.762 309.416 502.815 297.319 507.971C292.943 509.834 300.347 481.15 300.347 481.15L272.047 494.96L276.423 487.278L295.903 452.438L317.797 443.474L331.553 387.577L331.546 387.582Z" fill="#994C9F"/>
</g>
<g style="mix-blend-mode:multiply" opacity="0.09">
<path d="M366.587 410.416C366.587 410.416 367.214 417.244 370.969 437.297C374.725 457.35 392.25 502.153 392.25 502.153L417.272 513.674L422.903 519.221L344.207 512.298L378.993 510.235L384.118 506.423L357.214 459.49H364.719L363.465 438.156L366.587 410.421V410.416Z" fill="#994C9F"/>
</g>
<g style="mix-blend-mode:multiply" opacity="0.09">
<path d="M340.31 438.355L331.558 472.492L314.047 499.377L327.182 470.361L340.31 438.355Z" fill="#994C9F"/>
</g>
<g style="mix-blend-mode:multiply" opacity="0.09">
<path d="M386.609 441.767C386.609 441.767 389.738 459.262 389.738 463.528C389.738 467.793 406.636 494.674 406.636 494.674V486.565L448.556 532.645L506.113 547.573L600.573 549.699L491.096 533.067L454.813 516.858L405.388 457.554L392.88 457.127L386.623 441.767H386.609Z" fill="#994C9F"/>
</g>
<path opacity="0.79" d="M110.123 516.031L136.399 523.282H130.142L92.5508 518.734L110.123 516.031Z" fill="#DB8B9B"/>
<g style="mix-blend-mode:multiply" opacity="0.26">
<path d="M-16.9297 542.703L255.879 556.128L59.4532 535.234L-16.9297 541.268V542.703Z" fill="#994C9F"/>
</g>
<path d="M331.402 377.764L334.787 391.63C334.787 391.63 347.208 399.716 347.774 399.716C348.34 399.716 352.292 401.256 352.858 402.029C353.424 402.801 353.984 405.109 353.984 405.109L356.243 403.183C356.243 403.183 359.628 403.569 361.887 404.723C364.146 405.877 378.825 408.189 378.825 408.189L385.601 403.95C385.601 403.95 385.601 405.877 386.734 405.104C387.853 404.341 412.91 395.132 413.395 394.951C412.33 395.114 410.806 395.341 409.046 395.573C406.248 396.595 382.594 405.059 369.081 405.063C356.472 405.063 337.141 382.13 332.549 376.456L331.402 377.76V377.764Z" fill="#DB8B9B"/>
<path opacity="0.49" d="M459.95 489.346C455.311 490.436 439.162 471.569 435.325 468.843C431.489 466.118 431.489 461.647 427.173 459.571C422.858 457.499 414.382 435.034 410.546 435.034C406.709 435.034 402.71 446.596 401.915 448.341C401.112 450.085 398.078 457.504 394.72 458.485C391.362 459.467 388.807 462.956 386.406 464.046C384.006 465.136 386.568 467.426 386.406 473.972C386.244 480.514 395.839 496.547 396.001 500.258C396.163 503.965 421.584 508.545 425.42 512.911C429.257 517.272 453.079 539.196 455.959 541.05C458.838 542.903 425.582 521.311 425.582 521.311C425.582 521.311 424.301 517.822 419.183 513.46C414.065 509.099 395.165 505.433 393.264 502.63C391.362 499.827 375.395 467.717 374.181 463.106C372.968 458.494 374.074 454.129 372.401 453.911C370.729 453.692 371.208 457.509 367.85 457.181C364.492 456.854 364.478 456.318 364.168 450.153C363.858 443.989 361.296 418.466 361.134 416.176C360.972 413.887 361.451 410.507 358.734 411.052C356.016 411.597 350.737 414.759 350.737 416.176C350.737 417.594 349.617 425.776 347.217 426.43C344.816 427.084 342.74 428.065 342.901 429.483C343.063 430.9 340.825 437.224 340.346 438.319C339.867 439.409 332.828 448.354 335.228 438.319C337.628 428.283 340.346 422.505 342.584 419.888C344.823 417.271 347.379 409.743 347.224 408.217C347.062 406.69 350.42 401.784 350.42 401.784L347.224 398.186L349.779 394.588C349.779 394.588 359.543 399.685 363.534 398.936C367.526 398.186 376.157 396.223 381.754 396.878C387.35 397.532 391.349 399.167 393.742 398.404C396.143 397.641 407.653 396.005 407.653 396.005C407.653 396.005 412.555 395.533 413.061 396.042C413.566 396.55 416.607 406.041 416.607 406.041L419.163 412.256C419.163 412.256 420.282 421.419 421.24 422.836C422.197 424.254 428.272 433.635 427.153 434.616C426.034 435.598 431.313 449.34 436.269 450.976C441.225 452.611 449.539 459.703 450.18 459.589C450.821 459.48 456.896 464.823 456.896 464.823L458.656 468.857C458.656 468.857 464.414 472.891 459.937 471.365C455.46 469.838 447.463 466.785 444.266 464.823C441.07 462.86 436.269 459.589 436.269 459.589L451.616 478.02L459.93 489.364L459.95 489.346Z" fill="#CE7E91"/>
<path d="M343.051 389.023C343.051 389.023 346.84 392.348 350.003 394.997C351.553 396.296 352.963 397.437 353.691 397.932C355.903 399.44 363.933 403.133 363.933 403.133C363.933 403.133 430.789 349.181 449.062 343.974C461.415 340.458 505.439 336.815 532.653 334.82C545.687 333.866 554.864 333.294 554.864 333.294L551.249 304.123C551.249 304.123 551.04 300.711 548.66 296.482C548.296 295.828 547.878 295.155 547.393 294.469C542.376 287.296 530.852 279.028 504.468 280.708C495.486 281.281 488.44 283.239 482.917 286.01C474.219 290.371 469.297 296.745 466.526 302.897C466.458 303.042 466.398 303.192 466.33 303.337C460.936 301.234 454.429 302.047 448.954 303.555C442.636 305.291 437.693 307.948 437.424 308.089C437.525 308.012 438.246 307.44 438.61 306.499C439.561 304.028 437.976 299.008 415.732 293.856C409.002 292.298 403.217 292.498 398.281 293.774C380.265 298.44 373.609 317.466 373.609 317.466C373.609 317.466 373.603 317.457 373.589 317.443C373.016 316.88 361.385 305.836 347.879 319.188C346.544 320.505 345.573 321.859 344.898 323.231C338.58 336.115 358.917 350.548 358.917 350.548L358.633 351.234L343.058 389.018L343.051 389.023Z" fill="url(#paint10_linear_31_2)"/>
<path style="mix-blend-mode:multiply" opacity="0.27" d="M358.907 351.234L349.999 394.997C351.55 396.296 352.959 397.436 353.688 397.931C353.957 398.113 354.308 398.327 354.719 398.563L376.067 354.864C376.067 354.864 360.714 343.293 380.592 340.417C400.469 337.541 387.82 352.192 387.82 352.192L402.074 345.482C401.852 345.637 387.732 355.441 375.98 367.938C366.425 378.097 357.787 393.157 354.8 398.604C357.828 400.321 363.93 403.133 363.93 403.133C363.93 403.133 430.785 349.18 449.058 343.974C461.411 340.458 505.435 336.814 532.649 334.82L535.387 333.43L548.657 296.481L550.241 292.075C550.181 292.129 549.169 293.051 547.396 294.469C539.844 300.507 518.408 315.571 497.243 311.382C471.04 306.199 482.827 286.16 482.914 286.01C474.216 290.371 469.294 296.745 466.522 302.892C466.522 302.892 466.684 303.141 466.927 303.578C468.215 305.922 471.66 313.568 463.212 315.639C461.222 316.125 458.573 316.307 455.08 316.035C434.002 314.39 448.957 303.55 448.957 303.55C442.639 305.286 437.697 307.943 437.427 308.084C437.528 308.007 438.25 307.435 438.614 306.494L437.42 308.089C437.42 308.089 419.552 324.385 398.271 313.977C386.721 308.33 387.429 298.912 398.285 293.765C380.268 298.43 373.613 317.456 373.613 317.456C373.613 317.456 373.606 317.447 373.593 317.434C373.943 318.292 380.693 335.161 368.562 338.899C356.115 342.734 346.075 333.421 344.47 328.219C344.059 326.883 344.308 325.116 344.909 323.226C338.59 336.11 358.927 350.543 358.927 350.543L358.644 351.229H358.927L358.907 351.234ZM429.578 316.039C439.214 314.258 439.416 319.187 439.416 319.187L437.414 322.195C437.434 322.086 437.892 319.723 432.592 319.187C427.212 318.642 420.024 317.806 429.578 316.039ZM407.091 330.145C411.71 331.376 408.696 337.405 405.082 337.405C405.082 337.405 401.265 337.677 398.453 337.405C395.642 337.132 393.632 335.079 393.437 333.298C393.234 331.517 402.472 328.914 407.091 330.15V330.145ZM394.239 319.192C409.094 320.559 404.279 328.092 404.279 328.092C403.477 330.145 386.208 329.459 383.599 327.542C380.989 325.625 379.385 317.82 394.239 319.187V319.192Z" fill="url(#paint11_linear_31_2)"/>
<path d="M363.863 404.296L365.09 404.523L374.942 406.322C374.942 406.322 412.317 355.677 488.478 348.249C535.617 343.652 623.072 343.447 682.874 343.961C719.696 344.274 746.034 344.86 746.034 344.86L711.416 342.162C711.416 342.162 692.489 313.154 669.867 313.804C646.692 314.472 627.556 328.224 626.955 328.651C627.731 327.924 673.744 284.447 592.317 282.071C583.478 281.812 575.467 282.226 568.198 283.143H568.185C547.026 285.81 532.245 292.743 522.239 299.825C508.74 309.379 503.939 319.201 503.939 319.201C503.939 319.201 488.471 311.11 476.017 319.215C473.293 320.982 471.101 322.813 469.342 324.598C469.342 324.603 469.328 324.607 469.328 324.612C463.017 330.999 462.174 336.769 462.174 336.769C462.174 336.769 461.776 336.505 460.987 336.124C457.623 334.488 447.164 330.749 430.321 336.774C430.166 336.828 430.017 336.883 429.855 336.942C428.858 337.332 427.799 337.837 426.7 338.445L426.68 338.454C425.594 339.054 424.468 339.749 423.301 340.54C400.753 355.786 363.877 404.296 363.877 404.296H363.863Z" fill="url(#paint12_linear_31_2)"/>
<path opacity="0.74" d="M880.906 353.151C882.356 353.151 1055.6 354.968 1019.29 354.614C982.979 354.26 980.073 339.386 959.737 342.575C946.986 344.574 946.662 350.366 946.662 350.366C946.662 350.366 945.934 348.594 941.578 347.886C932.624 346.432 924.876 351.779 924.876 351.779L880.906 353.146V353.151Z" fill="url(#paint13_linear_31_2)"/>
<path style="mix-blend-mode:multiply" opacity="0.12" d="M363.863 404.261L376.176 409.295C408.433 374.659 440.246 368.208 451.264 364.242C506.973 344.175 574.604 341.722 574.604 341.722L682.86 343.921C682.86 343.921 672.726 324.745 647.4 327.216C622.471 329.647 603.679 335.666 603.099 335.857C603.706 335.503 628.243 321.306 615.115 317.648C601.818 313.946 592.324 319.193 592.324 319.193C592.324 319.193 624.42 280.691 568.185 283.113H568.171C547.012 285.779 532.232 292.712 522.226 299.794C507.54 312.956 504.964 329.07 504.964 329.07C504.964 329.07 497.999 315.795 480.906 319.193C476.037 320.161 472.254 322.173 469.321 324.567C469.321 324.572 469.308 324.577 469.308 324.581C464.655 328.379 462.174 333.122 460.974 336.093C460.279 337.819 460.016 338.951 460.016 338.951C460.016 338.951 449.255 346.36 433.429 341.731C429.673 340.632 428.878 338.905 429.849 336.915C429.957 336.688 430.098 336.452 430.253 336.216L426.686 338.415L426.666 338.424L423.288 340.509C400.74 355.755 363.863 404.265 363.863 404.265V404.261Z" fill="url(#paint14_linear_31_2)"/>
<path d="M392.304 405.096C393.214 404.296 396.707 401.23 401.845 397.082C409.121 391.208 419.7 383.158 430.907 376.298C431.494 378.033 432.545 379.433 433.914 380.541C440.017 385.502 452.275 384.639 456.287 381.904C457.231 381.263 457.845 380.618 458.215 379.987C459.969 377.034 456.388 374.444 456.287 374.372C456.483 374.463 468.505 380.173 481.876 380.746C486.926 380.964 492.172 380.446 497.041 378.615C506.811 374.944 507.276 369.97 505.699 366.212C519.245 369.193 530.883 372.532 536.945 371.873C549.203 370.542 542.703 365.295 542.487 365.122C543.519 365.218 639.18 374.076 639.409 357.69C639.564 346.964 623.395 344.261 607.576 344.174C592.519 344.093 577.786 346.387 577.786 346.387C577.786 346.387 589.566 338.786 578.487 336.088C567.51 333.416 556.546 338.691 556.337 338.791C556.384 338.727 557.996 336.746 558.967 334.316C560.552 330.382 560.464 325.284 549.406 325.284C541.456 325.284 534.585 327.392 529.393 329.75C528.321 330.232 527.323 330.727 526.406 331.218C524.14 332.417 522.333 333.585 521.065 334.475C519.683 335.447 518.941 336.092 518.941 336.092C518.941 336.092 518.975 335.833 518.989 335.374C519.13 331.731 518.571 315.572 496.994 319.946C494.836 320.383 492.462 321.028 489.86 321.914C458.02 332.721 476.023 347.572 476.023 347.572C476.023 347.572 418.547 326.08 377.794 400.667C368.354 417.948 394.3 403.133 392.318 405.096H392.304Z" fill="url(#paint15_linear_31_2)"/>
<path style="mix-blend-mode:multiply" opacity="0.2" d="M501.802 351.328C501.802 351.328 498.005 342.374 518.895 342.683C539.528 342.987 532.994 352.019 532.826 352.251C533.115 352.073 540.492 347.649 544.214 348.857C548.01 350.093 544.214 352.251 544.214 352.251C544.214 352.251 561.307 356.262 591.063 355.953C620.813 355.644 625.951 345.055 607.57 344.173C592.513 344.091 577.78 346.386 577.78 346.386C577.78 346.386 589.56 338.785 578.481 336.087C567.403 333.388 556.331 338.79 556.331 338.79C556.331 338.79 557.976 336.782 558.968 334.315C552.157 336.686 542.043 339.08 534.734 335.891C530.641 334.106 529.333 331.893 529.4 329.749C529.4 329.313 529.474 328.877 529.589 328.454C528.665 329.372 527.607 330.308 526.413 331.217C524.869 332.389 523.096 333.506 521.073 334.474C520.405 334.792 519.717 335.096 518.996 335.373C516.38 336.396 513.406 337.141 510.041 337.436C492.315 338.981 489.786 327.559 489.786 324.779C489.786 323.312 493.495 321.413 496.994 319.945C494.836 320.386 492.463 321.031 489.86 321.912C458.02 332.72 476.024 347.571 476.024 347.571L501.815 351.328H501.802Z" fill="url(#paint16_linear_31_2)"/>
<path opacity="0.34" d="M706.426 349.662C707.538 349.73 729.392 351.061 758.582 352.138C796.031 353.51 845.551 354.459 878.881 351.756C878.921 351.756 879.015 351.747 879.191 351.733C882.481 351.461 885.617 351.156 888.563 350.811C904.207 348.976 914.55 346.041 915.487 341.534C919.803 320.727 862.435 304.491 843.73 308.752C825.019 313.013 819.78 328.15 824.405 330.708C829.031 333.266 835.612 333.466 835.612 333.466L812.383 334.37C812.383 334.37 803.644 325.248 791.514 329.709C779.383 334.175 800.354 338.032 793.058 343.447C785.755 348.858 760.584 352.119 706.439 349.666L706.426 349.662Z" fill="url(#paint17_linear_31_2)"/>
<g style="mix-blend-mode:multiply" opacity="0.08">
<path d="M758.582 352.138C796.032 353.51 845.551 354.459 878.881 351.756C878.922 351.756 879.016 351.747 879.191 351.733C880.284 351.661 884.093 351.379 888.564 350.811C898.772 349.503 912.352 346.686 904.416 341.366C892.488 333.366 843.663 341.203 842.645 341.366C843.097 341.189 852.989 337.305 844.89 336.228C836.603 335.124 814.75 342.475 814.75 342.475C814.75 342.475 797.421 350.557 768.791 351.661C765.345 351.793 761.933 351.961 758.582 352.147V352.138Z" fill="#283B91"/>
</g>
<path opacity="0.5" d="M399.031 395.992C399.031 395.992 397.271 397.845 392.632 395.992C387.993 394.138 387.353 387.246 384.237 386.71C381.122 386.174 380.825 391.68 380.09 391.762C379.356 391.844 374.723 379.087 369.605 379.632C364.488 380.177 366.335 393.534 363.813 394.106C361.291 394.679 361.163 391.349 358.749 391.435C356.335 391.521 355.533 394.138 355.533 394.138C355.533 394.138 354.097 378.869 349.937 379.632C345.776 380.395 352.472 392.266 352.087 393.856C351.696 395.446 347.812 392.88 347.812 392.88C347.812 392.88 355.857 400.789 361.453 402.533C367.05 404.278 386.24 401.77 386.24 401.77L399.415 398.895L406.684 396.428L399.031 395.992Z" fill="#FF7B39"/>
<path d="M407.819 396.023C407.819 396.023 402.068 398.604 399.189 398.168C396.309 397.732 392.473 399.585 392.473 399.585L390.072 401.003C390.072 401.003 377.281 400.566 372.325 400.675C367.369 400.785 364.874 402.302 364.874 402.302H362.508L354.565 398.572C354.565 398.572 352.016 399.581 351.058 400.017C350.101 400.453 353.762 401.793 353.371 403.088C352.98 404.383 353.776 408.526 351.375 411.034C348.975 413.541 347.215 415.177 347.215 416.158V419.429C347.215 419.429 351.375 411.688 352.494 411.361C353.614 411.034 355.691 406.781 355.852 406.018C356.014 405.255 358.091 404.165 358.091 404.165C358.091 404.165 365.764 407.545 366.088 409.834C366.405 412.124 366.149 414.286 366.122 414.513C366.095 414.741 365.771 429.683 365.292 432.735C364.814 435.788 372.325 446.587 372.325 446.587C372.325 446.587 368.488 431.1 368.488 428.483C368.488 425.866 370.248 410.815 372.325 409.398C374.402 407.981 375.966 407.722 375.966 407.722L385.278 408.744C385.278 408.744 388.953 407.108 393.113 404.71C397.274 402.311 404.145 401.548 404.145 401.548C404.145 401.548 410.22 408.526 411.339 409.834C412.459 411.143 415.628 416.69 414.846 419.043C414.057 421.396 421.258 430.559 421.258 430.559L418.541 420.851L415.183 411.906C415.183 411.906 416.464 408.744 416.464 408.199C416.464 407.654 409.269 399.694 409.269 399.694L407.826 396.023H407.819Z" fill="#FF7B39"/>
<path d="M427.176 444.737L429.893 449.321L438.207 455.318L445.564 459.57L441.727 455.1L435.328 451.393L427.176 444.737Z" fill="#FF7B39"/>
<path d="M376.008 455.101L376.648 465.572L379.683 471.678L383.014 477.234L376.008 455.101Z" fill="#FF7B39"/>
<path d="M366.73 442.885L368.335 446.047L369.131 448.45L367.85 453.902L366.73 442.885Z" fill="#FF7B39"/>
<path d="M344.189 419.002V423.799L341.626 430.014L338.113 433.862L344.189 419.002Z" fill="#FF7B39"/>
<path d="M391.682 408.203C391.682 408.203 387.845 408.966 387.521 410.602C387.204 412.237 386.402 416.599 386.402 416.599L389.119 422.813L386.564 429.464L384.244 419.029L384.325 413.546L381.77 410.384L391.682 408.203Z" fill="#FF7B39"/>
<path d="M385.281 444.737L386.401 448.449V453.901L389.091 457.135L387.581 447.404L385.281 444.737Z" fill="#FF7B39"/>
<path d="M407.663 432.636L400.947 437.542V439.723L396.949 449.976L391.676 457.173L399.666 450.085L402.067 439.723L407.663 432.636Z" fill="#FF7B39"/>
<path d="M409.262 412.237L410.381 418.893L407.664 424.781V428.488L410.381 424.781L413.422 422.818L409.262 412.237Z" fill="#FF7B39"/>
<path style="mix-blend-mode:screen" opacity="0.67" d="M378.368 412.678C392.534 412.678 404.018 406.281 404.018 398.39C404.018 390.499 392.534 384.103 378.368 384.103C364.203 384.103 352.719 390.499 352.719 398.39C352.719 406.281 364.203 412.678 378.368 412.678Z" fill="url(#paint18_radial_31_2)"/>
<path style="mix-blend-mode:screen" opacity="0.67" d="M404.408 391.531C400.794 392.33 400.045 397.564 402.736 403.216C405.426 408.867 410.544 412.801 414.158 412.002C417.772 411.202 418.521 405.969 415.83 400.317C413.14 394.666 408.022 390.731 404.408 391.531Z" fill="url(#paint19_radial_31_2)"/>
<path style="mix-blend-mode:screen" opacity="0.67" d="M380.428 403.31C376.813 404.11 376.065 409.343 378.755 414.995C381.446 420.646 386.564 424.581 390.178 423.781C393.792 422.981 394.54 417.748 391.85 412.096C389.16 406.445 384.042 402.511 380.428 403.31Z" fill="url(#paint20_radial_31_2)"/>
<path style="mix-blend-mode:screen" opacity="0.67" d="M382.818 479.35C384.632 479.078 383.911 472.009 381.2 463.559C378.49 455.109 374.821 448.476 373.008 448.744C371.194 449.017 371.915 456.086 374.626 464.536C377.337 472.986 381.005 479.618 382.818 479.35Z" fill="url(#paint21_radial_31_2)"/>
<path style="mix-blend-mode:color-dodge" opacity="0.42" d="M376.886 406.69C391.235 406.69 402.867 403.977 402.867 400.63C402.867 397.283 391.235 394.569 376.886 394.569C362.538 394.569 350.906 397.283 350.906 400.63C350.906 403.977 362.538 406.69 376.886 406.69Z" fill="url(#paint22_radial_31_2)"/>
<path d="M355.643 398.39C355.643 398.39 354.416 378.214 349.939 379.632C345.462 381.049 352.568 394.192 351.975 394.274C351.382 394.356 347.484 392.602 347.484 392.602C347.484 392.602 352.845 398.199 354.672 398.894C356.5 399.589 355.643 398.39 355.643 398.39Z" fill="#FF7B39"/>
<path d="M371.686 390.1C371.686 390.1 375.206 378.756 370.405 379.519C365.611 380.283 368.645 390.318 368.166 390.754C367.687 391.19 367.634 389.882 366.46 390.754C365.287 391.626 370.263 396.851 370.263 396.851L371.686 390.1Z" fill="#FF7B39"/>
<path style="mix-blend-mode:multiply" opacity="0.12" d="M401.441 397.227L401.846 397.082C409.122 391.207 419.701 383.157 430.908 376.297C431.494 378.033 432.546 379.432 433.915 380.54C431.75 377.406 430.813 373.349 439.424 372.454C453.88 370.946 458.216 379.986 458.216 379.986C459.969 377.033 456.389 374.444 456.288 374.371C456.483 374.462 468.506 380.172 481.877 380.745C481.135 380.481 480.238 380.222 479.173 379.986C466.928 377.247 455.883 360.678 476.766 357.803C497.648 354.927 505.679 366.157 505.679 366.157C504.276 351.506 467.933 352.601 467.933 352.601C467.933 352.601 470.144 347.258 453.564 347.39H453.557C452.181 347.399 450.92 347.499 449.774 347.672C437.057 349.557 437.421 360.27 437.421 360.27C437.421 360.27 428.184 354.927 419.532 360.801C410.881 366.671 420.355 374.239 420.355 374.239L401.448 397.231L401.441 397.227Z" fill="url(#paint23_linear_31_2)"/>
<path style="mix-blend-mode:color-dodge" opacity="0.67" d="M381.842 404.495C393.189 404.495 402.388 398.22 402.388 390.48C402.388 382.74 393.189 376.465 381.842 376.465C370.495 376.465 361.297 382.74 361.297 390.48C361.297 398.22 370.495 404.495 381.842 404.495Z" fill="url(#paint24_radial_31_2)"/>
<path style="mix-blend-mode:color-dodge" opacity="0.28" d="M351.627 354C362.974 354 372.173 347.725 372.173 339.985C372.173 332.245 362.974 325.97 351.627 325.97C340.281 325.97 331.082 332.245 331.082 339.985C331.082 347.725 340.281 354 351.627 354Z" fill="url(#paint25_radial_31_2)"/>
<path style="mix-blend-mode:color-dodge" opacity="0.67" d="M353.303 404.169C360.014 404.169 365.454 397.894 365.454 390.154C365.454 382.413 360.014 376.139 353.303 376.139C346.592 376.139 341.152 382.413 341.152 390.154C341.152 397.894 346.592 404.169 353.303 404.169Z" fill="url(#paint26_radial_31_2)"/>
<path d="M353.493 371.746C353.998 373.672 355.253 375.131 356.298 375.003C357.343 374.876 357.774 373.209 357.269 371.283C356.763 369.356 355.509 367.898 354.464 368.025C353.419 368.153 352.987 369.82 353.493 371.746Z" fill="#FF7B39"/>
<path style="mix-blend-mode:screen" opacity="0.67" d="M355.462 381.159C363.278 381.159 369.615 376.837 369.615 371.505C369.615 366.174 363.278 361.852 355.462 361.852C347.645 361.852 341.309 366.174 341.309 371.505C341.309 376.837 347.645 381.159 355.462 381.159Z" fill="url(#paint27_radial_31_2)"/>
<path style="mix-blend-mode:color-dodge" opacity="0.36" d="M352.537 372.251C353.441 375.69 355.464 378.32 357.055 378.125C358.646 377.929 359.213 374.985 358.309 371.546C357.406 368.107 355.383 365.477 353.792 365.672C352.193 365.868 351.634 368.812 352.537 372.251Z" fill="url(#paint28_radial_31_2)"/>
<path d="M367.57 374.181C367.57 376.03 368.433 377.524 369.499 377.524C370.564 377.524 371.427 376.025 371.427 374.181C371.427 372.336 370.564 370.837 369.499 370.837C368.433 370.837 367.57 372.336 367.57 374.181Z" fill="#FF7B39"/>
<path style="mix-blend-mode:screen" opacity="0.67" d="M363.256 373.731C362.912 378.597 365.285 382.749 368.562 382.999C371.839 383.249 374.779 379.505 375.123 374.64C375.467 369.774 373.094 365.622 369.817 365.372C366.54 365.122 363.6 368.866 363.249 373.731H363.256Z" fill="url(#paint29_radial_31_2)"/>
<path d="M365.613 363.246C365.613 364.051 366.261 364.705 367.05 364.705C367.838 364.705 368.486 364.051 368.486 363.246C368.486 362.442 367.838 361.788 367.05 361.788C366.261 361.788 365.613 362.442 365.613 363.246Z" fill="#FF7B39"/>
<path style="mix-blend-mode:color-dodge" opacity="0.47" d="M358.898 363.654C358.898 368.443 362.728 372.327 367.455 372.327C372.182 372.327 376.012 368.447 376.012 363.654C376.012 358.862 372.182 354.986 367.455 354.986C362.728 354.986 358.898 358.866 358.898 363.654Z" fill="url(#paint30_radial_31_2)"/>
<path d="M391.68 334.892C391.68 335.696 392.327 336.35 393.116 336.35C393.905 336.35 394.552 335.696 394.552 334.892C394.552 334.088 393.905 333.434 393.116 333.434C392.327 333.434 391.68 334.088 391.68 334.892Z" fill="#FF7B39"/>
<path style="mix-blend-mode:color-dodge" opacity="0.47" d="M384.965 335.297C384.965 340.085 388.795 343.965 393.521 343.965C398.248 343.965 402.078 340.085 402.078 335.297C402.078 330.509 398.248 326.629 393.521 326.629C388.795 326.629 384.965 330.509 384.965 335.297Z" fill="url(#paint31_radial_31_2)"/>
<path d="M398.788 358.698C398.552 359.161 398.728 359.625 399.186 359.734C399.645 359.843 400.204 359.557 400.447 359.093C400.683 358.63 400.508 358.166 400.049 358.057C399.591 357.948 399.031 358.235 398.788 358.698Z" fill="#FF7B39"/>
<path style="mix-blend-mode:color-dodge" opacity="0.47" d="M394.803 358.008C393.394 360.765 394.453 363.527 397.177 364.173C399.901 364.822 403.245 363.109 404.661 360.352C406.071 357.594 405.012 354.832 402.288 354.187C399.564 353.542 396.219 355.25 394.803 358.008Z" fill="url(#paint32_radial_31_2)"/>
<path d="M407.347 344.792C407.26 344.96 407.327 345.128 407.489 345.169C407.657 345.21 407.86 345.106 407.947 344.938C408.035 344.77 407.968 344.602 407.806 344.561C407.637 344.52 407.435 344.624 407.347 344.792Z" fill="#FF7B39"/>
<path style="mix-blend-mode:color-dodge" opacity="0.47" d="M405.907 344.543C405.394 345.543 405.778 346.547 406.77 346.783C407.761 347.019 408.975 346.397 409.487 345.397C409.999 344.398 409.615 343.394 408.624 343.158C407.633 342.921 406.419 343.544 405.907 344.543Z" fill="url(#paint33_radial_31_2)"/>
<path d="M374.428 379.16C374.3 379.478 374.455 379.787 374.772 379.846C375.089 379.905 375.446 379.691 375.574 379.369C375.702 379.051 375.547 378.742 375.23 378.683C374.913 378.624 374.556 378.837 374.428 379.16Z" fill="#FF7B39"/>
<path style="mix-blend-mode:color-dodge" opacity="0.47" d="M371.691 378.832C370.942 380.735 371.859 382.557 373.74 382.902C375.622 383.247 377.746 381.98 378.494 380.076C379.243 378.173 378.325 376.351 376.451 376.006C374.57 375.661 372.446 376.928 371.697 378.832H371.691Z" fill="url(#paint34_radial_31_2)"/>
<path d="M343.79 361.106C343.865 361.279 344.06 361.388 344.229 361.351C344.397 361.315 344.471 361.152 344.397 360.979C344.323 360.806 344.128 360.697 343.959 360.734C343.79 360.77 343.716 360.933 343.79 361.106Z" fill="#FF7B39"/>
<path style="mix-blend-mode:color-dodge" opacity="0.47" d="M342.406 361.478C342.851 362.496 344.024 363.155 345.029 362.95C346.033 362.746 346.485 361.755 346.04 360.738C345.595 359.72 344.422 359.061 343.417 359.266C342.412 359.47 341.961 360.461 342.406 361.478Z" fill="url(#paint35_radial_31_2)"/>
<path d="M327.158 323.258C327.232 323.431 327.427 323.54 327.596 323.504C327.764 323.467 327.839 323.304 327.764 323.131C327.69 322.959 327.495 322.85 327.326 322.886C327.158 322.922 327.083 323.086 327.158 323.258Z" fill="#FF7B39"/>
<path style="mix-blend-mode:color-dodge" opacity="0.47" d="M325.769 323.635C326.214 324.653 327.387 325.312 328.392 325.107C329.397 324.903 329.848 323.913 329.403 322.895C328.958 321.877 327.785 321.219 326.78 321.423C325.776 321.627 325.324 322.618 325.769 323.635Z" fill="url(#paint36_radial_31_2)"/>
<path d="M435.888 323.149C435.962 323.322 436.158 323.431 436.326 323.394C436.495 323.358 436.569 323.194 436.495 323.022C436.421 322.849 436.225 322.74 436.057 322.777C435.888 322.813 435.814 322.976 435.888 323.149Z" fill="#FF7B39"/>
<path style="mix-blend-mode:color-dodge" opacity="0.47" d="M434.499 323.526C434.944 324.544 436.118 325.202 437.122 324.998C438.127 324.794 438.579 323.803 438.134 322.785C437.689 321.768 436.516 321.109 435.511 321.314C434.506 321.518 434.054 322.508 434.499 323.526Z" fill="url(#paint37_radial_31_2)"/>
<path d="M375.656 370.678C375.609 370.855 375.71 371.014 375.879 371.037C376.054 371.06 376.229 370.937 376.277 370.76C376.324 370.583 376.223 370.424 376.054 370.401C375.879 370.378 375.703 370.501 375.656 370.678Z" fill="#FF7B39"/>
<path style="mix-blend-mode:color-dodge" opacity="0.47" d="M374.175 370.578C373.885 371.619 374.485 372.573 375.516 372.705C376.548 372.836 377.613 372.1 377.897 371.055C378.186 370.015 377.586 369.061 376.555 368.929C375.523 368.798 374.458 369.534 374.175 370.578Z" fill="url(#paint38_radial_31_2)"/>
<path d="M397.597 392.13C397.516 392.298 397.583 392.466 397.752 392.507C397.92 392.544 398.123 392.439 398.203 392.271C398.284 392.103 398.217 391.935 398.048 391.894C397.88 391.858 397.678 391.962 397.597 392.13Z" fill="#FF7B39"/>
<path style="mix-blend-mode:color-dodge" opacity="0.47" d="M396.147 391.894C395.655 392.898 396.059 393.897 397.051 394.124C398.042 394.351 399.249 393.72 399.741 392.711C400.233 391.707 399.829 390.708 398.837 390.481C397.846 390.254 396.639 390.885 396.147 391.894Z" fill="url(#paint39_radial_31_2)"/>
<path d="M340.191 321.804C340.191 322.608 340.839 323.262 341.628 323.262C342.417 323.262 343.064 322.608 343.064 321.804C343.064 321 342.417 320.346 341.628 320.346C340.839 320.346 340.191 321 340.191 321.804Z" fill="#FF7B39"/>
<path style="mix-blend-mode:screen" opacity="0.67" d="M342.033 330.88C346.759 330.88 350.59 326.998 350.59 322.208C350.59 317.418 346.759 313.535 342.033 313.535C337.308 313.535 333.477 317.418 333.477 322.208C333.477 326.998 337.308 330.88 342.033 330.88Z" fill="url(#paint40_radial_31_2)"/>
<path d="M396.655 382.013C396.224 382.762 396.48 383.53 397.222 383.73C397.963 383.925 398.907 383.48 399.339 382.726C399.77 381.976 399.514 381.209 398.772 381.009C398.031 380.813 397.087 381.259 396.655 382.013Z" fill="#FF7B39"/>
<path style="mix-blend-mode:color-dodge" opacity="0.47" d="M390.184 380.727C387.635 385.188 389.132 389.754 393.535 390.926C397.938 392.098 403.575 389.432 406.124 384.97C408.673 380.509 407.176 375.943 402.773 374.771C398.37 373.599 392.733 376.266 390.184 380.727Z" fill="url(#paint41_radial_31_2)"/>
<g style="mix-blend-mode:multiply" opacity="0.14">
<path d="M740.47 560.586L723.836 544.081L717.787 536.857C717.787 536.857 679.974 549.237 675.442 550.268C670.904 551.3 649.732 548.206 649.732 548.206L604.359 546.143L634.608 564.711L740.477 560.586H740.47Z" fill="#994C9F"/>
</g>
<path d="M1098.14 568.816L1096.19 567.662L1087.83 562.742L1040.73 556.668L1017.2 545.733L924.472 536.006L915.639 532.354L902.389 521.419L879.915 509.825L878.857 509.266L817.045 527.506L797.916 529.932L753.75 551.811L714.352 554.905L661.353 559.071L661.184 559.094L661.036 559.103L659.586 558.599L625.724 546.941V543.298L609.069 541.576L602.157 540.863L593.324 536.002L572.314 530.214L571.255 529.923L546.239 543.293H546.226V549.367L516.793 556.659L452.028 559.094L439.716 558.194L418.179 556.659C418.179 556.659 417.545 556.3 416.547 555.773C413.931 554.369 408.968 551.802 407.896 551.802C407.141 551.802 402.967 552.743 399.05 553.67C395.253 554.569 391.7 555.446 391.7 555.446L371.1 556.663L298.183 555.014L263.653 554.228L255.757 551.971L225.388 543.293L182.706 489.813L175.356 478.869L119.424 471.587L70.8621 455.781L60.5455 443.629L27.0741 412.382L26.6965 412.032L7.56705 421.75L-15.9789 441.207H-16.9297V582.618L62.0155 578.538L267.915 579.846L515.788 581.423L1313.68 587.892V574.522L1098.14 568.816Z" fill="url(#paint42_linear_31_2)"/>
<g style="mix-blend-mode:multiply" opacity="0.16">
<path d="M17.8769 422.972L26.71 412.032L7.57379 421.754L-15.9722 441.203H-16.9297V501.925L7.57379 492.248L11.9904 494.679L17.8769 488.6L7.57379 469.156L10.5204 443.633L17.8769 422.972Z" fill="#BB5BA4"/>
</g>
<g style="mix-blend-mode:multiply" opacity="0.16">
<path d="M262.534 573.996L402.461 609.349L643.666 575.027L655.763 562.647L630.052 554.392L625.696 554.229L604.342 545.111L593.317 550.59L569.771 548.155L571.255 546.937H562.421V544.511L572.313 530.215L571.255 529.924L546.239 543.294V549.368H546.225L516.793 556.659L439.722 558.195L416.675 557.691C416.675 557.691 416.041 557.332 415.043 556.805C412.427 555.401 407.464 552.834 406.392 552.834C405.637 552.834 402.973 552.743 399.056 553.67C395.26 554.57 391.706 555.446 391.706 555.446L371.107 556.664L298.19 555.015L259.52 558.522L262.547 573.996H262.534Z" fill="#BB5BA4"/>
</g>
<g style="mix-blend-mode:multiply" opacity="0.16">
<path d="M902.295 581.218L852.385 565.74L874.38 551.653L890.879 550.517L867.509 548.236V538.001L852.398 550.517L850.072 552.87L828.185 540.986L849.404 522.632L867.071 517.771L878.837 509.262L814.578 531.7L797.896 529.923L755.591 553.365L716.267 556.459L670.894 559.553L634.598 581.218H902.295Z" fill="#BB5BA4"/>
</g>
<g style="mix-blend-mode:multiply" opacity="0.16">
<path d="M234.182 566.021L224.729 560.583L217.163 549.235L215.484 544.828L212.733 548.231L214.945 560.32H168.21L151.724 544.392L150.348 519.364L133.984 504.872L146.08 521.377L146.229 535.292L140.726 543.256L150.348 564.881L137.975 570.564L124.24 548.953L114.618 535.297V519.369L107.734 534.161L110.485 543.261L93.0141 552.856L98.4016 533.234L94.275 517.307L73.4801 498.685L78.018 510.033L74.9905 517.257L61.0125 527.337L54.1483 536.437L39.0242 544.401C39.0242 544.401 31.661 552.583 24.1427 561.619L11.9247 536.201L10.0165 530.349L39.0848 517.847L50.2307 493.955L47.3853 488.872L35.6662 459.492L37.1766 482.189L29.7056 490.598L26.4218 505.177L-0.684422 525.438L-16.9414 533.13V595.932L4.10974 611.206L20.0835 583.703L67.8768 585.374V579.369L87.1141 583.094L291.881 585.374L234.169 566.03L234.182 566.021Z" fill="#BB5BA4"/>
</g>
<g style="mix-blend-mode:multiply" opacity="0.16">
<path d="M1006.37 547.71L947.272 549.986L904.671 560.226L871.691 562.502L904.671 552.262L908.797 542.022L914.293 537.47L929.41 542.022H939.025V545.434H943.152L948.647 544.298L952.767 545.434H962.389L1006.37 547.71Z" fill="#BB5BA4"/>
</g>
<g style="mix-blend-mode:multiply" opacity="0.16">
<path d="M1040.86 556.918L1021.63 558.054L974.906 567.154L947.422 572.842L881.457 576.253L892.448 572.842L903.439 570.565L908.934 566.013L939.169 569.425L959.782 567.149C959.782 567.149 969.404 562.597 970.773 562.597C972.142 562.597 987.266 561.461 987.266 561.461L1023 555.773L1040.86 556.909L1040.86 556.918Z" fill="#BB5BA4"/>
</g>
<g style="mix-blend-mode:multiply" opacity="0.16">
<path d="M1205.74 585.83C1204.4 585.358 1142.55 578.534 1142.55 578.534L1130.18 579.67L1098.57 581.946L1076.58 577.394L1093.08 571.706L1060.1 578.534C1060.1 578.534 1046.36 577.398 1043.61 577.398C1040.85 577.398 1011.99 581.951 1002.38 583.086C992.758 584.222 958.727 584.245 958.727 584.245L1205.74 585.835L1205.74 585.83Z" fill="#BB5BA4"/>
</g>
<path opacity="0.79" d="M879.91 509.815L886.943 515.14L900.786 521.382L914.292 533.984L922.538 537.732L1016.12 547.009L1040.86 557.322L1086.21 563.882L1096.19 567.662L1087.83 562.741L1040.73 556.667L1017.19 545.728L924.474 535.997L915.64 532.349L902.391 521.414L879.91 509.815Z" fill="url(#paint43_linear_31_2)"/>
<path style="mix-blend-mode:color-dodge" opacity="0.55" d="M661.345 559.066L661.184 559.085L661.568 559.198L661.345 559.066Z" fill="url(#paint44_linear_31_2)"/>
<g style="mix-blend-mode:screen" opacity="0.86">
<path d="M609.07 541.576L624.464 544.197V547.95L659.588 558.599L625.712 546.937V543.289L609.07 541.576Z" fill="#FF8AE9"/>
</g>
<path opacity="0.79" d="M27.082 412.377L37.6615 426.092L54.1545 442.029L59.6499 448.589L70.6408 457.026L107.747 472.022L117.369 472.958L162.714 479.523L175.087 481.394L220.433 544.197L255.765 551.97L225.396 543.288L182.714 489.813L175.357 478.873L119.425 471.581L70.8633 455.785L60.5535 443.628L27.082 412.377Z" fill="url(#paint45_linear_31_2)"/>
<g style="mix-blend-mode:multiply" opacity="0.27">
<path d="M251.693 473.876L240.669 477.638L229.644 478.578L228.262 473.876H251.693Z" fill="#994C9F"/>
</g>
</g>
</g>
<defs>
<linearGradient id="paint0_linear_31_2" x1="1041.99" y1="828.418" x2="1047.24" y2="20.5825" gradientUnits="userSpaceOnUse">
<stop offset="0.1" stop-color="#99BFFF"/>
<stop offset="0.18" stop-color="#649DFF"/>
<stop offset="0.29" stop-color="#2C79FF"/>
<stop offset="0.34" stop-color="#176CFF"/>
<stop offset="0.44" stop-color="#1053D2"/>
<stop offset="0.55" stop-color="#0A3BA7"/>
<stop offset="0.66" stop-color="#062985"/>
<stop offset="0.76" stop-color="#021B6C"/>
<stop offset="0.85" stop-color="#00135E"/>
<stop offset="0.93" stop-color="#001159"/>
</linearGradient>
<linearGradient id="paint1_linear_31_2" x1="1695.56" y1="514.465" x2="-53.9816" y2="514.465" gradientUnits="userSpaceOnUse">
<stop stop-color="#FFBF38"/>
<stop offset="0.09" stop-color="#E1A931"/>
<stop offset="0.35" stop-color="#926D20"/>
<stop offset="0.57" stop-color="#533E12"/>
<stop offset="0.77" stop-color="#261C08"/>
<stop offset="0.91" stop-color="#0A0702"/>
<stop offset="1"/>
</linearGradient>
<linearGradient id="paint2_linear_31_2" x1="903.025" y1="696.001" x2="923.369" y2="479.875" gradientUnits="userSpaceOnUse">
<stop stop-color="#6971AD"/>
<stop offset="1" stop-color="#DB8B9B"/>
</linearGradient>
<linearGradient id="paint3_linear_31_2" x1="947.262" y1="450.05" x2="945.661" y2="478.569" gradientUnits="userSpaceOnUse">
<stop stop-color="#993C81"/>
<stop offset="1" stop-color="#3D1769"/>
</linearGradient>
<linearGradient id="paint4_linear_31_2" x1="2926.71" y1="690.673" x2="2920.58" y2="474.713" gradientUnits="userSpaceOnUse">
<stop stop-color="#6971AD"/>
<stop offset="1" stop-color="#DB8B9B"/>
</linearGradient>
<linearGradient id="paint5_linear_31_2" x1="216.224" y1="611.43" x2="551.735" y2="287.33" gradientUnits="userSpaceOnUse">
<stop stop-color="#6971AD"/>
<stop offset="1" stop-color="#DB8B9B"/>
</linearGradient>
<linearGradient id="paint6_linear_31_2" x1="662.325" y1="254.322" x2="481.332" y2="512.914" gradientUnits="userSpaceOnUse">
<stop stop-color="#CE92B2"/>
<stop offset="0.99" stop-color="#7E91C0"/>
</linearGradient>
<linearGradient id="paint7_linear_31_2" x1="369.402" y1="388.004" x2="367.745" y2="397.282" gradientUnits="userSpaceOnUse">
<stop stop-color="#993C81"/>
<stop offset="1" stop-color="#3D1769"/>
</linearGradient>
<radialGradient id="paint8_radial_31_2" cx="0" cy="0" r="1" gradientUnits="userSpaceOnUse" gradientTransform="translate(339.207 341.839) rotate(180) scale(10.7464 9.65389)">
<stop stop-color="#E6941F"/>
<stop offset="0.12" stop-color="#BD7919"/>
<stop offset="0.29" stop-color="#845511"/>
<stop offset="0.46" stop-color="#54360B"/>
<stop offset="0.62" stop-color="#301E06"/>
<stop offset="0.77" stop-color="#150D02"/>
<stop offset="0.9" stop-color="#050300"/>
<stop offset="1"/>
</radialGradient>
<radialGradient id="paint9_radial_31_2" cx="0" cy="0" r="1" gradientUnits="userSpaceOnUse" gradientTransform="translate(339.692 342.275) rotate(180) scale(6.61472 5.94225)">
<stop stop-color="#E6941F"/>
<stop offset="0.36" stop-color="#8A5912"/>
<stop offset="0.67" stop-color="#3F2908"/>
<stop offset="0.89" stop-color="#110B02"/>
<stop offset="1"/>
</radialGradient>
<linearGradient id="paint10_linear_31_2" x1="503.517" y1="283.757" x2="435.817" y2="404.978" gradientUnits="userSpaceOnUse">
<stop stop-color="#CE92B2"/>
<stop offset="0.13" stop-color="#B88AB3"/>
<stop offset="0.43" stop-color="#8E7CB6"/>
<stop offset="0.58" stop-color="#7E77B8"/>
<stop offset="0.66" stop-color="#8879B4"/>
<stop offset="0.8" stop-color="#A37FA9"/>
<stop offset="0.98" stop-color="#D08898"/>
<stop offset="1" stop-color="#D68A96"/>
</linearGradient>
<linearGradient id="paint11_linear_31_2" x1="439.942" y1="328.632" x2="408.545" y2="432.559" gradientUnits="userSpaceOnUse">
<stop stop-color="#CE92B2"/>
<stop offset="1" stop-color="#55B87E"/>
</linearGradient>
<linearGradient id="paint12_linear_31_2" x1="651.837" y1="312.278" x2="462.147" y2="499.38" gradientUnits="userSpaceOnUse">
<stop stop-color="#CE92B2"/>
<stop offset="0.11" stop-color="#B88AB3"/>
<stop offset="0.36" stop-color="#8E7CB6"/>
<stop offset="0.49" stop-color="#7E77B8"/>
<stop offset="0.59" stop-color="#8879B4"/>
<stop offset="0.76" stop-color="#A37FA9"/>
<stop offset="0.97" stop-color="#D08898"/>
<stop offset="1" stop-color="#D68A96"/>
</linearGradient>
<linearGradient id="paint13_linear_31_2" x1="982.683" y1="347.063" x2="755.578" y2="460.859" gradientUnits="userSpaceOnUse">
<stop stop-color="#CE92B2"/>
<stop offset="0.13" stop-color="#B891B5"/>
<stop offset="0.43" stop-color="#8E91BD"/>
<stop offset="0.58" stop-color="#7E91C0"/>
<stop offset="0.66" stop-color="#8890BB"/>
<stop offset="0.8" stop-color="#A38DAD"/>
<stop offset="0.98" stop-color="#D08A98"/>
<stop offset="1" stop-color="#D68A96"/>
</linearGradient>
<linearGradient id="paint14_linear_31_2" x1="618.385" y1="280.682" x2="593.94" y2="330.858" gradientUnits="userSpaceOnUse">
<stop stop-color="#CE92B2"/>
<stop offset="1" stop-color="#55B87E"/>
</linearGradient>
<linearGradient id="paint15_linear_31_2" x1="597.617" y1="328.419" x2="434.581" y2="470.568" gradientUnits="userSpaceOnUse">
<stop stop-color="#CE92B2"/>
<stop offset="0.13" stop-color="#B88AB3"/>
<stop offset="0.43" stop-color="#8E7CB6"/>
<stop offset="0.58" stop-color="#7E77B8"/>
<stop offset="0.66" stop-color="#8879B4"/>
<stop offset="0.8" stop-color="#A37FA9"/>
<stop offset="0.98" stop-color="#D08898"/>
<stop offset="1" stop-color="#D68A96"/>
</linearGradient>
<linearGradient id="paint16_linear_31_2" x1="585.514" y1="308.656" x2="538.904" y2="390.509" gradientUnits="userSpaceOnUse">
<stop stop-color="#CE92B2"/>
<stop offset="1" stop-color="#55B87E"/>
</linearGradient>
<linearGradient id="paint17_linear_31_2" x1="963.321" y1="308.129" x2="736.105" y2="421.986" gradientUnits="userSpaceOnUse">
<stop stop-color="#CE92B2"/>
<stop offset="0.13" stop-color="#B891B5"/>
<stop offset="0.43" stop-color="#8E91BD"/>
<stop offset="0.58" stop-color="#7E91C0"/>
<stop offset="0.66" stop-color="#8890BB"/>
<stop offset="0.8" stop-color="#A38DAD"/>
<stop offset="0.98" stop-color="#D08A98"/>
<stop offset="1" stop-color="#D68A96"/>
</linearGradient>
<radialGradient id="paint18_radial_31_2" cx="0" cy="0" r="1" gradientUnits="userSpaceOnUse" gradientTransform="translate(372.86 399.804) rotate(180) scale(25.7137 14.3497)">
<stop stop-color="#E6941F"/>
<stop offset="0.12" stop-color="#BD7919"/>
<stop offset="0.29" stop-color="#845511"/>
<stop offset="0.46" stop-color="#54360B"/>
<stop offset="0.62" stop-color="#301E06"/>
<stop offset="0.77" stop-color="#150D02"/>
<stop offset="0.9" stop-color="#050300"/>
<stop offset="1"/>
</radialGradient>
<radialGradient id="paint19_radial_31_2" cx="0" cy="0" r="1" gradientUnits="userSpaceOnUse" gradientTransform="translate(412.945 379.999) rotate(-115.466) scale(11.3506 6.51279)">
<stop stop-color="#E6941F"/>
<stop offset="0.12" stop-color="#BD7919"/>
<stop offset="0.29" stop-color="#845511"/>
<stop offset="0.46" stop-color="#54360B"/>
<stop offset="0.62" stop-color="#301E06"/>
<stop offset="0.77" stop-color="#150D02"/>
<stop offset="0.9" stop-color="#050300"/>
<stop offset="1"/>
</radialGradient>
<radialGradient id="paint20_radial_31_2" cx="0" cy="0" r="1" gradientUnits="userSpaceOnUse" gradientTransform="translate(388.987 391.639) rotate(-115.466) scale(11.3506 6.51279)">
<stop stop-color="#E6941F"/>
<stop offset="0.12" stop-color="#BD7919"/>
<stop offset="0.29" stop-color="#845511"/>
<stop offset="0.46" stop-color="#54360B"/>
<stop offset="0.62" stop-color="#301E06"/>
<stop offset="0.77" stop-color="#150D02"/>
<stop offset="0.9" stop-color="#050300"/>
<stop offset="1"/>
</radialGradient>
<radialGradient id="paint21_radial_31_2" cx="0" cy="0" r="1" gradientUnits="userSpaceOnUse" gradientTransform="translate(295.776 455.758) rotate(72.2367) scale(16.077 3.32759)">
<stop stop-color="#E6941F"/>
<stop offset="0.12" stop-color="#BD7919"/>
<stop offset="0.29" stop-color="#845511"/>
<stop offset="0.46" stop-color="#54360B"/>
<stop offset="0.62" stop-color="#301E06"/>
<stop offset="0.77" stop-color="#150D02"/>
<stop offset="0.9" stop-color="#050300"/>
<stop offset="1"/>
</radialGradient>
<radialGradient id="paint22_radial_31_2" cx="0" cy="0" r="1" gradientUnits="userSpaceOnUse" gradientTransform="translate(377.35 402.058) rotate(180) scale(26.002 6.08708)">
<stop stop-color="#E6941F"/>
<stop offset="0.12" stop-color="#BD7919"/>
<stop offset="0.29" stop-color="#845511"/>
<stop offset="0.46" stop-color="#54360B"/>
<stop offset="0.62" stop-color="#301E06"/>
<stop offset="0.77" stop-color="#150D02"/>
<stop offset="0.9" stop-color="#050300"/>
<stop offset="1"/>
</radialGradient>
<linearGradient id="paint23_linear_31_2" x1="412.23" y1="400.829" x2="432.267" y2="368.092" gradientUnits="userSpaceOnUse">
<stop stop-color="#CE92B2"/>
<stop offset="1" stop-color="#55B87E"/>
</linearGradient>
<radialGradient id="paint24_radial_31_2" cx="0" cy="0" r="1" gradientUnits="userSpaceOnUse" gradientTransform="translate(376.346 390.48) rotate(180) scale(20.5936 14.0152)">
<stop stop-color="#E6941F"/>
<stop offset="0.12" stop-color="#BD7919"/>
<stop offset="0.29" stop-color="#845511"/>
<stop offset="0.46" stop-color="#54360B"/>
<stop offset="0.62" stop-color="#301E06"/>
<stop offset="0.77" stop-color="#150D02"/>
<stop offset="0.9" stop-color="#050300"/>
<stop offset="1"/>
</radialGradient>
<radialGradient id="paint25_radial_31_2" cx="0" cy="0" r="1" gradientUnits="userSpaceOnUse" gradientTransform="translate(346.06 339.985) rotate(180) scale(20.5936 14.0152)">
<stop stop-color="#E6941F"/>
<stop offset="0.12" stop-color="#BD7919"/>
<stop offset="0.29" stop-color="#845511"/>
<stop offset="0.46" stop-color="#54360B"/>
<stop offset="0.62" stop-color="#301E06"/>
<stop offset="0.77" stop-color="#150D02"/>
<stop offset="0.9" stop-color="#050300"/>
<stop offset="1"/>
</radialGradient>
<radialGradient id="paint26_radial_31_2" cx="0" cy="0" r="1" gradientUnits="userSpaceOnUse" gradientTransform="translate(378.067 390.154) rotate(180) scale(12.065 14.0152)">
<stop stop-color="#E6941F"/>
<stop offset="0.36" stop-color="#8A5912"/>
<stop offset="0.67" stop-color="#3F2908"/>
<stop offset="0.89" stop-color="#110B02"/>
<stop offset="1"/>
</radialGradient>
<radialGradient id="paint27_radial_31_2" cx="0" cy="0" r="1" gradientUnits="userSpaceOnUse" gradientTransform="translate(347.464 372.324) rotate(173.047) scale(14.0552 9.73403)">
<stop stop-color="#E6941F"/>
<stop offset="0.12" stop-color="#BD7919"/>
<stop offset="0.29" stop-color="#845511"/>
<stop offset="0.46" stop-color="#54360B"/>
<stop offset="0.62" stop-color="#301E06"/>
<stop offset="0.77" stop-color="#150D02"/>
<stop offset="0.9" stop-color="#050300"/>
<stop offset="1"/>
</radialGradient>
<radialGradient id="paint28_radial_31_2" cx="0" cy="0" r="1" gradientUnits="userSpaceOnUse" gradientTransform="translate(387.751 367.572) rotate(173.047) scale(2.88436 6.37937)">
<stop stop-color="#E6941F"/>
<stop offset="0.36" stop-color="#8A5912"/>
<stop offset="0.67" stop-color="#3F2908"/>
<stop offset="0.89" stop-color="#110B02"/>
<stop offset="1"/>
</radialGradient>
<radialGradient id="paint29_radial_31_2" cx="0" cy="0" r="1" gradientUnits="userSpaceOnUse" gradientTransform="translate(394.016 376.451) rotate(-175.637) scale(5.94392 8.825)">
<stop stop-color="#E6941F"/>
<stop offset="0.12" stop-color="#BD7919"/>
<stop offset="0.29" stop-color="#845511"/>
<stop offset="0.46" stop-color="#54360B"/>
<stop offset="0.62" stop-color="#301E06"/>
<stop offset="0.77" stop-color="#150D02"/>
<stop offset="0.9" stop-color="#050300"/>
<stop offset="1"/>
</radialGradient>
<radialGradient id="paint30_radial_31_2" cx="0" cy="0" r="1" gradientUnits="userSpaceOnUse" gradientTransform="translate(361.929 362.118) rotate(180) scale(8.57123 8.6915)">
<stop stop-color="#E6941F"/>
<stop offset="0.11" stop-color="#B27217"/>
<stop offset="0.23" stop-color="#835411"/>
<stop offset="0.34" stop-color="#5A3A0C"/>
<stop offset="0.46" stop-color="#392507"/>
<stop offset="0.59" stop-color="#201404"/>
<stop offset="0.72" stop-color="#0E0901"/>
<stop offset="0.85" stop-color="#030200"/>
<stop offset="1"/>
</radialGradient>
<radialGradient id="paint31_radial_31_2" cx="0" cy="0" r="1" gradientUnits="userSpaceOnUse" gradientTransform="translate(388.049 333.681) rotate(180) scale(8.57121 8.6915)">
<stop stop-color="#E6941F"/>
<stop offset="0.11" stop-color="#B27217"/>
<stop offset="0.23" stop-color="#835411"/>
<stop offset="0.34" stop-color="#5A3A0C"/>
<stop offset="0.46" stop-color="#392507"/>
<stop offset="0.59" stop-color="#201404"/>
<stop offset="0.72" stop-color="#0E0901"/>
<stop offset="0.85" stop-color="#030200"/>
<stop offset="1"/>
</radialGradient>
<radialGradient id="paint32_radial_31_2" cx="0" cy="0" r="1" gradientUnits="userSpaceOnUse" gradientTransform="translate(394.27 356.659) rotate(-166.609) scale(5.07245 5.43873)">
<stop stop-color="#E6941F"/>
<stop offset="0.11" stop-color="#B27217"/>
<stop offset="0.23" stop-color="#835411"/>
<stop offset="0.34" stop-color="#5A3A0C"/>
<stop offset="0.46" stop-color="#392507"/>
<stop offset="0.59" stop-color="#201404"/>
<stop offset="0.72" stop-color="#0E0901"/>
<stop offset="0.85" stop-color="#030200"/>
<stop offset="1"/>
</radialGradient>
<radialGradient id="paint33_radial_31_2" cx="0" cy="0" r="1" gradientUnits="userSpaceOnUse" gradientTransform="translate(402.375 342.524) rotate(-166.609) scale(1.84394 1.97709)">
<stop stop-color="#E6941F"/>
<stop offset="0.11" stop-color="#B27217"/>
<stop offset="0.23" stop-color="#835411"/>
<stop offset="0.34" stop-color="#5A3A0C"/>
<stop offset="0.46" stop-color="#392507"/>
<stop offset="0.59" stop-color="#201404"/>
<stop offset="0.72" stop-color="#0E0901"/>
<stop offset="0.85" stop-color="#030200"/>
<stop offset="1"/>
</radialGradient>
<radialGradient id="paint34_radial_31_2" cx="0" cy="0" r="1" gradientUnits="userSpaceOnUse" gradientTransform="translate(370.612 377.775) rotate(-169.641) scale(3.46456 3.62533)">
<stop stop-color="#E6941F"/>
<stop offset="0.11" stop-color="#B27217"/>
<stop offset="0.23" stop-color="#835411"/>
<stop offset="0.34" stop-color="#5A3A0C"/>
<stop offset="0.46" stop-color="#392507"/>
<stop offset="0.59" stop-color="#201404"/>
<stop offset="0.72" stop-color="#0E0901"/>
<stop offset="0.85" stop-color="#030200"/>
<stop offset="1"/>
</radialGradient>
<radialGradient id="paint35_radial_31_2" cx="0" cy="0" r="1" gradientUnits="userSpaceOnUse" gradientTransform="translate(328.191 369.114) rotate(168.481) scale(1.85844 1.96167)">
<stop stop-color="#E6941F"/>
<stop offset="0.11" stop-color="#B27217"/>
<stop offset="0.23" stop-color="#835411"/>
<stop offset="0.34" stop-color="#5A3A0C"/>
<stop offset="0.46" stop-color="#392507"/>
<stop offset="0.59" stop-color="#201404"/>
<stop offset="0.72" stop-color="#0E0901"/>
<stop offset="0.85" stop-color="#030200"/>
<stop offset="1"/>
</radialGradient>
<radialGradient id="paint36_radial_31_2" cx="0" cy="0" r="1" gradientUnits="userSpaceOnUse" gradientTransform="translate(311.235 331.462) rotate(168.481) scale(1.85844 1.96167)">
<stop stop-color="#E6941F"/>
<stop offset="0.11" stop-color="#B27217"/>
<stop offset="0.23" stop-color="#835411"/>
<stop offset="0.34" stop-color="#5A3A0C"/>
<stop offset="0.46" stop-color="#392507"/>
<stop offset="0.59" stop-color="#201404"/>
<stop offset="0.72" stop-color="#0E0901"/>
<stop offset="0.85" stop-color="#030200"/>
<stop offset="1"/>
</radialGradient>
<radialGradient id="paint37_radial_31_2" cx="0" cy="0" r="1" gradientUnits="userSpaceOnUse" gradientTransform="translate(420.264 331.229) rotate(168.481) scale(1.85844 1.96166)">
<stop stop-color="#E6941F"/>
<stop offset="0.11" stop-color="#B27217"/>
<stop offset="0.23" stop-color="#835411"/>
<stop offset="0.34" stop-color="#5A3A0C"/>
<stop offset="0.46" stop-color="#392507"/>
<stop offset="0.59" stop-color="#201404"/>
<stop offset="0.72" stop-color="#0E0901"/>
<stop offset="0.85" stop-color="#030200"/>
<stop offset="1"/>
</radialGradient>
<radialGradient id="paint38_radial_31_2" cx="0" cy="0" r="1" gradientUnits="userSpaceOnUse" gradientTransform="translate(372.096 370.469) rotate(-172.683) scale(1.88419 1.94792)">
<stop stop-color="#E6941F"/>
<stop offset="0.11" stop-color="#B27217"/>
<stop offset="0.23" stop-color="#835411"/>
<stop offset="0.34" stop-color="#5A3A0C"/>
<stop offset="0.46" stop-color="#392507"/>
<stop offset="0.59" stop-color="#201404"/>
<stop offset="0.72" stop-color="#0E0901"/>
<stop offset="0.85" stop-color="#030200"/>
<stop offset="1"/>
</radialGradient>
<radialGradient id="paint39_radial_31_2" cx="0" cy="0" r="1" gradientUnits="userSpaceOnUse" gradientTransform="translate(392.147 389.662) rotate(-167.153) scale(1.84833 1.97239)">
<stop stop-color="#E6941F"/>
<stop offset="0.11" stop-color="#B27217"/>
<stop offset="0.23" stop-color="#835411"/>
<stop offset="0.34" stop-color="#5A3A0C"/>
<stop offset="0.46" stop-color="#392507"/>
<stop offset="0.59" stop-color="#201404"/>
<stop offset="0.72" stop-color="#0E0901"/>
<stop offset="0.85" stop-color="#030200"/>
<stop offset="1"/>
</radialGradient>
<radialGradient id="paint40_radial_31_2" cx="0" cy="0" r="1" gradientUnits="userSpaceOnUse" gradientTransform="translate(336.448 320.562) rotate(180) scale(8.57123 8.6915)">
<stop stop-color="#E6941F"/>
<stop offset="0.12" stop-color="#BD7919"/>
<stop offset="0.29" stop-color="#845511"/>
<stop offset="0.46" stop-color="#54360B"/>
<stop offset="0.62" stop-color="#301E06"/>
<stop offset="0.77" stop-color="#150D02"/>
<stop offset="0.9" stop-color="#050300"/>
<stop offset="1"/>
</radialGradient>
<radialGradient id="paint41_radial_31_2" cx="0" cy="0" r="1" gradientUnits="userSpaceOnUse" gradientTransform="translate(391.54 379.544) rotate(-165.093) scale(8.24915 8.97022)">
<stop stop-color="#E6941F"/>
<stop offset="0.11" stop-color="#B27217"/>
<stop offset="0.23" stop-color="#835411"/>
<stop offset="0.34" stop-color="#5A3A0C"/>
<stop offset="0.46" stop-color="#392507"/>
<stop offset="0.59" stop-color="#201404"/>
<stop offset="0.72" stop-color="#0E0901"/>
<stop offset="0.85" stop-color="#030200"/>
<stop offset="1"/>
</radialGradient>
<linearGradient id="paint42_linear_31_2" x1="656.269" y1="473.572" x2="638.029" y2="682.179" gradientUnits="userSpaceOnUse">
<stop stop-color="#DE9C9B"/>
<stop offset="1" stop-color="#4C3AA3"/>
</linearGradient>
<linearGradient id="paint43_linear_31_2" x1="983.777" y1="544.392" x2="961.093" y2="610.577" gradientUnits="userSpaceOnUse">
<stop stop-color="#FFD1B8"/>
<stop offset="0.13" stop-color="#F3AEAB"/>
<stop offset="0.28" stop-color="#E88C9F"/>
<stop offset="0.36" stop-color="#E4809B"/>
<stop offset="0.47" stop-color="#D77DA0"/>
<stop offset="0.66" stop-color="#B777AE"/>
<stop offset="0.92" stop-color="#826EC5"/>
<stop offset="1" stop-color="#706BCE"/>
</linearGradient>
<linearGradient id="paint44_linear_31_2" x1="661.548" y1="559.048" x2="661.322" y2="559.314" gradientUnits="userSpaceOnUse">
<stop stop-color="#73FFC5"/>
<stop offset="1"/>
</linearGradient>
<linearGradient id="paint45_linear_31_2" x1="113.067" y1="528.664" x2="60.606" y2="718.137" gradientUnits="userSpaceOnUse">
<stop stop-color="#FFD1B8"/>
<stop offset="0.13" stop-color="#F3AEAB"/>
<stop offset="0.28" stop-color="#E88C9F"/>
<stop offset="0.36" stop-color="#E4809B"/>
<stop offset="0.47" stop-color="#D77DA0"/>
<stop offset="0.66" stop-color="#B777AE"/>
<stop offset="0.92" stop-color="#826EC5"/>
<stop offset="1" stop-color="#706BCE"/>
</linearGradient>
<clipPath id="clip0_31_2">
<rect width="2075" height="1103" fill="white"/>
</clipPath>
</defs>
</svg>
