<?xml version="1.0" encoding="UTF-8"?>
<svg xmlns="http://www.w3.org/2000/svg" xmlns:xlink="http://www.w3.org/1999/xlink" viewBox="0 0 6846.24 211.77">
  <defs>
    <style>
      .cls-1 {
        fill: #423580;
      }

      .cls-1, .cls-2, .cls-3, .cls-4, .cls-5, .cls-6, .cls-7 {
        stroke-width: 0px;
      }

      .cls-1, .cls-2, .cls-5 {
        mix-blend-mode: multiply;
      }

      .cls-2 {
        fill: #20155e;
        opacity: .66;
      }

      .cls-3 {
        fill: url(#_ÂÁ_Ï_ÌÌ_È_ËÂÌÚ_10-2);
      }

      .cls-4 {
        fill: url(#_ÂÁ_Ï_ÌÌ_È_ËÂÌÚ_10-3);
      }

      .cls-5 {
        fill: #3c2d80;
        opacity: .46;
      }

      .cls-6 {
        fill: url(#_ÂÁ_Ï_ÌÌ_È_ËÂÌÚ_11);
        mix-blend-mode: color-dodge;
        opacity: .48;
      }

      .cls-8 {
        isolation: isolate;
      }

      .cls-7 {
        fill: url(#_ÂÁ_Ï_ÌÌ_È_ËÂÌÚ_10);
      }
    </style>
    <linearGradient id="_ÂÁ_Ï_ÌÌ_È_ËÂÌÚ_10" data-name="¡ÂÁ˚ÏˇÌÌ˚È „‡‰ËÂÌÚ 10" x1="3609.84" y1="-86.02" x2="3597.71" y2="257.57" gradientTransform="translate(-1340.78 -226.79) rotate(2.13) scale(1.33 1)" gradientUnits="userSpaceOnUse">
      <stop offset="0" stop-color="#60388c"/>
      <stop offset="1" stop-color="#01006b"/>
    </linearGradient>
    <linearGradient id="_ÂÁ_Ï_ÌÌ_È_ËÂÌÚ_11" data-name="¡ÂÁ˚ÏˇÌÌ˚È „‡‰ËÂÌÚ 11" x1="3741.53" y1="107.6" x2="3827.05" y2="154.8" gradientTransform="translate(-1340.78 -226.79) rotate(2.13) scale(1.33 1)" gradientUnits="userSpaceOnUse">
      <stop offset="0" stop-color="#9e0600"/>
      <stop offset=".11" stop-color="#830400"/>
      <stop offset=".32" stop-color="#540300"/>
      <stop offset=".52" stop-color="#300100"/>
      <stop offset=".71" stop-color="#150000"/>
      <stop offset=".87" stop-color="#050000"/>
      <stop offset="1" stop-color="#000"/>
    </linearGradient>
    <linearGradient id="_ÂÁ_Ï_ÌÌ_È_ËÂÌÚ_10-2" data-name="¡ÂÁ˚ÏˇÌÌ˚È „‡‰ËÂÌÚ 10" x1="3871.51" y1="75.81" x2="4043.75" y2="134.47" xlink:href="#_ÂÁ_Ï_ÌÌ_È_ËÂÌÚ_10"/>
    <linearGradient id="_ÂÁ_Ï_ÌÌ_È_ËÂÌÚ_10-3" data-name="¡ÂÁ˚ÏˇÌÌ˚È „‡‰ËÂÌÚ 10" x1="3867.78" y1="83.63" x2="3902.45" y2="4.88" xlink:href="#_ÂÁ_Ï_ÌÌ_È_ËÂÌÚ_10"/>
  </defs>
  <g class="cls-8">
    <g id="Layer_2" data-name="Layer 2">
      <g id="Layer_1-2" data-name="Layer 1">
        <g>
          <polygon class="cls-7" points="6846.24 25.66 3693.36 22.45 3636.77 71.21 3307.27 65.6 3007.03 60.47 2529.65 49.05 2412.63 40.48 2083.47 12.98 1968.85 0 1813.43 12.2 1703.58 7.51 1251.34 11.29 1251.16 11.29 1212.36 11.61 648.15 16.32 467.6 32.86 0 6.43 0 211.77 6846.24 211.77 6846.24 25.66"/>
          <polygon class="cls-1" points="6846.24 25.66 3693.36 22.45 3804.04 45.65 3793.34 90.58 3809.79 50.57 3835.49 72.52 3886.32 85.7 3880.6 105.65 3931.32 107.82 3944.62 100.84 4003.79 116.19 3927.61 111.43 3816.03 102.89 3672.19 85.4 3668.46 96.59 3318.06 78.8 3007.03 60.47 2542.83 59.88 2409.28 48.5 2087.1 14.89 1971.9 7.14 1823.87 15 1712.82 21.61 1251.34 11.29 1251.16 11.29 1212.36 11.61 648.15 16.32 469.88 42.29 0 8.27 0 211.77 6846.24 211.77 6846.24 25.66"/>
          <path class="cls-5" d="m6846.24,204.02l-3571.95-107.24-237.22-4.45,103.93,15.78,13.58,20.44,207.76,34.4-48.05,17.81-590.29-96.12,226.27,49.37-33.55,9.91S1952.27,20.48,1941.39,21.3c-10.88.82-179.94,27.91-179.94,27.91l-199.85,14.16,36.27,52.61-282.79-63.14-175.11-16.74-390.97,52.14s-231.65-29.75-260-33.79c-28.35-4.05-308.15-13.16-308.15-13.16L0,27.02v180.2l48.2,4.55h6798.05v-7.75Z"/>
          <polygon class="cls-6" points="3437.73 67.82 3646.04 75.78 3694 21.09 3636.91 72.55 3437.73 67.82"/>
          <polygon class="cls-2" points="6846.24 39.48 3928.39 40.2 3804.04 45.65 3808.46 51.51 3803.39 65.48 3810.14 51.01 3877.92 45.96 3928.83 42.46 3970.24 47.07 3995.07 47.59 6846.24 48.31 6846.24 39.48"/>
          <path class="cls-3" d="m3970.24,47.07s-36.89-1.58-41.51-1.77c-4.61-.2-23.24,4.68-23.24,4.68l-64.75,2.91-25.45,2.97-21.96,34.72,10.05-25.1,6.75-14.46,67.77-5.05,50.91-3.5,41.41,4.61Z"/>
          <polygon class="cls-4" points="3693.36 22.45 3802.74 45.37 3883.85 42.15 3804.22 39.98 3693.36 22.45"/>
        </g>
      </g>
    </g>
  </g>
</svg>