<?xml version="1.0" encoding="UTF-8"?>
<svg id="Layer_2" data-name="Layer 2" xmlns="http://www.w3.org/2000/svg" xmlns:xlink="http://www.w3.org/1999/xlink" viewBox="0 0 692.5 201.31">
  <defs>
    <style>
      .cls-1 {
        clip-path: url(#clippath);
      }

      .cls-2 {
        fill: none;
      }

      .cls-2, .cls-3, .cls-4, .cls-5, .cls-6, .cls-7, .cls-8, .cls-9, .cls-10, .cls-11, .cls-12, .cls-13, .cls-14, .cls-15, .cls-16, .cls-17, .cls-18, .cls-19, .cls-20, .cls-21, .cls-22, .cls-23, .cls-24, .cls-25, .cls-26, .cls-27, .cls-28, .cls-29, .cls-30, .cls-31, .cls-32 {
        stroke-width: 0px;
      }

      .cls-33 {
        opacity: .1;
      }

      .cls-3 {
        fill: #fcc900;
      }

      .cls-3, .cls-4, .cls-5, .cls-6 {
        fill-rule: evenodd;
      }

      .cls-4 {
        fill: #e9b702;
      }

      .cls-5 {
        fill: #f4c006;
      }

      .cls-6 {
        fill: #f8df2e;
      }

      .cls-8 {
        fill: #f9f5f5;
      }

      .cls-9 {
        fill: #4f91ff;
      }

      .cls-10 {
        fill: #53beed;
      }

      .cls-11 {
        fill: #2c3b53;
      }

      .cls-12 {
        fill: #474646;
      }

      .cls-13 {
        fill: #457aef;
      }

      .cls-14 {
        fill: #3a63df;
      }

      .cls-15 {
        fill: #3ba2ff;
      }

      .cls-16 {
        fill: #1a8ce4;
      }

      .cls-17 {
        fill: #1a3a9e;
      }

      .cls-18 {
        fill: #197bb5;
      }

      .cls-19 {
        fill: #3599d7;
      }

      .cls-20 {
        fill: #10489c;
      }

      .cls-21 {
        fill: #415371;
      }

      .cls-22 {
        fill: #113e56;
      }

      .cls-23 {
        fill: #20719e;
      }

      .cls-24 {
        fill: #162c70;
      }

      .cls-25 {
        fill: #165070;
      }

      .cls-26 {
        fill: #130073;
      }

      .cls-27 {
        fill: #112256;
      }

      .cls-28 {
        fill: #e2dfde;
      }

      .cls-29 {
        fill: #fff;
      }

      .cls-30 {
        fill: #00529a;
      }

      .cls-31 {
        fill: #0069ca;
      }

      .cls-32 {
        fill: #0061b9;
      }
    </style>
    <clipPath id="clippath">
      <circle class="cls-2" cx="607.11" cy="85.39" r="85.37"/>
    </clipPath>
  </defs>
  <g id="Layer_1-2" data-name="Layer 1">
    <g>
      <g class="cls-1">
        <g>
          <path class="cls-4" d="m602.88,140.63l.73.84,1.76-1.52-.73-.84-1.76,1.52Zm-.8.54l.89,1.03c.31.35.84.38,1.18.08l1.96-1.69c.35-.31.38-.84.08-1.18l-.9-1.03c-.3-.34-.82-.38-1.18-.08l-1.94,1.7c-.35.29-.38.84-.08,1.18h0Zm4.77-3.99l.72.85,1.76-1.53-.73-.84-1.76,1.52Zm-.8.54l.89,1.03c.3.36.84.38,1.18.08l1.96-1.69c.34-.3.38-.82.08-1.18l-.9-1.03c-.3-.34-.82-.38-1.18-.08l-1.95,1.71c-.35.29-.38.82-.08,1.16h0Z"/>
          <g>
            <g>
              <g>
                <path class="cls-11" d="m504.6,141.27c-1.35-3.45-5.39-11.63-9.6-16.89-4.21-5.27-6.29-8.76-11.41-5.03-5.13,3.73-26.98,20.64-30.43,24.24-3.45,3.59-11.73,13.74-8.89,16.93,2.84,3.19,6.11,3.68,8.6,2.15,2.48-1.53,7-2.01,10.42-3.07s11.61-4.12,12.93-3.61c1.32.51,14.23,5.69,16.93,5.05,1.24-.29,2.84-5.29,5.27-9.58,2.85-5.05,6.46-9.53,6.2-10.18Z"/>
                <path class="cls-21" d="m452.86,162.66c1.75-1.08,3.44-.94,6.72-2.17.19-.51.58-.56,1.25-.85,1.36-.59,3.22-.77,4.15-2.06.61-.85.67-1.9,1.39-2.66.87-.93,2.57-1.29,3.75-1.6,1.39-.36,2.8-.6,4.22-.79,1.6-.21,3.5-.24,5.01-.82,1.89-.73,3.64-3.08,4.31-4.83.1-.25.49-.15.5.1.05,1.58-.87,3.96.2,5.22.9,1.06,2.13,1.7,3.41,2.2,2.54.99,5.16,2.17,7.87,2.71.79-1.71,1.71-3.75,2.78-5.66,2.85-5.05,6.46-9.53,6.2-10.18-1.35-3.45-5.39-11.63-9.6-16.89-4.21-5.27-5.88-8.35-11.01-4.61-5.13,3.73-27.05,20.4-30.51,23.99-3.45,3.59-12.06,13.57-9.22,16.76,2.84,3.19,6.11,3.68,8.6,2.15Z"/>
                <path class="cls-8" d="m460.82,159.64c.41-.18.87-.32,1.34-.46-.03-.35-.06-.71-.12-1.05-.12-.79-.28-2.01-1-2.51-1.08-.75-2.62.39-3.46,1.03-1.63,1.24-.88.63-2.35,2.03-.84.79-1.81,1.62-2.34,2.67-.25.5-.34.99-.34,1.49.1-.06.2-.14.31-.17,2.23-.59,3.44-.94,6.72-2.17.19-.51.58-.56,1.25-.85Z"/>
                <path class="cls-19" d="m500.88,134.86c-1.73-.03-3.93.79-5.62,1.2-3.32.81-6.12,2.59-8.39,5.22-1.96,2.26-2.95,4.13-3.8,6.93.09,1.41.33,2.9,1.27,3.99.9,1.06,2.13,1.7,3.41,2.2,2.54.99,5.16,2.17,7.87,2.71.79-1.71,1.71-3.75,2.78-5.66,2.85-5.05,6.46-9.53,6.2-10.18-.57-1.47-1.64-3.79-2.99-6.39-.24,0-.49-.02-.73-.02Z"/>
                <path class="cls-10" d="m486.89,142.65c2.42-2.93,5.68-4.78,9.14-5.86,1.75-.55,3.56-.94,5.35-1.03.22-.01.43-.02.65-.02-.14-.28-.29-.56-.44-.84-.24,0-.49-.02-.73-.02-1.73-.03-3.48.23-5.16.64-3.32.81-6.21,2.57-8.71,4.98-2.86,2.75-3.85,6.65-4.7,9.44.02.39.83-.92.89-.53.88-2.4,2.01-4.7,3.7-6.75Z"/>
                <path class="cls-19" d="m452,163.09c-.05-.6.03-1.21.32-1.79.66-1.33,1.81-2.26,2.83-3.3,1.46-1.47.78-.92,2.52-2.07,1.56-1.04,3.71-1.81,4.51.48.29.84.4,1.72.47,2.6.9-.3,1.77-.67,2.32-1.44.55-.76.66-1.68,1.19-2.42-.21-6.19-.72-12.31-1.78-18.47-.1-.59-.19-1.17-.27-1.76-4.98,3.91-9.25,7.39-10.62,8.82-3.45,3.59-12.06,13.57-9.22,16.76,2.52,2.83,5.39,3.53,7.74,2.58Z"/>
                <path class="cls-10" d="m463.9,139.03c.98,5.73,1.49,11.42,1.73,17.17.14-.36.3-.72.53-1.04-.21-6.19-.72-12.31-1.78-18.47-.1-.59-.19-1.17-.27-1.76-.32.25-.64.51-.96.75.37,1.59.71,3.07.76,3.33Z"/>
                <path class="cls-19" d="m469.31,136.05c2.37,1.64,4.81,2.39,7.67,1.69,2.33-.57,4.48-1.6,6.6-2.7,3.27-1.69,6.75-3.7,10.4-4.41,2.07-.4,3.96-.16,5.64.65-1.42-2.44-3.01-4.89-4.62-6.91-4.21-5.27-5.88-8.35-11.01-4.61-2.85,2.07-10.87,8.13-18.04,13.73,1.1.88,2.21,1.76,3.36,2.56Z"/>
                <path class="cls-10" d="m493.6,129.76c-3.75.7-7.3,2.74-10.65,4.44-2.17,1.11-4.37,2.15-6.76,2.71-2.94.69-5.45-.11-7.91-1.83-.76-.53-1.5-1.1-2.24-1.68-.03.03-.07.05-.1.08,1.1.88,2.21,1.76,3.36,2.56,2.37,1.64,4.81,2.39,7.67,1.69,2.33-.57,4.48-1.6,6.6-2.7,3.27-1.69,6.75-3.7,10.4-4.41,2.07-.4,3.96-.16,5.64.65-.19-.32-.37-.64-.56-.95-1.65-.72-3.47-.94-5.45-.57Z"/>
                <path class="cls-28" d="m447.36,162.9c.58-4.63,7.19-11.94,10.29-15.05,3.61-3.63,26.39-20.48,31.71-24.25,1.47-1.04,2.66-1.56,3.7-1.66-2.94-3.67-4.81-5.28-9.08-2.17-5.13,3.73-27.05,20.4-30.51,23.99-3.45,3.59-12.06,13.57-9.22,16.76,1,1.12,2.05,1.9,3.1,2.39Z"/>
                <path class="cls-11" d="m455.06,144.25c.2.38.4.75.59,1.13,0,0,0,0,0,0,3.66-3.54,26.74-19.93,32.13-23.6,1.49-1.01,2.69-1.51,3.74-1.59-.32-.4-1.14-1.08-1.14-1.08-.96.16-1.85.61-3.17,1.51-5.39,3.67-28.47,20.06-32.13,23.6-.01.01-.03.03-.04.04Z"/>
                <path class="cls-11" d="m458.25,144.91c1.08-1.84.58-3.61-.1-5.39-2.26,1.85-3.98,3.32-4.76,4.14-3.45,3.59-12.06,13.57-9.22,16.76.78.88,1.6,1.54,2.42,2.02,1.12-7.39,10.95-16.31,11.66-17.52Z"/>
                <path class="cls-8" d="m477.44,149.17c.36-3.02,1.46-6.97,1.88-8.83.42-1.86-11.38-.21-11.32,2.77.06,2.98,1.24,8.21,1.24,8.21l8.21-2.15Z"/>
                <path class="cls-8" d="m496.5,150.84c1.86-2.55,5.6-7.85,4.96-9.48s-4.61-3.97-7.53-1.24c-2.93,2.73-6.18,9.05-4.29,9.94s5.52,2.63,6.87.78Z"/>
                <path class="cls-12" d="m491.51,155.07c-.8-.46-1.22-1.23-.94-1.74.29-.51,1.17-.55,1.97-.09s1.22,1.23.94,1.74c-.29.51-1.17.55-1.97.09Z"/>
                <path class="cls-12" d="m487.06,152.82c-.8-.46-1.22-1.23-.94-1.74.29-.51,1.17-.55,1.97-.09s1.22,1.23.94,1.74c-.29.51-1.17.55-1.97.09Z"/>
                <path class="cls-12" d="m480.59,150.2c-.71-.15-1.21-.62-1.12-1.07.09-.45.74-.69,1.45-.54.71.15,1.21.62,1.12,1.07-.09.45-.74.69-1.45.54Z"/>
                <path class="cls-12" d="m476.33,151.76c-.72.07-1.34-.24-1.38-.69-.05-.45.5-.88,1.22-.95.72-.07,1.34.24,1.38.69.05.45-.5.88-1.22.95Z"/>
                <path class="cls-12" d="m471.84,152.94c-.7.18-1.36-.02-1.47-.46-.12-.44.36-.95,1.05-1.13.7-.18,1.36.02,1.47.46.12.44-.36.95-1.05,1.13Z"/>
                <path class="cls-12" d="m468.22,153.81c-.7.18-1.36-.02-1.47-.46-.12-.44.36-.95,1.05-1.13.7-.18,1.36.02,1.47.46s-.36.95-1.05,1.13Z"/>
                <path class="cls-11" d="m502.7,141.89c.26.66-3.35,5.14-6.2,10.18-1.98,3.51-3.41,7.48-4.55,8.98.49.05.9.05,1.18-.01,1.24-.29,2.84-5.29,5.27-9.58,2.85-5.05,6.46-9.53,6.2-10.18-.41-1.05-1.08-2.55-1.92-4.27-.26,2.07-.4,3.82.02,4.88Z"/>
                <path class="cls-8" d="m488.05,160.72c-.23-.12-.34-.36-.25-.53l3.23-6.57c.09-.17.35-.22.58-.1l1.04.54c.23.12.34.36.25.53l-3.23,6.57c-.09.17-.35.22-.58.1l-1.04-.54Z"/>
                <path class="cls-8" d="m483.82,159.57c-.24-.1-.37-.32-.3-.5l2.99-7.8c.07-.18.33-.24.57-.15l1.08.45c.24.1.37.32.3.5l-2.99,7.8c-.07.18-.33.24-.57.15l-1.08-.45Z"/>
                <path class="cls-8" d="m478.79,157.89c-.25-.05-.43-.24-.39-.43l1.35-8.24c.04-.19.27-.31.53-.26l1.15.22c.25.05.43.24.39.43l-1.35,8.24c-.04.19-.27.31-.53.26l-1.15-.22Z"/>
                <path class="cls-8" d="m475.25,156.79c-.26-.02-.46-.19-.44-.38l.31-5.46c.01-.19.23-.34.49-.32l1.17.08c.26.02.46.19.44.38l-.31,5.46c-.01.19-.23.34-.49.32l-1.17-.08Z"/>
                <path class="cls-8" d="m472.25,157.35c-.25.05-.49-.06-.53-.25l-1.05-4.77c-.04-.19.14-.39.39-.44l1.15-.23c.25-.05.49.06.53.25l1.05,4.77c.04.19-.14.39-.39.44l-1.15.23Z"/>
                <path class="cls-8" d="m468.98,158.18c-.25.07-.49-.02-.55-.2l-1.46-4.66c-.06-.19.1-.4.35-.47l1.12-.33c.25-.07.49.02.55.2l1.46,4.66c.06.19-.1.4-.35.47l-1.12.33Z"/>
                <path class="cls-12" d="m464.34,155.28c-.65.32-1.33.25-1.54-.16-.2-.41.16-1,.8-1.32.65-.32,1.33-.25,1.54.16s-.16,1-.8,1.32Z"/>
                <path class="cls-8" d="m465.54,159.53c-.24.1-.49.03-.57-.15l-1.88-4.51c-.07-.18.06-.4.31-.5l1.09-.43c.24-.1.49-.03.57.15l1.88,4.51c.07.18-.06.4-.31.5l-1.09.43Z"/>
              </g>
              <g>
                <path class="cls-7" d="m476.08,142.74c.05.05.1.1.15.15.2.17.43.23.69.14.27-.1.37-.34.38-.58.01-.34-.06-.68-.32-.94-.22-.21-.56-.21-.77,0-.06.06-.09.18-.08.27,0,.14.06.27.09.43l-.36.08c0-.06,0-.12-.01-.17-.04-.2-.14-.39.05-.57.24-.23.5-.39.85-.36.53.05.86.45.9,1.08.03.4-.31.82-.75.92-.28.06-.55,0-.78-.18-.06-.05-.08-.15-.12-.23.03-.01.05-.02.08-.04Z"/>
                <path class="cls-7" d="m470.21,143.21c.03-.13.02-.27.09-.37.22-.35.68-.49,1.11-.37.37.1.63.47.67.98.03.37-.18.74-.52.9-.27.13-.56.11-.83.03-.17-.05-.29-.17-.25-.43.07.06.12.1.16.15.21.19.44.27.72.16.27-.11.4-.33.37-.6-.03-.26-.08-.54-.19-.76-.22-.42-.82-.39-1.07.03-.06.1-.11.21-.17.32-.03,0-.06-.02-.08-.02Z"/>
                <path class="cls-7" d="m472.14,142.78c-.13-.15-.09-.27.01-.4.29-.35.76-.48,1.15-.31.41.18.66.69.59,1.16-.1.69-.86.95-1.44.67-.1-.05-.13-.23-.2-.35.02,0,.04-.02.06-.03.1.09.19.18.3.25.3.2.71.1.87-.22.18-.36.06-.95-.25-1.22-.32-.27-.73-.21-.95.16-.05.09-.1.18-.15.29Z"/>
                <path class="cls-7" d="m474.33,143.69c-.11-.46-.19-.83-.27-1.2-.09-.43.09-.76.46-.85.43-.11.76.08.89.52.05.19.09.38.13.58.04.19.09.38.13.58l-.28.06c-.09-.38-.17-.77-.26-1.15-.08-.35-.29-.48-.6-.41-.29.06-.43.31-.36.64.07.34.16.68.23,1.02.01.05-.04.11-.07.2Z"/>
                <path class="cls-7" d="m470.26,144.56l-.32.07-.41-1.8.32-.07c.14.6.27,1.18.41,1.8Z"/>
              </g>
            </g>
            <path class="cls-18" d="m491.7,125.36c.06.03.12.06.18.09.23.1.45.09.65-.07.21-.16.24-.4.18-.62-.08-.31-.24-.59-.55-.74-.25-.12-.56-.03-.68.21-.04.07-.03.19,0,.27.04.12.13.23.2.36l-.3.17s-.03-.1-.06-.15c-.09-.16-.23-.31-.11-.52.15-.27.34-.48.65-.55.48-.1.89.16,1.1.7.13.34-.05.81-.41,1.02-.23.14-.49.16-.74.06-.07-.03-.11-.11-.17-.17.02-.02.04-.04.06-.05Z"/>
            <path class="cls-18" d="m486.65,127.41c-.01-.12-.06-.25-.03-.36.1-.37.47-.62.88-.64.35-.02.69.25.86.68.13.32.05.7-.21.94-.21.19-.46.25-.73.25-.16,0-.3-.07-.34-.31.08.03.13.06.19.09.24.11.47.12.68-.06.21-.17.26-.4.16-.64-.1-.22-.22-.45-.38-.62-.31-.31-.83-.12-.94.33-.03.11-.04.22-.06.33-.03,0-.05,0-.08,0Z"/>
            <path class="cls-18" d="m488.24,126.49c-.15-.1-.16-.21-.1-.36.16-.39.54-.63.93-.59.41.05.78.43.85.86.11.64-.5,1.08-1.09.99-.1-.02-.18-.17-.27-.26.01-.01.03-.03.04-.04.11.05.22.11.33.14.32.1.66-.11.71-.44.06-.37-.21-.86-.56-1.01-.36-.15-.7.02-.79.4-.02.09-.03.18-.05.29Z"/>
            <path class="cls-18" d="m490.42,126.69c-.22-.38-.4-.68-.57-.98-.2-.36-.13-.69.17-.88.35-.21.7-.14.93.21.1.15.19.32.28.47.09.16.18.31.28.47l-.23.14c-.18-.31-.36-.63-.55-.94-.17-.28-.39-.34-.65-.2-.23.14-.3.4-.14.67.16.28.33.55.49.83.02.04,0,.1,0,.2Z"/>
          </g>
          <path class="cls-3" d="m600.47,143.48c.2.21.54.24.76.05l2.41-2.1c.22-.19.24-.52.05-.74-.19-.22-.53-.25-.75-.06l-2.41,2.1c-.22.19-.25.53-.06.75Zm3.97-3.45c.19.22.53.25.75.06l2.41-2.1c.22-.19.25-.53.06-.75-.2-.21-.54-.24-.76-.05l-2.41,2.1c-.22.19-.24.52-.05.74Z"/>
          <g>
            <g>
              <path class="cls-30" d="m480.88,117.71c2.91-4.46,4.82-5,10.5-3.58,3.87.96,3.6,3.98,8.08,6.74,3.67,2.26,3.78,2.1,9.63,3.38,1.34.3,4.37,1.04,5.62,1.2,1.62-1.51,3.43-2.83,5.38-3.96,2.36-1.35,4.91-2.42,7.6-3.17,2.63-.75,5.36-1.2,8.14-1.34,4.7-.24,9.51.4,14.04,1.97,12.24,4.27,22.19,15.05,25.54,26.76,2.9,10.13,2.13,15.77-.91,19.88-2.16,2.94-5.46,5.11-9.41,7.59-1.16.73-2.39,1.5-3.66,2.31-4.15,2.67-8.41,5.62-12.87,7.81-2.85,1.4-5.77,2.5-8.8,3.02-3.13.54-6.35.45-9.71-.54-.96-.29-2.08-.79-3.3-1.48-4.68-2.61-11.32-7.6-17.12-14.22-13.61-15.54-10.52-21.52-19.3-30.24"/>
              <path class="cls-24" d="m508.55,158.52c-.57-1.14-1.83-1.67-2.68-.16-.59,1.06-.23,3.07,1.09,3.47.84.25,1.57-.54,1.79-1.37.18-.69.07-1.39-.2-1.94Z"/>
              <path class="cls-24" d="m517.18,135.95c-.95-.91-2.3-.99-2.5.74-.13,1.21.97,3.03,2.32,2.97.86-.04,1.22-1.04,1.1-1.91-.1-.72-.46-1.35-.93-1.79Z"/>
              <path class="cls-23" d="m543.06,157.59c-1.19.5-1.71,1.66,0,3,1.8,1.41,5.35,1.15,4.38-1.32-.77-1.94-3.01-2.25-4.38-1.68Z"/>
              <path class="cls-25" d="m537.58,155.19c.02.62-.49,1.13-1.84,1.06-.83-.04-1.7-.61-1.95-1.32-.25-.71.18-1.47.95-1.62,1.48-.29,2.8.93,2.83,1.88Z"/>
              <path class="cls-23" d="m565.09,151.23c1.15.27,2.16-.28,1.39-1.72-.54-1.01-2.27-1.92-3.21-1.25-.6.42-.32,1.37.22,2,.45.52,1.04.84,1.6.98Z"/>
              <path class="cls-22" d="m565.09,173.2c-.76-.81-1.6-1.57-2.48-2.24-2.63-2.03-5.62-3.68-7.92-6.03-3.29-3.39-4.89-7.96-8.34-11.21-4.06-3.81-10.08-5.22-14.21-8.97-.72-.65-1.41-1.63-.95-2.39.33-.55,1.12-.69,1.82-.72,7.38-.35,14.3,4.05,20.52,8.24,7.22,4.85,14.73,9.73,20.97,15.73-2.16,2.94-5.46,5.11-9.41,7.59Z"/>
              <path class="cls-22" d="m541.32,129.44c-1.13-1.82-2.03-3.75-3.32-5.47-3.05-4.09-6.58-4.73-10.3-5.64,2.63-.75,5.36-1.2,8.14-1.34,2.21,1.86,4.39,3.73,6.51,5.54,4.31,3.67,14,10.99,14.23,16.84.34,8.96-13.39-6.93-15.26-9.92Z"/>
              <path class="cls-27" d="m548.57,183.32c-2.85,1.4-5.77,2.5-8.8,3.02-.38-1.2-.63-2.44-.83-3.66-.62-3.7-.87-7.53-2.63-10.96-1.21-2.37-2.84-1.96-4.18-4.27-1.34-2.31,1.09-5.44-1.18-9.83.3-2.89,5.19,2.75,6.38,6.31,1.36,4.07,4.56,5.93,6.05,9.96,1.23,3.33,2.99,6.52,5.19,9.44Z"/>
              <path class="cls-27" d="m526.76,184.32c-4.68-2.61-11.02-7.87-17.12-14.22,1.29-3.2,5.56-2.29,3.95-5.54-1.07-2.16,1.19-5.2,1.57-6.25.39-1.06-1.1-3.49.12-3.5,1.16-.02,2.23.83,2.78,1.83.54.99.68,2.11.81,3.19.41,3.48.89,7.01,2.26,10.33.63,1.55,1.46,3.04,2.16,4.57,1,2.17,2.71,6.1,3.48,9.59Z"/>
              <path class="cls-27" d="m525.54,144.21c-4.29-4.31-5.46-13.77-10.82-18.75,1.62-1.51,3.43-2.83,5.38-3.96.6.67.93,2.93,1.52,3.62,1.31,1.52,1.54,2.26,3.19,3.48,3.3,2.43-.37,5.03-.47,5.99-.32,3.09.54,3.22,1.86,6.17,1.65,3.05.02,4.13-.66,3.45Z"/>
            </g>
            <path class="cls-20" d="m591.87,95.76c-1.08,3.04-3.5,34.93-3.09,39.28.41,4.34,29.77,12.87,32.09,12.28,1.67-.42,4.17-6,7-5.73,2.83.26,2.02,6.84,3.27,6.65,1.97-.31,1-6,1-6,0,0,1.81,4.2,2.82,3.71,1.75-.85.03-8.45-1.55-10.34-1.59-1.88-6.37-2.21-7.56-2.13-1.19.08-6.89,6.58-6.89,6.58,0,0-19.95-9.79-20.33-10.33-.39-.54,4.7-24.66,6.41-29.75,2.02-6.05-8.92-16.14-13.15-4.22Z"/>
            <path class="cls-31" d="m668.33,82.06s13.17-10.13,17.98-3.51c4.81,6.62-4.14,22.62-10.8,22.6l-7.18-19.1Z"/>
            <path class="cls-31" d="m591,40.25s-11.84-5.59-25.53,4.9c-24.06,18.45-4.16,48.62-77.39,24.57-42.83-14.07-36.34-35.14-61.59-53.01-6.44-4.56-13.44-8.4-20-11.33-19.1-8.59-37.1-5.04-21.6.85,40.31,15.32,24.13,29.43,35.83,68.51,3.97,13.26,13.73,21.79,19.53,28.34,27.89,31.54,59.67,44.33,87.93,53,54.36,16.68,54.8-45.88,71.36-48.31,0,0,46.13,26.67,56.48,19.64,1.98-1.35,4.25-3.53,6.58-6.24,9.8-11.36,20.56-31.78,15.05-36.96-6.83-6.41-11.41-6.76-11.41-6.76,0,0,.69-10.42-6.86-14.9s-14.93,5.03-17.25,2.95c-12.53-11.2-51.13-25.28-51.13-25.28"/>
            <path class="cls-16" d="m656.02,127.43c-11.24,6.98-56.16-19.52-56.16-19.52-22.15,6.72-10.41,66.76-75,52.62-28.88-6.32-56.71-25.9-84.6-57.44h0c73.96,35.18,118.82-3.98,130.04-20.69,11.21-16.71,23.92-7.18,23.92-7.18,3.19,1.49,7.78,4.31,13.02,7.68,2.94,1.89,6.09,3.94,9.31,6.03.75.49,1.5.98,2.25,1.47,3.06,1.98,6.15,3.95,9.17,5.8,7.05,4.35,13.7,8.03,18.52,9.57,13.5,4.29,20.65,5.15,29.04-4.61-2.33,2.7-6.84,18.41-19.49,26.28Z"/>
            <path class="cls-29" d="m598.04,37.38c-3.37,6.71-1.13,14.56,5.01,17.53,6.14,2.97,13.85-.06,17.22-6.77,3.37-6.71,1.13-14.56-5.01-17.53s-13.85.06-17.22,6.77Z"/>
            <path class="cls-26" d="m599.88,39.41c-2.67,5.32-.9,11.54,3.97,13.9,4.87,2.35,10.98-.05,13.65-5.37,2.67-5.32.9-11.54-3.97-13.9-4.87-2.36-10.98.05-13.65,5.37Z"/>
            <path class="cls-29" d="m613.92,41.99c-.94,1.87-.32,4.07,1.4,4.9s3.87-.02,4.81-1.89c.94-1.87.32-4.07-1.4-4.9-1.71-.83-3.87.02-4.81,1.89Z"/>
            <path class="cls-31" d="m603.62,60.95s6.33-17.28-13.42-20.64c0,0-6.38,17.25,13.42,20.64Z"/>
            <path class="cls-24" d="m598.9,54.93c2.28-2.25-4.83-9.71-7.72-7.52-2.9,2.19,4.52,10.69,7.72,7.52Z"/>
            <g>
              <path class="cls-32" d="m415.48,120.22c1.46-5.6.86-3.93,2.9-9.58,2.04-5.64,2.88-8.64,8.99-9.1,4.17-.32,7.03-.1,11.35,1.24s7.65,2.54,12.12,4.63c1.26.58,2.44,1.16,3.51,1.73,1.34-2.13,2.91-4.12,4.67-5.96,2.13-2.21,4.52-4.2,7.12-5.9,2.53-1.68,5.24-3.09,8.06-4.18,4.76-1.85,9.83-2.83,14.81-2.73,13.44.27,25.93,8.12,31.85,19.19,5.13,9.57,5.54,15.72,3.29,21.05-1.59,3.8-4.51,7.2-8.03,11.13-1.04,1.16-2.13,2.38-3.26,3.66-3.68,4.21-7.43,8.73-11.52,12.54-2.62,2.44-5.38,4.58-8.37,6.15-3.09,1.63-6.41,2.64-10.07,2.75-1.04.03-2.29-.11-3.69-.41-5.35-1.12-12.96-4.45-20.56-8.98-12.36-7.38-21.84-23.6-24.02-32.99"/>
              <path class="cls-17" d="m455.06,145.73c-.82-1-2.23-1.11-2.78.75-.38,1.3.41,3.29,1.86,3.25.92-.02,1.49-1.1,1.54-2.04.04-.78-.22-1.47-.62-1.95Z"/>
              <path class="cls-17" d="m459.11,119.25c-1.17-.62-2.57-.24-2.4,1.62.12,1.31,1.63,2.83,3.01,2.3.88-.33,1.03-1.5.72-2.37-.25-.72-.76-1.25-1.33-1.55Z"/>
              <path class="cls-17" d="m490.23,132.98c-1.11.92-1.4,2.31.64,3.13,2.14.85,5.73-.62,4.2-2.87-1.2-1.76-3.56-1.32-4.84-.26Z"/>
              <path class="cls-17" d="m484.1,132.35c.15.64-.26,1.34-1.66,1.73-.86.24-1.87-.06-2.28-.71-.41-.65-.13-1.59.63-2.02,1.45-.81,3.06.01,3.3,1Z"/>
              <path class="cls-17" d="m511.44,118.83c1.24-.11,2.15-1.03,1.06-2.27-.77-.87-2.74-1.23-3.55-.21-.52.65-.04,1.54.65,2.01.57.39,1.25.53,1.85.47Z"/>
              <path class="cls-24" d="m516.12,141.75c-.95-.59-1.98-1.08-3.01-1.49-3.13-1.22-6.54-1.92-9.39-3.59-4.1-2.41-6.7-6.64-10.92-8.84-4.97-2.59-11.44-2.01-16.47-4.51-.87-.43-1.79-1.22-1.48-2.16.22-.69,1-1.1,1.71-1.37,7.49-2.88,15.51-.65,22.78,1.59,8.42,2.6,17.16,5.12,24.83,9.24-1.59,3.8-4.51,7.2-8.03,11.13Z"/>
              <path class="cls-24" d="m482.46,104.23c-1.55-1.51-2.88-3.21-4.56-4.57-4-3.22-7.74-2.69-11.75-2.37,2.53-1.68,5.24-3.09,8.06-4.18,2.66,1.19,5.29,2.39,7.85,3.55,5.2,2.36,16.68,6.68,18.16,12.7,2.25,9.23-15.19-2.66-17.74-5.14Z"/>
              <path class="cls-24" d="m501.34,157.94c-2.62,2.44-5.38,4.58-8.37,6.15-.64-1.13-1.16-2.33-1.63-3.53-1.42-3.65-2.49-7.56-5.03-10.53-1.74-2.06-3.33-1.07-5.19-3.03-1.87-1.95-.04-6.05-3.3-9.85-.31-3.12,5.9,1.1,7.88,4.41,2.25,3.78,5.93,4.63,8.32,8.33,1.97,3.05,4.45,5.77,7.32,8.07Z"/>
              <path class="cls-24" d="m479.21,166.42c-5.35-1.12-12.96-4.45-20.56-8.98.64-3.78,5.21-4.28,2.87-7.12-1.55-1.89.12-5.83.28-7.05.17-1.24-1.87-3.27-.62-3.69,1.18-.41,2.46.11,3.24.96.76.85,1.14,1.97,1.51,3.05,1.16,3.49,2.4,7.01,4.51,10,.98,1.41,2.14,2.67,3.18,4.03,1.48,1.93,4.08,5.44,5.6,8.81Z"/>
              <path class="cls-24" d="m469.43,125.01c-5.31-3.04-8.52-12.49-15.08-15.86,1.34-2.13,2.91-4.12,4.67-5.96.76.5,1.57,2.74,2.33,3.25,1.67,1.13,2.06,1.83,4.01,2.54,3.9,1.41.69,5.37.79,6.41.33,3.33,1.23,3.17,3.21,5.81,2.34,2.61.89,4.3.06,3.83Z"/>
            </g>
            <path class="cls-29" d="m624.78,49.59c-3.37,6.71-1.13,14.56,5.01,17.53,6.14,2.97,13.85-.06,17.22-6.77,3.37-6.71,1.13-14.56-5.01-17.53-6.14-2.97-13.85.06-17.22,6.77Z"/>
            <path class="cls-26" d="m626.62,51.62c-2.67,5.32-.9,11.54,3.97,13.9,4.87,2.35,10.98-.05,13.65-5.37,2.67-5.32.9-11.54-3.97-13.9-4.87-2.36-10.98.05-13.65,5.37Z"/>
            <path class="cls-29" d="m640.66,54.2c-.94,1.87-.32,4.07,1.4,4.9s3.87-.02,4.81-1.89c.94-1.87.32-4.07-1.4-4.9-1.71-.83-3.87.02-4.81,1.89Z"/>
            <path class="cls-26" d="m658.24,69.06c-5.54-.66-7.24,11.29-3.16,12.36,4.08,1.07,7.14-11.88,3.16-12.36Z"/>
            <path class="cls-26" d="m681.24,82.71c3.23,4.55-6.44,11.77-9.33,8.7s7-11.97,9.33-8.7Z"/>
            <path class="cls-31" d="m624.02,67.16s10.72-12.42,25.45.9c0,0-10.66,12.45-25.45-.9Z"/>
            <path class="cls-24" d="m632.2,67.82c.43-3.15,10.79-2.15,10.78,1.44,0,3.58-11.39,2.99-10.78-1.44Z"/>
            <path class="cls-24" d="m533.9,76.6c-1.52,1.92-1.18,4.1,3.17,4.25,4.58.16,10.43-3.84,6.13-6.35-3.37-1.97-7.56-.11-9.3,2.1Z"/>
            <path class="cls-24" d="m530.16,78.51c.48.92-.14,1.98-2.77,2.62-1.62.39-3.67,0-4.65-.93s-.7-2.33.69-2.99c2.62-1.25,6-.14,6.74,1.3Z"/>
            <path class="cls-24" d="m576.55,57.19c.68.29.99,1.13.27,2.63-.44.92-1.46,1.61-2.35,1.54-.88-.07-1.51-.95-1.3-1.91.39-1.82,2.33-2.7,3.38-2.25Z"/>
            <path class="cls-24" d="m453.9,48.47c-3.12-1.42-5.78-.72-3.62,3.26,1.52,2.79,6.25,6.14,8.72,5.13,1.57-.64.76-3.11-.73-4.98-1.24-1.54-2.86-2.73-4.37-3.41Z"/>
            <path class="cls-24" d="m441.42,43.41c2.42,1.22,4.69.74,3.32-2.52-.96-2.28-4.5-5.1-6.64-4.36-1.36.47-.96,2.48.08,4.02.85,1.27,2.06,2.27,3.24,2.86Z"/>
            <path class="cls-29" d="m616.53,88.93c-2.48,2.75-8.15,8.61-10.45,7.63-2.01-.86.42-10.85,1.14-13.66,2.94,1.89,6.09,3.94,9.31,6.03Z"/>
            <path class="cls-29" d="m627.95,96.19c-2.67,3.05-8.31,9.04-10.54,8.1-1.9-.82.43-10.36,1.37-13.9,3.06,1.98,6.15,3.95,9.17,5.8Z"/>
          </g>
          <g>
            <path class="cls-3" d="m532.55,116.96l-3.2,2.51c.41.48.87.74,1.37.79.49.06.96-.09,1.43-.46.4-.31.65-.71.72-1.2.06-.49-.04-1.03-.32-1.65Zm6.72-7.67c-.4-.4-.83-.62-1.29-.65-.45-.02-.92.16-1.4.53-.44.34-.71.72-.79,1.13-.08.42.01.9.28,1.49l3.19-2.5Zm-15.67,12.24l2.75-2.15-.06-.07c-1.17-1.5-1.78-2.89-1.81-4.14-.04-1.24.5-2.3,1.63-3.18.63-.49,1.28-.73,1.94-.72s1.19.27,1.59.77c.37.47.51,1,.41,1.59-.09.58-.39,1.06-.88,1.45-.39.3-.76.46-1.14.49-.38.04-.73-.07-1.08-.3-.01.42.06.84.22,1.23.15.41.39.81.72,1.22l.23.29,3.68-2.87c-.85-2.02-1.2-3.66-1.07-4.9.14-1.23.79-2.31,1.95-3.22,1.36-1.06,2.8-1.53,4.33-1.39,1.53.12,2.93.84,4.19,2.16l.6-.47c.09.31.24.61.44.87s.45.47.74.64l-.58.45c1,1.4,1.5,2.7,1.49,3.88,0,1.17-.53,2.16-1.55,2.95-.63.49-1.26.73-1.9.74-.65,0-1.16-.25-1.54-.74s-.51-.99-.42-1.53c.08-.55.35-1.02.83-1.39.28-.22.59-.36.91-.44.34-.06.69-.07,1.06,0-.02-.33-.08-.65-.21-.97-.13-.34-.34-.67-.6-1l-3.6,2.82c.9,1.95,1.27,3.6,1.12,4.92-.16,1.33-.87,2.49-2.11,3.46-1.43,1.12-2.87,1.57-4.33,1.39s-2.8-1.01-4.01-2.47l-2.75,2.15-1.17-1.5h0Z"/>
            <path class="cls-6" d="m532.55,116.96l-.33.25,3.6-7.06c0,.06-.02.1-.04.15-.08.42.01.9.28,1.49l.06-.05-3.25,6.38c-.03-.36-.15-.75-.33-1.16h0Zm-1.89,3.3h.06c.41.06.82-.04,1.22-.3l-1.58,3.09c-.3-.12-.59-.26-.89-.44l1.19-2.35Zm4.33-14.45l-3.86,7.54c-.37-1.21-.51-2.26-.42-3.11.14-1.23.79-2.31,1.95-3.22.75-.58,1.52-.98,2.32-1.21h0Zm-5.82,11.37l-2.04,4.02-2.35,1.84-.67-.85.89-1.74,1.36-1.06-.06-.07c-.15-.19-.3-.38-.42-.57l1.23-2.41c.02.05.03.11.06.17.15.41.39.81.72,1.22l.23.29,1.06-.83Zm-1.66-1.65l1.9-3.74c.08.08.16.16.23.25.37.47.51,1,.41,1.59-.09.58-.39,1.06-.88,1.45-.39.3-.76.46-1.14.49-.17.02-.35,0-.52-.04h0Zm11.48-9.37l-1.27,2.5c-.38.04-.75.21-1.14.52-.21.16-.38.33-.51.52l1.97-3.87c.32.09.64.21.95.34h0Zm3.48,2.29l-1.55,3.02c-.13-.24-.29-.47-.46-.69l-1.67,1.31,2.26-4.43c.05.04.08.09.14.13l.6-.47c.09.31.24.61.44.87.07.09.15.17.23.26h0Zm-2.2,4.29l-1.57,3.08c-.22-.39-.29-.81-.22-1.23.08-.55.35-1.02.83-1.39.28-.22.59-.36.91-.44h.06Zm-2.3,4.51l-2.59,5.07c-.77.51-1.54.85-2.32,1l4.32-8.47c.31.87.52,1.68.59,2.4Z"/>
            <path class="cls-5" d="m546.32,105c.88,1.12.68,2.75-.46,3.64s-2.75.68-3.63-.45-.69-2.76.44-3.64c1.13-.88,2.76-.69,3.64.44,0,0,0,0,0,0Zm-.84.66c.52.66.4,1.62-.27,2.14s-1.62.4-2.13-.26-.41-1.63.25-2.14,1.64-.4,2.15.26h0Z"/>
            <path class="cls-4" d="m545.6,102.26l-1.04-.25.51-2.18,1.04.25-.51,2.18Zm-.09.93l-1.28-.3c-.42-.1-.69-.53-.6-.96l.58-2.42c.1-.44.53-.71.96-.6l1.27.3c.43.11.7.54.6.96l-.56,2.42c-.1.42-.54.7-.96.6Zm1.25-5.85l-1.05-.23.51-2.19,1.04.25-.51,2.18Zm-.09.93l-1.28-.3c-.43-.09-.69-.53-.6-.96l.58-2.42c.09-.43.52-.7.96-.6l1.27.3c.43.11.7.54.6.96l-.57,2.43c-.1.42-.53.69-.96.59h0Z"/>
            <path class="cls-3" d="m544.27,105.58c-.27-.07-.43-.34-.37-.62l.7-3c.07-.27.34-.43.62-.37.28.06.45.34.38.61l-.7,3c-.07.27-.34.45-.63.38h0Zm1.16-4.92c-.28-.06-.44-.33-.38-.61l.7-3c.07-.27.35-.44.63-.38.27.07.44.35.37.62l-.7,3c-.07.27-.34.43-.62.37h0Z"/>
            <path class="cls-4" d="m547,91.93l-1.06.1-.23-2.22,1.06-.1.23,2.22Zm.22.91l-1.31.13c-.43.04-.83-.28-.88-.72l-.24-2.47c-.05-.45.27-.84.72-.88l1.3-.13c.45-.04.84.28.88.72l.25,2.48c.04.43-.28.84-.72.88Zm-.72-5.94l-1.06.12-.22-2.24,1.06-.1.23,2.22Zm.22.91l-1.31.13c-.44.05-.83-.28-.88-.72l-.24-2.47c-.05-.44.27-.83.72-.88l1.3-.13c.45-.04.84.28.88.72l.25,2.49c.04.43-.28.83-.71.86h0Z"/>
            <path class="cls-3" d="m546.81,95.51c-.28.02-.52-.18-.55-.47l-.31-3.06c-.02-.28.18-.52.47-.55.28-.03.53.17.55.45l.31,3.06c.02.28-.17.53-.47.56h0Zm-.5-5.03c-.28.03-.52-.17-.55-.45l-.31-3.06c-.02-.28.19-.53.47-.56.28-.02.53.19.55.47l.31,3.06c.02.28-.18.52-.47.55h0Z"/>
            <path class="cls-4" d="m544.86,81.48l-.99.4-.85-2.07.99-.4.85,2.07Zm.47.81l-1.22.5c-.4.16-.87-.04-1.04-.44l-.93-2.3c-.17-.42.02-.88.44-1.04l1.21-.49c.42-.16.88.03,1.04.44l.94,2.3c.16.4-.03.88-.44,1.04Zm-2.37-5.5l-.99.41-.85-2.08.99-.4.85,2.07Zm.47.81l-1.22.5c-.4.17-.87-.04-1.04-.44l-.93-2.3c-.17-.4.02-.87.44-1.04l1.21-.49c.42-.16.88.03,1.04.44l.94,2.32c.16.4-.04.87-.44,1.03h0Z"/>
            <path class="cls-3" d="m545.69,84.97c-.26.1-.55-.03-.66-.29l-1.17-2.85c-.1-.26.03-.55.29-.66.26-.11.56.02.66.28l1.16,2.85c.1.26-.02.56-.29.67h0Zm-1.9-4.69c-.26.11-.55-.02-.66-.28l-1.17-2.85c-.1-.26.03-.56.29-.67.26-.1.56.03.66.29l1.16,2.85c.1.26-.03.55-.29.66h0Z"/>
          </g>
          <g>
            <path class="cls-3" d="m594.71,153.01l-1.39,2.36c.37.2.73.25,1.05.16.32-.08.58-.29.79-.64.17-.29.23-.6.16-.93-.08-.32-.28-.64-.6-.95Zm2.34-6.46c-.35-.15-.67-.19-.97-.09-.29.1-.54.33-.75.68-.19.32-.27.63-.22.9.05.28.23.56.54.86l1.39-2.35Zm-6.83,11.52l1.2-2.03-.05-.03c-1.11-.66-1.83-1.38-2.15-2.15-.33-.77-.25-1.57.24-2.4.28-.46.62-.77,1.04-.93s.81-.12,1.19.1c.35.21.57.5.65.9.09.38.02.76-.2,1.13-.17.29-.36.47-.6.59-.23.12-.48.13-.75.07.1.27.24.51.44.72.19.22.45.41.75.59l.22.13,1.6-2.71c-1.03-1.06-1.65-2-1.87-2.81-.21-.8-.07-1.64.44-2.5.59-1,1.38-1.65,2.38-1.93.99-.3,2.04-.19,3.16.33l.26-.44c.13.17.3.32.49.44s.4.19.62.22l-.25.43c.97.64,1.6,1.33,1.89,2.07.29.73.2,1.48-.25,2.23-.28.46-.61.77-1.01.93-.41.16-.79.13-1.15-.09s-.56-.5-.64-.86c-.09-.36-.03-.73.18-1.08.12-.21.28-.37.46-.5.2-.12.42-.21.67-.26-.09-.2-.21-.39-.37-.55-.16-.18-.37-.34-.62-.48l-1.57,2.65c1.04,1.01,1.68,1.95,1.91,2.81.22.87.07,1.77-.47,2.69-.62,1.05-1.42,1.69-2.38,1.93s-2.01.05-3.12-.57l-1.2,2.03-1.11-.66h0Z"/>
            <path class="cls-6" d="m594.71,153.01l-.14.24.53-5.32s.01.07.01.1c.05.28.23.56.54.86l.03-.05-.48,4.8c-.11-.22-.28-.43-.49-.65h0Zm-.38,2.54h.04c.27-.08.5-.24.69-.5l-.23,2.33c-.22,0-.44-.02-.66-.06l.17-1.77Zm-.82-10.13l-.58,5.68c-.53-.67-.87-1.29-1.02-1.85-.21-.8-.07-1.64.44-2.5.33-.55.71-.99,1.16-1.33h0Zm-.87,8.56l-.3,3.02-1.03,1.73-.63-.37.13-1.31.59-1-.05-.03c-.14-.08-.28-.17-.41-.25l.18-1.82s.05.06.08.09c.19.22.45.41.75.59l.22.13.46-.78Zm-1.45-.63l.28-2.81c.07.03.14.06.2.1.35.21.57.5.65.9.09.38.02.76-.2,1.13-.17.29-.36.47-.6.59-.1.05-.22.09-.33.1h0Zm4.91-8.7l-.18,1.88c-.23.12-.42.32-.59.6-.09.15-.16.3-.19.45l.29-2.91c.22-.02.45-.02.68-.02h0Zm2.75.58l-.23,2.28c-.14-.12-.3-.23-.46-.32l-.73,1.23.34-3.33s.07.03.12.05l.26-.44c.13.17.3.32.49.44.07.04.14.07.21.1h0Zm-.33,3.23l-.23,2.32c-.23-.19-.38-.43-.44-.72-.09-.36-.03-.73.18-1.08.12-.21.28-.37.46-.5l.03-.02Zm-.34,3.39l-.38,3.82c-.35.51-.76.91-1.21,1.19l.63-6.37c.41.47.74.93.96,1.36Z"/>
            <path class="cls-5" d="m600.43,142.13c.83.49,1.1,1.56.61,2.4s-1.56,1.1-2.39.61-1.11-1.57-.62-2.39c.49-.83,1.56-1.11,2.4-.62,0,0,0,0,0,0Zm-.37.62c.49.29.65.92.35,1.41s-.92.65-1.4.36-.66-.92-.37-1.41.93-.65,1.42-.36h0Z"/>
            <path class="cls-4" d="m600.69,139.28l-1.08-.24.49-2.27,1.08.24-.49,2.27Zm-.08.97l-1.34-.3c-.44-.1-.73-.54-.64-.99l.56-2.52c.1-.46.54-.74.99-.64l1.33.29c.45.11.74.55.64.99l-.55,2.53c-.1.44-.55.74-.99.64Zm1.2-6.11l-1.09-.23.5-2.28,1.08.24-.49,2.27Zm-.08.97l-1.34-.3c-.45-.09-.73-.54-.64-.99l.56-2.52c.09-.45.53-.73.99-.64l1.33.29c.45.11.74.55.64.99l-.56,2.54c-.1.44-.54.73-.98.63h0Z"/>
            <path class="cls-3" d="m599.35,142.76c-.28-.07-.45-.35-.4-.64l.68-3.13c.07-.28.35-.45.64-.4.29.06.47.34.4.63l-.68,3.13c-.07.28-.34.47-.64.41h0Zm1.13-5.14c-.29-.06-.46-.34-.4-.63l.68-3.13c.07-.28.36-.47.64-.41.28.07.47.36.4.64l-.68,3.13c-.07.28-.35.45-.64.4h0Z"/>
          </g>
          <path class="cls-3" d="m601.78,131.33c.12-.27.43-.37.7-.25l2.89,1.37c.26.13.37.45.25.72-.13.26-.45.37-.71.24l-2.89-1.37c-.26-.13-.36-.44-.24-.71h0Z"/>
          <g>
            <path class="cls-4" d="m548.76,106.84l-.18,1.05,2.2.38.18-1.05-2.2-.38Zm-.89-.27l-.22,1.29c-.07.44.22.86.65.93l2.45.43c.44.07.86-.22.93-.65l.22-1.3c.07-.43-.22-.84-.65-.93l-2.45-.41c-.43-.08-.86.22-.93.65h0Zm5.87,1.13l-.19,1.05,2.22.38.18-1.05-2.2-.38Zm-.89-.27l-.22,1.29c-.08.44.22.86.65.93l2.45.43c.43.07.84-.22.93-.65l.22-1.3c.07-.43-.22-.84-.65-.93l-2.46-.41c-.43-.08-.84.22-.91.65h0Z"/>
            <path class="cls-3" d="m545.18,106.77c-.04.28.15.54.43.6l3.03.52c.28.05.53-.13.59-.41.05-.28-.14-.55-.41-.6l-3.03-.52c-.28-.05-.55.14-.6.41Zm4.98.86c-.05.28.14.55.41.6l3.03.52c.28.05.55-.14.6-.41.04-.28-.15-.54-.43-.6l-3.03-.52c-.28-.05-.53.13-.59.41Z"/>
            <path class="cls-4" d="m558.91,109.17l-.36,1,2.1.76.36-1-2.1-.76Zm-.83-.42l-.45,1.23c-.14.42.07.88.48,1.03l2.34.85c.42.14.88-.07,1.03-.48l.45-1.24c.14-.41-.07-.87-.48-1.03l-2.34-.83c-.41-.16-.88.07-1.03.48h0Zm5.59,2.13l-.37,1,2.11.76.36-1-2.1-.76Zm-.83-.42l-.45,1.23c-.16.42.07.88.48,1.03l2.34.85c.41.14.87-.07,1.03-.48l.45-1.24c.14-.41-.07-.87-.48-1.03l-2.35-.83c-.41-.16-.87.07-1.01.48h0Z"/>
            <path class="cls-3" d="m555.39,108.48c-.09.26.05.56.32.66l2.89,1.04c.26.1.55-.04.65-.3.1-.26-.04-.56-.3-.66l-2.89-1.04c-.26-.1-.56.04-.66.3Zm4.76,1.71c-.1.26.04.56.3.66l2.89,1.04c.26.1.56-.04.66-.3.09-.26-.05-.56-.32-.66l-2.89-1.04c-.26-.1-.55.04-.65.3Z"/>
            <path class="cls-4" d="m568.66,112.77l-.36,1,2.1.76.36-1-2.1-.76Zm-.83-.42l-.45,1.23c-.14.42.07.88.48,1.03l2.34.85c.42.14.88-.07,1.03-.48l.45-1.24c.14-.41-.07-.87-.48-1.03l-2.34-.83c-.41-.16-.88.07-1.03.48h0Zm5.59,2.13l-.37,1,2.11.76.36-1-2.1-.76Zm-.83-.42l-.45,1.23c-.16.42.07.88.48,1.03l2.34.85c.41.14.87-.07,1.03-.48l.45-1.24c.14-.41-.07-.87-.48-1.03l-2.35-.83c-.41-.16-.87.07-1.01.48h0Z"/>
            <path class="cls-3" d="m565.14,112.07c-.09.26.05.56.32.66l2.89,1.04c.26.1.55-.04.65-.3.1-.26-.04-.56-.3-.66l-2.89-1.04c-.26-.1-.56.04-.66.3Zm4.76,1.71c-.1.26.04.56.3.66l2.89,1.04c.26.1.56-.04.66-.3.09-.26-.05-.56-.32-.66l-2.89-1.04c-.26-.1-.55.04-.65.3Z"/>
            <path class="cls-4" d="m578.32,116.26l-.36,1,2.1.76.36-1-2.1-.76Zm-.83-.42l-.45,1.23c-.14.42.07.88.48,1.03l2.34.85c.42.14.88-.07,1.03-.48l.45-1.24c.14-.41-.07-.87-.48-1.03l-2.34-.83c-.41-.16-.88.07-1.03.48h0Zm5.59,2.13l-.37,1,2.11.76.36-1-2.1-.76Zm-.83-.42l-.45,1.23c-.16.42.07.88.48,1.03l2.34.85c.41.14.87-.07,1.03-.48l.45-1.24c.14-.41-.07-.87-.48-1.03l-2.35-.83c-.41-.16-.87.07-1.01.48h0Z"/>
            <path class="cls-3" d="m574.8,115.57c-.09.26.05.56.32.66l2.89,1.04c.26.1.55-.04.65-.3.1-.26-.04-.56-.3-.66l-2.89-1.04c-.26-.1-.56.04-.66.3Zm4.76,1.71c-.1.26.04.56.3.66l2.89,1.04c.26.1.56-.04.66-.3.09-.26-.05-.56-.32-.66l-2.89-1.04c-.26-.1-.55.04-.65.3Z"/>
            <path class="cls-4" d="m588.01,119.64l-.36,1,2.1.76.36-1-2.1-.76Zm-.83-.42l-.45,1.23c-.14.42.07.88.48,1.03l2.34.85c.42.14.88-.07,1.03-.48l.45-1.24c.14-.41-.07-.87-.48-1.03l-2.34-.83c-.41-.16-.88.07-1.03.48h0Z"/>
            <path class="cls-3" d="m584.49,118.95c-.09.26.05.56.32.66l2.89,1.04c.26.1.55-.04.65-.3.1-.26-.04-.56-.3-.66l-2.89-1.04c-.26-.1-.56.04-.66.3Zm4.76,1.71c-.1.26.04.56.3.66l2.89,1.04c.26.1.56-.04.66-.3.09-.26-.05-.56-.32-.66l-2.89-1.04c-.26-.1-.55.04-.65.3Z"/>
          </g>
          <path class="cls-15" d="m550.83,75.27c-1.08,3.04-3.5,34.93-3.09,39.28.41,4.34,29.77,12.87,32.09,12.28,1.67-.42,4.17-6,7-5.73,2.83.26,2.02,6.84,3.27,6.65,1.97-.31,1-6,1-6,0,0,1.81,4.2,2.82,3.71,1.75-.85.03-8.45-1.55-10.34-1.59-1.88-6.37-2.21-7.56-2.13-1.19.08-6.89,6.58-6.89,6.58,0,0-19.95-9.79-20.33-10.33-.39-.54,4.7-24.66,6.41-29.75,2.02-6.05-8.92-16.14-13.15-4.22Z"/>
          <g>
            <g>
              <path class="cls-11" d="m441.05,105.7c-1.57-3.55-6.16-11.92-10.81-17.24-4.64-5.32-6.97-8.89-12.17-4.75-5.2,4.14-27.3,22.81-30.75,26.73-3.45,3.92-11.66,14.9-8.55,18.11,3.11,3.21,6.56,3.58,9.09,1.86,2.53-1.72,7.24-2.42,10.77-3.68s11.96-4.84,13.37-4.36c1.41.47,15.15,5.31,17.94,4.53,1.28-.36,2.73-5.66,5.08-10.26,2.76-5.41,6.33-10.26,6.03-10.93Z"/>
              <path class="cls-21" d="m387.87,130.41c1.78-1.21,3.55-1.14,6.93-2.58.18-.55.59-.62,1.27-.94,1.4-.68,3.34-.95,4.25-2.34.6-.91.62-2.01,1.33-2.84.87-1.01,2.63-1.46,3.85-1.84,1.44-.44,2.9-.76,4.38-1.02,1.66-.3,3.65-.41,5.2-1.09,1.94-.85,3.67-3.38,4.29-5.24.09-.27.51-.18.53.08.13,1.65-.73,4.18.45,5.46.99,1.07,2.31,1.68,3.67,2.15,2.71.92,5.5,2.04,8.35,2.48.75-1.83,1.62-4,2.66-6.05,2.76-5.41,6.33-10.26,6.03-10.93-1.57-3.55-6.16-11.92-10.81-17.24-4.64-5.32-6.53-8.47-11.73-4.33-5.2,4.14-27.39,22.56-30.84,26.48-3.45,3.92-12.01,14.74-8.9,17.95,3.11,3.21,6.56,3.58,9.09,1.86Z"/>
              <path class="cls-8" d="m396.06,126.89c.42-.21.9-.37,1.38-.55-.05-.37-.1-.74-.17-1.1-.16-.82-.38-2.09-1.16-2.58-1.16-.73-2.73.52-3.58,1.23-1.65,1.37-.89.7-2.37,2.23-.84.87-1.83,1.77-2.32,2.9-.23.53-.32,1.06-.29,1.58.11-.06.2-.16.32-.19,2.31-.72,3.55-1.14,6.93-2.58.18-.55.59-.62,1.27-.94Z"/>
              <path class="cls-19" d="m436.86,99.16c-1.82.05-4.08,1.01-5.82,1.51-3.44.99-6.29,2.99-8.54,5.84-1.95,2.46-2.9,4.46-3.66,7.42.15,1.47.48,3.02,1.5,4.12.99,1.07,2.31,1.68,3.67,2.15,2.71.92,5.5,2.04,8.35,2.48.75-1.83,1.62-4,2.66-6.05,2.76-5.41,6.33-10.26,6.03-10.93-.67-1.51-1.88-3.9-3.42-6.55-.25,0-.51,0-.77.01Z"/>
              <path class="cls-10" d="m422.58,107.94c2.4-3.18,5.73-5.26,9.3-6.55,1.81-.65,3.69-1.15,5.56-1.32.23-.02.45-.04.68-.05-.16-.28-.32-.57-.49-.86-.25,0-.51,0-.77.01-1.82.05-3.63.4-5.37.9-3.44.99-6.38,2.97-8.89,5.6-2.87,3.01-3.73,7.13-4.49,10.09.04.41.83-1,.91-.59.81-2.55,1.89-5.01,3.57-7.23Z"/>
              <path class="cls-19" d="m386.99,130.9c-.08-.63-.02-1.26.25-1.89.63-1.42,1.79-2.45,2.82-3.58,1.46-1.6.78-1,2.54-2.28,1.58-1.16,3.8-2.06,4.74.3.34.87.5,1.78.61,2.7.93-.35,1.83-.79,2.36-1.61.54-.82.61-1.79,1.14-2.58-.5-6.47-1.31-12.85-2.7-19.24-.13-.61-.25-1.22-.37-1.83-5.03,4.32-9.35,8.15-10.72,9.71-3.45,3.92-12.01,14.74-8.9,17.95,2.77,2.85,5.8,3.46,8.21,2.35Z"/>
              <path class="cls-10" d="m398.36,105.19c1.29,5.95,2.08,11.89,2.58,17.89.13-.38.28-.76.51-1.11-.5-6.47-1.31-12.85-2.7-19.24-.13-.61-.25-1.22-.37-1.83-.33.28-.65.56-.97.83.46,1.65.88,3.18.94,3.46Z"/>
              <path class="cls-19" d="m403.88,101.82c2.55,1.61,5.14,2.29,8.1,1.43,2.41-.7,4.62-1.88,6.79-3.12,3.35-1.91,6.89-4.17,10.68-5.08,2.15-.52,4.13-.34,5.93.42-1.6-2.49-3.37-4.98-5.15-7.02-4.64-5.32-6.53-8.47-11.73-4.33-2.88,2.3-11.01,9-18.26,15.18,1.19.87,2.39,1.74,3.63,2.52Z"/>
              <path class="cls-10" d="m429.02,94.15c-3.89.9-7.51,3.19-10.94,5.13-2.22,1.26-4.48,2.45-6.95,3.14-3.04.86-5.71.13-8.36-1.56-.82-.52-1.62-1.08-2.42-1.66-.03.03-.07.06-.1.09,1.19.87,2.39,1.74,3.63,2.52,2.55,1.61,5.14,2.29,8.1,1.43,2.41-.7,4.62-1.88,6.79-3.12,3.35-1.91,6.89-4.17,10.68-5.08,2.15-.52,4.13-.34,5.93.42-.21-.32-.42-.65-.63-.97-1.76-.68-3.67-.82-5.73-.35Z"/>
              <path class="cls-28" d="m382.13,130.91c.4-4.87,6.99-12.81,10.09-16.21,3.61-3.96,26.69-22.61,32.09-26.8,1.49-1.16,2.71-1.75,3.8-1.9-3.24-3.7-5.27-5.31-9.6-1.87-5.2,4.14-27.39,22.56-30.84,26.48-3.45,3.92-12.01,14.74-8.9,17.95,1.09,1.13,2.23,1.9,3.36,2.36Z"/>
              <path class="cls-11" d="m389.34,111.04c.22.38.45.77.67,1.15,0,0,0,0,0,0,3.67-3.87,27.08-22.06,32.56-26.14,1.51-1.13,2.75-1.7,3.85-1.83-.35-.4-1.24-1.07-1.24-1.07-1,.21-1.9.72-3.25,1.72-5.47,4.08-28.89,22.27-32.56,26.14-.01.01-.03.03-.04.04Z"/>
              <path class="cls-11" d="m392.71,111.59c1.05-1.97.44-3.8-.35-5.64-2.28,2.03-4.02,3.66-4.8,4.54-3.45,3.92-12.01,14.74-8.9,17.95.86.88,1.74,1.54,2.62,2.01.84-7.78,10.72-17.55,11.42-18.86Z"/>
              <path class="cls-8" d="m412.98,115.18c.24-3.18,1.21-7.36,1.57-9.33.35-1.97-11.92.29-11.72,3.41.2,3.11,1.66,8.53,1.66,8.53l8.49-2.61Z"/>
              <path class="cls-8" d="m433,116.08c1.84-2.75,5.51-8.46,4.76-10.14s-5-3.94-7.94-.95c-2.94,2.99-6.06,9.75-4.04,10.59s5.89,2.5,7.22.51Z"/>
              <path class="cls-12" d="m427.97,120.73c-.86-.44-1.33-1.24-1.06-1.78.28-.54,1.2-.62,2.06-.18s1.33,1.24,1.06,1.78c-.28.54-1.2.62-2.06.18Z"/>
              <path class="cls-12" d="m423.21,118.57c-.86-.44-1.33-1.24-1.06-1.78.28-.54,1.2-.62,2.06-.18s1.33,1.24,1.06,1.78c-.28.54-1.2.62-2.06.18Z"/>
              <path class="cls-12" d="m416.32,116.12c-.75-.12-1.29-.6-1.22-1.07.08-.47.74-.75,1.49-.63.75.12,1.29.6,1.21,1.07-.08.47-.74.75-1.49.63Z"/>
              <path class="cls-12" d="m411.93,117.95c-.75.11-1.41-.19-1.48-.66-.07-.47.48-.94,1.23-1.05.75-.11,1.41.19,1.48.66.07.47-.48.94-1.23,1.05Z"/>
              <path class="cls-12" d="m407.29,119.38c-.72.22-1.42.04-1.56-.42-.14-.45.33-1.01,1.05-1.23.72-.22,1.42-.04,1.56.42.14.45-.33,1.01-1.05,1.23Z"/>
              <path class="cls-12" d="m403.54,120.46c-.72.22-1.42.04-1.56-.42-.14-.45.33-1.01,1.05-1.23.72-.22,1.42-.04,1.56.42s-.33,1.01-1.05,1.23Z"/>
              <path class="cls-11" d="m439.08,106.43c.3.68-3.27,5.53-6.03,10.93-1.92,3.76-3.23,7.98-4.35,9.6.51.03.94.01,1.24-.07,1.28-.36,2.73-5.66,5.08-10.26,2.76-5.41,6.33-10.26,6.03-10.93-.48-1.08-1.24-2.62-2.2-4.38-.18,2.17-.25,4.01.24,5.11Z"/>
              <path class="cls-8" d="m424.6,126.79c-.25-.11-.38-.36-.29-.54l3.09-7.02c.09-.18.35-.24.6-.13l1.11.52c.25.11.38.36.29.54l-3.09,7.02c-.09.18-.35.24-.6.13l-1.11-.52Z"/>
              <path class="cls-8" d="m420.13,125.78c-.25-.09-.4-.32-.33-.51l2.77-8.29c.07-.19.33-.27.59-.18l1.15.42c.25.09.4.32.33.51l-2.77,8.29c-.07.19-.33.27-.59.18l-1.15-.42Z"/>
              <path class="cls-8" d="m414.79,124.25c-.27-.04-.46-.23-.43-.44l1.04-8.68c.03-.2.27-.33.54-.29l1.21.18c.27.04.46.23.43.44l-1.04,8.68c-.03.2-.27.33-.54.29l-1.21-.18Z"/>
              <path class="cls-8" d="m411.04,123.26c-.27,0-.49-.18-.48-.38l.08-5.73c0-.2.23-.36.5-.36l1.23.03c.27,0,.49.18.48.38l-.08,5.73c0,.2-.23.36-.5.36l-1.23-.03Z"/>
              <path class="cls-8" d="m407.92,123.97c-.26.07-.52-.04-.57-.24l-1.31-4.94c-.05-.2.12-.41.39-.48l1.19-.3c.26-.07.52.04.56.24l1.31,4.94c.05.2-.12.41-.39.48l-1.19.3Z"/>
              <path class="cls-8" d="m404.54,124.99c-.26.09-.52,0-.58-.19l-1.74-4.81c-.07-.19.09-.42.34-.51l1.16-.4c.26-.09.52,0,.58.19l1.74,4.81c.07.19-.09.42-.34.51l-1.16.4Z"/>
              <path class="cls-12" d="m399.55,122.17c-.66.37-1.38.32-1.61-.09-.23-.42.12-1.05.78-1.42.66-.37,1.38-.32,1.61.09s-.12,1.05-.78,1.42Z"/>
              <path class="cls-8" d="m400.99,126.56c-.25.11-.52.05-.6-.13l-2.17-4.63c-.08-.19.05-.43.3-.54l1.12-.5c.25-.11.52-.05.6.13l2.17,4.63c.08.19-.05.43-.3.54l-1.12.5Z"/>
            </g>
            <g>
              <path class="cls-7" d="m411.27,108.52c.06.05.11.1.17.15.22.17.46.22.72.11.28-.12.38-.37.37-.63,0-.36-.09-.71-.38-.97-.24-.21-.6-.2-.8.04-.06.07-.09.2-.08.29.01.14.07.28.12.45l-.37.1c0-.06,0-.12-.02-.18-.06-.2-.16-.4.03-.6.24-.25.51-.43.87-.41.56.03.92.43.99,1.08.04.41-.29.87-.74.99-.29.08-.58.03-.82-.15-.07-.05-.09-.16-.14-.24.03-.01.05-.03.08-.04Z"/>
              <path class="cls-7" d="m405.15,109.28c.02-.13,0-.29.07-.4.22-.37.69-.54,1.15-.44.39.09.68.47.75.99.05.39-.15.78-.51.97-.28.15-.58.14-.87.06-.18-.05-.31-.17-.28-.44.07.06.13.1.18.15.23.19.48.27.76.14.27-.13.4-.36.36-.65-.04-.27-.1-.56-.24-.79-.25-.43-.87-.37-1.12.08-.06.11-.11.23-.16.34-.03,0-.06-.01-.09-.02Z"/>
              <path class="cls-7" d="m407.15,108.74c-.14-.16-.11-.28,0-.42.29-.38.78-.53,1.19-.37.43.17.72.7.67,1.19-.07.73-.86,1.03-1.47.76-.11-.05-.15-.24-.22-.36.02-.01.04-.02.06-.03.11.08.21.18.32.25.32.2.75.07.91-.27.17-.38.02-1-.32-1.26-.35-.27-.77-.18-.98.21-.05.09-.09.19-.15.31Z"/>
              <path class="cls-7" d="m409.48,109.6c-.13-.48-.24-.86-.34-1.24-.12-.45.06-.8.45-.91.45-.13.8.05.95.5.07.2.11.4.17.6.05.2.11.39.16.6l-.29.08c-.11-.4-.21-.79-.33-1.19-.1-.36-.32-.49-.65-.4-.3.08-.44.35-.35.69.09.35.2.7.29,1.05.01.05-.03.11-.07.22Z"/>
              <path class="cls-7" d="m405.27,110.69l-.33.09-.51-1.86.33-.09c.17.62.34,1.23.51,1.86Z"/>
            </g>
            <g>
              <path class="cls-18" d="m426.74,89.77c.07.03.13.07.2.1.26.11.5.1.73-.07.24-.18.27-.45.2-.7-.09-.35-.27-.67-.61-.84-.28-.14-.63-.04-.77.24-.04.08-.03.21,0,.3.05.14.14.26.23.4l-.34.19c-.02-.06-.03-.12-.07-.17-.11-.18-.26-.35-.12-.59.17-.3.38-.54.74-.62.54-.11,1,.18,1.24.8.15.39-.06.92-.46,1.15-.26.15-.55.18-.84.06-.08-.03-.13-.13-.19-.19.02-.02.04-.04.07-.06Z"/>
              <path class="cls-18" d="m421.02,92.05c-.01-.13-.06-.28-.03-.4.11-.41.53-.7,1-.72.4-.02.77.28.97.77.15.36.05.79-.25,1.07-.23.21-.53.28-.83.28-.19,0-.34-.08-.38-.35.08.04.15.07.21.1.27.12.53.14.77-.06.23-.19.3-.45.18-.72-.11-.25-.24-.51-.43-.7-.35-.35-.94-.14-1.06.37-.03.12-.05.25-.07.37-.03,0-.06,0-.09,0Z"/>
              <path class="cls-18" d="m422.82,91.02c-.17-.11-.18-.24-.11-.4.18-.44.62-.71,1.06-.66.46.06.87.49.95.98.12.72-.57,1.21-1.23,1.11-.11-.02-.21-.19-.31-.29.02-.02.03-.03.05-.05.13.05.25.12.38.16.36.11.74-.12.81-.49.07-.41-.24-.97-.63-1.14-.41-.17-.79.02-.9.45-.03.1-.04.21-.06.33Z"/>
              <path class="cls-18" d="m425.28,91.27c-.25-.43-.45-.77-.64-1.11-.23-.41-.15-.78.2-.99.4-.24.79-.15,1.05.24.11.17.21.36.31.54.1.18.2.35.31.54l-.26.15c-.21-.36-.41-.71-.62-1.07-.19-.32-.44-.39-.73-.22-.27.15-.34.45-.17.75.18.32.37.63.55.95.02.04,0,.12,0,.23Z"/>
              <path class="cls-18" d="m421.48,93.39l-.3.17-.96-1.67.3-.17.96,1.67Z"/>
            </g>
          </g>
          <g>
            <path class="cls-7" d="m545.25,149.34c.05-.05.1-.1.15-.15.17-.2.24-.43.14-.69-.1-.27-.33-.38-.58-.39-.34-.02-.68.05-.94.31-.21.22-.22.56,0,.77.06.06.18.09.27.09.14,0,.27-.05.43-.09l.08.36c-.06,0-.12,0-.17,0-.2.04-.39.13-.57-.06-.23-.24-.38-.51-.35-.85.05-.53.46-.86,1.08-.89.4-.02.82.32.91.76.06.28,0,.55-.19.78-.05.06-.15.08-.23.12-.01-.03-.02-.05-.04-.08Z"/>
            <path class="cls-7" d="m545.67,155.21c-.13-.03-.27-.02-.37-.09-.34-.22-.48-.69-.36-1.12.1-.37.48-.62.98-.66.37-.03.74.19.9.53.13.27.1.56.02.83-.05.17-.17.28-.43.24.06-.07.11-.11.15-.16.19-.21.28-.44.17-.72-.11-.27-.33-.4-.6-.38-.26.03-.54.07-.77.19-.42.22-.4.82.02,1.07.1.06.21.11.32.17,0,.03-.02.06-.02.08Z"/>
            <path class="cls-7" d="m545.25,153.27c-.15.12-.27.09-.4-.02-.34-.29-.47-.77-.29-1.15.18-.41.7-.65,1.17-.58.69.1.94.87.65,1.44-.05.1-.23.13-.36.19,0-.02-.02-.04-.03-.06.09-.1.18-.19.26-.3.21-.3.1-.71-.21-.88-.36-.18-.95-.07-1.22.24-.28.32-.21.73.15.95.09.05.18.1.28.15Z"/>
            <path class="cls-7" d="m546.19,151.1c-.46.1-.83.18-1.2.26-.44.09-.76-.1-.84-.47-.1-.43.09-.76.53-.88.19-.05.39-.09.58-.13.19-.04.38-.08.58-.13l.06.28c-.38.08-.77.16-1.15.25-.35.08-.48.28-.42.6.06.29.31.44.64.37.34-.07.68-.16,1.02-.22.05,0,.11.04.2.07Z"/>
            <path class="cls-7" d="m547.02,155.17l.07.32-1.8.39-.07-.32,1.8-.39Z"/>
          </g>
          <g>
            <g class="cls-33">
              <path class="cls-7" d="m638.39,63.87l.92,1.85s0-.02-.01-.03l-.92-1.85s0,.02.01.03Z"/>
              <path class="cls-7" d="m661.64,65.29l.82-1.51m-70.52,5.48l-1.63-4.03c-2.72-6.72,4.62-15.27,5.13-15.87l1.6,4.01c-.51.6-7.81,9.19-5.11,15.89h0Z"/>
              <path class="cls-7" d="m629.51,77.48l-1.48-3.79c-1.63-4.16.24-9.57,1.81-12.95.01-.04.2-.65.03-1.09l1.47,3.79c.17.43-.02,1.04-.03,1.09-1.57,3.39-3.42,8.8-1.8,12.95Z"/>
              <path class="cls-7" d="m638.43,80.86c-3.18-.65-5.26-2.6-6.21-5.05l-1.47-3.77c.95,2.45,3.04,4.42,6.23,5.09,9.03,1.9,19.82-7.72,17.54-13.75l1.37,3.63c2.28,6.03-8.48,15.69-17.46,13.85h0Z"/>
              <path class="cls-7" d="m626.64,60.61l-1.48-3.82c1.59-.57,6.26.44,6.8,1.62l1.46,3.78c-.55-1.19-5.21-2.15-6.78-1.58Z"/>
              <path class="cls-7" d="m602.3,73.46c-3.47-.71-5.67-2.67-6.66-5.13l-1.61-4c.99,2.47,3.2,4.45,6.68,5.18,9.85,2.07,22.66-7.44,20.09-14.03l1.5,3.85c2.57,6.58-10.21,16.15-20.01,14.14Z"/>
              <path class="cls-7" d="m624.93,56.12l1.49,3.82c-.65-1.68-2.93-6-9.65-7.62l-1.52-3.89c6.74,1.67,9.03,6,9.68,7.68h0Z"/>
              <path class="cls-7" d="m663.08,65.4l-1.31,2.43-1.5.28c-.3.84-6.06,16.98-22.28,14.85-9.8-1.29-11.2-8.69-6.69-18.43.02-.05.33-1.06-.22-1.41-.55-.34-2.8-.86-3.59-.83-.78.04-1.58.94-1.63.99-6.06,8.64-15.01,14.95-25.55,12.09-17.85-4.85-3.99-21.16-3.28-22l-1.09-.95,1.65-2.64c5.45,1.05,11.5.69,19.16,2.54,8.18,1.98,9.79,7.98,9.87,8.29,1.59-.58,6.24.4,6.78,1.58,4.25-2.29,10.43-3.49,15.57-2.07,7.57,2.08,9.79,4.03,14.1,5.28h0Zm-60.78,8.06c7.22,1.48,16.11-3.33,19.23-8.66,3.08-5.26-.52-9.23-7.46-10.88-7.09-1.69-13.98-.01-17.34,5.41-3.4,5.5-1.82,12.62,5.57,14.13m36.13,7.4c11.63,2.38,26.9-14.73,10.39-18.66-6.35-1.51-12.84,0-15.8,5.18-3,5.25-1.19,12.13,5.41,13.48"/>
              <path class="cls-7" d="m633.42,62.19l-1.46-3.78c4.27-2.26,10.47-3.43,15.63-1.98,7.6,2.13,9.83,4.09,14.15,5.38l1.35,3.59c-4.31-1.25-6.53-3.2-14.1-5.28-5.19-1.43-11.37-.19-15.57,2.07Z"/>
              <path class="cls-7" d="m595.96,52.42l-1.61-4.01,1.66-2.63,1.6,4.01-1.65,2.64Z"/>
              <path class="cls-7" d="m597.61,49.78l-1.6-4.01c5.47,1.09,11.54.76,19.23,2.66l1.52,3.89c-7.8-1.89-13.61-1.47-19.16-2.54Z"/>
              <path class="cls-7" d="m614.07,53.92c-6.44-1.52-13.74-.42-17.34,5.41-1.49,2.41-2.02,5.14-1.52,7.59.95,4.54,4.94,6.49,8.77,6.77,6.84.48,14.64-3.93,17.54-8.89,3.3-5.62-1.15-9.39-7.46-10.88Zm34.75,8.28c-5.74-1.37-12.62-.39-15.8,5.18-3.09,5.41-1.04,12.17,5.41,13.48,6.2,1.3,13.86-3.1,16.75-8.43,2.94-5.43-.72-8.88-6.36-10.23Z"/>
              <g>
                <path class="cls-7" d="m656.16,68.02l-11.06,12.36c-1.21.39-2.46.63-3.75.69l13.83-15.35c.52.7.85,1.46.98,2.3Zm-1.97-3.34l-14.77,16.34c-2.73-.25-5.73-1.73-7.1-4.95l13.27-14.37c2.58.19,6.33,1.03,8.6,2.98Z"/>
                <path class="cls-7" d="m622.04,58.74l-14.33,14.78c-1.21.2-2.45.26-3.71.18l16.46-16.87c.68.58,1.21,1.22,1.59,1.91Zm-2.87-2.84l-17.15,17.5c-3.94-.9-6.16-3.45-6.8-6.47l13.67-13.63c3.16,0,7.39.84,10.27,2.6Z"/>
              </g>
            </g>
            <g>
              <path class="cls-13" d="m640.6,62.13l.92,1.85s0-.02-.01-.03l-.92-1.85s0,.02.01.03Z"/>
              <path class="cls-13" d="m663.85,63.56l.82-1.51m-70.52,5.48l-1.63-4.03c-2.72-6.72,4.62-15.27,5.13-15.87l1.6,4.01c-.51.6-7.81,9.19-5.11,15.89h0Z"/>
              <path class="cls-9" d="m631.72,75.74l-1.48-3.79c-1.63-4.16.24-9.57,1.81-12.95.01-.04.2-.65.03-1.09l1.47,3.79c.17.43-.02,1.04-.03,1.09-1.57,3.39-3.42,8.8-1.8,12.95Z"/>
              <path class="cls-13" d="m640.64,79.13c-3.18-.65-5.26-2.6-6.21-5.05l-1.47-3.77c.95,2.45,3.04,4.42,6.23,5.09,9.03,1.9,19.82-7.72,17.54-13.75l1.37,3.63c2.28,6.03-8.48,15.69-17.46,13.85h0Z"/>
              <path class="cls-14" d="m628.85,58.88l-1.48-3.82c1.59-.57,6.26.44,6.8,1.62l1.46,3.78c-.55-1.19-5.21-2.15-6.78-1.58Z"/>
              <path class="cls-13" d="m604.51,71.73c-3.47-.71-5.67-2.67-6.66-5.13l-1.61-4c.99,2.47,3.2,4.45,6.68,5.18,9.85,2.07,22.66-7.44,20.09-14.03l1.5,3.85c2.57,6.58-10.21,16.15-20.01,14.14Z"/>
              <path class="cls-13" d="m627.14,54.38l1.49,3.82c-.65-1.68-2.93-6-9.65-7.62l-1.52-3.89c6.74,1.67,9.03,6,9.68,7.68h0Z"/>
              <path class="cls-9" d="m665.3,63.67l-1.31,2.43-1.5.28c-.3.84-6.06,16.98-22.28,14.85-9.8-1.29-11.2-8.69-6.69-18.43.02-.05.33-1.06-.22-1.41-.55-.34-2.8-.86-3.59-.83-.78.04-1.58.94-1.63.99-6.06,8.64-15.01,14.95-25.55,12.09-17.85-4.85-3.99-21.16-3.28-22l-1.09-.95,1.65-2.64c5.45,1.05,11.5.69,19.16,2.54,8.18,1.98,9.79,7.98,9.87,8.29,1.59-.58,6.24.4,6.78,1.58,4.25-2.29,10.43-3.49,15.57-2.07,7.57,2.08,9.79,4.03,14.1,5.28h0Zm-60.78,8.06c7.22,1.48,16.11-3.33,19.23-8.66,3.08-5.26-.52-9.23-7.46-10.88-7.09-1.69-13.98-.01-17.34,5.41-3.4,5.5-1.82,12.62,5.57,14.13m36.13,7.4c11.63,2.38,26.9-14.73,10.39-18.66-6.35-1.51-12.84,0-15.8,5.18-3,5.25-1.19,12.13,5.41,13.48"/>
              <path class="cls-13" d="m635.63,60.45l-1.46-3.78c4.27-2.26,10.47-3.43,15.63-1.98,7.6,2.13,9.83,4.09,14.15,5.38l1.35,3.59c-4.31-1.25-6.53-3.2-14.1-5.28-5.19-1.43-11.37-.19-15.57,2.07Z"/>
              <path class="cls-14" d="m598.17,50.69l-1.61-4.01,1.66-2.63,1.6,4.01-1.65,2.64Z"/>
              <path class="cls-13" d="m599.82,48.04l-1.6-4.01c5.47,1.09,11.54.76,19.23,2.66l1.52,3.89c-7.8-1.89-13.61-1.47-19.16-2.54Z"/>
              <path class="cls-7" d="m616.29,52.18c-6.44-1.52-13.74-.42-17.34,5.41-1.49,2.41-2.02,5.14-1.52,7.59.95,4.54,4.94,6.49,8.77,6.77,6.84.48,14.64-3.93,17.54-8.89,3.3-5.62-1.15-9.39-7.46-10.88Zm34.75,8.28c-5.74-1.37-12.62-.39-15.8,5.18-3.09,5.41-1.04,12.17,5.41,13.48,6.2,1.3,13.86-3.1,16.75-8.43,2.94-5.43-.72-8.88-6.36-10.23Z"/>
              <g>
                <path class="cls-29" d="m658.37,66.28l-11.06,12.36c-1.21.39-2.46.63-3.75.69l13.83-15.35c.52.7.85,1.46.98,2.3Zm-1.97-3.34l-14.77,16.34c-2.73-.25-5.73-1.73-7.1-4.95l13.27-14.37c2.58.19,6.33,1.03,8.6,2.98Z"/>
                <path class="cls-29" d="m624.25,57l-14.33,14.78c-1.21.2-2.45.26-3.71.18l16.46-16.87c.68.58,1.21,1.22,1.59,1.91Zm-2.87-2.84l-17.15,17.5c-3.94-.9-6.16-3.45-6.8-6.47l13.67-13.63c3.16,0,7.39.84,10.27,2.6Z"/>
              </g>
            </g>
          </g>
        </g>
      </g>
      <g>
        <g>
          <path class="cls-24" d="m61.36,171.97c-6.56.69-13.12,1.04-19.68,1.04s-10.72-.29-12.48-.88c-1.76-.58-2.64-1.57-2.64-2.96v-68.8H4.32c-1.17,0-2.19-1.49-3.04-4.48-.86-2.98-1.28-7.44-1.28-13.36s.64-11.25,1.92-16c1.28-4.75,2.99-7.12,5.12-7.12h86.56c1.6,0,2.69,1.5,3.28,4.48.58,2.99.88,7.31.88,12.96s-.59,10.99-1.76,16c-1.17,5.02-2.78,7.52-4.8,7.52h-20v68.8c0,1.17-3.28,2.11-9.84,2.8Z"/>
          <path class="cls-24" d="m174.88,142.61h-64.8c-1.17,0-2.19-.98-3.04-2.96-.86-1.97-1.28-4.8-1.28-8.48s1.17-7.41,3.52-11.2c2.34-3.79,4.64-5.68,6.88-5.68h64.32c2.77,0,4.16,3.47,4.16,10.4,0,3.52-1.12,7.39-3.36,11.6-2.24,4.22-4.38,6.32-6.4,6.32Z"/>
          <path class="cls-24" d="m230.16,171.89c-6.88.75-13.42,1.12-19.6,1.12s-10.19-.37-12-1.12c-1.82-.75-2.72-1.92-2.72-3.52v-101.44c0-2.77,1.38-4.75,4.16-5.92,2.77-1.17,8-1.76,15.68-1.76h59.36c2.24,0,3.36,4.03,3.36,12.08s-.51,14.19-1.52,18.4c-1.02,4.21-2.32,6.32-3.92,6.32l-32.48-1.6v10.88c14.18-.64,23.68-.96,28.48-.96,1.6,0,2.69.85,3.28,2.56.58,1.71.88,4.99.88,9.84s-.54,9.5-1.6,13.92c-1.07,4.43-2.56,6.64-4.48,6.64l-26.56-.96v32c0,1.6-3.44,2.77-10.32,3.52Z"/>
          <path class="cls-24" d="m303.04,173.01c-5.33,0-8.91-.29-10.72-.88-1.82-.58-2.72-1.57-2.72-2.96v-99.52c0-2.35,3.09-4.67,9.28-6.96,6.19-2.29,13.12-3.44,20.8-3.44,6.82,0,11.3,1.44,13.44,4.32.75,1.07,1.12,2.13,1.12,3.2v70.88c13.01-.85,22.83-1.28,29.44-1.28,2.24,0,3.36,3.55,3.36,10.64s-.48,13.2-1.44,18.32c-.96,5.12-2.24,7.68-3.84,7.68h-58.72Z"/>
          <path class="cls-24" d="m457.75,173.01h-67.84c-5.23,0-8.75-.37-10.56-1.12-1.82-.75-2.72-1.92-2.72-3.52v-101.28c0-2.77,1.25-4.75,3.76-5.92,2.5-1.17,7.01-1.76,13.52-1.76h64.32c2.24,0,3.36,3.71,3.36,11.12s-.48,13.07-1.44,16.96c-.96,3.9-2.24,5.84-3.84,5.84-6.94,0-18.62-.69-35.04-2.08v10.72c15.79-.64,26.08-.96,30.88-.96,2.88,0,4.32,3.36,4.32,10.08s-.56,11.81-1.68,15.28c-1.12,3.47-2.64,5.2-4.56,5.2l-28.96-.64v10.24c18.56-1.39,31.36-2.08,38.4-2.08,2.24,0,3.36,3.73,3.36,11.2s-.48,13.12-1.44,16.96c-.96,3.84-2.24,5.76-3.84,5.76Z"/>
          <path class="cls-24" d="m501.27,173.01c-7.79,0-15.04-.67-21.76-2-6.72-1.33-10.08-3.28-10.08-5.84,0-1.49,2.21-6.37,6.64-14.64,4.42-8.27,11.12-19.97,20.08-35.12-16-30.08-24-45.86-24-47.36,0-2.35,3.38-4.37,10.16-6.08,6.77-1.71,12.96-2.56,18.56-2.56s10.18.85,13.76,2.56c3.57,1.71,5.52,3.42,5.84,5.12l6.24,28.32h.8l4.48-28c.1-.75,1.38-1.76,3.84-3.04,2.45-1.28,5.73-2.42,9.84-3.44,4.11-1.01,8.85-1.52,14.24-1.52s9.89.64,13.52,1.92c3.62,1.28,5.44,3.68,5.44,7.2,0,1.81-1.92,7.1-5.76,15.84-3.84,8.75-9.66,20.91-17.44,36.48,17.28,28.06,25.92,42.83,25.92,44.32,0,5.23-6.35,7.84-19.04,7.84-18.88,0-29.01-2.56-30.4-7.68l-6.24-22.24h-.96l-5.12,22.24c-1.17,5.12-7.36,7.68-18.56,7.68Z"/>
        </g>
        <g>
          <path class="cls-31" d="m61.36,183.7c-6.56.69-13.12,1.04-19.68,1.04s-10.72-.29-12.48-.88c-1.76-.58-2.64-1.57-2.64-2.96v-68.8H4.32c-1.17,0-2.19-1.49-3.04-4.48-.86-2.98-1.28-7.44-1.28-13.36s.64-11.25,1.92-16c1.28-4.75,2.99-7.12,5.12-7.12h86.56c1.6,0,2.69,1.5,3.28,4.48.58,2.99.88,7.31.88,12.96s-.59,10.99-1.76,16c-1.17,5.02-2.78,7.52-4.8,7.52h-20v68.8c0,1.17-3.28,2.11-9.84,2.8Z"/>
          <path class="cls-31" d="m174.88,154.34h-64.8c-1.17,0-2.19-.98-3.04-2.96-.86-1.97-1.28-4.8-1.28-8.48s1.17-7.41,3.52-11.2c2.34-3.79,4.64-5.68,6.88-5.68h64.32c2.77,0,4.16,3.47,4.16,10.4,0,3.52-1.12,7.39-3.36,11.6-2.24,4.22-4.38,6.32-6.4,6.32Z"/>
          <path class="cls-31" d="m230.16,183.62c-6.88.75-13.42,1.12-19.6,1.12s-10.19-.37-12-1.12c-1.82-.75-2.72-1.92-2.72-3.52v-101.44c0-2.77,1.38-4.75,4.16-5.92,2.77-1.17,8-1.76,15.68-1.76h59.36c2.24,0,3.36,4.03,3.36,12.08s-.51,14.19-1.52,18.4c-1.02,4.21-2.32,6.32-3.92,6.32l-32.48-1.6v10.88c14.18-.64,23.68-.96,28.48-.96,1.6,0,2.69.85,3.28,2.56.58,1.71.88,4.99.88,9.84s-.54,9.5-1.6,13.92c-1.07,4.43-2.56,6.64-4.48,6.64l-26.56-.96v32c0,1.6-3.44,2.77-10.32,3.52Z"/>
          <path class="cls-31" d="m303.04,184.74c-5.33,0-8.91-.29-10.72-.88-1.82-.58-2.72-1.57-2.72-2.96v-99.52c0-2.35,3.09-4.67,9.28-6.96,6.19-2.29,13.12-3.44,20.8-3.44,6.82,0,11.3,1.44,13.44,4.32.75,1.07,1.12,2.13,1.12,3.2v70.88c13.01-.85,22.83-1.28,29.44-1.28,2.24,0,3.36,3.55,3.36,10.64s-.48,13.2-1.44,18.32c-.96,5.12-2.24,7.68-3.84,7.68h-58.72Z"/>
          <path class="cls-31" d="m457.75,184.74h-67.84c-5.23,0-8.75-.37-10.56-1.12-1.82-.75-2.72-1.92-2.72-3.52v-101.28c0-2.77,1.25-4.75,3.76-5.92,2.5-1.17,7.01-1.76,13.52-1.76h64.32c2.24,0,3.36,3.71,3.36,11.12s-.48,13.07-1.44,16.96c-.96,3.9-2.24,5.84-3.84,5.84-6.94,0-18.62-.69-35.04-2.08v10.72c15.79-.64,26.08-.96,30.88-.96,2.88,0,4.32,3.36,4.32,10.08s-.56,11.81-1.68,15.28c-1.12,3.47-2.64,5.2-4.56,5.2l-28.96-.64v10.24c18.56-1.39,31.36-2.08,38.4-2.08,2.24,0,3.36,3.73,3.36,11.2s-.48,13.12-1.44,16.96c-.96,3.84-2.24,5.76-3.84,5.76Z"/>
          <path class="cls-31" d="m501.27,184.74c-7.79,0-15.04-.67-21.76-2-6.72-1.33-10.08-3.28-10.08-5.84,0-1.49,2.21-6.37,6.64-14.64,4.42-8.27,11.12-19.97,20.08-35.12-16-30.08-24-45.86-24-47.36,0-2.35,3.38-4.37,10.16-6.08,6.77-1.71,12.96-2.56,18.56-2.56s10.18.85,13.76,2.56c3.57,1.71,5.52,3.42,5.84,5.12l6.24,28.32h.8l4.48-28c.1-.75,1.38-1.76,3.84-3.04,2.45-1.28,5.73-2.42,9.84-3.44,4.11-1.01,8.85-1.52,14.24-1.52s9.89.64,13.52,1.92c3.62,1.28,5.44,3.68,5.44,7.2,0,1.81-1.92,7.1-5.76,15.84-3.84,8.75-9.66,20.91-17.44,36.48,17.28,28.06,25.92,42.83,25.92,44.32,0,5.23-6.35,7.84-19.04,7.84-18.88,0-29.01-2.56-30.4-7.68l-6.24-22.24h-.96l-5.12,22.24c-1.17,5.12-7.36,7.68-18.56,7.68Z"/>
        </g>
        <g>
          <path class="cls-16" d="m61.36,193.57c-6.56.69-13.12,1.04-19.68,1.04s-10.72-.29-12.48-.88c-1.76-.58-2.64-1.57-2.64-2.96v-68.8H4.32c-1.17,0-2.19-1.49-3.04-4.48-.86-2.98-1.28-7.44-1.28-13.36s.64-11.25,1.92-16c1.28-4.75,2.99-7.12,5.12-7.12h86.56c1.6,0,2.69,1.5,3.28,4.48.58,2.99.88,7.31.88,12.96s-.59,10.99-1.76,16c-1.17,5.02-2.78,7.52-4.8,7.52h-20v68.8c0,1.17-3.28,2.11-9.84,2.8Z"/>
          <path class="cls-16" d="m174.88,164.21h-64.8c-1.17,0-2.19-.98-3.04-2.96-.86-1.97-1.28-4.8-1.28-8.48s1.17-7.41,3.52-11.2c2.34-3.79,4.64-5.68,6.88-5.68h64.32c2.77,0,4.16,3.47,4.16,10.4,0,3.52-1.12,7.39-3.36,11.6-2.24,4.22-4.38,6.32-6.4,6.32Z"/>
          <path class="cls-16" d="m230.16,193.49c-6.88.75-13.42,1.12-19.6,1.12s-10.19-.37-12-1.12c-1.82-.75-2.72-1.92-2.72-3.52v-101.44c0-2.77,1.38-4.75,4.16-5.92,2.77-1.17,8-1.76,15.68-1.76h59.36c2.24,0,3.36,4.03,3.36,12.08s-.51,14.19-1.52,18.4c-1.02,4.21-2.32,6.32-3.92,6.32l-32.48-1.6v10.88c14.18-.64,23.68-.96,28.48-.96,1.6,0,2.69.85,3.28,2.56.58,1.71.88,4.99.88,9.84s-.54,9.5-1.6,13.92c-1.07,4.43-2.56,6.64-4.48,6.64l-26.56-.96v32c0,1.6-3.44,2.77-10.32,3.52Z"/>
          <path class="cls-16" d="m303.04,194.61c-5.33,0-8.91-.29-10.72-.88-1.82-.58-2.72-1.57-2.72-2.96v-99.52c0-2.35,3.09-4.67,9.28-6.96,6.19-2.29,13.12-3.44,20.8-3.44,6.82,0,11.3,1.44,13.44,4.32.75,1.07,1.12,2.13,1.12,3.2v70.88c13.01-.85,22.83-1.28,29.44-1.28,2.24,0,3.36,3.55,3.36,10.64s-.48,13.2-1.44,18.32c-.96,5.12-2.24,7.68-3.84,7.68h-58.72Z"/>
          <path class="cls-16" d="m457.75,194.61h-67.84c-5.23,0-8.75-.37-10.56-1.12-1.82-.75-2.72-1.92-2.72-3.52v-101.28c0-2.77,1.25-4.75,3.76-5.92,2.5-1.17,7.01-1.76,13.52-1.76h64.32c2.24,0,3.36,3.71,3.36,11.12s-.48,13.07-1.44,16.96c-.96,3.9-2.24,5.84-3.84,5.84-6.94,0-18.62-.69-35.04-2.08v10.72c15.79-.64,26.08-.96,30.88-.96,2.88,0,4.32,3.36,4.32,10.08s-.56,11.81-1.68,15.28c-1.12,3.47-2.64,5.2-4.56,5.2l-28.96-.64v10.24c18.56-1.39,31.36-2.08,38.4-2.08,2.24,0,3.36,3.73,3.36,11.2s-.48,13.12-1.44,16.96c-.96,3.84-2.24,5.76-3.84,5.76Z"/>
          <path class="cls-16" d="m501.27,194.61c-7.79,0-15.04-.67-21.76-2-6.72-1.33-10.08-3.28-10.08-5.84,0-1.49,2.21-6.37,6.64-14.64,4.42-8.27,11.12-19.97,20.08-35.12-16-30.08-24-45.86-24-47.36,0-2.35,3.38-4.37,10.16-6.08,6.77-1.71,12.96-2.56,18.56-2.56s10.18.85,13.76,2.56c3.57,1.71,5.52,3.42,5.84,5.12l6.24,28.32h.8l4.48-28c.1-.75,1.38-1.76,3.84-3.04,2.45-1.28,5.73-2.42,9.84-3.44,4.11-1.01,8.85-1.52,14.24-1.52s9.89.64,13.52,1.92c3.62,1.28,5.44,3.68,5.44,7.2,0,1.81-1.92,7.1-5.76,15.84-3.84,8.75-9.66,20.91-17.44,36.48,17.28,28.06,25.92,42.83,25.92,44.32,0,5.23-6.35,7.84-19.04,7.84-18.88,0-29.01-2.56-30.4-7.68l-6.24-22.24h-.96l-5.12,22.24c-1.17,5.12-7.36,7.68-18.56,7.68Z"/>
        </g>
        <g>
          <path class="cls-29" d="m61.36,200.27c-6.56.69-13.12,1.04-19.68,1.04s-10.72-.29-12.48-.88c-1.76-.58-2.64-1.57-2.64-2.96v-68.8H4.32c-1.17,0-2.19-1.49-3.04-4.48-.86-2.98-1.28-7.44-1.28-13.36s.64-11.25,1.92-16c1.28-4.75,2.99-7.12,5.12-7.12h86.56c1.6,0,2.69,1.5,3.28,4.48.58,2.99.88,7.31.88,12.96s-.59,10.99-1.76,16c-1.17,5.02-2.78,7.52-4.8,7.52h-20v68.8c0,1.17-3.28,2.11-9.84,2.8Z"/>
          <path class="cls-29" d="m174.88,170.91h-64.8c-1.17,0-2.19-.98-3.04-2.96-.86-1.97-1.28-4.8-1.28-8.48s1.17-7.41,3.52-11.2c2.34-3.79,4.64-5.68,6.88-5.68h64.32c2.77,0,4.16,3.47,4.16,10.4,0,3.52-1.12,7.39-3.36,11.6-2.24,4.22-4.38,6.32-6.4,6.32Z"/>
          <path class="cls-29" d="m230.16,200.19c-6.88.75-13.42,1.12-19.6,1.12s-10.19-.37-12-1.12c-1.82-.75-2.72-1.92-2.72-3.52v-101.44c0-2.77,1.38-4.75,4.16-5.92,2.77-1.17,8-1.76,15.68-1.76h59.36c2.24,0,3.36,4.03,3.36,12.08s-.51,14.19-1.52,18.4c-1.02,4.21-2.32,6.32-3.92,6.32l-32.48-1.6v10.88c14.18-.64,23.68-.96,28.48-.96,1.6,0,2.69.85,3.28,2.56.58,1.71.88,4.99.88,9.84s-.54,9.5-1.6,13.92c-1.07,4.43-2.56,6.64-4.48,6.64l-26.56-.96v32c0,1.6-3.44,2.77-10.32,3.52Z"/>
          <path class="cls-29" d="m303.04,201.31c-5.33,0-8.91-.29-10.72-.88-1.82-.58-2.72-1.57-2.72-2.96v-99.52c0-2.35,3.09-4.67,9.28-6.96,6.19-2.29,13.12-3.44,20.8-3.44,6.82,0,11.3,1.44,13.44,4.32.75,1.07,1.12,2.13,1.12,3.2v70.88c13.01-.85,22.83-1.28,29.44-1.28,2.24,0,3.36,3.55,3.36,10.64s-.48,13.2-1.44,18.32c-.96,5.12-2.24,7.68-3.84,7.68h-58.72Z"/>
          <path class="cls-29" d="m457.75,201.31h-67.84c-5.23,0-8.75-.37-10.56-1.12-1.82-.75-2.72-1.92-2.72-3.52v-101.28c0-2.77,1.25-4.75,3.76-5.92,2.5-1.17,7.01-1.76,13.52-1.76h64.32c2.24,0,3.36,3.71,3.36,11.12s-.48,13.07-1.44,16.96c-.96,3.9-2.24,5.84-3.84,5.84-6.94,0-18.62-.69-35.04-2.08v10.72c15.79-.64,26.08-.96,30.88-.96,2.88,0,4.32,3.36,4.32,10.08s-.56,11.81-1.68,15.28c-1.12,3.47-2.64,5.2-4.56,5.2l-28.96-.64v10.24c18.56-1.39,31.36-2.08,38.4-2.08,2.24,0,3.36,3.73,3.36,11.2s-.48,13.12-1.44,16.96c-.96,3.84-2.24,5.76-3.84,5.76Z"/>
          <path class="cls-29" d="m501.27,201.31c-7.79,0-15.04-.67-21.76-2-6.72-1.33-10.08-3.28-10.08-5.84,0-1.49,2.21-6.37,6.64-14.64,4.42-8.27,11.12-19.97,20.08-35.12-16-30.08-24-45.86-24-47.36,0-2.35,3.38-4.37,10.16-6.08,6.77-1.71,12.96-2.56,18.56-2.56s10.18.85,13.76,2.56c3.57,1.71,5.52,3.42,5.84,5.12l6.24,28.32h.8l4.48-28c.1-.75,1.38-1.76,3.84-3.04,2.45-1.28,5.73-2.42,9.84-3.44,4.11-1.01,8.85-1.52,14.24-1.52s9.89.64,13.52,1.92c3.62,1.28,5.44,3.68,5.44,7.2,0,1.81-1.92,7.1-5.76,15.84-3.84,8.75-9.66,20.91-17.44,36.48,17.28,28.06,25.92,42.83,25.92,44.32,0,5.23-6.35,7.84-19.04,7.84-18.88,0-29.01-2.56-30.4-7.68l-6.24-22.24h-.96l-5.12,22.24c-1.17,5.12-7.36,7.68-18.56,7.68Z"/>
        </g>
      </g>
    </g>
  </g>
</svg>