<?xml version="1.0" encoding="UTF-8"?>
<svg xmlns="http://www.w3.org/2000/svg" xmlns:xlink="http://www.w3.org/1999/xlink" viewBox="0 0 6878.26 940.26">
  <defs>
    <style>
      .cls-1 {
        fill: url(#_ÂÁ_Ï_ÌÌ_È_ËÂÌÚ_7);
      }

      .cls-1, .cls-2, .cls-3, .cls-4, .cls-5, .cls-6, .cls-7, .cls-8, .cls-9, .cls-10, .cls-11, .cls-12, .cls-13, .cls-14, .cls-15, .cls-16, .cls-17, .cls-18, .cls-19, .cls-20, .cls-21, .cls-22, .cls-23, .cls-24, .cls-25, .cls-26, .cls-27, .cls-28, .cls-29, .cls-30, .cls-31, .cls-32, .cls-33, .cls-34, .cls-35, .cls-36, .cls-37, .cls-38, .cls-39, .cls-40, .cls-41, .cls-42, .cls-43, .cls-44, .cls-45, .cls-46, .cls-47, .cls-48, .cls-49, .cls-50, .cls-51, .cls-52, .cls-53, .cls-54, .cls-55, .cls-56, .cls-57, .cls-58, .cls-59, .cls-60, .cls-61, .cls-62, .cls-63, .cls-64 {
        stroke-width: 0px;
      }

      .cls-1, .cls-2, .cls-3, .cls-5, .cls-6, .cls-7, .cls-8, .cls-9, .cls-27, .cls-65, .cls-57 {
        mix-blend-mode: screen;
      }

      .cls-1, .cls-2, .cls-3, .cls-5, .cls-6, .cls-7, .cls-8, .cls-9, .cls-45, .cls-49 {
        opacity: .67;
      }

      .cls-2 {
        fill: url(#_ÂÁ_Ï_ÌÌ_È_ËÂÌÚ_7-10);
      }

      .cls-3 {
        fill: url(#_ÂÁ_Ï_ÌÌ_È_ËÂÌÚ_7-11);
      }

      .cls-4 {
        fill: url(#_ÂÁ_Ï_ÌÌ_È_ËÂÌÚ_9);
      }

      .cls-5 {
        fill: url(#_ÂÁ_Ï_ÌÌ_È_ËÂÌÚ_7-2);
      }

      .cls-6 {
        fill: url(#_ÂÁ_Ï_ÌÌ_È_ËÂÌÚ_7-4);
      }

      .cls-7 {
        fill: url(#_ÂÁ_Ï_ÌÌ_È_ËÂÌÚ_7-3);
      }

      .cls-8 {
        fill: url(#_ÂÁ_Ï_ÌÌ_È_ËÂÌÚ_7-9);
      }

      .cls-9 {
        fill: url(#_ÂÁ_Ï_ÌÌ_È_ËÂÌÚ_7-5);
      }

      .cls-10 {
        fill: url(#_ÂÁ_Ï_ÌÌ_È_ËÂÌÚ_13);
      }

      .cls-10, .cls-11, .cls-12, .cls-13, .cls-28, .cls-29, .cls-30, .cls-32, .cls-33, .cls-35, .cls-37, .cls-44, .cls-50, .cls-52, .cls-54 {
        mix-blend-mode: multiply;
      }

      .cls-66 {
        filter: url(#luminosity-noclip-3);
      }

      .cls-67 {
        filter: url(#luminosity-noclip-5);
      }

      .cls-11 {
        fill: url(#_ÂÁ_Ï_ÌÌ_È_ËÂÌÚ_13-3);
      }

      .cls-12 {
        fill: url(#_ÂÁ_Ï_ÌÌ_È_ËÂÌÚ_13-2);
      }

      .cls-13 {
        fill: #bb5ba4;
        opacity: .16;
      }

      .cls-14 {
        fill: url(#_ÂÁ_Ï_ÌÌ_È_ËÂÌÚ_153);
      }

      .cls-14, .cls-16, .cls-17, .cls-18, .cls-19, .cls-20, .cls-21, .cls-22, .cls-23, .cls-24, .cls-31, .cls-34, .cls-36, .cls-45, .cls-49, .cls-53, .cls-55, .cls-56 {
        mix-blend-mode: color-dodge;
      }

      .cls-14, .cls-16, .cls-17, .cls-18, .cls-19, .cls-20, .cls-21, .cls-22, .cls-23, .cls-55, .cls-56 {
        opacity: .47;
      }

      .cls-15, .cls-59, .cls-64 {
        opacity: .79;
      }

      .cls-15, .cls-60 {
        fill: #db8b9b;
      }

      .cls-16 {
        fill: url(#_ÂÁ_Ï_ÌÌ_È_ËÂÌÚ_153-8);
      }

      .cls-17 {
        fill: url(#_ÂÁ_Ï_ÌÌ_È_ËÂÌÚ_153-2);
      }

      .cls-18 {
        fill: url(#_ÂÁ_Ï_ÌÌ_È_ËÂÌÚ_153-4);
      }

      .cls-19 {
        fill: url(#_ÂÁ_Ï_ÌÌ_È_ËÂÌÚ_153-3);
      }

      .cls-20 {
        fill: url(#_ÂÁ_Ï_ÌÌ_È_ËÂÌÚ_153-9);
      }

      .cls-21 {
        fill: url(#_ÂÁ_Ï_ÌÌ_È_ËÂÌÚ_153-5);
      }

      .cls-22 {
        fill: url(#_ÂÁ_Ï_ÌÌ_È_ËÂÌÚ_153-6);
      }

      .cls-23 {
        fill: url(#_ÂÁ_Ï_ÌÌ_È_ËÂÌÚ_153-7);
      }

      .cls-24 {
        fill: url(#_ÂÁ_Ï_ÌÌ_È_ËÂÌÚ_151);
      }

      .cls-24, .cls-36 {
        opacity: .36;
      }

      .cls-68 {
        mask: url(#mask);
      }

      .cls-69 {
        filter: url(#luminosity-noclip);
      }

      .cls-25 {
        fill: url(#_ÂÁ_Ï_ÌÌ_È_ËÂÌÚ_146-2);
      }

      .cls-25, .cls-34 {
        opacity: .42;
      }

      .cls-26 {
        fill: url(#_ÂÁ_Ï_ÌÌ_È_ËÂÌÚ_146);
      }

      .cls-26, .cls-51, .cls-58 {
        opacity: .34;
      }

      .cls-27 {
        fill: #ff8ae9;
        opacity: .86;
      }

      .cls-28 {
        opacity: .14;
      }

      .cls-28, .cls-32, .cls-33, .cls-37, .cls-44, .cls-52 {
        fill: #994c9f;
      }

      .cls-29 {
        fill: url(#_ÂÁ_Ï_ÌÌ_È_ËÂÌÚ_20-2);
      }

      .cls-29, .cls-30 {
        opacity: .12;
      }

      .cls-30 {
        fill: url(#_ÂÁ_Ï_ÌÌ_È_ËÂÌÚ_20-4);
      }

      .cls-31 {
        fill: url(#_ÂÁ_Ï_ÌÌ_È_ËÂÌÚ_7-8);
        opacity: .28;
      }

      .cls-32, .cls-35 {
        opacity: .27;
      }

      .cls-33 {
        opacity: .26;
      }

      .cls-34 {
        fill: url(#_ÂÁ_Ï_ÌÌ_È_ËÂÌÚ_7-6);
      }

      .cls-35 {
        fill: url(#_ÂÁ_Ï_ÌÌ_È_ËÂÌÚ_20);
      }

      .cls-36 {
        fill: url(#_ÂÁ_Ï_ÌÌ_È_ËÂÌÚ_151-3);
      }

      .cls-37 {
        opacity: .1;
      }

      .cls-38 {
        fill: url(#_ÂÁ_Ï_ÌÌ_È_ËÂÌÚ_145);
      }

      .cls-39 {
        fill: url(#_ÂÁ_Ï_ÌÌ_È_ËÂÌÚ_147);
      }

      .cls-40 {
        fill: url(#_ÂÁ_Ï_ÌÌ_È_ËÂÌÚ_17-2);
      }

      .cls-41 {
        fill: url(#_ÂÁ_Ï_ÌÌ_È_ËÂÌÚ_17-3);
      }

      .cls-42 {
        fill: url(#_ÂÁ_Ï_ÌÌ_È_ËÂÌÚ_17-4);
      }

      .cls-43 {
        fill: url(#_ÂÁ_Ï_ÌÌ_È_ËÂÌÚ_145-2);
      }

      .cls-44 {
        opacity: .09;
      }

      .cls-45 {
        fill: url(#_ÂÁ_Ï_ÌÌ_È_ËÂÌÚ_7-7);
      }

      .cls-46 {
        fill: #ce7e91;
      }

      .cls-46, .cls-57 {
        opacity: .49;
      }

      .cls-47 {
        opacity: .5;
      }

      .cls-47, .cls-61 {
        fill: #ff7b39;
      }

      .cls-48 {
        fill: url(#_ÂÁ_Ï_ÌÌ_È_ËÂÌÚ_103);
        opacity: .74;
      }

      .cls-49 {
        fill: url(#_ÂÁ_Ï_ÌÌ_È_ËÂÌÚ_151-2);
      }

      .cls-50 {
        fill: url(#_ÂÁ_Ï_ÌÌ_È_ËÂÌÚ_20-3);
        opacity: .2;
      }

      .cls-51 {
        fill: url(#_ÂÁ_Ï_ÌÌ_È_ËÂÌÚ_103-2);
      }

      .cls-70 {
        opacity: .31;
      }

      .cls-52 {
        opacity: .15;
      }

      .cls-53 {
        fill: url(#_ÂÁ_Ï_ÌÌ_È_ËÂÌÚ_2);
        opacity: .55;
      }

      .cls-65 {
        opacity: .17;
      }

      .cls-54 {
        fill: #283b91;
        opacity: .08;
      }

      .cls-55 {
        fill: url(#_ÂÁ_Ï_ÌÌ_È_ËÂÌÚ_153-11);
      }

      .cls-56 {
        fill: url(#_ÂÁ_Ï_ÌÌ_È_ËÂÌÚ_153-10);
      }

      .cls-57 {
        fill: url(#_ÂÁ_Ï_ÌÌ_È_ËÂÌÚ_75);
      }

      .cls-71 {
        isolation: isolate;
      }

      .cls-58 {
        fill: url(#_ÂÁ_Ï_ÌÌ_È_ËÂÌÚ_26);
      }

      .cls-59 {
        fill: url(#_ÂÁ_Ï_ÌÌ_È_ËÂÌÚ_248);
      }

      .cls-72 {
        mask: url(#mask-3);
      }

      .cls-73 {
        mask: url(#mask-2);
      }

      .cls-74 {
        mask: url(#mask-5);
      }

      .cls-75 {
        mask: url(#mask-4);
      }

      .cls-76 {
        mask: url(#mask-1);
      }

      .cls-62 {
        fill: #fff;
      }

      .cls-63 {
        fill: url(#_ÂÁ_Ï_ÌÌ_È_ËÂÌÚ_17);
      }

      .cls-64 {
        fill: url(#_ÂÁ_Ï_ÌÌ_È_ËÂÌÚ_248-2);
      }
    </style>
    <linearGradient id="_ÂÁ_Ï_ÌÌ_È_ËÂÌÚ_75" data-name="¡ÂÁ˚ÏˇÌÌ˚È „‡‰ËÂÌÚ 75" x1="1713.53" y1="546.7" x2="4308.19" y2="546.7" gradientTransform="translate(4253.24) rotate(-180) scale(1 -1)" gradientUnits="userSpaceOnUse">
      <stop offset="0" stop-color="#ffbf38"/>
      <stop offset=".09" stop-color="#e1a931"/>
      <stop offset=".35" stop-color="#926d20"/>
      <stop offset=".57" stop-color="#533e12"/>
      <stop offset=".77" stop-color="#261c08"/>
      <stop offset=".91" stop-color="#0a0702"/>
      <stop offset="1" stop-color="#000"/>
    </linearGradient>
    <filter id="luminosity-noclip" x="284.9" y="382.54" width="2290.13" height="320.18" color-interpolation-filters="sRGB" filterUnits="userSpaceOnUse">
      <feFlood flood-color="#fff" result="bg"/>
      <feBlend in="SourceGraphic" in2="bg"/>
    </filter>
    <filter id="luminosity-noclip-2" x="284.9" y="-8637.51" width="2290.13" height="32766" color-interpolation-filters="sRGB" filterUnits="userSpaceOnUse">
      <feFlood flood-color="#fff" result="bg"/>
      <feBlend in="SourceGraphic" in2="bg"/>
    </filter>
    <mask id="mask-1" x="284.9" y="-8637.51" width="2290.13" height="32766" maskUnits="userSpaceOnUse"/>
    <linearGradient id="_ÂÁ_Ï_ÌÌ_È_ËÂÌÚ_13" data-name="¡ÂÁ˚ÏˇÌÌ˚È „‡‰ËÂÌÚ 13" x1="2867.87" y1="949.24" x2="2802.1" y2="478.48" gradientTransform="translate(4253.24) rotate(-180) scale(1 -1)" gradientUnits="userSpaceOnUse">
      <stop offset="0" stop-color="#fff"/>
      <stop offset="1" stop-color="#c9c9c9"/>
    </linearGradient>
    <mask id="mask" x="284.9" y="382.54" width="2290.13" height="320.18" maskUnits="userSpaceOnUse">
      <g class="cls-69">
        <g class="cls-76">
          <path class="cls-10" d="m2575.02,702.72s-471.03-124.89-518.14-152.14c-47.1-27.25-121.12-104.46-121.12-104.46l-26.92-56.77s-29.16-6.81-44.86-6.81-29.16,15.9-29.16,15.9l-33.65,11.35s-40.37,65.85-76.26,97.64c-35.89,31.79-143.55,65.85-143.55,65.85,0,0-85.23-40.87-94.21-52.23-8.97-11.35-47.1-45.42-47.1-45.42l-31.4,11.35s-22.6,47.69-108.87,63.58c-86.27,15.9-178.23,15.9-178.23,15.9l-213.27-33.41-134.4-107.38h-42.62l-170.47,147.5-275.89-15.8,69.53,145.33h2220.59Z"/>
        </g>
      </g>
    </mask>
    <linearGradient id="_ÂÁ_Ï_ÌÌ_È_ËÂÌÚ_17" data-name="¡ÂÁ˚ÏˇÌÌ˚È „‡‰ËÂÌÚ 17" x1="2888.9" y1="946.3" x2="2823.13" y2="475.54" gradientTransform="translate(4253.24) rotate(-180) scale(1 -1)" gradientUnits="userSpaceOnUse">
      <stop offset="0" stop-color="#6971ad"/>
      <stop offset="1" stop-color="#db8b9b"/>
    </linearGradient>
    <linearGradient id="_ÂÁ_Ï_ÌÌ_È_ËÂÌÚ_146" data-name="¡ÂÁ˚ÏˇÌÌ˚È „‡‰ËÂÌÚ 146" x1="2823.29" y1="404.91" x2="2828.5" y2="467.45" gradientTransform="translate(4253.24) rotate(-180) scale(1 -1)" gradientUnits="userSpaceOnUse">
      <stop offset="0" stop-color="#993c81"/>
      <stop offset="1" stop-color="#3d1769"/>
    </linearGradient>
    <filter id="luminosity-noclip-3" x="1788.21" y="383.72" width="5090.06" height="464.83" color-interpolation-filters="sRGB" filterUnits="userSpaceOnUse">
      <feFlood flood-color="#fff" result="bg"/>
      <feBlend in="SourceGraphic" in2="bg"/>
    </filter>
    <filter id="luminosity-noclip-4" x="1788.21" y="-8637.51" width="2293.45" height="32766" color-interpolation-filters="sRGB" filterUnits="userSpaceOnUse">
      <feFlood flood-color="#fff" result="bg"/>
      <feBlend in="SourceGraphic" in2="bg"/>
    </filter>
    <mask id="mask-3" x="1788.21" y="-8637.51" width="2293.45" height="32766" maskUnits="userSpaceOnUse"/>
    <linearGradient id="_ÂÁ_Ï_ÌÌ_È_ËÂÌÚ_13-2" data-name="¡ÂÁ˚ÏˇÌÌ˚È „‡‰ËÂÌÚ 13" x1="1332.85" y1="992.98" x2="1267.08" y2="522.22" gradientTransform="translate(1717.78 -122.73) rotate(5.54)" xlink:href="#_ÂÁ_Ï_ÌÌ_È_ËÂÌÚ_13"/>
    <mask id="mask-2" x="1788.21" y="383.72" width="5090.06" height="464.83" maskUnits="userSpaceOnUse">
      <g class="cls-66">
        <g class="cls-72">
          <path class="cls-12" d="m1788.21,634.07s480.9-78.81,530.41-101.38c49.51-22.57,130.65-92.27,130.65-92.27l32.27-53.9s29.68-3.96,45.31-2.45c15.63,1.52,27.49,18.64,27.49,18.64l32.39,14.55s33.82,69.44,66.47,104.55c32.65,35.11,136.52,79.41,136.52,79.41,0,0,88.78-32.45,98.81-42.88,10.03-10.43,51.27-40.65,51.27-40.65l30.16,14.33s17.89,49.65,102.22,73.8c84.33,24.15,175.87,33.04,175.87,33.04l215.5-12.65,144.14-93.9,42.42,4.12,155.43,163.28,276.13,10.92-83.25,137.93-1823.62-176.97-386.59-37.52Z"/>
        </g>
      </g>
    </mask>
    <linearGradient id="_ÂÁ_Ï_ÌÌ_È_ËÂÌÚ_17-2" data-name="¡ÂÁ˚ÏˇÌÌ˚È „‡‰ËÂÌÚ 17" x1="2737.5" y1="796.74" x2="2671.74" y2="325.98" gradientTransform="translate(1717.78 -122.73) rotate(5.54)" xlink:href="#_ÂÁ_Ï_ÌÌ_È_ËÂÌÚ_17"/>
    <filter id="luminosity-noclip-5" x="3841.71" y="393.7" width="3046.78" height="546.56" color-interpolation-filters="sRGB" filterUnits="userSpaceOnUse">
      <feFlood flood-color="#fff" result="bg"/>
      <feBlend in="SourceGraphic" in2="bg"/>
    </filter>
    <filter id="luminosity-noclip-6" x="4191.8" y="-8637.51" width="2696.68" height="32766" color-interpolation-filters="sRGB" filterUnits="userSpaceOnUse">
      <feFlood flood-color="#fff" result="bg"/>
      <feBlend in="SourceGraphic" in2="bg"/>
    </filter>
    <mask id="mask-5" x="4191.8" y="-8637.51" width="2696.68" height="32766" maskUnits="userSpaceOnUse"/>
    <linearGradient id="_ÂÁ_Ï_ÌÌ_È_ËÂÌÚ_13-3" data-name="¡ÂÁ˚ÏˇÌÌ˚È „‡‰ËÂÌÚ 13" x1="6519.32" y1="607.57" x2="6441.99" y2="54.04" gradientTransform="translate(11954.36 -122.73) rotate(174.46) scale(1 -1)" xlink:href="#_ÂÁ_Ï_ÌÌ_È_ËÂÌÚ_13"/>
    <mask id="mask-4" x="3841.71" y="393.7" width="3046.78" height="546.56" maskUnits="userSpaceOnUse">
      <g class="cls-67">
        <g class="cls-74">
          <path class="cls-11" d="m6888.49,688.07s-565.44-92.67-623.67-119.21c-58.22-26.54-153.62-108.49-153.62-108.49l-37.95-63.38s-34.9-4.66-53.27-2.88c-18.38,1.78-32.32,21.91-32.32,21.91l-38.09,17.11s-39.77,81.65-78.16,122.93c-38.39,41.28-160.52,93.37-160.52,93.37,0,0-104.39-38.15-116.18-50.42-11.79-12.27-60.28-47.8-60.28-47.8l-35.46,16.85s-21.04,58.37-120.19,86.78c-99.16,28.4-206.79,38.84-206.79,38.84l-253.38-14.87-169.49-110.41-49.88,4.84-182.75,191.99-324.68,12.84,97.88,162.18,2144.24-208.08,454.56-44.11Z"/>
        </g>
      </g>
    </mask>
    <linearGradient id="_ÂÁ_Ï_ÌÌ_È_ËÂÌÚ_17-3" data-name="¡ÂÁ˚ÏˇÌÌ˚È „‡‰ËÂÌÚ 17" x1="6714.88" y1="580.25" x2="6637.55" y2="26.72" gradientTransform="translate(11954.36 -122.73) rotate(174.46) scale(1 -1)" xlink:href="#_ÂÁ_Ï_ÌÌ_È_ËÂÌÚ_17"/>
    <linearGradient id="_ÂÁ_Ï_ÌÌ_È_ËÂÌÚ_17-4" data-name="¡ÂÁ˚ÏˇÌÌ˚È „‡‰ËÂÌÚ 17" x1="3907.46" y1="760.14" x2="3231.78" y2="320.38" xlink:href="#_ÂÁ_Ï_ÌÌ_È_ËÂÌÚ_17"/>
    <linearGradient id="_ÂÁ_Ï_ÌÌ_È_ËÂÌÚ_26" data-name="¡ÂÁ˚ÏˇÌÌ˚È „‡‰ËÂÌÚ 26" x1="3245.87" y1="-25.92" x2="3669.59" y2="381.96" gradientTransform="translate(4253.24) rotate(-180) scale(1 -1)" gradientUnits="userSpaceOnUse">
      <stop offset="0" stop-color="#ce92b2"/>
      <stop offset=".99" stop-color="#7e91c0"/>
    </linearGradient>
    <linearGradient id="_ÂÁ_Ï_ÌÌ_È_ËÂÌÚ_146-2" data-name="¡ÂÁ˚ÏˇÌÌ˚È „‡‰ËÂÌÚ 146" x1="3680.29" y1="268.34" x2="3685.51" y2="288.03" xlink:href="#_ÂÁ_Ï_ÌÌ_È_ËÂÌÚ_146"/>
    <radialGradient id="_ÂÁ_Ï_ÌÌ_È_ËÂÌÚ_7" data-name="¡ÂÁ˚ÏˇÌÌ˚È „‡‰ËÂÌÚ 7" cx="6054.65" cy="166.72" fx="6054.65" fy="166.72" r="21.25" gradientTransform="translate(5069.16) rotate(-180) scale(.75 -1)" gradientUnits="userSpaceOnUse">
      <stop offset="0" stop-color="#e6941f"/>
      <stop offset=".12" stop-color="#bd7919"/>
      <stop offset=".29" stop-color="#845511"/>
      <stop offset=".46" stop-color="#54360b"/>
      <stop offset=".62" stop-color="#301e06"/>
      <stop offset=".77" stop-color="#150d02"/>
      <stop offset=".9" stop-color="#050300"/>
      <stop offset="1" stop-color="#000"/>
    </radialGradient>
    <radialGradient id="_ÂÁ_Ï_ÌÌ_È_ËÂÌÚ_151" data-name="¡ÂÁ˚ÏˇÌÌ˚È „‡‰ËÂÌÚ 151" cx="6053.69" cy="167.68" fx="6053.69" fy="167.68" r="13.08" gradientTransform="translate(5069.16) rotate(-180) scale(.75 -1)" gradientUnits="userSpaceOnUse">
      <stop offset="0" stop-color="#e6941f"/>
      <stop offset=".36" stop-color="#8a5912"/>
      <stop offset=".67" stop-color="#3f2908"/>
      <stop offset=".89" stop-color="#110b02"/>
      <stop offset="1" stop-color="#000"/>
    </radialGradient>
    <linearGradient id="_ÂÁ_Ï_ÌÌ_È_ËÂÌÚ_145" data-name="¡ÂÁ˚ÏˇÌÌ˚È „‡‰ËÂÌÚ 145" x1="3481.39" y1="38.87" x2="3653.38" y2="246.36" gradientTransform="translate(4253.24) rotate(-180) scale(1 -1)" gradientUnits="userSpaceOnUse">
      <stop offset="0" stop-color="#ce92b2"/>
      <stop offset=".13" stop-color="#b88ab3"/>
      <stop offset=".43" stop-color="#8e7cb6"/>
      <stop offset=".58" stop-color="#7e77b8"/>
      <stop offset=".66" stop-color="#8879b4"/>
      <stop offset=".8" stop-color="#a37fa9"/>
      <stop offset=".98" stop-color="#d08898"/>
      <stop offset="1" stop-color="#d68a96"/>
    </linearGradient>
    <linearGradient id="_ÂÁ_Ï_ÌÌ_È_ËÂÌÚ_20" data-name="¡ÂÁ˚ÏˇÌÌ˚È „‡‰ËÂÌÚ 20" x1="3575.67" y1="137.65" x2="3668.87" y2="345.5" gradientTransform="translate(4253.24) rotate(-180) scale(1 -1)" gradientUnits="userSpaceOnUse">
      <stop offset="0" stop-color="#ce92b2"/>
      <stop offset="1" stop-color="#55b87e"/>
    </linearGradient>
    <linearGradient id="_ÂÁ_Ï_ÌÌ_È_ËÂÌÚ_147" data-name="¡ÂÁ˚ÏˇÌÌ˚È „‡‰ËÂÌÚ 147" x1="3261.42" y1="101.65" x2="3646.41" y2="357.5" gradientTransform="translate(4253.24) rotate(-180) scale(1 -1)" gradientUnits="userSpaceOnUse">
      <stop offset="0" stop-color="#ce92b2"/>
      <stop offset=".11" stop-color="#b88ab3"/>
      <stop offset=".36" stop-color="#8e7cb6"/>
      <stop offset=".49" stop-color="#7e77b8"/>
      <stop offset=".59" stop-color="#8879b4"/>
      <stop offset=".76" stop-color="#a37fa9"/>
      <stop offset=".97" stop-color="#d08898"/>
      <stop offset="1" stop-color="#d68a96"/>
    </linearGradient>
    <linearGradient id="_ÂÁ_Ï_ÌÌ_È_ËÂÌÚ_103" data-name="¡ÂÁ˚ÏˇÌÌ˚È „‡‰ËÂÌÚ 103" x1="2770.76" y1="178.22" x2="3149.02" y2="305.92" gradientTransform="translate(4253.24) rotate(-180) scale(1 -1)" gradientUnits="userSpaceOnUse">
      <stop offset="0" stop-color="#ce92b2"/>
      <stop offset=".13" stop-color="#b891b5"/>
      <stop offset=".43" stop-color="#8e91bd"/>
      <stop offset=".58" stop-color="#7e91c0"/>
      <stop offset=".66" stop-color="#8890bb"/>
      <stop offset=".8" stop-color="#a38dad"/>
      <stop offset=".98" stop-color="#d08a98"/>
      <stop offset="1" stop-color="#d68a96"/>
    </linearGradient>
    <linearGradient id="_ÂÁ_Ï_ÌÌ_È_ËÂÌÚ_20-2" data-name="¡ÂÁ˚ÏˇÌÌ˚È „‡‰ËÂÌÚ 20" x1="3311.03" y1="32.1" x2="3375.92" y2="121.84" xlink:href="#_ÂÁ_Ï_ÌÌ_È_ËÂÌÚ_20"/>
    <linearGradient id="_ÂÁ_Ï_ÌÌ_È_ËÂÌÚ_145-2" data-name="¡ÂÁ˚ÏˇÌÌ˚È „‡‰ËÂÌÚ 145" x1="3341.83" y1="137.18" x2="3658.24" y2="323.05" xlink:href="#_ÂÁ_Ï_ÌÌ_È_ËÂÌÚ_145"/>
    <linearGradient id="_ÂÁ_Ï_ÌÌ_È_ËÂÌÚ_20-3" data-name="¡ÂÁ˚ÏˇÌÌ˚È „‡‰ËÂÌÚ 20" x1="3359.78" y1="93.68" x2="3477.41" y2="232.86" xlink:href="#_ÂÁ_Ï_ÌÌ_È_ËÂÌÚ_20"/>
    <linearGradient id="_ÂÁ_Ï_ÌÌ_È_ËÂÌÚ_103-2" data-name="¡ÂÁ˚ÏˇÌÌ˚È „‡‰ËÂÌÚ 103" x1="2799.47" y1="92.52" x2="3177.92" y2="220.29" xlink:href="#_ÂÁ_Ï_ÌÌ_È_ËÂÌÚ_103"/>
    <radialGradient id="_ÂÁ_Ï_ÌÌ_È_ËÂÌÚ_7-2" data-name="¡ÂÁ˚ÏˇÌÌ˚È „‡‰ËÂÌÚ 7" cx="3708.12" cy="890.6" fx="3708.12" fy="890.6" r="38.52" gradientTransform="translate(4249.12 -435.98) rotate(-180) scale(.99 -.82)" xlink:href="#_ÂÁ_Ï_ÌÌ_È_ËÂÌÚ_7"/>
    <radialGradient id="_ÂÁ_Ï_ÌÌ_È_ËÂÌÚ_7-3" data-name="¡ÂÁ˚ÏˇÌÌ˚È „‡‰ËÂÌÚ 7" cx="-4009.29" cy="15727.96" fx="-4009.29" fy="15727.96" r="23.69" gradientTransform="translate(5852.21 -5633.16) rotate(-107.79) scale(1 -.43) skewX(-.18)" xlink:href="#_ÂÁ_Ï_ÌÌ_È_ËÂÌÚ_7"/>
    <radialGradient id="_ÂÁ_Ï_ÌÌ_È_ËÂÌÚ_7-4" data-name="¡ÂÁ˚ÏˇÌÌ˚È „‡‰ËÂÌÚ 7" cx="-4022.83" cy="15824.86" fx="-4022.83" fy="15824.86" r="23.69" gradientTransform="translate(5852.21 -5633.16) rotate(-107.79) scale(1 -.43) skewX(-.18)" xlink:href="#_ÂÁ_Ï_ÌÌ_È_ËÂÌÚ_7"/>
    <radialGradient id="_ÂÁ_Ï_ÌÌ_È_ËÂÌÚ_7-5" data-name="¡ÂÁ˚ÏˇÌÌ˚È „‡‰ËÂÌÚ 7" cx="-3225" cy="-26304.31" fx="-3225" fy="-26304.31" r="16.34" gradientTransform="translate(9870.23 5348.62) rotate(77.82) scale(2.11 -.31) skewX(-.04)" xlink:href="#_ÂÁ_Ï_ÌÌ_È_ËÂÌÚ_7"/>
    <radialGradient id="_ÂÁ_Ï_ÌÌ_È_ËÂÌÚ_7-6" data-name="¡ÂÁ˚ÏˇÌÌ˚È „‡‰ËÂÌÚ 7" cx="-434.52" cy="896.65" fx="-434.52" fy="896.65" r="16.34" gradientTransform="translate(-440.73 -435.98) rotate(-180) scale(2.36 -.82)" xlink:href="#_ÂÁ_Ï_ÌÌ_È_ËÂÌÚ_7"/>
    <linearGradient id="_ÂÁ_Ï_ÌÌ_È_ËÂÌÚ_20-4" data-name="¡ÂÁ˚ÏˇÌÌ˚È „‡‰ËÂÌÚ 20" x1="3616.77" y1="296.57" x2="3567.47" y2="242.3" xlink:href="#_ÂÁ_Ï_ÌÌ_È_ËÂÌÚ_20"/>
    <radialGradient id="_ÂÁ_Ï_ÌÌ_È_ËÂÌÚ_7-7" data-name="¡ÂÁ˚ÏˇÌÌ˚È „‡‰ËÂÌÚ 7" cx="3702.9" cy="273.79" fx="3702.9" fy="273.79" r="30.85" gradientTransform="translate(4249.12) rotate(-180) scale(.99 -1)" xlink:href="#_ÂÁ_Ï_ÌÌ_È_ËÂÌÚ_7"/>
    <radialGradient id="_ÂÁ_Ï_ÌÌ_È_ËÂÌÚ_7-8" data-name="¡ÂÁ˚ÏˇÌÌ˚È „‡‰ËÂÌÚ 7" cx="3748.27" cy="162.64" fx="3748.27" fy="162.64" r="30.85" gradientTransform="translate(4249.12) rotate(-180) scale(.99 -1)" xlink:href="#_ÂÁ_Ï_ÌÌ_È_ËÂÌÚ_7"/>
    <radialGradient id="_ÂÁ_Ï_ÌÌ_È_ËÂÌÚ_151-2" data-name="¡ÂÁ˚ÏˇÌÌ˚È „‡‰ËÂÌÚ 151" cx="8744.3" cy="273.07" fx="8744.3" fy="273.07" r="30.85" gradientTransform="translate(5657.49) rotate(-180) scale(.58 -1)" xlink:href="#_ÂÁ_Ï_ÌÌ_È_ËÂÌÚ_151"/>
    <radialGradient id="_ÂÁ_Ï_ÌÌ_È_ËÂÌÚ_7-9" data-name="¡ÂÁ˚ÏˇÌÌ˚È „‡‰ËÂÌÚ 7" cx="4153.37" cy="-1068.77" fx="4153.37" fy="-1068.77" r="21.24" gradientTransform="translate(4776.87 553.12) rotate(169.74) scale(.99 -1) skewX(.24)" xlink:href="#_ÂÁ_Ï_ÌÌ_È_ËÂÌÚ_7"/>
    <radialGradient id="_ÂÁ_Ï_ÌÌ_È_ËÂÌÚ_151-3" data-name="¡ÂÁ˚ÏˇÌÌ˚È „‡‰ËÂÌÚ 151" cx="20510.15" cy="-1068.68" fx="20510.15" fy="-1068.68" r="13.92" gradientTransform="translate(7046.99 142.47) rotate(169.74) scale(.31 -1) skewX(.79)" xlink:href="#_ÂÁ_Ï_ÌÌ_È_ËÂÌÚ_151"/>
    <radialGradient id="_ÂÁ_Ï_ÌÌ_È_ËÂÌÚ_7-10" data-name="¡ÂÁ˚ÏˇÌÌ˚È „‡‰ËÂÌÚ 7" cx="6590.22" cy="-291.65" fx="6590.22" fy="-291.65" r="12.82" gradientTransform="translate(5078.28 1192.11) rotate(-173.54) scale(.69 -1.51) skewX(-8.09)" xlink:href="#_ÂÁ_Ï_ÌÌ_È_ËÂÌÚ_7"/>
    <radialGradient id="_ÂÁ_Ï_ÌÌ_È_ËÂÌÚ_153" data-name="¡ÂÁ˚ÏˇÌÌ˚È „‡‰ËÂÌÚ 153" cx="3724.5" cy="-845.37" fx="3724.5" fy="-845.37" r="12.84" gradientTransform="translate(4249.12 1470.96) rotate(-180) scale(.99 -1.49)" gradientUnits="userSpaceOnUse">
      <stop offset="0" stop-color="#e6941f"/>
      <stop offset=".11" stop-color="#b27217"/>
      <stop offset=".23" stop-color="#835411"/>
      <stop offset=".34" stop-color="#5a3a0c"/>
      <stop offset=".46" stop-color="#392507"/>
      <stop offset=".59" stop-color="#201404"/>
      <stop offset=".72" stop-color="#0e0901"/>
      <stop offset=".85" stop-color="#030200"/>
      <stop offset="1" stop-color="#000"/>
    </radialGradient>
    <radialGradient id="_ÂÁ_Ï_ÌÌ_È_ËÂÌÚ_153-2" data-name="¡ÂÁ˚ÏˇÌÌ˚È „‡‰ËÂÌÚ 153" cx="3685.37" cy="-887.38" fx="3685.37" fy="-887.38" r="12.84" xlink:href="#_ÂÁ_Ï_ÌÌ_È_ËÂÌÚ_153"/>
    <radialGradient id="_ÂÁ_Ï_ÌÌ_È_ËÂÌÚ_153-3" data-name="¡ÂÁ˚ÏˇÌÌ˚È „‡‰ËÂÌÚ 153" cx="2224.06" cy="671.24" fx="2224.06" fy="671.24" r="7.84" gradientTransform="translate(3016.83 -3.81) rotate(-160.54) scale(.99 -1.48) skewX(-.66)" xlink:href="#_ÂÁ_Ï_ÌÌ_È_ËÂÌÚ_153"/>
    <radialGradient id="_ÂÁ_Ï_ÌÌ_È_ËÂÌÚ_153-4" data-name="¡ÂÁ˚ÏˇÌÌ˚È „‡‰ËÂÌÚ 153" cx="2223.08" cy="648.71" fx="2223.08" fy="648.71" r="2.85" gradientTransform="translate(3016.83 -3.81) rotate(-160.54) scale(.99 -1.48) skewX(-.66)" xlink:href="#_ÂÁ_Ï_ÌÌ_È_ËÂÌÚ_153"/>
    <radialGradient id="_ÂÁ_Ï_ÌÌ_È_ËÂÌÚ_153-5" data-name="¡ÂÁ˚ÏˇÌÌ˚È „‡‰ËÂÌÚ 153" cx="2639.17" cy="405.47" fx="2639.17" fy="405.47" r="5.29" gradientTransform="translate(3253.5 350.83) rotate(-164.82) scale(.99 -1.48) skewX(-.53)" xlink:href="#_ÂÁ_Ï_ÌÌ_È_ËÂÌÚ_153"/>
    <radialGradient id="_ÂÁ_Ï_ÌÌ_È_ËÂÌÚ_153-6" data-name="¡ÂÁ˚ÏˇÌÌ˚È „‡‰ËÂÌÚ 153" cx="4219.1" cy="-2253.11" fx="4219.1" fy="-2253.11" r="2.85" gradientTransform="translate(5475.31 2209.18) rotate(163.17) scale(.99 -1.48) skewX(.58)" xlink:href="#_ÂÁ_Ï_ÌÌ_È_ËÂÌÚ_153"/>
    <radialGradient id="_ÂÁ_Ï_ÌÌ_È_ËÂÌÚ_153-7" data-name="¡ÂÁ˚ÏˇÌÌ˚È „‡‰ËÂÌÚ 153" cx="4219.17" cy="-2311.63" fx="4219.17" fy="-2311.63" r="2.85" gradientTransform="translate(5475.31 2209.18) rotate(163.17) scale(.99 -1.48) skewX(.58)" xlink:href="#_ÂÁ_Ï_ÌÌ_È_ËÂÌÚ_153"/>
    <radialGradient id="_ÂÁ_Ï_ÌÌ_È_ËÂÌÚ_153-8" data-name="¡ÂÁ˚ÏˇÌÌ˚È „‡‰ËÂÌÚ 153" cx="4062.69" cy="-2280.33" fx="4062.69" fy="-2280.33" r="2.85" gradientTransform="translate(5475.31 2209.18) rotate(163.17) scale(.99 -1.48) skewX(.58)" xlink:href="#_ÂÁ_Ï_ÌÌ_È_ËÂÌÚ_153"/>
    <radialGradient id="_ÂÁ_Ï_ÌÌ_È_ËÂÌÚ_153-9" data-name="¡ÂÁ˚ÏˇÌÌ˚È „‡‰ËÂÌÚ 153" cx="2961.64" cy="70.9" fx="2961.64" fy="70.9" r="2.85" gradientTransform="translate(3476.91 674.87) rotate(-169.21) scale(.99 -1.49) skewX(-.38)" xlink:href="#_ÂÁ_Ï_ÌÌ_È_ËÂÌÚ_153"/>
    <radialGradient id="_ÂÁ_Ï_ÌÌ_È_ËÂÌÚ_153-10" data-name="¡ÂÁ˚ÏˇÌÌ˚È „‡‰ËÂÌÚ 153" cx="2311.04" cy="687.6" fx="2311.04" fy="687.6" r="2.85" gradientTransform="translate(3100.1 41.6) rotate(-161.3) scale(.99 -1.48) skewX(-.64)" xlink:href="#_ÂÁ_Ï_ÌÌ_È_ËÂÌÚ_153"/>
    <radialGradient id="_ÂÁ_Ï_ÌÌ_È_ËÂÌÚ_7-11" data-name="¡ÂÁ˚ÏˇÌÌ˚È „‡‰ËÂÌÚ 7" cx="3762.67" cy="-906.76" fx="3762.67" fy="-906.76" r="12.84" gradientTransform="translate(4249.12 1470.96) rotate(-180) scale(.99 -1.49)" xlink:href="#_ÂÁ_Ï_ÌÌ_È_ËÂÌÚ_7"/>
    <radialGradient id="_ÂÁ_Ï_ÌÌ_È_ËÂÌÚ_153-11" data-name="¡ÂÁ˚ÏˇÌÌ˚È „‡‰ËÂÌÚ 153" cx="2106.91" cy="846.09" fx="2106.91" fy="846.09" r="12.84" gradientTransform="translate(3005.84 -148.39) rotate(-158.44) scale(.99 -1.48) skewX(-.71)" xlink:href="#_ÂÁ_Ï_ÌÌ_È_ËÂÌÚ_153"/>
    <linearGradient id="_ÂÁ_Ï_ÌÌ_È_ËÂÌÚ_9" data-name="¡ÂÁ˚ÏˇÌÌ˚È „‡‰ËÂÌÚ 9" x1="3254.85" y1="456.69" x2="3313.9" y2="911.72" gradientTransform="translate(4253.24) rotate(-180) scale(1 -1)" gradientUnits="userSpaceOnUse">
      <stop offset="0" stop-color="#de9c9b"/>
      <stop offset="1" stop-color="#4c3aa3"/>
    </linearGradient>
    <linearGradient id="_ÂÁ_Ï_ÌÌ_È_ËÂÌÚ_248" data-name="¡ÂÁ˚ÏˇÌÌ˚È „‡‰ËÂÌÚ 248" x1="2769.14" y1="612.58" x2="2834.93" y2="741.91" gradientTransform="translate(4253.24) rotate(-180) scale(1 -1)" gradientUnits="userSpaceOnUse">
      <stop offset="0" stop-color="#ffd1b8"/>
      <stop offset=".13" stop-color="#f3aeab"/>
      <stop offset=".28" stop-color="#e88c9f"/>
      <stop offset=".36" stop-color="#e4809b"/>
      <stop offset=".47" stop-color="#d77da0"/>
      <stop offset=".66" stop-color="#b777ae"/>
      <stop offset=".92" stop-color="#826ec5"/>
      <stop offset="1" stop-color="#706bce"/>
    </linearGradient>
    <linearGradient id="_ÂÁ_Ï_ÌÌ_È_ËÂÌÚ_2" data-name="¡ÂÁ˚ÏˇÌÌ˚È „‡‰ËÂÌÚ 2" x1="3247.02" y1="644.84" x2="3247.51" y2="645.23" gradientTransform="translate(4253.24) rotate(-180) scale(1 -1)" gradientUnits="userSpaceOnUse">
      <stop offset="0" stop-color="#73ffc5"/>
      <stop offset="1" stop-color="#000"/>
    </linearGradient>
    <linearGradient id="_ÂÁ_Ï_ÌÌ_È_ËÂÌÚ_248-2" data-name="¡ÂÁ˚ÏˇÌÌ˚È „‡‰ËÂÌÚ 248" x1="4060.45" y1="577.96" x2="4218.32" y2="962.12" xlink:href="#_ÂÁ_Ï_ÌÌ_È_ËÂÌÚ_248"/>
  </defs>
  <g class="cls-71">
    <g id="Layer_2" data-name="Layer 2">
      <g id="Layer_1-2" data-name="Layer 1">
        <g class="cls-70">
          <path class="cls-57" d="m2532.15,528.51l-3.01-52.42s-422.87,22.67-420.15,33.01c2.72,10.35,89.77,8.28,89.77,12.42s-108.81-2.07-111.53,6.21c-2.72,8.28-670.46,16.56-670.46,16.56l-340.05-18.63L0,433.12v186.44l1598.38,26.5,933.76,14.23v-131.78Z"/>
          <g class="cls-65">
            <path class="cls-62" d="m1444.96,312.88s-44.71-7.27-79.31-10.16c-34.61-2.9-34.93,16.17-34.93,16.17,0,0-246.44-61.91-301.05-40.75-54.61,21.16-29.39,66.23-29.39,66.23,0,0-95.19-29.13-128.34-7.21-33.15,21.92,4.61,38.98,4.61,38.98l-160.22,6.72s-15.64-54.43-31.42-57c-15.78-2.57-20.52,10.32-20.52,10.32,0,0-28.79-56.57-128.63-56.41-11.84.01-22.29,1.07-31.51,2.91-68.53,13.68-69.21,70.84-69.21,70.84-71.71-58.08-61.85-18.25-61.85-18.25l-140.12-.93-196.9-51.13,147.26,23.94s-12.82-21.2-86.03-35.83c-20.83-4.16-56.71-11.22-97.39-19.18v74.27l133.42,40.88s-36.43,15.08-24.74,36.94c11.69,21.86,246.28,13.49,246.28,13.49,0,0-11.48,2.83,3.97,24.46,15.45,21.63,141.49,9.35,163.69-11.62,22.21-20.97-36.49-25.05-36.49-25.05,0,0-7.66-36.75,39.16-42.79,46.82-6.04,147.69,21.28,147.69,21.28,0,0-52.5,7.85-51.56,18.93s453.85-38.19,453.85-38.19c0,0-40.19,15.31-30.1,19.69,9.84,4.28,781.47-120.38,817.21-126.17l-417.42,54.62Z"/>
            <path class="cls-62" d="m916.11,427.28l-151.58,24.43s36.28-24.05,62.73-27.25c26.45-3.2,61.77.67,61.77.67,0,0,11.96-12.31,25.5-11.23,13.54,1.08,16.5,3.43,16.5,3.43l309.1-40.13,10.58-1.28-334.6,51.37Z"/>
            <path class="cls-62" d="m437.59,490.47l159.7-20.46-45.55-1.94s15.26-11.17-3.15-14.17c-18.41-2.99-65.97,24.78-65.97,24.78,0,0-4.41-6.18-15.36-5.23-10.94.95-48.51,16.69-51.14,16.26-2.63-.43-67.01-2.7-129.7-15.62-62.69-12.92-99.08-21.57-99.08-21.57,0,0,84.67,27.42,97.82,29.56,13.15,2.14,152.43,8.39,152.43,8.39Z"/>
          </g>
          <g class="cls-68">
            <path class="cls-63" d="m2532.15,691.26c-117.21-31.49-436.89-118.48-475.27-140.68-47.1-27.25-121.12-104.46-121.12-104.46l-26.92-56.77s-29.16-6.81-44.86-6.81-29.16,15.9-29.16,15.9l-33.65,11.35s-40.37,65.85-76.26,97.64c-35.89,31.79-143.55,65.85-143.55,65.85,0,0-85.23-40.87-94.21-52.23-8.97-11.35-47.1-45.42-47.1-45.42l-31.4,11.35s-22.6,47.69-108.87,63.58c-86.27,15.9-178.23,15.9-178.23,15.9l-213.27-33.41-134.4-107.38h-42.62l-170.47,147.5-275.89-15.8,69.53,145.33h2177.72v-11.46Z"/>
          </g>
          <path class="cls-26" d="m1482.14,400.71l-17.94,34.06-58.32,27.25-31.4-13.62s15.7-20.44,15.7-22.71,2.24-11.35,2.24-11.35l11.22-4.54,17.94,2.27s6.73-11.35,22.43-11.35h38.13Z"/>
          <polygon class="cls-32" points="1020.08 477.91 1017.84 489.27 1004.38 498.35 995.41 489.27 1020.08 477.91"/>
          <path class="cls-52" d="m2429.22,689.09s-309.54-54.5-320.75-65.85c-11.21-11.35-67.29-43.14-67.29-43.14l-44.86-38.6-78.51-68.12-17.94-31.79-6.73,11.35-62.8,36.33-44.86-9.08-11.22-11.35,15.7-31.79s-33.65,43.14-40.37,47.69c-6.73,4.54-33.65,34.06-42.62,40.87-8.97,6.81-85.23,40.87-85.23,40.87l-89.72,22.71s-40.37-34.06-42.62-36.33c-2.24-2.27-11.22-20.44-13.46-22.71-2.24-2.27-20.19-18.17-20.19-18.17l-8.97-20.44-24.67,9.08-13.46-6.81s-13.46,20.44-24.67,27.25c-11.21,6.81-69.53,34.06-69.53,34.06l-40.37,2.27-446.36-52.23-53.83-72.66-22.43,9.08h-20.19v-9.08l-69.44,53.27-94.3,110.22,1423.05,89.23,438.66,3.87Z"/>
          <g class="cls-73">
            <path class="cls-40" d="m1831.99,626.8c119.71-20.02,446.29-75.73,486.63-94.12,49.51-22.57,130.65-92.27,130.65-92.27l32.27-53.9s29.68-3.96,45.31-2.45c15.63,1.52,27.49,18.64,27.49,18.64l32.39,14.55s33.83,69.44,66.48,104.55c32.65,35.11,136.52,79.41,136.52,79.41,0,0,88.78-32.45,98.81-42.88,10.03-10.43,51.27-40.65,51.27-40.65l30.16,14.33s17.89,49.65,102.22,73.8c84.33,24.15,175.87,33.04,175.87,33.04l215.5-12.65,144.14-93.9,42.42,4.12,155.42,163.28,3072.73,10.92-2879.85,137.93-2167.54-210.34,1.11-11.41Z"/>
          </g>
          <path class="cls-52" d="m1934.64,634.59s313.35-24.35,325.61-34.56c12.26-10.22,71.14-36.44,71.14-36.44l48.38-34.09,84.72-60.22,20.93-29.91,5.6,11.95,59,42.23,45.53-4.71,12.26-10.22-12.56-33.16s29.32,46.19,35.58,51.36c6.26,5.17,30.2,37.15,38.47,44.8,8.27,7.65,80.89,48.92,80.89,48.92l87.11,31.27s43.48-30,45.93-32.05c2.45-2.04,13.14-19.26,15.59-21.3,2.45-2.04,21.85-16.13,21.85-16.13l10.9-19.47,23.68,11.42,14.05-5.48s11.42,21.64,21.93,29.51c10.5,7.86,65.92,40.62,65.92,40.62l39.97,6.16,449.32-8.87,60.6-67.12,21.45,11.21,20.09,1.95.88-9.04,63.97,59.73,83.21,118.82-1425.01-48.63-436.99-38.52Z"/>
          <g class="cls-75">
            <path class="cls-41" d="m6837.01,679.52c-140.75-23.54-524.76-89.04-572.19-110.66-58.22-26.54-153.62-108.49-153.62-108.49l-37.95-63.38s-34.9-4.66-53.27-2.88c-18.37,1.78-32.32,21.91-32.32,21.91l-38.09,17.11s-39.77,81.65-78.16,122.93c-38.39,41.28-160.52,93.37-160.52,93.37,0,0-104.39-38.16-116.18-50.42-11.79-12.27-60.28-47.8-60.28-47.8l-35.46,16.85s-21.04,58.37-120.19,86.78c-99.16,28.4-206.79,38.84-206.79,38.84l-253.38-14.87-169.49-110.41-49.88,4.84-182.75,191.99-674.77,126.7,447.98,48.32,2548.62-247.32-1.3-13.41Z"/>
          </g>
          <path class="cls-52" d="m6716.31,688.68s-368.45-28.63-382.86-40.64c-14.41-12.01-83.65-42.85-83.65-42.85l-56.89-40.08-99.61-70.81-24.61-35.17-6.59,14.05-69.37,49.65-53.53-5.54-14.41-12.01,14.76-38.99s-34.48,54.31-41.84,60.39c-7.36,6.08-35.51,43.68-45.23,52.68-9.73,8.99-95.11,57.52-95.11,57.52l-102.42,36.76s-51.12-35.28-54-37.68c-2.88-2.4-15.45-22.64-18.33-25.05-2.88-2.4-25.69-18.97-25.69-18.97l-12.82-22.9-27.84,13.43-16.52-6.44s-13.43,25.45-25.78,34.69c-12.35,9.25-77.51,47.76-77.51,47.76l-46.99,7.24-528.32-10.43-71.25-78.93-25.22,13.18-23.63,2.29-1.03-10.63-75.22,70.23-97.85,139.71,1675.55-57.18,513.81-45.29Z"/>
          <polygon class="cls-37" points="2172.31 677.74 2037.73 636.87 1974.92 580.1 1918.85 559.66 1860.53 498.35 1867.26 550.58 1853.8 573.29 1768.56 589.18 1766.32 511.98 1775.29 480.18 1710.25 534.68 1636.23 586.91 1535.29 614.16 1461.27 595.99 1432.11 571.01 1425.38 511.98 1411.92 500.62 1400.71 523.33 1362.58 557.39 1286.31 573.29 918.46 580.1 761.45 534.68 727.8 468.83 732.29 446.12 631.35 518.79 615.65 645.95 2172.31 677.74"/>
          <g>
            <path class="cls-42" d="m1089.61,595.99l-67.29,24.98s-34.31-5.08-92.21-40.47c-.11-.07-.21-.13-.32-.19-.13-.08-.31-.2-.54-.34-21.22-12.97-43.94-27.16-66.45-41.74-.03,0-.06-.03-.08-.05-61.56-39.87-121.48-82.6-144.57-111.13-54.74-67.62-70.52-145.57-70.52-145.57,0,0-12.06,4.7-34.33,0-20.46-4.31-86.34-48.26-96.91-55.38-.94-.63-1.44-.97-1.44-.97,0,0-57.51,132.44-70.49,154.04-12.99,21.6-151.2,171.89-184.6,183.17-33.4,11.27-71.44-15.02-71.44-15.02l-28.76,9.4-49.17,33.82L0,605.41v29.22c142.63,2.68,638.39,20.65,638.39,20.65l7.11,2.01,280.49-15.19,73.29,13.14h81.64s78.86-.02,78.86-.02l-70.17-59.25Z"/>
            <path class="cls-60" d="m516.39,226.11l2.72,15.46.11.14s0,0,0,0l31.71,38.01,2.51-11.87,37.89,24.29s10.89-6.66,17.39-4.79c3.99,1.15,15.07-.71,23.04-2.32,2.6-.52,4.87-1.02,6.45-1.37h0c1.46-.33,2.33-.54,2.33-.54l41.42,106.38-8.35-2.81s31.55,46.02,48.25,60.1c10.08,8.51,83.94,55.51,140.86,91.41-61.56-39.87-121.48-82.6-144.58-111.13-54.74-67.62-70.52-145.58-70.52-145.58,0,0-3.5,1.36-10.21,1.89-5.74.45-13.84.28-24.12-1.88-9.19-1.94-27.54-11.87-45.93-22.87-22.55-13.49-45.15-28.58-50.98-32.5Z"/>
            <path class="cls-58" d="m501.99,241.98c14.77,19.03,43.62-2.85,43.62-2.85,0,0,13.02-5.31,13.69,12.35.67,17.67-17.03,32.73-17.03,32.73,0,0,1.5,1.77,4.14,4.28,12.1-19.76,31.41-52.24,35.04-64.19.14-.45.27-.91.38-1.36,3.01-11.71-10.38-20.27-19.91-12.97-2.58,1.97-5.31,2.78-7.99,1.42-10.74-5.44-12.08-42.81,2.68-49.6,14.77-6.79,32.89,27.86,28.86,62.51-3.1,26.68-20.18,59.35-27.89,72.98,5.82,3.7,12.89,6.86,20.44,7.34,19.53,1.22,39.33-4.6,39.33-4.6,0,0,23.83-101.54,78.19-119.2,54.37-17.67,107.39,27.86,107.39,27.86,0,0,18.12,47.56,61.08,48.24,42.96.68,27.52-32.62,27.52-32.62,0,0,190.62,16.31,214.78,0,35.25-23.79-93.2-28.08-99.05-28.52,4.41.41,59.35,5.61,56.77,10.17-2.68,4.76-136.25,5.44-136.25,5.44,0,0,10.74-57.08-28.19-66.59-38.93-9.51-61.3,31.49-61.3,31.49,0,0-1.79-180.3-75.62-176.22-73.83,4.08-78.02,87.36-78.02,87.36,0,0-30.88-21.74-51.01,3.4-19.92,24.88-14.86,53.43-14.61,53.97-.85-.9-109.11-86.29-124.76-11.05-10.74,51.64,7.72,76.3,7.72,76.3,0,0-14.77,12.91,0,31.94Z"/>
            <path class="cls-25" d="m516.82,240.18c.06.12.58,1.11,1.48,2.76,6.81,12.5,35.48,62.97,54.18,62.97,20.05,0,55.12-18.64,59.27-20.89.27-.14.41-.22.41-.22,0,0-30-.5-41.14-2.37-9.82-1.66-60.13-33.31-71.8-40.72,0,0,0,0,0,0-.05-.03-.09-.06-.14-.08-1.36-.86-2.15-1.37-2.26-1.44Z"/>
            <g>
              <path class="cls-61" d="m538.88,166.72c0,3.91,2.37,7.08,5.3,7.08s5.3-3.17,5.3-7.08-2.37-7.08-5.3-7.08-5.3,3.17-5.3,7.08Z"/>
              <path class="cls-1" d="m525.6,166.72c0,11.73,7.11,21.25,15.89,21.25s15.89-9.51,15.89-21.25-7.11-21.25-15.89-21.25-15.89,9.51-15.89,21.25Z"/>
              <ellipse class="cls-24" cx="542.2" cy="167.68" rx="9.78" ry="13.08"/>
            </g>
            <path class="cls-44" d="m516.81,267.41s-29.68,105.2-34.32,114.59c-4.64,9.39-32.47,20.67-32.47,20.67l-147.72,136.56-29.46,47.54h-28.76s109.81,79.62,109.81,79.62l237.61-2.55,13.92,6.57,40.38-28.27h91.2s-55.62-52.96-55.62-52.96c0,0-197.39-68.12-215.33-56.77-6.49,4.1,4.49-59.04,4.49-59.04l-41.97,30.4,6.49-16.91,28.89-76.69,32.47-19.73,20.4-123.04Z"/>
            <path class="cls-44" d="m568.78,317.67s.93,15.03,6.5,59.17c5.57,44.14,31.56,142.76,31.56,142.76l37.11,25.36,8.35,12.21-116.71-15.24,51.59-4.54,7.6-8.39-39.9-103.31h11.13s-1.86-46.96-1.86-46.96l4.63-61.05Z"/>
            <polygon class="cls-44" points="529.81 379.17 516.83 454.31 490.86 513.49 510.34 449.62 529.81 379.17"/>
            <path class="cls-44" d="m598.47,386.68s4.64,38.51,4.64,47.9c0,9.39,25.06,68.56,25.06,68.56v-17.85s62.17,101.43,62.17,101.43l85.36,32.86,140.09,4.68-162.36-36.61-53.81-35.68-73.3-130.54-18.55-.94-9.28-33.81Z"/>
            <polygon class="cls-15" points="188.42 550.15 227.39 566.11 218.11 566.11 162.36 556.1 188.42 550.15"/>
            <polygon class="cls-33" points="0 608.86 404.59 638.41 113.28 592.42 0 605.7 0 608.86"/>
            <path class="cls-60" d="m516.6,245.8l5.02,30.52s18.42,17.8,19.26,17.8,6.7,3.39,7.54,5.09c.84,1.7,1.67,6.78,1.67,6.78l3.35-4.24s5.02.85,8.37,3.39c3.35,2.54,25.12,7.63,25.12,7.63l10.05-9.33s0,4.24,1.68,2.54c1.66-1.68,38.82-21.95,39.54-22.35-1.58.36-3.84.86-6.45,1.37-4.15,2.25-39.23,20.88-59.27,20.89-18.7,0-47.37-50.48-54.18-62.97l-1.7,2.87Z"/>
            <path class="cls-46" d="m707.24,491.41c-6.88,2.4-30.83-39.13-36.52-45.13-5.69-6-5.69-15.84-12.09-20.41-6.4-4.56-18.97-54.01-24.66-54.01s-11.62,25.45-12.8,29.29c-1.19,3.84-5.69,20.17-10.67,22.33-4.98,2.16-8.77,9.84-12.33,12.24-3.56,2.4.24,7.44,0,21.85-.24,14.4,13.99,49.69,14.23,57.86.24,8.16,37.94,18.24,43.63,27.85,5.69,9.6,41.02,57.86,45.29,61.94,4.27,4.08-45.05-43.45-45.05-43.45,0,0-1.9-7.68-9.49-17.28-7.59-9.6-35.62-17.67-38.44-23.84-2.82-6.17-26.5-76.85-28.3-87-1.8-10.15-.16-19.76-2.64-20.24-2.48-.48-1.77,7.92-6.75,7.2-4.98-.72-5-1.9-5.46-15.47-.46-13.57-4.26-69.75-4.5-74.79-.24-5.04.47-12.48-3.56-11.28-4.03,1.2-11.86,8.16-11.86,11.28s-1.66,21.13-5.22,22.57c-3.56,1.44-6.64,3.6-6.4,6.72.24,3.12-3.08,17.04-3.79,19.45-.71,2.4-11.15,22.09-7.59,0,3.56-22.09,7.59-34.81,10.91-40.57,3.32-5.76,7.11-22.33,6.88-25.69-.24-3.36,4.74-14.16,4.74-14.16l-4.74-7.92,3.79-7.92s14.48,11.22,20.4,9.57c5.92-1.65,18.72-5.97,27.02-4.53,8.3,1.44,14.23,5.04,17.78,3.36,3.56-1.68,20.63-5.28,20.63-5.28,0,0,7.27-1.04,8.02.08.75,1.12,5.26,22.01,5.26,22.01l3.79,13.68s1.66,20.17,3.08,23.29c1.42,3.12,10.43,23.77,8.77,25.93-1.66,2.16,6.17,32.41,13.52,36.01,7.35,3.6,19.68,19.21,20.63,18.96.95-.24,9.96,11.52,9.96,11.52l2.61,8.88s8.54,8.88,1.9,5.52c-6.64-3.36-18.5-10.08-23.24-14.4-4.74-4.32-11.86-11.52-11.86-11.52l22.76,40.57,12.33,24.97Z"/>
            <path class="cls-38" d="m533.87,270.58s5.62,7.32,10.31,13.15c2.3,2.86,4.39,5.37,5.47,6.46,3.28,3.32,15.19,11.45,15.19,11.45,0,0,99.15-118.76,126.25-130.22,18.32-7.74,83.61-15.76,123.97-20.15,19.33-2.1,32.94-3.36,32.94-3.36l-5.36-64.21s-.31-7.51-3.84-16.82c-.54-1.44-1.16-2.92-1.88-4.43-7.44-15.79-24.53-33.99-63.66-30.29-13.32,1.26-23.77,5.57-31.96,11.67h0c-12.9,9.6-20.2,23.63-24.31,37.17-.1.32-.19.65-.29.97-8-4.63-17.65-2.84-25.77.48-9.37,3.82-16.7,9.67-17.1,9.98.15-.17,1.22-1.43,1.76-3.5,1.41-5.44-.94-16.49-33.93-27.83-9.98-3.43-18.56-2.99-25.88-.18-26.72,10.27-36.59,52.15-36.59,52.15,0,0-.01-.02-.03-.05-.85-1.24-18.1-25.55-38.13,3.84-1.98,2.9-3.42,5.88-4.42,8.9-9.37,28.36,20.79,60.13,20.79,60.13l-.42,1.51-23.1,83.17Z"/>
            <path class="cls-35" d="m557.39,187.4l-13.21,96.33c2.3,2.86,4.39,5.37,5.47,6.46.4.4.92.87,1.53,1.39l31.66-96.19s-22.77-25.47,6.71-31.8c29.48-6.33,10.72,25.92,10.72,25.92l21.14-14.77c-.33.34-21.27,21.92-38.7,49.43-14.17,22.36-26.98,55.51-31.41,67.5,4.49,3.78,13.54,9.97,13.54,9.97,0,0,99.15-118.76,126.25-130.22,18.32-7.74,83.61-15.76,123.97-20.15l4.06-3.06,19.68-81.33,2.35-9.7c-.09.12-1.59,2.15-4.22,5.27-11.2,13.29-42.99,46.45-74.38,37.23-38.86-11.41-21.38-55.52-21.25-55.85-12.9,9.6-20.2,23.63-24.31,37.16,0,0,.24.55.6,1.51,1.91,5.16,7.02,21.99-5.51,26.55-2.95,1.07-6.88,1.47-12.06.87-31.26-3.62-9.08-27.48-9.08-27.48-9.37,3.82-16.7,9.67-17.1,9.98.15-.17,1.22-1.43,1.76-3.5l-1.77,3.51h0s0,0,0,0c0,0-26.5,35.87-58.06,12.96-17.13-12.43-16.08-33.16.02-44.49-26.72,10.27-36.59,52.15-36.59,52.15,0,0-.01-.02-.03-.05.52,1.89,10.53,39.02-7.46,47.25-18.46,8.44-33.35-12.06-35.73-23.51-.61-2.94-.24-6.83.65-10.99-9.37,28.36,20.79,60.13,20.79,60.13l-.42,1.51h.42Zm104.81-77.47c14.29-3.92,14.59,6.93,14.59,6.93l-2.97,6.62c.03-.24.71-5.44-7.15-6.62-7.98-1.2-18.64-3.04-4.47-6.93Zm-33.35,31.05c6.85,2.71,2.38,15.98-2.98,15.98,0,0-5.66.6-9.83,0-4.17-.6-7.15-5.12-7.44-9.04-.3-3.92,13.4-9.65,20.25-6.93Zm-19.06-24.11c22.03,3.01,14.89,19.59,14.89,19.59-1.19,4.52-26.8,3.01-30.67-1.21-3.87-4.22-6.25-21.4,15.78-18.39Z"/>
            <g>
              <path class="cls-39" d="m564.74,304.2l1.82.5,14.61,3.96s55.43-111.48,168.38-127.83c69.91-10.12,199.61-10.57,288.3-9.44,54.61.69,93.67,1.98,93.67,1.98l-51.34-5.94s-28.07-63.85-61.62-62.42c-34.37,1.47-62.75,31.74-63.64,32.68,1.15-1.6,69.39-97.3-51.37-102.53-13.11-.57-24.99.34-35.77,2.36h-.02c-31.38,5.87-53.3,21.13-68.14,36.72-20.02,21.03-27.14,42.65-27.14,42.65,0,0-22.94-17.81-41.41.03-4.04,3.89-7.29,7.92-9.9,11.85,0,.01-.02.02-.02.03-9.36,14.06-10.61,26.76-10.61,26.76,0,0-.59-.58-1.76-1.42-4.99-3.6-20.5-11.83-45.48,1.43-.23.12-.45.24-.69.37-1.48.86-3.05,1.97-4.68,3.31l-.03.02c-1.61,1.32-3.28,2.85-5.01,4.59h0c-33.44,33.56-88.13,140.34-88.13,140.34Z"/>
              <path class="cls-48" d="m1331.54,191.62c2.15,0,259.08,4,205.23,3.22s-58.16-33.52-88.32-26.5c-18.91,4.4-19.39,17.15-19.39,17.15,0,0-1.08-3.9-7.54-5.46-13.28-3.2-24.77,8.57-24.77,8.57l-65.21,3.01Z"/>
              <path class="cls-29" d="m564.74,304.12l18.26,11.08c47.84-76.24,95.02-90.44,111.36-99.17,82.62-44.17,182.92-49.57,182.92-49.57l160.55,4.84s-15.03-42.21-52.59-36.77c-36.97,5.35-64.84,18.6-65.7,19.02.9-.78,37.29-32.03,17.82-40.08-19.72-8.15-33.8,3.4-33.8,3.4,0,0,47.6-84.75-35.8-79.42h-.02c-31.38,5.87-53.3,21.13-68.14,36.72-21.78,28.97-25.6,64.44-25.6,64.44,0,0-10.33-29.22-35.68-21.74-7.22,2.13-12.83,6.56-17.18,11.83,0,.01-.02.02-.02.03-6.9,8.36-10.58,18.8-12.36,25.34-1.03,3.8-1.42,6.29-1.42,6.29,0,0-15.96,16.31-39.43,6.12-5.57-2.42-6.75-6.22-5.31-10.6.16-.5.37-1.02.6-1.54l-5.29,4.84-.03.02-5.01,4.59h0c-33.44,33.56-88.13,140.34-88.13,140.34Z"/>
              <path class="cls-43" d="m606.92,305.96c1.35-1.76,6.53-8.51,14.15-17.64,10.79-12.93,26.48-30.65,43.1-45.75.87,3.82,2.43,6.9,4.46,9.34,9.05,10.92,27.23,9.02,33.18,3,1.4-1.41,2.31-2.83,2.86-4.22,2.6-6.5-2.71-12.2-2.86-12.36.29.2,18.12,12.77,37.95,14.03,7.49.48,15.27-.66,22.49-4.69,14.49-8.08,15.18-19.03,12.84-27.3,20.09,6.56,37.35,13.91,46.34,12.46,18.18-2.93,8.54-14.48,8.22-14.86,1.53.21,143.4,19.71,143.74-16.36.23-23.61-23.75-29.56-47.21-29.75h0c-22.33-.18-44.18,4.87-44.18,4.87,0,0,17.47-16.73,1.04-22.67-16.28-5.88-32.54,5.73-32.85,5.95.07-.14,2.46-4.5,3.9-9.85,2.35-8.66,2.22-19.88-14.18-19.88-11.79,0-21.98,4.64-29.68,9.83-1.59,1.06-3.07,2.15-4.43,3.23-3.36,2.64-6.04,5.21-7.92,7.17-2.05,2.14-3.15,3.56-3.15,3.56,0,0,.05-.57.07-1.58.21-8.02-.62-43.59-32.62-33.96-3.2.96-6.72,2.38-10.58,4.33-47.22,23.79-20.52,56.48-20.52,56.48,0,0-85.24-47.31-145.68,116.87-14,38.04,24.48,5.43,21.54,9.75Z"/>
              <path class="cls-50" d="m769.31,187.61s-5.63-19.71,25.35-19.03c30.6.67,20.91,20.55,20.66,21.06.43-.39,11.37-10.13,16.89-7.47,5.63,2.72,0,7.47,0,7.47,0,0,25.35,8.83,69.48,8.15,44.12-.68,51.74-23.99,24.48-25.93h0c-22.33-.18-44.18,4.87-44.18,4.87,0,0,17.47-16.73,1.04-22.67-16.43-5.94-32.85,5.95-32.85,5.95,0,0,2.44-4.42,3.91-9.85-10.1,5.22-25.1,10.49-35.94,3.47-6.07-3.93-8.01-8.8-7.91-13.52,0-.96.11-1.92.28-2.85-1.37,2.02-2.94,4.08-4.71,6.08-2.29,2.58-4.92,5.04-7.92,7.17-.99.7-2.01,1.37-3.08,1.98-3.88,2.25-8.29,3.89-13.28,4.54-26.29,3.4-30.04-21.74-30.04-27.86,0-3.23,5.5-7.41,10.69-10.64-3.2.97-6.72,2.39-10.58,4.33-47.22,23.79-20.52,56.48-20.52,56.48l38.25,8.27Z"/>
              <path class="cls-51" d="m1072.78,183.94c1.65.15,34.06,3.08,77.35,5.45,55.54,3.02,128.98,5.11,178.41-.84.06,0,.2-.02.46-.05,4.88-.6,9.53-1.27,13.9-2.03,23.2-4.04,38.54-10.5,39.93-20.42,6.4-45.8-78.68-81.54-106.42-72.16-27.75,9.38-35.52,42.7-28.66,48.33,6.86,5.63,16.62,6.07,16.62,6.07l-34.45,1.99s-12.96-20.08-30.95-10.26c-17.99,9.83,13.11,18.32,2.29,30.24-10.83,11.91-48.16,19.09-128.46,13.69Z"/>
              <path class="cls-54" d="m1150.13,189.39c55.54,3.02,128.98,5.11,178.41-.84.06,0,.2-.02.46-.05,1.62-.16,7.27-.78,13.9-2.03,15.14-2.88,35.28-9.08,23.51-20.79-17.69-17.61-90.1-.36-91.61,0,.67-.39,15.34-8.94,3.33-11.31-12.29-2.43-44.7,13.75-44.7,13.75,0,0-25.7,17.79-68.16,20.22-5.11.29-10.17.66-15.14,1.07Z"/>
            </g>
            <path class="cls-47" d="m616.89,285.92s-2.61,4.08-9.49,0c-6.88-4.08-7.83-19.25-12.45-20.43-4.62-1.18-5.06,10.94-6.15,11.12-1.09.18-7.96-27.9-15.55-26.7-7.59,1.2-4.85,30.6-8.59,31.86s-3.93-6.07-7.51-5.88c-3.58.19-4.77,5.95-4.77,5.95,0,0-2.13-33.61-8.3-31.93-6.17,1.68,3.76,27.81,3.19,31.31-.58,3.5-6.34-2.15-6.34-2.15,0,0,11.93,17.41,20.23,21.25,8.3,3.84,36.76-1.68,36.76-1.68l19.54-6.33,10.78-5.43-11.35-.96Z"/>
            <g>
              <path class="cls-61" d="m629.93,285.99s-8.53,5.68-12.8,4.72c-4.27-.96-9.96,3.12-9.96,3.12l-3.56,3.12s-18.97-.96-26.32-.72c-7.35.24-11.05,3.58-11.05,3.58h-3.51l-11.78-8.21s-3.78,2.22-5.2,3.18c-1.42.96,4.01,3.91,3.43,6.76s.6,11.97-2.96,17.49c-3.56,5.52-6.17,9.12-6.17,11.28v7.2s6.17-17.04,7.83-17.76c1.66-.72,4.74-10.08,4.98-11.76.24-1.68,3.32-4.08,3.32-4.08,0,0,11.38,7.44,11.86,12.48.47,5.04.09,9.8.05,10.3s-.52,33.39-1.23,40.11c-.71,6.72,10.43,30.49,10.43,30.49,0,0-5.69-34.09-5.69-39.85s2.61-38.89,5.69-42.01c3.08-3.12,5.4-3.69,5.4-3.69l13.81,2.25s5.45-3.6,11.62-8.88c6.17-5.28,16.36-6.96,16.36-6.96,0,0,9.01,15.36,10.67,18.24,1.66,2.88,6.36,15.09,5.2,20.27-1.17,5.18,9.51,25.35,9.51,25.35l-4.03-21.37-4.98-19.69s1.9-6.96,1.9-8.16-10.67-18.72-10.67-18.72l-2.14-8.08Z"/>
              <polygon class="cls-61" points="658.63 393.22 662.66 403.31 674.99 416.51 685.9 425.87 680.21 416.03 670.72 407.87 658.63 393.22"/>
              <polygon class="cls-61" points="582.75 416.03 583.7 439.08 588.2 452.52 593.14 464.75 582.75 416.03"/>
              <polygon class="cls-61" points="568.99 389.14 571.37 396.1 572.55 401.39 570.65 413.39 568.99 389.14"/>
              <polygon class="cls-61" points="535.56 336.57 535.56 347.13 531.76 360.81 526.55 369.28 535.56 336.57"/>
              <path class="cls-61" d="m605.99,312.8s-5.69,1.68-6.17,5.28c-.47,3.6-1.66,13.2-1.66,13.2l4.03,13.68-3.79,14.64-3.44-22.97.12-12.07-3.79-6.96,14.7-4.8Z"/>
              <polygon class="cls-61" points="596.5 393.22 598.16 401.39 598.16 413.39 602.15 420.51 599.91 399.09 596.5 393.22"/>
              <polygon class="cls-61" points="629.7 366.58 619.74 377.38 619.74 382.18 613.81 404.75 605.99 420.59 617.84 404.99 621.4 382.18 629.7 366.58"/>
              <polygon class="cls-61" points="632.07 321.68 633.73 336.33 629.7 349.29 629.7 357.45 633.73 349.29 638.24 344.97 632.07 321.68"/>
            </g>
            <ellipse class="cls-5" cx="586.25" cy="291.2" rx="38.04" ry="31.45"/>
            <path class="cls-7" d="m624.87,276.1c-5.36,1.76-6.47,13.28-2.48,25.72,3.99,12.44,11.58,21.1,16.94,19.34,5.36-1.76,6.47-13.28,2.48-25.72-3.99-12.44-11.58-21.1-16.94-19.34Z"/>
            <path class="cls-6" d="m589.3,302.03c-5.36,1.76-6.47,13.28-2.48,25.72,3.99,12.44,11.58,21.1,16.94,19.34,5.36-1.76,6.47-13.28,2.48-25.72-3.99-12.44-11.58-21.1-16.94-19.34Z"/>
            <path class="cls-9" d="m592.85,469.41c2.69-.6,1.62-16.16-2.4-34.76-4.02-18.6-9.46-33.2-12.15-32.61-2.69.6-1.62,16.16,2.4,34.76,4.02,18.6,9.46,33.2,12.15,32.61Z"/>
            <ellipse class="cls-34" cx="584.05" cy="296.13" rx="38.53" ry="13.34"/>
            <path class="cls-61" d="m552.55,291.2s-1.82-44.41-8.46-41.29c-6.64,3.12,3.9,32.05,3.02,32.23-.88.18-6.66-3.68-6.66-3.68,0,0,7.95,12.32,10.66,13.85,2.71,1.53,1.44-1.11,1.44-1.11Z"/>
            <path class="cls-61" d="m576.34,272.95s5.22-24.97-1.9-23.29c-7.11,1.68-2.61,23.77-3.32,24.73-.71.96-.79-1.92-2.53,0-1.74,1.92,5.64,13.42,5.64,13.42l2.11-14.86Z"/>
            <path class="cls-30" d="m620.47,288.64l.6-.32c10.79-12.93,26.48-30.65,43.1-45.75.87,3.82,2.43,6.9,4.46,9.34-3.21-6.9-4.6-15.83,8.17-17.8,21.44-3.32,27.87,16.58,27.87,16.58,2.6-6.5-2.71-12.2-2.86-12.36.29.2,18.12,12.77,37.95,14.03-1.1-.58-2.43-1.15-4.01-1.67-18.16-6.03-34.54-42.5-3.57-48.83,30.97-6.33,42.88,18.39,42.88,18.39-2.08-32.25-55.98-29.84-55.98-29.84,0,0,3.28-11.76-21.31-11.47h-.01c-2.04.02-3.91.24-5.61.62-18.86,4.15-18.32,27.73-18.32,27.73,0,0-13.7-11.76-26.53,1.17-12.83,12.92,1.22,29.58,1.22,29.58l-28.04,50.61Z"/>
            <ellipse class="cls-45" cx="591.4" cy="273.79" rx="30.47" ry="30.85"/>
            <ellipse class="cls-31" cx="546.59" cy="162.64" rx="30.47" ry="30.85"/>
            <ellipse class="cls-49" cx="549.07" cy="273.07" rx="18.02" ry="30.85"/>
            <g>
              <path class="cls-61" d="m549.36,232.55c.75,4.24,2.61,7.45,4.16,7.17,1.55-.28,2.19-3.95,1.44-8.19-.75-4.24-2.61-7.45-4.16-7.17-1.55.28-2.19,3.95-1.44,8.19Z"/>
              <ellipse class="cls-8" cx="552.28" cy="232.02" rx="20.99" ry="21.25"/>
              <path class="cls-36" d="m547.94,233.66c1.34,7.57,4.34,13.36,6.7,12.93s3.2-6.91,1.86-14.48c-1.34-7.57-4.34-13.36-6.7-12.93-2.37.43-3.2,6.91-1.86,14.48Z"/>
            </g>
            <g>
              <path class="cls-61" d="m570.23,237.91c0,4.07,1.28,7.36,2.86,7.36s2.86-3.3,2.86-7.36-1.28-7.36-2.86-7.36-2.86,3.3-2.86,7.36Z"/>
              <path class="cls-2" d="m563.83,236.92c-.51,10.71,3.01,19.85,7.87,20.4,4.86.55,9.22-7.69,9.73-18.4.51-10.71-3.01-19.85-7.87-20.4s-9.22,7.69-9.74,18.4Z"/>
            </g>
            <g>
              <path class="cls-61" d="m567.33,213.84c0,1.77.96,3.21,2.13,3.21s2.13-1.44,2.13-3.21-.96-3.21-2.13-3.21-2.13,1.44-2.13,3.21Z"/>
              <path class="cls-14" d="m557.37,214.74c0,10.54,5.68,19.09,12.69,19.09s12.69-8.54,12.69-19.09-5.68-19.08-12.69-19.08-12.69,8.54-12.69,19.08Z"/>
            </g>
            <g>
              <path class="cls-61" d="m605.99,151.43c0,1.77.96,3.21,2.13,3.21s2.13-1.44,2.13-3.21-.96-3.21-2.13-3.21-2.13,1.44-2.13,3.21Z"/>
              <path class="cls-17" d="m596.03,152.32c0,10.54,5.68,19.08,12.69,19.08s12.69-8.54,12.69-19.08-5.68-19.08-12.69-19.08-12.69,8.54-12.69,19.08Z"/>
            </g>
            <g>
              <path class="cls-61" d="m616.53,203.83c-.35,1.02-.09,2.04.59,2.28.68.24,1.51-.39,1.87-1.41.35-1.02.09-2.04-.59-2.28-.68-.24-1.51.39-1.87,1.41Z"/>
              <path class="cls-19" d="m610.62,202.31c-2.09,6.07-.52,12.15,3.52,13.57,4.04,1.43,9-2.34,11.1-8.41,2.09-6.07.52-12.15-3.52-13.57s-9,2.34-11.1,8.41Z"/>
            </g>
            <g>
              <path class="cls-61" d="m629.23,173.22c-.13.37-.03.74.21.83.25.09.55-.14.68-.51.13-.37.03-.74-.21-.83-.25-.09-.55.14-.68.51Z"/>
              <path class="cls-18" d="m627.09,172.67c-.76,2.2-.19,4.41,1.28,4.93,1.47.52,3.27-.85,4.03-3.05.76-2.2.19-4.41-1.28-4.93-1.47-.52-3.27.85-4.03,3.05Z"/>
            </g>
            <g>
              <path class="cls-61" d="m580.41,248.87c-.19.7.04,1.38.51,1.51.47.13,1-.34,1.19-1.05.19-.7-.04-1.38-.51-1.51-.47-.13-1,.34-1.19,1.05Z"/>
              <path class="cls-21" d="m576.35,248.15c-1.11,4.19.25,8.2,3.04,8.96,2.79.76,5.94-2.03,7.05-6.22,1.11-4.19-.25-8.2-3.03-8.96-2.79-.76-5.94,2.03-7.05,6.22Z"/>
            </g>
            <g>
              <path class="cls-61" d="m534.96,209.13c.11.38.4.62.65.54.25-.08.36-.44.25-.82-.11-.38-.4-.62-.65-.54-.25.08-.36.44-.25.82Z"/>
              <path class="cls-22" d="m532.91,209.95c.66,2.24,2.4,3.69,3.89,3.24,1.49-.45,2.16-2.63,1.5-4.87-.66-2.24-2.4-3.69-3.89-3.24-1.49.45-2.16,2.63-1.5,4.87Z"/>
            </g>
            <g>
              <path class="cls-61" d="m510.3,125.82c.11.38.4.62.65.54.25-.08.36-.44.25-.82-.11-.38-.4-.62-.65-.54-.25.08-.36.44-.25.82Z"/>
              <path class="cls-23" d="m508.24,126.65c.66,2.24,2.4,3.69,3.89,3.24,1.49-.45,2.16-2.63,1.5-4.87-.66-2.24-2.4-3.69-3.89-3.24-1.49.45-2.16,2.63-1.5,4.87Z"/>
            </g>
            <g>
              <path class="cls-61" d="m671.55,125.58c.11.38.4.62.65.54.25-.08.36-.44.25-.82-.11-.38-.4-.62-.65-.54-.25.08-.36.44-.25.82Z"/>
              <path class="cls-16" d="m669.49,126.41c.66,2.24,2.4,3.69,3.89,3.24,1.49-.45,2.16-2.63,1.5-4.87-.66-2.24-2.4-3.69-3.89-3.24-1.49.45-2.16,2.63-1.5,4.87Z"/>
            </g>
            <g>
              <path class="cls-61" d="m582.23,230.2c-.07.39.08.74.33.79.26.05.52-.22.59-.61.07-.39-.08-.74-.33-.79-.26-.05-.52.22-.59.61Z"/>
              <path class="cls-20" d="m580.03,229.98c-.43,2.29.46,4.39,1.99,4.68,1.53.29,3.11-1.33,3.53-3.63.43-2.29-.46-4.39-1.99-4.68-1.53-.29-3.11,1.33-3.53,3.63Z"/>
            </g>
            <g>
              <path class="cls-61" d="m614.76,277.42c-.12.37-.02.74.23.83.25.08.55-.15.67-.52.12-.37.02-.74-.23-.83-.25-.08-.55.15-.67.52Z"/>
              <path class="cls-56" d="m612.61,276.9c-.73,2.21-.13,4.41,1.34,4.91,1.47.5,3.26-.89,3.99-3.11.73-2.21.13-4.41-1.34-4.91-1.47-.5-3.26.89-3.99,3.11Z"/>
            </g>
            <g>
              <path class="cls-61" d="m529.63,122.62c0,1.77.96,3.21,2.13,3.21s2.13-1.44,2.13-3.21-.96-3.21-2.13-3.21-2.13,1.44-2.13,3.21Z"/>
              <ellipse class="cls-3" cx="532.36" cy="123.51" rx="12.69" ry="19.09"/>
            </g>
            <g>
              <path class="cls-61" d="m613.37,255.15c-.64,1.65-.26,3.34.84,3.78,1.1.43,2.5-.55,3.14-2.21.64-1.65.26-3.34-.84-3.78-1.1-.43-2.5.55-3.14,2.21Z"/>
              <path class="cls-55" d="m603.77,252.32c-3.78,9.82-1.56,19.87,4.97,22.45,6.53,2.58,14.89-3.29,18.67-13.11,3.78-9.82,1.56-19.87-4.97-22.45-6.53-2.58-14.89,3.29-18.67,13.11Z"/>
            </g>
          </g>
          <path class="cls-28" d="m1123.26,648.22l-24.67-36.33-8.97-15.9s-56.08,27.25-62.8,29.52c-6.73,2.27-38.13-4.54-38.13-4.54l-67.29-4.54,44.86,40.87,157.01-9.08Z"/>
          <g>
            <path class="cls-4" d="m1653.71,666.34l-2.89-2.54-12.4-10.83-69.85-13.37-34.9-24.07-137.52-21.41-13.1-8.04-19.65-24.07-33.33-25.52-1.57-1.23-91.67,40.15-28.37,5.34-65.5,48.16-58.43,6.81-78.6,9.17-.25.05-.22.02-2.15-1.11-50.22-25.66v-8.02l-24.7-3.79-10.25-1.57-13.1-10.7-31.16-12.74-1.57-.64-37.1,29.43h-.02v13.37l-43.65,16.05-96.05,5.36-18.26-1.98-31.94-3.38s-.94-.79-2.42-1.95c-3.88-3.09-11.24-8.74-12.83-8.74-1.12,0-7.31,2.07-13.12,4.11-5.63,1.98-10.9,3.91-10.9,3.91l-30.55,2.68-108.14-3.63-51.21-1.73-11.71-4.97-45.04-19.1-63.3-117.72-10.9-24.09-82.95-16.03-72.02-34.79-15.3-26.75-49.64-68.78-.56-.77-28.37,21.39L1.41,385.45H0v311.27l117.08-8.98,305.36,2.88,367.61,3.47,1183.31,14.24v-29.43l-319.65-12.56Z"/>
            <polygon class="cls-13" points="51.62 345.31 64.72 321.23 36.34 342.63 1.42 385.44 0 385.44 0 519.1 36.34 497.8 42.89 503.15 51.62 489.77 36.34 446.97 40.71 390.79 51.62 345.31"/>
            <path class="cls-13" d="m414.46,677.74l207.52,77.82,357.72-75.55,17.94-27.25-38.13-18.17-6.46-.36-31.67-20.07-16.35,12.06-34.92-5.36,2.2-2.68h-13.1v-5.34l14.67-31.47-1.57-.64-37.1,29.43v13.37h-.02l-43.65,16.05-114.3,3.38-34.18-1.11s-.94-.79-2.42-1.95c-3.88-3.09-11.24-8.74-12.83-8.74-1.12,0-5.07-.2-10.88,1.84-5.63,1.98-10.9,3.91-10.9,3.91l-30.55,2.68-108.14-3.63-57.35,7.72,4.49,34.06Z"/>
            <polygon class="cls-13" points="1363.26 693.64 1289.24 659.57 1321.86 628.56 1346.33 626.06 1311.67 621.04 1311.67 598.51 1289.26 626.06 1285.81 631.24 1253.35 605.08 1284.82 564.68 1311.02 553.98 1328.47 535.25 1233.17 584.64 1208.43 580.73 1145.69 632.33 1087.37 639.14 1020.08 645.95 966.25 693.64 1363.26 693.64"/>
            <path class="cls-13" d="m372.41,660.19l-14.02-11.97-11.22-24.98-2.49-9.7-4.08,7.49,3.28,26.61h-69.31l-24.45-35.06-2.04-55.09-24.27-31.9,17.94,36.33.22,30.63-8.16,17.53,14.27,47.6-18.35,12.51-20.37-47.57-14.27-30.06v-35.06l-10.21,32.56,4.08,20.03-25.91,21.12,7.99-43.19-6.12-35.06-30.84-40.99,6.73,24.98-4.49,15.9-20.73,22.19-10.18,20.03-22.43,17.53s-10.92,18.01-22.07,37.9l-18.12-55.95-2.83-12.88,43.11-27.52,16.53-52.59-4.22-11.19-17.38-64.67,2.24,49.96-11.08,18.51-4.87,32.09-40.2,44.6-24.11,16.93v138.24l31.22,33.62,23.69-60.54,70.88,3.68v-13.22l28.53,8.2,303.68,5.02-85.59-42.58Z"/>
            <polygon class="cls-13" points="1517.6 619.88 1429.96 624.89 1366.78 647.43 1317.87 652.44 1366.78 629.9 1372.9 607.36 1381.05 597.34 1403.47 607.36 1417.73 607.36 1417.73 614.87 1423.85 614.87 1432 612.37 1438.11 614.87 1452.38 614.87 1517.6 619.88"/>
            <path class="cls-13" d="m1568.76,640.15l-28.53,2.5-69.29,20.03-40.76,12.52-97.83,7.51,16.3-7.51,16.3-5.01,8.15-10.02,44.84,7.51,30.57-5.01s14.27-10.02,16.3-10.02,24.46-2.5,24.46-2.5l52.99-12.52,26.49,2.5Z"/>
            <path class="cls-13" d="m1813.28,703.79c-1.99-1.04-93.71-16.06-93.71-16.06l-18.34,2.5-46.88,5.01-32.61-10.02,24.46-12.52-48.91,15.03s-20.38-2.5-24.46-2.5-46.88,10.02-61.14,12.52c-14.27,2.5-64.74,2.55-64.74,2.55l366.34,3.5Z"/>
            <polygon class="cls-59" points="1330.06 536.47 1340.49 548.19 1361.02 561.93 1381.05 589.67 1393.28 597.92 1532.07 618.34 1568.76 641.04 1636.01 655.48 1650.81 663.8 1638.42 652.97 1568.57 639.6 1533.66 615.52 1396.15 594.1 1383.05 586.07 1363.4 562 1330.06 536.47"/>
            <polygon class="cls-53" points="1005.92 644.88 1005.68 644.92 1006.25 645.17 1005.92 644.88"/>
            <polygon class="cls-27" points="928.39 606.38 951.22 612.15 951.22 620.41 1003.31 643.85 953.07 618.18 953.07 610.15 928.39 606.38"/>
            <polygon class="cls-64" points="65.27 321.99 80.96 352.18 105.42 387.26 113.57 401.7 129.87 420.27 184.9 453.28 199.17 455.34 266.42 469.79 284.77 473.91 352.02 612.15 404.42 629.26 359.38 610.15 296.08 492.44 285.17 468.36 202.22 452.31 130.2 417.54 114.91 390.78 65.27 321.99"/>
          </g>
          <polygon class="cls-32" points="398.38 457.36 382.03 465.64 365.68 467.71 363.63 457.36 398.38 457.36"/>
        </g>
      </g>
    </g>
  </g>
</svg>